%FSTAX23Y23*%
%MOIN*%
%SFA1B1*%

%IPPOS*%
%ADD32C,0.011810*%
%ADD38C,0.118110*%
%ADD39C,0.196850*%
%ADD42C,0.157480*%
%ADD80C,0.137800*%
%ADD81R,0.126000X0.091000*%
%ADD82R,0.091000X0.126000*%
%ADD83R,0.098000X0.067000*%
%ADD84R,0.067000X0.098000*%
%ADD85R,0.047370X0.051310*%
%ADD86R,0.051310X0.047370*%
%ADD87R,0.059180X0.067060*%
%ADD88R,0.110360X0.082800*%
%ADD89R,0.110360X0.114300*%
%ADD90R,0.039500X0.021780*%
%ADD91R,0.021780X0.039500*%
%ADD92R,0.145790X0.106420*%
%ADD93R,0.047370X0.086740*%
%ADD94O,0.019810X0.090680*%
%ADD95O,0.090680X0.019810*%
%ADD96R,0.039500X0.047370*%
%ADD97R,0.069020X0.059180*%
%ADD98R,0.067060X0.059180*%
%ADD99R,0.082800X0.114300*%
%ADD100R,0.039500X0.102490*%
%ADD101R,0.059180X0.039500*%
%ADD102R,0.039500X0.059180*%
%ADD103R,0.165480X0.039500*%
%ADD104R,0.039500X0.165480*%
%ADD105R,0.037530X0.097960*%
%ADD106R,0.399540X0.362920*%
%ADD107C,0.126110*%
%ADD108C,0.204850*%
%ADD109C,0.106420*%
%ADD110R,0.067060X0.067060*%
%ADD111C,0.067060*%
%ADD112C,0.033000*%
%ADD113C,0.086740*%
%LNninja_3_2_pcb-1*%
%LPD*%
G54D32*
X01215Y0273D02*
Y0277D01*
G54D38*
X019Y0277D02*
X0192D01*
X018D02*
X019D01*
X0175D02*
X018D01*
X017D02*
X0175D01*
X01425Y0278D02*
X01435Y0277D01*
X01315D02*
X01415D01*
X01385Y0282D02*
Y0285D01*
X01265Y0277D02*
X01315D01*
X01215D02*
X01265D01*
X0085Y02835D02*
X00857Y02827D01*
X0095Y0277D02*
X0097D01*
X0085D02*
X00915D01*
X008D02*
X0085D01*
X00769D02*
X008D01*
X00759Y02779D02*
X00769Y0277D01*
G54D39*
X0088Y02425D02*
X0179D01*
X01815Y0245*
X0188Y02825D02*
Y02858D01*
X01915Y02892*
Y0294*
X01385Y0285D02*
Y0294D01*
X0085Y02835D02*
Y0294D01*
X00437Y0272D02*
Y02738D01*
X0037Y0272D02*
X00437D01*
X00365Y0294D02*
X0037Y0272D01*
X00437Y02738D02*
X00561D01*
G54D42*
X00561Y02738D02*
X00581Y02718D01*
X0061*
X00688Y0264*
Y02611D02*
Y0264D01*
Y02611D02*
X00841Y02458D01*
G54D80*
X0079Y02535D02*
X008D01*
G54D81*
X00075Y02239D03*
Y02539D03*
Y01834D03*
Y02134D03*
Y01429D03*
Y01729D03*
Y01019D03*
Y01319D03*
Y00609D03*
Y00909D03*
Y00199D03*
Y00499D03*
X0223Y01935D03*
Y01635D03*
X0073Y02138D03*
Y0179D03*
X0225Y00861D03*
Y01209D03*
X0036Y00398D03*
Y0005D03*
X01819Y00055D03*
Y00502D03*
G54D82*
X01066Y0042D03*
X01414D03*
X00611Y0034D03*
X00959D03*
G54D83*
X00395Y02075D03*
Y02529D03*
G54D84*
X01014Y00126D03*
X0056D03*
G54D85*
X02105Y01465D03*
Y01531D03*
X01264Y02028D03*
Y02095D03*
X01385Y02028D03*
Y02095D03*
X01082Y02028D03*
Y02095D03*
X01143Y02028D03*
Y02095D03*
X01445Y02028D03*
Y02095D03*
X0163Y0035D03*
Y00416D03*
X01022Y02095D03*
Y02028D03*
X01566Y02095D03*
Y02028D03*
X01687Y02095D03*
Y02028D03*
X01495Y008D03*
Y00866D03*
X0161Y012D03*
Y01133D03*
X018Y008D03*
Y00866D03*
X01675Y012D03*
Y01133D03*
X0038Y02D03*
Y01933D03*
X0025Y0042D03*
Y00486D03*
Y0035D03*
Y00283D03*
X0067Y01505D03*
Y01438D03*
X0074Y01505D03*
Y01438D03*
X0032Y01935D03*
Y02001D03*
X0174Y00866D03*
Y008D03*
X0156Y00866D03*
Y008D03*
X00245Y00625D03*
Y00558D03*
Y00686D03*
Y00753D03*
Y01445D03*
Y01378D03*
Y0185D03*
Y01783D03*
Y01911D03*
Y01978D03*
Y0225D03*
Y02183D03*
Y02315D03*
Y02381D03*
X01055Y00595D03*
Y00661D03*
X00995Y00595D03*
Y00661D03*
X00875Y0066D03*
Y00593D03*
X0107Y017D03*
Y01633D03*
X01605Y01375D03*
Y01308D03*
X01385Y01475D03*
Y01408D03*
X00961Y02026D03*
Y02093D03*
X01203Y02028D03*
Y02095D03*
X01324Y02028D03*
Y02095D03*
X01505D03*
Y02028D03*
X01626Y02095D03*
Y02028D03*
X01747D03*
Y02095D03*
X0045Y02D03*
Y01933D03*
X0162Y008D03*
Y00866D03*
X0168Y008D03*
Y00866D03*
X005Y0152D03*
Y01586D03*
X0058Y0152D03*
Y01586D03*
X01125Y0063D03*
Y00696D03*
X0124Y00615D03*
Y00681D03*
X00935Y0066D03*
Y00593D03*
X01685Y01555D03*
Y01621D03*
X01545Y01308D03*
Y01375D03*
X00535Y01215D03*
Y01281D03*
X00245Y01506D03*
Y01573D03*
X0025Y0131D03*
Y01243D03*
X00815Y0066D03*
Y00593D03*
X00245Y01096D03*
Y01163D03*
X00535Y01148D03*
Y01081D03*
X00245Y0103D03*
Y00963D03*
G54D86*
X01775Y01465D03*
X01841D03*
X0192D03*
X01986D03*
X0206Y01375D03*
X01993D03*
X0205Y01255D03*
X01983D03*
X01511Y02155D03*
X01445D03*
X0045Y0186D03*
X00383D03*
X01795Y00995D03*
X01728D03*
X01795Y01055D03*
X01728D03*
X00915Y01505D03*
X00981D03*
X00665Y0102D03*
X00598D03*
X00755Y00515D03*
X00688D03*
X00885D03*
X00951D03*
X0205Y01315D03*
X01983D03*
X01365Y00605D03*
X01431D03*
X01145Y0187D03*
X01078D03*
X0179Y00935D03*
X01723D03*
X0202Y01185D03*
X01953D03*
X0036Y0084D03*
X00426D03*
X00365Y0093D03*
X00431D03*
X01335Y0071D03*
X01401D03*
X00635Y0061D03*
X00701D03*
X0125Y0183D03*
X01316D03*
G54D87*
X00505Y0144D03*
X00579D03*
X00705Y0068D03*
X0063D03*
X00575Y00835D03*
X005D03*
X00575Y00915D03*
X005D03*
G54D88*
X0064Y01266D03*
Y01096D03*
G54D89*
X01816Y01303D03*
G54D90*
X01895Y01352D03*
Y01333D03*
Y01313D03*
Y01293D03*
Y01274D03*
Y01254D03*
X01737D03*
Y01274D03*
Y01293D03*
Y01313D03*
Y01333D03*
Y01352D03*
G54D91*
X01767Y01382D03*
X01786D03*
X01806D03*
X01826D03*
X01845D03*
X01865D03*
Y01225D03*
X01845D03*
X01826D03*
X01806D03*
X01786D03*
X01767D03*
G54D92*
X0215Y00439D03*
G54D93*
X02241Y00195D03*
X0206D03*
X0215D03*
G54D94*
X00873Y01389D03*
X00893D03*
X00913D03*
X00932D03*
X00952D03*
X00972D03*
X00991D03*
X01011D03*
X01031D03*
X0105D03*
X0107D03*
X0109D03*
X0111D03*
X01129D03*
X01149D03*
X01169D03*
X01188D03*
X01208D03*
X01228D03*
X01247D03*
X01267D03*
X01287D03*
X01306D03*
X01326D03*
X01346D03*
Y0079D03*
X01326D03*
X01306D03*
X01287D03*
X01267D03*
X01247D03*
X01228D03*
X01208D03*
X01188D03*
X01169D03*
X01149D03*
X01129D03*
X0111D03*
X0109D03*
X0107D03*
X0105D03*
X01031D03*
X01011D03*
X00991D03*
X00972D03*
X00952D03*
X00932D03*
X00913D03*
X00893D03*
X00873D03*
G54D95*
X01409Y01326D03*
Y01306D03*
Y01286D03*
Y01267D03*
Y01247D03*
Y01227D03*
Y01208D03*
Y01188D03*
Y01168D03*
Y01149D03*
Y01129D03*
Y01109D03*
Y0109D03*
Y0107D03*
Y0105D03*
Y0103D03*
Y01011D03*
Y00991D03*
Y00971D03*
Y00952D03*
Y00932D03*
Y00912D03*
Y00893D03*
Y00873D03*
Y00853D03*
X0081D03*
Y00873D03*
Y00893D03*
Y00912D03*
Y00932D03*
Y00952D03*
Y00971D03*
Y00991D03*
Y01011D03*
Y0103D03*
Y0105D03*
Y0107D03*
Y0109D03*
Y01109D03*
Y01129D03*
Y01149D03*
Y01168D03*
Y01188D03*
Y01208D03*
Y01227D03*
Y01247D03*
Y01267D03*
Y01286D03*
Y01306D03*
Y01326D03*
G54D96*
X0177Y01525D03*
X01844D03*
X01807Y01623D03*
X01915Y01525D03*
X01989D03*
X01952Y01623D03*
G54D97*
X01907Y0059D03*
Y00767D03*
X0222D03*
Y0059D03*
G54D98*
X00655Y01575D03*
Y01649D03*
X00735Y01575D03*
Y01649D03*
G54D99*
X02241Y0007D03*
X0206D03*
G54D100*
X01749Y01718D03*
Y01878D03*
X01799Y01718D03*
Y01878D03*
X01849Y01718D03*
Y01878D03*
X01899Y01718D03*
Y0188D03*
X01949Y01718D03*
Y01878D03*
G54D101*
X0018Y02438D03*
Y02389D03*
Y0234D03*
Y02033D03*
Y01984D03*
Y01935D03*
Y01628D03*
Y01579D03*
Y0153D03*
Y01218D03*
Y01169D03*
Y0112D03*
Y00808D03*
Y00759D03*
Y0071D03*
Y00398D03*
Y00349D03*
Y003D03*
X02125Y01736D03*
Y01785D03*
Y01835D03*
X00835Y01939D03*
Y0189D03*
Y01988D03*
Y02037D03*
X02145Y0106D03*
Y0111D03*
Y01011D03*
Y00962D03*
X00465Y00199D03*
Y0015D03*
Y00248D03*
Y00297D03*
X01714Y00303D03*
Y00254D03*
Y00156D03*
Y00205D03*
Y00402D03*
Y00352D03*
G54D102*
X01265Y00525D03*
X01315D03*
X01216D03*
X01167D03*
X0081Y00445D03*
X0086D03*
X00761D03*
X00712D03*
G54D103*
X00445Y02155D03*
Y02214D03*
Y02273D03*
Y02332D03*
Y02391D03*
Y0245D03*
G54D104*
X00935Y00176D03*
X00875D03*
X00816D03*
X00757D03*
X00698D03*
X00639D03*
G54D105*
X0105Y0277D03*
X01D03*
X0095D03*
X0085D03*
X008D03*
X0075D03*
X01515D03*
X01465D03*
X01415D03*
X01315D03*
X01265D03*
X01215D03*
X02D03*
X0195D03*
X019D03*
X018D03*
X0175D03*
X017D03*
G54D106*
X009Y02458D03*
X01365D03*
X0185D03*
G54D107*
X00065Y0317D03*
X0226Y-00075D03*
Y0317D03*
X00065Y-00075D03*
G54D108*
X0037Y0272D03*
Y0294D03*
X00155D03*
Y0272D03*
X0085Y0294D03*
X01385D03*
X01915D03*
G54D109*
X02265Y02833D03*
Y024D03*
X00555Y03018D03*
Y02585D03*
G54D110*
X01125Y0006D03*
X01246D03*
X01367D03*
X01488D03*
X0161D03*
G54D111*
X01125Y0016D03*
Y0026D03*
X01246Y0016D03*
Y0026D03*
X01367Y0016D03*
Y0026D03*
X01488Y0016D03*
Y0026D03*
X0161Y0016D03*
Y0026D03*
G54D112*
X0161Y0262D03*
X01308Y01486D03*
X01875Y0094D03*
X01023Y00879D03*
X0056Y0078D03*
X00315Y0182D03*
X00275Y01855D03*
X0045Y00887D03*
X00555Y0104D03*
X00366Y00753D03*
X0129Y0099D03*
X0132Y01095D03*
X01115Y0259D03*
X01025Y02175D03*
X0121Y02135D03*
X01185Y022D03*
X01195Y02165D03*
X012Y0197D03*
X0114Y01965D03*
X01196Y01901D03*
X0112Y0217D03*
X01457Y00747D03*
X01431Y00825D03*
X01275Y0085D03*
X01255Y00875D03*
X0131Y00966D03*
X0132Y009D03*
X0122Y00975D03*
Y0087D03*
X0119Y00885D03*
X01195Y0095D03*
X0116Y0087D03*
X0111D03*
X0094Y012D03*
X0146Y0144D03*
X01515Y01455D03*
X0091D03*
X01005Y01465D03*
X0104Y0145D03*
X01346Y01449D03*
X01315Y01455D03*
X01425Y01495D03*
X01489Y01475D03*
X0126Y01479D03*
X01235Y0145D03*
X01204Y0145D03*
X01275Y0145D03*
X0108Y01484D03*
X011Y0146D03*
X00855Y0143D03*
X00785Y01415D03*
X00805Y01465D03*
X0121Y01305D03*
X01246Y0131D03*
X0128Y01315D03*
X01295Y01265D03*
X01324Y01247D03*
X0166Y0144D03*
X01635Y01245D03*
X0108Y0099D03*
X0032Y0089D03*
X0037Y0097D03*
X02245Y00275D03*
X01665Y01355D03*
X00785Y0071D03*
X0078Y0079D03*
X01765Y0111D03*
X01815Y0179D03*
X00715Y00385D03*
X0079Y00585D03*
X00635Y0055D03*
X00885Y0095D03*
X01515Y00905D03*
X01625Y00965D03*
X01735Y00735D03*
X0158Y0082D03*
X0144Y00665D03*
X01665Y00225D03*
X02285Y0069D03*
X00285Y0226D03*
X00345Y02265D03*
X0034Y02325D03*
X0031Y02045D03*
X00695Y0139D03*
X0088Y0115D03*
X00715Y0103D03*
X0073Y0106D03*
X00645Y0078D03*
X0028Y0083D03*
X00295Y0073D03*
X00125Y00735D03*
X00295Y0057D03*
X00385Y00555D03*
Y00595D03*
X0033Y0046D03*
X00095Y00395D03*
X0012Y00345D03*
X0022Y0012D03*
X00165D03*
X0073Y0006D03*
X0082Y00285D03*
X00835Y0005D03*
X01955Y00825D03*
X01935Y009D03*
Y00843D03*
X01775Y0081D03*
X01895Y00815D03*
X0187Y009D03*
X01885Y0069D03*
X0185D03*
X01815D03*
X01952Y01378D03*
X02065Y01475D03*
X02005Y01425D03*
X01005Y01595D03*
X01329Y0105D03*
X0134Y00875D03*
X00955Y00865D03*
X01065Y0131D03*
X0103D03*
X00999D03*
X00965D03*
X0133Y01195D03*
X01265Y0121D03*
X01305Y0115D03*
X01175Y0131D03*
X01685Y0214D03*
X0162Y0219D03*
X0166D03*
X01585Y0218D03*
X00995Y019D03*
X013Y01945D03*
X01333Y01981D03*
X0133Y01905D03*
X01364Y01975D03*
X01294Y01985D03*
X01395Y01985D03*
X0144Y0194D03*
X01536Y01908D03*
X01626Y01981D03*
X01665Y01925D03*
X0143Y019D03*
X01515Y01975D03*
X01625Y0284D03*
X02055Y01785D03*
X022Y0278D03*
X0219Y02815D03*
X0214Y02821D03*
X02175Y0218D03*
X0045Y01825D03*
X01586Y0288D03*
X0154D03*
X0162Y02887D03*
X0165Y0288D03*
X00605Y02281D03*
X00635Y02365D03*
Y0233D03*
X0207Y02821D03*
X02105D03*
X0126Y02875D03*
X0123D03*
X012D03*
X0117D03*
X0114D03*
X017Y01935D03*
X0156Y0214D03*
X01566Y01981D03*
X02315Y00585D03*
Y00615D03*
X0148Y0127D03*
X0064Y00725D03*
X0069Y01155D03*
X01865Y01105D03*
X01805Y0116D03*
X0107Y0087D03*
X011Y0071D03*
X01545Y0219D03*
X02045Y02775D03*
X01475Y0198D03*
X0123Y019D03*
X0116Y02675D03*
X0156Y02775D03*
X0111Y02655D03*
X0177Y0161D03*
X02Y0185D03*
X00295Y019D03*
X00995Y00895D03*
X01585Y00425D03*
X0154D03*
X0053Y0088D03*
X02135Y00045D03*
X00905Y0113D03*
X00902Y00997D03*
X0197Y0108D03*
X0173Y0119D03*
X0063Y023D03*
X01555Y01265D03*
X01065Y02875D03*
X0168Y02885D03*
X00755Y00275D03*
X0169Y0181D03*
X01849Y01784D03*
X0036Y0015D03*
X01022Y01981D03*
X00236Y00796D03*
X01555Y0123D03*
X0012Y0082D03*
X02035Y01145D03*
X0185Y0072D03*
X01115Y0053D03*
X01329Y01615D03*
X01534D03*
X01125Y01666D03*
Y01615D03*
X01176D03*
X01227D03*
X01278D03*
X01381D03*
X01432D03*
X01483D03*
X01585D03*
X01637D03*
X01176Y01666D03*
X01227D03*
X01278D03*
X01329D03*
X01381D03*
X01432D03*
X01483D03*
X01534D03*
X01585D03*
X01637D03*
X01125Y01717D03*
X01176D03*
X01227D03*
X01278D03*
X01329D03*
X01381D03*
X01432D03*
X01483D03*
X01534D03*
X01585D03*
X01637D03*
X01125Y01768D03*
X01176D03*
X01227D03*
X01278D03*
X01329D03*
X01381D03*
X01432D03*
X01483D03*
X01534D03*
X01585D03*
X01637D03*
X0052Y0193D03*
X00435Y00525D03*
X01082Y01981D03*
X01885Y0072D03*
X01815D03*
X01945Y01785D03*
X019D03*
X0169Y0074D03*
X0229Y006D03*
X02315Y00495D03*
X0229Y0054D03*
Y0051D03*
X02315Y00525D03*
X0229Y0057D03*
X02315Y00555D03*
X01005Y00435D03*
X00135Y00395D03*
X00205Y004D03*
X02085Y009D03*
X0217Y0137D03*
X0049Y00539D03*
X00545D03*
X02275Y00485D03*
X02305Y0047D03*
G54D113*
X02255Y0228D03*
M02*