%FSTAX23Y23*%
%MOIN*%
%SFA1B1*%

%IPPOS*%
%ADD32C,0.011810*%
%ADD33C,0.009840*%
%ADD34C,0.019690*%
%ADD35C,0.015750*%
%ADD36C,0.027560*%
%ADD37C,0.039370*%
%ADD48C,0.196850*%
%ADD50R,0.059060X0.059060*%
%ADD51C,0.059060*%
%ADD52C,0.027170*%
%ADD53C,0.025000*%
%LNninja_3_2_pcb-1*%
%LPD*%
G36*
X02205Y03215D02*
X022Y03209D01*
X02194Y03197*
X0219Y03183*
X02188Y0317*
X0219Y03156*
X02194Y03142*
X022Y0313*
X02209Y03119*
X0222Y0311*
X02232Y03104*
X02246Y031*
X0226Y03098*
X02273Y031*
X02287Y03104*
X02299Y0311*
X0231Y03119*
X02317Y03128*
X02322Y03127*
Y02864*
X02317Y02863*
X02315Y02867*
X02308Y02876*
X02299Y02884*
X02288Y02889*
X02276Y02893*
X02265Y02894*
X02253Y02893*
X02241Y02889*
X0223Y02884*
X02221Y02876*
X02214Y02867*
X02208Y02856*
X02204Y02845*
X02204Y02843*
X02199Y02841*
X02196Y02844*
X02189Y02846*
X02183Y02847*
X01984*
X01982Y02852*
X01993Y02861*
X02004Y02875*
X02013Y02889*
X0202Y02905*
X02024Y02922*
X02025Y0294*
X02024Y02957*
X0202Y02974*
X02013Y0299*
X02004Y03005*
X01993Y03018*
X0198Y03029*
X01965Y03038*
X01949Y03045*
X01932Y03049*
X01915Y0305*
X01897Y03049*
X0188Y03045*
X01864Y03038*
X0185Y03029*
X01836Y03018*
X01825Y03005*
X01816Y0299*
X01809Y02974*
X01805Y02957*
X01804Y0294*
X01805Y02922*
X01809Y02905*
X01816Y02889*
X01825Y02875*
X01836Y02861*
X01847Y02852*
X01845Y02847*
X01692*
X0169Y02852*
X01691Y02852*
X01697Y02857*
X01702Y02862*
X01707Y02869*
X0171Y02876*
X01711Y02885*
X0171Y02893*
X01707Y029*
X01702Y02907*
X01695Y02912*
X01688Y02915*
X0168Y02916*
X01671Y02915*
X01664Y02912*
X01663Y02911*
X01622*
X0162Y02912*
X01617Y02911*
X0154*
X01531Y0291*
X01524Y02907*
X01517Y02902*
X01512Y02895*
X01509Y02888*
X01508Y0288*
X01509Y02871*
X01512Y02864*
X01517Y02857*
X01524Y02852*
X01531Y02849*
X0154Y02848*
X01656*
X01657Y02843*
X01653Y0284*
X01647Y02833*
X01429*
X01428Y02838*
X01435Y02841*
X0145Y0285*
X01463Y02861*
X01474Y02875*
X01483Y02889*
X0149Y02905*
X01494Y02922*
X01495Y0294*
X01494Y02957*
X0149Y02974*
X01483Y0299*
X01474Y03005*
X01463Y03018*
X0145Y03029*
X01435Y03038*
X01419Y03045*
X01402Y03049*
X01385Y0305*
X01367Y03049*
X0135Y03045*
X01334Y03038*
X0132Y03029*
X01306Y03018*
X01295Y03005*
X01286Y0299*
X01279Y02974*
X01275Y02957*
X01274Y0294*
X01275Y02922*
X01279Y02905*
X0128Y02903*
X01276Y02899*
X01276Y02899*
X0127Y029*
X01065*
X01058Y02899*
X01052Y02897*
X01046Y02893*
X01042Y02887*
X0104Y02881*
X01039Y02875*
X0104Y02868*
X01042Y02862*
X01046Y02856*
X01052Y02852*
X01058Y0285*
X01065Y02849*
X01259*
X01319Y02789*
X01324Y02785*
X0133Y02782*
X01337Y02781*
X01532*
X01535Y02778*
X01535Y02775*
X01537Y02765*
X01542Y02757*
X0155Y02752*
X0156Y0275*
X01569Y02752*
X01577Y02757*
X01582Y02765*
X01584Y02775*
X01584Y02778*
X01587Y02781*
X01657*
X01664Y02782*
X0167Y02785*
X01675Y02789*
X01682Y02795*
X02024*
X02026Y0279*
X02022Y02784*
X0202Y02775*
X02022Y02765*
X02027Y02757*
X02027Y02757*
Y02752*
X01582Y02307*
X01579Y02301*
X01577Y02295*
Y02287*
X01567Y02277*
X01564Y02271*
X01562Y02265*
X01564Y02258*
X01567Y02252*
X01568Y02252*
Y02207*
X01563Y02205*
X01562Y02207*
X01554Y02212*
X01545Y02214*
X01535Y02212*
X01527Y02207*
X01522Y02199*
X0152Y0219*
X01522Y0218*
X01527Y02172*
X01535Y02167*
X01543Y02165*
X01545Y02163*
X01544Y02158*
X01543Y02158*
X01411*
X01377Y02191*
X01371Y02195*
X01364Y02196*
X01257*
X01243Y02211*
Y02216*
X01241Y02223*
X01238Y02229*
X01214Y02253*
X01208Y02256*
X01201Y02258*
X01196*
X01164Y02289*
Y02565*
X01166Y02567*
X0117Y02573*
X01171Y0258*
Y02611*
X0117Y02618*
X01166Y02624*
X01134Y02655*
X01133Y02661*
X01133Y02662*
X01138Y02664*
X01138Y02663*
X01142Y02657*
X0115Y02652*
X0116Y0265*
X01169Y02652*
X01177Y02657*
X01182Y02665*
X01184Y02675*
X01182Y02684*
X01177Y02692*
X01169Y02697*
X0116Y02699*
X0115Y02697*
X01142Y02692*
X01137Y02684*
X01135Y02675*
X01136Y02668*
X01136Y02667*
X01131Y02665*
X01131Y02666*
X01127Y02672*
X01119Y02677*
X0111Y02679*
X011Y02677*
X01092Y02672*
X01087Y02664*
X01085Y02655*
X01087Y02645*
X01092Y02637*
X011Y02632*
X01109Y0263*
X0112Y02618*
X01118Y02614*
X01115Y02614*
X01105Y02612*
X01097Y02607*
X01092Y02599*
X0109Y0259*
X01092Y0258*
X01097Y02572*
X01097Y02572*
Y0229*
X01099Y02283*
X01102Y02277*
X01165Y02215*
X01162Y02209*
X0116Y022*
X01162Y0219*
X01167Y02182*
X01174Y02177*
X01172Y02174*
X0117Y02165*
X01172Y02155*
X01177Y02147*
X01185Y02142*
X01186Y02141*
X01185Y02135*
X01187Y02125*
X01192Y02117*
X012Y02112*
X0121Y0211*
X01219Y02112*
X01227Y02117*
X01232Y02125*
X01234Y02135*
X01233Y02141*
X01237Y02144*
X01238Y02144*
X01245Y02142*
X01342*
X01342*
X01348Y02139*
X01355Y02137*
X01357*
X01391Y02104*
X01396Y021*
X01403Y02099*
X01521*
X01523Y02094*
X0143Y02001*
X01426Y01995*
X01425Y01991*
X01423Y0199*
X01418Y01991*
X01418Y01992*
X01417Y01994*
X01412Y02002*
X01404Y02007*
X01395Y02009*
X01385Y02007*
X01377Y02002*
X01374Y01997*
X01373Y01997*
X01364Y01999*
X01354Y01997*
X01352Y01996*
X0135Y01999*
X01342Y02004*
X01333Y02006*
X01323Y02004*
X01319Y02001*
X01312Y02002*
X01304Y02008*
X01294Y0201*
X01285Y02008*
X01277Y02002*
X01272Y01994*
X0127Y01985*
X01272Y01975*
X01277Y01967*
X01279Y01966*
X0128Y01959*
X01277Y01954*
X01275Y01945*
X01277Y01935*
X01282Y01927*
X01284Y01925*
X01285Y0192*
X01282Y01917*
X01247*
X01247Y01917*
X01239Y01922*
X0123Y01924*
X0122Y01922*
X01214Y01918*
X01213Y01918*
X01205Y01924*
X01196Y01926*
X01186Y01924*
X01178Y01918*
X01177Y01916*
X01172Y01916*
X01151Y01937*
X01152Y01943*
X01157Y01947*
X01162Y01955*
X01164Y01965*
X01162Y01974*
X01157Y01982*
X01149Y01987*
X0114Y01989*
X01137Y01994*
Y02152*
X01137Y02152*
X01142Y0216*
X01144Y0217*
X01142Y02179*
X01137Y02187*
X01129Y02192*
X0112Y02194*
X0111Y02192*
X01102Y02187*
X01097Y02179*
X01095Y0217*
X01097Y0216*
X01102Y02152*
X01102Y02152*
Y02003*
X01097Y02*
X01092Y02004*
X01082Y02006*
X01073Y02004*
X01065Y01999*
X01059Y01991*
X01057Y01981*
X01059Y01972*
X01065Y01964*
X01073Y01958*
X01082Y01956*
X0109Y01958*
X01095Y01955*
Y01952*
X01096Y01945*
X011Y0194*
X01176Y01864*
X01181Y0186*
X01188Y01859*
X01339*
X01346Y0186*
X01351Y01864*
X0137Y01882*
X01412*
X01412Y01882*
X0142Y01877*
X0143Y01875*
X01439Y01877*
X01447Y01882*
X01452Y0189*
X01454Y019*
X01452Y01909*
X0145Y01912*
X01452Y01918*
X01457Y01922*
X01462Y0193*
X01464Y0194*
X01462Y01949*
X01458Y01955*
X01462Y01959*
X01465Y01957*
X01475Y01955*
X01484Y01957*
X01492Y01962*
X01494*
X01497Y01957*
X01505Y01952*
X01515Y0195*
X01524Y01952*
X01532Y01957*
X01537Y01965*
X01538Y0197*
X01539Y0197*
X01544Y01971*
X01548Y01964*
X01556Y01958*
X01566Y01956*
X01575Y01958*
X01583Y01964*
X01589Y01972*
X01591Y01981*
X01589Y01991*
X01583Y01999*
X01575Y02004*
X01566Y02006*
X01556Y02004*
X01548Y01999*
X01543Y01991*
X01542Y01986*
X01541Y01985*
X01537Y01985*
X01532Y01992*
X01524Y01997*
X01515Y01999*
X01505Y01997*
X01497Y01992*
X01495*
X01492Y01997*
X01485Y02001*
X01484Y02007*
X0156Y02083*
X01576*
X01582Y02084*
X01588Y02088*
X01611Y02111*
X01615Y02117*
X01616Y02123*
Y02139*
X01617Y0214*
X01629*
X01635Y02141*
X0164Y02144*
X01641Y02144*
X01647Y02145*
X01653Y02149*
X01661Y02156*
X01664Y02153*
X01662Y02149*
X0166Y0214*
X01662Y0213*
X01667Y02122*
X01675Y02117*
X01685Y02115*
X01694Y02117*
X01702Y02122*
X01707Y0213*
X01709Y0214*
X01707Y02149*
X01702Y02157*
X01694Y02162*
X01685Y02164*
X01675Y02162*
X01671Y0216*
X01668Y02163*
X01672Y02167*
X01673Y02169*
X01677Y02172*
X01682Y0218*
X01684Y0219*
X01682Y02199*
X01677Y02207*
X01669Y02212*
X0166Y02214*
X0165Y02212*
X01642Y02207*
X01637Y02199*
X01635Y0219*
X01636Y02184*
X01636Y02183*
X01632Y02179*
X01628Y02178*
X01622Y02174*
X01622Y02174*
X01614*
X0161Y02179*
X0161Y0218*
X01608Y0219*
X01603Y02198*
X01602Y02198*
Y02259*
X01601Y02262*
X01607Y02267*
X0161Y02273*
X01612Y0228*
Y02287*
X02057Y02732*
X0206Y02738*
X02062Y02745*
Y02757*
X02062Y02757*
X02067Y02765*
X02069Y02775*
X02067Y02784*
X02063Y0279*
X02065Y02795*
X02171*
X02173Y02791*
X02174Y0279*
X02174Y0279*
Y0278*
X02175Y02773*
X02177Y02767*
X02181Y02761*
X02187Y02757*
X02193Y02755*
X022Y02754*
X02206Y02755*
X02212Y02757*
X02218Y02761*
X02222Y02767*
X02224Y02773*
X02225Y02779*
X02227Y02781*
X0223Y02781*
X02232Y02781*
X02241Y02776*
X02253Y02772*
X02265Y02771*
X02276Y02772*
X02288Y02776*
X02299Y02782*
X02308Y02789*
X02315Y02799*
X02317Y02802*
X02322Y02801*
Y02431*
X02317Y0243*
X02315Y02434*
X02308Y02443*
X02299Y0245*
X02288Y02456*
X02276Y0246*
X02265Y02461*
X02253Y0246*
X02241Y02456*
X0223Y0245*
X02221Y02443*
X02214Y02434*
X02208Y02423*
X02204Y02411*
X02203Y024*
X02204Y02388*
X02208Y02376*
X02214Y02365*
X02221Y02356*
X0223Y02349*
X02241Y02343*
X02253Y02339*
X02265Y02338*
X02276Y02339*
X02288Y02343*
X02299Y02349*
X02308Y02356*
X02315Y02365*
X02317Y02369*
X02322Y02368*
Y00644*
X02317Y0064*
X02315Y0064*
X02308Y00639*
X02302Y00637*
X02296Y00633*
X02292Y00627*
X02291Y00625*
X0229Y00625*
X02283Y00624*
X02277Y00622*
X02271Y00618*
X02267Y00612*
X02265Y00606*
X02264Y006*
Y0057*
Y0054*
Y0051*
X02263Y00509*
X02257Y00507*
X02251Y00503*
X02246Y00498*
X02242Y00492*
X0224Y00486*
X02239Y0048*
X0224Y00473*
X02242Y00467*
X02246Y00461*
X02256Y00451*
X02262Y00447*
X02268Y00445*
X02275Y00444*
X02305*
X02311Y00445*
X02317Y00447*
X02318Y00448*
X02322Y00445*
Y-00032*
X02317Y-00033*
X0231Y-00024*
X02299Y-00015*
X02287Y-00009*
X02273Y-00005*
X0226Y-00003*
X02246Y-00005*
X02232Y-00009*
X0222Y-00015*
X02209Y-00024*
X022Y-00035*
X02194Y-00047*
X0219Y-00061*
X02188Y-00075*
X0219Y-00088*
X02194Y-00102*
X022Y-00114*
X02205Y-0012*
X02203Y-00125*
X00121*
X00119Y-0012*
X00124Y-00114*
X0013Y-00102*
X00134Y-00088*
X00136Y-00075*
X00134Y-00061*
X0013Y-00047*
X00124Y-00035*
X00115Y-00024*
X00104Y-00015*
X00092Y-00009*
X00078Y-00005*
X00065Y-00003*
X00051Y-00005*
X00037Y-00009*
X00025Y-00015*
X00014Y-00024*
X00007Y-00033*
X00002Y-00032*
Y03127*
X00007Y03128*
X00014Y03119*
X00025Y0311*
X00037Y03104*
X00051Y031*
X00065Y03098*
X00078Y031*
X00092Y03104*
X00104Y0311*
X00115Y03119*
X00124Y0313*
X0013Y03142*
X00134Y03156*
X00136Y0317*
X00134Y03183*
X0013Y03197*
X00124Y03209*
X00119Y03215*
X00121Y0322*
X02203*
X02205Y03215*
G37*
%LNninja_3_2_pcb-2*%
%LPC*%
G36*
X0032Y00914D02*
X0031Y00912D01*
X00302Y00907*
X00297Y00899*
X00295Y0089*
X00297Y0088*
X00302Y00872*
X0031Y00867*
X0032Y00865*
X00329Y00867*
X00337Y00872*
X00342Y0088*
X00344Y0089*
X00342Y00899*
X00337Y00907*
X00329Y00912*
X0032Y00914*
G37*
G36*
X01935Y00924D02*
X01925Y00922D01*
X01917Y00917*
X01912Y00909*
X0191Y009*
X01912Y0089*
X01917Y00882*
X01925Y00877*
X01935Y00875*
X01944Y00877*
X01952Y00882*
X01957Y0089*
X01959Y009*
X01957Y00909*
X01952Y00917*
X01944Y00922*
X01935Y00924*
G37*
G36*
X01125Y00201D02*
X01114Y002D01*
X01104Y00196*
X01095Y00189*
X01088Y0018*
X01084Y0017*
X01083Y0016*
X01084Y00149*
X01088Y00139*
X01095Y0013*
X01104Y00123*
X01114Y00119*
X01125Y00118*
X01135Y00119*
X01145Y00123*
X01154Y0013*
X01161Y00139*
X01165Y00149*
X01166Y0016*
X01165Y0017*
X01161Y0018*
X01154Y00189*
X01145Y00196*
X01135Y002*
X01125Y00201*
G37*
G36*
X0012Y00844D02*
X0011Y00842D01*
X00102Y00837*
X00097Y00829*
X00095Y0082*
X00097Y0081*
X00102Y00802*
X0011Y00797*
X0012Y00795*
X00129Y00797*
X00137Y00802*
X00142Y0081*
X00144Y0082*
X00142Y00829*
X00137Y00837*
X00129Y00842*
X0012Y00844*
G37*
G36*
X01865Y01129D02*
X01855Y01127D01*
X01847Y01122*
X01842Y01114*
X0184Y01105*
X01842Y01095*
X01847Y01087*
X01855Y01082*
X01865Y0108*
X01874Y01082*
X01882Y01087*
X01887Y01095*
X01889Y01105*
X01887Y01114*
X01882Y01122*
X01874Y01127*
X01865Y01129*
G37*
G36*
X01555Y01254D02*
X01545Y01252D01*
X01537Y01247*
X01532Y01239*
X0153Y0123*
X01532Y0122*
X01537Y01212*
X01545Y01207*
X01555Y01205*
X01564Y01207*
X01572Y01212*
X01577Y0122*
X01579Y0123*
X01577Y01239*
X01572Y01247*
X01564Y01252*
X01555Y01254*
G37*
G36*
X0073Y00084D02*
X0072Y00082D01*
X00712Y00077*
X00707Y00069*
X00705Y0006*
X00707Y0005*
X00712Y00042*
X0072Y00037*
X0073Y00035*
X00739Y00037*
X00747Y00042*
X00752Y0005*
X00754Y0006*
X00752Y00069*
X00747Y00077*
X00739Y00082*
X0073Y00084*
G37*
G36*
X01765Y01134D02*
X01755Y01132D01*
X01747Y01127*
X01742Y01119*
X0174Y0111*
X01742Y011*
X01747Y01092*
X01755Y01087*
X01765Y01085*
X01774Y01087*
X01782Y01092*
X01787Y011*
X01789Y0111*
X01787Y01119*
X01782Y01127*
X01774Y01132*
X01765Y01134*
G37*
G36*
X01805Y01184D02*
X01795Y01182D01*
X01787Y01177*
X01782Y01169*
X0178Y0116*
X01782Y0115*
X01787Y01142*
X01795Y01137*
X01805Y01135*
X01814Y01137*
X01822Y01142*
X01827Y0115*
X01829Y0116*
X01827Y01169*
X01822Y01177*
X01814Y01182*
X01805Y01184*
G37*
G36*
X01488Y00201D02*
X01477Y002D01*
X01467Y00196*
X01459Y00189*
X01452Y0018*
X01448Y0017*
X01447Y0016*
X01448Y00149*
X01452Y00139*
X01459Y0013*
X01467Y00123*
X01477Y00119*
X01488Y00118*
X01499Y00119*
X01509Y00123*
X01518Y0013*
X01524Y00139*
X01529Y00149*
X0153Y0016*
X01529Y0017*
X01524Y0018*
X01518Y00189*
X01509Y00196*
X01499Y002*
X01488Y00201*
G37*
G36*
X0161D02*
X01599Y002D01*
X01589Y00196*
X0158Y00189*
X01573Y0018*
X01569Y0017*
X01568Y0016*
X01569Y00149*
X01573Y00139*
X0158Y0013*
X01589Y00123*
X01599Y00119*
X0161Y00118*
X0162Y00119*
X0163Y00123*
X01639Y0013*
X01646Y00139*
X0165Y00149*
X01651Y0016*
X0165Y0017*
X01646Y0018*
X01639Y00189*
X0163Y00196*
X0162Y002*
X0161Y00201*
G37*
G36*
X01246D02*
X01235Y002D01*
X01225Y00196*
X01216Y00189*
X0121Y0018*
X01205Y0017*
X01204Y0016*
X01205Y00149*
X0121Y00139*
X01216Y0013*
X01225Y00123*
X01235Y00119*
X01246Y00118*
X01257Y00119*
X01267Y00123*
X01275Y0013*
X01282Y00139*
X01286Y00149*
X01287Y0016*
X01286Y0017*
X01282Y0018*
X01275Y00189*
X01267Y00196*
X01257Y002*
X01246Y00201*
G37*
G36*
X01367D02*
X01356Y002D01*
X01346Y00196*
X01338Y00189*
X01331Y0018*
X01327Y0017*
X01325Y0016*
X01327Y00149*
X01331Y00139*
X01338Y0013*
X01346Y00123*
X01356Y00119*
X01367Y00118*
X01378Y00119*
X01388Y00123*
X01396Y0013*
X01403Y00139*
X01407Y00149*
X01409Y0016*
X01407Y0017*
X01403Y0018*
X01396Y00189*
X01388Y00196*
X01378Y002*
X01367Y00201*
G37*
G36*
X0036Y00174D02*
X0035Y00172D01*
X00346Y0017*
X00215*
X00208Y00169*
X00203Y00165*
X00178Y0014*
X00174Y00142*
X00165Y00144*
X00155Y00142*
X00147Y00137*
X00142Y00129*
X0014Y0012*
X00142Y0011*
X00147Y00102*
X00155Y00097*
X00165Y00095*
X00174Y00097*
X00182Y00102*
X00182Y00103*
X00188Y00104*
X00193Y00107*
X00194Y00107*
X00199Y00106*
X00202Y00102*
X0021Y00097*
X0022Y00095*
X00229Y00097*
X00237Y00102*
X00242Y0011*
X00244Y0012*
X00242Y00129*
X00241Y00131*
X00243Y00136*
X00339*
X00342Y00132*
X0035Y00127*
X0036Y00125*
X00369Y00127*
X00377Y00132*
X00382Y0014*
X00384Y0015*
X00382Y00159*
X00377Y00167*
X00369Y00172*
X0036Y00174*
G37*
G36*
X0217Y01395D02*
X02163Y01394D01*
X02157Y01392*
X02151Y01388*
X02147Y01382*
X02145Y01376*
X02144Y0137*
Y00995*
X02066Y00918*
X02062Y00912*
X0206Y00906*
X02059Y009*
X0206Y00893*
X02062Y00887*
X02066Y00881*
X02259Y00689*
X0226Y00683*
X02262Y00677*
X02266Y00671*
X02272Y00667*
X02278Y00665*
X02285Y00664*
X02291Y00665*
X02297Y00667*
X02303Y00671*
X02307Y00677*
X02309Y00683*
X0231Y0069*
Y007*
X02309Y00706*
X02307Y00712*
X02303Y00718*
X02121Y009*
X02188Y00966*
X02192Y00972*
X02194Y00978*
X02195Y00985*
Y0137*
X02194Y01376*
X02192Y01382*
X02188Y01388*
X02182Y01392*
X02176Y01394*
X0217Y01395*
G37*
G36*
X00125Y00759D02*
X00115Y00757D01*
X00107Y00752*
X00102Y00744*
X001Y00735*
X00102Y00725*
X00107Y00717*
X00115Y00712*
X00125Y0071*
X00134Y00712*
X00142Y00717*
X00147Y00725*
X00149Y00735*
X00147Y00744*
X00142Y00752*
X00134Y00757*
X00125Y00759*
G37*
G36*
X02245Y00299D02*
X02235Y00297D01*
X02227Y00292*
X02222Y00284*
X0222Y00275*
X02222Y00265*
X02227Y00257*
X02235Y00252*
X02245Y0025*
X02254Y00252*
X02262Y00257*
X02267Y00265*
X02269Y00275*
X02267Y00284*
X02262Y00292*
X02254Y00297*
X02245Y00299*
G37*
G36*
X01005Y00459D02*
X00995Y00457D01*
X00987Y00452*
X00982Y00444*
X0098Y00435*
X00982Y00425*
X00987Y00417*
X00995Y00412*
X01005Y0041*
X01014Y00412*
X01022Y00417*
X01027Y00425*
X01029Y00435*
X01027Y00444*
X01022Y00452*
X01014Y00457*
X01005Y00459*
G37*
G36*
X02255Y02331D02*
X02241Y02329D01*
X02229Y02324*
X02218Y02316*
X0221Y02305*
X02205Y02293*
X02203Y0228*
X02205Y02266*
X0221Y02254*
X02218Y02243*
X02229Y02235*
X02241Y0223*
X02255Y02228*
X02268Y0223*
X0228Y02235*
X02291Y02243*
X02299Y02254*
X02304Y02266*
X02306Y0228*
X02304Y02293*
X02299Y02305*
X02291Y02316*
X0228Y02324*
X02268Y02329*
X02255Y02331*
G37*
G36*
X00635Y02389D02*
X00625Y02387D01*
X00617Y02382*
X00612Y02374*
X0061Y02365*
X00612Y02355*
X00617Y02347*
X00612Y02339*
X0061Y0233*
X00612Y0232*
X00613Y02318*
X00612Y02317*
X00607Y02309*
X00606Y02305*
X00605Y02305*
X00595Y02304*
X00587Y02298*
X00582Y0229*
X0058Y02281*
X00582Y02271*
X00587Y02263*
X00595Y02258*
X00605Y02256*
X00614Y02258*
X00622Y02263*
X00627Y02271*
X00628Y02275*
X0063Y02275*
X00639Y02277*
X00647Y02282*
X00652Y0229*
X00654Y023*
X00652Y02309*
X00651Y02311*
X00652Y02312*
X00657Y0232*
X00659Y0233*
X00657Y02339*
X00652Y02347*
X00657Y02355*
X00659Y02365*
X00657Y02374*
X00652Y02382*
X00644Y02387*
X00635Y02389*
G37*
G36*
X01025Y02199D02*
X01015Y02197D01*
X01007Y02192*
X01002Y02184*
X01Y02175*
X01002Y02165*
X01007Y02157*
X01015Y02152*
X01025Y0215*
X01034Y02152*
X01042Y02157*
X01047Y02165*
X01049Y02175*
X01047Y02184*
X01042Y02192*
X01034Y02197*
X01025Y02199*
G37*
G36*
X02175Y02204D02*
X02165Y02202D01*
X02157Y02197*
X02152Y02189*
X0215Y0218*
X02152Y0217*
X02157Y02162*
X02165Y02157*
X02175Y02155*
X02184Y02157*
X02192Y02162*
X02197Y0217*
X02199Y0218*
X02197Y02189*
X02192Y02197*
X02184Y02202*
X02175Y02204*
G37*
G36*
X00555Y02646D02*
X00543Y02645D01*
X00531Y02641*
X0052Y02635*
X00511Y02628*
X00504Y02619*
X00498Y02608*
X00494Y02596*
X00493Y02585*
X00494Y02573*
X00498Y02561*
X00504Y0255*
X00511Y02541*
X0052Y02534*
X00531Y02528*
X00543Y02524*
X00555Y02523*
X00566Y02524*
X00578Y02528*
X00589Y02534*
X00598Y02541*
X00605Y0255*
X00611Y02561*
X00615Y02573*
X00616Y02585*
X00615Y02596*
X00611Y02608*
X00605Y02619*
X00598Y02628*
X00589Y02635*
X00578Y02641*
X00566Y02645*
X00555Y02646*
G37*
G36*
X0085Y0305D02*
X00832Y03049D01*
X00815Y03045*
X00799Y03038*
X00785Y03029*
X00771Y03018*
X0076Y03005*
X00751Y0299*
X00744Y02974*
X0074Y02957*
X00739Y0294*
X0074Y02922*
X00744Y02905*
X00751Y02889*
X0076Y02875*
X00771Y02861*
X00785Y0285*
X00799Y02841*
X00815Y02834*
X00832Y0283*
X0085Y02829*
X00867Y0283*
X00884Y02834*
X009Y02841*
X00915Y0285*
X00928Y02861*
X00939Y02875*
X00948Y02889*
X00955Y02905*
X00959Y02922*
X0096Y0294*
X00959Y02957*
X00955Y02974*
X00948Y0299*
X00939Y03005*
X00928Y03018*
X00915Y03029*
X009Y03038*
X00884Y03045*
X00867Y03049*
X0085Y0305*
G37*
G36*
X00555Y03079D02*
X00543Y03078D01*
X00531Y03074*
X0052Y03069*
X00511Y03061*
X00504Y03052*
X00498Y03041*
X00494Y0303*
X00493Y03018*
X00494Y03006*
X00498Y02994*
X00504Y02984*
X00511Y02974*
X0052Y02967*
X00531Y02961*
X00543Y02957*
X00555Y02956*
X00566Y02957*
X00578Y02961*
X00589Y02967*
X00598Y02974*
X00605Y02984*
X00611Y02994*
X00615Y03006*
X00616Y03018*
X00615Y0303*
X00611Y03041*
X00605Y03052*
X00598Y03061*
X00589Y03069*
X00578Y03074*
X00566Y03078*
X00555Y03079*
G37*
G36*
X0161Y02644D02*
X016Y02642D01*
X01592Y02637*
X01587Y02629*
X01585Y0262*
X01587Y0261*
X01592Y02602*
X016Y02597*
X0161Y02595*
X01619Y02597*
X01627Y02602*
X01632Y0261*
X01634Y0262*
X01632Y02629*
X01627Y02637*
X01619Y02642*
X0161Y02644*
G37*
G36*
X0037Y0305D02*
X00352Y03049D01*
X00335Y03045*
X00319Y03038*
X00305Y03029*
X00291Y03018*
X0028Y03005*
X00271Y0299*
X00264Y02974*
X0026Y02957*
X00259Y0294*
X0026Y02922*
X00264Y02905*
X00271Y02889*
X0028Y02875*
X00291Y02861*
X00305Y0285*
X00319Y02841*
X00335Y02834*
X00345Y02832*
Y02827*
X00335Y02825*
X00319Y02818*
X00305Y02809*
X00291Y02798*
X0028Y02785*
X00271Y0277*
X00264Y02754*
X0026Y02737*
X00259Y0272*
X0026Y02702*
X00264Y02685*
X00271Y02669*
X0028Y02655*
X00291Y02641*
X00305Y0263*
X00319Y02621*
X00335Y02614*
X00352Y0261*
X0037Y02609*
X00387Y0261*
X00404Y02614*
X0042Y02621*
X00435Y0263*
X00448Y02641*
X00459Y02655*
X00468Y02669*
X00475Y02685*
X00479Y02702*
X0048Y0272*
X00479Y02737*
X00475Y02754*
X00468Y0277*
X00459Y02785*
X00448Y02798*
X00435Y02809*
X0042Y02818*
X00404Y02825*
X00394Y02827*
Y02832*
X00404Y02834*
X0042Y02841*
X00435Y0285*
X00448Y02861*
X00459Y02875*
X00468Y02889*
X00475Y02905*
X00479Y02922*
X0048Y0294*
X00479Y02957*
X00475Y02974*
X00468Y0299*
X00459Y03005*
X00448Y03018*
X00435Y03029*
X0042Y03038*
X00404Y03045*
X00387Y03049*
X0037Y0305*
G37*
G36*
X01536Y01933D02*
X01527Y01931D01*
X01519Y01925*
X01513Y01917*
X01511Y01908*
X01513Y01898*
X01519Y0189*
X01527Y01885*
X01528Y01885*
X01615Y01798*
X01622Y01793*
X0163Y01791*
X01673*
X0168Y01787*
X0169Y01785*
X01699Y01787*
X01707Y01792*
X01712Y018*
X01714Y0181*
X01712Y01819*
X01707Y01827*
X01699Y01832*
X01695Y01833*
X01694Y01834*
X01685Y01836*
X0164*
X01559Y01916*
X01559Y01917*
X01554Y01925*
X01546Y01931*
X01536Y01933*
G37*
G36*
X00995Y01924D02*
X00985Y01922D01*
X00977Y01917*
X00972Y01909*
X0097Y019*
X00972Y0189*
X00977Y01882*
X00985Y01877*
X00995Y01875*
X01004Y01877*
X01012Y01882*
X01017Y0189*
X01019Y019*
X01017Y01909*
X01012Y01917*
X01004Y01922*
X00995Y01924*
G37*
G36*
X00835Y00074D02*
X00825Y00072D01*
X00817Y00067*
X00812Y00059*
X0081Y0005*
X00812Y0004*
X00817Y00032*
X00825Y00027*
X00835Y00025*
X00844Y00027*
X00852Y00032*
X00857Y0004*
X00859Y0005*
X00857Y00059*
X00852Y00067*
X00844Y00072*
X00835Y00074*
G37*
G36*
X02055Y01809D02*
X02045Y01807D01*
X02037Y01802*
X02032Y01794*
X0203Y01785*
X02032Y01775*
X02037Y01767*
X02045Y01762*
X02054Y0176*
X02131Y01682*
Y01512*
X02112Y01493*
X02081*
X02074Y01497*
X02065Y01499*
X02055Y01497*
X02047Y01492*
X02042Y01484*
X0204Y01475*
X02042Y01465*
X02047Y01457*
X02055Y01452*
X02065Y0145*
X02074Y01452*
X02081Y01456*
X0212*
X02126Y01458*
X02132Y01462*
X02162Y01492*
X02166Y01498*
X02168Y01505*
Y0169*
X02166Y01696*
X02162Y01702*
X02079Y01785*
X02077Y01794*
X02072Y01802*
X02064Y01807*
X02055Y01809*
G37*
G36*
X0034Y02349D02*
X0033Y02347D01*
X00322Y02342*
X00317Y02334*
X00315Y02325*
X00317Y02315*
X00322Y02307*
X0033Y02302*
X00338Y023*
X00344Y02294*
X00342Y02289*
X00335Y02287*
X00327Y02282*
X00322Y02274*
X0032Y02265*
X00322Y02255*
X00327Y02247*
X00335Y02242*
X00345Y0224*
X00348Y0224*
X00945Y01644*
Y01615*
X00944Y01612*
Y01577*
X00946Y0157*
X00949Y01566*
Y01493*
X00946Y01489*
X00945Y01484*
X00932Y01472*
X00927Y01472*
X00919Y01477*
X0091Y01479*
X009Y01477*
X00892Y01472*
X00887Y01464*
X00886Y01464*
X00882Y01462*
X00877Y01467*
X00872Y01471*
X00865Y01472*
X0084*
X00833Y01471*
X00832Y0147*
X00828Y01472*
X00827Y01474*
X00822Y01482*
X00814Y01487*
X00805Y01489*
X00795Y01487*
X00787Y01482*
X00782Y01474*
X0078Y01465*
X00782Y01455*
X00787Y01447*
X00794Y01443*
X00792Y01438*
X00785Y01439*
X00775Y01437*
X00767Y01432*
X00762Y01424*
X0076Y01415*
X00762Y01405*
X00767Y01397*
X00775Y01392*
X00785Y0139*
X00794Y01392*
X00801Y01397*
X00808Y01398*
X00814Y01402*
X00829Y01417*
X00834Y01416*
X00837Y01412*
X00837Y01412*
Y01242*
Y01242*
X00834Y01236*
X00832Y0123*
X00834Y01223*
X00837Y01217*
X00887Y01167*
Y01147*
X00887Y01147*
X00882Y01139*
X0088Y0113*
X00882Y0112*
X00887Y01112*
X00887Y01112*
Y01016*
X00884Y01014*
X00879Y01006*
X00877Y00997*
X00879Y00987*
X00884Y0098*
Y00967*
X00885Y0096*
X00889Y00954*
X00891Y00952*
Y00947*
X00887Y00943*
X00868*
X00797Y01014*
X00792Y01017*
X00785Y01019*
X00742*
X00738Y01024*
X00739Y0103*
X00738Y01036*
X00739Y01037*
X00747Y01042*
X00752Y0105*
X00754Y0106*
X00752Y01069*
X00747Y01077*
X00739Y01082*
X0073Y01084*
X0072Y01082*
X00713Y01078*
X00683*
Y01363*
X00688Y01366*
X00695Y01365*
X00704Y01367*
X00712Y01372*
X00717Y0138*
X00719Y0139*
X00717Y01399*
X00713Y01406*
Y0158*
X00711Y01586*
X00707Y01592*
X00474Y01825*
X00472Y01834*
X00468Y01841*
Y01862*
X00512Y01906*
X0052Y01905*
X00529Y01907*
X00537Y01912*
X00542Y0192*
X00544Y0193*
X00542Y01939*
X00537Y01947*
X00529Y01952*
X0052Y01954*
X0051Y01952*
X00502Y01947*
X005Y01945*
X00497Y01942*
X00437Y01882*
X00433Y01876*
X00431Y0187*
Y01841*
X0043Y0184*
X00425Y01839*
X00304Y01961*
Y01979*
X00347Y02022*
X00351Y02027*
X00352Y02034*
Y02055*
X00351Y02062*
X00347Y02067*
X00303Y02112*
Y02243*
X00307Y0225*
X00309Y0226*
X00307Y02269*
X00302Y02277*
X00294Y02282*
X00285Y02284*
X00275Y02282*
X00267Y02277*
X00262Y02269*
X0026Y0226*
X00262Y0225*
X00266Y02243*
Y02104*
X00268Y02097*
X00272Y02091*
X00295Y02068*
X00294Y02063*
X00292Y02062*
X00287Y02054*
X00285Y02045*
X00287Y02035*
X00292Y02027*
X00294Y02026*
X00295Y02021*
X00273Y01999*
X00269Y01993*
X00268Y01986*
Y01953*
X00269Y01946*
X00273Y0194*
X00286Y01927*
X00286Y01926*
X00284Y01922*
X00277Y01917*
X00272Y01909*
X0027Y019*
X00272Y0189*
X00275Y01884*
X00275Y01883*
X00273Y01879*
X00265Y01877*
X00257Y01872*
X00252Y01864*
X0025Y01855*
X00252Y01845*
X00257Y01837*
X00265Y01832*
X00275Y0183*
X00276Y0183*
X0028Y01829*
X00287Y01831*
X00287Y01831*
X00288Y01831*
X00291Y01828*
X0029Y0182*
X00292Y0181*
X00297Y01802*
X00305Y01797*
X00315Y01795*
X00324Y01797*
X00332Y01802*
X00337Y0181*
X00339Y0182*
X00337Y01829*
X00332Y01837*
X00328Y01839*
X0033Y01844*
X00338*
X00625Y01558*
Y01058*
X00624Y01058*
X00571*
X00564Y01062*
X00555Y01064*
X00545Y01062*
X00537Y01057*
X00532Y01049*
X0053Y0104*
X00522Y01032*
X00518Y01026*
X00516Y0102*
Y009*
X00512Y00897*
X00507Y00889*
X00505Y0088*
X00507Y0087*
X00512Y00862*
X0052Y00857*
X0053Y00855*
X00539Y00857*
X00541Y00858*
X00541Y00858*
X00547Y00862*
X00551Y00868*
X00551Y00868*
X00552Y0087*
X00554Y0088*
X00553Y00888*
Y01012*
X00555Y01015*
X00564Y01017*
X00571Y01021*
X00616*
X0065Y00988*
X00655Y00984*
X00662Y00983*
X00777*
X00848Y00912*
X00853Y00908*
X0086Y00907*
X00895*
X00902Y00908*
X00907Y00912*
X00922Y00927*
X00926Y00932*
X00927Y00939*
Y0096*
X00926Y00967*
X00922Y00972*
X0092Y00974*
X00921Y00979*
X00936*
X00991Y00924*
X0099Y00918*
X00985Y00917*
X00977Y00912*
X00972Y00904*
X0097Y00895*
X0097Y00894*
X00969Y00893*
X00969Y0089*
X00965Y00888*
X00963Y00888*
X00955Y00889*
X00945Y00887*
X00937Y00882*
X00932Y00874*
X0093Y00865*
X00932Y00855*
X00937Y00847*
X00943Y00843*
X00941Y00838*
X00669*
X00669Y00838*
X00662Y0084*
X00465*
X00458Y00838*
X00452Y00834*
X00388Y0077*
X00383Y00771*
X00375Y00776*
X00366Y00778*
X00356Y00776*
X00348Y00771*
X00343Y00763*
X00341Y00753*
X00341Y00751*
X00338Y00747*
X00311*
X00308Y0075*
X00307Y00756*
X00417Y00866*
X00437*
X0044Y00864*
X0045Y00862*
X00459Y00864*
X00467Y00869*
X00472Y00878*
X00474Y00887*
X00472Y00896*
X00467Y00905*
X00459Y0091*
X0045Y00912*
X0044Y0091*
X00432Y00905*
X00431Y00903*
X0041*
X00403Y00901*
X004Y00899*
X00395Y00902*
Y00967*
X00394Y00974*
X00393Y00974*
X00392Y00979*
X00387Y00987*
X00379Y00992*
X0037Y00994*
X0036Y00992*
X00352Y00987*
X00347Y00979*
X00345Y0097*
X00347Y0096*
X00352Y00952*
X00359Y00947*
Y00885*
X00308Y00834*
X00303Y00835*
X00302Y00839*
X00297Y00847*
X00289Y00852*
X0028Y00854*
X0027Y00852*
X00262Y00847*
X00257Y00839*
X00255Y0083*
X00257Y0082*
X00262Y00812*
X0027Y00807*
X00274Y00806*
X00275Y00801*
X00265Y00791*
X00261Y00793*
X00261Y00796*
X00259Y00806*
X00254Y00814*
X00246Y00819*
X00236Y00821*
X00227Y00819*
X00219Y00814*
X00214Y00806*
X00212Y00796*
X00214Y00787*
X00219Y00779*
X00227Y00774*
X00236Y00772*
X00239Y00772*
X00242Y00768*
X0023Y00756*
X00226Y0075*
X00225Y00743*
Y00437*
X00226Y0043*
X0023Y00425*
X00237Y00418*
X00235Y00413*
X00234*
X00227Y00412*
X00225Y00412*
X00222Y00417*
X00214Y00422*
X00205Y00424*
X00195Y00422*
X00187Y00417*
X00184Y00412*
X00182Y00412*
X00175Y00413*
X0015*
X00144Y00417*
X00135Y00419*
X00125Y00417*
X00118Y00413*
X00115Y00412*
X00114*
X00111Y00413*
X00104Y00417*
X00095Y00419*
X00085Y00417*
X00077Y00412*
X00072Y00404*
X0007Y00395*
X00072Y00385*
X00077Y00377*
X00084Y00372*
X00099Y00357*
X00097Y00354*
X00095Y00345*
X00097Y00335*
X00102Y00327*
X0011Y00322*
X0012Y0032*
X00129Y00322*
X00137Y00327*
X00142Y00335*
X00144Y00345*
X00144Y00348*
X00147Y00352*
X00167*
X00174Y00345*
X0018Y00341*
X00187Y00339*
X00222*
X00229Y00341*
X00235Y00345*
X0025Y00359*
X00586*
X00698Y00248*
X007Y00245*
X00724Y0022*
X0073Y00216*
X00737Y00215*
X00828*
X00835Y00216*
X0084Y0022*
X00874Y00254*
X00878Y0026*
X0088Y00267*
Y00283*
X01206*
X01209Y00278*
X01205Y0027*
X01204Y0026*
X01205Y00249*
X0121Y00239*
X01216Y0023*
X01225Y00223*
X01235Y00219*
X01246Y00218*
X01257Y00219*
X01267Y00223*
X01275Y0023*
X01282Y00239*
X01286Y00249*
X01287Y0026*
X01286Y0027*
X01283Y00278*
X01286Y00283*
X01327*
X0133Y00278*
X01327Y0027*
X01325Y0026*
X01327Y00249*
X01331Y00239*
X01338Y0023*
X01346Y00223*
X01356Y00219*
X01367Y00218*
X01378Y00219*
X01388Y00223*
X01396Y0023*
X01403Y00239*
X01407Y00249*
X01409Y0026*
X01407Y0027*
X01404Y00278*
X01407Y00283*
X01448*
X01451Y00278*
X01448Y0027*
X01447Y0026*
X01448Y00249*
X01452Y00239*
X01459Y0023*
X01467Y00223*
X01477Y00219*
X01488Y00218*
X01499Y00219*
X01509Y00223*
X01518Y0023*
X01524Y00239*
X01529Y00249*
X0153Y0026*
X01529Y0027*
X01524Y0028*
X01518Y00289*
X01509Y00296*
X01499Y003*
X01493Y00301*
X01491Y00306*
X01585Y004*
X01594Y00402*
X01602Y00407*
X01607Y00415*
X01609Y00425*
X01607Y00434*
X01602Y00442*
X01594Y00447*
X01585Y00449*
X01575Y00447*
X01567Y00442*
X01565Y00438*
X0156*
X01557Y00442*
X01549Y00447*
X0154Y00449*
X0153Y00447*
X01522Y00442*
X01517Y00434*
X01515Y00425*
X01426Y00337*
X00862*
X00855Y00335*
X00849Y00332*
X00831Y00313*
X00827Y00308*
X0082Y00309*
X0081Y00307*
X00803Y00303*
X00791*
X00789Y00302*
X0073Y00361*
X00731Y00366*
X00732Y00367*
X00737Y00375*
X00739Y00385*
X00737Y00394*
X00732Y00402*
X00724Y00407*
X00715Y00409*
X00705Y00407*
X007Y00404*
X00699Y00406*
X00661Y00444*
X00655Y00447*
X00648Y00449*
X00357*
X00353Y00454*
X00354Y0046*
X00353Y00467*
X00356Y00472*
X00358Y00479*
X00356Y00486*
X00352Y00492*
X0035Y00494*
X00364Y00508*
X00367Y00514*
X00369Y00521*
Y0053*
X00373Y00533*
X00375Y00532*
X00385Y0053*
X00391Y00531*
X00391Y00531*
X00407*
X0041Y00527*
X0041Y00525*
X00412Y00515*
X00417Y00507*
X00425Y00502*
X00435Y005*
X00444Y00502*
X00452Y00507*
X00453Y00507*
X00457Y00503*
X00462Y00499*
X00469Y00498*
X00499*
X00503Y00499*
X00531*
X00535Y00498*
X00685*
X00692Y00499*
X00697Y00503*
X00762Y00568*
X00764Y0057*
X0077*
X00772Y00567*
X0078Y00562*
X0079Y0056*
X00799Y00562*
X00807Y00567*
X00812Y00575*
X00814Y00585*
X00812Y00594*
X00807Y00602*
X00799Y00607*
X00793Y00609*
X00791Y00614*
X00894Y00717*
X01072*
X01076Y00714*
X01075Y0071*
X01077Y007*
X01082Y00692*
X0109Y00687*
X011Y00685*
X01109Y00687*
X01117Y00692*
X01122Y007*
X01124Y0071*
X01123Y00714*
X01127Y00717*
X0131*
X01316Y00719*
X01322Y00722*
X01342Y00742*
X01345Y00748*
X01347Y00755*
X01345Y00761*
X01342Y00767*
X01329Y00779*
Y00811*
X01333Y00813*
X01456Y0069*
X01453Y00687*
X01452Y00687*
X01446Y00689*
X0144Y0069*
X01433Y00689*
X01427Y00687*
X01421Y00683*
X01417Y00677*
X01415Y00671*
X01414Y00665*
X01304Y00555*
X01115*
X01108Y00554*
X01102Y00552*
X01096Y00548*
X01092Y00542*
X0109Y00536*
X01089Y0053*
X0109Y00523*
X01092Y00517*
X01096Y00511*
X01102Y00507*
X01108Y00505*
X01115Y00504*
X01315*
X01321Y00505*
X01327Y00507*
X01333Y00511*
X01458Y00636*
X01462Y00642*
X01464Y00648*
X01465Y00655*
Y00665*
X01464Y00671*
X01462Y00677*
X01462Y00678*
X01465Y00681*
X01648Y00498*
X01647Y00496*
Y00286*
X01642Y00284*
X01639Y00289*
X0163Y00296*
X0162Y003*
X0161Y00301*
X01599Y003*
X01589Y00296*
X0158Y00289*
X01573Y0028*
X01569Y0027*
X01568Y0026*
X01569Y00249*
X01573Y00239*
X0158Y0023*
X01589Y00223*
X01599Y00219*
X0161Y00218*
X0162Y00219*
X0163Y00223*
X01635Y00227*
X0164Y00225*
X01642Y00215*
X01647Y00207*
X01655Y00202*
X01665Y002*
X01674Y00202*
X01682Y00207*
X01682Y00207*
X01947*
X0211Y00045*
X0211Y00045*
X02112Y00035*
X02117Y00027*
X02125Y00022*
X02135Y0002*
X02144Y00022*
X02152Y00027*
X02157Y00035*
X02159Y00045*
X02157Y00054*
X02152Y00062*
X02144Y00067*
X02135Y00069*
X02134Y00069*
X01967Y00237*
X01961Y0024*
X01955Y00242*
X01682*
X01682Y00242*
X01682Y00242*
Y00484*
X01729*
X01736Y00485*
X01741Y00489*
X02017Y00764*
X0202Y0077*
X02022Y00776*
Y01118*
X02027Y01121*
X02035Y0112*
X02044Y01122*
X02052Y01127*
X02057Y01135*
X02059Y01145*
X02057Y01154*
X02052Y01162*
X02044Y01167*
X02035Y01169*
X02027Y01168*
X02022Y01171*
Y01407*
X02022Y01407*
X02027Y01415*
X02029Y01425*
X02027Y01434*
X02022Y01442*
X02022Y01442*
Y01835*
X02021Y01838*
X02022Y0184*
X02024Y0185*
X02022Y01859*
X02017Y01867*
X02009Y01872*
X02Y01874*
X0199Y01872*
X01982Y01867*
X01977Y01859*
X01975Y0185*
X01977Y0184*
X01982Y01832*
X01986Y01829*
X01987Y01827*
Y01827*
Y01442*
X01987Y01442*
X01982Y01434*
X0198Y01425*
X0194*
X01933Y01424*
X01928Y0142*
X01879Y01372*
X01682*
X01682Y01372*
X01674Y01377*
X01665Y01379*
X01655Y01377*
X01647Y01372*
X01642Y01364*
X0164Y01355*
X01642Y01345*
X01647Y01337*
X01655Y01332*
X01665Y0133*
X01674Y01332*
X01682Y01337*
X01682Y01337*
X01886*
X01893Y01339*
X01898Y01342*
X01925Y01369*
X0193Y01367*
X01935Y0136*
X01943Y01355*
X01952Y01353*
X01962Y01355*
X0197Y0136*
X01975Y01368*
X01977Y01378*
X01976Y01386*
X01978Y01391*
X01987*
Y00783*
X01911Y00707*
X01911Y00707*
X01907Y0071*
X01907Y00711*
X01909Y0072*
X01908Y00724*
X01939Y00755*
X01944Y00762*
X01945Y0077*
Y00798*
X01949Y00801*
X01955Y008*
X01964Y00802*
X01972Y00807*
X01977Y00815*
X01979Y00825*
X01977Y00834*
X01972Y00842*
X01964Y00847*
X01958Y00849*
X01957Y00852*
X01952Y0086*
X01944Y00866*
X01935Y00868*
X01925Y00866*
X01917Y0086*
X01912Y00852*
X0191Y00847*
X01908Y00844*
X01906Y00844*
X01878Y00872*
X01878Y00873*
X0188Y00877*
X01887Y00882*
X01892Y0089*
X01894Y009*
X01892Y00909*
X01887Y00917*
X01879Y00922*
X0187Y00924*
X0186Y00922*
X01852Y00917*
X01847Y0091*
X01843Y00908*
X01842Y00908*
X01837Y00912*
X01831Y00916*
X01825Y00918*
X01822*
X01494Y01246*
X01495Y01251*
X01497Y01252*
X01502Y0126*
X01504Y0127*
X01502Y01279*
X01498Y01286*
Y01287*
X01657Y01446*
X01667*
X0167Y01445*
X01673*
X0168Y01447*
X01686Y0145*
X01957Y01722*
X01961Y01728*
X01963Y01735*
Y01768*
X01967Y01775*
X01969Y01785*
X01967Y01794*
X01962Y01802*
X01954Y01807*
X01945Y01809*
X01935Y01807*
X01927Y01802*
X01925Y01798*
X0192*
X01917Y01802*
X01909Y01807*
X019Y01809*
X0189Y01807*
X01882Y01802*
X01877Y01794*
X01876Y01793*
X01872Y01793*
X01871Y01793*
X01866Y01801*
X01858Y01806*
X01849Y01808*
X01839Y01806*
X01834Y01803*
X01832Y01807*
X01824Y01812*
X01815Y01814*
X01805Y01812*
X01797Y01807*
X01792Y01799*
X0179Y0179*
X01791Y01785*
X01787Y0178*
X01704*
X01697Y01778*
X01691Y01775*
X01687Y01769*
X01686Y01762*
Y01666*
X01662Y01642*
X01658Y01636*
X01656Y0163*
Y01603*
X01028*
X01027Y01604*
X01022Y01612*
X01014Y01617*
X01005Y01619*
X01003Y01619*
X00999Y01622*
Y01683*
X00997Y0169*
X00994Y01696*
X00364Y02325*
X00362Y02334*
X00357Y02342*
X00349Y02347*
X0034Y02349*
G37*
G36*
X01022Y02006D02*
X01012Y02004D01*
X01004Y01999*
X00999Y01991*
X00997Y01981*
X00999Y01972*
X01004Y01964*
X01012Y01958*
X01022Y01956*
X01031Y01958*
X01039Y01964*
X01045Y01972*
X01047Y01981*
X01045Y01991*
X01039Y01999*
X01031Y02004*
X01022Y02006*
G37*
G36*
X01626D02*
X01617Y02004D01*
X01609Y01999*
X01603Y01991*
X01601Y01981*
X01603Y01972*
X01609Y01964*
X01617Y01958*
X01626Y01956*
X01636Y01958*
X01644Y01964*
X01649Y01972*
X01651Y01981*
X01649Y01991*
X01644Y01999*
X01636Y02004*
X01626Y02006*
G37*
G36*
X012Y01994D02*
X0119Y01992D01*
X01182Y01987*
X01177Y01979*
X01175Y0197*
X01177Y0196*
X01182Y01952*
X0119Y01947*
X012Y01945*
X01209Y01947*
X01217Y01952*
X01222Y0196*
X01224Y0197*
X01222Y01979*
X01217Y01987*
X01209Y01992*
X012Y01994*
G37*
G36*
X017Y01959D02*
X0169Y01957D01*
X01682Y01952*
X01677Y01945*
X01674Y01947*
X01665Y01949*
X01655Y01947*
X01647Y01942*
X01642Y01934*
X0164Y01925*
X01642Y01915*
X01647Y01907*
X01655Y01902*
X01665Y019*
X01674Y01902*
X01682Y01907*
X01687Y01914*
X0169Y01912*
X017Y0191*
X01709Y01912*
X01717Y01917*
X01722Y01925*
X01724Y01935*
X01722Y01944*
X01717Y01952*
X01709Y01957*
X017Y01959*
G37*
%LNninja_3_2_pcb-3*%
%LPD*%
G36*
X01008Y01568D02*
X01015Y01566D01*
X01649*
X01651Y01562*
X01544Y01455*
X01539Y01457*
X01537Y01464*
X01532Y01472*
X01524Y01477*
X01515Y01479*
X01513Y01479*
X01512Y01484*
X01506Y01492*
X01498Y01498*
X01489Y01499*
X01479Y01498*
X01471Y01492*
X01466Y01484*
X01464Y01475*
X01465Y01468*
X01461Y01464*
X0146Y01464*
X0145Y01462*
X01442Y01457*
X01437Y01449*
X01435Y0144*
X01437Y0143*
X01442Y01422*
X0145Y01417*
X0146Y01415*
X01469Y01417*
X01477Y01422*
X01482Y0143*
X01484Y0144*
X01483Y01445*
X01487Y01449*
X01491Y01448*
X01492Y01445*
X01497Y01437*
X01505Y01432*
X01513Y0143*
X01514Y01425*
X01349Y0126*
X01344Y0126*
X01341Y01264*
X01333Y0127*
X01324Y01272*
X01318Y01271*
X01317Y01274*
X01312Y01282*
X01311Y01283*
X0131Y01288*
X01315Y01293*
X01319Y01298*
X0132Y01305*
Y01324*
X01319Y01327*
X01327Y01334*
X0133Y0134*
X01332Y01346*
Y01423*
X01335Y01425*
X01337Y01426*
X01346Y01424*
X01355Y01426*
X01363Y01431*
X01368Y01439*
X0137Y01449*
X01368Y01458*
X01363Y01466*
X01355Y01471*
X01346Y01473*
X01336Y01471*
X01334Y0147*
X01332Y01472*
X01329Y01474*
X0133Y01476*
X01332Y01486*
X0133Y01495*
X01325Y01503*
X01317Y01508*
X01308Y0151*
X01298Y01508*
X0129Y01503*
X01285Y01495*
X01285Y01495*
X01279Y01493*
X01277Y01497*
X01269Y01502*
X0126Y01504*
X0125Y01502*
X01242Y01497*
X01237Y01489*
X01235Y01479*
X01235Y01479*
X01231Y01474*
X01225Y01472*
X0122Y01469*
X01213Y01473*
X01204Y01475*
X01194Y01473*
X01186Y01468*
X01181Y0146*
X01179Y0145*
X01181Y01441*
X01186Y01433*
X01194Y01427*
X01204Y01425*
X01213Y01427*
X01218Y01431*
X01225Y01427*
X01235Y01425*
X01244Y01427*
X01252Y01432*
X01257*
X01265Y01427*
X01275Y01425*
X01284Y01427*
X01292Y01432*
X01292Y01433*
X01297Y01431*
Y01353*
X0129Y01346*
X01286Y0134*
X01286Y01338*
X0128Y01339*
X0127Y01337*
X01262Y01332*
X0126Y01329*
X01255Y01332*
X01246Y01334*
X01236Y01332*
X01228Y01327*
X01225Y01323*
X01219Y01327*
X0121Y01329*
X012Y01327*
X01194Y01324*
X01192Y01327*
X01184Y01332*
X01175Y01334*
X01165Y01332*
X01157Y01327*
X01152Y01319*
X0115Y0131*
X01152Y013*
X01157Y01292*
X01165Y01287*
X01175Y01285*
X01184Y01287*
X0119Y0129*
X01192Y01287*
X012Y01282*
X0121Y0128*
X01219Y01282*
X01227Y01287*
X0123Y01291*
X01236Y01287*
X01246Y01285*
X01253Y01286*
X01256Y01282*
X01255Y01281*
X01254Y01274*
Y01255*
X01255Y01248*
X01259Y01243*
X01271Y01231*
Y01207*
X01266Y01202*
X01262Y01196*
X01261Y01189*
Y01127*
X01134Y01*
X01132Y01002*
X01126Y01005*
X0112Y01007*
X01097*
X01097Y01007*
X01089Y01012*
X0108Y01014*
X0107Y01012*
X01062Y01007*
X01057Y00999*
X01055Y00993*
X0105Y00991*
X01003Y01038*
Y01173*
X01004Y01175*
X01008Y0118*
X01009Y01187*
Y01254*
X01008Y01261*
X01004Y01267*
X0099Y01281*
X00992Y01286*
X00999Y01285*
X01008Y01287*
X01014Y01291*
X0102Y01287*
X0103Y01285*
X01039Y01287*
X01047Y01292*
X01055Y01287*
X01065Y01285*
X01074Y01287*
X01082Y01292*
X01087Y013*
X01089Y0131*
X01087Y01319*
X01082Y01327*
X01074Y01332*
X01065Y01334*
X01062Y01334*
X01057Y0134*
Y01432*
X01057Y01432*
X01062Y0144*
X01064Y0145*
X01062Y01459*
X01061Y01462*
X01064Y01465*
X0107Y01461*
X01075Y0146*
X01075Y0146*
X01077Y0145*
X01082Y01442*
X0109Y01437*
X011Y01435*
X01109Y01437*
X01117Y01442*
X01122Y0145*
X01124Y0146*
X01122Y01469*
X01117Y01477*
X01109Y01482*
X01104Y01483*
X01104Y01484*
X01102Y01494*
X01097Y01502*
X01089Y01507*
X0108Y01509*
X0107Y01507*
X01062Y01502*
X01057Y01494*
X01055Y01484*
X01057Y01475*
X01058Y01472*
X01055Y01469*
X01049Y01472*
X0104Y01474*
X01033Y01473*
X01028Y01474*
X01026Y01476*
X01022Y01482*
X01014Y01487*
X01005Y01489*
X01003Y01491*
Y01565*
X01008Y01568*
X01008Y01568*
G37*
G36*
X0062Y00782D02*
X0062Y0078D01*
X00622Y0077*
X00627Y00762*
X00635Y00757*
X00645Y00755*
X00654Y00757*
X00662Y00762*
X00663Y00764*
X00668Y00765*
X00681Y00752*
X00687Y00748*
X00693Y00747*
X0079*
X00797Y00748*
X00802Y00752*
X00817Y00767*
X00819Y0077*
X00822Y00772*
X00833Y00784*
X00842*
X00844Y0078*
X00801Y00736*
X00797Y0073*
X00795Y00723*
Y00711*
X00665Y00581*
X00663*
X00657Y00587*
X00652Y00591*
X00645Y00592*
X00624*
X00617Y00591*
X00612Y00587*
X00606Y00581*
X0046*
X00455Y00585*
X00448Y00586*
X00438*
X00433Y00591*
Y00594*
X00432Y00601*
X00428Y00607*
X00427Y00607*
X00421Y00611*
X00415Y00613*
X00401*
X00394Y00617*
X00385Y00619*
X00378Y00618*
X00373Y00621*
Y00674*
X00427Y00728*
X0043Y00734*
X00431Y00737*
X00479Y00786*
X00532*
X00535Y00782*
X00535Y0078*
X00537Y0077*
X00542Y00762*
X0055Y00757*
X0056Y00755*
X00569Y00757*
X00577Y00762*
X00582Y0077*
X00584Y0078*
X00584Y00782*
X00587Y00786*
X00617*
X0062Y00782*
G37*
%LNninja_3_2_pcb-4*%
%LPC*%
G36*
X01425Y01519D02*
X01415Y01517D01*
X01407Y01512*
X01402Y01504*
X014Y01495*
X01402Y01485*
X01407Y01477*
X01415Y01472*
X01425Y0147*
X01434Y01472*
X01442Y01477*
X01447Y01485*
X01449Y01495*
X01447Y01504*
X01442Y01512*
X01434Y01517*
X01425Y01519*
G37*
%LNninja_3_2_pcb-5*%
%LPD*%
G54D32*
X00448Y00568D02*
X00453Y00563D01*
X0043Y00568D02*
X00448D01*
X00453Y00563D02*
X00614D01*
X00415Y00583D02*
X0043Y00568D01*
X00415Y00583D02*
Y00594D01*
X00415Y00595D02*
X00415Y00594D01*
X00385Y00595D02*
X00415D01*
X01023Y00823D02*
Y00879D01*
X0101Y0081D02*
X01023Y00823D01*
X0045Y00885D02*
Y00887D01*
X00377Y00877D02*
Y00967D01*
X00243Y00743D02*
X00377Y00877D01*
X00535Y00875D02*
Y0102D01*
X00555Y0104*
X00624*
X00376Y00729D02*
X00396Y00749D01*
X00356Y00729D02*
X00376D01*
X00355Y00729D02*
X00356Y00729D01*
X00295Y00729D02*
X00355D01*
X00355Y00682D02*
X00414Y00741D01*
X00465Y00822D02*
X00662D01*
X00396Y00753D02*
X00465Y00822D01*
X00472Y00804D02*
X00655D01*
X00414Y00746D02*
X00472Y00804D01*
X0129Y0099D02*
X01294D01*
X01295Y0099*
X01298Y00993*
X01225Y02203D02*
Y02216D01*
X01201Y0224D02*
X01225Y02216D01*
X01188Y0224D02*
X01201D01*
X01146Y02281D02*
X01188Y0224D01*
X0125Y02178D02*
X01364D01*
X01225Y02203D02*
X0125Y02178D01*
X01364D02*
X01403Y0214D01*
X01456Y00747D02*
X01457D01*
X01353Y00849D02*
X01456Y00747D01*
X01353Y0085D02*
X01364Y0086D01*
X0134Y00875D02*
X01344Y00879D01*
Y0091*
X01364Y0086D02*
Y00915D01*
X01337Y00942D02*
X01364Y00915D01*
X01275Y00785D02*
Y0085D01*
X01302Y00942D02*
X01337D01*
X01301Y00941D02*
X01302Y00942D01*
X01294Y00941D02*
X01301D01*
X0133Y00924D02*
X01344Y0091D01*
X01309Y00924D02*
X0133D01*
X01303Y00918D02*
X01309Y00924D01*
X01293Y00918D02*
X01303D01*
X0122Y00975D02*
X01261D01*
X01169Y00962D02*
X01206Y00999D01*
X01151Y00969D02*
X0121Y01029D01*
X01253Y00993D02*
X01283Y01023D01*
X01239Y00993D02*
X01253D01*
X01234Y00999D02*
X01239Y00993D01*
X01206Y00999D02*
X01234D01*
X01291Y00945D02*
X01294Y00941D01*
X01286Y0094D02*
X01291Y00945D01*
X01276Y0095D02*
X01286Y0094D01*
X01195Y0095D02*
X01276D01*
X01266Y0097D02*
X0129Y00993D01*
X01261Y00975D02*
X01266Y0097D01*
X01169Y00909D02*
X012D01*
X01208Y00901D02*
X01276D01*
X01293Y00918*
X01319Y01026D02*
X01428D01*
X01304Y0104D02*
X01319Y01026D01*
X01311Y01008D02*
X01349D01*
X01296Y01023D02*
X01311Y01008D01*
X0129Y00993D02*
X01298D01*
X0094Y012D02*
X00944D01*
X00949Y01205*
X00973Y01195D02*
Y01247D01*
X00967Y01188D02*
X00973Y01195D01*
X00967Y01024D02*
Y01188D01*
X00991Y01187D02*
Y01254D01*
X00985Y01181D02*
X00991Y01187D01*
X00985Y01031D02*
Y01181D01*
X00949Y01205D02*
Y01246D01*
X00953Y01267D02*
X00973Y01247D01*
X0096Y01285D02*
X00991Y01254D01*
X0091Y0134D02*
Y01408D01*
X00801Y01415D02*
X0084Y01454D01*
X00865D02*
X0091Y01408D01*
X0084Y01454D02*
X00865D01*
X00952Y01441D02*
X0098Y01469D01*
X00952Y01437D02*
Y01441D01*
X00946Y01431D02*
X00952Y01437D01*
X00946Y01325D02*
Y01431D01*
X00934Y01448D02*
X00962Y01476D01*
X00934Y01444D02*
Y01448D01*
X00928Y01438D02*
X00934Y01444D01*
X00928Y01333D02*
Y01438D01*
X0098Y01469D02*
Y01475D01*
X00962Y01476D02*
Y01482D01*
X00967Y01486D02*
Y01573D01*
X00962Y01482D02*
X00967Y01486D01*
X00985Y01479D02*
Y0158D01*
X0098Y01475D02*
X00985Y01479D01*
X00785Y01415D02*
X00801D01*
X01324Y01246D02*
Y01247D01*
X01326Y01211D02*
X01682Y01567D01*
X0166Y01433D02*
Y0144D01*
X01673Y01463D02*
X01945Y01735D01*
X0167Y01463D02*
X01673D01*
X0167Y01464D02*
X0167Y01463D01*
X0037Y0097D02*
X00375D01*
X00813Y00704D02*
Y00723D01*
X00655Y00563D02*
X00673D01*
X00813Y00704*
X00693Y00765D02*
X0079D01*
X00655Y00804D02*
X00693Y00765D01*
X00664Y0082D02*
X0099D01*
X00662Y00822D02*
X00664Y0082D01*
X00804Y0078D02*
X00809Y00785D01*
X00804Y00779D02*
Y0078D01*
X0079Y00765D02*
X00804Y00779D01*
X01682Y01567D02*
X019Y01784D01*
Y01785*
X01682Y01567D02*
X01682D01*
X01675Y01585D02*
Y0163D01*
X01015Y01585D02*
X01675D01*
X01005Y01595D02*
X01015Y01585D01*
X00686Y00379D02*
Y00393D01*
Y00379D02*
X00704Y0036D01*
X00705D02*
X00786Y0028D01*
X00704Y0036D02*
X00705D01*
X00645Y00574D02*
X00655Y00563D01*
X00624Y00574D02*
X00645D01*
X00614Y00563D02*
X00624Y00574D01*
X00785Y01001D02*
X0086Y00925D01*
X00895*
X00902Y00967D02*
Y00997D01*
Y00967D02*
X00909Y0096D01*
Y00939D02*
Y0096D01*
X00895Y00925D02*
X00909Y00939D01*
X00885Y0095D02*
Y0095D01*
X00877Y00957D02*
X00885Y0095D01*
X0158Y0082D02*
Y00874D01*
X01428Y01026D02*
X0158Y00874D01*
X01349Y01008D02*
X01572Y00784D01*
X01283Y01023D02*
X01296D01*
X01304Y01041D02*
X01304Y01041D01*
Y0104D02*
Y01041D01*
X01572Y00784D02*
X01592D01*
X01606Y00798*
Y00817*
X00285Y02104D02*
Y0226D01*
Y02104D02*
X00334Y02055D01*
X00345Y02265D02*
X0035D01*
X0034Y02324D02*
X00981Y01683D01*
Y01605D02*
Y01683D01*
X0034Y02324D02*
Y02325D01*
X00963Y01613D02*
Y01651D01*
X00962Y01612D02*
X00963Y01613D01*
X00962Y01577D02*
Y01612D01*
Y01577D02*
X00967Y01573D01*
X0098Y01584D02*
X00985Y0158D01*
X0098Y01584D02*
Y01605D01*
X00981Y01605*
X0034Y02325D02*
Y02325D01*
X00286Y01986D02*
X00334Y02034D01*
X00286Y01953D02*
Y01986D01*
X00334Y02034D02*
Y02055D01*
X00286Y01953D02*
X00665Y01575D01*
X0045Y01825D02*
X00695Y0158D01*
Y0139D02*
Y0158D01*
X00877Y00957D02*
Y01147D01*
X0088Y0115*
X00695D02*
X0088D01*
X00662Y01001D02*
X00785D01*
X00624Y0104D02*
X00662Y01001D01*
X0067Y0106D02*
X0073D01*
X00665Y01055D02*
X0067Y0106D01*
X00375Y0097D02*
X00377Y00967D01*
X00295Y0073D02*
X00295Y00729D01*
X00414Y00741D02*
Y00746D01*
X00396Y00749D02*
Y00753D01*
X00355Y00572D02*
Y00682D01*
X00261Y00445D02*
Y00736D01*
X00243Y00437D02*
Y00743D01*
X00261Y00736D02*
X0041Y00885D01*
X00261Y00445D02*
X00275Y00431D01*
X00243Y00437D02*
X00267Y00413D01*
X00328Y00467D02*
X0034Y00479D01*
X0033Y0046D02*
Y00466D01*
X00328Y00467D02*
X0033Y00466D01*
X00275Y00431D02*
X00648D01*
X00267Y00413D02*
X00617D01*
X00234Y00395D02*
X00601D01*
X00242Y00377D02*
X00594D01*
X00095Y00387D02*
X00105Y00377D01*
X00095Y00387D02*
Y00395D01*
X00112Y0037D02*
X00174D01*
X00105Y00377D02*
X00112Y0037D01*
X00174D02*
X00187Y00357D01*
X00222D02*
X00242Y00377D01*
X00187Y00357D02*
X00222D01*
X00229Y0039D02*
X00234Y00395D01*
X00229Y00389D02*
Y0039D01*
X00215Y00375D02*
X00229Y00389D01*
X00194Y00375D02*
X00215D01*
X0018Y00389D02*
X00194Y00375D01*
X0018Y00389D02*
Y0039D01*
X00175Y00395D02*
X0018Y0039D01*
X0082Y00251D02*
X00844Y00274D01*
X00744Y00251D02*
X0082D01*
X00844Y00274D02*
Y00301D01*
X00862Y00319*
X00828Y00233D02*
X00862Y00267D01*
X00737Y00233D02*
X00828D01*
X00712Y00258D02*
X00737Y00233D01*
X00712Y00258D02*
Y00259D01*
X00594Y00377D02*
X00712Y00259D01*
X0073Y00265D02*
X00744Y00251D01*
X0073Y00265D02*
Y00266D01*
X00601Y00395D02*
X0073Y00266D01*
X00862Y00293D02*
X00869Y00301D01*
X00862Y00267D02*
Y00293D01*
X00791Y00285D02*
X0082D01*
X00786Y0028D02*
X00791Y00285D01*
X017Y00835D02*
X01725Y0081D01*
X01825Y009D02*
X01895Y00829D01*
X01725Y0081D02*
X01775D01*
X01895Y00815D02*
Y00829D01*
X01815Y009D02*
X01825D01*
X01455Y01259D02*
X01815Y009D01*
X01455Y01259D02*
Y0128D01*
X01456Y0128*
Y01293*
X02065Y01475D02*
X0212D01*
X0148Y0127D02*
Y01294D01*
X01649Y01464*
X0167*
X0212Y01475D02*
X0215Y01505D01*
X01161Y00901D02*
X01169Y00909D01*
X0104Y00901D02*
X01161D01*
X012Y00909D02*
X01208Y00901D01*
X01142Y00933D02*
X01169Y0096D01*
X01057Y00933D02*
X01142D01*
X01091Y00958D02*
X01141D01*
X01151Y00968*
X01169Y0096D02*
Y00962D01*
X01151Y00968D02*
Y00969D01*
X01276Y01041D02*
X01304D01*
X0094Y0132D02*
X00946Y01325D01*
X0094Y01299D02*
Y0132D01*
Y01299D02*
X00954Y01285D01*
X00922Y01292D02*
X00947Y01267D01*
X00922Y01292D02*
Y01327D01*
X00928Y01333*
X00904Y01334D02*
X0091Y0134D01*
X00904Y01285D02*
Y01334D01*
Y01285D02*
X0094Y01249D01*
X00946*
X00949Y01246*
X00947Y01267D02*
X00953D01*
X00954Y01285D02*
X0096D01*
X01328Y01195D02*
X0133D01*
X01326Y01196D02*
X01328Y01195D01*
X00985Y01031D02*
X01065Y00951D01*
X00967Y01024D02*
X01057Y00933D01*
X0215Y01505D02*
Y0169D01*
X02055Y01785D02*
X0215Y0169D01*
X0045Y01825D02*
Y0187D01*
X01403Y0214D02*
X0156D01*
X00813Y00723D02*
X0087Y0078D01*
X0069Y01155D02*
X00695Y0115D01*
X01606Y00817D02*
X01623Y00835D01*
X017*
X01323Y01245D02*
X01326Y01241D01*
X01146Y02281D02*
Y02573D01*
X01153Y0258D02*
Y02611D01*
X01146Y02573D02*
X01153Y0258D01*
X0111Y02655D02*
X01153Y02611D01*
X01455Y01295D02*
X01456Y01293D01*
X01275Y00785D02*
X0128Y0078D01*
X01084Y00951D02*
X01091Y00958D01*
X01065Y00951D02*
X01084D01*
X01326Y01196D02*
Y01211D01*
X00944Y00997D02*
X0104Y00901D01*
X00902Y00997D02*
X00944D01*
X00986Y00886D02*
X00995Y00895D01*
X00986Y00858D02*
Y00886D01*
Y00858D02*
X0099Y00854D01*
Y0082D02*
Y00854D01*
X01461Y00301D02*
X01585Y00425D01*
X01434Y00319D02*
X0154Y00425D01*
X00665Y01055D02*
Y01575D01*
X0053Y0088D02*
X00535Y00875D01*
X01323Y01245D02*
X01324Y01246D01*
X0087Y0078D02*
X0128D01*
X00862Y00319D02*
X01434D01*
X00617Y00413D02*
X00755Y00275D01*
X00869Y00301D02*
X01461D01*
X0041Y00885D02*
X0045D01*
X00351Y00568D02*
X00355Y00572D01*
X00351Y00521D02*
Y00568D01*
X00826Y00802D02*
X01017D01*
X0101Y0081D02*
X01017Y00802D01*
X01827Y01762D02*
X01849Y01784D01*
X00809Y00785D02*
D01*
X00826Y00802*
X0045Y0187D02*
X0051Y0193D01*
X0052*
X00324Y00494D02*
X00351Y00521D01*
X00324Y00494D02*
X0034Y00479D01*
X00648Y00431D02*
X00686Y00393D01*
X01704Y01762D02*
X01827D01*
X01945Y01735D02*
Y01785D01*
X01704Y01659D02*
Y01762D01*
X01455Y01295D02*
X0177Y0161D01*
X01675Y0163D02*
X01704Y01659D01*
X0035Y02265D02*
X00963Y01651D01*
X00135Y00395D02*
Y00395D01*
X00175*
X01263Y01029D02*
X01276Y01041D01*
X0121Y01029D02*
X01263D01*
X01353Y00849D02*
Y0085D01*
G54D33*
X00391Y00548D02*
X00444D01*
X00385Y00555D02*
X00391Y00548D01*
X00444D02*
X00458Y00534D01*
X01875Y00935D02*
Y0094D01*
Y00935D02*
X0197Y0103D01*
X01115Y0229D02*
X01181Y02223D01*
X01115Y0229D02*
Y0259D01*
X01208Y02196D02*
Y02209D01*
X01194Y02223D02*
X01208Y02209D01*
X01181Y02223D02*
X01194D01*
X01112Y01952D02*
X01188Y01876D01*
X01339*
X01208Y02196D02*
X01245Y0216D01*
X0112Y01992D02*
Y0217D01*
X01245Y0216D02*
X0135D01*
X01355Y02155*
X01336Y00834D02*
X0167Y00501D01*
X0132Y00899D02*
Y009D01*
X01134Y00975D02*
X01278Y0112D01*
X01005Y0146D02*
Y01465D01*
X0098Y01435D02*
X01005Y0146D01*
X0104Y01333D02*
Y0145D01*
X01039Y01333D02*
X0104Y01333D01*
X01315Y01346D02*
Y01455D01*
X0097Y01435D02*
X0098D01*
X0097D02*
X0098Y01425D01*
X00965Y0141D02*
X0098Y01425D01*
X00965Y0131D02*
Y0141D01*
X00855Y01235D02*
Y0143D01*
X01039Y01333D02*
X01053Y01319D01*
X01302Y01334D02*
X01315Y01346D01*
X01302Y01325D02*
Y01334D01*
Y01325D02*
X01303Y01324D01*
Y01305D02*
Y01324D01*
X01285Y01288D02*
X01286D01*
X01271Y01274D02*
X01285Y01288D01*
X01286D02*
X01303Y01305D01*
X01271Y01255D02*
Y01274D01*
X01642Y01422D02*
X0166Y0144D01*
X0112Y0099D02*
X01134Y00975D01*
X0108Y0099D02*
X0112D01*
X01886Y01355D02*
X0194Y01408D01*
X01665Y01355D02*
X01886D01*
X00785Y0071D02*
X00785D01*
X0079Y00714*
X01665Y00225D02*
X01955D01*
X01665D02*
Y00496D01*
X0167Y00501*
X00535Y00515D02*
X00685D01*
X00469D02*
X00499D01*
X00458Y00526D02*
X00469Y00515D01*
X00534Y00516D02*
X00535Y00515D01*
X005Y00516D02*
X00534D01*
X00499Y00515D02*
X005Y00516D01*
X00458Y00526D02*
Y00534D01*
X00181Y0012D02*
X00215Y00153D01*
X00356D02*
X0036Y0015D01*
X00215Y00153D02*
X00356D01*
X00165Y0012D02*
X00181D01*
X02005Y00776D02*
Y01425D01*
X0167Y00501D02*
X01729D01*
X02005Y00776*
X01642Y01375D02*
Y01422D01*
X01641Y01278D02*
X0173Y0119D01*
X0194Y01408D02*
X01988D01*
X02005Y01425*
X01641Y01374D02*
X01642Y01375D01*
X01641Y01278D02*
Y01374D01*
X02005Y01425D02*
Y01835D01*
X02Y0184D02*
X02005Y01835D01*
X02Y0184D02*
X02005Y01845D01*
X0134Y00871D02*
Y00875D01*
X01062Y0131D02*
X01065D01*
X01053Y01318D02*
X01062Y0131D01*
X01053Y01318D02*
Y01319D01*
X01271Y01255D02*
X01288Y01238D01*
Y012D02*
Y01238D01*
X01278Y01189D02*
X01288Y012D01*
X01278Y0112D02*
Y01189D01*
X01615Y0219D02*
X0162D01*
X01615D02*
X01619Y02186D01*
X0162Y02187*
X01634Y02162D02*
X01639D01*
X01629Y02157D02*
X01634Y02162D01*
X0161Y02157D02*
X01629D01*
X01599Y02146D02*
X0161Y02157D01*
X01641Y02161D02*
X0166Y0218D01*
Y0219*
X01364Y02155D02*
X01403Y02116D01*
X01569*
X01545Y02188D02*
X01569Y02163D01*
X01545Y02188D02*
Y0219D01*
X01569Y02163D02*
D01*
X01599Y02123D02*
Y02146D01*
X01576Y021D02*
X01599Y02123D01*
X01553Y021D02*
X01576D01*
X01442Y01989D02*
X01553Y021D01*
X01585Y0218D02*
Y02259D01*
X01585Y0226D02*
X01585Y02259D01*
X01569Y02116D02*
X01583Y0213D01*
Y02149*
X01569Y02163D02*
X01583Y02149D01*
X0158Y02265D02*
X01585Y0226D01*
X01112Y01952D02*
Y01984D01*
X0132Y01928D02*
X01339D01*
X01306Y01914D02*
X0132Y01928D01*
X01345Y01922D02*
X01384D01*
X01339Y01928D02*
X01345Y01922D01*
X01306Y01913D02*
Y01914D01*
X01292Y019D02*
X01306Y01913D01*
X01363Y019D02*
X0143D01*
X01339Y01876D02*
X01363Y019D01*
X0078Y00725D02*
X0079Y00714D01*
X0064Y00725D02*
X0078D01*
X01312Y00772D02*
Y00897D01*
X01355Y02155D02*
X01364D01*
X0158Y02265D02*
X01595Y0228D01*
Y02295*
X02045Y02745*
Y02775*
X01442Y0198D02*
Y01989D01*
X01384Y01922D02*
X01442Y0198D01*
X0123Y019D02*
X01292D01*
X00887Y00735D02*
X0131D01*
X0075Y00597D02*
X00887Y00735D01*
X0075Y0058D02*
Y00597D01*
X00685Y00515D02*
X0075Y0058D01*
X02Y0185D02*
X02005Y01845D01*
X01312Y00897D02*
X01314Y00894D01*
X01336Y00834D02*
Y00868D01*
X01312Y00772D02*
X0133Y00755D01*
X00905Y0113D02*
Y01175D01*
X0085Y0123D02*
X00905Y01175D01*
X01955Y00225D02*
X02135Y00045D01*
X00905Y01D02*
Y0113D01*
X00902Y00997D02*
X00905Y01D01*
X0173Y0119D02*
X0184Y0108D01*
X0197*
Y0103D02*
Y0108D01*
X01641Y02161D02*
D01*
X01639Y02162D02*
X01641Y02161D01*
X0131Y00735D02*
X0133Y00755D01*
X01112Y01984D02*
X0112Y01992D01*
X0085Y0123D02*
X00855Y01235D01*
X01314Y00894D02*
X0132Y00899D01*
X01336Y00868D02*
X0134Y00871D01*
G54D34*
X01431Y00809D02*
Y00825D01*
X01431Y00808D02*
X01431Y00809D01*
X0174Y0074D02*
Y0078D01*
X01735Y00735D02*
X0174Y0074D01*
X01735Y00735D02*
X0179D01*
X01795Y0074*
X01546Y0078D02*
X01563Y00763D01*
X0146Y0078D02*
X01546D01*
X01563Y00763D02*
X01601D01*
X01618Y0078D02*
X0174D01*
X01601Y00763D02*
X01618Y0078D01*
X01935Y0084D02*
Y00843D01*
X01923Y00828D02*
X01935Y0084D01*
X01885Y00732D02*
X01923Y0077D01*
Y00828*
X01885Y0069D02*
Y0072D01*
X0185Y0069D02*
X01885D01*
X01815D02*
X0185D01*
Y0072*
X01815Y0069D02*
Y0072D01*
X01536Y01908D02*
X0163Y01814D01*
X01685*
X0169Y0181*
X01815Y0072D02*
X0185D01*
X01885*
X01795Y0074D02*
X01815Y0072D01*
X01885D02*
Y00732D01*
X01431Y00808D02*
X0146Y0078D01*
G54D35*
X00275Y01855D02*
X0028Y0185D01*
X00295Y01865*
X00715Y0103D02*
Y01033D01*
X00713Y01035D02*
X00715Y01033D01*
X00656Y01035D02*
X00713D01*
X00645Y01046D02*
X00656Y01035D01*
X00295Y01865D02*
X00347D01*
X00645Y01046D02*
Y01566D01*
X00347Y01865D02*
X00645Y01566D01*
G54D36*
X0144Y00655D02*
Y00665D01*
X01315Y0053D02*
X0144Y00655D01*
X02085Y009D02*
X02285Y007D01*
Y0069D02*
Y007D01*
X01657Y02807D02*
X01671Y02821D01*
X0127Y02875D02*
X01337Y02807D01*
X01657*
X0219Y02815D02*
X02196Y02808D01*
X02183Y02821D02*
X0219Y02815D01*
X022Y0278D02*
Y0279D01*
X02205Y02795*
X02196Y02804D02*
X02205Y02795D01*
X02196Y02804D02*
Y02808D01*
X0214Y02821D02*
X02183D01*
X02105D02*
X0214D01*
X0207D02*
X02105D01*
X01671D02*
X0207D01*
X0126Y02875D02*
X0127D01*
X0123D02*
X0126D01*
X0114D02*
X0117D01*
X01065D02*
X0114D01*
X012D02*
X0123D01*
X0117D02*
X012D01*
X02315Y00585D02*
Y00615D01*
X02265Y0048D02*
X0227Y00485D01*
X0229Y0051D02*
Y0054D01*
X02315Y00495D02*
Y00525D01*
X0229Y0057D02*
Y006D01*
Y0054D02*
Y0057D01*
X02315Y00525D02*
Y00555D01*
Y00585*
X01115Y0053D02*
X01315D01*
X02085Y009D02*
X0217Y00985D01*
Y0137*
X0227Y00485D02*
X02275D01*
X02265Y0048D02*
X02275Y0047D01*
X02305*
X0229Y0051D02*
X02305Y00495D01*
Y0047D02*
Y00495D01*
G54D37*
X01586Y0288D02*
X0165D01*
X01675D02*
X0168Y02885D01*
X0154Y0288D02*
X01586D01*
X0165D02*
X01675D01*
G54D48*
X00155Y0294D03*
Y0272D03*
G54D50*
X01125Y0006D03*
X01246D03*
X01367D03*
X01488D03*
X0161D03*
G54D51*
X01125Y0026D03*
G54D52*
X00441Y00735D03*
Y00688D03*
Y00641D03*
Y00594D03*
X00488Y00735D03*
Y00688D03*
Y00641D03*
Y00594D03*
X00535Y00735D03*
Y00688D03*
Y00641D03*
Y00594D03*
X00582Y00735D03*
Y00688D03*
Y00641D03*
Y00594D03*
G54D53*
X01875Y0094D03*
X01023Y00879D03*
X00275Y01855D03*
X0045Y00887D03*
X00555Y0104D03*
X0129Y0099D03*
X01115Y0259D03*
X0112Y0217D03*
X01457Y00747D03*
X01431Y00825D03*
X01275Y0085D03*
X0132Y009D03*
X0122Y00975D03*
X01195Y0095D03*
X0094Y012D03*
X01005Y01465D03*
X0104Y0145D03*
X01315Y01455D03*
X00855Y0143D03*
X00785Y01415D03*
X01324Y01247D03*
X0166Y0144D03*
X01635Y01245D03*
X0108Y0099D03*
X0037Y0097D03*
X01665Y01355D03*
X00785Y0071D03*
X00885Y0095D03*
X01735Y00735D03*
X0158Y0082D03*
X0144Y00665D03*
X01665Y00225D03*
X02285Y0069D03*
X00285Y0226D03*
X00345Y02265D03*
X0034Y02325D03*
X00695Y0139D03*
X0088Y0115D03*
X00715Y0103D03*
X0073Y0106D03*
X00295Y0073D03*
X00385Y00555D03*
Y00595D03*
X0033Y0046D03*
X00095Y00395D03*
X00165Y0012D03*
X0082Y00285D03*
X01935Y00843D03*
X01775Y0081D03*
X01895Y00815D03*
X01885Y0069D03*
X0185D03*
X01815D03*
X02065Y01475D03*
X02005Y01425D03*
X01005Y01595D03*
X0134Y00875D03*
X01065Y0131D03*
X00965D03*
X0133Y01195D03*
X01265Y0121D03*
X0162Y0219D03*
X0166D03*
X01585Y0218D03*
X01536Y01908D03*
X0143Y019D03*
X01625Y0284D03*
X02055Y01785D03*
X022Y0278D03*
X0219Y02815D03*
X0214Y02821D03*
X0045Y01825D03*
X01586Y0288D03*
X0154D03*
X0162Y02887D03*
X0165Y0288D03*
X0207Y02821D03*
X02105D03*
X0126Y02875D03*
X0123D03*
X012D03*
X0117D03*
X0114D03*
X0156Y0214D03*
X02315Y00585D03*
Y00615D03*
X0148Y0127D03*
X0064Y00725D03*
X0069Y01155D03*
X01545Y0219D03*
X02045Y02775D03*
X0123Y019D03*
X0111Y02655D03*
X0177Y0161D03*
X02Y0185D03*
X00995Y00895D03*
X01585Y00425D03*
X0154D03*
X0053Y0088D03*
X02135Y00045D03*
X00905Y0113D03*
X00902Y00997D03*
X0197Y0108D03*
X0173Y0119D03*
X01555Y01265D03*
X01065Y02875D03*
X0168Y02885D03*
X00755Y00275D03*
X0169Y0181D03*
X01849Y01784D03*
X0036Y0015D03*
X0185Y0072D03*
X01115Y0053D03*
X01329Y01615D03*
X01534D03*
X01125Y01666D03*
Y01615D03*
X01176D03*
X01227D03*
X01278D03*
X01381D03*
X01432D03*
X01483D03*
X01585D03*
X01637D03*
X01176Y01666D03*
X01227D03*
X01278D03*
X01329D03*
X01381D03*
X01432D03*
X01483D03*
X01534D03*
X01585D03*
X01637D03*
X01125Y01717D03*
X01176D03*
X01227D03*
X01278D03*
X01329D03*
X01381D03*
X01432D03*
X01483D03*
X01534D03*
X01585D03*
X01637D03*
X01125Y01768D03*
X01176D03*
X01227D03*
X01278D03*
X01329D03*
X01381D03*
X01432D03*
X01483D03*
X01534D03*
X01585D03*
X01637D03*
X0052Y0193D03*
X01885Y0072D03*
X01815D03*
X01945Y01785D03*
X019D03*
X0229Y006D03*
X02315Y00495D03*
X0229Y0054D03*
Y0051D03*
X02315Y00525D03*
X0229Y0057D03*
X02315Y00555D03*
X00135Y00395D03*
X02085Y009D03*
X0217Y0137D03*
X02275Y00485D03*
X02305Y0047D03*
M02*