%FSTAX23Y23*%
%MOIN*%
%SFA1B1*%

%IPPOS*%
%ADD32C,0.011810*%
%ADD33C,0.009840*%
%ADD34C,0.019690*%
%ADD36C,0.027560*%
%ADD37C,0.039370*%
%ADD38C,0.118110*%
%ADD48C,0.196850*%
%ADD50R,0.059060X0.059060*%
%ADD51C,0.059060*%
%ADD52C,0.027170*%
%ADD53C,0.025000*%
%ADD54C,0.078740*%
%LNninja_3_2_pcb-1*%
%LPD*%
G36*
X02205Y03215D02*
X022Y03209D01*
X02194Y03197*
X0219Y03183*
X02188Y0317*
X0219Y03156*
X02194Y03142*
X022Y0313*
X02209Y03119*
X0222Y0311*
X02232Y03104*
X02246Y031*
X0226Y03098*
X02273Y031*
X02287Y03104*
X02299Y0311*
X0231Y03119*
X02317Y03128*
X02322Y03127*
Y02864*
X02317Y02863*
X02315Y02867*
X02308Y02876*
X02299Y02884*
X02288Y02889*
X02276Y02893*
X02265Y02894*
X02253Y02893*
X02241Y02889*
X0223Y02884*
X02221Y02876*
X02214Y02867*
X02208Y02856*
X02204Y02845*
X02204Y02843*
X02199Y02841*
X02196Y02844*
X02189Y02846*
X02183Y02847*
X0207*
X02063Y02846*
X02057Y02844*
X02051Y0284*
X02047Y02834*
X02045Y02828*
X02044Y02821*
X02045Y02815*
X02047Y02808*
X02051Y02803*
X02049Y02798*
X02045Y02799*
X02035Y02797*
X02027Y02792*
X02022Y02784*
X0202Y02775*
X02022Y02765*
X02027Y02757*
X02035Y02752*
X02045Y0275*
X02054Y02752*
X02062Y02757*
X02067Y02765*
X02069Y02775*
X02067Y02784*
X02062Y02791*
X02063Y02794*
X02065Y02796*
X0207Y02795*
X0217*
Y02783*
X02171Y02777*
X02173Y02771*
X02177Y02765*
X02181Y02761*
X02187Y02757*
X02193Y02755*
X022Y02754*
X02206Y02755*
X02212Y02757*
X02218Y02761*
X02222Y02767*
X02224Y02773*
X02225Y02779*
X02226Y0278*
X0223Y02782*
X0223Y02782*
X02241Y02776*
X02253Y02772*
X02265Y02771*
X02276Y02772*
X02288Y02776*
X02299Y02782*
X02308Y02789*
X02315Y02799*
X02317Y02802*
X02322Y02801*
Y02431*
X02317Y0243*
X02315Y02434*
X02308Y02443*
X02299Y0245*
X02288Y02456*
X02276Y0246*
X02265Y02461*
X02253Y0246*
X02241Y02456*
X0223Y0245*
X02221Y02443*
X02214Y02434*
X02208Y02423*
X02204Y02411*
X02203Y024*
X02204Y02388*
X02208Y02376*
X02214Y02365*
X02221Y02356*
X02228Y02351*
X02227Y02347*
X02227Y02345*
X02215Y02339*
X02204Y0233*
X02195Y02319*
X02189Y02307*
X02185Y02293*
X02183Y0228*
Y02206*
X02179Y02203*
X02175Y02204*
X02165Y02202*
X02158Y02198*
X01885*
X01878Y02196*
X01872Y02192*
X01701Y02022*
X01697Y02023*
X01677*
X0167Y02022*
X01664Y02018*
X0165Y02004*
X01648Y02001*
X01647Y02*
X01646Y02001*
X01645Y02008*
X01705Y02068*
X0171Y02075*
X01712Y02083*
X0171Y02092*
X01707Y02097*
Y02129*
X01707Y0213*
X01709Y0214*
X01707Y02149*
X01702Y02157*
X01694Y02162*
X01685Y02164*
X01675Y02162*
X01667Y02157*
X01662Y02149*
X0166Y0214*
X01662Y0213*
X01662Y02129*
Y02088*
X01663Y02088*
X01602Y02027*
X01599Y02025*
X01582Y02008*
X01578Y02002*
X01575Y02004*
X01566Y02006*
X01556Y02004*
X01548Y01999*
X01543Y01991*
X01542Y01986*
X01541Y01985*
X01537Y01985*
X01532Y01992*
X01524Y01997*
X01515Y01999*
X01505Y01997*
X01497Y01992*
X01495*
X01492Y01997*
X01484Y02002*
X01475Y02004*
X01465Y02002*
X01463Y02001*
X01459Y02004*
Y02015*
X01559Y02115*
X0156Y02115*
X01569Y02117*
X01577Y02122*
X01582Y0213*
X01584Y0214*
X01582Y02149*
X01581Y02152*
X01584Y02156*
X01585Y02155*
X01595Y02157*
X01603Y02163*
X01608Y02171*
X01608Y02172*
X01613Y02174*
X01613Y02174*
X0162Y02172*
X01626Y02174*
X01632Y02177*
X01632Y02178*
X01632Y02178*
X01638Y02178*
X01642Y02172*
X0165Y02167*
X0166Y02165*
X01669Y02167*
X01677Y02172*
X01682Y0218*
X01684Y0219*
X01682Y02199*
X01677Y02207*
X01669Y02212*
X0166Y02214*
X0165Y02212*
X01642Y02207*
X01642Y02206*
X01637Y02208*
Y02356*
X01636Y02358*
X01649Y02371*
X01653Y02377*
X01654Y02383*
Y02822*
X01653Y02828*
X01649Y02834*
X01641Y02842*
X01641Y02843*
X01645Y02848*
X01675*
X01683Y02849*
X0169Y02852*
X01697Y02857*
X01702Y02864*
X01705Y02871*
X01706Y0288*
X01705Y02888*
X01702Y02895*
X01698Y02901*
X01697Y02902*
X01696Y02903*
X0169Y02907*
X01683Y0291*
X01675Y02911*
X01645*
X01641Y02915*
X01633Y02918*
X01625Y02919*
X01594*
X01586Y02918*
X01578Y02915*
X01574Y02911*
X0152*
X01511Y0291*
X01504Y02907*
X01497Y02902*
X01491Y02896*
X01487Y02899*
X0149Y02905*
X01494Y02922*
X01495Y0294*
X01494Y02957*
X0149Y02974*
X01483Y0299*
X01474Y03005*
X01463Y03018*
X0145Y03029*
X01435Y03038*
X01419Y03045*
X01402Y03049*
X01385Y0305*
X01367Y03049*
X0135Y03045*
X01334Y03038*
X0132Y03029*
X01306Y03018*
X01295Y03005*
X01286Y0299*
X01279Y02974*
X01275Y02957*
X01274Y0294*
X01275Y02922*
X01279Y02905*
X01284Y02893*
X01282Y02889*
X01281Y02889*
X01278Y02893*
X01272Y02897*
X01266Y02899*
X0126Y029*
X01065*
X01058Y02899*
X01052Y02897*
X01046Y02893*
X01042Y02887*
X0104Y02881*
X01039Y02875*
X0104Y02868*
X01042Y02862*
X01046Y02856*
X01052Y02852*
X01058Y0285*
X01065Y02849*
X0126*
X01266Y0285*
X01272Y02852*
X01278Y02856*
X01282Y02862*
X01284Y02868*
X01285Y02875*
X01285Y0288*
X01284Y02881*
X01283Y02884*
X01284Y02885*
X01289Y02885*
X01295Y02875*
X01306Y02861*
X0132Y0285*
X01326Y02846*
X01325Y02841*
X0106*
X01051Y0284*
X01044Y02837*
X01037Y02832*
X00607Y02402*
X00602Y02395*
X00599Y02388*
X00598Y0238*
Y02319*
X00582Y02303*
X00577Y02296*
X00574Y02289*
X00573Y02281*
X00574Y02272*
X00577Y02265*
X00582Y02258*
X00589Y02253*
X00596Y0225*
X00605Y02249*
X00613Y0225*
X0062Y02253*
X00627Y02258*
X00638Y02269*
X00638Y02269*
X00645Y02272*
X00652Y02277*
X00657Y02284*
X0066Y02291*
X00661Y023*
Y02366*
X01073Y02778*
X0145*
X01458Y02779*
X01465Y02782*
X01472Y02787*
X01533Y02848*
X01586*
X01595Y02849*
X01602Y02852*
X01605Y02854*
X01608Y02853*
X0161Y02848*
X01609Y02846*
X01607Y0284*
Y02835*
X01609Y02828*
X01612Y02822*
X0162Y02815*
Y02647*
X01615Y02643*
X0161Y02644*
X016Y02642*
X01592Y02637*
X01587Y02629*
X01585Y0262*
X01587Y0261*
X01591Y02603*
Y0239*
X01592Y02387*
X01408Y02203*
X01404Y02197*
X01402Y02191*
Y02158*
X01403Y02153*
Y02036*
X01399Y02034*
X01237Y02197*
X01231Y022*
X01225Y02202*
X01218Y022*
X01214Y02198*
X01211Y02199*
X01209Y022*
X01209Y022*
X01207Y02209*
X01203Y02216*
Y0239*
X01202Y02392*
X0156Y0275*
X01569Y02752*
X01577Y02757*
X01582Y02765*
X01584Y02775*
X01582Y02784*
X01577Y02792*
X01569Y02797*
X0156Y02799*
X0155Y02797*
X01542Y02792*
X01537Y02784*
X01535Y02775*
X01178Y02419*
X01174Y02421*
Y02655*
X01177Y02657*
X01182Y02665*
X01184Y02675*
X01182Y02684*
X01177Y02692*
X01169Y02697*
X0116Y02699*
X0115Y02697*
X01142Y02692*
X01137Y02684*
X01135Y02675*
X01136Y02667*
X01131Y02665*
X01127Y02672*
X01119Y02677*
X0111Y02679*
X011Y02677*
X01092Y02672*
X01087Y02664*
X01085Y02655*
X01087Y02645*
X01092Y02637*
X011Y02632*
X0111Y0263*
X01119Y02632*
X01127Y02637*
X01132Y02645*
X01133Y02647*
X01138Y02646*
Y02608*
X01133Y02606*
X01132Y02607*
X01124Y02612*
X01115Y02614*
X01105Y02612*
X01097Y02607*
X01092Y02599*
X0109Y0259*
X01092Y0258*
X01097Y02572*
X01105Y02567*
X01115Y02565*
X01124Y02567*
X01132Y02572*
X01133Y02573*
X01138Y02571*
Y02193*
X01133Y0219*
X01129Y02192*
X0112Y02194*
X0111Y02192*
X01102Y02187*
X01097Y02179*
X01095Y0217*
X01097Y0216*
X01102Y02152*
X0111Y02147*
X0112Y02145*
X01129Y02147*
X01136Y02152*
X01141Y0215*
Y0213*
Y02066*
X01081Y02006*
X01073Y02004*
X01065Y01999*
X01059Y01991*
X01057Y01981*
X01059Y01972*
X01065Y01964*
X01073Y01958*
X01082Y01956*
X01092Y01958*
X011Y01964*
X01105Y01972*
X01107Y0198*
X01172Y02046*
X01176Y02051*
X01178Y02058*
Y02111*
X01195*
X01199Y02112*
X012Y02112*
X0121Y0211*
X01219Y02112*
X01227Y02117*
X01232Y02125*
X01234Y02135*
X01232Y02144*
X0123Y02148*
X01233Y02151*
X01377Y02007*
Y02002*
X01377Y02002*
X01374Y01997*
X01373Y01997*
X01364Y01999*
X01354Y01997*
X01352Y01996*
X0135Y01999*
X01342Y02004*
X01333Y02006*
X01323Y02004*
X01319Y02001*
X01312Y02002*
X01304Y02008*
X01294Y0201*
X01285Y02008*
X01277Y02002*
X01272Y01994*
X0127Y01985*
X01272Y01975*
X01277Y01968*
X01277Y01967*
X01275Y01963*
X01257*
X01252Y01966*
X01245Y01968*
X01238Y01966*
X01232Y01962*
X01225Y01955*
X01221Y01959*
X01222Y0196*
X01224Y0197*
X01222Y01979*
X01217Y01987*
X01209Y01992*
X012Y01994*
X0119Y01992*
X01182Y01987*
X01177Y01979*
X01175Y0197*
X01177Y0196*
X01182Y01952*
X0119Y01947*
X012Y01945*
X01209Y01947*
X0121Y01948*
X01214Y01944*
X01196Y01926*
X01186Y01924*
X01178Y01918*
X01173Y0191*
X01171Y01901*
X01173Y01891*
X01178Y01883*
X01186Y01878*
X01196Y01876*
X01205Y01878*
X01212Y01882*
X01212Y01882*
X0122Y01877*
X0123Y01875*
X01239Y01877*
X01241Y01878*
X01246Y01879*
X01252Y01882*
X01255Y01888*
X01257Y01895*
X01255Y01901*
X01253Y01904*
X01252Y01909*
X01247Y01917*
X01245Y01918*
X01244Y01923*
X01248Y01927*
X0125Y01926*
X01283*
X0129Y01922*
X013Y0192*
X01305Y01921*
X01308Y01916*
X01307Y01914*
X01305Y01905*
X01307Y01895*
X01312Y01887*
X0132Y01882*
X0133Y0188*
X01339Y01882*
X01346Y01886*
X01377*
X01401Y01862*
X01407Y01858*
X01414Y01857*
X01555*
X01562Y01858*
X01568Y01862*
X01636Y01931*
X0164Y01928*
X0164Y01925*
X01642Y01915*
X01647Y01907*
X01655Y01902*
X01665Y019*
X01674Y01902*
X01682Y01907*
X01687Y01914*
X0169Y01912*
X017Y0191*
X01709Y01912*
X01717Y01917*
X01722Y01925*
X01724Y01935*
X01722Y01944*
X01717Y01952*
X01709Y01957*
X017Y01959*
X0169Y01957*
X01682Y01952*
X01677Y01945*
X01674Y01947*
X01665Y01949*
X01661Y01949*
X01658Y01953*
X01676Y01971*
X0168Y01976*
X01681Y01983*
Y01983*
X01684Y01987*
X01689*
X0169Y01985*
X01696Y01982*
X01703Y0198*
X0171Y01982*
X01716Y01985*
X01892Y02161*
X02158*
X02165Y02157*
X02175Y02155*
X02179Y02156*
X02183Y02153*
Y01395*
X02182Y01394*
X02178Y01393*
X0217Y01394*
X0216Y01392*
X02152Y01387*
X02147Y01379*
X02145Y0137*
X02147Y0136*
X02152Y01352*
X0216Y01347*
X0217Y01345*
X02178Y01346*
X02182Y01345*
X02183Y01344*
Y00803*
X02183Y00803*
X02152Y00772*
X02143Y00761*
X02137Y00749*
X02133Y00735*
X02131Y00721*
Y00658*
X02133Y00644*
X02137Y0063*
X02143Y00618*
X02152Y00607*
X02198Y00561*
Y00474*
Y0027*
X022Y00256*
X02204Y00242*
X0221Y0023*
X02219Y00219*
X0223Y0021*
X02242Y00204*
X02256Y002*
X02269Y00198*
X02283Y002*
X02297Y00204*
X02309Y0021*
X02317Y00217*
X02322Y00215*
Y-00032*
X02317Y-00033*
X0231Y-00024*
X02299Y-00015*
X02287Y-00009*
X02273Y-00005*
X0226Y-00003*
X02246Y-00005*
X02232Y-00009*
X0222Y-00015*
X02209Y-00024*
X022Y-00035*
X02194Y-00047*
X0219Y-00061*
X02188Y-00075*
X0219Y-00088*
X02194Y-00102*
X022Y-00114*
X02205Y-0012*
X02203Y-00125*
X00121*
X00119Y-0012*
X00124Y-00114*
X0013Y-00102*
X00134Y-00088*
X00136Y-00075*
X00134Y-00061*
X0013Y-00047*
X00124Y-00035*
X00115Y-00024*
X00104Y-00015*
X00092Y-00009*
X00078Y-00005*
X00065Y-00003*
X00051Y-00005*
X00037Y-00009*
X00025Y-00015*
X00014Y-00024*
X00007Y-00033*
X00002Y-00032*
Y03127*
X00007Y03128*
X00014Y03119*
X00025Y0311*
X00037Y03104*
X00051Y031*
X00065Y03098*
X00078Y031*
X00092Y03104*
X00104Y0311*
X00115Y03119*
X00124Y0313*
X0013Y03142*
X00134Y03156*
X00136Y0317*
X00134Y03183*
X0013Y03197*
X00124Y03209*
X00119Y03215*
X00121Y0322*
X02203*
X02205Y03215*
G37*
%LNninja_3_2_pcb-2*%
%LPC*%
G36*
X02035Y0117D02*
X02028Y01169D01*
X02022Y01167*
X02016Y01163*
X02012Y01157*
X0201Y01151*
X02009Y01145*
X0201Y01138*
X02012Y01132*
X02016Y01126*
X02059Y01084*
Y00965*
X01954Y0086*
X01952Y0086*
X01944Y00866*
X01937Y00867*
X01935Y00872*
X01937Y00875*
X01944Y00877*
X01952Y00882*
X01957Y0089*
X01959Y009*
X01957Y00909*
X01952Y00917*
X01944Y00922*
X01935Y00924*
X01925Y00922*
X01921Y0092*
X01921Y0092*
X01914Y00915*
X01899Y009*
X01894Y00902*
X01892Y00909*
X01887Y00917*
X01879Y00922*
X0187Y00924*
X0186Y00922*
X01859Y00922*
X01779*
X0172Y0098*
X01713Y00985*
X01705Y00987*
X01635*
X01634Y00987*
X01625Y00989*
X01615Y00987*
X01607Y00982*
X01602Y00974*
X016Y00966*
X01558Y00925*
X01558Y00925*
X0155Y00927*
X01525*
X01524Y00927*
X01515Y00929*
X01505Y00927*
X01497Y00922*
X01492Y00914*
X01491Y00913*
X01429Y0085*
X01425Y00849*
X01418Y00847*
X01413Y00843*
X01406Y00836*
X01402Y00831*
X014Y00824*
X01399Y00818*
Y00733*
X014Y00727*
X01402Y00721*
X01406Y00715*
X01414Y00708*
Y00665*
X01415Y00658*
X01417Y00652*
X01421Y00646*
X01427Y00642*
X01433Y0064*
X0144Y00639*
X01446Y0064*
X01452Y00642*
X01458Y00646*
X01462Y00652*
X01464Y00658*
X01465Y00665*
Y00699*
X01467Y00701*
X01469Y00707*
X0147Y00713*
X01469Y0072*
X01468Y00725*
X01474Y00729*
X0148Y00737*
X01482Y00747*
X0148Y00756*
X01474Y00764*
X01466Y0077*
X01457Y00772*
X01454Y00771*
X0145Y00774*
Y00807*
X01454Y00812*
X01454Y00813*
X01523Y00881*
X01524Y00882*
X01525Y00882*
X0154*
X01544Y00879*
X01551Y00874*
X0156Y00872*
X01568Y00874*
X01575Y00879*
X01639Y00942*
X01695*
X01754Y00884*
X01761Y00879*
X0177Y00877*
X01859*
X0186Y00877*
X01867Y00875*
X01869Y0087*
X01803Y00805*
X01799Y00807*
X01799Y0081*
X01797Y00819*
X01792Y00827*
X01784Y00832*
X01775Y00834*
X01765Y00832*
X01757Y00827*
X01752Y00819*
X0175Y0081*
X01751Y00802*
X01748Y00797*
X01725*
X01716Y00795*
X01709Y0079*
X01681Y00763*
X0168Y00762*
X01672Y00757*
X01667Y00749*
X01665Y0074*
X01667Y0073*
X01672Y00722*
X0168Y00717*
X0169Y00715*
X01699Y00717*
X01707Y00722*
X01707Y00723*
X01713Y00722*
X01717Y00717*
X01725Y00712*
X01735Y0071*
X01744Y00712*
X01744Y00712*
X01791*
X01792Y00711*
X01792Y00709*
Y007*
X01792Y00699*
X0179Y0069*
X01792Y0068*
X01797Y00672*
X01805Y00667*
X01815Y00665*
X01824Y00667*
X01825Y00667*
X01839*
X0184Y00667*
X0185Y00665*
X01859Y00667*
X0186Y00667*
X01874*
X01875Y00667*
X01885Y00665*
X01894Y00667*
X01902Y00672*
X01907Y0068*
X01909Y0069*
X01907Y00699*
X01907Y007*
Y00709*
X01907Y00711*
X01909Y0072*
X01907Y0073*
X01902Y00738*
X01894Y00743*
X01885Y00745*
X01875Y00743*
X01874Y00742*
X0186*
X01859Y00743*
X0185Y00745*
X0184Y00743*
X01839Y00742*
X01825*
X01824Y00743*
X01823Y00743*
X01816Y00749*
X01815Y0075*
X01816Y00756*
X0182Y00759*
X01867Y00806*
X01872Y00804*
X01877Y00797*
X01885Y00792*
X01895Y0079*
X01904Y00792*
X01912Y00797*
X01918Y00805*
X0192Y00815*
X01919Y00818*
X01923Y00821*
X01925Y0082*
X01929Y00819*
X0193Y00818*
X01932Y00812*
X01936Y00806*
X01942Y00802*
X01948Y008*
X01955Y00799*
X01961Y008*
X01967Y00802*
X01973Y00806*
X02057Y0089*
X02062Y00889*
X02067Y00882*
X02075Y00877*
X02085Y00875*
X02094Y00877*
X02102Y00882*
X02107Y0089*
X02109Y009*
X02107Y00909*
X02102Y00917*
X02095Y00922*
X02094Y00927*
X02103Y00936*
X02107Y00942*
X02109Y00948*
X0211Y00955*
Y01095*
X02109Y01101*
X02107Y01107*
X02103Y01113*
X02053Y01163*
X02047Y01167*
X02041Y01169*
X02035Y0117*
G37*
G36*
X0045Y00912D02*
X0044Y0091D01*
X00432Y00905*
X00427Y00896*
X00425Y00887*
X00427Y00878*
X00432Y00869*
X0044Y00864*
X0045Y00862*
X00459Y00864*
X00467Y00869*
X00472Y00878*
X00474Y00887*
X00472Y00896*
X00467Y00905*
X00459Y0091*
X0045Y00912*
G37*
G36*
X0158Y00844D02*
X0157Y00842D01*
X01562Y00837*
X01557Y00829*
X01555Y0082*
X01557Y0081*
X01562Y00802*
X0157Y00797*
X0158Y00795*
X01589Y00797*
X01597Y00802*
X01602Y0081*
X01604Y0082*
X01602Y00829*
X01597Y00837*
X01589Y00842*
X0158Y00844*
G37*
G36*
X0032Y00914D02*
X0031Y00912D01*
X00302Y00907*
X00297Y00899*
X00295Y0089*
X00295Y00889*
X00276Y0087*
X0027*
X00263Y00869*
X00258Y00865*
X00244Y00851*
X0024Y00846*
X0024Y00844*
X00233Y00837*
X00227*
X0022Y00836*
X00215Y00832*
X00201Y00818*
X00197Y00813*
X00196Y00806*
Y00787*
X00197Y0078*
X00201Y00775*
X002Y00772*
X00199Y0077*
X00133*
X00127Y00769*
X00123Y00767*
X00118Y00769*
Y00787*
X00128Y00796*
X00129Y00797*
X00137Y00802*
X00142Y0081*
X00144Y0082*
X00142Y00829*
X00137Y00837*
X00129Y00842*
X0012Y00844*
X0011Y00842*
X00102Y00837*
X00097Y00829*
X00096Y00828*
X00081Y00812*
X00076Y00805*
X00074Y00796*
Y00719*
X00076Y0071*
X00081Y00703*
X00097Y00686*
X00105Y00681*
X00113Y0068*
X00133*
X00247Y00566*
X00252Y00563*
X00253Y00557*
X00167Y00472*
X00164Y00466*
X00162Y0046*
Y00404*
X00157Y00404*
X00157Y00404*
X00152Y00412*
X00144Y00417*
X00135Y00419*
X00125Y00417*
X00118Y00413*
X00115Y00412*
X00114*
X00111Y00413*
X00104Y00417*
X00095Y00419*
X00085Y00417*
X00077Y00412*
X00072Y00404*
X0007Y00395*
X00072Y00385*
X00077Y00377*
X00085Y00372*
X00095Y0037*
X00104Y00372*
X00111Y00376*
X00114Y00377*
X00115*
X00117Y00377*
X0012Y00374*
X00119Y00369*
X0011Y00367*
X00102Y00362*
X00097Y00354*
X00095Y00345*
X00097Y00335*
X00102Y00327*
X00102Y00327*
Y00235*
X00104Y00228*
X00107Y00222*
X00198Y00132*
X00197Y00129*
X00195Y0012*
X00197Y0011*
X00202Y00102*
X00202Y00102*
Y00065*
X00204Y00058*
X00207Y00052*
X00217Y00042*
X00223Y00039*
X0023Y00037*
X00236Y00039*
X00242Y00042*
X00242*
X00712*
X00712Y00042*
X0072Y00037*
X0073Y00035*
X00739Y00037*
X00747Y00042*
X00747Y00042*
X0076*
X0076*
X00766Y00039*
X00772Y00037*
X00775Y00038*
X00813Y0*
X00819Y-00003*
X00825Y-00004*
X00844*
X0085Y-00003*
X00856Y0*
X00874Y00017*
X00877Y00023*
X00879Y0003*
Y00417*
X00987*
X00987Y00417*
X00995Y00412*
X01005Y0041*
X01014Y00412*
X01022Y00417*
X01027Y00425*
X01029Y00435*
X01027Y00444*
X01022Y00452*
X01014Y00457*
X01005Y00459*
X00995Y00457*
X00987Y00452*
X00987Y00452*
X00877*
X00874Y00454*
X00868Y00458*
X00862Y00459*
X00855Y00458*
X0085Y00454*
X00846Y00449*
X00845Y00442*
Y003*
X0084Y00298*
X00837Y00302*
X00829Y00307*
X0082Y00309*
X0081Y00307*
X00802Y00302*
X008Y00299*
X00794Y00299*
X00793Y003*
Y0056*
X00799Y00562*
X00807Y00567*
X00812Y00575*
X00814Y00585*
X00812Y00594*
X00807Y00602*
X00799Y00607*
X0079Y00609*
X0078Y00607*
X0078Y00607*
X00775Y00606*
X00769Y00602*
X00762Y00595*
X00758Y00589*
X00756Y00582*
Y00302*
X00755Y003*
X00745Y00298*
X00737Y00293*
X00732Y00285*
X0073Y00275*
X00732Y00266*
X00737Y00258*
X00745Y00252*
X00755Y0025*
X00757Y00251*
X00761Y00248*
Y00105*
X00762Y00098*
X00766Y00092*
X00777Y00081*
X00775Y00076*
X00772Y00076*
X00767Y00077*
X00747*
X00747Y00077*
X00739Y00082*
X0073Y00084*
X0072Y00082*
X00712Y00077*
X00712Y00077*
X00237*
Y00102*
X00237Y00102*
X00242Y0011*
X00244Y0012*
X00242Y00129*
X00237Y00137*
X00236Y00138*
X00235Y00141*
X00232Y00147*
X00137Y00242*
Y00327*
X00137Y00327*
X0014Y00331*
X00142Y00332*
X00147Y00337*
X00167Y00357*
X0018*
X00186Y00359*
X00192Y00362*
X00195Y00368*
X00196Y00371*
X00201Y00375*
X00205Y00375*
X00214Y00377*
X00222Y00382*
X00227Y0039*
X00229Y004*
X00229Y00403*
X00283Y00457*
X00295*
X003Y00458*
X00305Y00455*
X00306Y00455*
X00307Y0045*
X00312Y00442*
X0032Y00437*
X0033Y00435*
X00339Y00437*
X00347Y00442*
X00352Y0045*
X00354Y0046*
X00353Y00467*
X00356Y00472*
X00605*
X0069Y00387*
X0069Y00385*
X00692Y00375*
X00697Y00367*
X00705Y00362*
X00715Y0036*
X00724Y00362*
X00732Y00367*
X00737Y00375*
X00739Y00385*
X00737Y00394*
X00736Y00396*
X00735Y00403*
X0073Y0041*
X0063Y0051*
X00623Y00515*
X00615Y00517*
X00568*
X00566Y00522*
X00567Y00523*
X00569Y00524*
X00576Y00522*
X00582Y00524*
X00588Y00527*
X00593Y00532*
X00617*
X00617Y00532*
X00625Y00527*
X00635Y00525*
X00644Y00527*
X00652Y00532*
X00657Y0054*
X00659Y0055*
X00657Y00559*
X00652Y00567*
X00644Y00572*
X00635Y00574*
X00625Y00572*
X00617Y00567*
X00617Y00567*
X00586*
X00579Y00565*
X00577Y00564*
X00566Y00574*
X00561Y00578*
X00554Y00579*
X00535*
X00531Y00578*
X00503*
X00499Y00579*
X00477*
X0047Y00578*
X00465Y00574*
X00439Y00548*
X00435Y00549*
X00432Y00552*
Y00759*
X00547*
X0055Y00757*
X0056Y00755*
X00569Y00757*
X00577Y00762*
X00577Y00762*
X00627*
X00627Y00762*
X00635Y00757*
X00645Y00755*
X00654Y00757*
X00662Y00762*
X00667Y0077*
X00669Y0078*
X00669Y00782*
X00672Y00786*
X00755*
X00757Y0078*
X00762Y00772*
X0077Y00767*
X0078Y00765*
X00789Y00767*
X00797Y00772*
X00802Y0078*
X00804Y0079*
X00802Y00799*
X00797Y00807*
X00789Y00812*
X0078Y00814*
X00779Y00814*
X00778Y00815*
X00773Y00819*
X00766Y0082*
X00501*
X00499Y00825*
X00529Y00855*
X0053Y00855*
X00539Y00857*
X00547Y00862*
X00552Y0087*
X00554Y0088*
X00552Y00889*
X00547Y00897*
X00539Y00902*
X0053Y00904*
X0052Y00902*
X00512Y00897*
X00507Y00889*
X00505Y0088*
X00505Y00879*
X00472Y00846*
X0047Y00847*
X00307*
X00305Y00851*
X00319Y00865*
X0032Y00865*
X00329Y00867*
X00337Y00872*
X00342Y0088*
X00344Y0089*
X00342Y00899*
X00337Y00907*
X00329Y00912*
X0032Y00914*
G37*
G36*
X0037Y00994D02*
X0036Y00992D01*
X00352Y00987*
X00347Y00979*
X00345Y0097*
X00347Y0096*
X00352Y00952*
X0036Y00947*
X0037Y00945*
X00379Y00947*
X00387Y00952*
X00392Y0096*
X00394Y0097*
X00392Y00979*
X00387Y00987*
X00379Y00992*
X0037Y00994*
G37*
G36*
X01805Y01185D02*
X01798Y01184D01*
X01792Y01182*
X01786Y01178*
X01782Y01172*
X0178Y01166*
X01779Y0116*
X0178Y01153*
X01782Y01147*
X01786Y01141*
X01841Y01086*
X01847Y01082*
X01853Y0108*
X0186Y01079*
X01866Y0108*
X01868Y0108*
X01874Y01082*
X01882Y01087*
X01887Y01095*
X01889Y01105*
X01887Y01114*
X01882Y01122*
X01874Y01127*
X01873Y01128*
X01823Y01178*
X01817Y01182*
X01811Y01184*
X01805Y01185*
G37*
G36*
X02005Y01449D02*
X01995Y01447D01*
X01987Y01442*
X01982Y01434*
X0198Y01425*
X01982Y01415*
X01987Y01407*
X01995Y01402*
X02005Y014*
X02014Y01402*
X02022Y01407*
X02027Y01415*
X02029Y01425*
X02027Y01434*
X02022Y01442*
X02014Y01447*
X02005Y01449*
G37*
G36*
X0073Y01084D02*
X0072Y01082D01*
X00712Y01077*
X00707Y01069*
X00705Y0106*
X00706Y01053*
X00705Y01052*
X00697Y01047*
X00692Y01039*
X0069Y0103*
X00692Y0102*
X00697Y01012*
X00705Y01007*
X00715Y01005*
X00724Y01007*
X00732Y01012*
X00737Y0102*
X00739Y0103*
X00738Y01036*
X00739Y01037*
X00747Y01042*
X00752Y0105*
X00754Y0106*
X00752Y01069*
X00747Y01077*
X00739Y01082*
X0073Y01084*
G37*
G36*
X00555Y01064D02*
X00545Y01062D01*
X00537Y01057*
X00532Y01049*
X0053Y0104*
X00532Y0103*
X00537Y01022*
X00545Y01017*
X00555Y01015*
X00564Y01017*
X00572Y01022*
X00577Y0103*
X00579Y0104*
X00577Y01049*
X00572Y01057*
X00564Y01062*
X00555Y01064*
G37*
G36*
X01125Y00201D02*
X01114Y002D01*
X01104Y00196*
X01095Y00189*
X01088Y0018*
X01084Y0017*
X01083Y0016*
X01084Y00149*
X01088Y00139*
X01095Y0013*
X01104Y00123*
X01114Y00119*
X01125Y00118*
X01135Y00119*
X01145Y00123*
X01154Y0013*
X01161Y00139*
X01165Y00149*
X01166Y0016*
X01165Y0017*
X01161Y0018*
X01154Y00189*
X01145Y00196*
X01135Y002*
X01125Y00201*
G37*
G36*
X01246D02*
X01235Y002D01*
X01225Y00196*
X01216Y00189*
X0121Y0018*
X01205Y0017*
X01204Y0016*
X01205Y00149*
X0121Y00139*
X01216Y0013*
X01225Y00123*
X01235Y00119*
X01246Y00118*
X01257Y00119*
X01267Y00123*
X01275Y0013*
X01282Y00139*
X01286Y00149*
X01287Y0016*
X01286Y0017*
X01282Y0018*
X01275Y00189*
X01267Y00196*
X01257Y002*
X01246Y00201*
G37*
G36*
X02135Y00069D02*
X02125Y00067D01*
X02117Y00062*
X02112Y00054*
X0211Y00045*
X02112Y00035*
X02117Y00027*
X02125Y00022*
X02135Y0002*
X02144Y00022*
X02152Y00027*
X02157Y00035*
X02159Y00045*
X02157Y00054*
X02152Y00062*
X02144Y00067*
X02135Y00069*
G37*
G36*
X00165Y00144D02*
X00155Y00142D01*
X00147Y00137*
X00142Y00129*
X0014Y0012*
X00142Y0011*
X00147Y00102*
X00155Y00097*
X00165Y00095*
X00174Y00097*
X00182Y00102*
X00187Y0011*
X00189Y0012*
X00187Y00129*
X00182Y00137*
X00174Y00142*
X00165Y00144*
G37*
G36*
X01367Y00201D02*
X01356Y002D01*
X01346Y00196*
X01338Y00189*
X01331Y0018*
X01327Y0017*
X01325Y0016*
X01327Y00149*
X01331Y00139*
X01338Y0013*
X01346Y00123*
X01356Y00119*
X01367Y00118*
X01378Y00119*
X01388Y00123*
X01396Y0013*
X01403Y00139*
X01407Y00149*
X01409Y0016*
X01407Y0017*
X01403Y0018*
X01396Y00189*
X01388Y00196*
X01378Y002*
X01367Y00201*
G37*
G36*
X0036Y00174D02*
X0035Y00172D01*
X00342Y00167*
X00337Y00159*
X00335Y0015*
X00337Y0014*
X00342Y00132*
X0035Y00127*
X0036Y00125*
X00369Y00127*
X00377Y00132*
X00382Y0014*
X00384Y0015*
X00382Y00159*
X00377Y00167*
X00369Y00172*
X0036Y00174*
G37*
G36*
X01585Y00449D02*
X01575Y00447D01*
X01567Y00442*
X01565Y00438*
X0156*
X01557Y00442*
X01549Y00447*
X0154Y00449*
X0153Y00447*
X01522Y00442*
X01517Y00434*
X01515Y00425*
X01517Y00415*
X01522Y00407*
X0153Y00402*
X0154Y004*
X01549Y00402*
X01557Y00407*
X0156Y00411*
X01565*
X01567Y00407*
X01575Y00402*
X01585Y004*
X01594Y00402*
X01602Y00407*
X01607Y00415*
X01609Y00425*
X01607Y00434*
X01602Y00442*
X01594Y00447*
X01585Y00449*
G37*
G36*
X01488Y00201D02*
X01477Y002D01*
X01467Y00196*
X01459Y00189*
X01452Y0018*
X01448Y0017*
X01447Y0016*
X01448Y00149*
X01452Y00139*
X01459Y0013*
X01467Y00123*
X01477Y00119*
X01488Y00118*
X01499Y00119*
X01509Y00123*
X01518Y0013*
X01524Y00139*
X01529Y00149*
X0153Y0016*
X01529Y0017*
X01524Y0018*
X01518Y00189*
X01509Y00196*
X01499Y002*
X01488Y00201*
G37*
G36*
X0161D02*
X01599Y002D01*
X01589Y00196*
X0158Y00189*
X01573Y0018*
X01569Y0017*
X01568Y0016*
X01569Y00149*
X01573Y00139*
X0158Y0013*
X01589Y00123*
X01599Y00119*
X0161Y00118*
X0162Y00119*
X0163Y00123*
X01639Y0013*
X01646Y00139*
X0165Y00149*
X01651Y0016*
X0165Y0017*
X01646Y0018*
X01639Y00189*
X0163Y00196*
X0162Y002*
X0161Y00201*
G37*
G36*
X02065Y01499D02*
X02055Y01497D01*
X02047Y01492*
X02042Y01484*
X0204Y01475*
X02042Y01465*
X02047Y01457*
X02055Y01452*
X02065Y0145*
X02074Y01452*
X02082Y01457*
X02087Y01465*
X02089Y01475*
X02087Y01484*
X02082Y01492*
X02074Y01497*
X02065Y01499*
G37*
G36*
X00345Y02289D02*
X00335Y02287D01*
X00327Y02282*
X00322Y02274*
X0032Y02265*
X00322Y02255*
X00327Y02247*
X00335Y02242*
X00345Y0224*
X00354Y02242*
X00362Y02247*
X00367Y02255*
X00369Y02265*
X00367Y02274*
X00362Y02282*
X00354Y02287*
X00345Y02289*
G37*
G36*
X0034Y02349D02*
X0033Y02347D01*
X00322Y02342*
X00317Y02334*
X00315Y02325*
X00317Y02315*
X00322Y02307*
X0033Y02302*
X0034Y023*
X00349Y02302*
X00357Y02307*
X00362Y02315*
X00364Y02325*
X00362Y02334*
X00357Y02342*
X00349Y02347*
X0034Y02349*
G37*
G36*
X00285Y02284D02*
X00275Y02282D01*
X00267Y02277*
X00262Y02269*
X0026Y0226*
X00262Y0225*
X00267Y02242*
X00275Y02237*
X00285Y02235*
X00294Y02237*
X00302Y02242*
X00307Y0225*
X00309Y0226*
X00307Y02269*
X00302Y02277*
X00294Y02282*
X00285Y02284*
G37*
G36*
X01022Y02006D02*
X01012Y02004D01*
X01004Y01999*
X00999Y01991*
X00997Y01981*
X00999Y01972*
X01004Y01964*
X01012Y01958*
X01022Y01956*
X01031Y01958*
X01039Y01964*
X01045Y01972*
X01047Y01981*
X01045Y01991*
X01039Y01999*
X01031Y02004*
X01022Y02006*
G37*
G36*
X01025Y02199D02*
X01015Y02197D01*
X01007Y02192*
X01002Y02184*
X01Y02175*
X01002Y02165*
X01007Y02157*
X01015Y02152*
X01025Y0215*
X01034Y02152*
X01042Y02157*
X01047Y02165*
X01049Y02175*
X01047Y02184*
X01042Y02192*
X01034Y02197*
X01025Y02199*
G37*
G36*
X01915Y0305D02*
X01897Y03049D01*
X0188Y03045*
X01864Y03038*
X0185Y03029*
X01836Y03018*
X01825Y03005*
X01816Y0299*
X01809Y02974*
X01805Y02957*
X01804Y0294*
X01805Y02922*
X01809Y02905*
X01816Y02889*
X01825Y02875*
X01836Y02861*
X0185Y0285*
X01864Y02841*
X0188Y02834*
X01897Y0283*
X01915Y02829*
X01932Y0283*
X01949Y02834*
X01965Y02841*
X0198Y0285*
X01993Y02861*
X02004Y02875*
X02013Y02889*
X0202Y02905*
X02024Y02922*
X02025Y0294*
X02024Y02957*
X0202Y02974*
X02013Y0299*
X02004Y03005*
X01993Y03018*
X0198Y03029*
X01965Y03038*
X01949Y03045*
X01932Y03049*
X01915Y0305*
G37*
G36*
X00555Y03079D02*
X00543Y03078D01*
X00531Y03074*
X0052Y03069*
X00511Y03061*
X00504Y03052*
X00498Y03041*
X00494Y0303*
X00493Y03018*
X00494Y03006*
X00498Y02994*
X00504Y02984*
X00511Y02974*
X0052Y02967*
X00531Y02961*
X00543Y02957*
X00555Y02956*
X00566Y02957*
X00578Y02961*
X00589Y02967*
X00598Y02974*
X00605Y02984*
X00611Y02994*
X00615Y03006*
X00616Y03018*
X00615Y0303*
X00611Y03041*
X00605Y03052*
X00598Y03061*
X00589Y03069*
X00578Y03074*
X00566Y03078*
X00555Y03079*
G37*
G36*
X0085Y0305D02*
X00832Y03049D01*
X00815Y03045*
X00799Y03038*
X00785Y03029*
X00771Y03018*
X0076Y03005*
X00751Y0299*
X00744Y02974*
X0074Y02957*
X00739Y0294*
X0074Y02922*
X00744Y02905*
X00751Y02889*
X0076Y02875*
X00771Y02861*
X00785Y0285*
X00799Y02841*
X00815Y02834*
X00832Y0283*
X0085Y02829*
X00867Y0283*
X00884Y02834*
X009Y02841*
X00915Y0285*
X00928Y02861*
X00939Y02875*
X00948Y02889*
X00955Y02905*
X00959Y02922*
X0096Y0294*
X00959Y02957*
X00955Y02974*
X00948Y0299*
X00939Y03005*
X00928Y03018*
X00915Y03029*
X009Y03038*
X00884Y03045*
X00867Y03049*
X0085Y0305*
G37*
G36*
X00555Y02646D02*
X00543Y02645D01*
X00531Y02641*
X0052Y02635*
X00511Y02628*
X00504Y02619*
X00498Y02608*
X00494Y02596*
X00493Y02585*
X00494Y02573*
X00498Y02561*
X00504Y0255*
X00511Y02541*
X0052Y02534*
X00531Y02528*
X00543Y02524*
X00555Y02523*
X00566Y02524*
X00578Y02528*
X00589Y02534*
X00598Y02541*
X00605Y0255*
X00611Y02561*
X00615Y02573*
X00616Y02585*
X00615Y02596*
X00611Y02608*
X00605Y02619*
X00598Y02628*
X00589Y02635*
X00578Y02641*
X00566Y02645*
X00555Y02646*
G37*
G36*
X0037Y0305D02*
X00352Y03049D01*
X00335Y03045*
X00319Y03038*
X00305Y03029*
X00291Y03018*
X0028Y03005*
X00271Y0299*
X00264Y02974*
X0026Y02957*
X00259Y0294*
X0026Y02922*
X00264Y02905*
X00271Y02889*
X0028Y02875*
X00291Y02861*
X00305Y0285*
X00319Y02841*
X00335Y02834*
X00345Y02832*
Y02827*
X00335Y02825*
X00319Y02818*
X00305Y02809*
X00291Y02798*
X0028Y02785*
X00271Y0277*
X00264Y02754*
X0026Y02737*
X00259Y0272*
X0026Y02702*
X00264Y02685*
X00271Y02669*
X0028Y02655*
X00291Y02641*
X00305Y0263*
X00319Y02621*
X00335Y02614*
X00352Y0261*
X0037Y02609*
X00387Y0261*
X00404Y02614*
X0042Y02621*
X00435Y0263*
X00448Y02641*
X00459Y02655*
X00468Y02669*
X00475Y02685*
X00479Y02702*
X0048Y0272*
X00479Y02737*
X00475Y02754*
X00468Y0277*
X00459Y02785*
X00448Y02798*
X00435Y02809*
X0042Y02818*
X00404Y02825*
X00394Y02827*
Y02832*
X00404Y02834*
X0042Y02841*
X00435Y0285*
X00448Y02861*
X00459Y02875*
X00468Y02889*
X00475Y02905*
X00479Y02922*
X0048Y0294*
X00479Y02957*
X00475Y02974*
X00468Y0299*
X00459Y03005*
X00448Y03018*
X00435Y03029*
X0042Y03038*
X00404Y03045*
X00387Y03049*
X0037Y0305*
G37*
G36*
X02055Y01809D02*
X02045Y01807D01*
X02037Y01802*
X02032Y01794*
X0203Y01785*
X02032Y01775*
X02037Y01767*
X02045Y01762*
X02055Y0176*
X02064Y01762*
X02072Y01767*
X02077Y01775*
X02079Y01785*
X02077Y01794*
X02072Y01802*
X02064Y01807*
X02055Y01809*
G37*
G36*
X0169Y01834D02*
X0168Y01832D01*
X01672Y01827*
X01667Y01819*
X01665Y0181*
X01667Y018*
X01672Y01792*
X0168Y01787*
X0169Y01785*
X01699Y01787*
X01707Y01792*
X01712Y018*
X01714Y0181*
X01712Y01819*
X01707Y01827*
X01699Y01832*
X0169Y01834*
G37*
G36*
X01005Y01619D02*
X00995Y01617D01*
X00987Y01612*
X00982Y01604*
X0098Y01595*
X00982Y01585*
X00987Y01577*
X00995Y01572*
X01005Y0157*
X01014Y01572*
X01022Y01577*
X01027Y01585*
X01029Y01595*
X01027Y01604*
X01022Y01612*
X01014Y01617*
X01005Y01619*
G37*
G36*
X0177Y01634D02*
X0176Y01632D01*
X01752Y01627*
X01747Y01619*
X01745Y0161*
X01747Y016*
X01752Y01592*
X0176Y01587*
X0177Y01585*
X01779Y01587*
X01787Y01592*
X01792Y016*
X01794Y0161*
X01792Y01619*
X01787Y01627*
X01779Y01632*
X0177Y01634*
G37*
G36*
X0031Y02069D02*
X003Y02067D01*
X00292Y02062*
X00287Y02054*
X00285Y02045*
X00287Y02035*
X00292Y02027*
X003Y02022*
X00301Y02021*
Y01927*
X00297Y01924*
X00295Y01924*
X00285Y01922*
X00277Y01917*
X00272Y01909*
X0027Y019*
X00272Y0189*
X00275Y01884*
X00275Y01883*
X00273Y01879*
X00265Y01877*
X00257Y01872*
X00252Y01864*
X0025Y01855*
X00252Y01845*
X00257Y01837*
X00265Y01832*
X00272Y0183*
Y01809*
X00273Y01802*
X00277Y01797*
X00672Y01402*
X00673Y01401*
X00672Y01399*
X0067Y0139*
X00672Y0138*
X00677Y01372*
X00685Y01367*
X00695Y01365*
X00704Y01367*
X00712Y01372*
X00717Y0138*
X00719Y0139*
X00719Y01393*
X00722Y01396*
X00768*
X00775Y01392*
X00785Y0139*
X00794Y01392*
X00802Y01397*
X00807Y01405*
X00809Y01415*
X00807Y01424*
X00802Y01432*
X008Y01433*
X00803Y01437*
X00811Y01436*
X00827*
X0083Y01432*
X0083Y0143*
X00832Y0142*
X00837Y01412*
X00837Y01408*
X00772Y01342*
X00768Y01336*
X00766Y0133*
Y00902*
X00768Y00895*
X00772Y00889*
X00854Y00807*
X0086Y00803*
X00867Y00801*
X01085*
X01087Y00796*
X01084Y00792*
X01082Y00786*
Y00727*
X01082Y00727*
X01077Y00719*
X01075Y0071*
X01077Y007*
X01082Y00692*
X0109Y00687*
X011Y00685*
X01109Y00687*
X01117Y00692*
X01122Y007*
X01124Y0071*
X01122Y00719*
X01117Y00727*
X01117Y00727*
Y00779*
X01137Y00799*
X01141Y00797*
Y00542*
X01136Y0054*
X01132Y00547*
X01124Y00552*
X01115Y00554*
X01105Y00552*
X01097Y00547*
X01092Y00539*
X0109Y0053*
X01092Y0052*
X01097Y00512*
X01105Y00507*
X01115Y00505*
X01124Y00507*
X01132Y00512*
X01136Y00519*
X01141Y00517*
Y00324*
X01137Y0032*
X01133Y00314*
X01131Y00307*
X01133Y003*
X01137Y00294*
X01184Y00247*
X0119Y00243*
X01197Y00241*
X01208*
X0121Y00239*
X01216Y0023*
X01225Y00223*
X01235Y00219*
X01246Y00218*
X01257Y00219*
X01267Y00223*
X01275Y0023*
X01282Y00239*
X01286Y00249*
X01287Y00259*
X0129Y00261*
X01292Y00262*
X01307Y00247*
X01313Y00243*
X0132Y00241*
X0133*
X01331Y00239*
X01338Y0023*
X01346Y00223*
X01356Y00219*
X01367Y00218*
X01378Y00219*
X01388Y00223*
X01396Y0023*
X01403Y00239*
X01407Y00249*
X01409Y0026*
X01407Y0027*
X01403Y0028*
X01396Y00289*
X01388Y00296*
X01378Y003*
X01367Y00301*
X01356Y003*
X01346Y00296*
X01338Y00289*
X01331Y0028*
X01331Y0028*
X01325Y00279*
X01208Y00397*
Y00508*
X01209Y00509*
X01213Y0051*
X01449Y00273*
X01448Y0027*
X01447Y0026*
X01448Y00249*
X01452Y00239*
X01459Y0023*
X01467Y00223*
X01477Y00219*
X01488Y00218*
X01499Y00219*
X01509Y00223*
X01518Y0023*
X01524Y00239*
X01529Y00249*
X0153Y0026*
X01529Y0027*
X01524Y0028*
X01518Y00289*
X01509Y00296*
X01499Y003*
X01488Y00301*
X01477Y003*
X01475Y00299*
X01243Y00531*
Y00845*
X01247Y00848*
X0125Y00847*
X01252Y00841*
X01257Y00833*
X01265Y00827*
X01267Y00827*
X01266Y00825*
Y00585*
X01268Y00578*
X01272Y00572*
X0157Y00273*
X01569Y0027*
X01568Y0026*
X01569Y00249*
X01573Y00239*
X0158Y0023*
X01589Y00223*
X01599Y00219*
X0161Y00218*
X0162Y00219*
X0163Y00223*
X01635Y00227*
X0164Y00225*
X01642Y00215*
X01647Y00207*
X01655Y00202*
X01665Y002*
X01674Y00202*
X01682Y00207*
X01687Y00215*
X01689Y00225*
X01687Y00234*
X01682Y00242*
X01674Y00247*
X01665Y00249*
X01655Y00247*
X01654Y00247*
X0165Y0025*
X01651Y0026*
X0165Y0027*
X01646Y0028*
X01639Y00289*
X0163Y00296*
X0162Y003*
X0161Y00301*
X01599Y003*
X01596Y00299*
X01303Y00592*
Y00818*
X01316Y00831*
X0132Y00837*
X01321Y00844*
Y00851*
X01326Y00854*
X0133Y00852*
X0134Y0085*
X01349Y00852*
X01357Y00857*
X01362Y00865*
X01364Y00875*
X01362Y00884*
X01357Y00892*
X01349Y00897*
X01344Y00898*
X01344Y009*
X01342Y00909*
X01337Y00917*
X01329Y00922*
X0132Y00924*
X0131Y00922*
X01302Y00917*
X01298Y0091*
X01292Y00909*
X01284Y00917*
Y00952*
X01289Y00954*
X01292Y00949*
X013Y00943*
X0131Y00941*
X01319Y00943*
X01327Y00949*
X01333Y00957*
X01335Y00966*
X01333Y00976*
X01327Y00984*
X01319Y00989*
X01315Y0099*
X01315Y0099*
X01313Y01*
X01308Y01008*
X013Y01013*
X0129Y01015*
X01288Y01014*
X01284Y01018*
Y01068*
X01296Y0108*
X01301Y01079*
X01302Y01077*
X01309Y01072*
X0131Y0107*
X01311Y01066*
X01306Y0106*
X01304Y0105*
X01306Y01041*
X01311Y01033*
X01319Y01027*
X01329Y01025*
X01338Y01027*
X01346Y01032*
X01759*
X01766Y01033*
X01772Y01037*
X01777Y01043*
X01781Y01049*
X01783Y01056*
Y01093*
X01787Y011*
X01789Y0111*
X01787Y01119*
X01782Y01127*
X01774Y01132*
X01765Y01134*
X01755Y01132*
X01747Y01127*
X01742Y01119*
X0174Y0111*
X01742Y011*
X01746Y01093*
Y01068*
X01424*
X01423Y0107*
X01422Y01073*
X01554Y01205*
X01555Y01205*
X01564Y01207*
X01572Y01212*
X01577Y0122*
X01579Y01226*
X01635*
X01641Y01228*
X01647Y01232*
X01651Y01238*
X01653Y01245*
X01651Y01251*
X01647Y01257*
X01641Y01261*
X01635Y01263*
X01582*
X01567Y01277*
X01561Y01281*
X01555Y01283*
X01508*
X01501Y01281*
X01501Y01281*
X01497Y01287*
X01495Y01288*
X01494Y01293*
X01572Y01371*
X01641*
X01643Y01366*
X01642Y01364*
X0164Y01355*
X01642Y01345*
X01647Y01337*
X01655Y01332*
X01665Y0133*
X01674Y01332*
X01682Y01337*
X01687Y01345*
X01689Y01355*
X01687Y01364*
X01686Y01366*
X01688Y01371*
X01929*
X0193Y01368*
X01935Y0136*
X01943Y01355*
X01952Y01353*
X01962Y01355*
X0197Y0136*
X01975Y01368*
X01977Y01378*
X01975Y01387*
X0197Y01395*
X01962Y014*
X01953Y01402*
X01948Y01406*
X01941Y01407*
X01564*
X01557Y01406*
X01552Y01402*
X01442Y01292*
X01438Y01287*
X01438Y01283*
X01393Y01239*
X01352*
X01348Y01244*
X01349Y01247*
X01347Y01256*
X01342Y01264*
Y01317*
X01444*
X01451Y01318*
X01457Y01322*
X01674Y01539*
X01678Y01545*
X01679Y01552*
Y01628*
X01815Y01765*
X01824Y01767*
X01829Y0177*
X01831Y01766*
X01839Y01761*
X01849Y01759*
X01858Y01761*
X01866Y01766*
X01871Y01774*
X01872Y01775*
X01876Y01775*
X01877Y01775*
X01882Y01767*
X0189Y01762*
X019Y0176*
X01909Y01762*
X01917Y01767*
X0192Y01771*
X01925*
X01927Y01767*
X01935Y01762*
X01945Y0176*
X01954Y01762*
X01962Y01767*
X01967Y01775*
X01969Y01785*
X01967Y01794*
X01962Y01802*
X01954Y01807*
X01945Y01809*
X01935Y01807*
X01927Y01802*
X01925Y01798*
X0192*
X01917Y01802*
X01909Y01807*
X019Y01809*
X0189Y01807*
X01882Y01802*
X01877Y01794*
X01876Y01793*
X01872Y01793*
X01871Y01793*
X01866Y01801*
X01858Y01806*
X01849Y01808*
X01839Y01806*
X01834Y01803*
X01832Y01807*
X01824Y01812*
X01815Y01814*
X01805Y01812*
X01797Y01807*
X01792Y01799*
X0179Y0179*
X01648Y01649*
X01644Y01643*
X01643Y01636*
Y01559*
X01543Y01459*
X01538Y01461*
X01537Y01464*
X01532Y01472*
X01524Y01477*
X01515Y01479*
X01513Y01479*
X01512Y01484*
X01506Y01492*
X01498Y01498*
X01489Y01499*
X01479Y01498*
X01471Y01492*
X01466Y01484*
X01464Y01475*
X01465Y01468*
X01461Y01464*
X0146Y01464*
X0145Y01462*
X01447Y0146*
X01442Y01463*
Y01477*
X01442Y01477*
X01447Y01485*
X01449Y01495*
X01447Y01504*
X01442Y01512*
X01434Y01517*
X01425Y01519*
X01415Y01517*
X01407Y01512*
X01402Y01504*
X014Y01495*
X01402Y01485*
X01407Y01477*
X01407Y01477*
Y01422*
X01402Y01417*
X01272*
X0127Y01421*
X01274Y01425*
X01275Y01425*
X01284Y01427*
X01292Y01432*
X01295Y01437*
X01297*
X01305Y01432*
X01315Y0143*
X01324Y01432*
X01326Y01433*
X01328Y01431*
X01336Y01426*
X01346Y01424*
X01355Y01426*
X01363Y01431*
X01368Y01439*
X0137Y01449*
X01368Y01458*
X01363Y01466*
X01358Y01469*
Y01513*
X01357Y0152*
X01353Y01525*
X01347Y01529*
X01341Y0153*
X01288*
X01288Y01531*
X01282Y01534*
X01276Y01536*
X01178*
X01171Y01534*
X01166Y01531*
X01158Y01523*
X0112*
X01108Y01536*
X01102Y01539*
X01096Y01541*
X01063*
X01057Y01539*
X01051Y01536*
X01005Y01489*
X01005Y01489*
X00995Y01487*
X00987Y01482*
X00982Y01474*
X0098Y01465*
X00982Y01455*
X00987Y01448*
X00985Y01443*
X00936*
X00933Y01448*
X00934Y01455*
X00932Y01464*
X00927Y01472*
X00919Y01477*
X0091Y01479*
X00909Y01479*
X00906Y0148*
X00823*
X00822Y01482*
X00814Y01487*
X00805Y01489*
X00795Y01487*
X00787Y01482*
X00782Y01474*
X0078Y01465*
X00782Y01455*
X00787Y01447*
X00794Y01443*
X00792Y01438*
X00785Y01439*
X00775Y01437*
X00768Y01433*
X00692*
X00329Y01796*
X0033Y01801*
X00332Y01802*
X00336Y01809*
X00338Y01809*
X00411Y01882*
X00496*
X00501Y01879*
X00509Y01877*
X00984*
X00985Y01877*
X00995Y01875*
X01004Y01877*
X01012Y01882*
X01017Y0189*
X01019Y019*
X01017Y01909*
X01012Y01917*
X01004Y01922*
X00995Y01924*
X00985Y01922*
X00984Y01922*
X00547*
X00543Y01925*
X00544Y0193*
X00542Y01939*
X00537Y01947*
X00529Y01952*
X0052Y01954*
X0051Y01952*
X00502Y01947*
X00497Y01939*
X00495Y0193*
X00492Y01927*
X00402*
X00393Y01925*
X00386Y0192*
X00349Y01883*
X00345Y01886*
X00345Y01888*
Y02031*
X00343Y0204*
X00338Y02047*
X00333Y02053*
X00332Y02054*
X00327Y02062*
X00319Y02067*
X0031Y02069*
G37*
G36*
X0114Y01989D02*
X0113Y01987D01*
X01122Y01982*
X01117Y01974*
X01115Y01965*
X01117Y01955*
X01122Y01947*
X0113Y01942*
X0114Y0194*
X01149Y01942*
X01157Y01947*
X01162Y01955*
X01164Y01965*
X01162Y01974*
X01157Y01982*
X01149Y01987*
X0114Y01989*
G37*
G36*
X0045Y01849D02*
X0044Y01847D01*
X00432Y01842*
X00427Y01834*
X00425Y01825*
X00427Y01815*
X00432Y01807*
X0044Y01802*
X0045Y018*
X00459Y01802*
X00467Y01807*
X00472Y01815*
X00474Y01825*
X00472Y01834*
X00467Y01842*
X00459Y01847*
X0045Y01849*
G37*
G36*
X02Y01874D02*
X0199Y01872D01*
X01982Y01867*
X01977Y01859*
X01975Y0185*
X01977Y0184*
X01982Y01832*
X0199Y01827*
X02Y01825*
X02009Y01827*
X02017Y01832*
X02022Y0184*
X02024Y0185*
X02022Y01859*
X02017Y01867*
X02009Y01872*
X02Y01874*
G37*
%LNninja_3_2_pcb-3*%
%LPD*%
G36*
X01134Y01321D02*
Y0129D01*
X01135Y01283*
X01139Y01278*
X01226Y01191*
Y01125*
X01221Y01123*
X01127Y01217*
X01121Y01221*
X01115Y01223*
X01108Y01221*
X01102Y01218*
X00956*
X00949Y01222*
X0094Y01224*
X0093Y01222*
X00922Y01217*
X00917Y01209*
X00915Y012*
X00917Y0119*
X00922Y01182*
X0093Y01177*
X0094Y01175*
X00949Y01177*
X00956Y01181*
X0111*
X01112Y01182*
X01201Y01092*
Y00991*
X01197Y00984*
X01195Y00975*
X0119Y00973*
X01185Y00972*
X01177Y00967*
X01172Y00959*
X0117Y0095*
X01172Y0094*
X01177Y00932*
X01185Y00927*
X01195Y00925*
X01204Y00927*
X01212Y00932*
X01217Y0094*
X01218Y00945*
X0122Y00946*
X01225Y00942*
Y00897*
X01221Y00894*
X0122Y00894*
X01213Y00893*
X01212Y00894*
X01207Y00902*
X01199Y00907*
X0119Y00909*
X0118Y00907*
X01172Y00902*
X01167Y00894*
X01166Y00893*
X0116Y00894*
X0115Y00892*
X01148Y00891*
X01145Y00896*
X01131Y0091*
X01126Y00914*
X01122Y00914*
X01076Y0096*
X01078Y00965*
X0108Y00965*
X01089Y00967*
X01097Y00972*
X01102Y0098*
X01104Y0099*
X01102Y00999*
X01097Y01007*
X01089Y01012*
X0108Y01014*
X0107Y01012*
X01062Y01007*
X01057Y00999*
X01055Y0099*
X01055Y00988*
X0105Y00986*
X01027Y01009*
X01022Y01013*
X01015Y01014*
X0092*
X00919Y01014*
X00911Y0102*
X00902Y01022*
X00892Y0102*
X00884Y01014*
X00879Y01006*
X00877Y00997*
X00879Y00987*
X00884Y00979*
X00892Y00974*
X00902Y00972*
X00911Y00974*
X00919Y00979*
X0092Y0098*
X01008*
X01095Y00893*
X01094Y00888*
X01092Y00887*
X01087*
X01079Y00892*
X0107Y00894*
X0106Y00892*
X01052Y00887*
X01051Y00885*
X01046Y00886*
X01046Y00888*
X0104Y00896*
X01032Y00902*
X01023Y00904*
X01018Y00903*
X01017Y00904*
X01012Y00912*
X01004Y00917*
X00995Y00919*
X00985Y00917*
X00977Y00912*
X00974Y00908*
X00971Y00904*
X00964Y00905*
X00945*
X00938Y00904*
X00933Y009*
X00904Y00871*
X00889*
X00839Y00921*
Y0127*
X00951*
X00955Y01269*
X01074*
X01081Y0127*
X01086Y01274*
X011Y01288*
X01104Y01293*
X01105Y01298*
X01129Y01323*
X01134Y01321*
G37*
%LNninja_3_2_pcb-4*%
%LPC*%
G36*
X00905Y01154D02*
X00895Y01152D01*
X00887Y01147*
X00882Y01139*
X0088Y0113*
X00882Y0112*
X00887Y01112*
X00895Y01107*
X00905Y01105*
X00914Y01107*
X00922Y01112*
X00927Y0112*
X00929Y0113*
X00927Y01139*
X00922Y01147*
X00914Y01152*
X00905Y01154*
G37*
%LNninja_3_2_pcb-5*%
%LPD*%
G54D32*
X0161Y0239D02*
Y0262D01*
Y0239D02*
X01615Y02385D01*
X01421Y02191D02*
X01615Y02385D01*
X00295Y019D02*
X00299Y01895D01*
X00685Y01415D02*
X00785D01*
X00299Y01844D02*
Y01895D01*
X0029Y01836D02*
X00299Y01844D01*
X0029Y01809D02*
Y01836D01*
Y01809D02*
X00685Y01415D01*
X01266Y00909D02*
Y01075D01*
Y00909D02*
X01303Y00872D01*
X01266Y01075D02*
X01305Y01114D01*
Y0115*
X01205Y02135D02*
X0121D01*
X01205Y02134D02*
X01205Y02135D01*
X01185Y022D02*
Y0239D01*
X01156Y02175D02*
Y02671D01*
Y02175D02*
X0116Y02171D01*
Y0213D02*
Y02171D01*
X01196Y019D02*
Y01901D01*
X0116Y0213D02*
X01195D01*
X0118Y02395D02*
X01185Y0239D01*
X01303Y00844D02*
Y00872D01*
X01285Y00825D02*
X01303Y00844D01*
X01285Y00585D02*
Y00825D01*
X01225Y00523D02*
Y00865D01*
X0122Y0087D02*
X01225Y00865D01*
X0122Y00975D02*
Y011D01*
X0119Y0039D02*
Y00885D01*
X0116Y00317D02*
Y0087D01*
X0111Y0082D02*
Y0087D01*
X0094Y012D02*
X0111D01*
X01115Y01205*
X01661Y01552D02*
Y01636D01*
X01325Y01335D02*
X01444D01*
X01661Y01552*
X00891Y01407D02*
X01087D01*
X00872Y01387D02*
X00891Y01407D01*
X00867Y01387D02*
X00872D01*
X00802Y01322D02*
X00867Y01387D01*
X00879Y01424D02*
X0088Y01425D01*
X00879Y01419D02*
Y01424D01*
X00865Y01405D02*
X00879Y01419D01*
X0086Y01405D02*
X00865D01*
X00785Y0133D02*
X0086Y01405D01*
X01075Y0148D02*
X0108Y01484D01*
X01075Y01449D02*
Y0148D01*
Y01449D02*
X0108Y01445D01*
Y01425D02*
Y01445D01*
X01097Y01457D02*
X011Y0146D01*
X01097Y01417D02*
Y01457D01*
X0088Y01425D02*
X0108D01*
X01087Y01407D02*
X01097Y01417D01*
X01295Y01265D02*
X013D01*
X01295Y01242D02*
Y01265D01*
X01324Y01247D02*
Y01326D01*
X01314Y01223D02*
X01334D01*
X01335Y01223*
X01339*
X01342Y01221*
X01401*
X01555Y01265D02*
X01575Y01245D01*
X01635*
X02245Y00275D02*
Y00427D01*
X0226Y00442*
X02248Y00453D02*
X0226Y00442D01*
X01564Y01389D02*
X01941D01*
X01759Y0105D02*
X01765Y01056D01*
Y0111*
X01661Y01636D02*
X01815Y0179D01*
X00775Y00582D02*
X00782Y0059D01*
X00785Y00585D02*
X0079D01*
X00779Y00105D02*
Y00285D01*
Y00105D02*
X00835Y0005D01*
X00775Y0029D02*
X00779Y00285D01*
X00775Y0029D02*
Y00582D01*
X01319Y0117D02*
X01415D01*
X01504Y01259*
X01455Y0128D02*
X01564Y01389D01*
X01941D02*
X01952Y01378D01*
X01455Y01275D02*
Y0128D01*
X01401Y01221D02*
X01455Y01275D01*
X01504Y0126D02*
X01508Y01265D01*
X01504Y01259D02*
Y0126D01*
X0119Y0039D02*
X0132Y0026D01*
X01329Y0105D02*
X01759D01*
X00955Y00837D02*
Y00865D01*
X01302Y01187D02*
Y01206D01*
X01295Y01242D02*
X01314Y01223D01*
X01302Y01187D02*
X01319Y0117D01*
X01265Y0121D02*
X01298D01*
X01196Y019D02*
X01196Y019D01*
X01294Y01985D02*
X013Y0198D01*
Y01945D02*
Y0198D01*
X0125Y01945D02*
X013D01*
X01245Y0195D02*
X0125Y01945D01*
X01385Y01905D02*
X01414Y01875D01*
X0133Y01905D02*
X01385D01*
X01663Y01983D02*
Y01991D01*
X01555Y01875D02*
X01663Y01983D01*
X01414Y01875D02*
X01555D01*
X01205Y0191D02*
X01245Y0195D01*
X01196Y019D02*
X01205Y01909D01*
Y0191*
X01885Y0218D02*
X02175D01*
X0226Y00484D02*
X02269Y00474D01*
X02248Y00453D02*
X02269Y00474D01*
X0115Y00307D02*
X0116Y00317D01*
X01421Y02158D02*
Y02191D01*
X01156Y02671D02*
X0116Y02675D01*
X0118Y02395D02*
X0156Y02775D01*
X01115Y01205D02*
X0122Y011D01*
X01322Y01328D02*
X01324Y01326D01*
X01298Y0121D02*
X01302Y01206D01*
X00867Y0082D02*
X0111D01*
X01508Y01265D02*
X01555D01*
X01663Y01991D02*
X01677Y02005D01*
X01285Y00585D02*
X0161Y0026D01*
X01322Y01333D02*
X01325Y01335D01*
X01322Y01333D02*
X01325Y0133D01*
X01322Y01328D02*
X01325Y0133D01*
X01225Y00523D02*
X01488Y0026D01*
X0132D02*
X01367D01*
X01197D02*
X01246D01*
X0115Y00307D02*
X01197Y0026D01*
X00785Y00902D02*
X00867Y0082D01*
X01703Y01998D02*
X01885Y0218D01*
X01703Y01998D02*
D01*
X01697Y02005D02*
X01703Y01998D01*
X00802Y0091D02*
Y01322D01*
X00785Y00902D02*
Y0133D01*
X00875Y00837D02*
X00955D01*
X00802Y0091D02*
X00875Y00837D01*
X01677Y02005D02*
X01697D01*
X0116Y02058D02*
Y0213D01*
X01082Y01981D02*
X0116Y02058D01*
X0226Y00484D02*
X0226Y00485D01*
X02275*
G54D33*
X01637Y02383D02*
Y02822D01*
X01615Y02361D02*
X01637Y02383D01*
X01625Y02835D02*
X01637Y02822D01*
X01288Y01486D02*
X01308D01*
X01287Y01485D02*
X01288Y01486D01*
X0056Y0078D02*
X00645D01*
X00556Y00776D02*
X0056Y0078D01*
X0029Y00803D02*
X00766D01*
X0028Y0083D02*
X0047D01*
X00227Y00773D02*
X00353D01*
X00356Y00777*
X00414*
X00133Y00753D02*
X00366D01*
X00283Y00853D02*
X0032Y0089D01*
X00415Y00776D02*
X00556D01*
X0132Y01095D02*
X0139D01*
X01395Y011*
X0141Y01085*
X01225Y02185D02*
X01395Y02015D01*
X01195Y02165D02*
X01205D01*
X01225Y02185*
X01242Y00882D02*
X0125Y00875D01*
X01255*
X01242Y00882D02*
Y00959D01*
X01243Y0096*
Y01198*
X01133Y00819D02*
Y00884D01*
X01423Y01368D02*
X0149Y01435D01*
X01444Y01429D02*
X01455Y0144D01*
X0146*
X01504Y01427D02*
X01506Y01429D01*
X01504Y01418D02*
Y01427D01*
X01481Y01395D02*
X01504Y01418D01*
X01472Y01395D02*
X01481D01*
X01429Y01352D02*
X01472Y01395D01*
X0149Y01435D02*
Y01479D01*
X01506Y01446D02*
X01515Y01455D01*
X01005Y01465D02*
X01063Y01524D01*
X01005Y01465D02*
Y01465D01*
X01044Y01482D02*
X0107Y01508D01*
X01044Y0147D02*
Y01482D01*
X01113Y01506D02*
X01165D01*
X01096Y01524D02*
X01113Y01506D01*
X01063Y01524D02*
X01096D01*
X01103Y01493D02*
X01106Y0149D01*
X01103Y01493D02*
Y01494D01*
X01089Y01508D02*
X01103Y01494D01*
X0107Y01508D02*
X01089D01*
X0104Y0145D02*
Y01465D01*
X01044Y0147*
X01341Y01453D02*
Y01513D01*
Y01453D02*
X01346Y01449D01*
X01425Y01421D02*
Y01495D01*
X01489Y01475D02*
Y01478D01*
X01485Y01475D02*
X01489D01*
X01444Y01411D02*
Y01429D01*
X01183Y01479D02*
X0126D01*
X01232Y0145D02*
X01235D01*
X01201Y0145D02*
X01204D01*
X01184Y01503D02*
X01269D01*
X01178Y01519D02*
X01276D01*
X0124Y01415D02*
X01275Y0145D01*
X01209Y01427D02*
X01214D01*
X01088Y01305D02*
X01209Y01427D01*
X01079Y01375D02*
X01183Y01479D01*
X01269Y01503D02*
X01287Y01485D01*
X01172Y0149D02*
X01184Y01503D01*
X01165Y01506D02*
X01178Y01519D01*
X01281Y01513D02*
X01341D01*
X01276Y01519D02*
X01281Y01513D01*
X01106Y0149D02*
X01172D01*
X01272Y01352D02*
X01429D01*
X01227Y01445D02*
X01232Y0145D01*
X01227Y0144D02*
Y01445D01*
X01214Y01427D02*
X01227Y0144D01*
X0121Y01305D02*
Y01355D01*
X01246Y0131D02*
Y01346D01*
X0128Y01315D02*
Y01344D01*
X01425Y01421D02*
X01428Y01418D01*
X0141Y014D02*
X01428Y01418D01*
X01416Y01384D02*
X01444Y01411D01*
X0032Y0089D02*
Y00896D01*
X00475Y00825D02*
X0053Y0088D01*
X00289Y00802D02*
X0029Y00803D01*
X00766D02*
X0078Y0079D01*
X00586Y0055D02*
X00635D01*
X00576Y0054D02*
X00586Y0055D01*
X0027Y00853D02*
X00283D01*
X00256Y00839D02*
X0027Y00853D01*
X00256Y00836D02*
Y00839D01*
X0024Y0082D02*
X00256Y00836D01*
X0047Y0083D02*
X00475Y00825D01*
X00414Y00777D02*
X00415Y00776D01*
X00213Y00787D02*
X00227Y00773D01*
X00213Y00787D02*
Y00806D01*
X00227Y0082*
X0024*
X00125Y00735D02*
Y00745D01*
X0029Y0057D02*
X00295D01*
X0018Y0046D02*
X0029Y0057D01*
X0044Y00525D02*
X00477Y00562D01*
X00499*
X00568Y00547D02*
X00576Y0054D01*
X00568Y00547D02*
Y00548D01*
X00554Y00562D02*
X00568Y00548D01*
X00535Y00562D02*
X00554D01*
X00534Y00561D02*
X00535Y00562D01*
X005Y00561D02*
X00534D01*
X00499Y00562D02*
X005Y00561D01*
X0012Y00235D02*
X0022Y00135D01*
X0012Y00235D02*
Y00345D01*
X0013*
X00135Y0035*
X0016Y00375*
X0022Y00065D02*
X0023Y00055D01*
X0022Y00065D02*
Y0012D01*
Y00135*
X00235Y0006D02*
X0073D01*
X0023Y00055D02*
X00235Y0006D01*
X0073D02*
X00767D01*
X00772Y00055*
X00777Y0006*
X0141Y01085D02*
X01555Y0123D01*
X011Y00786D02*
X01133Y00819D01*
X01119Y00898D02*
X01133Y00884D01*
X01114Y00898D02*
X01119D01*
X01015Y00997D02*
X01114Y00898D01*
X00902Y00997D02*
X01015D01*
X00911Y00854D02*
X00945Y00888D01*
X00881Y00854D02*
X00911D01*
X00945Y00888D02*
X00964D01*
X00978Y00874*
Y00855D02*
Y00874D01*
X00971Y00848D02*
X00978Y00855D01*
X00971Y00843D02*
Y00848D01*
Y00843D02*
X00978Y00836D01*
X01182Y01431D02*
X01201Y0145D01*
X00999Y01329D02*
X01014Y01344D01*
X00955Y01286D02*
X01074D01*
X01088Y013D02*
Y01305D01*
X01074Y01286D02*
X01088Y013D01*
X0103Y0131D02*
Y0136D01*
X00999Y0131D02*
Y01329D01*
X00954Y01287D02*
X00955Y01286D01*
X00822Y01287D02*
X00954D01*
X01225Y01415D02*
X0124D01*
X0122Y01411D02*
X01225Y01415D01*
X0122Y01411D02*
X0122D01*
X01151Y01342D02*
X0122Y01411D01*
X01231Y014D02*
X0141D01*
X01227Y01395D02*
X01231Y014D01*
X01227Y01395D02*
X01227D01*
X01175Y01343D02*
X01227Y01395D01*
X01238Y01384D02*
X01416D01*
X01234Y01379D02*
X01238Y01384D01*
X01234Y01379D02*
X01234D01*
X0121Y01355D02*
X01234Y01379D01*
X01014Y01344D02*
Y01366D01*
X01272Y01352D02*
X0128Y01344D01*
X01151Y0129D02*
Y01342D01*
Y0129D02*
X01243Y01198D01*
X01245Y01347D02*
X01246Y01346D01*
X01175Y0131D02*
Y01343D01*
X0162Y0219D02*
Y02356D01*
X01615Y02361D02*
X0162Y02356D01*
X01333Y01968D02*
Y01981D01*
X0133Y01965D02*
X01333Y01968D01*
X0133Y01965D02*
X01343Y01951D01*
X01373*
X01381Y01958D02*
X01421D01*
X01373Y01951D02*
X01381Y01958D01*
X01395Y01985D02*
Y02015D01*
X0144Y01952D02*
X0145Y01962D01*
X0144Y0194D02*
Y01952D01*
X01625Y02835D02*
Y0284D01*
X01489Y01478D02*
D01*
X01485Y01475D02*
D01*
X01485Y01475D02*
X01485Y01475D01*
X01489Y01478D02*
X0149Y01479D01*
X01506Y01429D02*
Y01446D01*
X01442Y02022D02*
X0156Y0214D01*
X011Y0071D02*
Y00786D01*
X0107Y00836D02*
Y0087D01*
X01421Y01958D02*
Y02158D01*
X01442Y01986D02*
Y02022D01*
Y01986D02*
X0145Y01978D01*
Y01962D02*
Y01978D01*
X0123Y019D02*
X01235D01*
X0027Y00802D02*
X0027Y00802D01*
X00242Y00802D02*
X0027D01*
X01171Y01431D02*
X01182D01*
X011Y0136D02*
X01171Y01431D01*
X00415Y0054D02*
Y00776D01*
X00236Y00796D02*
X00242Y00802D01*
X00862Y0003D02*
Y00442D01*
X00844Y00012D02*
X00862Y0003D01*
X00825Y00012D02*
X00844D01*
X00777Y0006D02*
X00825Y00012D01*
X00978Y00836D02*
X0107D01*
X01675Y0288D02*
X0168Y02885D01*
X01235Y019D02*
X0124Y01895D01*
X0103Y0136D02*
X011D01*
X00822Y00914D02*
X00881Y00854D01*
X00822Y00914D02*
Y01287D01*
X01014Y01366D02*
X01023Y01375D01*
X01079*
X00125Y00745D02*
X00133Y00753D01*
X0027Y00802D02*
X00289D01*
X00435Y00525D02*
X0044D01*
X00415Y0054D02*
X0043Y00525D01*
X00435*
X0087Y00435D02*
X01005D01*
X00862Y00442D02*
X0087Y00435D01*
X0016Y00375D02*
X0018D01*
Y0046*
X01245Y01347D02*
X01265Y01368D01*
X01423*
G54D34*
X00322Y01825D02*
Y01887D01*
Y01825D02*
X00402Y01905D01*
X01431Y00821D02*
X01515Y00905D01*
X01431Y00821D02*
Y00825D01*
X00811Y01458D02*
X00906D01*
X0091Y01455*
X00805Y01465D02*
X00811Y01458D01*
X00715Y00385D02*
Y00395D01*
X00615Y00495D02*
X00715Y00395D01*
X0155Y00905D02*
X0156Y00895D01*
X01515Y00905D02*
X0155D01*
X01705Y00965D02*
X0177Y009D01*
X01625Y0096D02*
Y00965D01*
X0156Y00895D02*
X01625Y0096D01*
Y00965D02*
X01705D01*
X00323Y01888D02*
Y02031D01*
X0031Y02045D02*
X00323Y02031D01*
X00322Y01887D02*
X00323Y01888D01*
X00096Y00796D02*
X0012Y0082D01*
X00096Y00719D02*
X00113Y00702D01*
X00096Y00719D02*
Y00796D01*
X00262Y00582D02*
X00279Y00598D01*
X00306*
X00323Y00581*
Y00558D02*
Y00581D01*
X00306Y00541D02*
X00323Y00558D01*
X003Y00541D02*
X00306D01*
X00295Y00536D02*
X003Y00541D01*
X00142Y00702D02*
X00262Y00582D01*
X00113Y00702D02*
X00142D01*
X00295Y0048D02*
Y00536D01*
X01805Y00775D02*
X0193Y009D01*
X01935*
X0177D02*
X0187D01*
X01885Y0069D02*
Y0072D01*
X0185Y0069D02*
X01885D01*
X01815D02*
X0185D01*
Y0072*
X01815Y0069D02*
Y0072D01*
X01685Y02088D02*
Y0214D01*
Y02088D02*
X0169Y02083D01*
X00509Y019D02*
X00995D01*
X00504Y01905D02*
X00509Y019D01*
X00402Y01905D02*
X00504D01*
X01616Y02009D02*
X0169Y02083D01*
X01615Y02009D02*
X01616D01*
X01598Y01993D02*
X01615Y02009D01*
X01598Y0197D02*
Y01993D01*
X01536Y01908D02*
X01598Y0197D01*
X00205Y004D02*
Y0041D01*
X00274Y0048*
X00295*
X0031Y00495D02*
X00615D01*
X00295Y0048D02*
X0031Y00495D01*
X01815Y0072D02*
X0185D01*
X01885*
X0174Y00734D02*
X01801D01*
X01815Y0072*
X01736Y00738D02*
X0174Y00734D01*
X0169Y0074D02*
X01725Y00775D01*
X01805*
G54D36*
X01425Y00733D02*
Y00818D01*
X01431Y00825*
X01425Y00733D02*
X01445Y00713D01*
X0144Y00665D02*
Y00708D01*
X01445Y00713*
X01955Y00825D02*
X02085Y00955D01*
X02105Y02821D02*
X0214D01*
X0207D02*
X02105D01*
X0123Y02875D02*
X0126D01*
X012D02*
X0123D01*
X0117D02*
X012D01*
X0114D02*
X0117D01*
X01065D02*
X0114D01*
X0214Y02821D02*
X02183D01*
X02196Y02783D02*
Y02808D01*
Y02783D02*
X022Y0278D01*
X02183Y02821D02*
X0219Y02815D01*
X02196Y02808*
X02085Y00955D02*
Y01095D01*
X02035Y01145D02*
X02085Y01095D01*
X01805Y0116D02*
X0186Y01105D01*
G54D37*
X01625Y02887D02*
X01633Y0288D01*
X0145Y0281D02*
X0152Y0288D01*
X0106Y0281D02*
X0145D01*
X0063Y0238D02*
X0106Y0281D01*
X01586Y0288D02*
X01594Y02887D01*
X00623Y023D02*
X0063D01*
X00605Y02281D02*
X00623Y023D01*
X0063D02*
Y0238D01*
X01633Y0288D02*
X0165D01*
X01675*
X01594Y02887D02*
X0162D01*
X01625*
X0152Y0288D02*
X0154D01*
X01586*
G54D38*
X02269Y0027D02*
Y00474D01*
Y00591*
X02203Y00658D02*
X02269Y00591D01*
X02203Y00658D02*
Y00721D01*
X02269Y00788*
X02255Y00803D02*
X02269Y00788D01*
X02255Y00803D02*
Y0228D01*
G54D48*
X00155Y0294D03*
Y0272D03*
G54D50*
X01125Y0006D03*
X01246D03*
X01367D03*
X01488D03*
X0161D03*
G54D51*
X01125Y0026D03*
X01246D03*
X01367D03*
X01488D03*
X0161D03*
G54D52*
X00441Y00735D03*
Y00688D03*
Y00641D03*
Y00594D03*
X00488Y00735D03*
Y00688D03*
Y00641D03*
Y00594D03*
X00535Y00735D03*
Y00688D03*
Y00641D03*
Y00594D03*
X00582Y00735D03*
Y00688D03*
Y00641D03*
Y00594D03*
G54D53*
X0161Y0262D03*
X01308Y01486D03*
X01875Y0094D03*
X0056Y0078D03*
X00315Y0182D03*
X00366Y00753D03*
X0132Y01095D03*
X0121Y02135D03*
X01185Y022D03*
X01195Y02165D03*
X01196Y01901D03*
X01431Y00825D03*
X01255Y00875D03*
X0122Y00975D03*
Y0087D03*
X0119Y00885D03*
X0116Y0087D03*
X0111D03*
X0094Y012D03*
X0146Y0144D03*
X01515Y01455D03*
X0091D03*
X01005Y01465D03*
X0104Y0145D03*
X01346Y01449D03*
X01425Y01495D03*
X01489Y01475D03*
X0126Y01479D03*
X01235Y0145D03*
X01204Y0145D03*
X01275Y0145D03*
X0108Y01484D03*
X011Y0146D03*
X00785Y01415D03*
X00805Y01465D03*
X0121Y01305D03*
X01246Y0131D03*
X0128Y01315D03*
X01295Y01265D03*
X01324Y01247D03*
X0166Y0144D03*
X01635Y01245D03*
X0032Y0089D03*
X02245Y00275D03*
X00785Y0071D03*
X0078Y0079D03*
X01765Y0111D03*
X01815Y0179D03*
X00715Y00385D03*
X0079Y00585D03*
X00635Y0055D03*
X00885Y0095D03*
X01515Y00905D03*
X01625Y00965D03*
X01735Y00735D03*
X0144Y00665D03*
X0031Y02045D03*
X0088Y0115D03*
X00645Y0078D03*
X0028Y0083D03*
X00125Y00735D03*
X00295Y0057D03*
X0012Y00345D03*
X0022Y0012D03*
X0073Y0006D03*
X00835Y0005D03*
X01955Y00825D03*
X01935Y009D03*
X0187D03*
X01885Y0069D03*
X0185D03*
X01815D03*
X01952Y01378D03*
X01329Y0105D03*
X00955Y00865D03*
X0103Y0131D03*
X00999D03*
X01265Y0121D03*
X01305Y0115D03*
X01175Y0131D03*
X01685Y0214D03*
X0162Y0219D03*
X00995Y019D03*
X013Y01945D03*
X01333Y01981D03*
X0133Y01905D03*
X01294Y01985D03*
X01395Y01985D03*
X0144Y0194D03*
X01536Y01908D03*
X01625Y0284D03*
X022Y0278D03*
X0219Y02815D03*
X0214Y02821D03*
X02175Y0218D03*
X01586Y0288D03*
X0154D03*
X0162Y02887D03*
X0165Y0288D03*
X00605Y02281D03*
X00635Y02365D03*
Y0233D03*
X0207Y02821D03*
X02105D03*
X0126Y02875D03*
X0123D03*
X012D03*
X0117D03*
X0114D03*
X0156Y0214D03*
X02315Y00585D03*
Y00615D03*
X0064Y00725D03*
X0069Y01155D03*
X01865Y01105D03*
X01805Y0116D03*
X0107Y0087D03*
X011Y0071D03*
X0123Y019D03*
X0116Y02675D03*
X0156Y02775D03*
X00295Y019D03*
X0053Y0088D03*
X00902Y00997D03*
X0197Y0108D03*
X0173Y0119D03*
X0063Y023D03*
X01555Y01265D03*
X01065Y02875D03*
X0168Y02885D03*
X00236Y00796D03*
X01555Y0123D03*
X0012Y0082D03*
X02035Y01145D03*
X0185Y0072D03*
X01329Y01615D03*
X01534D03*
X01125Y01666D03*
Y01615D03*
X01176D03*
X01227D03*
X01278D03*
X01381D03*
X01432D03*
X01483D03*
X01585D03*
X01637D03*
X01176Y01666D03*
X01227D03*
X01278D03*
X01329D03*
X01381D03*
X01432D03*
X01483D03*
X01534D03*
X01585D03*
X01637D03*
X01125Y01717D03*
X01176D03*
X01227D03*
X01278D03*
X01329D03*
X01381D03*
X01432D03*
X01483D03*
X01534D03*
X01585D03*
X01637D03*
X01125Y01768D03*
X01176D03*
X01227D03*
X01278D03*
X01329D03*
X01381D03*
X01432D03*
X01483D03*
X01534D03*
X01585D03*
X01637D03*
X00435Y00525D03*
X01082Y01981D03*
X01885Y0072D03*
X01815D03*
X0169Y0074D03*
X0229Y006D03*
X02315Y00495D03*
X0229Y0054D03*
Y0051D03*
X02315Y00525D03*
X0229Y0057D03*
X02315Y00555D03*
X01005Y00435D03*
X00205Y004D03*
X02275Y00485D03*
X02305Y0047D03*
G54D54*
X02255Y0228D03*
M02*