%FSTAX23Y23*%
%MOIN*%
%SFA1B1*%

%IPPOS*%
%ADD10R,0.039370X0.043310*%
%ADD11R,0.043310X0.039370*%
%ADD13R,0.102360X0.074800*%
%ADD17R,0.137800X0.098430*%
%ADD18R,0.039370X0.078740*%
%ADD23R,0.059060X0.051180*%
%ADD24R,0.074800X0.106300*%
%ADD30R,0.029530X0.089960*%
%ADD31R,0.391540X0.354920*%
%ADD55R,0.177160X0.177160*%
%ADD56O,0.025590X0.009840*%
%ADD57O,0.009840X0.025590*%
%ADD58R,0.106300X0.074800*%
%ADD59R,0.344490X0.204720*%
%ADD60O,0.027560X0.098430*%
%ADD61C,0.024800*%
%ADD62R,0.196850X0.078740*%
%ADD63R,0.125980X0.037400*%
%ADD64O,0.098430X0.027560*%
%ADD66R,0.011810X0.061020*%
%ADD67R,0.078740X0.078740*%
%ADD114R,0.250000X0.142130*%
%LNninja_3_2_pcb-1*%
%LPD*%
G54D10*
X0212Y02295D03*
Y02228D03*
X0218Y02225D03*
Y02291D03*
X01655Y0247D03*
Y02403D03*
Y02265D03*
Y02331D03*
X01125Y02403D03*
Y0247D03*
Y02265D03*
Y02331D03*
X0042Y00925D03*
Y00991D03*
X0048D03*
Y00925D03*
X0083Y0073D03*
Y00796D03*
X00455Y0026D03*
Y00193D03*
X0089Y00795D03*
Y00728D03*
X0095Y00795D03*
Y00728D03*
X01725Y016D03*
Y01533D03*
X01555Y0134D03*
Y01406D03*
X0147Y00855D03*
Y00788D03*
X0154Y00855D03*
Y00788D03*
X01735Y0086D03*
Y00793D03*
X01495Y0134D03*
Y01406D03*
X015Y0092D03*
Y00986D03*
X0158Y0092D03*
Y00986D03*
X01665Y0092D03*
Y00986D03*
X0229Y00425D03*
Y00358D03*
X0058Y0092D03*
Y00986D03*
X00155Y00875D03*
Y00941D03*
X00045Y0031D03*
Y00376D03*
X00655Y00915D03*
Y00981D03*
X0074Y00495D03*
Y00428D03*
X00725Y00835D03*
Y00901D03*
X00645Y00105D03*
Y00038D03*
X00265Y00115D03*
Y00048D03*
X0096Y00279D03*
Y00212D03*
X01045Y0159D03*
Y01523D03*
X0136Y008D03*
Y00733D03*
X0074Y0138D03*
Y01446D03*
X00595Y01375D03*
Y01441D03*
X0227Y0082D03*
Y00886D03*
X0138Y0131D03*
Y01243D03*
X0203Y0138D03*
Y01313D03*
G54D11*
X00285Y0089D03*
X00218D03*
X00095Y0078D03*
X00161D03*
X00178Y00294D03*
X00111D03*
X00175Y00235D03*
X00108D03*
Y00175D03*
X00175D03*
X00975Y0054D03*
X01041D03*
X00975Y0048D03*
X01041D03*
X0171Y01315D03*
X01776D03*
X01845D03*
X01911D03*
X01708Y01385D03*
X01775D03*
X0125Y01365D03*
X01183D03*
X02215Y00095D03*
X02148D03*
X0194D03*
X02006D03*
X0041Y00355D03*
X00343D03*
X00815Y00124D03*
X00881D03*
X01085Y01205D03*
X01151D03*
X01675Y01255D03*
X01741D03*
X0133Y01375D03*
X01396D03*
X01775Y01445D03*
X01708D03*
X01906Y01385D03*
X0184D03*
X0105Y01365D03*
X01116D03*
X02185Y00775D03*
X02118D03*
X01365Y0095D03*
X01431D03*
X01895Y0145D03*
X01961D03*
G54D13*
X00855Y00369D03*
Y002D03*
G54D17*
X01924Y01194D03*
G54D18*
X02015Y0095D03*
X01924D03*
X01833D03*
G54D23*
X015Y01065D03*
Y0114D03*
X01582Y01065D03*
Y0114D03*
X01665Y01065D03*
Y0114D03*
X00655Y00175D03*
Y00249D03*
X00255Y00181D03*
Y00256D03*
G54D24*
X01741Y02955D03*
X0156D03*
X00371Y01795D03*
X0019D03*
X01023Y02975D03*
X01205D03*
X01839Y00805D03*
X0202D03*
X01573Y0066D03*
X01755D03*
X02126Y00665D03*
X01945D03*
G54D30*
X0101Y02265D03*
X0096D03*
X0091D03*
X0081D03*
X0076D03*
X0071D03*
X01537D03*
X01487D03*
X01437D03*
X01337D03*
X01287D03*
X01237D03*
X02065D03*
X02015D03*
X01965D03*
X01865D03*
X01815D03*
X01765D03*
G54D31*
X0086Y02576D03*
X01387D03*
X01915D03*
G54D55*
X00512Y00665D03*
G54D56*
X00688Y00517D03*
Y00537D03*
Y00556D03*
Y00576D03*
Y00596D03*
Y00615D03*
Y00635D03*
Y00655D03*
Y00674D03*
Y00694D03*
Y00714D03*
Y00733D03*
Y00753D03*
Y00773D03*
Y00792D03*
Y00812D03*
X00335D03*
Y00792D03*
Y00773D03*
Y00753D03*
Y00733D03*
Y00714D03*
Y00694D03*
Y00674D03*
Y00655D03*
Y00635D03*
Y00615D03*
Y00596D03*
Y00576D03*
Y00556D03*
Y00537D03*
Y00517D03*
G54D57*
X00659Y00841D03*
X00639D03*
X0062D03*
X006D03*
X0058D03*
X00561D03*
X00541D03*
X00521D03*
X00502D03*
X00482D03*
X00462D03*
X00443D03*
X00423D03*
X00403D03*
X00384D03*
X00364D03*
Y00488D03*
X00384D03*
X00403D03*
X00423D03*
X00443D03*
X00462D03*
X00482D03*
X00502D03*
X00521D03*
X00541D03*
X00561D03*
X0058D03*
X006D03*
X0062D03*
X00639D03*
X00659D03*
G54D58*
X00535Y02281D03*
Y021D03*
X0055Y00241D03*
Y0006D03*
X0036Y00244D03*
Y00063D03*
X02125Y01166D03*
Y00985D03*
X02275Y02021D03*
Y0184D03*
X00535Y01813D03*
Y01995D03*
X01585Y00365D03*
Y00546D03*
G54D59*
X00812Y02025D03*
Y016D03*
X01964Y02025D03*
Y016D03*
G54D60*
X0005Y00661D03*
X001D03*
X0015D03*
X002D03*
X0005Y00468D03*
X001D03*
X0015D03*
X002D03*
G54D61*
X01705Y00331D03*
Y00281D03*
Y00231D03*
Y00181D03*
Y00531D03*
X01755D03*
X01805D03*
X01855D03*
X01905D03*
X01955D03*
X02005D03*
X02105D03*
X02155D03*
X02205D03*
Y00481D03*
X02155D03*
X02105D03*
X02005D03*
X01955D03*
X01905D03*
X01855D03*
X01805D03*
X01755D03*
X01705D03*
X02205Y00431D03*
X02155D03*
X02105D03*
X02005D03*
X01955D03*
X01905D03*
X01855D03*
X01805D03*
X01755D03*
X01705D03*
X02005Y00381D03*
X01955D03*
X01905D03*
X01855D03*
X01805D03*
X01755D03*
X01705D03*
X02205Y00331D03*
X02155D03*
X02105D03*
X02055D03*
X02005D03*
X01955D03*
X01905D03*
X01855D03*
X01805D03*
X01755D03*
X02205Y00281D03*
X02155D03*
X02105D03*
X02055D03*
X02005D03*
X01955D03*
X01905D03*
X01855D03*
X01805D03*
X01755D03*
X02205Y00231D03*
X02155D03*
X02105D03*
X02055D03*
X02005D03*
X01955D03*
X01905D03*
X01855D03*
X01805D03*
X01755D03*
X02205Y00181D03*
X02155D03*
X02105D03*
X02055D03*
X02005D03*
X01955D03*
X01905D03*
X01855D03*
X01805D03*
X01755D03*
G54D62*
X02185Y0144D03*
Y013D03*
X0033Y02545D03*
Y02405D03*
G54D63*
X00086Y02085D03*
X0039D03*
X00081Y01385D03*
X00385D03*
G54D64*
X01236Y00785D03*
Y00735D03*
Y00685D03*
Y00635D03*
X01043Y00785D03*
Y00735D03*
Y00685D03*
Y00635D03*
G54D66*
X01645Y0184D03*
X01625D03*
X01605D03*
X01585D03*
X01566D03*
X01546D03*
X01526D03*
X01507D03*
X01487D03*
X01467D03*
X01448D03*
X01428D03*
X01408D03*
X01389D03*
X01369D03*
X01349D03*
X0133D03*
X0131D03*
X0129D03*
X0127D03*
X01251D03*
X01231D03*
X01211D03*
X01192D03*
X01172D03*
X01152D03*
X01133Y0184D03*
X01113Y0184D03*
Y01545D03*
X01133D03*
X01152D03*
X01172D03*
X01192D03*
X01211D03*
X01231D03*
X01251D03*
X0127D03*
X0129D03*
X0131D03*
X0133D03*
X01349D03*
X01369D03*
X01389D03*
X01408D03*
X01428D03*
X01448D03*
X01467D03*
X01487D03*
X01507D03*
X01526D03*
X01546D03*
X01566D03*
X01585D03*
X01605D03*
X01625D03*
X01645D03*
G54D67*
X02205Y0155D03*
Y01745D03*
G54D114*
X01379Y01692D03*
M02*