G04 Layer_Physical_Order=2*
G04 Layer_Color=36540*
%FSLAX25Y25*%
%MOIN*%
G70*
G01*
G75*
%ADD45C,0.00984*%
%ADD47C,0.01181*%
%ADD49C,0.01969*%
%ADD50C,0.02756*%
%ADD52C,0.14961*%
%ADD64C,0.15000*%
%ADD65R,0.05906X0.05906*%
%ADD68C,0.01800*%
%ADD69C,0.05000*%
%ADD70C,0.02200*%
%ADD71C,0.02598*%
%ADD73C,0.02100*%
%ADD74C,0.02500*%
%ADD76C,0.02000*%
%ADD77C,0.03000*%
%ADD78C,0.08000*%
G36*
X157362Y177660D02*
X157462Y177673D01*
X158022Y177905D01*
X158277Y178101D01*
X160172D01*
X160427Y177905D01*
X160687Y177797D01*
X160809Y177211D01*
X150884Y167286D01*
X143375Y174795D01*
Y175554D01*
X144678Y176857D01*
X144875Y177152D01*
X144944Y177500D01*
Y178561D01*
X145271Y178698D01*
X145444Y178703D01*
X145774Y178274D01*
X146254Y177905D01*
X146813Y177673D01*
X146913Y177660D01*
Y179913D01*
X147913D01*
Y177660D01*
X148014Y177673D01*
X148573Y177905D01*
X148828Y178101D01*
X150723D01*
X150978Y177905D01*
X151538Y177673D01*
X151638Y177660D01*
Y179913D01*
X152638D01*
Y177660D01*
X152738Y177673D01*
X153297Y177905D01*
X153552Y178101D01*
X155448D01*
X155703Y177905D01*
X156262Y177673D01*
X156362Y177660D01*
Y179913D01*
X157362D01*
Y177660D01*
D02*
G37*
G36*
X177187Y181749D02*
Y179538D01*
X176558Y178909D01*
X176535Y178891D01*
X175953Y178913D01*
X175937Y178937D01*
X175507Y179225D01*
X175000Y179325D01*
X174493Y179225D01*
X174063Y178937D01*
X174044Y178910D01*
X174000D01*
X173652Y178840D01*
X173357Y178643D01*
X173160Y178348D01*
X173090Y178000D01*
Y156461D01*
X171183Y154553D01*
X170539Y154617D01*
X170370Y154870D01*
X169910Y155177D01*
Y180000D01*
X169840Y180348D01*
X169643Y180643D01*
X169329Y180957D01*
X169338Y181000D01*
X168000D01*
Y179245D01*
X168090Y179170D01*
Y155177D01*
X167630Y154870D01*
X167210Y154241D01*
X167129Y153831D01*
X166586Y153666D01*
X165609Y154643D01*
X165314Y154840D01*
X164966Y154910D01*
X161071D01*
X160723Y154840D01*
X160348Y154939D01*
X160207Y154998D01*
X159937Y155401D01*
X159507Y155688D01*
X159000Y155789D01*
X158493Y155688D01*
X158063Y155401D01*
X157818Y155035D01*
X157775Y154971D01*
X157277Y154840D01*
X156929Y154910D01*
X156581Y154840D01*
X156286Y154643D01*
X155880Y154237D01*
X155437Y154028D01*
X155007Y154315D01*
X154500Y154416D01*
X153993Y154315D01*
X153563Y154028D01*
X153544Y154000D01*
X153090D01*
X152742Y153931D01*
X152447Y153734D01*
X152000Y153286D01*
X150836Y154451D01*
X150540Y154648D01*
X150192Y154717D01*
X139384D01*
X139366Y154745D01*
X138936Y155032D01*
X138428Y155133D01*
X137921Y155032D01*
X137856Y154989D01*
X137356Y155256D01*
Y172942D01*
X141808Y177395D01*
X141847Y177410D01*
X141934Y177393D01*
X142097Y176849D01*
X141822Y176574D01*
X141625Y176279D01*
X141556Y175931D01*
Y174418D01*
X141625Y174070D01*
X141822Y173775D01*
X150240Y165357D01*
X150536Y165160D01*
X150884Y165090D01*
X151232Y165160D01*
X151527Y165357D01*
X166232Y180062D01*
X166759Y179710D01*
X167000Y179662D01*
Y181500D01*
Y183453D01*
X166618Y183751D01*
Y187594D01*
X166890Y187813D01*
X167465Y187709D01*
X167563Y187563D01*
X167993Y187275D01*
X168500Y187174D01*
X169007Y187275D01*
X169437Y187563D01*
X169725Y187993D01*
X169809Y188420D01*
X170060Y188561D01*
X170310Y188626D01*
X177187Y181749D01*
D02*
G37*
G36*
X515892Y346922D02*
X515391Y346848D01*
X515334Y347038D01*
X514600Y348410D01*
X513613Y349613D01*
X512410Y350600D01*
X511038Y351334D01*
X509549Y351786D01*
X508000Y351938D01*
X506451Y351786D01*
X504962Y351334D01*
X503590Y350600D01*
X502387Y349613D01*
X501400Y348410D01*
X500666Y347038D01*
X500214Y345549D01*
X500062Y344000D01*
X500214Y342451D01*
X500666Y340962D01*
X501400Y339590D01*
X502387Y338387D01*
X503590Y337400D01*
X504962Y336666D01*
X506451Y336214D01*
X508000Y336062D01*
X509549Y336214D01*
X511038Y336666D01*
X512410Y337400D01*
X513613Y338387D01*
X514600Y339590D01*
X515334Y340962D01*
X515391Y341152D01*
X515892Y341078D01*
Y222422D01*
X515391Y222348D01*
X515334Y222538D01*
X514600Y223910D01*
X513613Y225113D01*
X512410Y226100D01*
X511038Y226834D01*
X509549Y227286D01*
X508000Y227438D01*
X506451Y227286D01*
X504962Y226834D01*
X503590Y226100D01*
X502387Y225113D01*
X501400Y223910D01*
X500666Y222538D01*
X500214Y221049D01*
X500062Y219500D01*
X500214Y217951D01*
X500666Y216462D01*
X501400Y215090D01*
X502387Y213887D01*
X503590Y212900D01*
X504962Y212166D01*
X506451Y211714D01*
X508000Y211562D01*
X509549Y211714D01*
X511038Y212166D01*
X512410Y212900D01*
X513613Y213887D01*
X514600Y215090D01*
X515334Y216462D01*
X515391Y216652D01*
X515892Y216578D01*
Y125609D01*
X511375D01*
X511300Y126109D01*
X511425Y126146D01*
X512520Y126732D01*
X513480Y127520D01*
X514268Y128480D01*
X514854Y129575D01*
X515214Y130764D01*
X515336Y132000D01*
X515214Y133236D01*
X514854Y134425D01*
X514268Y135520D01*
X513480Y136480D01*
X512520Y137268D01*
X511425Y137854D01*
X510236Y138214D01*
X509000Y138336D01*
X507764Y138214D01*
X506575Y137854D01*
X505480Y137268D01*
X504520Y136480D01*
X503732Y135520D01*
X503146Y134425D01*
X502786Y133236D01*
X502664Y132000D01*
X502786Y130764D01*
X503146Y129575D01*
X503732Y128480D01*
X504520Y127520D01*
X505480Y126732D01*
X506575Y126146D01*
X506700Y126109D01*
X506626Y125609D01*
X416657D01*
X416521Y125891D01*
X416468Y126109D01*
X416725Y126493D01*
X416825Y127000D01*
X416725Y127507D01*
X416437Y127937D01*
X416007Y128225D01*
X415500Y128325D01*
X414993Y128225D01*
X414563Y127937D01*
X414275Y127507D01*
X414175Y127000D01*
X414275Y126493D01*
X414532Y126109D01*
X414479Y125891D01*
X414342Y125609D01*
X241711D01*
X241435Y126109D01*
X241513Y126500D01*
X241412Y127007D01*
X241125Y127437D01*
X240695Y127725D01*
X240187Y127825D01*
X239680Y127725D01*
X239250Y127437D01*
X238963Y127007D01*
X238862Y126500D01*
X238940Y126109D01*
X238664Y125609D01*
X228523D01*
X228248Y126109D01*
X228326Y126500D01*
X228225Y127007D01*
X227937Y127437D01*
X227507Y127725D01*
X227000Y127825D01*
X226493Y127725D01*
X226063Y127437D01*
X225775Y127007D01*
X225675Y126500D01*
X225752Y126109D01*
X225477Y125609D01*
X213000D01*
X212733Y126109D01*
X212804Y126216D01*
X212911Y126756D01*
Y127870D01*
X212937Y128000D01*
X212911Y128130D01*
Y129000D01*
X212804Y129540D01*
X212498Y129998D01*
X212040Y130304D01*
X211895Y130333D01*
X211945Y130833D01*
X233816D01*
X234030Y130690D01*
X234674Y130562D01*
X235318Y130690D01*
X235863Y131054D01*
X236228Y131600D01*
X236356Y132244D01*
X236228Y132888D01*
X235863Y133434D01*
X235318Y133798D01*
X234674Y133926D01*
X234030Y133798D01*
X233816Y133656D01*
X201374D01*
X197439Y137590D01*
X197631Y138052D01*
X203278D01*
X203664Y138129D01*
X203992Y138348D01*
X207026Y141382D01*
X212035D01*
X214684Y138733D01*
X215012Y138514D01*
X215398Y138437D01*
X227232D01*
X227619Y138514D01*
X227946Y138733D01*
X229175Y139962D01*
X229282D01*
X229407Y139937D01*
X281161D01*
X281251Y139817D01*
X281382Y139437D01*
X281134Y139066D01*
X281022Y138500D01*
X281134Y137934D01*
X281455Y137455D01*
X281934Y137134D01*
X282500Y137022D01*
X282837Y137089D01*
X284913D01*
X285250Y137022D01*
X285587Y137089D01*
X300000D01*
X300540Y137196D01*
X300998Y137502D01*
X311498Y148002D01*
X311804Y148460D01*
X311911Y149000D01*
Y153000D01*
X311804Y153540D01*
X311498Y153998D01*
X311040Y154304D01*
X310500Y154411D01*
X309960Y154304D01*
X309502Y153998D01*
X309196Y153540D01*
X309089Y153000D01*
Y149585D01*
X299415Y139911D01*
X287047D01*
X286840Y140411D01*
X309128Y162700D01*
X309507Y162775D01*
X309937Y163063D01*
X310225Y163493D01*
X310303Y163888D01*
X310625Y164052D01*
X310813Y164085D01*
X311084Y163814D01*
X311411Y163595D01*
X311798Y163518D01*
X331591D01*
X331977Y163595D01*
X332305Y163814D01*
X332721Y164230D01*
X333000Y164174D01*
X333507Y164275D01*
X333937Y164563D01*
X334225Y164993D01*
X334326Y165500D01*
X334225Y166007D01*
X333937Y166437D01*
X333751Y166562D01*
X333650Y167117D01*
X333887Y167409D01*
X337983D01*
X357704Y147687D01*
Y147252D01*
X357781Y146866D01*
X358000Y146538D01*
X368705Y135833D01*
X369033Y135614D01*
X369419Y135537D01*
X373046D01*
X373389Y135037D01*
X373333Y134756D01*
X373440Y134216D01*
X373746Y133758D01*
X374204Y133452D01*
X374744Y133344D01*
X377872D01*
X378412Y133452D01*
X378870Y133758D01*
X379176Y134216D01*
X379283Y134756D01*
X379227Y135037D01*
X379570Y135537D01*
X419811D01*
X420198Y135614D01*
X420525Y135833D01*
X430549Y145857D01*
X430624Y145969D01*
X431201Y145990D01*
X431332Y145794D01*
X431762Y145506D01*
X432269Y145405D01*
X432289Y145409D01*
X432653Y145337D01*
X435021D01*
X435407Y145414D01*
X435735Y145633D01*
X436842Y146740D01*
X437061Y147068D01*
X437138Y147454D01*
Y149021D01*
X437061Y149407D01*
X436842Y149735D01*
X434192Y152385D01*
X433864Y152604D01*
X433477Y152681D01*
X428862D01*
X428766Y152662D01*
X424204Y157224D01*
X424369Y157767D01*
X424594Y157812D01*
X425106Y158154D01*
X425449Y158667D01*
X425569Y159272D01*
X425449Y159876D01*
X425106Y160389D01*
X424594Y160732D01*
X423989Y160852D01*
X423384Y160732D01*
X423010Y160482D01*
X422560Y160660D01*
X422510Y160703D01*
Y162958D01*
X422560Y163002D01*
X423010Y163180D01*
X423384Y162930D01*
X423989Y162809D01*
X424594Y162930D01*
X425106Y163272D01*
X425449Y163785D01*
X425569Y164390D01*
X425449Y164995D01*
X425106Y165507D01*
X424594Y165850D01*
X423989Y165970D01*
X423384Y165850D01*
X423010Y165600D01*
X422560Y165778D01*
X422510Y165821D01*
Y168076D01*
X422560Y168120D01*
X423010Y168298D01*
X423384Y168048D01*
X423989Y167928D01*
X424594Y168048D01*
X425106Y168390D01*
X425449Y168903D01*
X425569Y169508D01*
X425449Y170113D01*
X425106Y170625D01*
X424594Y170968D01*
X423989Y171088D01*
X423384Y170968D01*
X423010Y170718D01*
X422560Y170896D01*
X422510Y170939D01*
Y173195D01*
X422560Y173238D01*
X423010Y173416D01*
X423384Y173166D01*
X423989Y173046D01*
X424594Y173166D01*
X425106Y173509D01*
X425449Y174021D01*
X425569Y174626D01*
X425449Y175231D01*
X425106Y175743D01*
X424594Y176086D01*
X423989Y176206D01*
X423384Y176086D01*
X423010Y175836D01*
X422560Y176014D01*
X422510Y176057D01*
Y179000D01*
X422433Y179386D01*
X422214Y179714D01*
X421886Y179933D01*
X421500Y180010D01*
X417083D01*
X416964Y180191D01*
X416890Y180510D01*
X421718Y185337D01*
X421919Y185202D01*
X422427Y185101D01*
X422934Y185202D01*
X423364Y185489D01*
X423651Y185919D01*
X423752Y186427D01*
X423651Y186934D01*
X423364Y187364D01*
X422934Y187651D01*
X422427Y187752D01*
X421919Y187651D01*
X421598Y187437D01*
X421379D01*
X420992Y187360D01*
X420665Y187141D01*
X420061Y186538D01*
X419535Y186719D01*
X419481Y187013D01*
X419725Y187378D01*
X419826Y187885D01*
X419725Y188392D01*
X419437Y188822D01*
X419007Y189110D01*
X418500Y189210D01*
X417993Y189110D01*
X417563Y188822D01*
X417275Y188392D01*
X417224Y188135D01*
X417103Y187868D01*
X416687Y187771D01*
X416521Y187804D01*
X416014Y187703D01*
X415994Y187690D01*
X415675Y188078D01*
X420736Y193140D01*
X421274Y192993D01*
X421284Y192980D01*
X421563Y192563D01*
X421993Y192275D01*
X422500Y192174D01*
X423007Y192275D01*
X423437Y192563D01*
X423725Y192993D01*
X423826Y193500D01*
X423725Y194007D01*
X423437Y194437D01*
X423020Y194716D01*
X423007Y194726D01*
X422860Y195264D01*
X443087Y215490D01*
X469000D01*
X469386Y215567D01*
X469714Y215786D01*
X480605Y226676D01*
X480824Y227004D01*
X480900Y227391D01*
Y310472D01*
X484128Y313700D01*
X484507Y313775D01*
X484937Y314063D01*
X485225Y314493D01*
X485325Y315000D01*
X485225Y315507D01*
X484937Y315937D01*
X484507Y316225D01*
X484000Y316325D01*
X483937Y316652D01*
X483937Y316654D01*
X483790Y317395D01*
X483370Y318023D01*
X482741Y318443D01*
X482500Y318491D01*
Y316654D01*
X482000D01*
Y316154D01*
X480162D01*
X480210Y315912D01*
X480630Y315284D01*
X481259Y314864D01*
X481650Y314786D01*
X481815Y314243D01*
X479176Y311605D01*
X478958Y311277D01*
X478881Y310891D01*
Y236031D01*
X478462Y235796D01*
X477964Y235967D01*
X477876Y236311D01*
X477790Y236741D01*
X477370Y237370D01*
X476741Y237790D01*
X476500Y237838D01*
Y236000D01*
X475500D01*
Y237838D01*
X475259Y237790D01*
X474630Y237370D01*
X474210Y236741D01*
X474063Y236000D01*
X474083Y235896D01*
X473766Y235510D01*
X451500D01*
X451114Y235433D01*
X450786Y235214D01*
X407933Y192361D01*
X407714Y192034D01*
X407637Y191647D01*
Y188714D01*
X407423Y188392D01*
X407342Y187986D01*
X407302Y187873D01*
X406867Y187609D01*
X406679Y187647D01*
X406172Y187546D01*
X405850Y187331D01*
X405478D01*
X405092Y187254D01*
X404764Y187035D01*
X404447Y186718D01*
X403895Y186873D01*
X403752Y187087D01*
Y200323D01*
X442714Y239286D01*
X442933Y239614D01*
X443010Y240000D01*
Y305672D01*
X443225Y305993D01*
X443326Y306500D01*
X443225Y307007D01*
X442937Y307437D01*
X442507Y307725D01*
X442000Y307825D01*
X441493Y307725D01*
X441063Y307437D01*
X440775Y307007D01*
X440674Y306500D01*
X440775Y305993D01*
X440990Y305672D01*
Y304503D01*
X440509Y304226D01*
X440490Y304228D01*
X440000Y304326D01*
X439493Y304225D01*
X439063Y303937D01*
X438775Y303507D01*
X438674Y303000D01*
X438775Y302493D01*
X439063Y302063D01*
X439090Y302044D01*
Y277612D01*
X438590Y277320D01*
X438500Y277338D01*
Y275500D01*
X437500D01*
Y277338D01*
X437291Y277296D01*
X437113Y277445D01*
X436911Y277659D01*
Y279126D01*
X436913Y279128D01*
X437029Y279714D01*
X436913Y280299D01*
X436581Y280795D01*
X436085Y281127D01*
X435500Y281243D01*
X435202Y281694D01*
Y300742D01*
X435133Y301090D01*
X434935Y301385D01*
X434910Y301411D01*
Y302044D01*
X434937Y302063D01*
X435225Y302493D01*
X435325Y303000D01*
X435225Y303507D01*
X434937Y303937D01*
X434507Y304225D01*
X434000Y304326D01*
X433493Y304225D01*
X433063Y303937D01*
X432775Y303507D01*
X432675Y303000D01*
X432775Y302493D01*
X433063Y302063D01*
X432949Y301602D01*
X432590Y301308D01*
X432500Y301325D01*
X431993Y301225D01*
X431563Y300937D01*
X431275Y300507D01*
X431175Y300000D01*
X431275Y299493D01*
X431563Y299063D01*
X431590Y299044D01*
Y286377D01*
X395010Y249796D01*
X394510Y250003D01*
Y311672D01*
X394725Y311993D01*
X394826Y312500D01*
X394725Y313007D01*
X394437Y313437D01*
X394007Y313725D01*
X393500Y313825D01*
X392993Y313725D01*
X392563Y313437D01*
X392275Y313007D01*
X392175Y312500D01*
X392275Y311993D01*
X392490Y311672D01*
Y250092D01*
X389395Y246997D01*
X389176Y246670D01*
X389100Y246283D01*
Y244717D01*
X389176Y244330D01*
X389395Y244003D01*
X392490Y240908D01*
Y240500D01*
X392567Y240113D01*
X392786Y239786D01*
X399676Y232895D01*
X400004Y232676D01*
X400390Y232599D01*
X406283D01*
X406670Y232676D01*
X406997Y232895D01*
X407924Y233822D01*
X407993Y233775D01*
X408500Y233675D01*
X409007Y233775D01*
X409437Y234063D01*
X409725Y234493D01*
X409826Y235000D01*
X409725Y235507D01*
X409437Y235937D01*
X409007Y236225D01*
X408500Y236326D01*
X408274Y236280D01*
X408028Y236741D01*
X440490Y269204D01*
X440990Y268997D01*
Y240418D01*
X402028Y201456D01*
X401809Y201128D01*
X401732Y200742D01*
Y189024D01*
X401318Y188750D01*
X401232Y188734D01*
X400773Y188826D01*
X400315Y188734D01*
X400228Y188750D01*
X399815Y189024D01*
Y202386D01*
X431628Y234200D01*
X432007Y234275D01*
X432437Y234563D01*
X432725Y234993D01*
X432826Y235500D01*
X432725Y236007D01*
X432437Y236437D01*
X432007Y236725D01*
X431500Y236825D01*
X430993Y236725D01*
X430563Y236437D01*
X430275Y236007D01*
X430200Y235628D01*
X398091Y203519D01*
X397872Y203191D01*
X397795Y202805D01*
Y188754D01*
X397753Y188717D01*
X397295Y188532D01*
X397007Y188725D01*
X396500Y188826D01*
X395993Y188725D01*
X395563Y188437D01*
X395275Y188007D01*
X395175Y187500D01*
X395275Y186993D01*
X395563Y186563D01*
X395904Y186335D01*
Y185573D01*
X395442Y185381D01*
X382510Y198313D01*
Y235172D01*
X382725Y235493D01*
X382825Y236000D01*
X382725Y236507D01*
X382437Y236937D01*
X382007Y237225D01*
X381500Y237326D01*
X381010Y237228D01*
X380991Y237226D01*
X380510Y237503D01*
Y302582D01*
X390628Y312700D01*
X391007Y312775D01*
X391437Y313063D01*
X391725Y313493D01*
X391826Y314000D01*
X391807Y314091D01*
X391845Y314184D01*
X392214Y314605D01*
X392741Y314710D01*
X393370Y315130D01*
X393677Y315590D01*
X415623D01*
X417171Y314043D01*
X417162Y314000D01*
X418500D01*
Y315338D01*
X418457Y315329D01*
X416643Y317143D01*
X416348Y317340D01*
X416000Y317410D01*
X393677D01*
X393370Y317870D01*
X392741Y318290D01*
X392500Y318338D01*
Y316500D01*
X392000D01*
Y316000D01*
X390162D01*
X390210Y315759D01*
X390250Y315700D01*
X390087Y315307D01*
X389974Y315212D01*
X389563Y314937D01*
X389275Y314507D01*
X389200Y314128D01*
X378786Y303714D01*
X378567Y303386D01*
X378490Y303000D01*
Y197659D01*
X378567Y197273D01*
X378786Y196945D01*
X395259Y180472D01*
X395068Y180010D01*
X383079D01*
X382888Y180472D01*
X387128Y184713D01*
X387507Y184788D01*
X387937Y185075D01*
X388225Y185505D01*
X388326Y186012D01*
X388225Y186520D01*
X387937Y186950D01*
X387507Y187237D01*
X387000Y187338D01*
X386493Y187237D01*
X386063Y186950D01*
X385775Y186520D01*
X385700Y186141D01*
X381069Y181510D01*
X375662D01*
X375498Y182002D01*
X375804Y182460D01*
X375911Y183000D01*
X375804Y183540D01*
X375498Y183998D01*
X375040Y184304D01*
X374500Y184411D01*
X370284D01*
X369744Y184304D01*
X369586Y184198D01*
X368924Y184288D01*
X368870Y184370D01*
X368241Y184790D01*
X367901Y184857D01*
X367671Y185413D01*
X367725Y185493D01*
X367826Y186000D01*
X367725Y186507D01*
X367437Y186937D01*
X367007Y187225D01*
X366500Y187326D01*
X366400Y187306D01*
X366348Y187340D01*
X366000Y187410D01*
X360956D01*
X360937Y187437D01*
X360507Y187725D01*
X360000Y187826D01*
X359493Y187725D01*
X359063Y187437D01*
X358775Y187007D01*
X358735Y186804D01*
X358192Y186639D01*
X355203Y189629D01*
X355394Y190090D01*
X365544D01*
X365563Y190063D01*
X365993Y189775D01*
X366500Y189674D01*
X367007Y189775D01*
X367437Y190063D01*
X367725Y190493D01*
X367826Y191000D01*
X367725Y191507D01*
X367437Y191937D01*
X367007Y192225D01*
X366500Y192325D01*
X365993Y192225D01*
X365563Y191937D01*
X365544Y191910D01*
X355244D01*
X355225Y192007D01*
X354937Y192437D01*
X354507Y192725D01*
X354000Y192825D01*
X353493Y192725D01*
X353063Y192437D01*
X352847Y192115D01*
X352295Y191960D01*
X349997Y194257D01*
Y196047D01*
X350126Y196170D01*
X350470Y196378D01*
X350480Y196379D01*
X350874Y196300D01*
X351381Y196401D01*
X351811Y196689D01*
X352099Y197119D01*
X352200Y197626D01*
X352193Y197659D01*
X352726Y198192D01*
X353166Y198106D01*
X353266Y198038D01*
X353275Y197993D01*
X353563Y197563D01*
X353744Y197442D01*
X353638Y196911D01*
X353493Y196882D01*
X353063Y196595D01*
X352775Y196165D01*
X352675Y195658D01*
X352775Y195150D01*
X353063Y194720D01*
X353493Y194433D01*
X354000Y194332D01*
X354507Y194433D01*
X354937Y194720D01*
X354956Y194748D01*
X365439D01*
X365563Y194563D01*
X365993Y194275D01*
X366500Y194175D01*
X367007Y194275D01*
X367437Y194563D01*
X367725Y194993D01*
X367826Y195500D01*
X367725Y196007D01*
X367437Y196437D01*
X367007Y196725D01*
X366904Y196745D01*
Y197255D01*
X367007Y197275D01*
X367437Y197563D01*
X367599Y197805D01*
X368150Y197835D01*
X368170Y197828D01*
X368328Y197591D01*
X368786Y197285D01*
X369326Y197178D01*
X374000D01*
X374540Y197285D01*
X374998Y197591D01*
X375304Y198049D01*
X375411Y198589D01*
X375304Y199129D01*
X374998Y199587D01*
X374540Y199893D01*
X374000Y200001D01*
X369326D01*
X368786Y199893D01*
X368328Y199587D01*
X368133Y199296D01*
X367626Y199241D01*
X367555Y199261D01*
X367437Y199437D01*
X367007Y199725D01*
X366910Y199744D01*
Y200000D01*
X366840Y200348D01*
X366643Y200643D01*
X366348Y200840D01*
X366000Y200910D01*
X356097D01*
X355906Y201372D01*
X365435Y210901D01*
X365633Y211196D01*
X365702Y211544D01*
Y233748D01*
X365751Y233791D01*
X366202Y233970D01*
X366493Y233775D01*
X367000Y233675D01*
X367507Y233775D01*
X367937Y234063D01*
X368225Y234493D01*
X368325Y235000D01*
X368225Y235507D01*
X367937Y235937D01*
X367507Y236225D01*
X367000Y236326D01*
X366493Y236225D01*
X366160Y236002D01*
X365766Y236068D01*
X365598Y236142D01*
X365435Y236385D01*
X365410Y236411D01*
Y281222D01*
X373195Y289007D01*
X373392Y289302D01*
X373462Y289651D01*
Y301175D01*
X389706Y317420D01*
X390182Y317241D01*
X390204Y317211D01*
X390162Y317000D01*
X391500D01*
Y318338D01*
X391289Y318296D01*
X391259Y318318D01*
X391115Y318699D01*
X391435Y319090D01*
X463123D01*
X463764Y318450D01*
X463674Y318000D01*
X463775Y317493D01*
X464063Y317063D01*
X464493Y316775D01*
X465000Y316674D01*
X465507Y316775D01*
X465937Y317063D01*
X466225Y317493D01*
X466326Y318000D01*
X466281Y318226D01*
X466741Y318472D01*
X466857Y318357D01*
X467152Y318160D01*
X467500Y318090D01*
X467544D01*
X467563Y318063D01*
X467993Y317775D01*
X468500Y317674D01*
X469007Y317775D01*
X469437Y318063D01*
X469725Y318493D01*
X469826Y319000D01*
X469725Y319507D01*
X469437Y319937D01*
X469007Y320225D01*
X468500Y320325D01*
X467993Y320225D01*
X467734Y320052D01*
X454643Y333143D01*
X454348Y333340D01*
X454000Y333410D01*
X398000D01*
X397652Y333340D01*
X397357Y333143D01*
X370525Y306311D01*
X370327Y306016D01*
X370258Y305668D01*
Y297521D01*
X369758Y297395D01*
X369376Y298110D01*
X368389Y299313D01*
X367186Y300300D01*
X365813Y301034D01*
X364324Y301486D01*
X362776Y301638D01*
X361227Y301486D01*
X359738Y301034D01*
X358365Y300300D01*
X357162Y299313D01*
X356175Y298110D01*
X355442Y296738D01*
X354990Y295249D01*
X354837Y293700D01*
X354990Y292151D01*
X355442Y290662D01*
X356175Y289290D01*
X357162Y288087D01*
X358365Y287100D01*
X359738Y286366D01*
X361227Y285914D01*
X362776Y285762D01*
X364324Y285914D01*
X365100Y286150D01*
X365365Y285707D01*
X358065Y278407D01*
X357868Y278112D01*
X357798Y277764D01*
Y234758D01*
X357868Y234410D01*
X358065Y234115D01*
X359590Y232589D01*
Y210377D01*
X349956Y200742D01*
X349620Y200809D01*
X349387Y200763D01*
X348887Y201113D01*
Y223595D01*
X348810Y223981D01*
X348591Y224309D01*
X336510Y236390D01*
Y241990D01*
X337010Y242142D01*
X337063Y242063D01*
X337493Y241775D01*
X338000Y241674D01*
X338507Y241775D01*
X338937Y242063D01*
X339225Y242493D01*
X339325Y243000D01*
X339225Y243507D01*
X338937Y243937D01*
X338507Y244225D01*
X338202Y244285D01*
Y246242D01*
X338133Y246590D01*
X337935Y246885D01*
X330178Y254643D01*
X329883Y254840D01*
X329535Y254910D01*
X287919D01*
X286200Y256628D01*
X286392Y257090D01*
X330623D01*
X338626Y249087D01*
Y248558D01*
X338696Y248210D01*
X338893Y247915D01*
X352450Y234357D01*
X352745Y234160D01*
X353037Y234102D01*
X353063Y234063D01*
X353493Y233775D01*
X354000Y233675D01*
X354507Y233775D01*
X354937Y234063D01*
X355225Y234493D01*
X355326Y235000D01*
X355225Y235507D01*
X354937Y235937D01*
X354507Y236225D01*
X354000Y236326D01*
X353493Y236225D01*
X353291Y236089D01*
X341785Y247594D01*
X341941Y248146D01*
X342265Y248363D01*
X342552Y248793D01*
X342653Y249300D01*
X342552Y249807D01*
X342265Y250237D01*
X342166Y250905D01*
X342225Y250993D01*
X342325Y251500D01*
X342225Y252007D01*
X341937Y252437D01*
X341507Y252725D01*
X341000Y252825D01*
X340493Y252725D01*
X340063Y252437D01*
X339775Y252007D01*
X339674Y251500D01*
X339720Y251274D01*
X339259Y251028D01*
X331643Y258643D01*
X331348Y258840D01*
X331000Y258910D01*
X285877D01*
X284702Y260085D01*
Y264242D01*
X284632Y264590D01*
X284435Y264885D01*
X283242Y266079D01*
X283326Y266500D01*
X283225Y267007D01*
X282937Y267437D01*
X282507Y267725D01*
X282000Y267826D01*
X281493Y267725D01*
X281063Y267437D01*
X280775Y267007D01*
X280675Y266500D01*
X280775Y265993D01*
X281063Y265563D01*
X281432Y265316D01*
X281543Y265206D01*
X281387Y264654D01*
X281063Y264437D01*
X280775Y264007D01*
X280675Y263500D01*
X280775Y262993D01*
X281063Y262563D01*
X281090Y262544D01*
Y259542D01*
X281160Y259194D01*
X281357Y258899D01*
X286385Y253871D01*
X286193Y253410D01*
X282877D01*
X277910Y258377D01*
Y283623D01*
X296143Y301857D01*
X296143Y301857D01*
X296340Y302152D01*
X296410Y302500D01*
X296340Y302848D01*
X296143Y303143D01*
X295005Y304282D01*
X294935Y304385D01*
X286304Y313016D01*
X286009Y313214D01*
X285661Y313283D01*
X230094D01*
X230007Y313775D01*
X230437Y314063D01*
X230725Y314493D01*
X230825Y315000D01*
X230725Y315507D01*
X230437Y315937D01*
X230007Y316225D01*
X229500Y316325D01*
X228993Y316225D01*
X228563Y315937D01*
X228275Y315507D01*
X228174Y315000D01*
X228275Y314493D01*
X228563Y314063D01*
X228993Y313775D01*
X228906Y313283D01*
X184776D01*
X184428Y313214D01*
X184133Y313016D01*
X183526Y312410D01*
X117500D01*
X117152Y312340D01*
X116857Y312143D01*
X81857Y277143D01*
X81660Y276848D01*
X81590Y276500D01*
Y275956D01*
X81563Y275937D01*
X81275Y275507D01*
X81174Y275000D01*
X81275Y274493D01*
X81563Y274063D01*
X81993Y273775D01*
X82500Y273675D01*
X83007Y273775D01*
X83437Y274063D01*
X83725Y274493D01*
X83825Y275000D01*
X83725Y275507D01*
X83437Y275937D01*
X83663Y276376D01*
X117877Y310590D01*
X183903D01*
X184251Y310660D01*
X184546Y310857D01*
X185153Y311464D01*
X189101D01*
X189292Y311002D01*
X187286Y308995D01*
X187067Y308668D01*
X186990Y308281D01*
Y290328D01*
X186775Y290007D01*
X186674Y289500D01*
X186775Y288993D01*
X187063Y288563D01*
X187493Y288275D01*
X188000Y288175D01*
X188507Y288275D01*
X188937Y288563D01*
X189225Y288993D01*
X189325Y289500D01*
X189225Y290007D01*
X189010Y290328D01*
Y307863D01*
X191028Y309881D01*
X231469D01*
X231750Y309381D01*
X231675Y309000D01*
X231775Y308493D01*
X231990Y308172D01*
Y265654D01*
X199683Y233347D01*
X199250Y233622D01*
X199326Y234000D01*
X199225Y234507D01*
X198937Y234937D01*
X198507Y235225D01*
X198000Y235326D01*
X197493Y235225D01*
X197172Y235010D01*
X192838D01*
X192452Y234933D01*
X192124Y234714D01*
X186362Y228953D01*
X185900Y229144D01*
Y257783D01*
X185824Y258170D01*
X185605Y258497D01*
X185311Y258791D01*
Y265927D01*
X203468Y282910D01*
X204090Y282400D01*
X205462Y281666D01*
X206951Y281214D01*
X208500Y281062D01*
X210049Y281214D01*
X211538Y281666D01*
X212910Y282400D01*
X214113Y283387D01*
X215100Y284590D01*
X215834Y285962D01*
X216286Y287451D01*
X216438Y289000D01*
X216286Y290549D01*
X215834Y292038D01*
X215100Y293410D01*
X214113Y294613D01*
X212910Y295600D01*
X211538Y296334D01*
X210049Y296786D01*
X208500Y296938D01*
X206951Y296786D01*
X205462Y296334D01*
X204090Y295600D01*
X202887Y294613D01*
X201900Y293410D01*
X201166Y292038D01*
X200714Y290549D01*
X200562Y289000D01*
X200714Y287451D01*
X201166Y285962D01*
X201900Y284590D01*
X202076Y284374D01*
X183611Y267103D01*
X183601Y267089D01*
X183587Y267080D01*
X183487Y266930D01*
X183381Y266783D01*
X183378Y266766D01*
X183368Y266752D01*
X183333Y266575D01*
X183292Y266399D01*
X183294Y266382D01*
X183291Y266366D01*
Y258777D01*
X183000Y258326D01*
X182493Y258225D01*
X182063Y257937D01*
X182044Y257910D01*
X180000D01*
X179652Y257840D01*
X179357Y257643D01*
X167857Y246143D01*
X167660Y245848D01*
X167590Y245500D01*
X167660Y245152D01*
X167742Y245028D01*
X165857Y243143D01*
X165660Y242848D01*
X165590Y242500D01*
X165660Y242152D01*
X165857Y241857D01*
X167590Y240123D01*
Y196956D01*
X167563Y196937D01*
X167275Y196507D01*
X167174Y196000D01*
X167239Y195677D01*
X166778Y195431D01*
X165635Y196574D01*
Y198391D01*
X165497Y199084D01*
X165104Y199673D01*
X164495Y200282D01*
X163907Y200675D01*
X163213Y200813D01*
X139713D01*
X139019Y200675D01*
X138431Y200282D01*
X137784Y199635D01*
X118929D01*
X118491Y200073D01*
Y200109D01*
X118353Y200803D01*
X117960Y201391D01*
X116391Y202960D01*
X115813Y203346D01*
Y222687D01*
X116628D01*
X116896Y222187D01*
X116775Y222007D01*
X116674Y221500D01*
X116775Y220993D01*
X117063Y220563D01*
X117493Y220275D01*
X118000Y220175D01*
X118507Y220275D01*
X118937Y220563D01*
X119225Y220993D01*
X119325Y221500D01*
X119225Y222007D01*
X119104Y222187D01*
X119372Y222687D01*
X121500D01*
X121929Y222773D01*
X122440Y222484D01*
X122487Y222420D01*
X122506Y222292D01*
X122357Y222143D01*
X122160Y221848D01*
X122090Y221500D01*
X122160Y221152D01*
X122357Y220857D01*
X130857Y212357D01*
X131152Y212160D01*
X131500Y212090D01*
X132592D01*
X132611Y212063D01*
X133041Y211775D01*
X133548Y211674D01*
X134055Y211775D01*
X134485Y212063D01*
X134773Y212493D01*
X134873Y213000D01*
X134773Y213507D01*
X134485Y213937D01*
X134055Y214225D01*
X133548Y214325D01*
X133041Y214225D01*
X132611Y213937D01*
X132592Y213910D01*
X131877D01*
X124286Y221500D01*
X124413Y221627D01*
X124610Y221922D01*
X124680Y222270D01*
Y225440D01*
X124610Y225788D01*
X124413Y226083D01*
X123083Y227413D01*
X122788Y227610D01*
X122440Y227680D01*
X118107D01*
X113910Y231877D01*
Y238044D01*
X113937Y238063D01*
X114225Y238493D01*
X114325Y239000D01*
X114253Y239362D01*
X114543Y239862D01*
X116780D01*
X118325Y240014D01*
X119811Y240465D01*
X121180Y241196D01*
X122380Y242181D01*
X139099Y258901D01*
X140084Y260101D01*
X140816Y261470D01*
X140824Y261496D01*
X142030Y262702D01*
X143014Y263902D01*
X143746Y265271D01*
X144197Y266756D01*
X144349Y268301D01*
Y278699D01*
X144197Y280244D01*
X143746Y281729D01*
X143014Y283098D01*
X142030Y284298D01*
X141418Y284909D01*
Y301000D01*
X141266Y302545D01*
X140816Y304030D01*
X140084Y305399D01*
X139099Y306599D01*
X137899Y307584D01*
X136530Y308316D01*
X135045Y308766D01*
X133500Y308918D01*
X131955Y308766D01*
X130470Y308316D01*
X129101Y307584D01*
X127901Y306599D01*
X126916Y305399D01*
X126184Y304030D01*
X125734Y302545D01*
X125582Y301000D01*
Y281629D01*
X125734Y280085D01*
X126184Y278599D01*
X126916Y277230D01*
X127169Y276922D01*
X127168Y276868D01*
X126941Y276411D01*
X124837D01*
X124500Y276478D01*
X123934Y276366D01*
X123455Y276045D01*
X123134Y275566D01*
X123022Y275000D01*
X123089Y274663D01*
Y272337D01*
X123022Y272000D01*
X123134Y271434D01*
X123455Y270955D01*
X123934Y270634D01*
X124500Y270522D01*
X124837Y270589D01*
X126941D01*
X127168Y270132D01*
X127169Y270078D01*
X126916Y269770D01*
X126184Y268401D01*
X126176Y268375D01*
X113500Y255699D01*
X109363D01*
X107818Y255547D01*
X106533Y255157D01*
X106172Y255266D01*
X104628Y255418D01*
X90000D01*
X88455Y255266D01*
X86970Y254816D01*
X85601Y254084D01*
X84401Y253099D01*
X71401Y240099D01*
X70416Y238899D01*
X69684Y237530D01*
X69234Y236045D01*
X69082Y234500D01*
Y148500D01*
X69234Y146955D01*
X69684Y145470D01*
X70416Y144101D01*
X71401Y142901D01*
X72601Y141916D01*
X73970Y141184D01*
X75455Y140734D01*
X77000Y140582D01*
X108299D01*
X108500Y140562D01*
X108701Y140582D01*
X124299D01*
X124500Y140562D01*
X126049Y140714D01*
X127538Y141166D01*
X128910Y141900D01*
X130113Y142887D01*
X131100Y144090D01*
X131834Y145462D01*
X132286Y146951D01*
X132438Y148500D01*
X132286Y150049D01*
X132056Y150805D01*
X132498Y151070D01*
X133744Y149824D01*
X133467Y149462D01*
X133175Y148757D01*
X133075Y148000D01*
X133175Y147243D01*
X133467Y146537D01*
X133932Y145932D01*
X134537Y145467D01*
X135243Y145175D01*
X136000Y145075D01*
X136757Y145175D01*
X136845Y145211D01*
X136886Y145192D01*
X137241Y144834D01*
X137174Y144500D01*
X137275Y143993D01*
X137563Y143563D01*
X137993Y143275D01*
X138500Y143175D01*
X139007Y143275D01*
X139437Y143563D01*
X139725Y143993D01*
X139825Y144500D01*
X139725Y145007D01*
X139583Y145219D01*
X140205Y145840D01*
X140424Y146168D01*
X140500Y146554D01*
Y150072D01*
X140424Y150458D01*
X140205Y150786D01*
X138888Y152103D01*
X139043Y152655D01*
X139366Y152870D01*
X139384Y152898D01*
X149816D01*
X151357Y151357D01*
X151652Y151160D01*
X152000Y151090D01*
X152348Y151160D01*
X152643Y151357D01*
X153156Y151869D01*
X153563Y152153D01*
X153993Y151866D01*
X154500Y151765D01*
X155007Y151866D01*
X155437Y152153D01*
X155456Y152181D01*
X156020D01*
X156368Y152250D01*
X156663Y152447D01*
X156929Y152714D01*
X157615Y152029D01*
X157910Y151831D01*
X158258Y151762D01*
X159742D01*
X160090Y151831D01*
X160386Y152029D01*
X161447Y153090D01*
X164589D01*
X166614Y151065D01*
X166910Y150867D01*
X167258Y150798D01*
X169742D01*
X170090Y150867D01*
X170386Y151065D01*
X171435Y152114D01*
X171633Y152410D01*
X171638Y152436D01*
X174643Y155441D01*
X174840Y155736D01*
X174910Y156084D01*
Y176600D01*
X175000Y176674D01*
X175507Y176775D01*
X175509Y176777D01*
X176009Y176509D01*
Y175391D01*
X176147Y174697D01*
X176540Y174109D01*
X177187Y173462D01*
Y147000D01*
X177325Y146306D01*
X177718Y145718D01*
X178306Y145325D01*
X179000Y145187D01*
X180749D01*
X182718Y143218D01*
X183306Y142825D01*
X184000Y142687D01*
X185500D01*
X186194Y142825D01*
X186587Y142915D01*
X186919Y142419D01*
X187415Y142087D01*
X188000Y141971D01*
X188585Y142087D01*
X189081Y142419D01*
X189540Y142464D01*
X189992Y142012D01*
Y141630D01*
X190099Y141090D01*
X190405Y140632D01*
X199792Y131246D01*
X200249Y130940D01*
X200789Y130833D01*
X202055D01*
X202105Y130333D01*
X201960Y130304D01*
X201502Y129998D01*
X201196Y129540D01*
X201089Y129000D01*
X201196Y128460D01*
X201502Y128002D01*
X201572Y127955D01*
X201710Y127259D01*
X202089Y126692D01*
Y126581D01*
X202183Y126109D01*
X202080Y125824D01*
X201965Y125609D01*
X60374D01*
X60300Y126109D01*
X60425Y126146D01*
X61520Y126732D01*
X62480Y127520D01*
X63268Y128480D01*
X63854Y129575D01*
X64214Y130764D01*
X64336Y132000D01*
X64214Y133236D01*
X63854Y134425D01*
X63268Y135520D01*
X62480Y136480D01*
X61520Y137268D01*
X60425Y137854D01*
X59236Y138214D01*
X58000Y138336D01*
X56764Y138214D01*
X55575Y137854D01*
X54480Y137268D01*
X53520Y136480D01*
X52732Y135520D01*
X52146Y134425D01*
X52109Y134300D01*
X51609Y134374D01*
Y219001D01*
X52109Y219025D01*
X52214Y217951D01*
X52666Y216462D01*
X53400Y215090D01*
X54387Y213887D01*
X55590Y212900D01*
X56962Y212166D01*
X58451Y211714D01*
X60000Y211562D01*
X61549Y211714D01*
X63038Y212166D01*
X64410Y212900D01*
X65613Y213887D01*
X66600Y215090D01*
X67334Y216462D01*
X67786Y217951D01*
X67938Y219500D01*
X67786Y221049D01*
X67334Y222538D01*
X66600Y223910D01*
X65613Y225113D01*
X64410Y226100D01*
X63038Y226834D01*
X61549Y227286D01*
X60000Y227438D01*
X58451Y227286D01*
X56962Y226834D01*
X55590Y226100D01*
X54387Y225113D01*
X53400Y223910D01*
X52666Y222538D01*
X52214Y221049D01*
X52109Y219975D01*
X51609Y219999D01*
Y343501D01*
X52109Y343525D01*
X52214Y342451D01*
X52666Y340962D01*
X53400Y339590D01*
X54387Y338387D01*
X55590Y337400D01*
X56962Y336666D01*
X58451Y336214D01*
X60000Y336062D01*
X61549Y336214D01*
X63038Y336666D01*
X64410Y337400D01*
X65613Y338387D01*
X66600Y339590D01*
X67334Y340962D01*
X67786Y342451D01*
X67938Y344000D01*
X67786Y345549D01*
X67334Y347038D01*
X66600Y348410D01*
X65613Y349613D01*
X64410Y350600D01*
X63038Y351334D01*
X61549Y351786D01*
X60000Y351938D01*
X58451Y351786D01*
X56962Y351334D01*
X55590Y350600D01*
X54387Y349613D01*
X53400Y348410D01*
X52666Y347038D01*
X52214Y345549D01*
X52109Y344475D01*
X51609Y344499D01*
Y358125D01*
X52109Y358200D01*
X52146Y358075D01*
X52732Y356980D01*
X53520Y356020D01*
X54480Y355232D01*
X55575Y354646D01*
X56764Y354286D01*
X58000Y354164D01*
X59236Y354286D01*
X60425Y354646D01*
X61520Y355232D01*
X62480Y356020D01*
X63268Y356980D01*
X63854Y358075D01*
X64214Y359264D01*
X64336Y360500D01*
X64214Y361736D01*
X63854Y362925D01*
X63268Y364020D01*
X62480Y364980D01*
X61520Y365768D01*
X60425Y366354D01*
X60300Y366391D01*
X60374Y366892D01*
X506626D01*
X506700Y366391D01*
X506575Y366354D01*
X505480Y365768D01*
X504520Y364980D01*
X503732Y364020D01*
X503146Y362925D01*
X502786Y361736D01*
X502664Y360500D01*
X502786Y359264D01*
X503146Y358075D01*
X503732Y356980D01*
X504520Y356020D01*
X505480Y355232D01*
X506575Y354646D01*
X507764Y354286D01*
X509000Y354164D01*
X510236Y354286D01*
X511425Y354646D01*
X512520Y355232D01*
X513480Y356020D01*
X514268Y356980D01*
X514854Y358075D01*
X515214Y359264D01*
X515336Y360500D01*
X515214Y361736D01*
X514854Y362925D01*
X514268Y364020D01*
X513480Y364980D01*
X512520Y365768D01*
X511425Y366354D01*
X511300Y366391D01*
X511375Y366892D01*
X515892D01*
Y346922D01*
D02*
G37*
G36*
X107818Y240014D02*
X109363Y239862D01*
X111457D01*
X111747Y239362D01*
X111674Y239000D01*
X111775Y238493D01*
X112063Y238063D01*
X112090Y238044D01*
Y231500D01*
X112160Y231152D01*
X112357Y230857D01*
X116439Y226775D01*
X116248Y226313D01*
X114000D01*
X113306Y226175D01*
X112718Y225782D01*
X112325Y225194D01*
X112187Y224500D01*
Y202000D01*
X112325Y201306D01*
X112718Y200718D01*
X112688Y200408D01*
X112630Y200370D01*
X112210Y199741D01*
X112162Y199500D01*
X114000D01*
Y199000D01*
X114500D01*
Y197162D01*
X114741Y197210D01*
X115370Y197630D01*
X115767Y197669D01*
X116896Y196540D01*
X117484Y196147D01*
X118178Y196009D01*
X138266D01*
X138656Y195607D01*
X138680Y195528D01*
X138674Y195500D01*
X138775Y194993D01*
X139063Y194563D01*
X139493Y194275D01*
X140000Y194175D01*
X140507Y194275D01*
X140937Y194563D01*
X141225Y194993D01*
X141325Y195500D01*
X141225Y196007D01*
X140937Y196437D01*
X140628Y196644D01*
X140610Y196702D01*
X140868Y197134D01*
X140931Y197187D01*
X161636D01*
X161791Y196829D01*
X161492Y196393D01*
X160986Y196327D01*
X160427Y196095D01*
X160172Y195899D01*
X158277D01*
X158022Y196095D01*
X157462Y196327D01*
X157362Y196340D01*
Y194087D01*
X156362D01*
Y196340D01*
X156262Y196327D01*
X155703Y196095D01*
X155448Y195899D01*
X153552D01*
X153297Y196095D01*
X152738Y196327D01*
X152638Y196340D01*
Y194087D01*
X151638D01*
Y196340D01*
X151538Y196327D01*
X150978Y196095D01*
X150723Y195899D01*
X148828D01*
X148573Y196095D01*
X148014Y196327D01*
X147913Y196340D01*
Y194087D01*
X147413D01*
Y193587D01*
X145160D01*
X145173Y193486D01*
X145405Y192927D01*
X145601Y192672D01*
Y190777D01*
X145405Y190522D01*
X145173Y189962D01*
X145160Y189862D01*
X147413D01*
Y188862D01*
X145160D01*
X145173Y188762D01*
X145405Y188203D01*
X145601Y187948D01*
Y186052D01*
X145405Y185797D01*
X145173Y185238D01*
X145160Y185138D01*
X147413D01*
Y184138D01*
X145160D01*
X145173Y184038D01*
X145405Y183478D01*
X145601Y183223D01*
Y181328D01*
X145405Y181073D01*
X145181Y180532D01*
X145078Y180489D01*
X144781Y180412D01*
X144655Y180408D01*
X143628Y181435D01*
X143333Y181632D01*
X142985Y181702D01*
X142252D01*
X142209Y181751D01*
X142030Y182202D01*
X142225Y182493D01*
X142325Y183000D01*
X142225Y183507D01*
X141937Y183937D01*
X141507Y184225D01*
X141000Y184326D01*
X140493Y184225D01*
X140063Y183937D01*
X140044Y183910D01*
X118113D01*
X117941Y184180D01*
X117894Y184398D01*
X120085Y186589D01*
X124446D01*
X124467Y186538D01*
X124932Y185932D01*
X125538Y185467D01*
X126243Y185175D01*
X127000Y185075D01*
X127757Y185175D01*
X128463Y185467D01*
X129068Y185932D01*
X129533Y186538D01*
X129825Y187243D01*
X129925Y188000D01*
X129825Y188757D01*
X129533Y189462D01*
X129068Y190068D01*
X128463Y190533D01*
X127757Y190825D01*
X127000Y190925D01*
X126243Y190825D01*
X125538Y190533D01*
X124932Y190068D01*
X124467Y189462D01*
X124446Y189411D01*
X119500D01*
X118960Y189304D01*
X118502Y188998D01*
X104002Y174498D01*
X103696Y174040D01*
X103589Y173500D01*
Y162000D01*
X103696Y161460D01*
X104002Y161002D01*
X104460Y160696D01*
X105000Y160589D01*
X122980D01*
X127070Y156498D01*
X126805Y156056D01*
X126049Y156286D01*
X124500Y156438D01*
X124299Y156418D01*
X108701D01*
X108500Y156438D01*
X108299Y156418D01*
X100618D01*
X100321Y156919D01*
X100338Y157000D01*
X96662D01*
X96679Y156919D01*
X96382Y156418D01*
X84918D01*
Y231220D01*
X93280Y239582D01*
X104628D01*
X106172Y239734D01*
X107457Y240124D01*
X107818Y240014D01*
D02*
G37*
%LPC*%
G36*
X168000Y183338D02*
Y182000D01*
X169338D01*
X169290Y182241D01*
X168870Y182870D01*
X168241Y183290D01*
X168000Y183338D01*
D02*
G37*
G36*
X439343Y165970D02*
X438739Y165850D01*
X438226Y165507D01*
X437883Y164995D01*
X437763Y164390D01*
X437883Y163785D01*
X438226Y163272D01*
X438739Y162930D01*
X439343Y162809D01*
X439948Y162930D01*
X440461Y163272D01*
X440803Y163785D01*
X440924Y164390D01*
X440803Y164995D01*
X440461Y165507D01*
X439948Y165850D01*
X439343Y165970D01*
D02*
G37*
G36*
X434225Y171088D02*
X433621Y170968D01*
X433108Y170625D01*
X432765Y170113D01*
X432645Y169508D01*
X432765Y168903D01*
X433108Y168390D01*
X433621Y168048D01*
X434225Y167928D01*
X434830Y168048D01*
X435343Y168390D01*
X435685Y168903D01*
X435806Y169508D01*
X435685Y170113D01*
X435343Y170625D01*
X434830Y170968D01*
X434225Y171088D01*
D02*
G37*
G36*
X429107D02*
X428502Y170968D01*
X427990Y170625D01*
X427647Y170113D01*
X427527Y169508D01*
X427647Y168903D01*
X427990Y168390D01*
X428502Y168048D01*
X429107Y167928D01*
X429712Y168048D01*
X430225Y168390D01*
X430567Y168903D01*
X430688Y169508D01*
X430567Y170113D01*
X430225Y170625D01*
X429712Y170968D01*
X429107Y171088D01*
D02*
G37*
G36*
X434225Y165970D02*
X433621Y165850D01*
X433108Y165507D01*
X432765Y164995D01*
X432645Y164390D01*
X432765Y163785D01*
X433108Y163272D01*
X433621Y162930D01*
X434225Y162809D01*
X434830Y162930D01*
X435343Y163272D01*
X435685Y163785D01*
X435806Y164390D01*
X435685Y164995D01*
X435343Y165507D01*
X434830Y165850D01*
X434225Y165970D01*
D02*
G37*
G36*
Y160852D02*
X433621Y160732D01*
X433108Y160389D01*
X432765Y159876D01*
X432645Y159272D01*
X432765Y158667D01*
X433108Y158154D01*
X433621Y157812D01*
X434225Y157691D01*
X434830Y157812D01*
X435343Y158154D01*
X435685Y158667D01*
X435806Y159272D01*
X435685Y159876D01*
X435343Y160389D01*
X434830Y160732D01*
X434225Y160852D01*
D02*
G37*
G36*
X439343D02*
X438739Y160732D01*
X438226Y160389D01*
X437883Y159876D01*
X437763Y159272D01*
X437883Y158667D01*
X438226Y158154D01*
X438739Y157812D01*
X439343Y157691D01*
X439948Y157812D01*
X440461Y158154D01*
X440803Y158667D01*
X440924Y159272D01*
X440803Y159876D01*
X440461Y160389D01*
X439948Y160732D01*
X439343Y160852D01*
D02*
G37*
G36*
X429107Y165970D02*
X428502Y165850D01*
X427990Y165507D01*
X427647Y164995D01*
X427527Y164390D01*
X427647Y163785D01*
X427990Y163272D01*
X428502Y162930D01*
X429107Y162809D01*
X429712Y162930D01*
X430225Y163272D01*
X430567Y163785D01*
X430688Y164390D01*
X430567Y164995D01*
X430225Y165507D01*
X429712Y165850D01*
X429107Y165970D01*
D02*
G37*
G36*
X439343Y171088D02*
X438739Y170968D01*
X438226Y170625D01*
X437883Y170113D01*
X437763Y169508D01*
X437883Y168903D01*
X438226Y168390D01*
X438739Y168048D01*
X439343Y167928D01*
X439948Y168048D01*
X440461Y168390D01*
X440803Y168903D01*
X440924Y169508D01*
X440803Y170113D01*
X440461Y170625D01*
X439948Y170968D01*
X439343Y171088D01*
D02*
G37*
G36*
X429500Y196326D02*
X428993Y196225D01*
X428563Y195937D01*
X428275Y195507D01*
X428174Y195000D01*
X428275Y194493D01*
X428563Y194063D01*
X428993Y193775D01*
X429500Y193675D01*
X430007Y193775D01*
X430437Y194063D01*
X430725Y194493D01*
X430826Y195000D01*
X430725Y195507D01*
X430437Y195937D01*
X430007Y196225D01*
X429500Y196326D01*
D02*
G37*
G36*
X439343Y176206D02*
X438739Y176086D01*
X438226Y175743D01*
X437883Y175231D01*
X437763Y174626D01*
X437883Y174021D01*
X438226Y173509D01*
X438739Y173166D01*
X439343Y173046D01*
X439948Y173166D01*
X440461Y173509D01*
X440803Y174021D01*
X440924Y174626D01*
X440803Y175231D01*
X440461Y175743D01*
X439948Y176086D01*
X439343Y176206D01*
D02*
G37*
G36*
X429107D02*
X428502Y176086D01*
X427990Y175743D01*
X427647Y175231D01*
X427527Y174626D01*
X427647Y174021D01*
X427990Y173509D01*
X428502Y173166D01*
X429107Y173046D01*
X429712Y173166D01*
X430225Y173509D01*
X430567Y174021D01*
X430688Y174626D01*
X430567Y175231D01*
X430225Y175743D01*
X429712Y176086D01*
X429107Y176206D01*
D02*
G37*
G36*
X434225D02*
X433621Y176086D01*
X433108Y175743D01*
X432765Y175231D01*
X432645Y174626D01*
X432765Y174021D01*
X433108Y173509D01*
X433621Y173166D01*
X434225Y173046D01*
X434830Y173166D01*
X435343Y173509D01*
X435685Y174021D01*
X435806Y174626D01*
X435685Y175231D01*
X435343Y175743D01*
X434830Y176086D01*
X434225Y176206D01*
D02*
G37*
G36*
X429107Y160852D02*
X428502Y160732D01*
X427990Y160389D01*
X427647Y159876D01*
X427527Y159272D01*
X427647Y158667D01*
X427990Y158154D01*
X428502Y157812D01*
X429107Y157691D01*
X429712Y157812D01*
X430225Y158154D01*
X430567Y158667D01*
X430688Y159272D01*
X430567Y159876D01*
X430225Y160389D01*
X429712Y160732D01*
X429107Y160852D01*
D02*
G37*
G36*
X118500Y135338D02*
X118259Y135290D01*
X117630Y134870D01*
X117210Y134241D01*
X117162Y134000D01*
X118500D01*
Y135338D01*
D02*
G37*
G36*
X329000Y140427D02*
X328454Y140319D01*
X327991Y140009D01*
X327681Y139546D01*
X327573Y139000D01*
X327589Y138919D01*
Y136531D01*
X327573Y136450D01*
X327589Y136369D01*
Y134081D01*
X327573Y134000D01*
X327681Y133454D01*
X327991Y132991D01*
X328454Y132681D01*
X329000Y132573D01*
X329546Y132681D01*
X330009Y132991D01*
X330319Y133454D01*
X330427Y134000D01*
X330411Y134081D01*
Y136369D01*
X330427Y136450D01*
X330411Y136531D01*
Y138919D01*
X330427Y139000D01*
X330319Y139546D01*
X330009Y140009D01*
X329546Y140319D01*
X329000Y140427D01*
D02*
G37*
G36*
X355000Y137326D02*
X354493Y137225D01*
X354063Y136937D01*
X353775Y136507D01*
X353675Y136000D01*
X353775Y135493D01*
X354063Y135063D01*
X354493Y134775D01*
X355000Y134675D01*
X355507Y134775D01*
X355937Y135063D01*
X356225Y135493D01*
X356326Y136000D01*
X356225Y136507D01*
X355937Y136937D01*
X355507Y137225D01*
X355000Y137326D01*
D02*
G37*
G36*
X430000Y134911D02*
X407000D01*
X406460Y134804D01*
X406002Y134498D01*
X405915Y134411D01*
X404526D01*
X404189Y134478D01*
X403852Y134411D01*
X402214D01*
X401877Y134478D01*
X401540Y134411D01*
X399837D01*
X399500Y134478D01*
X398934Y134366D01*
X398455Y134045D01*
X398134Y133566D01*
X398022Y133000D01*
X398134Y132434D01*
X398455Y131955D01*
X398934Y131634D01*
X399500Y131522D01*
X399837Y131589D01*
X401540D01*
X401877Y131522D01*
X402214Y131589D01*
X403852D01*
X404189Y131522D01*
X404526Y131589D01*
X406163D01*
X406500Y131522D01*
X407066Y131634D01*
X407545Y131955D01*
X407635Y132089D01*
X430000D01*
X430540Y132196D01*
X430998Y132502D01*
X431304Y132960D01*
X431411Y133500D01*
X431304Y134040D01*
X430998Y134498D01*
X430540Y134804D01*
X430000Y134911D01*
D02*
G37*
G36*
X435044Y134695D02*
X434537Y134594D01*
X434107Y134307D01*
X433819Y133877D01*
X433719Y133369D01*
X433819Y132862D01*
X434107Y132432D01*
X434537Y132145D01*
X435044Y132044D01*
X435551Y132145D01*
X435981Y132432D01*
X436269Y132862D01*
X436370Y133369D01*
X436269Y133877D01*
X435981Y134307D01*
X435551Y134594D01*
X435044Y134695D01*
D02*
G37*
G36*
X168500Y132921D02*
X167874Y132838D01*
X167290Y132596D01*
X166788Y132212D01*
X166404Y131710D01*
X166162Y131126D01*
X166079Y130500D01*
X166162Y129874D01*
X166404Y129290D01*
X166788Y128788D01*
X167290Y128404D01*
X167874Y128162D01*
X168500Y128079D01*
X169126Y128162D01*
X169710Y128404D01*
X170212Y128788D01*
X170596Y129290D01*
X170838Y129874D01*
X170921Y130500D01*
X170838Y131126D01*
X170596Y131710D01*
X170212Y132212D01*
X169710Y132596D01*
X169126Y132838D01*
X168500Y132921D01*
D02*
G37*
G36*
X256500Y130691D02*
X255993Y130590D01*
X255563Y130303D01*
X255275Y129873D01*
X255174Y129365D01*
X255275Y128858D01*
X255563Y128428D01*
X255993Y128141D01*
X256500Y128040D01*
X257007Y128141D01*
X257437Y128428D01*
X257725Y128858D01*
X257825Y129365D01*
X257725Y129873D01*
X257437Y130303D01*
X257007Y130590D01*
X256500Y130691D01*
D02*
G37*
G36*
X118500Y133000D02*
X117162D01*
X117210Y132759D01*
X117630Y132130D01*
X118259Y131710D01*
X118500Y131662D01*
Y133000D01*
D02*
G37*
G36*
X284500Y134437D02*
X283759Y134290D01*
X283130Y133870D01*
X282710Y133241D01*
X282563Y132500D01*
X282710Y131759D01*
X283130Y131130D01*
X283759Y130710D01*
X284500Y130563D01*
X285241Y130710D01*
X285870Y131130D01*
X286290Y131759D01*
X286437Y132500D01*
X286290Y133241D01*
X285870Y133870D01*
X285241Y134290D01*
X284500Y134437D01*
D02*
G37*
G36*
X343838Y152000D02*
X342500D01*
Y150662D01*
X342741Y150710D01*
X343370Y151130D01*
X343790Y151759D01*
X343838Y152000D01*
D02*
G37*
G36*
X341500D02*
X340162D01*
X340210Y151759D01*
X340630Y151130D01*
X341259Y150710D01*
X341500Y150662D01*
Y152000D01*
D02*
G37*
G36*
X342500Y154338D02*
Y153000D01*
X343838D01*
X343790Y153241D01*
X343370Y153870D01*
X342741Y154290D01*
X342500Y154338D01*
D02*
G37*
G36*
X341500D02*
X341259Y154290D01*
X340630Y153870D01*
X340210Y153241D01*
X340162Y153000D01*
X341500D01*
Y154338D01*
D02*
G37*
G36*
X171000Y145838D02*
Y144500D01*
X172338D01*
X172290Y144741D01*
X171870Y145370D01*
X171241Y145790D01*
X171000Y145838D01*
D02*
G37*
G36*
X475000Y147826D02*
X474493Y147725D01*
X474063Y147437D01*
X473775Y147007D01*
X473674Y146500D01*
X473775Y145993D01*
X474063Y145563D01*
X474493Y145275D01*
X475000Y145175D01*
X475331Y145240D01*
X477490Y143082D01*
Y139828D01*
X477275Y139507D01*
X477175Y139000D01*
X477275Y138493D01*
X477563Y138063D01*
X477993Y137775D01*
X478500Y137674D01*
X479007Y137775D01*
X479437Y138063D01*
X479725Y138493D01*
X479825Y139000D01*
X479725Y139507D01*
X479510Y139828D01*
Y143500D01*
X479433Y143886D01*
X479214Y144214D01*
X476214Y147214D01*
X475983Y147369D01*
X475937Y147437D01*
X475507Y147725D01*
X475000Y147826D01*
D02*
G37*
G36*
X452000Y143425D02*
X451243Y143325D01*
X450537Y143033D01*
X449932Y142568D01*
X449467Y141963D01*
X449175Y141257D01*
X449075Y140500D01*
X449175Y139743D01*
X449467Y139038D01*
X449932Y138432D01*
X450537Y137967D01*
X451243Y137675D01*
X452000Y137575D01*
X452757Y137675D01*
X453463Y137967D01*
X454068Y138432D01*
X454533Y139038D01*
X454825Y139743D01*
X454925Y140500D01*
X454825Y141257D01*
X454533Y141963D01*
X454068Y142568D01*
X453463Y143033D01*
X452757Y143325D01*
X452000Y143425D01*
D02*
G37*
G36*
X172338Y143500D02*
X171000D01*
Y142162D01*
X171241Y142210D01*
X171870Y142630D01*
X172290Y143259D01*
X172338Y143500D01*
D02*
G37*
G36*
X170000Y145838D02*
X169759Y145790D01*
X169130Y145370D01*
X168710Y144741D01*
X168649Y144436D01*
X158623Y134410D01*
X120677D01*
X120370Y134870D01*
X119741Y135290D01*
X119500Y135338D01*
Y133500D01*
Y131662D01*
X119741Y131710D01*
X120370Y132130D01*
X120677Y132590D01*
X159000D01*
X159348Y132660D01*
X159643Y132857D01*
X169302Y142516D01*
X169759Y142210D01*
X170000Y142162D01*
Y144000D01*
Y145838D01*
D02*
G37*
G36*
X420838Y313000D02*
X419500D01*
Y311662D01*
X419741Y311710D01*
X420370Y312130D01*
X420790Y312759D01*
X420838Y313000D01*
D02*
G37*
G36*
X418500D02*
X417162D01*
X417210Y312759D01*
X417630Y312130D01*
X418259Y311710D01*
X418500Y311662D01*
Y313000D01*
D02*
G37*
G36*
X324338Y313500D02*
X323000D01*
Y312162D01*
X323241Y312210D01*
X323870Y312630D01*
X324290Y313259D01*
X324338Y313500D01*
D02*
G37*
G36*
X322000D02*
X320662D01*
X320710Y313259D01*
X321130Y312630D01*
X321759Y312210D01*
X322000Y312162D01*
Y313500D01*
D02*
G37*
G36*
X376000Y299325D02*
X375493Y299225D01*
X375063Y298937D01*
X374775Y298507D01*
X374675Y298000D01*
X374775Y297493D01*
X375063Y297063D01*
X375493Y296775D01*
X376000Y296674D01*
X376507Y296775D01*
X376937Y297063D01*
X377225Y297493D01*
X377326Y298000D01*
X377225Y298507D01*
X376937Y298937D01*
X376507Y299225D01*
X376000Y299325D01*
D02*
G37*
G36*
X310703Y295500D02*
X307250D01*
Y292047D01*
X310703D01*
Y295500D01*
D02*
G37*
G36*
X306250D02*
X302797D01*
Y292047D01*
X306250D01*
Y295500D01*
D02*
G37*
G36*
X310703Y299953D02*
X307250D01*
Y296500D01*
X310703D01*
Y299953D01*
D02*
G37*
G36*
X306250D02*
X302797D01*
Y296500D01*
X306250D01*
Y299953D01*
D02*
G37*
G36*
X335500Y320338D02*
Y319000D01*
X336838D01*
X336790Y319241D01*
X336370Y319870D01*
X335741Y320290D01*
X335500Y320338D01*
D02*
G37*
G36*
X475000Y318500D02*
X473662D01*
X473710Y318259D01*
X474130Y317630D01*
X474759Y317210D01*
X475000Y317162D01*
Y318500D01*
D02*
G37*
G36*
X77500Y353938D02*
X75951Y353786D01*
X74462Y353334D01*
X73090Y352600D01*
X71887Y351613D01*
X70900Y350410D01*
X70166Y349038D01*
X69714Y347549D01*
X69562Y346000D01*
X69714Y344451D01*
X70166Y342962D01*
X70900Y341590D01*
X71887Y340387D01*
X73090Y339400D01*
X74462Y338666D01*
X75010Y338500D01*
Y338000D01*
X74462Y337834D01*
X73090Y337100D01*
X71887Y336113D01*
X70900Y334910D01*
X70166Y333538D01*
X69714Y332049D01*
X69562Y330500D01*
X69714Y328951D01*
X70166Y327462D01*
X70900Y326090D01*
X71887Y324887D01*
X73090Y323900D01*
X74462Y323166D01*
X75951Y322714D01*
X77500Y322562D01*
X79049Y322714D01*
X80538Y323166D01*
X81910Y323900D01*
X83113Y324887D01*
X84100Y326090D01*
X84834Y327462D01*
X85286Y328951D01*
X85438Y330500D01*
X85286Y332049D01*
X84834Y333538D01*
X84100Y334910D01*
X83113Y336113D01*
X81910Y337100D01*
X80538Y337834D01*
X79991Y338000D01*
Y338500D01*
X80538Y338666D01*
X81910Y339400D01*
X83113Y340387D01*
X84100Y341590D01*
X84834Y342962D01*
X85286Y344451D01*
X85438Y346000D01*
X85286Y347549D01*
X84834Y349038D01*
X84100Y350410D01*
X83113Y351613D01*
X81910Y352600D01*
X80538Y353334D01*
X79049Y353786D01*
X77500Y353938D01*
D02*
G37*
G36*
X475000Y320838D02*
X474759Y320790D01*
X474130Y320370D01*
X473710Y319741D01*
X473662Y319500D01*
X475000D01*
Y320838D01*
D02*
G37*
G36*
X476000D02*
Y319000D01*
Y317162D01*
X476241Y317210D01*
X476870Y317630D01*
X477177Y318090D01*
X479277D01*
X480171Y317196D01*
X480162Y317154D01*
X481500D01*
Y318491D01*
X481457Y318483D01*
X480297Y319643D01*
X480002Y319840D01*
X479654Y319910D01*
X477177D01*
X476870Y320370D01*
X476241Y320790D01*
X476000Y320838D01*
D02*
G37*
G36*
X322000Y315838D02*
X321759Y315790D01*
X321130Y315370D01*
X320710Y314741D01*
X320662Y314500D01*
X322000D01*
Y315838D01*
D02*
G37*
G36*
X419500Y315338D02*
Y314000D01*
X420838D01*
X420790Y314241D01*
X420370Y314870D01*
X419741Y315290D01*
X419500Y315338D01*
D02*
G37*
G36*
X336838Y318000D02*
X335500D01*
Y316662D01*
X335741Y316710D01*
X336370Y317130D01*
X336790Y317759D01*
X336838Y318000D01*
D02*
G37*
G36*
X334500Y320410D02*
X328000D01*
X327652Y320340D01*
X327357Y320143D01*
X323043Y315829D01*
X323000Y315838D01*
Y314500D01*
X324338D01*
X324329Y314543D01*
X328377Y318590D01*
X332989D01*
X333063Y318500D01*
X333210Y317759D01*
X333630Y317130D01*
X334259Y316710D01*
X334500Y316662D01*
Y318500D01*
Y320410D01*
D02*
G37*
G36*
X175000Y296425D02*
X174243Y296325D01*
X173538Y296033D01*
X172932Y295568D01*
X172467Y294963D01*
X172175Y294257D01*
X172075Y293500D01*
X172175Y292743D01*
X172467Y292038D01*
X172932Y291432D01*
X173538Y290967D01*
X174243Y290675D01*
X175000Y290575D01*
X175757Y290675D01*
X176462Y290967D01*
X177068Y291432D01*
X177533Y292038D01*
X177825Y292743D01*
X177925Y293500D01*
X177825Y294257D01*
X177533Y294963D01*
X177068Y295568D01*
X176462Y296033D01*
X175757Y296325D01*
X175000Y296425D01*
D02*
G37*
G36*
X341500Y236326D02*
X340993Y236225D01*
X340563Y235937D01*
X340275Y235507D01*
X340175Y235000D01*
X340275Y234493D01*
X340563Y234063D01*
X340993Y233775D01*
X341500Y233675D01*
X342007Y233775D01*
X342437Y234063D01*
X342725Y234493D01*
X342826Y235000D01*
X342725Y235507D01*
X342437Y235937D01*
X342007Y236225D01*
X341500Y236326D01*
D02*
G37*
G36*
X135000Y228825D02*
X134493Y228725D01*
X134063Y228437D01*
X133775Y228007D01*
X133675Y227500D01*
X133681Y227467D01*
X132857Y226643D01*
X132660Y226348D01*
X132590Y226000D01*
X132660Y225652D01*
X132857Y225357D01*
X133215Y224998D01*
Y219772D01*
X133188Y219753D01*
X132900Y219323D01*
X132799Y218816D01*
X132900Y218309D01*
X133188Y217879D01*
X133618Y217591D01*
X134125Y217490D01*
X134632Y217591D01*
X135062Y217879D01*
X135350Y218309D01*
X135450Y218816D01*
X135350Y219323D01*
X135062Y219753D01*
X135035Y219772D01*
Y225375D01*
X134970Y225698D01*
X134973Y225737D01*
X135234Y226221D01*
X135507Y226275D01*
X135937Y226563D01*
X136225Y226993D01*
X136326Y227500D01*
X136225Y228007D01*
X135937Y228437D01*
X135507Y228725D01*
X135000Y228825D01*
D02*
G37*
G36*
X491338Y243500D02*
X490000D01*
Y242162D01*
X490241Y242210D01*
X490870Y242630D01*
X491290Y243259D01*
X491338Y243500D01*
D02*
G37*
G36*
X489000D02*
X487662D01*
X487710Y243259D01*
X488130Y242630D01*
X488759Y242210D01*
X489000Y242162D01*
Y243500D01*
D02*
G37*
G36*
X135000Y205825D02*
X134493Y205725D01*
X134063Y205437D01*
X134044Y205410D01*
X134000D01*
X133652Y205340D01*
X133357Y205143D01*
X132123Y203910D01*
X119956D01*
X119937Y203937D01*
X119507Y204225D01*
X119000Y204326D01*
X118493Y204225D01*
X118063Y203937D01*
X117775Y203507D01*
X117675Y203000D01*
X117775Y202493D01*
X118063Y202063D01*
X118493Y201775D01*
X119000Y201675D01*
X119507Y201775D01*
X119937Y202063D01*
X119956Y202090D01*
X132500D01*
X132848Y202160D01*
X133143Y202357D01*
X134234Y203448D01*
X134493Y203275D01*
X135000Y203174D01*
X135507Y203275D01*
X135937Y203563D01*
X136225Y203993D01*
X136326Y204500D01*
X136225Y205007D01*
X135937Y205437D01*
X135507Y205725D01*
X135000Y205825D01*
D02*
G37*
G36*
X439500Y199326D02*
X438993Y199225D01*
X438563Y198937D01*
X438275Y198507D01*
X438174Y198000D01*
X438275Y197493D01*
X438563Y197063D01*
X438993Y196775D01*
X439500Y196675D01*
X440007Y196775D01*
X440437Y197063D01*
X440725Y197493D01*
X440826Y198000D01*
X440725Y198507D01*
X440437Y198937D01*
X440007Y199225D01*
X439500Y199326D01*
D02*
G37*
G36*
X464776Y302138D02*
X463227Y301986D01*
X461738Y301534D01*
X460365Y300800D01*
X459162Y299813D01*
X458175Y298610D01*
X457442Y297238D01*
X456990Y295749D01*
X456837Y294200D01*
X456990Y292651D01*
X457442Y291162D01*
X458175Y289790D01*
X459162Y288587D01*
X460365Y287600D01*
X461738Y286866D01*
X463227Y286414D01*
X463766Y286361D01*
Y257194D01*
X405872Y199300D01*
X405493Y199225D01*
X405063Y198937D01*
X404775Y198507D01*
X404674Y198000D01*
X404775Y197493D01*
X405063Y197063D01*
X405493Y196775D01*
X406000Y196675D01*
X406507Y196775D01*
X406937Y197063D01*
X407225Y197493D01*
X407300Y197872D01*
X465490Y256062D01*
X465709Y256389D01*
X465786Y256776D01*
Y286361D01*
X466324Y286414D01*
X467813Y286866D01*
X469186Y287600D01*
X470389Y288587D01*
X471376Y289790D01*
X472110Y291162D01*
X472561Y292651D01*
X472714Y294200D01*
X472561Y295749D01*
X472110Y297238D01*
X471376Y298610D01*
X470389Y299813D01*
X469186Y300800D01*
X467813Y301534D01*
X466324Y301986D01*
X464776Y302138D01*
D02*
G37*
G36*
X158100Y298603D02*
X156551Y298450D01*
X155062Y297998D01*
X153690Y297265D01*
X152487Y296278D01*
X151500Y295075D01*
X150766Y293702D01*
X150314Y292213D01*
X150162Y290665D01*
X150314Y289116D01*
X150766Y287627D01*
X151500Y286254D01*
X152487Y285051D01*
X153690Y284064D01*
X155062Y283331D01*
X156551Y282879D01*
X158100Y282726D01*
X159649Y282879D01*
X161138Y283331D01*
X162510Y284064D01*
X163713Y285051D01*
X164700Y286254D01*
X165434Y287627D01*
X165886Y289116D01*
X166038Y290665D01*
X165886Y292213D01*
X165434Y293702D01*
X164700Y295075D01*
X163713Y296278D01*
X162510Y297265D01*
X161138Y297998D01*
X159649Y298450D01*
X158100Y298603D01*
D02*
G37*
G36*
X306750Y289382D02*
X305875Y289266D01*
X305059Y288929D01*
X304359Y288391D01*
X303821Y287691D01*
X303484Y286875D01*
X303368Y286000D01*
X303484Y285125D01*
X303821Y284309D01*
X304359Y283609D01*
X305059Y283071D01*
X305875Y282734D01*
X306750Y282618D01*
X307625Y282734D01*
X308441Y283071D01*
X309141Y283609D01*
X309679Y284309D01*
X310016Y285125D01*
X310132Y286000D01*
X310016Y286875D01*
X309679Y287691D01*
X309141Y288391D01*
X308441Y288929D01*
X307625Y289266D01*
X306750Y289382D01*
D02*
G37*
G36*
X413276Y302138D02*
X411727Y301986D01*
X410238Y301534D01*
X408865Y300800D01*
X407662Y299813D01*
X406675Y298610D01*
X405942Y297238D01*
X405490Y295749D01*
X405337Y294200D01*
X405490Y292651D01*
X405942Y291162D01*
X406675Y289790D01*
X407662Y288587D01*
X408865Y287600D01*
X410238Y286866D01*
X411727Y286414D01*
X413276Y286262D01*
X414824Y286414D01*
X416313Y286866D01*
X417686Y287600D01*
X418889Y288587D01*
X419876Y289790D01*
X420610Y291162D01*
X421061Y292651D01*
X421214Y294200D01*
X421061Y295749D01*
X420610Y297238D01*
X419876Y298610D01*
X418889Y299813D01*
X417686Y300800D01*
X416313Y301534D01*
X414824Y301986D01*
X413276Y302138D01*
D02*
G37*
G36*
X175000Y289425D02*
X174243Y289325D01*
X173538Y289033D01*
X172932Y288568D01*
X172467Y287963D01*
X172175Y287257D01*
X172075Y286500D01*
X172175Y285743D01*
X172467Y285037D01*
X172932Y284432D01*
X173538Y283967D01*
X174243Y283675D01*
X175000Y283575D01*
X175757Y283675D01*
X176462Y283967D01*
X177068Y284432D01*
X177533Y285037D01*
X177825Y285743D01*
X177925Y286500D01*
X177825Y287257D01*
X177533Y287963D01*
X177068Y288568D01*
X176462Y289033D01*
X175757Y289325D01*
X175000Y289425D01*
D02*
G37*
G36*
X306750Y279382D02*
X305875Y279266D01*
X305059Y278929D01*
X304359Y278391D01*
X303821Y277691D01*
X303484Y276875D01*
X303368Y276000D01*
X303484Y275125D01*
X303821Y274309D01*
X304359Y273609D01*
X305059Y273071D01*
X305875Y272734D01*
X306750Y272618D01*
X307625Y272734D01*
X308441Y273071D01*
X309141Y273609D01*
X309679Y274309D01*
X310016Y275125D01*
X310132Y276000D01*
X310016Y276875D01*
X309679Y277691D01*
X309141Y278391D01*
X308441Y278929D01*
X307625Y279266D01*
X306750Y279382D01*
D02*
G37*
G36*
X490000Y245838D02*
Y244500D01*
X491338D01*
X491290Y244741D01*
X490870Y245370D01*
X490241Y245790D01*
X490000Y245838D01*
D02*
G37*
G36*
X489000D02*
X488759Y245790D01*
X488130Y245370D01*
X487710Y244741D01*
X487662Y244500D01*
X489000D01*
Y245838D01*
D02*
G37*
G36*
X331158Y273325D02*
X330651Y273225D01*
X330221Y272937D01*
X329934Y272507D01*
X329833Y272000D01*
X329934Y271493D01*
X330221Y271063D01*
X330651Y270775D01*
X331158Y270674D01*
X331665Y270775D01*
X332096Y271063D01*
X332383Y271493D01*
X332484Y272000D01*
X332383Y272507D01*
X332096Y272937D01*
X331665Y273225D01*
X331158Y273325D01*
D02*
G37*
G36*
X305000Y269826D02*
X304493Y269725D01*
X304063Y269437D01*
X303775Y269007D01*
X303675Y268500D01*
X303775Y267993D01*
X304063Y267563D01*
X304493Y267275D01*
X305000Y267175D01*
X305507Y267275D01*
X305937Y267563D01*
X306225Y267993D01*
X306326Y268500D01*
X306225Y269007D01*
X305937Y269437D01*
X305507Y269725D01*
X305000Y269826D01*
D02*
G37*
G36*
X146913Y196340D02*
X146813Y196327D01*
X146254Y196095D01*
X145774Y195726D01*
X145405Y195246D01*
X145173Y194687D01*
X145160Y194587D01*
X146913D01*
Y196340D01*
D02*
G37*
G36*
X90500Y186326D02*
X89993Y186225D01*
X89563Y185937D01*
X89275Y185507D01*
X89174Y185000D01*
X89275Y184493D01*
X89563Y184063D01*
X89590Y184044D01*
Y174314D01*
X89500Y173826D01*
X88993Y173725D01*
X88563Y173437D01*
X88275Y173007D01*
X88174Y172500D01*
X88275Y171993D01*
X88563Y171563D01*
X88993Y171275D01*
X89500Y171175D01*
X90007Y171275D01*
X90437Y171563D01*
X90725Y171993D01*
X90825Y172500D01*
X90819Y172533D01*
X91143Y172857D01*
X91340Y173152D01*
X91410Y173500D01*
Y184044D01*
X91437Y184063D01*
X91725Y184493D01*
X91825Y185000D01*
X91725Y185507D01*
X91437Y185937D01*
X91007Y186225D01*
X90500Y186326D01*
D02*
G37*
G36*
X104626Y212411D02*
X104086Y212304D01*
X103628Y211998D01*
X103502Y211872D01*
X103196Y211414D01*
X103089Y210874D01*
Y208250D01*
Y205625D01*
Y200000D01*
X103196Y199460D01*
X103502Y199002D01*
X103960Y198696D01*
X104500Y198589D01*
X105040Y198696D01*
X105498Y199002D01*
X105804Y199460D01*
X105911Y200000D01*
Y202522D01*
X105975Y202618D01*
X106076Y203125D01*
X105975Y203632D01*
X105911Y203728D01*
Y205625D01*
Y210432D01*
X105930Y210460D01*
X106037Y211000D01*
X105930Y211540D01*
X105624Y211998D01*
X105166Y212304D01*
X104626Y212411D01*
D02*
G37*
G36*
X113500Y198500D02*
X112162D01*
X112171Y198457D01*
X97857Y184143D01*
X97660Y183848D01*
X97590Y183500D01*
Y159177D01*
X97130Y158870D01*
X96710Y158241D01*
X96662Y158000D01*
X100338D01*
X100290Y158241D01*
X99870Y158870D01*
X99410Y159177D01*
Y183123D01*
X113457Y197171D01*
X113500Y197162D01*
Y198500D01*
D02*
G37*
%LPD*%
D45*
X328000Y319500D02*
X335000D01*
X159000Y133500D02*
X170000Y144500D01*
X277000Y284000D02*
X295500Y302500D01*
X113000Y231500D02*
Y239000D01*
Y231500D02*
X117730Y226770D01*
X98500Y157500D02*
Y183500D01*
X107500Y172500D02*
X118000Y183000D01*
X168500Y196000D02*
Y240500D01*
X166500Y242500D02*
X168500Y240500D01*
X467500Y319000D02*
X468500D01*
X454000Y332500D02*
X467500Y319000D01*
X432943Y279974D02*
X434292Y281323D01*
Y300742D01*
X432943Y278443D02*
Y279974D01*
X396000Y241500D02*
X432943Y278443D01*
X132500Y203000D02*
X134000Y204500D01*
X135000D01*
X279000Y178000D02*
X292000Y191000D01*
X174000Y156084D02*
Y178000D01*
X153090Y153090D02*
X154500D01*
X152000Y152000D02*
X153090Y153090D01*
X154500D02*
X156020D01*
X156929Y154000D01*
X165708Y188242D02*
X168500Y191034D01*
X142465Y175931D02*
X144035Y177500D01*
X139191Y178740D02*
X141243Y180792D01*
X144035Y177500D02*
Y179742D01*
X141243Y180792D02*
X142985D01*
X118000Y183000D02*
X141000D01*
X142985Y180792D02*
X144035Y179742D01*
X142465Y174418D02*
Y175931D01*
X166500Y242500D02*
X169000Y245000D01*
X168500Y191000D02*
Y191034D01*
X169000Y153500D02*
Y180000D01*
X150884Y166000D02*
X165708Y180824D01*
X168500Y245500D02*
X169000Y245000D01*
X168500Y245500D02*
X180000Y257000D01*
X366000Y199000D02*
Y200000D01*
Y199000D02*
X366500Y198500D01*
X354000Y195658D02*
X366342D01*
X366500Y195500D01*
X354500Y198500D02*
Y199000D01*
X354000Y199500D02*
X354500Y199000D01*
X278500Y178500D02*
X279000Y178000D01*
X333000Y193500D02*
X333500D01*
X119000Y203000D02*
X132500D01*
X122440Y226770D02*
X123770Y225440D01*
Y222270D02*
Y225440D01*
X117730Y226770D02*
X122440D01*
X123000Y221500D02*
X123770Y222270D01*
X133500Y226000D02*
X135000Y227500D01*
X98500Y183500D02*
X114000Y199000D01*
X180000Y257000D02*
X183000D01*
X181000Y190119D02*
Y251500D01*
X180208Y189327D02*
X181000Y190119D01*
X183500Y179000D02*
Y186034D01*
X181000Y176500D02*
X183500Y179000D01*
X159742Y152672D02*
X161071Y154000D01*
X156929D02*
X158258Y152672D01*
X161071Y154000D02*
X164966D01*
X158258Y152672D02*
X159742D01*
X174000Y178000D02*
X175000D01*
X180500Y176500D02*
X181000D01*
X167500Y181500D02*
X169000Y180000D01*
X165708Y180824D02*
Y188242D01*
X180208Y189327D02*
X183500Y186034D01*
X170792Y152876D02*
X174000Y156084D01*
X170792Y152758D02*
Y152876D01*
X169742Y151708D02*
X170792Y152758D01*
X167258Y151708D02*
X169742D01*
X170000Y144500D02*
X170500Y144000D01*
X294292Y303708D02*
X295500Y302500D01*
X294292Y303708D02*
Y303742D01*
X285661Y312373D02*
X294292Y303742D01*
X184776Y312373D02*
X285661D01*
X475500Y319000D02*
X479654D01*
X482000Y316654D01*
X416000Y316500D02*
X419000Y313500D01*
X392000Y316500D02*
X416000D01*
X335000Y318500D02*
Y319500D01*
X322500Y314000D02*
X328000Y319500D01*
X392000Y245500D02*
X432500Y286000D01*
X364792Y211544D02*
Y235742D01*
X364500Y236034D02*
X364792Y235742D01*
X331000Y258000D02*
X339536Y249464D01*
X285500Y258000D02*
X331000D01*
X329535Y254000D02*
X337292Y246242D01*
X287542Y254000D02*
X329535D01*
X337292Y243708D02*
X338000Y243000D01*
X337292Y243708D02*
Y246242D01*
X331000Y272000D02*
X331158D01*
X354632Y201384D02*
X364792Y211544D01*
X364500Y236034D02*
Y281598D01*
X372552Y289651D01*
X339536Y248558D02*
X353094Y235000D01*
X354000D01*
X339536Y248558D02*
Y249464D01*
X358708Y277764D02*
X371168Y290224D01*
X358708Y234758D02*
Y277764D01*
Y234758D02*
X360500Y232965D01*
Y210000D02*
Y232965D01*
X183903Y311500D02*
X184776Y312373D01*
X277000Y258000D02*
Y284000D01*
X282000Y266035D02*
Y266500D01*
X277000Y258000D02*
X282500Y252500D01*
X309000D01*
X318000Y243500D01*
X282000Y259542D02*
X287542Y254000D01*
X283792Y259708D02*
X285500Y258000D01*
X283792Y259708D02*
Y264242D01*
X282000Y266035D02*
X283792Y264242D01*
X282000Y259542D02*
Y263500D01*
X398000Y332500D02*
X454000D01*
X391000Y320000D02*
X463500D01*
X465000Y318000D02*
Y318500D01*
X463500Y320000D02*
X465000Y318500D01*
X372552Y301552D02*
X391000Y320000D01*
X371168Y305668D02*
X398000Y332500D01*
X371168Y290224D02*
Y305668D01*
X372552Y289651D02*
Y301552D01*
X353850Y201384D02*
X354632D01*
X352208Y199742D02*
X353850Y201384D01*
X352208Y198960D02*
Y199742D01*
X350874Y197626D02*
X352208Y198960D01*
X349620Y199484D02*
X349984D01*
X360500Y210000D01*
X440000Y270000D02*
Y303000D01*
X405500Y235500D02*
X440000Y270000D01*
X354000Y199500D02*
X354500Y200000D01*
X366000D01*
X360000Y186500D02*
X366000D01*
X366500Y186000D01*
X354000Y191500D02*
X354500Y191000D01*
X366500D01*
X134125Y218816D02*
Y225375D01*
X133500Y226000D02*
X134125Y225375D01*
X434000Y301034D02*
Y303000D01*
Y301034D02*
X434292Y300742D01*
X432500Y286000D02*
Y300000D01*
X164966Y154000D02*
X167258Y151708D01*
X131500Y213000D02*
X133548D01*
X123000Y221500D02*
X131500Y213000D01*
X111000Y167000D02*
X111021Y167021D01*
X111000Y167000D02*
X112000Y166000D01*
X111021Y167021D02*
Y171000D01*
X119000Y133500D02*
X159000D01*
X150192Y153808D02*
X152000Y152000D01*
X112000Y166000D02*
X126888D01*
X142465Y174418D02*
X150884Y166000D01*
X138428Y153808D02*
X150192D01*
X126888Y166000D02*
X139191Y178302D01*
Y178740D01*
X90500Y173500D02*
Y185000D01*
X89500Y172500D02*
X90500Y173500D01*
X82500Y275000D02*
Y276500D01*
X117500Y311500D01*
X183903D01*
D47*
X393682Y149625D02*
X394455Y148853D01*
X392116Y149625D02*
X393682D01*
X394455Y148853D02*
Y148853D01*
X391461Y151206D02*
X399958D01*
X390806Y152787D02*
X401847D01*
X390151Y154368D02*
X402939D01*
X389496Y155950D02*
X404601D01*
X399304Y149625D02*
X400695Y148233D01*
X395227Y149625D02*
X399304D01*
X394455Y148853D02*
X395227Y149625D01*
X391267Y144513D02*
X398775D01*
X398500Y144239D02*
X398775Y144513D01*
X220500Y194440D02*
X223560Y197500D01*
X224000D01*
X235000Y265000D02*
Y310000D01*
X202102Y232102D02*
X235000Y265000D01*
X234674Y310000D02*
X235000D01*
X195139Y144746D02*
X199241Y140643D01*
X285947Y140947D02*
X309000Y164000D01*
X283028Y142528D02*
X306610Y166109D01*
X282373Y144109D02*
X305955Y167691D01*
X281764Y146000D02*
X315292Y179528D01*
X230717Y144109D02*
X282373D01*
X230062Y142528D02*
X283028D01*
X229407Y140947D02*
X285947D01*
X229382Y140972D02*
X229407Y140947D01*
X228757Y140972D02*
X229382D01*
X230037Y142553D02*
X230062Y142528D01*
X228102Y142553D02*
X230037D01*
X230692Y144134D02*
X230717Y144109D01*
X227447Y144134D02*
X230692D01*
X231500Y146000D02*
X281764D01*
X136346Y173361D02*
X141985Y179000D01*
X142243D01*
X396914Y186978D02*
X397000Y187064D01*
X196764Y139062D02*
X203278D01*
X193378Y142448D02*
Y143415D01*
X195139Y143361D02*
Y144746D01*
Y143361D02*
X195500Y143000D01*
X193378Y142448D02*
X196764Y139062D01*
X193007Y143786D02*
X193378Y143415D01*
X193007Y143786D02*
X193007D01*
X193007D02*
X193145Y143924D01*
Y144812D01*
X190612Y147345D02*
X193145Y144812D01*
X212453Y142392D02*
X215398Y139447D01*
X213081Y144000D02*
X216053Y141028D01*
X218760Y145368D02*
X221519Y142609D01*
X225139Y147062D02*
X229055Y150978D01*
X221519Y142609D02*
X225922D01*
X227447Y144134D01*
X216053Y141028D02*
X226577D01*
X215398Y139447D02*
X227232D01*
X228757Y140972D01*
X226577Y141028D02*
X228102Y142553D01*
X225139Y144500D02*
Y147062D01*
X418412Y185696D02*
Y187912D01*
X379500Y197659D02*
Y303000D01*
X381500Y197895D02*
Y236000D01*
X396914Y184717D02*
Y186978D01*
X381500Y197895D02*
X397367Y182028D01*
X379500Y197659D02*
X396712Y180447D01*
X400938Y182724D02*
X415440D01*
X402341Y177419D02*
X414031D01*
X402208Y177285D02*
X402341Y177419D01*
X395402Y177285D02*
X402208D01*
X395268Y177419D02*
X395402Y177285D01*
X382878Y177419D02*
X395268D01*
X401686Y179000D02*
X421500D01*
X401553Y178866D02*
X401686Y179000D01*
X396057Y178866D02*
X401553D01*
X395923Y179000D02*
X396057Y178866D01*
X382224Y179000D02*
X395923D01*
X401593Y181142D02*
X416095D01*
X400898Y180447D02*
X401593Y181142D01*
X396712Y180447D02*
X400898D01*
X400243Y182028D02*
X400938Y182724D01*
X397367Y182028D02*
X400243D01*
X400283Y184305D02*
X403462D01*
X399588Y183609D02*
X400283Y184305D01*
X398022Y183609D02*
X399588D01*
X396914Y184717D02*
X398022Y183609D01*
X398805Y185500D02*
Y202805D01*
X399836Y142662D02*
X401798D01*
X399283Y142109D02*
X399836Y142662D01*
X397717Y142109D02*
X399283D01*
X397164Y142662D02*
X397717Y142109D01*
X391652Y142662D02*
X397164D01*
X398500Y144000D02*
Y144239D01*
X380183Y139709D02*
X403883D01*
X379528Y138128D02*
X419156D01*
X378873Y136547D02*
X419811D01*
X380000Y139893D02*
X380183Y139709D01*
X403883D02*
X406601Y142427D01*
X379345Y138312D02*
X379528Y138128D01*
X419156D02*
X428254Y147226D01*
X378690Y136731D02*
X378873Y136547D01*
X419811D02*
X429835Y146571D01*
X400695Y145997D02*
Y148233D01*
X399958Y151206D02*
X402664Y148501D01*
X401847Y152787D02*
X408647Y145987D01*
X402939Y154368D02*
X410046Y147261D01*
X406000Y157500D02*
X415793Y147707D01*
X406000Y157500D02*
Y162000D01*
X371500D02*
X406000D01*
X411500Y155000D02*
Y167000D01*
X369500D02*
X411500D01*
X416000Y158373D02*
Y175450D01*
Y158373D02*
X423194Y151179D01*
X421500Y158500D02*
X428596Y151404D01*
X421500Y158500D02*
Y179000D01*
X402664Y144470D02*
Y148501D01*
X401959Y142502D02*
X404002D01*
X401798Y142662D02*
X401959Y142502D01*
X217266Y195000D02*
X226372Y185895D01*
X208632Y195000D02*
X217266D01*
X220500Y194440D02*
X224414Y190525D01*
X226372Y185895D02*
X245895D01*
X212564Y193109D02*
X218683Y186991D01*
X204217Y193109D02*
X212564D01*
X190515Y193991D02*
Y213143D01*
X189284Y214374D02*
X190515Y213143D01*
X189284Y214374D02*
X191000Y216090D01*
X202102Y195224D02*
X204217Y193109D01*
X202102Y195224D02*
Y232102D01*
X203993Y196007D02*
Y196725D01*
Y196007D02*
X205053Y194947D01*
X203000Y188000D02*
Y188218D01*
X200891Y189064D02*
X202152Y190325D01*
X200891Y185717D02*
Y189064D01*
X202152Y190325D02*
X211848D01*
X199000Y186500D02*
Y231236D01*
X198217Y184609D02*
X199783D01*
X197109Y185717D02*
X198217Y184609D01*
X197109Y185717D02*
Y214891D01*
X186756Y225244D02*
X197109Y214891D01*
X195000Y186500D02*
Y214326D01*
X205053Y194947D02*
X208580D01*
X208632Y195000D01*
X203000Y188218D02*
X203076Y188294D01*
X337991Y193903D02*
X339501Y192393D01*
X337991Y193903D02*
Y204318D01*
X338376Y189720D02*
X338393D01*
X337991Y189335D02*
X338376Y189720D01*
X347730Y197581D02*
Y200267D01*
Y197581D02*
X348987Y196323D01*
Y193839D02*
Y196323D01*
Y193839D02*
X353217Y189609D01*
X347406Y193184D02*
X352562Y188028D01*
X347406Y193184D02*
Y195668D01*
X346149Y196925D02*
X347406Y195668D01*
X346149Y196925D02*
Y200922D01*
X344567Y196271D02*
Y201576D01*
Y196271D02*
X345825Y195013D01*
Y192529D02*
Y195013D01*
Y192529D02*
X351907Y186447D01*
X344244Y191874D02*
X351252Y184866D01*
X344244Y191874D02*
Y194358D01*
X342986Y195616D02*
X344244Y194358D01*
X342986Y195616D02*
Y202231D01*
X341405Y194961D02*
Y202886D01*
Y194961D02*
X342663Y193703D01*
Y189517D02*
Y193703D01*
X341405Y188260D02*
X342663Y189517D01*
X341405Y188095D02*
Y188260D01*
X339572Y194558D02*
Y203663D01*
Y194558D02*
X341082Y193048D01*
Y190172D02*
Y193048D01*
X339572Y188663D02*
X341082Y190172D01*
X339572Y187692D02*
Y188663D01*
X339501Y190827D02*
Y192393D01*
X338393Y189720D02*
X339501Y190827D01*
X336410Y194320D02*
Y201090D01*
X335028Y192938D02*
X336410Y194320D01*
X335028Y190062D02*
Y192938D01*
Y190062D02*
X336410Y188680D01*
Y186354D02*
Y188680D01*
X199000Y231236D02*
X233000Y265236D01*
X203076Y188294D02*
X207620D01*
X204903Y186403D02*
X207306Y184000D01*
X202472Y185062D02*
Y187972D01*
X200438Y183028D02*
X202472Y185062D01*
X193092Y188664D02*
X193109Y188646D01*
X233549Y191500D02*
X241000D01*
X232574Y190525D02*
X233549Y191500D01*
X224414Y190525D02*
X232574D01*
X218160Y184313D02*
X246549D01*
X218683Y186817D02*
Y186991D01*
X247204Y182732D02*
X276162Y211690D01*
X218815Y182732D02*
X247204D01*
X218219Y182136D02*
X218815Y182732D01*
X247859Y181151D02*
X278000Y211292D01*
X219470Y181151D02*
X247859D01*
X218874Y180555D02*
X219470Y181151D01*
X211299Y180555D02*
X218874D01*
X279581Y210637D02*
Y224671D01*
X248514Y179570D02*
X279581Y210637D01*
X220125Y179570D02*
X248514D01*
X219529Y178974D02*
X220125Y179570D01*
X210645Y178974D02*
X219529D01*
X208781Y180838D02*
X210645Y178974D01*
X212117Y186500D02*
X213000D01*
X213919Y188254D02*
X214746D01*
X211848Y190325D02*
X213919Y188254D01*
X209881Y186500D02*
X212664Y183717D01*
X210226Y188391D02*
X212117Y186500D01*
X211954Y182136D02*
X218219D01*
X210090Y184000D02*
X211954Y182136D01*
X207306Y184000D02*
X210090D01*
X209435Y182419D02*
X211299Y180555D01*
X206651Y182419D02*
X209435D01*
X206570Y182500D02*
X206651Y182419D01*
X202146Y182500D02*
X206570D01*
X205996Y180838D02*
X208781D01*
X205915Y180919D02*
X205996Y180838D01*
X202801Y180919D02*
X205915D01*
X201748Y179866D02*
X202801Y180919D01*
X212664Y183717D02*
X217564D01*
X207717Y188391D02*
X210226D01*
X207620Y188294D02*
X207717Y188391D01*
X209000Y186500D02*
X209881D01*
X183284Y226682D02*
X184891Y228288D01*
X183284Y223806D02*
Y226682D01*
Y223806D02*
X191000Y216090D01*
X184865Y226027D02*
X192838Y234000D01*
X196907Y181447D02*
X201093D01*
X195854Y182500D02*
X196907Y181447D01*
X195500Y182500D02*
X195854D01*
X201130Y179866D02*
X201748D01*
X197000Y175736D02*
X201130Y179866D01*
X201093Y181447D02*
X202146Y182500D01*
X199783Y184609D02*
X200891Y185717D01*
X184891Y228288D02*
Y257783D01*
X184301Y258373D02*
Y266366D01*
Y258373D02*
X184891Y257783D01*
X233000Y309000D02*
X233000Y309000D01*
X358714Y147252D02*
X369419Y136547D01*
X360295Y147907D02*
X370074Y138128D01*
X361876Y148562D02*
X370729Y139709D01*
X363457Y149217D02*
X371384Y141291D01*
X365039Y149872D02*
X371855Y143055D01*
X366620Y150527D02*
X372510Y144636D01*
X368201Y151181D02*
X373165Y146217D01*
X369782Y151836D02*
X373820Y147798D01*
X371363Y152491D02*
X374475Y149380D01*
X372944Y153146D02*
X375130Y150961D01*
X374525Y153801D02*
X375785Y152542D01*
X374525Y153801D02*
Y154975D01*
X372944Y153146D02*
Y154320D01*
X371363Y152491D02*
Y153637D01*
X369782Y151836D02*
Y152982D01*
X368201Y151181D02*
Y152035D01*
X366620Y150527D02*
Y151380D01*
X365039Y149872D02*
Y150725D01*
X363457Y149217D02*
Y150071D01*
X361876Y148562D02*
Y149416D01*
X360295Y147907D02*
Y148761D01*
X358714Y147252D02*
Y148106D01*
X332983Y185017D02*
X366620Y151380D01*
X339572Y187692D02*
X372944Y154320D01*
X338401Y168419D02*
X358714Y148106D01*
X336056Y173000D02*
X360295Y148761D01*
X332345Y178947D02*
X361876Y149416D01*
X333000Y180528D02*
X363457Y150071D01*
X333654Y182109D02*
X365039Y150725D01*
X334829Y185407D02*
X368201Y152035D01*
X336410Y186354D02*
X369782Y152982D01*
X337991Y187009D02*
X371363Y153637D01*
X341405Y188095D02*
X374525Y154975D01*
X375785Y152542D02*
X385239D01*
X375130Y150961D02*
X384584D01*
X374475Y149380D02*
X383929D01*
X373820Y147798D02*
X383274D01*
X373165Y146217D02*
X382620D01*
X372510Y144636D02*
X381965D01*
X371855Y143055D02*
X381310D01*
X371384Y141291D02*
X371778D01*
X370729Y139709D02*
X372433D01*
X370074Y138128D02*
X373088D01*
X369419Y136547D02*
X373743D01*
X382620Y146217D02*
X382803Y146034D01*
X381965Y144636D02*
X382148Y144453D01*
X381310Y143055D02*
X381493Y142872D01*
X380655Y141474D02*
X380838Y141291D01*
X371961Y141474D02*
X380655D01*
X371778Y141291D02*
X371961Y141474D01*
X372616Y139893D02*
X380000D01*
X372433Y139709D02*
X372616Y139893D01*
X373271Y138312D02*
X379345D01*
X373088Y138128D02*
X373271Y138312D01*
X373926Y136731D02*
X378690D01*
X373743Y136547D02*
X373926Y136731D01*
X385696Y152358D02*
X387919Y154581D01*
X385423Y152358D02*
X385696D01*
X385239Y152542D02*
X385423Y152358D01*
X388202Y152419D02*
X390151Y154368D01*
X387993Y152419D02*
X388202D01*
X386351Y150777D02*
X387993Y152419D01*
X384768Y150777D02*
X386351D01*
X384584Y150961D02*
X384768Y150777D01*
X388857Y150838D02*
X390806Y152787D01*
X388648Y150838D02*
X388857D01*
X387006Y149196D02*
X388648Y150838D01*
X384113Y149196D02*
X387006D01*
X383929Y149380D02*
X384113Y149196D01*
X389512Y149257D02*
X391461Y151206D01*
X389302Y149257D02*
X389512D01*
X387661Y147615D02*
X389302Y149257D01*
X383458Y147615D02*
X387661D01*
X383274Y147798D02*
X383458Y147615D01*
X390166Y147676D02*
X392116Y149625D01*
X389957Y147676D02*
X390166D01*
X388316Y146034D02*
X389957Y147676D01*
X382803Y146034D02*
X388316D01*
X387919Y154581D02*
X388128D01*
X382148Y144453D02*
X388971D01*
X381493Y142872D02*
X389626D01*
X380838Y141291D02*
X390280D01*
X388128Y154581D02*
X389496Y155950D01*
X388971Y144453D02*
X390612Y146095D01*
X389626Y142872D02*
X391267Y144513D01*
X390280Y141291D02*
X391652Y142662D01*
X203012Y144143D02*
Y148512D01*
X204981Y147655D02*
X214037Y156710D01*
X204981Y145675D02*
Y147655D01*
X205980Y144000D02*
X213081D01*
X202623Y140643D02*
X205980Y144000D01*
X206608Y142392D02*
X212453D01*
X203278Y139062D02*
X206608Y142392D01*
X203012Y148512D02*
X212955Y158455D01*
Y159955D01*
X214037Y156710D02*
X216281D01*
X218073Y158502D01*
X212955Y159955D02*
X214054Y161054D01*
X216026D01*
X218000Y163027D01*
Y171500D01*
X218073Y159781D02*
X220120Y161828D01*
X218073Y158502D02*
Y159781D01*
X218000Y171500D02*
X221833D01*
X222417Y172083D01*
Y175136D01*
X221476Y176077D02*
X222417Y175136D01*
X221476Y176077D02*
Y176408D01*
X220184Y177393D02*
X220780Y177989D01*
X209990Y177393D02*
X220184D01*
X217564Y183717D02*
X218160Y184313D01*
X220780Y177989D02*
X249169D01*
X221476Y176408D02*
X252408D01*
X192000Y156500D02*
Y179000D01*
Y156500D02*
X197029Y151471D01*
X197000Y156000D02*
Y175736D01*
X202328Y158100D02*
Y174745D01*
Y158100D02*
X202500Y157929D01*
Y156000D02*
Y157929D01*
X200966Y154466D02*
X202500Y156000D01*
X197000D02*
X198998Y154002D01*
X362903Y180500D02*
X381487D01*
X362081Y178919D02*
X382142D01*
X361426Y177338D02*
X382797D01*
X202328Y174745D02*
X206583Y179000D01*
X224792Y166500D02*
X244736D01*
X223191Y164900D02*
X224792Y166500D01*
X390612Y146095D02*
X391259D01*
X414031Y177419D02*
X416000Y175450D01*
X415321Y186479D02*
X416521D01*
X415440Y182724D02*
X418412Y185696D01*
X416095Y181142D02*
X421379Y186427D01*
X422427D01*
X412584Y186416D02*
X442668Y216500D01*
X418438Y187885D02*
X418500D01*
X418412Y187912D02*
X418438Y187885D01*
X408647D02*
Y191647D01*
X396564Y187500D02*
X397000Y187064D01*
X405478Y186321D02*
X406679D01*
X408475Y184525D01*
X402742Y186258D02*
Y200742D01*
X408647Y191647D02*
X451500Y234500D01*
X396500Y187500D02*
X396564D01*
X406000Y198000D02*
X464776Y256776D01*
X403462Y184305D02*
X405478Y186321D01*
X381487Y180500D02*
X387000Y186012D01*
X402742Y200742D02*
X442000Y240000D01*
X408475Y184525D02*
X413367D01*
X407674Y235000D02*
X408500D01*
X406283Y233610D02*
X407674Y235000D01*
X400390Y233610D02*
X406283D01*
X393500Y240500D02*
X400390Y233610D01*
X393500Y240500D02*
Y241326D01*
X390109Y244717D02*
X393500Y241326D01*
X390109Y244717D02*
Y246283D01*
X393500Y249674D01*
Y312500D01*
X289610Y202783D02*
X291081Y204255D01*
Y220081D01*
X289500Y204910D02*
Y221174D01*
X283176Y207529D02*
Y223793D01*
X281704Y206058D02*
X283176Y207529D01*
X281704Y205704D02*
Y206058D01*
X252408Y176408D02*
X281704Y205704D01*
X284757Y206874D02*
Y223138D01*
X283285Y205403D02*
X284757Y206874D01*
X283285Y205049D02*
Y205403D01*
X244736Y166500D02*
X283285Y205049D01*
X286338Y206220D02*
Y222483D01*
X284866Y204748D02*
X286338Y206220D01*
X284866Y204102D02*
Y204748D01*
X240229Y159465D02*
X284866Y204102D01*
X287919Y205565D02*
Y221829D01*
X286447Y204093D02*
X287919Y205565D01*
X286447Y203447D02*
Y204093D01*
X239000Y156000D02*
X286447Y203447D01*
X288028Y203438D02*
X289500Y204910D01*
X288028Y202764D02*
Y203438D01*
X239404Y154140D02*
X288028Y202764D01*
X289610Y202109D02*
Y202783D01*
X240059Y152559D02*
X289610Y202109D01*
X475000Y146500D02*
X475500D01*
X478500Y143500D01*
Y139000D02*
Y143500D01*
X335500Y235972D02*
Y245500D01*
X292158Y195658D02*
X300658D01*
X276162Y229662D02*
X292500Y246000D01*
X464776Y256776D02*
Y294200D01*
X442000Y240000D02*
Y306500D01*
X398805Y202805D02*
X431500Y235500D01*
X442668Y216500D02*
X469000D01*
X208382Y179000D02*
X209990Y177393D01*
X206583Y179000D02*
X208382D01*
X184301Y266366D02*
X208500Y289000D01*
X184865Y224461D02*
X195000Y214326D01*
X184865Y224461D02*
Y226027D01*
X304500Y184315D02*
X304658Y184158D01*
X334829Y185407D02*
Y187795D01*
X333338Y189287D02*
X334829Y187795D01*
X333338Y189287D02*
Y190851D01*
X333212Y190976D02*
X333338Y190851D01*
X333155Y190919D02*
X333212Y190976D01*
X333248Y185574D02*
Y187141D01*
X337991Y187009D02*
Y189335D01*
X233783Y310891D02*
X234674Y310000D01*
X233000Y265236D02*
Y309000D01*
X273000Y213000D02*
Y278765D01*
X352000Y181500D02*
X371500Y162000D01*
X332562Y165500D02*
X333000D01*
X330936Y166109D02*
X333245Y168419D01*
X379500Y303000D02*
X390500Y314000D01*
X347877Y200414D02*
Y223595D01*
X347730Y200267D02*
X347877Y200414D01*
X346296Y201069D02*
Y209558D01*
X346149Y200922D02*
X346296Y201069D01*
X344715Y201724D02*
Y208903D01*
X344567Y201576D02*
X344715Y201724D01*
X343134Y202379D02*
Y208248D01*
X342986Y202231D02*
X343134Y202379D01*
X341553Y203034D02*
Y207593D01*
X341405Y202886D02*
X341553Y203034D01*
X339972Y204062D02*
Y206938D01*
X339572Y203663D02*
X339972Y204062D01*
X338390Y204717D02*
Y206283D01*
X325292Y208972D02*
X337938D01*
X328475Y210553D02*
X338593D01*
X329130Y212134D02*
X339248D01*
X329785Y213715D02*
X339903D01*
X330634Y216366D02*
X331704Y215296D01*
X340558D01*
X334500Y217286D02*
Y217500D01*
X335500Y235972D02*
X347877Y223595D01*
X351634Y184866D02*
X369500Y167000D01*
X352317Y186447D02*
X361426Y177338D01*
X352972Y188028D02*
X362081Y178919D01*
X353794Y189609D02*
X362903Y180500D01*
X351252Y184866D02*
X351634D01*
X351907Y186447D02*
X352317D01*
X352562Y188028D02*
X352972D01*
X353217Y189609D02*
X353794D01*
X311447Y229553D02*
X312500Y228500D01*
X313283Y226609D02*
X314390Y227717D01*
X311717Y226609D02*
X313283D01*
X310610Y227717D02*
X311717Y226609D01*
X313938Y225028D02*
X315626Y226716D01*
X311062Y225028D02*
X313938D01*
X309753Y226338D02*
X311062Y225028D01*
X305336Y226338D02*
X309753D01*
X314779Y223634D02*
X326748D01*
X314593Y223447D02*
X314779Y223634D01*
X310407Y223447D02*
X314593D01*
X309354Y224500D02*
X310407Y223447D01*
X304500Y224500D02*
X309354D01*
X310610Y227717D02*
Y227919D01*
X314390Y227717D02*
Y228298D01*
X305991Y227919D02*
X310610D01*
X281162Y224016D02*
X288190Y231044D01*
X279581Y224671D02*
X287536Y232625D01*
X278000Y225326D02*
X287174Y234500D01*
X281162Y209982D02*
Y224016D01*
X287536Y232625D02*
X295609D01*
X278000Y211292D02*
Y225326D01*
X287174Y234500D02*
X301618D01*
X413367Y184525D02*
X415321Y186479D01*
X382797Y177338D02*
X382878Y177419D01*
X382142Y178919D02*
X382224Y179000D01*
X340558Y215296D02*
X346296Y209558D01*
X339903Y213715D02*
X344715Y208903D01*
X339248Y212134D02*
X343134Y208248D01*
X338593Y210553D02*
X341553Y207593D01*
X337938Y208972D02*
X339972Y206938D01*
X337283Y207390D02*
X338390Y206283D01*
X338044Y227044D02*
Y228956D01*
X334028Y232972D02*
X338044Y228956D01*
X332983Y185309D02*
X333248Y185574D01*
X195882Y184708D02*
X197562Y183028D01*
X195882Y184708D02*
Y184708D01*
X197562Y183028D02*
X200438D01*
X195783Y184609D02*
X195882Y184708D01*
X194217Y184609D02*
X195783D01*
X193109Y185717D02*
X194217Y184609D01*
X193109Y185717D02*
Y188646D01*
X192000Y179000D02*
X195500Y182500D01*
X192838Y234000D02*
X198000D01*
X257500Y289500D02*
X273000Y278765D01*
X276162Y211690D02*
Y229662D01*
X245895Y185895D02*
X273000Y213000D01*
X249169Y177989D02*
X281162Y209982D01*
X246549Y184313D02*
X274581Y212345D01*
X289500Y221174D02*
X291465Y223139D01*
X291081Y220081D02*
X292248Y221248D01*
X283176Y223793D02*
X288845Y229463D01*
X284757Y223138D02*
X289500Y227882D01*
X286338Y222483D02*
X290155Y226301D01*
X287919Y221829D02*
X290810Y224720D01*
X296264Y231044D02*
X296354Y231134D01*
X288190Y231044D02*
X296264D01*
X297008Y229553D02*
X311447D01*
X296919Y229463D02*
X297008Y229553D01*
X288845Y229463D02*
X296919D01*
X298803Y227972D02*
X305938D01*
X298714Y227882D02*
X298803Y227972D01*
X289500Y227882D02*
X298714D01*
X299458Y226391D02*
X305283D01*
X299369Y226301D02*
X299458Y226391D01*
X290155Y226301D02*
X299369D01*
X290810Y224720D02*
X294954D01*
X237771Y159465D02*
X240229D01*
X225500Y156000D02*
X239000D01*
X226467Y154140D02*
X239404D01*
X228400Y152559D02*
X240059D01*
X291465Y223139D02*
X293861D01*
X310563Y182937D02*
Y188563D01*
X295000Y220000D02*
X296391Y221391D01*
Y223283D01*
X202935Y144065D02*
X203012Y144143D01*
X223191Y159781D02*
X224464Y161054D01*
X223191Y156736D02*
Y159781D01*
X224464Y161054D02*
X236499D01*
X215064Y148609D02*
X223191Y156736D01*
X236499Y161054D02*
X237771Y159781D01*
X220120Y161828D02*
X221145D01*
X223191Y163875D01*
Y164900D01*
X220729Y146229D02*
Y148403D01*
X228603Y146103D02*
Y148290D01*
X204903Y145597D02*
X204981Y145675D01*
X237771Y159465D02*
Y159781D01*
X215064Y147564D02*
Y148609D01*
X214745Y147246D02*
X215064Y147564D01*
X406601Y144377D02*
X406679Y144455D01*
X402664Y144470D02*
X402742Y144392D01*
X400695Y145997D02*
X400773Y145919D01*
X218683Y147318D02*
X218760Y147240D01*
X222620Y147619D02*
X223461D01*
X220651Y146151D02*
X220729Y146229D01*
X228525Y146025D02*
X228603Y146103D01*
X198998Y144002D02*
Y154002D01*
X293861Y223139D02*
X294500Y222500D01*
X294954Y224720D02*
X296391Y223283D01*
X408612Y145987D02*
X408647D01*
X304500Y184315D02*
Y190500D01*
X301618Y234500D02*
X301910Y234791D01*
X410046Y147261D02*
X410616D01*
X391259Y146095D02*
X392899Y147735D01*
X326233Y179233D02*
X329621D01*
X329907Y178947D01*
X330110Y183217D02*
X331217Y182109D01*
X329907Y178947D02*
X332345D01*
X330562Y180528D02*
X333000D01*
X331217Y182109D02*
X333654D01*
X332983Y185017D02*
Y185309D01*
X424317Y146619D02*
X424395Y146541D01*
X421540Y149494D02*
X421643Y149598D01*
X412000Y154500D02*
X416535D01*
X411500Y155000D02*
X412000Y154500D01*
X323919Y216919D02*
X324000Y217000D01*
X416535Y154500D02*
X421540Y149494D01*
Y149494D02*
Y149494D01*
X423194Y151179D02*
X423865D01*
X323919Y210345D02*
Y216919D01*
X300658Y195658D02*
X322110Y217109D01*
X308811Y216500D02*
X318590D01*
X308500Y218500D02*
X318354D01*
X293500Y203500D02*
X308500Y218500D01*
X295391Y202717D02*
Y203080D01*
X308811Y216500D01*
X291905Y199594D02*
X292268D01*
X295391Y202717D01*
X404601Y155950D02*
X414424Y146126D01*
X418180Y147635D02*
X418490D01*
X414424Y146126D02*
X416671D01*
X418180Y147635D01*
X415793Y147707D02*
X415888D01*
X417706Y149526D01*
X419273D01*
X421091Y147707D01*
X422427D01*
X421643Y149598D02*
X423210D01*
X424317Y148490D01*
Y146619D02*
Y148490D01*
X423865Y151179D02*
X426364Y148680D01*
Y148009D02*
Y148680D01*
X429835Y147734D02*
X430301Y148199D01*
X428254Y147226D02*
Y148827D01*
X429835Y146571D02*
Y147734D01*
X406601Y142427D02*
Y144377D01*
X404002Y142502D02*
X404710Y143210D01*
X330000Y167826D02*
Y168174D01*
X334826Y173000D01*
X336056D01*
X333245Y168419D02*
X338401D01*
X428254Y148827D02*
X429517Y150090D01*
X432385D01*
X434237Y148238D01*
X432269Y146731D02*
X432653Y146347D01*
X435021D01*
X436128Y147454D01*
Y149021D01*
X433477Y151671D02*
X436128Y149021D01*
X428862Y151671D02*
X433477D01*
X428596Y151404D02*
X428862Y151671D01*
X428596Y151404D02*
X428596D01*
X323919Y210345D02*
X325292Y208972D01*
X325661Y213367D02*
X328475Y210553D01*
X327242Y214022D02*
X329130Y212134D01*
X329053Y214447D02*
X329785Y213715D01*
X334107Y216893D02*
X334500Y217286D01*
X307405Y234791D02*
X307697Y234500D01*
X301910Y234791D02*
X307405D01*
X307697Y234500D02*
X326854D01*
X322110Y217109D02*
Y217783D01*
X323217Y218891D02*
X324783D01*
X325890Y217783D01*
Y216217D02*
Y217783D01*
X322562Y220472D02*
X325438D01*
X327472Y218438D01*
Y215562D02*
Y218438D01*
X326093Y222053D02*
X329053Y219093D01*
X322110Y217783D02*
X323217Y218891D01*
X329053Y214447D02*
Y219093D01*
X327242Y215332D02*
X327472Y215562D01*
X327242Y214022D02*
Y215332D01*
X318590Y216500D02*
X322562Y220472D01*
X325661Y215987D02*
X325890Y216217D01*
X325661Y213367D02*
Y215987D01*
X321907Y222053D02*
X326093D01*
X318354Y218500D02*
X321907Y222053D01*
X330634Y216366D02*
Y219748D01*
X326748Y223634D02*
X330634Y219748D01*
X312757Y232715D02*
X312847Y232625D01*
X295609D02*
X295699Y232715D01*
X312102Y231134D02*
X312192Y231044D01*
X295699Y232715D02*
X312757D01*
X296354Y231134D02*
X312102D01*
X305938Y227972D02*
X305991Y227919D01*
X305283Y226391D02*
X305336Y226338D01*
X220729Y148403D02*
X226467Y154140D01*
X223461Y147619D02*
X228400Y152559D01*
X228603Y148290D02*
X229710Y149397D01*
X314637Y181109D02*
X315283D01*
X316390Y182217D01*
X315292Y179528D02*
X315938D01*
X317555Y181145D01*
X317654Y181046D02*
X319220D01*
X318111Y179465D02*
X322965D01*
X306336Y167691D02*
X318111Y179465D01*
X331591Y164528D02*
X332562Y165500D01*
X311798Y164528D02*
X331591D01*
X312500Y166500D02*
X313500Y167500D01*
X327826D01*
X329217Y166109D01*
X330936D01*
X206872Y146871D02*
X212446D01*
X216645Y146471D02*
Y147954D01*
X217899Y149208D01*
X218708D01*
X225500Y156000D01*
X200966Y142534D02*
Y154466D01*
X197029Y145529D02*
Y151471D01*
X199241Y140643D02*
X202623D01*
X305955Y167691D02*
X306336D01*
X306610Y166109D02*
X310217D01*
X311798Y164528D01*
X213962Y145355D02*
X215529D01*
X212446Y146871D02*
X213962Y145355D01*
X215529D02*
X216645Y146471D01*
X218760Y145368D02*
Y147240D01*
X282925Y149397D02*
X314637Y181109D01*
X282270Y150978D02*
X314292Y183000D01*
X229710Y149397D02*
X282925D01*
X229055Y150978D02*
X282270D01*
X451500Y234500D02*
X474826D01*
X475217Y234109D01*
X477609D02*
X478000Y234500D01*
X475217Y234109D02*
X477609D01*
X469000Y216500D02*
X479891Y227391D01*
Y310891D01*
X484000Y315000D01*
X328500Y182590D02*
X330562Y180528D01*
X328500Y182590D02*
Y185736D01*
X312192Y231044D02*
X327870D01*
X312847Y232625D02*
X327216D01*
X327870Y231044D02*
X328217Y231391D01*
X332916D01*
X327216Y232625D02*
X327562Y232972D01*
X334028D01*
X331000Y238646D02*
Y243500D01*
X326854Y234500D02*
X331000Y238646D01*
X332975Y190851D02*
X333338D01*
X331109Y192717D02*
X332975Y190851D01*
X319220Y181046D02*
X320328Y182154D01*
X316390Y182217D02*
Y184391D01*
X314292Y183000D02*
X314500D01*
X316390Y184391D02*
X316469Y184468D01*
X310563Y188563D02*
X314389D01*
X314717Y188891D01*
X316283D01*
X316611Y188563D01*
X315500Y187000D02*
X316141Y186359D01*
X317252D01*
X320096Y183952D02*
Y184096D01*
X317252Y186359D02*
X318359Y185252D01*
Y183171D02*
Y185252D01*
Y183171D02*
X318515Y183015D01*
X320096Y184096D02*
X320406Y184406D01*
X320328Y182154D02*
Y183720D01*
X320096Y183952D02*
X320328Y183720D01*
X322965Y179465D02*
X324342Y180842D01*
X323559Y186233D02*
X325126D01*
X326233Y185126D01*
Y179233D02*
Y185126D01*
X324342Y180842D02*
Y184343D01*
X325345Y188891D02*
X328500Y185736D01*
X329917Y190472D02*
X333248Y187141D01*
X323326Y187000D02*
X323826Y186500D01*
X320500Y187000D02*
X323326D01*
X316611Y188563D02*
X317153D01*
X319062Y190472D01*
X318515Y187689D02*
X319717Y188891D01*
X323326Y186000D02*
X323826Y186500D01*
X318515Y183015D02*
Y187689D01*
X319717Y188891D02*
X325345D01*
X319062Y190472D02*
X329917D01*
X331109Y192717D02*
Y194283D01*
X333338Y196511D01*
Y201162D01*
X337991Y204318D02*
X338390Y204717D01*
X334109Y203391D02*
X336410Y201090D01*
X321500Y195500D02*
X321590D01*
X337500Y226500D02*
X338044Y227044D01*
X331433Y228607D02*
X333000D01*
X331124Y228298D02*
X331433Y228607D01*
X314390Y228298D02*
X331124D01*
X337500Y225000D02*
Y226500D01*
X333000Y228607D02*
X334107Y227500D01*
X335610Y224217D02*
Y225783D01*
X334107Y216893D02*
Y223483D01*
X334028Y223562D02*
X334107Y223483D01*
X334028Y223562D02*
Y226438D01*
X334107Y226517D01*
Y227500D01*
X315626Y226716D02*
X315843Y226500D01*
X332000D01*
X337000Y219500D02*
Y222826D01*
X335610Y224217D02*
X337000Y222826D01*
X332916Y231391D02*
X335688Y228619D01*
Y225862D02*
Y228619D01*
X335610Y225783D02*
X335688Y225862D01*
X138500Y144500D02*
Y145564D01*
X139491Y146554D01*
Y150072D01*
X189155Y147345D02*
X190612D01*
X317555Y181145D02*
Y181145D01*
Y181145D02*
X317654Y181046D01*
X136346Y153217D02*
X139491Y150072D01*
X136346Y153217D02*
Y173361D01*
X188000Y289500D02*
Y308281D01*
X190610Y310891D02*
X233783D01*
X188000Y308281D02*
X190610Y310891D01*
X274581Y212345D02*
Y277974D01*
X274812Y278205D01*
Y286099D01*
X283500Y294787D01*
Y303000D01*
X333155Y207390D02*
X337283D01*
X331391Y203391D02*
X334109D01*
X321590Y195500D02*
X325562Y199472D01*
X333000Y201500D02*
X333338Y201162D01*
X325562Y199472D02*
X327472D01*
X331391Y203391D01*
X314884Y192558D02*
X326217Y203891D01*
X304500Y190500D02*
X306557Y192558D01*
X326217Y203891D02*
X329655D01*
X333155Y207390D01*
X306557Y192558D02*
X314884D01*
X330110Y183217D02*
Y185109D01*
X331358Y186357D01*
D49*
X435371Y268500D02*
X435500Y268629D01*
X125000Y273500D02*
X127500D01*
X125000D02*
X126500Y275000D01*
X202500Y129000D02*
X211500D01*
Y127878D02*
Y129000D01*
X203622Y127878D02*
X211500D01*
X203500Y126581D02*
X211326D01*
X407000Y133500D02*
X430000D01*
X406500Y133000D02*
X407000Y133500D01*
X190000Y144000D02*
X191403Y142597D01*
X169609Y193678D02*
X171178Y192109D01*
X166535Y193678D02*
X169609D01*
X163822Y196391D02*
X166535Y193678D01*
X435500Y277000D02*
Y279714D01*
Y274000D02*
Y277000D01*
Y271000D02*
Y274000D01*
Y268629D02*
Y271000D01*
X435371Y268500D02*
X435500D01*
X185500Y144500D02*
X187000D01*
X188000Y143500D01*
X200789Y132244D02*
X234674D01*
X191403Y141630D02*
Y142597D01*
Y141630D02*
X200789Y132244D01*
X189000Y144500D02*
X190500D01*
X190000Y144000D02*
X190500Y144500D01*
X104500Y200000D02*
Y205625D01*
X237000Y195000D02*
X239000D01*
X285250Y138500D02*
X300000D01*
X119500Y188000D02*
X127000D01*
X104500Y205625D02*
Y208250D01*
Y210874D01*
X235000Y195000D02*
X237000D01*
X234256D02*
X235000D01*
X231756Y192500D02*
X233256Y194000D01*
X234256Y195000D01*
X404189Y133000D02*
X406500D01*
X401877D02*
X404189D01*
X399500D02*
X401877D01*
X329000Y134000D02*
Y136450D01*
X381000Y155000D02*
X383500D01*
X378500D02*
X381000D01*
X376500D02*
X378500D01*
X374744Y134756D02*
X377872D01*
X310500Y151000D02*
Y153000D01*
Y149000D02*
Y151000D01*
X372500Y183000D02*
X374500D01*
X370284D02*
X372500D01*
X371500Y198589D02*
X374000D01*
X369326D02*
X371500D01*
X105000Y162000D02*
X123564D01*
X104500Y210874D02*
X104626Y211000D01*
X136000Y148000D02*
Y149564D01*
X188000Y143500D02*
X189000Y144500D01*
X300000Y138500D02*
X310500Y149000D01*
X282500Y138500D02*
X285250D01*
X124500Y272000D02*
X127500D01*
X124500D02*
Y273000D01*
Y275000D01*
X126500D01*
X127500D01*
X124500Y273000D02*
X125000Y273500D01*
X127500Y272000D02*
Y273500D01*
Y275000D01*
X203500Y128000D02*
X203622Y127878D01*
X211500Y126756D02*
Y127878D01*
X211326Y126581D02*
X211500Y126756D01*
X203500Y126581D02*
Y128000D01*
X329000Y136450D02*
Y139000D01*
X105000Y173500D02*
X119500Y188000D01*
X105000Y162000D02*
Y173500D01*
X123564Y162000D02*
X136000Y149564D01*
D50*
X114000Y202000D02*
Y224500D01*
X163822Y196391D02*
Y198391D01*
X163213Y199000D02*
X163822Y198391D01*
X184000Y144500D02*
X185500D01*
X181500Y147000D02*
X184000Y144500D01*
X139713Y199000D02*
X163213D01*
X171178Y190322D02*
X179000Y182500D01*
X171178Y190322D02*
Y192109D01*
X161587Y184638D02*
Y189362D01*
Y194087D01*
X156862Y189362D02*
X161587D01*
X156862Y184638D02*
X161587Y189362D01*
X156862Y194087D02*
X161587D01*
X156862Y189362D02*
X161587Y194087D01*
X147413Y179913D02*
Y184638D01*
Y179913D02*
X152138D01*
X147413D02*
X152138Y184638D01*
X147413D02*
X152138D01*
Y179913D02*
Y184638D01*
Y179913D02*
X156862Y184638D01*
Y179913D02*
Y184638D01*
X147413Y184638D02*
Y189362D01*
X152138D01*
X147413Y184638D02*
X152138Y189362D01*
X147413D02*
Y194087D01*
X152138D01*
X147413D02*
X152138Y189362D01*
Y184638D02*
Y189362D01*
X154500Y187000D01*
X152138Y189362D02*
X156862D01*
X152138Y189362D02*
Y194087D01*
X156862Y189362D02*
Y194087D01*
X152138Y189362D02*
X156862Y194087D01*
X152138Y179913D02*
X156862D01*
X161587D01*
X156862Y184638D02*
Y189362D01*
X154500Y187000D02*
X156862Y184638D01*
X152138D02*
X156862D01*
X154500Y187000D02*
X156862Y189362D01*
X152138Y194087D02*
X156862D01*
X161587Y179913D02*
Y184638D01*
X156862D02*
X161587Y179913D01*
X156862Y184638D02*
X161587D01*
X152138Y189362D02*
Y189362D01*
X152138Y189362D02*
X152138D01*
X152138D02*
X152138Y189362D01*
X156862Y184638D02*
X156862D01*
X156862Y184638D02*
Y184638D01*
Y184638D02*
X156862Y184638D01*
X152138D02*
X154500Y187000D01*
X118933Y224500D02*
X121500D01*
X116367D02*
X118933D01*
X114000D02*
X116367D01*
X138535Y197822D02*
X139713Y199000D01*
X116678Y199322D02*
X118178Y197822D01*
X138535D01*
X177822Y177609D02*
X179000Y178787D01*
X177822Y175391D02*
Y177609D01*
Y175391D02*
X179000Y174213D01*
Y147000D02*
Y174213D01*
Y178787D02*
Y182500D01*
Y147000D02*
X181500D01*
X114000Y202000D02*
X114322Y201678D01*
X115109D01*
X116678Y200109D01*
Y199322D02*
Y200109D01*
D52*
X90000Y247500D02*
X104628D01*
X77000Y234500D02*
X90000Y247500D01*
X116780Y247780D02*
X133500Y264500D01*
X109363Y247780D02*
X116780D01*
X133500Y264500D02*
Y265371D01*
X77000Y148500D02*
Y234500D01*
Y148500D02*
X108500D01*
X124500D01*
X133500Y281629D02*
X136430Y278699D01*
X133500Y281629D02*
Y301000D01*
Y265371D02*
X136430Y268301D01*
Y278699D01*
D64*
X464776Y294200D02*
D03*
X257500Y289500D02*
D03*
X208500Y289000D02*
D03*
X124500Y148500D02*
D03*
X108500D02*
D03*
D65*
X306750Y296000D02*
D03*
D68*
X224000Y197500D02*
D03*
X98500Y157500D02*
D03*
X107500Y172500D02*
D03*
X168500Y196000D02*
D03*
X468500Y319000D02*
D03*
X231500Y146000D02*
D03*
X135000Y204500D02*
D03*
X154500Y153090D02*
D03*
X141000Y183000D02*
D03*
X142243Y179000D02*
D03*
X168500Y191000D02*
D03*
X366500Y198500D02*
D03*
Y195500D02*
D03*
X354000Y195658D02*
D03*
X354500Y198500D02*
D03*
X430000Y133500D02*
D03*
X195500Y143000D02*
D03*
X225139Y144500D02*
D03*
X398805Y185500D02*
D03*
X398500Y144000D02*
D03*
X190515Y193991D02*
D03*
X203993Y196725D02*
D03*
X203000Y188000D02*
D03*
X199000Y186500D02*
D03*
X195000D02*
D03*
X239000Y195000D02*
D03*
X278500Y178500D02*
D03*
X333000Y193500D02*
D03*
X119000Y203000D02*
D03*
X135000Y227500D02*
D03*
X114000Y199000D02*
D03*
X104751Y203125D02*
D03*
X104500Y200000D02*
D03*
Y208250D02*
D03*
Y205625D02*
D03*
X204903Y186403D02*
D03*
X193092Y188664D02*
D03*
X235000Y195000D02*
D03*
X231756Y192500D02*
D03*
X233256Y194000D02*
D03*
X237000Y195000D02*
D03*
X241000Y191500D02*
D03*
X218683Y186817D02*
D03*
X213000Y186500D02*
D03*
X209000D02*
D03*
X183000Y257000D02*
D03*
X181000Y251500D02*
D03*
X233000Y309000D02*
D03*
X175000Y178000D02*
D03*
X180500Y176500D02*
D03*
X167500Y181500D02*
D03*
X169000Y153500D02*
D03*
X170500Y144000D02*
D03*
X383500Y155000D02*
D03*
X381000D02*
D03*
X378500D02*
D03*
X376500D02*
D03*
X377872Y134756D02*
D03*
X214746Y188254D02*
D03*
X374744Y134756D02*
D03*
X310500Y153000D02*
D03*
Y151000D02*
D03*
Y149000D02*
D03*
X292000Y191000D02*
D03*
X372500Y183000D02*
D03*
X374500D02*
D03*
X370284D02*
D03*
X475500Y319000D02*
D03*
X482000Y316654D02*
D03*
X419000Y313500D02*
D03*
X392000Y316500D02*
D03*
X335000Y318500D02*
D03*
X322500Y314000D02*
D03*
X374000Y198589D02*
D03*
X371500D02*
D03*
X369326D02*
D03*
X416521Y186479D02*
D03*
X422427Y186427D02*
D03*
X418500Y187885D02*
D03*
X412584Y186416D02*
D03*
X408647Y187885D02*
D03*
X406679Y186321D02*
D03*
X402742Y186258D02*
D03*
X396500Y187500D02*
D03*
X406000Y198000D02*
D03*
X387000Y186012D02*
D03*
X408500Y235000D02*
D03*
X396000Y241500D02*
D03*
X392000Y245500D02*
D03*
X393500Y312500D02*
D03*
X475000Y146500D02*
D03*
X478500Y139000D02*
D03*
X335500Y245500D02*
D03*
X331158Y272000D02*
D03*
X354000Y235000D02*
D03*
X342000Y152500D02*
D03*
X292158Y195658D02*
D03*
X292500Y246000D02*
D03*
X304658Y184158D02*
D03*
X318000Y243500D02*
D03*
X333000Y165500D02*
D03*
X338000Y243000D02*
D03*
X282000Y263500D02*
D03*
Y266500D02*
D03*
X465000Y318000D02*
D03*
X349620Y199484D02*
D03*
X334500Y217500D02*
D03*
X350874Y197626D02*
D03*
X440000Y303000D02*
D03*
X405500Y235500D02*
D03*
X434000Y303000D02*
D03*
X431500Y235500D02*
D03*
X442000Y306500D02*
D03*
X360000Y186500D02*
D03*
X366500Y186000D02*
D03*
X354000Y191500D02*
D03*
X366500Y191000D02*
D03*
X312500Y228500D02*
D03*
X134125Y218816D02*
D03*
X478000Y234500D02*
D03*
X381500Y236000D02*
D03*
X390500Y314000D02*
D03*
X198000Y234000D02*
D03*
X291905Y199594D02*
D03*
X295000Y220000D02*
D03*
X294500Y222500D02*
D03*
X310563Y182937D02*
D03*
X292248Y221248D02*
D03*
X430301Y148199D02*
D03*
X432269Y146731D02*
D03*
X434237Y148238D02*
D03*
X228525Y146025D02*
D03*
X222620Y147619D02*
D03*
X220651Y146151D02*
D03*
X218683Y147318D02*
D03*
X214745Y147246D02*
D03*
X206872Y146871D02*
D03*
X204903Y145597D02*
D03*
X202935Y144065D02*
D03*
X200966Y142534D02*
D03*
X198998Y144002D02*
D03*
X197029Y145529D02*
D03*
X189155Y147345D02*
D03*
X392899Y147735D02*
D03*
X418490Y147635D02*
D03*
X422427Y147707D02*
D03*
X424395Y146541D02*
D03*
X426364Y148009D02*
D03*
X400773Y145919D02*
D03*
X402742Y144392D02*
D03*
X410616Y147261D02*
D03*
X408647Y145987D02*
D03*
X406679Y144455D02*
D03*
X404710Y143210D02*
D03*
X304500Y224500D02*
D03*
X324000Y217000D02*
D03*
X330000Y168000D02*
D03*
X352000Y181500D02*
D03*
X293500Y203500D02*
D03*
X312500Y166500D02*
D03*
X309000Y164000D02*
D03*
X186756Y225244D02*
D03*
X432500Y300000D02*
D03*
X476000Y236000D02*
D03*
X489500Y244000D02*
D03*
X484000Y315000D02*
D03*
X438000Y275500D02*
D03*
X331000Y243500D02*
D03*
X314500Y183000D02*
D03*
X316469Y184468D02*
D03*
X315500Y187000D02*
D03*
X320406Y184406D02*
D03*
X324342Y184343D02*
D03*
X320500Y187000D02*
D03*
X321500Y195500D02*
D03*
X337500Y225000D02*
D03*
X337000Y219500D02*
D03*
X332000Y226500D02*
D03*
X113000Y239000D02*
D03*
X133548Y213000D02*
D03*
X111021Y171000D02*
D03*
X119000Y133500D02*
D03*
X104626Y211000D02*
D03*
X138500Y144500D02*
D03*
X89500Y172500D02*
D03*
X138428Y153808D02*
D03*
X90500Y185000D02*
D03*
X188000Y289500D02*
D03*
X82500Y275000D02*
D03*
X283500Y303000D02*
D03*
X333000Y201500D02*
D03*
X331358Y186357D02*
D03*
D69*
X127000Y188000D02*
D03*
X136000Y148000D02*
D03*
D70*
X435500Y279714D02*
D03*
Y277000D02*
D03*
Y274000D02*
D03*
Y271000D02*
D03*
Y268500D02*
D03*
X185500Y144500D02*
D03*
X190500D02*
D03*
X118933Y224500D02*
D03*
X121500D02*
D03*
X116367D02*
D03*
X114000D02*
D03*
X188000Y143500D02*
D03*
D71*
X161587Y189362D02*
D03*
Y194087D02*
D03*
X147413Y179913D02*
D03*
X161587D02*
D03*
X156862Y189362D02*
D03*
Y194087D02*
D03*
Y184638D02*
D03*
Y179913D02*
D03*
X147413Y189362D02*
D03*
X152138D02*
D03*
Y179913D02*
D03*
X147413Y194087D02*
D03*
X152138D02*
D03*
X161587Y184638D02*
D03*
X152138D02*
D03*
X147413D02*
D03*
D73*
X285250Y138500D02*
D03*
X406500Y133000D02*
D03*
X401877D02*
D03*
X404189D02*
D03*
X124500Y275000D02*
D03*
X399500Y133000D02*
D03*
X282500Y138500D02*
D03*
X127500Y275000D02*
D03*
Y272000D02*
D03*
X124500D02*
D03*
D74*
X234674Y132244D02*
D03*
D76*
X329000Y136450D02*
D03*
Y134000D02*
D03*
Y139000D02*
D03*
D77*
X203500Y128000D02*
D03*
X207500D02*
D03*
X211000D02*
D03*
D78*
X133000Y301500D02*
D03*
M02*
