G04 Layer_Color=32896*
%FSLAX25Y25*%
%MOIN*%
G70*
G01*
G75*
%ADD47C,0.01181*%
%ADD96C,0.01000*%
%ADD97C,0.00591*%
%ADD98C,0.00118*%
%ADD99C,0.00787*%
%ADD100C,0.00394*%
%ADD101C,0.00200*%
%ADD164C,0.02000*%
%ADD165R,0.09449X0.03150*%
D47*
X105350Y250000D02*
X130941D01*
X105350Y238800D02*
Y250000D01*
Y238800D02*
X130941D01*
Y250000D01*
X301559Y155000D02*
X327150D01*
X301559D02*
Y166200D01*
X327150D01*
Y155000D02*
Y166200D01*
D96*
X71500Y220200D02*
X76626D01*
X92374Y220100D02*
X97500D01*
X71500Y192900D02*
Y220200D01*
Y192900D02*
X76626D01*
X97500Y192800D02*
Y220100D01*
X92374Y192800D02*
X97500D01*
X251376Y178800D02*
Y195800D01*
X285576Y178700D02*
Y195700D01*
X455376Y181300D02*
Y198300D01*
X489576Y181200D02*
Y198200D01*
X341876Y181300D02*
Y198300D01*
X376076Y181200D02*
Y198200D01*
X137876Y178800D02*
Y195800D01*
X172076Y178700D02*
Y195700D01*
D97*
X67100Y192700D02*
X69700D01*
X68400Y191400D02*
Y194000D01*
X310900Y258300D02*
Y259900D01*
X310100Y259100D02*
X311700D01*
X131600Y262300D02*
Y263900D01*
X130800Y263100D02*
X132400D01*
X137731Y151064D02*
Y152664D01*
X136931Y151864D02*
X138531D01*
X137731Y138397D02*
Y139997D01*
X136931Y139197D02*
X138531D01*
X297100Y180100D02*
X298700D01*
X297900Y179300D02*
Y180900D01*
X315600Y261800D02*
Y263400D01*
X314800Y262600D02*
X316400D01*
X100400Y271190D02*
Y272790D01*
X99600Y271990D02*
X101200D01*
X299400Y138600D02*
Y140200D01*
X298600Y139400D02*
X300200D01*
D98*
X176400Y144100D02*
X177000D01*
X176700Y143800D02*
Y144400D01*
X379900Y141100D02*
X380500D01*
X380200Y140800D02*
Y141400D01*
X176500Y141900D02*
X177100D01*
X176800Y141600D02*
Y142200D01*
X382500Y138900D02*
X383100D01*
X382800Y138600D02*
Y139200D01*
X211000Y142400D02*
X211600D01*
X211300Y142100D02*
Y142700D01*
X414500Y142900D02*
X415100D01*
X414800Y142600D02*
Y143200D01*
X195900Y135900D02*
Y136500D01*
X195600Y136200D02*
X196200D01*
X395000Y139144D02*
X395600D01*
X395300Y138844D02*
Y139444D01*
D99*
X301382Y240618D02*
Y248492D01*
X311618Y240618D02*
Y248492D01*
X113118Y262382D02*
X120992D01*
X113118Y272618D02*
X120992D01*
X100669Y171000D02*
Y178500D01*
X109331Y171000D02*
Y178500D01*
X100669Y171000D02*
X109331D01*
X148339Y152582D02*
X156213D01*
X148339Y142346D02*
X156213D01*
X148339Y139915D02*
X156213D01*
X148339Y129679D02*
X156213D01*
X298618Y161618D02*
Y169492D01*
X288382Y161618D02*
Y169492D01*
X297118Y261882D02*
X304992D01*
X297118Y272118D02*
X304992D01*
X90882Y253508D02*
Y261382D01*
X101118Y253508D02*
Y261382D01*
X310008Y140118D02*
X317882D01*
X310008Y129882D02*
X317882D01*
D100*
X327900Y251900D02*
X328600D01*
X337400Y268000D02*
X338100D01*
Y251500D02*
Y268000D01*
X337400Y251500D02*
X338100D01*
X327900Y268000D02*
X328600D01*
X327900Y251900D02*
Y268000D01*
Y275900D02*
X328600D01*
X337400Y292000D02*
X338100D01*
Y275500D02*
Y292000D01*
X337400Y275500D02*
X338100D01*
X327900Y292000D02*
X328600D01*
X327900Y275900D02*
Y292000D01*
X107537Y276400D02*
Y277100D01*
X91437Y285900D02*
Y286600D01*
X107937D01*
Y285900D02*
Y286600D01*
X91437Y276400D02*
Y277100D01*
Y276400D02*
X107537D01*
X131100Y276900D02*
Y277600D01*
X115000Y286400D02*
Y287100D01*
X131500D01*
Y286400D02*
Y287100D01*
X115000Y276900D02*
Y277600D01*
Y276900D02*
X131100D01*
D101*
X92501Y360000D02*
X94000D01*
Y359000D01*
X92750Y358501D02*
X92501Y358251D01*
Y357751D01*
X92750Y357501D01*
X93000D01*
X93250Y357751D01*
Y358001D01*
Y357751D01*
X93500Y357501D01*
X93750D01*
X94000Y357751D01*
Y358251D01*
X93750Y358501D01*
X94250Y357001D02*
Y356001D01*
X92501Y355501D02*
X94000D01*
Y354752D01*
X93750Y354502D01*
X92750D01*
X92501Y354752D01*
Y355501D01*
X94000Y354002D02*
X92501D01*
Y353252D01*
X92750Y353002D01*
X93250D01*
X93500Y353252D01*
Y354002D01*
Y353502D02*
X94000Y353002D01*
Y351503D02*
Y352502D01*
X93000Y351503D01*
X92750D01*
X92501Y351753D01*
Y352253D01*
X92750Y352502D01*
X110000Y236500D02*
Y235250D01*
X109750Y235000D01*
X109250D01*
X109000Y235250D01*
Y236500D01*
X107501D02*
X108501D01*
Y235750D01*
X108001Y236000D01*
X107751D01*
X107501Y235750D01*
Y235250D01*
X107751Y235000D01*
X108251D01*
X108501Y235250D01*
X107001Y234750D02*
X106001D01*
X105501Y236500D02*
Y235000D01*
X104752D01*
X104502Y235250D01*
Y236250D01*
X104752Y236500D01*
X105501D01*
X104002Y235000D02*
Y236500D01*
X103252D01*
X103002Y236250D01*
Y235750D01*
X103252Y235500D01*
X104002D01*
X103502D02*
X103002Y235000D01*
X101503D02*
X102502D01*
X101503Y236000D01*
Y236250D01*
X101753Y236500D01*
X102252D01*
X102502Y236250D01*
X331000Y175499D02*
Y174250D01*
X330750Y174000D01*
X330250D01*
X330000Y174250D01*
Y175499D01*
X328501D02*
X329501D01*
Y174750D01*
X329001Y175000D01*
X328751D01*
X328501Y174750D01*
Y174250D01*
X328751Y174000D01*
X329251D01*
X329501Y174250D01*
X328001Y173750D02*
X327001D01*
X326501Y175499D02*
Y174000D01*
X325752D01*
X325502Y174250D01*
Y175250D01*
X325752Y175499D01*
X326501D01*
X325002Y174000D02*
Y175499D01*
X324252D01*
X324002Y175250D01*
Y174750D01*
X324252Y174500D01*
X325002D01*
X324502D02*
X324002Y174000D01*
X323502D02*
X323003D01*
X323253D01*
Y175499D01*
X323502Y175250D01*
X247000Y153499D02*
Y152250D01*
X246750Y152000D01*
X246250D01*
X246000Y152250D01*
Y153499D01*
X244501Y152000D02*
X245500D01*
X244501Y153000D01*
Y153250D01*
X244751Y153499D01*
X245251D01*
X245500Y153250D01*
X244001Y151750D02*
X243001D01*
X242501Y153499D02*
Y152000D01*
X241752D01*
X241502Y152250D01*
Y153250D01*
X241752Y153499D01*
X242501D01*
X241002Y152000D02*
Y153499D01*
X240252D01*
X240002Y153250D01*
Y152750D01*
X240252Y152500D01*
X241002D01*
X240502D02*
X240002Y152000D01*
X238503D02*
X239502D01*
X238503Y153000D01*
Y153250D01*
X238753Y153499D01*
X239252D01*
X239502Y153250D01*
X440900Y189199D02*
Y187950D01*
X440650Y187700D01*
X440150D01*
X439900Y187950D01*
Y189199D01*
X438401Y187700D02*
X439400D01*
X438401Y188700D01*
Y188950D01*
X438651Y189199D01*
X439151D01*
X439400Y188950D01*
X437901Y187450D02*
X436901D01*
X436401Y189199D02*
Y187700D01*
X435652D01*
X435402Y187950D01*
Y188950D01*
X435652Y189199D01*
X436401D01*
X434902Y187700D02*
Y189199D01*
X434152D01*
X433902Y188950D01*
Y188450D01*
X434152Y188200D01*
X434902D01*
X434402D02*
X433902Y187700D01*
X433402D02*
X432903D01*
X433152D01*
Y189199D01*
X433402Y188950D01*
X288000Y188000D02*
X289499D01*
Y188750D01*
X289250Y189000D01*
X288750D01*
X288500Y188750D01*
Y188000D01*
Y188500D02*
X288000Y189000D01*
X289250Y189499D02*
X289499Y189749D01*
Y190249D01*
X289250Y190499D01*
X289000D01*
X288750Y190249D01*
X288500Y190499D01*
X288250D01*
X288000Y190249D01*
Y189749D01*
X288250Y189499D01*
X288500D01*
X288750Y189749D01*
X289000Y189499D01*
X289250D01*
X288750Y189749D02*
Y190249D01*
X289499Y191999D02*
X289250Y191499D01*
X288750Y190999D01*
X288250D01*
X288000Y191249D01*
Y191749D01*
X288250Y191999D01*
X288500D01*
X288750Y191749D01*
Y190999D01*
X287750Y192499D02*
Y193498D01*
X289499Y193998D02*
Y194498D01*
Y194248D01*
X288000D01*
Y193998D01*
Y194498D01*
Y195248D02*
X289499D01*
Y195997D01*
X289250Y196247D01*
X288750D01*
X288500Y195997D01*
Y195248D01*
Y195747D02*
X288000Y196247D01*
X289499Y197747D02*
Y196747D01*
X288750D01*
Y197247D01*
Y196747D01*
X288000D01*
X289250Y199246D02*
X289499Y198996D01*
Y198497D01*
X289250Y198247D01*
X289000D01*
X288750Y198497D01*
Y198996D01*
X288500Y199246D01*
X288250D01*
X288000Y198996D01*
Y198497D01*
X288250Y198247D01*
X288000Y200746D02*
Y199746D01*
X289000Y200746D01*
X289250D01*
X289499Y200496D01*
Y199996D01*
X289250Y199746D01*
X491500Y182500D02*
X493000D01*
Y183250D01*
X492750Y183500D01*
X492250D01*
X492000Y183250D01*
Y182500D01*
Y183000D02*
X491500Y183500D01*
X492750Y184000D02*
X493000Y184249D01*
Y184749D01*
X492750Y184999D01*
X492500D01*
X492250Y184749D01*
X492000Y184999D01*
X491750D01*
X491500Y184749D01*
Y184249D01*
X491750Y184000D01*
X492000D01*
X492250Y184249D01*
X492500Y184000D01*
X492750D01*
X492250Y184249D02*
Y184749D01*
X493000Y186499D02*
X492750Y185999D01*
X492250Y185499D01*
X491750D01*
X491500Y185749D01*
Y186249D01*
X491750Y186499D01*
X492000D01*
X492250Y186249D01*
Y185499D01*
X491250Y186999D02*
Y187998D01*
X493000Y188498D02*
Y188998D01*
Y188748D01*
X491500D01*
Y188498D01*
Y188998D01*
Y189748D02*
X493000D01*
Y190497D01*
X492750Y190747D01*
X492250D01*
X492000Y190497D01*
Y189748D01*
Y190247D02*
X491500Y190747D01*
X493000Y192247D02*
Y191247D01*
X492250D01*
Y191747D01*
Y191247D01*
X491500D01*
X492750Y193746D02*
X493000Y193497D01*
Y192997D01*
X492750Y192747D01*
X492500D01*
X492250Y192997D01*
Y193497D01*
X492000Y193746D01*
X491750D01*
X491500Y193497D01*
Y192997D01*
X491750Y192747D01*
X491500Y194246D02*
Y194746D01*
Y194496D01*
X493000D01*
X492750Y194246D01*
X283756Y296756D02*
X282256D01*
Y296006D01*
X282506Y295756D01*
X283006D01*
X283256Y296006D01*
Y296756D01*
Y296256D02*
X283756Y295756D01*
X282506Y295256D02*
X282256Y295006D01*
Y294507D01*
X282506Y294257D01*
X282756D01*
X283006Y294507D01*
X283256Y294257D01*
X283506D01*
X283756Y294507D01*
Y295006D01*
X283506Y295256D01*
X283256D01*
X283006Y295006D01*
X282756Y295256D01*
X282506D01*
X283006Y295006D02*
Y294507D01*
X282506Y293757D02*
X282256Y293507D01*
Y293007D01*
X282506Y292757D01*
X282756D01*
X283006Y293007D01*
Y293257D01*
Y293007D01*
X283256Y292757D01*
X283506D01*
X283756Y293007D01*
Y293507D01*
X283506Y293757D01*
X284006Y292257D02*
Y291258D01*
X282256Y290758D02*
Y290258D01*
Y290508D01*
X283756D01*
Y290758D01*
Y290258D01*
Y289508D02*
X282256D01*
Y288758D01*
X282506Y288509D01*
X283006D01*
X283256Y288758D01*
Y289508D01*
Y289008D02*
X283756Y288509D01*
X282256Y287009D02*
Y288009D01*
X283006D01*
Y287509D01*
Y288009D01*
X283756D01*
X282506Y285509D02*
X282256Y285759D01*
Y286259D01*
X282506Y286509D01*
X282756D01*
X283006Y286259D01*
Y285759D01*
X283256Y285509D01*
X283506D01*
X283756Y285759D01*
Y286259D01*
X283506Y286509D01*
X283756Y284010D02*
Y285010D01*
X282756Y284010D01*
X282506D01*
X282256Y284260D01*
Y284760D01*
X282506Y285010D01*
X496500Y289000D02*
X497999D01*
Y289750D01*
X497750Y290000D01*
X497250D01*
X497000Y289750D01*
Y289000D01*
Y289500D02*
X496500Y290000D01*
X497750Y290499D02*
X497999Y290749D01*
Y291249D01*
X497750Y291499D01*
X497500D01*
X497250Y291249D01*
X497000Y291499D01*
X496750D01*
X496500Y291249D01*
Y290749D01*
X496750Y290499D01*
X497000D01*
X497250Y290749D01*
X497500Y290499D01*
X497750D01*
X497250Y290749D02*
Y291249D01*
X497750Y291999D02*
X497999Y292249D01*
Y292749D01*
X497750Y292999D01*
X497500D01*
X497250Y292749D01*
Y292499D01*
Y292749D01*
X497000Y292999D01*
X496750D01*
X496500Y292749D01*
Y292249D01*
X496750Y291999D01*
X496250Y293499D02*
Y294498D01*
X497999Y294998D02*
Y295498D01*
Y295248D01*
X496500D01*
Y294998D01*
Y295498D01*
Y296248D02*
X497999D01*
Y296997D01*
X497750Y297247D01*
X497250D01*
X497000Y296997D01*
Y296248D01*
Y296747D02*
X496500Y297247D01*
X497999Y298747D02*
Y297747D01*
X497250D01*
Y298247D01*
Y297747D01*
X496500D01*
X497750Y300246D02*
X497999Y299996D01*
Y299497D01*
X497750Y299247D01*
X497500D01*
X497250Y299497D01*
Y299996D01*
X497000Y300246D01*
X496750D01*
X496500Y299996D01*
Y299497D01*
X496750Y299247D01*
X496500Y300746D02*
Y301246D01*
Y300996D01*
X497999D01*
X497750Y300746D01*
X287500Y218000D02*
X289000D01*
Y218750D01*
X288750Y219000D01*
X288250D01*
X288000Y218750D01*
Y218000D01*
Y218500D02*
X287500Y219000D01*
X288750Y219499D02*
X289000Y219749D01*
Y220249D01*
X288750Y220499D01*
X288500D01*
X288250Y220249D01*
X288000Y220499D01*
X287750D01*
X287500Y220249D01*
Y219749D01*
X287750Y219499D01*
X288000D01*
X288250Y219749D01*
X288500Y219499D01*
X288750D01*
X288250Y219749D02*
Y220249D01*
X287500Y221999D02*
Y220999D01*
X288500Y221999D01*
X288750D01*
X289000Y221749D01*
Y221249D01*
X288750Y220999D01*
X287250Y222499D02*
Y223498D01*
X289000Y223998D02*
Y224498D01*
Y224248D01*
X287500D01*
Y223998D01*
Y224498D01*
Y225248D02*
X289000D01*
Y225997D01*
X288750Y226247D01*
X288250D01*
X288000Y225997D01*
Y225248D01*
Y225747D02*
X287500Y226247D01*
X289000Y227747D02*
Y226747D01*
X288250D01*
Y227247D01*
Y226747D01*
X287500D01*
X288750Y229246D02*
X289000Y228996D01*
Y228497D01*
X288750Y228247D01*
X288500D01*
X288250Y228497D01*
Y228996D01*
X288000Y229246D01*
X287750D01*
X287500Y228996D01*
Y228497D01*
X287750Y228247D01*
X287500Y230746D02*
Y229746D01*
X288500Y230746D01*
X288750D01*
X289000Y230496D01*
Y229996D01*
X288750Y229746D01*
X491000Y218000D02*
X492499D01*
Y218750D01*
X492250Y219000D01*
X491750D01*
X491500Y218750D01*
Y218000D01*
Y218500D02*
X491000Y219000D01*
X492250Y219499D02*
X492499Y219749D01*
Y220249D01*
X492250Y220499D01*
X492000D01*
X491750Y220249D01*
X491500Y220499D01*
X491250D01*
X491000Y220249D01*
Y219749D01*
X491250Y219499D01*
X491500D01*
X491750Y219749D01*
X492000Y219499D01*
X492250D01*
X491750Y219749D02*
Y220249D01*
X491000Y221999D02*
Y220999D01*
X492000Y221999D01*
X492250D01*
X492499Y221749D01*
Y221249D01*
X492250Y220999D01*
X490750Y222499D02*
Y223498D01*
X492499Y223998D02*
Y224498D01*
Y224248D01*
X491000D01*
Y223998D01*
Y224498D01*
Y225248D02*
X492499D01*
Y225997D01*
X492250Y226247D01*
X491750D01*
X491500Y225997D01*
Y225248D01*
Y225747D02*
X491000Y226247D01*
X492499Y227747D02*
Y226747D01*
X491750D01*
Y227247D01*
Y226747D01*
X491000D01*
X492250Y229246D02*
X492499Y228996D01*
Y228497D01*
X492250Y228247D01*
X492000D01*
X491750Y228497D01*
Y228996D01*
X491500Y229246D01*
X491250D01*
X491000Y228996D01*
Y228497D01*
X491250Y228247D01*
X491000Y229746D02*
Y230246D01*
Y229996D01*
X492499D01*
X492250Y229746D01*
X292000Y308000D02*
Y309500D01*
X291250D01*
X291000Y309250D01*
Y308750D01*
X291250Y308500D01*
X292000D01*
X291500D02*
X291000Y308000D01*
X290500Y309250D02*
X290251Y309500D01*
X289751D01*
X289501Y309250D01*
Y309000D01*
X289751Y308750D01*
X289501Y308500D01*
Y308250D01*
X289751Y308000D01*
X290251D01*
X290500Y308250D01*
Y308500D01*
X290251Y308750D01*
X290500Y309000D01*
Y309250D01*
X290251Y308750D02*
X289751D01*
X289001Y308000D02*
X288501D01*
X288751D01*
Y309500D01*
X289001Y309250D01*
X287751Y307750D02*
X286752D01*
X286252Y309500D02*
X285752D01*
X286002D01*
Y308000D01*
X286252D01*
X285752D01*
X285002D02*
Y309500D01*
X284253D01*
X284003Y309250D01*
Y308750D01*
X284253Y308500D01*
X285002D01*
X284502D02*
X284003Y308000D01*
X282503Y309500D02*
X283503D01*
Y308750D01*
X283003D01*
X283503D01*
Y308000D01*
X281003Y309250D02*
X281253Y309500D01*
X281753D01*
X282003Y309250D01*
Y309000D01*
X281753Y308750D01*
X281253D01*
X281003Y308500D01*
Y308250D01*
X281253Y308000D01*
X281753D01*
X282003Y308250D01*
X279504Y308000D02*
X280504D01*
X279504Y309000D01*
Y309250D01*
X279754Y309500D01*
X280254D01*
X280504Y309250D01*
X497000Y317500D02*
Y319000D01*
X496250D01*
X496000Y318750D01*
Y318250D01*
X496250Y318000D01*
X497000D01*
X496500D02*
X496000Y317500D01*
X495501Y318750D02*
X495251Y319000D01*
X494751D01*
X494501Y318750D01*
Y318500D01*
X494751Y318250D01*
X494501Y318000D01*
Y317750D01*
X494751Y317500D01*
X495251D01*
X495501Y317750D01*
Y318000D01*
X495251Y318250D01*
X495501Y318500D01*
Y318750D01*
X495251Y318250D02*
X494751D01*
X494001Y317500D02*
X493501D01*
X493751D01*
Y319000D01*
X494001Y318750D01*
X492751Y317250D02*
X491752D01*
X491252Y319000D02*
X490752D01*
X491002D01*
Y317500D01*
X491252D01*
X490752D01*
X490002D02*
Y319000D01*
X489253D01*
X489003Y318750D01*
Y318250D01*
X489253Y318000D01*
X490002D01*
X489502D02*
X489003Y317500D01*
X487503Y319000D02*
X488503D01*
Y318250D01*
X488003D01*
X488503D01*
Y317500D01*
X486003Y318750D02*
X486253Y319000D01*
X486753D01*
X487003Y318750D01*
Y318500D01*
X486753Y318250D01*
X486253D01*
X486003Y318000D01*
Y317750D01*
X486253Y317500D01*
X486753D01*
X487003Y317750D01*
X485504Y317500D02*
X485004D01*
X485254D01*
Y319000D01*
X485504Y318750D01*
X293000Y231000D02*
X294499D01*
Y231750D01*
X294250Y232000D01*
X293750D01*
X293500Y231750D01*
Y231000D01*
Y231500D02*
X293000Y232000D01*
X294250Y232500D02*
X294499Y232749D01*
Y233249D01*
X294250Y233499D01*
X294000D01*
X293750Y233249D01*
X293500Y233499D01*
X293250D01*
X293000Y233249D01*
Y232749D01*
X293250Y232500D01*
X293500D01*
X293750Y232749D01*
X294000Y232500D01*
X294250D01*
X293750Y232749D02*
Y233249D01*
X294250Y233999D02*
X294499Y234249D01*
Y234749D01*
X294250Y234999D01*
X293250D01*
X293000Y234749D01*
Y234249D01*
X293250Y233999D01*
X294250D01*
X292750Y235499D02*
Y236498D01*
X294499Y236998D02*
Y237498D01*
Y237248D01*
X293000D01*
Y236998D01*
Y237498D01*
Y238248D02*
X294499D01*
Y238997D01*
X294250Y239247D01*
X293750D01*
X293500Y238997D01*
Y238248D01*
Y238748D02*
X293000Y239247D01*
X294499Y240747D02*
Y239747D01*
X293750D01*
Y240247D01*
Y239747D01*
X293000D01*
X294250Y242246D02*
X294499Y241997D01*
Y241497D01*
X294250Y241247D01*
X294000D01*
X293750Y241497D01*
Y241997D01*
X293500Y242246D01*
X293250D01*
X293000Y241997D01*
Y241497D01*
X293250Y241247D01*
X293000Y243746D02*
Y242746D01*
X294000Y243746D01*
X294250D01*
X294499Y243496D01*
Y242996D01*
X294250Y242746D01*
X493500Y237000D02*
Y238499D01*
X492750D01*
X492500Y238250D01*
Y237750D01*
X492750Y237500D01*
X493500D01*
X493000D02*
X492500Y237000D01*
X492000Y238250D02*
X491751Y238499D01*
X491251D01*
X491001Y238250D01*
Y238000D01*
X491251Y237750D01*
X491001Y237500D01*
Y237250D01*
X491251Y237000D01*
X491751D01*
X492000Y237250D01*
Y237500D01*
X491751Y237750D01*
X492000Y238000D01*
Y238250D01*
X491751Y237750D02*
X491251D01*
X490501Y238250D02*
X490251Y238499D01*
X489751D01*
X489501Y238250D01*
Y237250D01*
X489751Y237000D01*
X490251D01*
X490501Y237250D01*
Y238250D01*
X489001Y236750D02*
X488002D01*
X487502Y238499D02*
X487002D01*
X487252D01*
Y237000D01*
X487502D01*
X487002D01*
X486252D02*
Y238499D01*
X485503D01*
X485253Y238250D01*
Y237750D01*
X485503Y237500D01*
X486252D01*
X485752D02*
X485253Y237000D01*
X483753Y238499D02*
X484753D01*
Y237750D01*
X484253D01*
X484753D01*
Y237000D01*
X482254Y238250D02*
X482504Y238499D01*
X483003D01*
X483253Y238250D01*
Y238000D01*
X483003Y237750D01*
X482504D01*
X482254Y237500D01*
Y237250D01*
X482504Y237000D01*
X483003D01*
X483253Y237250D01*
X481754Y237000D02*
X481254D01*
X481504D01*
Y238499D01*
X481754Y238250D01*
X136000Y199000D02*
X134501D01*
Y198250D01*
X134750Y198000D01*
X135250D01*
X135500Y198250D01*
Y199000D01*
Y198500D02*
X136000Y198000D01*
X134501Y197501D02*
Y196501D01*
X134750D01*
X135750Y197501D01*
X136000D01*
X135750Y196001D02*
X136000Y195751D01*
Y195251D01*
X135750Y195001D01*
X134750D01*
X134501Y195251D01*
Y195751D01*
X134750Y196001D01*
X135000D01*
X135250Y195751D01*
Y195001D01*
X136250Y194501D02*
Y193502D01*
X134501Y193002D02*
Y192502D01*
Y192752D01*
X136000D01*
Y193002D01*
Y192502D01*
Y191752D02*
X134501D01*
Y191003D01*
X134750Y190753D01*
X135250D01*
X135500Y191003D01*
Y191752D01*
Y191253D02*
X136000Y190753D01*
X134501Y189253D02*
Y190253D01*
X135250D01*
Y189753D01*
Y190253D01*
X136000D01*
X134750Y187754D02*
X134501Y188004D01*
Y188503D01*
X134750Y188753D01*
X135000D01*
X135250Y188503D01*
Y188004D01*
X135500Y187754D01*
X135750D01*
X136000Y188004D01*
Y188503D01*
X135750Y188753D01*
X136000Y186254D02*
Y187254D01*
X135000Y186254D01*
X134750D01*
X134501Y186504D01*
Y187004D01*
X134750Y187254D01*
X340000Y211500D02*
X338500D01*
Y210750D01*
X338750Y210500D01*
X339250D01*
X339500Y210750D01*
Y211500D01*
Y211000D02*
X340000Y210500D01*
X338500Y210000D02*
Y209001D01*
X338750D01*
X339750Y210000D01*
X340000D01*
X339750Y208501D02*
X340000Y208251D01*
Y207751D01*
X339750Y207501D01*
X338750D01*
X338500Y207751D01*
Y208251D01*
X338750Y208501D01*
X339000D01*
X339250Y208251D01*
Y207501D01*
X340250Y207001D02*
Y206002D01*
X338500Y205502D02*
Y205002D01*
Y205252D01*
X340000D01*
Y205502D01*
Y205002D01*
Y204252D02*
X338500D01*
Y203503D01*
X338750Y203253D01*
X339250D01*
X339500Y203503D01*
Y204252D01*
Y203752D02*
X340000Y203253D01*
X338500Y201753D02*
Y202753D01*
X339250D01*
Y202253D01*
Y202753D01*
X340000D01*
X338750Y200254D02*
X338500Y200503D01*
Y201003D01*
X338750Y201253D01*
X339000D01*
X339250Y201003D01*
Y200503D01*
X339500Y200254D01*
X339750D01*
X340000Y200503D01*
Y201003D01*
X339750Y201253D01*
X340000Y199754D02*
Y199254D01*
Y199504D01*
X338500D01*
X338750Y199754D01*
X235756Y288012D02*
X237255D01*
Y288762D01*
X237005Y289012D01*
X236506D01*
X236256Y288762D01*
Y288012D01*
Y288512D02*
X235756Y289012D01*
X237255Y289511D02*
Y290511D01*
X237005D01*
X236006Y289511D01*
X235756D01*
X237005Y291011D02*
X237255Y291261D01*
Y291761D01*
X237005Y292010D01*
X236756D01*
X236506Y291761D01*
X236256Y292010D01*
X236006D01*
X235756Y291761D01*
Y291261D01*
X236006Y291011D01*
X236256D01*
X236506Y291261D01*
X236756Y291011D01*
X237005D01*
X236506Y291261D02*
Y291761D01*
X235506Y292510D02*
Y293510D01*
X237255Y294010D02*
Y294510D01*
Y294260D01*
X235756D01*
Y294010D01*
Y294510D01*
Y295259D02*
X237255D01*
Y296009D01*
X237005Y296259D01*
X236506D01*
X236256Y296009D01*
Y295259D01*
Y295759D02*
X235756Y296259D01*
X237255Y297759D02*
Y296759D01*
X236506D01*
Y297259D01*
Y296759D01*
X235756D01*
X237005Y299258D02*
X237255Y299008D01*
Y298508D01*
X237005Y298258D01*
X236756D01*
X236506Y298508D01*
Y299008D01*
X236256Y299258D01*
X236006D01*
X235756Y299008D01*
Y298508D01*
X236006Y298258D01*
X235756Y300758D02*
Y299758D01*
X236756Y300758D01*
X237005D01*
X237255Y300508D01*
Y300008D01*
X237005Y299758D01*
X440500Y288000D02*
X441999D01*
Y288750D01*
X441750Y289000D01*
X441250D01*
X441000Y288750D01*
Y288000D01*
Y288500D02*
X440500Y289000D01*
X441999Y289499D02*
Y290499D01*
X441750D01*
X440750Y289499D01*
X440500D01*
X441750Y290999D02*
X441999Y291249D01*
Y291749D01*
X441750Y291999D01*
X441500D01*
X441250Y291749D01*
X441000Y291999D01*
X440750D01*
X440500Y291749D01*
Y291249D01*
X440750Y290999D01*
X441000D01*
X441250Y291249D01*
X441500Y290999D01*
X441750D01*
X441250Y291249D02*
Y291749D01*
X440250Y292499D02*
Y293498D01*
X441999Y293998D02*
Y294498D01*
Y294248D01*
X440500D01*
Y293998D01*
Y294498D01*
Y295248D02*
X441999D01*
Y295997D01*
X441750Y296247D01*
X441250D01*
X441000Y295997D01*
Y295248D01*
Y295747D02*
X440500Y296247D01*
X441999Y297747D02*
Y296747D01*
X441250D01*
Y297247D01*
Y296747D01*
X440500D01*
X441750Y299246D02*
X441999Y298996D01*
Y298497D01*
X441750Y298247D01*
X441500D01*
X441250Y298497D01*
Y298996D01*
X441000Y299246D01*
X440750D01*
X440500Y298996D01*
Y298497D01*
X440750Y298247D01*
X440500Y299746D02*
Y300246D01*
Y299996D01*
X441999D01*
X441750Y299746D01*
X234844Y310800D02*
Y312299D01*
X234094D01*
X233844Y312050D01*
Y311550D01*
X234094Y311300D01*
X234844D01*
X234344D02*
X233844Y310800D01*
X233345Y312299D02*
X232345D01*
Y312050D01*
X233345Y311050D01*
Y310800D01*
X231845Y312299D02*
X230845D01*
Y312050D01*
X231845Y311050D01*
Y310800D01*
X230346Y310550D02*
X229346D01*
X228846Y312299D02*
X228346D01*
X228596D01*
Y310800D01*
X228846D01*
X228346D01*
X227596D02*
Y312299D01*
X226847D01*
X226597Y312050D01*
Y311550D01*
X226847Y311300D01*
X227596D01*
X227097D02*
X226597Y310800D01*
X225097Y312299D02*
X226097D01*
Y311550D01*
X225597D01*
X226097D01*
Y310800D01*
X223598Y312050D02*
X223848Y312299D01*
X224347D01*
X224597Y312050D01*
Y311800D01*
X224347Y311550D01*
X223848D01*
X223598Y311300D01*
Y311050D01*
X223848Y310800D01*
X224347D01*
X224597Y311050D01*
X222098Y310800D02*
X223098D01*
X222098Y311800D01*
Y312050D01*
X222348Y312299D01*
X222848D01*
X223098Y312050D01*
X441500Y317500D02*
Y319000D01*
X440750D01*
X440500Y318750D01*
Y318250D01*
X440750Y318000D01*
X441500D01*
X441000D02*
X440500Y317500D01*
X440000Y319000D02*
X439001D01*
Y318750D01*
X440000Y317750D01*
Y317500D01*
X438501Y319000D02*
X437501D01*
Y318750D01*
X438501Y317750D01*
Y317500D01*
X437001Y317250D02*
X436002D01*
X435502Y319000D02*
X435002D01*
X435252D01*
Y317500D01*
X435502D01*
X435002D01*
X434252D02*
Y319000D01*
X433503D01*
X433253Y318750D01*
Y318250D01*
X433503Y318000D01*
X434252D01*
X433752D02*
X433253Y317500D01*
X431753Y319000D02*
X432753D01*
Y318250D01*
X432253D01*
X432753D01*
Y317500D01*
X430254Y318750D02*
X430504Y319000D01*
X431003D01*
X431253Y318750D01*
Y318500D01*
X431003Y318250D01*
X430504D01*
X430254Y318000D01*
Y317750D01*
X430504Y317500D01*
X431003D01*
X431253Y317750D01*
X429754Y317500D02*
X429254D01*
X429504D01*
Y319000D01*
X429754Y318750D01*
X229500Y233000D02*
X228000D01*
Y232250D01*
X228250Y232000D01*
X228750D01*
X229000Y232250D01*
Y233000D01*
Y232500D02*
X229500Y232000D01*
X228000Y231501D02*
Y230501D01*
X228250D01*
X229250Y231501D01*
X229500D01*
X228000Y229001D02*
X228250Y229501D01*
X228750Y230001D01*
X229250D01*
X229500Y229751D01*
Y229251D01*
X229250Y229001D01*
X229000D01*
X228750Y229251D01*
Y230001D01*
X229750Y228501D02*
Y227502D01*
X228000Y227002D02*
Y226502D01*
Y226752D01*
X229500D01*
Y227002D01*
Y226502D01*
Y225752D02*
X228000D01*
Y225003D01*
X228250Y224753D01*
X228750D01*
X229000Y225003D01*
Y225752D01*
Y225253D02*
X229500Y224753D01*
X228000Y223253D02*
Y224253D01*
X228750D01*
Y223753D01*
Y224253D01*
X229500D01*
X228250Y221754D02*
X228000Y222004D01*
Y222503D01*
X228250Y222753D01*
X228500D01*
X228750Y222503D01*
Y222004D01*
X229000Y221754D01*
X229250D01*
X229500Y222004D01*
Y222503D01*
X229250Y222753D01*
X229500Y220254D02*
Y221254D01*
X228500Y220254D01*
X228250D01*
X228000Y220504D01*
Y221004D01*
X228250Y221254D01*
X434000Y234744D02*
X432501D01*
Y233994D01*
X432750Y233744D01*
X433250D01*
X433500Y233994D01*
Y234744D01*
Y234244D02*
X434000Y233744D01*
X432501Y233245D02*
Y232245D01*
X432750D01*
X433750Y233245D01*
X434000D01*
X432501Y230745D02*
X432750Y231245D01*
X433250Y231745D01*
X433750D01*
X434000Y231495D01*
Y230995D01*
X433750Y230745D01*
X433500D01*
X433250Y230995D01*
Y231745D01*
X434250Y230245D02*
Y229246D01*
X432501Y228746D02*
Y228246D01*
Y228496D01*
X434000D01*
Y228746D01*
Y228246D01*
Y227496D02*
X432501D01*
Y226747D01*
X432750Y226497D01*
X433250D01*
X433500Y226747D01*
Y227496D01*
Y226997D02*
X434000Y226497D01*
X432501Y224997D02*
Y225997D01*
X433250D01*
Y225497D01*
Y225997D01*
X434000D01*
X432750Y223498D02*
X432501Y223748D01*
Y224247D01*
X432750Y224497D01*
X433000D01*
X433250Y224247D01*
Y223748D01*
X433500Y223498D01*
X433750D01*
X434000Y223748D01*
Y224247D01*
X433750Y224497D01*
X434000Y222998D02*
Y222498D01*
Y222748D01*
X432501D01*
X432750Y222998D01*
X241000Y236000D02*
Y237499D01*
X240250D01*
X240000Y237250D01*
Y236750D01*
X240250Y236500D01*
X241000D01*
X240500D02*
X240000Y236000D01*
X239500Y237499D02*
X238501D01*
Y237250D01*
X239500Y236250D01*
Y236000D01*
X237001Y237499D02*
X238001D01*
Y236750D01*
X237501Y237000D01*
X237251D01*
X237001Y236750D01*
Y236250D01*
X237251Y236000D01*
X237751D01*
X238001Y236250D01*
X236501Y235750D02*
X235502D01*
X235002Y237499D02*
X234502D01*
X234752D01*
Y236000D01*
X235002D01*
X234502D01*
X233752D02*
Y237499D01*
X233003D01*
X232753Y237250D01*
Y236750D01*
X233003Y236500D01*
X233752D01*
X233253D02*
X232753Y236000D01*
X231253Y237499D02*
X232253D01*
Y236750D01*
X231753D01*
X232253D01*
Y236000D01*
X229754Y237250D02*
X230003Y237499D01*
X230503D01*
X230753Y237250D01*
Y237000D01*
X230503Y236750D01*
X230003D01*
X229754Y236500D01*
Y236250D01*
X230003Y236000D01*
X230503D01*
X230753Y236250D01*
X228254Y236000D02*
X229254D01*
X228254Y237000D01*
Y237250D01*
X228504Y237499D01*
X229004D01*
X229254Y237250D01*
X447000Y236500D02*
Y238000D01*
X446250D01*
X446000Y237750D01*
Y237250D01*
X446250Y237000D01*
X447000D01*
X446500D02*
X446000Y236500D01*
X445501Y238000D02*
X444501D01*
Y237750D01*
X445501Y236750D01*
Y236500D01*
X443001Y238000D02*
X444001D01*
Y237250D01*
X443501Y237500D01*
X443251D01*
X443001Y237250D01*
Y236750D01*
X443251Y236500D01*
X443751D01*
X444001Y236750D01*
X442501Y236250D02*
X441502D01*
X441002Y238000D02*
X440502D01*
X440752D01*
Y236500D01*
X441002D01*
X440502D01*
X439752D02*
Y238000D01*
X439003D01*
X438753Y237750D01*
Y237250D01*
X439003Y237000D01*
X439752D01*
X439253D02*
X438753Y236500D01*
X437253Y238000D02*
X438253D01*
Y237250D01*
X437753D01*
X438253D01*
Y236500D01*
X435754Y237750D02*
X436003Y238000D01*
X436503D01*
X436753Y237750D01*
Y237500D01*
X436503Y237250D01*
X436003D01*
X435754Y237000D01*
Y236750D01*
X436003Y236500D01*
X436503D01*
X436753Y236750D01*
X435254Y236500D02*
X434754D01*
X435004D01*
Y238000D01*
X435254Y237750D01*
X186000Y288500D02*
X187499D01*
Y289250D01*
X187250Y289500D01*
X186750D01*
X186500Y289250D01*
Y288500D01*
Y289000D02*
X186000Y289500D01*
X187499Y290000D02*
Y290999D01*
X187250D01*
X186250Y290000D01*
X186000D01*
Y292249D02*
X187499D01*
X186750Y291499D01*
Y292499D01*
X185750Y292999D02*
Y293998D01*
X187499Y294498D02*
Y294998D01*
Y294748D01*
X186000D01*
Y294498D01*
Y294998D01*
Y295748D02*
X187499D01*
Y296497D01*
X187250Y296747D01*
X186750D01*
X186500Y296497D01*
Y295748D01*
Y296248D02*
X186000Y296747D01*
X187499Y298247D02*
Y297247D01*
X186750D01*
Y297747D01*
Y297247D01*
X186000D01*
X187250Y299746D02*
X187499Y299497D01*
Y298997D01*
X187250Y298747D01*
X187000D01*
X186750Y298997D01*
Y299497D01*
X186500Y299746D01*
X186250D01*
X186000Y299497D01*
Y298997D01*
X186250Y298747D01*
X186000Y301246D02*
Y300246D01*
X187000Y301246D01*
X187250D01*
X187499Y300996D01*
Y300496D01*
X187250Y300246D01*
X390000Y288000D02*
X391499D01*
Y288750D01*
X391250Y289000D01*
X390750D01*
X390500Y288750D01*
Y288000D01*
Y288500D02*
X390000Y289000D01*
X391499Y289499D02*
Y290499D01*
X391250D01*
X390250Y289499D01*
X390000D01*
Y291749D02*
X391499D01*
X390750Y290999D01*
Y291999D01*
X389750Y292499D02*
Y293498D01*
X391499Y293998D02*
Y294498D01*
Y294248D01*
X390000D01*
Y293998D01*
Y294498D01*
Y295248D02*
X391499D01*
Y295997D01*
X391250Y296247D01*
X390750D01*
X390500Y295997D01*
Y295248D01*
Y295747D02*
X390000Y296247D01*
X391499Y297747D02*
Y296747D01*
X390750D01*
Y297247D01*
Y296747D01*
X390000D01*
X391250Y299246D02*
X391499Y298996D01*
Y298497D01*
X391250Y298247D01*
X391000D01*
X390750Y298497D01*
Y298996D01*
X390500Y299246D01*
X390250D01*
X390000Y298996D01*
Y298497D01*
X390250Y298247D01*
X390000Y299746D02*
Y300246D01*
Y299996D01*
X391499D01*
X391250Y299746D01*
X178000Y231744D02*
X176500D01*
Y230994D01*
X176750Y230744D01*
X177250D01*
X177500Y230994D01*
Y231744D01*
Y231244D02*
X178000Y230744D01*
X176500Y230245D02*
Y229245D01*
X176750D01*
X177750Y230245D01*
X178000D01*
X176750Y228745D02*
X176500Y228495D01*
Y227995D01*
X176750Y227745D01*
X177000D01*
X177250Y227995D01*
Y228245D01*
Y227995D01*
X177500Y227745D01*
X177750D01*
X178000Y227995D01*
Y228495D01*
X177750Y228745D01*
X178250Y227245D02*
Y226246D01*
X176500Y225746D02*
Y225246D01*
Y225496D01*
X178000D01*
Y225746D01*
Y225246D01*
Y224496D02*
X176500D01*
Y223747D01*
X176750Y223497D01*
X177250D01*
X177500Y223747D01*
Y224496D01*
Y223997D02*
X178000Y223497D01*
X176500Y221997D02*
Y222997D01*
X177250D01*
Y222497D01*
Y222997D01*
X178000D01*
X176750Y220498D02*
X176500Y220748D01*
Y221248D01*
X176750Y221497D01*
X177000D01*
X177250Y221248D01*
Y220748D01*
X177500Y220498D01*
X177750D01*
X178000Y220748D01*
Y221248D01*
X177750Y221497D01*
X178000Y218998D02*
Y219998D01*
X177000Y218998D01*
X176750D01*
X176500Y219248D01*
Y219748D01*
X176750Y219998D01*
X381500Y234000D02*
X380000D01*
Y233250D01*
X380250Y233000D01*
X380750D01*
X381000Y233250D01*
Y234000D01*
Y233500D02*
X381500Y233000D01*
X380000Y232501D02*
Y231501D01*
X380250D01*
X381250Y232501D01*
X381500D01*
X380250Y231001D02*
X380000Y230751D01*
Y230251D01*
X380250Y230001D01*
X380500D01*
X380750Y230251D01*
Y230501D01*
Y230251D01*
X381000Y230001D01*
X381250D01*
X381500Y230251D01*
Y230751D01*
X381250Y231001D01*
X381750Y229501D02*
Y228502D01*
X380000Y228002D02*
Y227502D01*
Y227752D01*
X381500D01*
Y228002D01*
Y227502D01*
Y226752D02*
X380000D01*
Y226003D01*
X380250Y225753D01*
X380750D01*
X381000Y226003D01*
Y226752D01*
Y226253D02*
X381500Y225753D01*
X380000Y224253D02*
Y225253D01*
X380750D01*
Y224753D01*
Y225253D01*
X381500D01*
X380250Y222754D02*
X380000Y223004D01*
Y223503D01*
X380250Y223753D01*
X380500D01*
X380750Y223503D01*
Y223004D01*
X381000Y222754D01*
X381250D01*
X381500Y223004D01*
Y223503D01*
X381250Y223753D01*
X381500Y222254D02*
Y221754D01*
Y222004D01*
X380000D01*
X380250Y222254D01*
X191000Y310500D02*
Y312000D01*
X190250D01*
X190000Y311750D01*
Y311250D01*
X190250Y311000D01*
X191000D01*
X190500D02*
X190000Y310500D01*
X189500Y312000D02*
X188501D01*
Y311750D01*
X189500Y310750D01*
Y310500D01*
X187001D02*
X188001D01*
X187001Y311500D01*
Y311750D01*
X187251Y312000D01*
X187751D01*
X188001Y311750D01*
X186501Y310250D02*
X185502D01*
X185002Y312000D02*
X184502D01*
X184752D01*
Y310500D01*
X185002D01*
X184502D01*
X183752D02*
Y312000D01*
X183003D01*
X182753Y311750D01*
Y311250D01*
X183003Y311000D01*
X183752D01*
X183253D02*
X182753Y310500D01*
X181253Y312000D02*
X182253D01*
Y311250D01*
X181753D01*
X182253D01*
Y310500D01*
X179754Y311750D02*
X180003Y312000D01*
X180503D01*
X180753Y311750D01*
Y311500D01*
X180503Y311250D01*
X180003D01*
X179754Y311000D01*
Y310750D01*
X180003Y310500D01*
X180503D01*
X180753Y310750D01*
X178254Y310500D02*
X179254D01*
X178254Y311500D01*
Y311750D01*
X178504Y312000D01*
X179004D01*
X179254Y311750D01*
X388500Y317500D02*
Y319000D01*
X387750D01*
X387500Y318750D01*
Y318250D01*
X387750Y318000D01*
X388500D01*
X388000D02*
X387500Y317500D01*
X387000Y319000D02*
X386001D01*
Y318750D01*
X387000Y317750D01*
Y317500D01*
X384501D02*
X385501D01*
X384501Y318500D01*
Y318750D01*
X384751Y319000D01*
X385251D01*
X385501Y318750D01*
X384001Y317250D02*
X383002D01*
X382502Y319000D02*
X382002D01*
X382252D01*
Y317500D01*
X382502D01*
X382002D01*
X381252D02*
Y319000D01*
X380503D01*
X380253Y318750D01*
Y318250D01*
X380503Y318000D01*
X381252D01*
X380752D02*
X380253Y317500D01*
X378753Y319000D02*
X379753D01*
Y318250D01*
X379253D01*
X379753D01*
Y317500D01*
X377254Y318750D02*
X377503Y319000D01*
X378003D01*
X378253Y318750D01*
Y318500D01*
X378003Y318250D01*
X377503D01*
X377254Y318000D01*
Y317750D01*
X377503Y317500D01*
X378003D01*
X378253Y317750D01*
X376754Y317500D02*
X376254D01*
X376504D01*
Y319000D01*
X376754Y318750D01*
X188500Y234000D02*
Y235500D01*
X187750D01*
X187500Y235250D01*
Y234750D01*
X187750Y234500D01*
X188500D01*
X188000D02*
X187500Y234000D01*
X187001Y235500D02*
X186001D01*
Y235250D01*
X187001Y234250D01*
Y234000D01*
X185501D02*
X185001D01*
X185251D01*
Y235500D01*
X185501Y235250D01*
X184251Y233750D02*
X183252D01*
X182752Y235500D02*
X182252D01*
X182502D01*
Y234000D01*
X182752D01*
X182252D01*
X181502D02*
Y235500D01*
X180753D01*
X180503Y235250D01*
Y234750D01*
X180753Y234500D01*
X181502D01*
X181002D02*
X180503Y234000D01*
X179003Y235500D02*
X180003D01*
Y234750D01*
X179503D01*
X180003D01*
Y234000D01*
X177504Y235250D02*
X177753Y235500D01*
X178253D01*
X178503Y235250D01*
Y235000D01*
X178253Y234750D01*
X177753D01*
X177504Y234500D01*
Y234250D01*
X177753Y234000D01*
X178253D01*
X178503Y234250D01*
X176004Y234000D02*
X177004D01*
X176004Y235000D01*
Y235250D01*
X176254Y235500D01*
X176754D01*
X177004Y235250D01*
X396500Y236500D02*
Y238000D01*
X395750D01*
X395500Y237750D01*
Y237250D01*
X395750Y237000D01*
X396500D01*
X396000D02*
X395500Y236500D01*
X395001Y238000D02*
X394001D01*
Y237750D01*
X395001Y236750D01*
Y236500D01*
X393501D02*
X393001D01*
X393251D01*
Y238000D01*
X393501Y237750D01*
X392251Y236250D02*
X391252D01*
X390752Y238000D02*
X390252D01*
X390502D01*
Y236500D01*
X390752D01*
X390252D01*
X389502D02*
Y238000D01*
X388753D01*
X388503Y237750D01*
Y237250D01*
X388753Y237000D01*
X389502D01*
X389002D02*
X388503Y236500D01*
X387003Y238000D02*
X388003D01*
Y237250D01*
X387503D01*
X388003D01*
Y236500D01*
X385504Y237750D02*
X385753Y238000D01*
X386253D01*
X386503Y237750D01*
Y237500D01*
X386253Y237250D01*
X385753D01*
X385504Y237000D01*
Y236750D01*
X385753Y236500D01*
X386253D01*
X386503Y236750D01*
X385004Y236500D02*
X384504D01*
X384754D01*
Y238000D01*
X385004Y237750D01*
X189500Y191000D02*
Y192499D01*
X188750D01*
X188500Y192250D01*
Y191750D01*
X188750Y191500D01*
X189500D01*
X189000D02*
X188500Y191000D01*
X187001Y192499D02*
X188001D01*
Y191750D01*
X187501Y192000D01*
X187251D01*
X187001Y191750D01*
Y191250D01*
X187251Y191000D01*
X187751D01*
X188001Y191250D01*
X185501Y192499D02*
X186001Y192250D01*
X186501Y191750D01*
Y191250D01*
X186251Y191000D01*
X185751D01*
X185501Y191250D01*
Y191500D01*
X185751Y191750D01*
X186501D01*
X185001Y190750D02*
X184002D01*
X183502Y192499D02*
Y191000D01*
X182752D01*
X182502Y191250D01*
Y192250D01*
X182752Y192499D01*
X183502D01*
X182002Y191000D02*
Y192499D01*
X181253D01*
X181003Y192250D01*
Y191750D01*
X181253Y191500D01*
X182002D01*
X181503D02*
X181003Y191000D01*
X179503D02*
X180503D01*
X179503Y192000D01*
Y192250D01*
X179753Y192499D01*
X180253D01*
X180503Y192250D01*
X394000Y194000D02*
Y195500D01*
X393250D01*
X393000Y195250D01*
Y194750D01*
X393250Y194500D01*
X394000D01*
X393500D02*
X393000Y194000D01*
X391501Y195500D02*
X392500D01*
Y194750D01*
X392001Y195000D01*
X391751D01*
X391501Y194750D01*
Y194250D01*
X391751Y194000D01*
X392251D01*
X392500Y194250D01*
X390001Y195500D02*
X390501Y195250D01*
X391001Y194750D01*
Y194250D01*
X390751Y194000D01*
X390251D01*
X390001Y194250D01*
Y194500D01*
X390251Y194750D01*
X391001D01*
X389501Y193750D02*
X388502D01*
X388002Y195500D02*
Y194000D01*
X387252D01*
X387002Y194250D01*
Y195250D01*
X387252Y195500D01*
X388002D01*
X386502Y194000D02*
Y195500D01*
X385753D01*
X385503Y195250D01*
Y194750D01*
X385753Y194500D01*
X386502D01*
X386003D02*
X385503Y194000D01*
X385003D02*
X384503D01*
X384753D01*
Y195500D01*
X385003Y195250D01*
X249500Y193500D02*
Y195000D01*
X248750D01*
X248500Y194750D01*
Y194250D01*
X248750Y194000D01*
X249500D01*
X249000D02*
X248500Y193500D01*
X247001Y195000D02*
X248001D01*
Y194250D01*
X247501Y194500D01*
X247251D01*
X247001Y194250D01*
Y193750D01*
X247251Y193500D01*
X247751D01*
X248001Y193750D01*
X245501Y195000D02*
X246501D01*
Y194250D01*
X246001Y194500D01*
X245751D01*
X245501Y194250D01*
Y193750D01*
X245751Y193500D01*
X246251D01*
X246501Y193750D01*
X245001Y193250D02*
X244002D01*
X243502Y195000D02*
Y193500D01*
X242752D01*
X242502Y193750D01*
Y194750D01*
X242752Y195000D01*
X243502D01*
X242002Y193500D02*
Y195000D01*
X241253D01*
X241003Y194750D01*
Y194250D01*
X241253Y194000D01*
X242002D01*
X241503D02*
X241003Y193500D01*
X239503D02*
X240503D01*
X239503Y194500D01*
Y194750D01*
X239753Y195000D01*
X240253D01*
X240503Y194750D01*
X451500Y199000D02*
Y200500D01*
X450750D01*
X450500Y200250D01*
Y199750D01*
X450750Y199500D01*
X451500D01*
X451000D02*
X450500Y199000D01*
X449001Y200500D02*
X450000D01*
Y199750D01*
X449501Y200000D01*
X449251D01*
X449001Y199750D01*
Y199250D01*
X449251Y199000D01*
X449751D01*
X450000Y199250D01*
X447501Y200500D02*
X448501D01*
Y199750D01*
X448001Y200000D01*
X447751D01*
X447501Y199750D01*
Y199250D01*
X447751Y199000D01*
X448251D01*
X448501Y199250D01*
X447001Y198750D02*
X446002D01*
X445502Y200500D02*
Y199000D01*
X444752D01*
X444502Y199250D01*
Y200250D01*
X444752Y200500D01*
X445502D01*
X444002Y199000D02*
Y200500D01*
X443253D01*
X443003Y200250D01*
Y199750D01*
X443253Y199500D01*
X444002D01*
X443503D02*
X443003Y199000D01*
X442503D02*
X442003D01*
X442253D01*
Y200500D01*
X442503Y200250D01*
X237500Y186000D02*
Y187499D01*
X236750D01*
X236500Y187250D01*
Y186750D01*
X236750Y186500D01*
X237500D01*
X237000D02*
X236500Y186000D01*
X235001Y187499D02*
X236000D01*
Y186750D01*
X235501Y187000D01*
X235251D01*
X235001Y186750D01*
Y186250D01*
X235251Y186000D01*
X235751D01*
X236000Y186250D01*
X233751Y186000D02*
Y187499D01*
X234501Y186750D01*
X233501D01*
X233001Y185750D02*
X232002D01*
X231502Y187499D02*
Y186000D01*
X230752D01*
X230502Y186250D01*
Y187250D01*
X230752Y187499D01*
X231502D01*
X230002Y186000D02*
Y187499D01*
X229253D01*
X229003Y187250D01*
Y186750D01*
X229253Y186500D01*
X230002D01*
X229503D02*
X229003Y186000D01*
X227503D02*
X228503D01*
X227503Y187000D01*
Y187250D01*
X227753Y187499D01*
X228253D01*
X228503Y187250D01*
X451500Y193000D02*
Y194500D01*
X450750D01*
X450500Y194250D01*
Y193750D01*
X450750Y193500D01*
X451500D01*
X451000D02*
X450500Y193000D01*
X449001Y194500D02*
X450000D01*
Y193750D01*
X449501Y194000D01*
X449251D01*
X449001Y193750D01*
Y193250D01*
X449251Y193000D01*
X449751D01*
X450000Y193250D01*
X447751Y193000D02*
Y194500D01*
X448501Y193750D01*
X447501D01*
X447001Y192750D02*
X446002D01*
X445502Y194500D02*
Y193000D01*
X444752D01*
X444502Y193250D01*
Y194250D01*
X444752Y194500D01*
X445502D01*
X444002Y193000D02*
Y194500D01*
X443253D01*
X443003Y194250D01*
Y193750D01*
X443253Y193500D01*
X444002D01*
X443503D02*
X443003Y193000D01*
X442503D02*
X442003D01*
X442253D01*
Y194500D01*
X442503Y194250D01*
X249000Y140000D02*
X250500D01*
Y140750D01*
X250250Y141000D01*
X249750D01*
X249500Y140750D01*
Y140000D01*
Y140500D02*
X249000Y141000D01*
X250500Y142499D02*
Y141499D01*
X249750D01*
X250000Y141999D01*
Y142249D01*
X249750Y142499D01*
X249250D01*
X249000Y142249D01*
Y141749D01*
X249250Y141499D01*
X250250Y142999D02*
X250500Y143249D01*
Y143749D01*
X250250Y143999D01*
X250000D01*
X249750Y143749D01*
Y143499D01*
Y143749D01*
X249500Y143999D01*
X249250D01*
X249000Y143749D01*
Y143249D01*
X249250Y142999D01*
X248750Y144499D02*
Y145498D01*
X250500Y145998D02*
X249000D01*
Y146748D01*
X249250Y146998D01*
X250250D01*
X250500Y146748D01*
Y145998D01*
X249000Y147498D02*
X250500D01*
Y148247D01*
X250250Y148497D01*
X249750D01*
X249500Y148247D01*
Y147498D01*
Y147997D02*
X249000Y148497D01*
Y149997D02*
Y148997D01*
X250000Y149997D01*
X250250D01*
X250500Y149747D01*
Y149247D01*
X250250Y148997D01*
X429000Y142256D02*
Y143755D01*
X428250D01*
X428000Y143506D01*
Y143006D01*
X428250Y142756D01*
X429000D01*
X428500D02*
X428000Y142256D01*
X426501Y143755D02*
X427500D01*
Y143006D01*
X427001Y143256D01*
X426751D01*
X426501Y143006D01*
Y142506D01*
X426751Y142256D01*
X427251D01*
X427500Y142506D01*
X426001Y143506D02*
X425751Y143755D01*
X425251D01*
X425001Y143506D01*
Y143256D01*
X425251Y143006D01*
X425501D01*
X425251D01*
X425001Y142756D01*
Y142506D01*
X425251Y142256D01*
X425751D01*
X426001Y142506D01*
X424502Y142006D02*
X423502D01*
X423002Y143755D02*
Y142256D01*
X422252D01*
X422002Y142506D01*
Y143506D01*
X422252Y143755D01*
X423002D01*
X421502Y142256D02*
Y143755D01*
X420753D01*
X420503Y143506D01*
Y143006D01*
X420753Y142756D01*
X421502D01*
X421003D02*
X420503Y142256D01*
X420003D02*
X419503D01*
X419753D01*
Y143755D01*
X420003Y143506D01*
X245000Y140000D02*
X246499D01*
Y140750D01*
X246250Y141000D01*
X245750D01*
X245500Y140750D01*
Y140000D01*
Y140500D02*
X245000Y141000D01*
X246499Y142499D02*
Y141499D01*
X245750D01*
X246000Y141999D01*
Y142249D01*
X245750Y142499D01*
X245250D01*
X245000Y142249D01*
Y141749D01*
X245250Y141499D01*
X245000Y143999D02*
Y142999D01*
X246000Y143999D01*
X246250D01*
X246499Y143749D01*
Y143249D01*
X246250Y142999D01*
X244750Y144499D02*
Y145498D01*
X246499Y145998D02*
X245000D01*
Y146748D01*
X245250Y146998D01*
X246250D01*
X246499Y146748D01*
Y145998D01*
X245000Y147498D02*
X246499D01*
Y148247D01*
X246250Y148497D01*
X245750D01*
X245500Y148247D01*
Y147498D01*
Y147997D02*
X245000Y148497D01*
Y149997D02*
Y148997D01*
X246000Y149997D01*
X246250D01*
X246499Y149747D01*
Y149247D01*
X246250Y148997D01*
X431000Y125500D02*
Y126999D01*
X430250D01*
X430000Y126750D01*
Y126250D01*
X430250Y126000D01*
X431000D01*
X430500D02*
X430000Y125500D01*
X428501Y126999D02*
X429500D01*
Y126250D01*
X429001Y126500D01*
X428751D01*
X428501Y126250D01*
Y125750D01*
X428751Y125500D01*
X429251D01*
X429500Y125750D01*
X427001Y125500D02*
X428001D01*
X427001Y126500D01*
Y126750D01*
X427251Y126999D01*
X427751D01*
X428001Y126750D01*
X426501Y125250D02*
X425502D01*
X425002Y126999D02*
Y125500D01*
X424252D01*
X424002Y125750D01*
Y126750D01*
X424252Y126999D01*
X425002D01*
X423502Y125500D02*
Y126999D01*
X422753D01*
X422503Y126750D01*
Y126250D01*
X422753Y126000D01*
X423502D01*
X423003D02*
X422503Y125500D01*
X422003D02*
X421503D01*
X421753D01*
Y126999D01*
X422003Y126750D01*
X442500Y133756D02*
X443999D01*
Y134506D01*
X443750Y134756D01*
X443250D01*
X443000Y134506D01*
Y133756D01*
Y134256D02*
X442500Y134756D01*
X443999Y136255D02*
Y135255D01*
X443250D01*
X443500Y135755D01*
Y136005D01*
X443250Y136255D01*
X442750D01*
X442500Y136005D01*
Y135505D01*
X442750Y135255D01*
X442500Y136755D02*
Y137255D01*
Y137005D01*
X443999D01*
X443750Y136755D01*
X442250Y138005D02*
Y139004D01*
X443999Y139504D02*
X442500D01*
Y140254D01*
X442750Y140504D01*
X443750D01*
X443999Y140254D01*
Y139504D01*
X442500Y141004D02*
X443999D01*
Y141753D01*
X443750Y142003D01*
X443250D01*
X443000Y141753D01*
Y141004D01*
Y141503D02*
X442500Y142003D01*
Y142503D02*
Y143003D01*
Y142753D01*
X443999D01*
X443750Y142503D01*
X225500Y140500D02*
Y141999D01*
X224750D01*
X224500Y141750D01*
Y141250D01*
X224750Y141000D01*
X225500D01*
X225000D02*
X224500Y140500D01*
X223001Y141999D02*
X224001D01*
Y141250D01*
X223501Y141500D01*
X223251D01*
X223001Y141250D01*
Y140750D01*
X223251Y140500D01*
X223751D01*
X224001Y140750D01*
X222501Y141750D02*
X222251Y141999D01*
X221751D01*
X221501Y141750D01*
Y140750D01*
X221751Y140500D01*
X222251D01*
X222501Y140750D01*
Y141750D01*
X221001Y140250D02*
X220002D01*
X219502Y141999D02*
Y140500D01*
X218752D01*
X218502Y140750D01*
Y141750D01*
X218752Y141999D01*
X219502D01*
X218002Y140500D02*
Y141999D01*
X217253D01*
X217003Y141750D01*
Y141250D01*
X217253Y141000D01*
X218002D01*
X217503D02*
X217003Y140500D01*
X215503D02*
X216503D01*
X215503Y141500D01*
Y141750D01*
X215753Y141999D01*
X216253D01*
X216503Y141750D01*
X420000Y129000D02*
Y130499D01*
X419250D01*
X419000Y130250D01*
Y129750D01*
X419250Y129500D01*
X420000D01*
X419500D02*
X419000Y129000D01*
X417501Y130499D02*
X418501D01*
Y129750D01*
X418001Y130000D01*
X417751D01*
X417501Y129750D01*
Y129250D01*
X417751Y129000D01*
X418251D01*
X418501Y129250D01*
X417001Y130250D02*
X416751Y130499D01*
X416251D01*
X416001Y130250D01*
Y129250D01*
X416251Y129000D01*
X416751D01*
X417001Y129250D01*
Y130250D01*
X415501Y128750D02*
X414502D01*
X414002Y130499D02*
Y129000D01*
X413252D01*
X413002Y129250D01*
Y130250D01*
X413252Y130499D01*
X414002D01*
X412502Y129000D02*
Y130499D01*
X411753D01*
X411503Y130250D01*
Y129750D01*
X411753Y129500D01*
X412502D01*
X412003D02*
X411503Y129000D01*
X411003D02*
X410503D01*
X410753D01*
Y130499D01*
X411003Y130250D01*
X268500Y128500D02*
Y129999D01*
X267750D01*
X267500Y129750D01*
Y129250D01*
X267750Y129000D01*
X268500D01*
X268000D02*
X267500Y128500D01*
X266251D02*
Y129999D01*
X267001Y129250D01*
X266001D01*
X265501Y128750D02*
X265251Y128500D01*
X264751D01*
X264501Y128750D01*
Y129750D01*
X264751Y129999D01*
X265251D01*
X265501Y129750D01*
Y129500D01*
X265251Y129250D01*
X264501D01*
X264001Y128250D02*
X263002D01*
X262502Y129999D02*
Y128500D01*
X261752D01*
X261502Y128750D01*
Y129750D01*
X261752Y129999D01*
X262502D01*
X261002Y128500D02*
Y129999D01*
X260253D01*
X260003Y129750D01*
Y129250D01*
X260253Y129000D01*
X261002D01*
X260503D02*
X260003Y128500D01*
X258503D02*
X259503D01*
X258503Y129500D01*
Y129750D01*
X258753Y129999D01*
X259253D01*
X259503Y129750D01*
X440500Y142256D02*
Y143755D01*
X439750D01*
X439500Y143506D01*
Y143006D01*
X439750Y142756D01*
X440500D01*
X440000D02*
X439500Y142256D01*
X438251D02*
Y143755D01*
X439001Y143006D01*
X438001D01*
X437501Y142506D02*
X437251Y142256D01*
X436751D01*
X436501Y142506D01*
Y143506D01*
X436751Y143755D01*
X437251D01*
X437501Y143506D01*
Y143256D01*
X437251Y143006D01*
X436501D01*
X436001Y142006D02*
X435002D01*
X434502Y143755D02*
Y142256D01*
X433752D01*
X433502Y142506D01*
Y143506D01*
X433752Y143755D01*
X434502D01*
X433002Y142256D02*
Y143755D01*
X432253D01*
X432003Y143506D01*
Y143006D01*
X432253Y142756D01*
X433002D01*
X432503D02*
X432003Y142256D01*
X431503D02*
X431003D01*
X431253D01*
Y143755D01*
X431503Y143506D01*
X227500Y143500D02*
Y145000D01*
X226750D01*
X226500Y144750D01*
Y144250D01*
X226750Y144000D01*
X227500D01*
X227000D02*
X226500Y143500D01*
X225251D02*
Y145000D01*
X226000Y144250D01*
X225001D01*
X224501Y144750D02*
X224251Y145000D01*
X223751D01*
X223501Y144750D01*
Y144500D01*
X223751Y144250D01*
X223501Y144000D01*
Y143750D01*
X223751Y143500D01*
X224251D01*
X224501Y143750D01*
Y144000D01*
X224251Y144250D01*
X224501Y144500D01*
Y144750D01*
X224251Y144250D02*
X223751D01*
X223001Y143250D02*
X222002D01*
X221502Y145000D02*
Y143500D01*
X220752D01*
X220502Y143750D01*
Y144750D01*
X220752Y145000D01*
X221502D01*
X220002Y143500D02*
Y145000D01*
X219253D01*
X219003Y144750D01*
Y144250D01*
X219253Y144000D01*
X220002D01*
X219503D02*
X219003Y143500D01*
X217503D02*
X218503D01*
X217503Y144500D01*
Y144750D01*
X217753Y145000D01*
X218253D01*
X218503Y144750D01*
X200500Y126500D02*
Y127999D01*
X199750D01*
X199500Y127750D01*
Y127250D01*
X199750Y127000D01*
X200500D01*
X200000D02*
X199500Y126500D01*
X198251D02*
Y127999D01*
X199001Y127250D01*
X198001D01*
X197501Y127999D02*
X196501D01*
Y127750D01*
X197501Y126750D01*
Y126500D01*
X196001Y126250D02*
X195002D01*
X194502Y127999D02*
Y126500D01*
X193752D01*
X193502Y126750D01*
Y127750D01*
X193752Y127999D01*
X194502D01*
X193002Y126500D02*
Y127999D01*
X192253D01*
X192003Y127750D01*
Y127250D01*
X192253Y127000D01*
X193002D01*
X192503D02*
X192003Y126500D01*
X190503D02*
X191503D01*
X190503Y127500D01*
Y127750D01*
X190753Y127999D01*
X191253D01*
X191503Y127750D01*
X406000Y125500D02*
Y126999D01*
X405250D01*
X405000Y126750D01*
Y126250D01*
X405250Y126000D01*
X406000D01*
X405500D02*
X405000Y125500D01*
X403751D02*
Y126999D01*
X404500Y126250D01*
X403501D01*
X403001Y126999D02*
X402001D01*
Y126750D01*
X403001Y125750D01*
Y125500D01*
X401501Y125250D02*
X400502D01*
X400002Y126999D02*
Y125500D01*
X399252D01*
X399002Y125750D01*
Y126750D01*
X399252Y126999D01*
X400002D01*
X398502Y125500D02*
Y126999D01*
X397753D01*
X397503Y126750D01*
Y126250D01*
X397753Y126000D01*
X398502D01*
X398003D02*
X397503Y125500D01*
X397003D02*
X396503D01*
X396753D01*
Y126999D01*
X397003Y126750D01*
X234000Y137500D02*
X235500D01*
Y138250D01*
X235250Y138500D01*
X234750D01*
X234500Y138250D01*
Y137500D01*
Y138000D02*
X234000Y138500D01*
Y139749D02*
X235500D01*
X234750Y138999D01*
Y139999D01*
X235500Y141499D02*
X235250Y140999D01*
X234750Y140499D01*
X234250D01*
X234000Y140749D01*
Y141249D01*
X234250Y141499D01*
X234500D01*
X234750Y141249D01*
Y140499D01*
X233750Y141999D02*
Y142998D01*
X235500Y143498D02*
X234000D01*
Y144248D01*
X234250Y144498D01*
X235250D01*
X235500Y144248D01*
Y143498D01*
X234000Y144998D02*
X235500D01*
Y145747D01*
X235250Y145997D01*
X234750D01*
X234500Y145747D01*
Y144998D01*
Y145497D02*
X234000Y145997D01*
Y147497D02*
Y146497D01*
X235000Y147497D01*
X235250D01*
X235500Y147247D01*
Y146747D01*
X235250Y146497D01*
X241000Y140500D02*
X242499D01*
Y141250D01*
X242250Y141500D01*
X241750D01*
X241500Y141250D01*
Y140500D01*
Y141000D02*
X241000Y141500D01*
Y142749D02*
X242499D01*
X241750Y141999D01*
Y142999D01*
X242499Y144499D02*
Y143499D01*
X241750D01*
X242000Y143999D01*
Y144249D01*
X241750Y144499D01*
X241250D01*
X241000Y144249D01*
Y143749D01*
X241250Y143499D01*
X240750Y144999D02*
Y145998D01*
X242499Y146498D02*
X241000D01*
Y147248D01*
X241250Y147498D01*
X242250D01*
X242499Y147248D01*
Y146498D01*
X241000Y147998D02*
X242499D01*
Y148747D01*
X242250Y148997D01*
X241750D01*
X241500Y148747D01*
Y147998D01*
Y148497D02*
X241000Y148997D01*
Y150497D02*
Y149497D01*
X242000Y150497D01*
X242250D01*
X242499Y150247D01*
Y149747D01*
X242250Y149497D01*
X222500Y128500D02*
Y129999D01*
X221750D01*
X221500Y129750D01*
Y129250D01*
X221750Y129000D01*
X222500D01*
X222000D02*
X221500Y128500D01*
X220251D02*
Y129999D01*
X221001Y129250D01*
X220001D01*
X218751Y128500D02*
Y129999D01*
X219501Y129250D01*
X218501D01*
X218001Y128250D02*
X217002D01*
X216502Y129999D02*
Y128500D01*
X215752D01*
X215502Y128750D01*
Y129750D01*
X215752Y129999D01*
X216502D01*
X215002Y128500D02*
Y129999D01*
X214253D01*
X214003Y129750D01*
Y129250D01*
X214253Y129000D01*
X215002D01*
X214503D02*
X214003Y128500D01*
X212503D02*
X213503D01*
X212503Y129500D01*
Y129750D01*
X212753Y129999D01*
X213253D01*
X213503Y129750D01*
X423000Y145000D02*
Y146500D01*
X422250D01*
X422000Y146250D01*
Y145750D01*
X422250Y145500D01*
X423000D01*
X422500D02*
X422000Y145000D01*
X420751D02*
Y146500D01*
X421500Y145750D01*
X420501D01*
X419251Y145000D02*
Y146500D01*
X420001Y145750D01*
X419001D01*
X418501Y144750D02*
X417502D01*
X417002Y146500D02*
Y145000D01*
X416252D01*
X416002Y145250D01*
Y146250D01*
X416252Y146500D01*
X417002D01*
X415502Y145000D02*
Y146500D01*
X414753D01*
X414503Y146250D01*
Y145750D01*
X414753Y145500D01*
X415502D01*
X415003D02*
X414503Y145000D01*
X414003D02*
X413503D01*
X413753D01*
Y146500D01*
X414003Y146250D01*
X292500Y281250D02*
Y282250D01*
X292750Y282500D01*
X293250D01*
X293500Y282250D01*
Y281250D01*
X293250Y281000D01*
X292750D01*
X293000Y281500D02*
X292500Y281000D01*
X292750D02*
X292500Y281250D01*
X291001Y282500D02*
X291501Y282250D01*
X292001Y281750D01*
Y281250D01*
X291751Y281000D01*
X291251D01*
X291001Y281250D01*
Y281500D01*
X291251Y281750D01*
X292001D01*
X290501Y280750D02*
X289501D01*
X289001Y282500D02*
X288502D01*
X288752D01*
Y281000D01*
X289001D01*
X288502D01*
X287752D02*
Y282500D01*
X287002D01*
X286752Y282250D01*
Y281750D01*
X287002Y281500D01*
X287752D01*
X287252D02*
X286752Y281000D01*
X285253Y282500D02*
X286252D01*
Y281750D01*
X285753D01*
X286252D01*
Y281000D01*
X283753Y282250D02*
X284003Y282500D01*
X284503D01*
X284753Y282250D01*
Y282000D01*
X284503Y281750D01*
X284003D01*
X283753Y281500D01*
Y281250D01*
X284003Y281000D01*
X284503D01*
X284753Y281250D01*
X282254Y281000D02*
X283253D01*
X282254Y282000D01*
Y282250D01*
X282504Y282500D01*
X283003D01*
X283253Y282250D01*
X489000Y287750D02*
Y288750D01*
X489250Y289000D01*
X489750D01*
X490000Y288750D01*
Y287750D01*
X489750Y287500D01*
X489250D01*
X489500Y288000D02*
X489000Y287500D01*
X489250D02*
X489000Y287750D01*
X487501Y289000D02*
X488001Y288750D01*
X488500Y288250D01*
Y287750D01*
X488251Y287500D01*
X487751D01*
X487501Y287750D01*
Y288000D01*
X487751Y288250D01*
X488500D01*
X487001Y287250D02*
X486001D01*
X485501Y289000D02*
X485002D01*
X485252D01*
Y287500D01*
X485501D01*
X485002D01*
X484252D02*
Y289000D01*
X483502D01*
X483252Y288750D01*
Y288250D01*
X483502Y288000D01*
X484252D01*
X483752D02*
X483252Y287500D01*
X481753Y289000D02*
X482752D01*
Y288250D01*
X482253D01*
X482752D01*
Y287500D01*
X480253Y288750D02*
X480503Y289000D01*
X481003D01*
X481253Y288750D01*
Y288500D01*
X481003Y288250D01*
X480503D01*
X480253Y288000D01*
Y287750D01*
X480503Y287500D01*
X481003D01*
X481253Y287750D01*
X479753Y287500D02*
X479253D01*
X479503D01*
Y289000D01*
X479753Y288750D01*
X279600Y363750D02*
Y364750D01*
X279850Y365000D01*
X280350D01*
X280600Y364750D01*
Y363750D01*
X280350Y363500D01*
X279850D01*
X280100Y364000D02*
X279600Y363500D01*
X279850D02*
X279600Y363750D01*
X278101Y365000D02*
X279100D01*
Y364250D01*
X278601Y364500D01*
X278351D01*
X278101Y364250D01*
Y363750D01*
X278351Y363500D01*
X278851D01*
X279100Y363750D01*
X277601Y363250D02*
X276601D01*
X276101Y365000D02*
X275602D01*
X275851D01*
Y363500D01*
X276101D01*
X275602D01*
X274852D02*
Y365000D01*
X274102D01*
X273852Y364750D01*
Y364250D01*
X274102Y364000D01*
X274852D01*
X274352D02*
X273852Y363500D01*
X272353Y365000D02*
X273352D01*
Y364250D01*
X272852D01*
X273352D01*
Y363500D01*
X270853Y364750D02*
X271103Y365000D01*
X271603D01*
X271853Y364750D01*
Y364500D01*
X271603Y364250D01*
X271103D01*
X270853Y364000D01*
Y363750D01*
X271103Y363500D01*
X271603D01*
X271853Y363750D01*
X269354Y363500D02*
X270353D01*
X269354Y364500D01*
Y364750D01*
X269603Y365000D01*
X270103D01*
X270353Y364750D01*
X483600Y366750D02*
Y367750D01*
X483850Y368000D01*
X484350D01*
X484600Y367750D01*
Y366750D01*
X484350Y366500D01*
X483850D01*
X484100Y367000D02*
X483600Y366500D01*
X483850D02*
X483600Y366750D01*
X482101Y368000D02*
X483101D01*
Y367250D01*
X482601Y367500D01*
X482351D01*
X482101Y367250D01*
Y366750D01*
X482351Y366500D01*
X482851D01*
X483101Y366750D01*
X481601Y366250D02*
X480601D01*
X480101Y368000D02*
X479602D01*
X479851D01*
Y366500D01*
X480101D01*
X479602D01*
X478852D02*
Y368000D01*
X478102D01*
X477852Y367750D01*
Y367250D01*
X478102Y367000D01*
X478852D01*
X478352D02*
X477852Y366500D01*
X476353Y368000D02*
X477352D01*
Y367250D01*
X476853D01*
X477352D01*
Y366500D01*
X474853Y367750D02*
X475103Y368000D01*
X475603D01*
X475853Y367750D01*
Y367500D01*
X475603Y367250D01*
X475103D01*
X474853Y367000D01*
Y366750D01*
X475103Y366500D01*
X475603D01*
X475853Y366750D01*
X474353Y366500D02*
X473853D01*
X474103D01*
Y368000D01*
X474353Y367750D01*
X236000Y285250D02*
Y286250D01*
X236250Y286500D01*
X236750D01*
X237000Y286250D01*
Y285250D01*
X236750Y285000D01*
X236250D01*
X236500Y285500D02*
X236000Y285000D01*
X236250D02*
X236000Y285250D01*
X234751Y285000D02*
Y286500D01*
X235501Y285750D01*
X234501D01*
X234001Y284750D02*
X233001D01*
X232501Y286500D02*
X232002D01*
X232252D01*
Y285000D01*
X232501D01*
X232002D01*
X231252D02*
Y286500D01*
X230502D01*
X230252Y286250D01*
Y285750D01*
X230502Y285500D01*
X231252D01*
X230752D02*
X230252Y285000D01*
X228753Y286500D02*
X229752D01*
Y285750D01*
X229253D01*
X229752D01*
Y285000D01*
X227253Y286250D02*
X227503Y286500D01*
X228003D01*
X228253Y286250D01*
Y286000D01*
X228003Y285750D01*
X227503D01*
X227253Y285500D01*
Y285250D01*
X227503Y285000D01*
X228003D01*
X228253Y285250D01*
X225754Y285000D02*
X226753D01*
X225754Y286000D01*
Y286250D01*
X226004Y286500D01*
X226503D01*
X226753Y286250D01*
X438000Y287250D02*
Y288250D01*
X438250Y288499D01*
X438750D01*
X439000Y288250D01*
Y287250D01*
X438750Y287000D01*
X438250D01*
X438500Y287500D02*
X438000Y287000D01*
X438250D02*
X438000Y287250D01*
X436751Y287000D02*
Y288499D01*
X437500Y287750D01*
X436501D01*
X436001Y286750D02*
X435001D01*
X434501Y288499D02*
X434002D01*
X434251D01*
Y287000D01*
X434501D01*
X434002D01*
X433252D02*
Y288499D01*
X432502D01*
X432252Y288250D01*
Y287750D01*
X432502Y287500D01*
X433252D01*
X432752D02*
X432252Y287000D01*
X430753Y288499D02*
X431752D01*
Y287750D01*
X431252D01*
X431752D01*
Y287000D01*
X429253Y288250D02*
X429503Y288499D01*
X430003D01*
X430253Y288250D01*
Y288000D01*
X430003Y287750D01*
X429503D01*
X429253Y287500D01*
Y287250D01*
X429503Y287000D01*
X430003D01*
X430253Y287250D01*
X428753Y287000D02*
X428253D01*
X428503D01*
Y288499D01*
X428753Y288250D01*
X228600Y363750D02*
Y364750D01*
X228850Y365000D01*
X229350D01*
X229600Y364750D01*
Y363750D01*
X229350Y363500D01*
X228850D01*
X229100Y364000D02*
X228600Y363500D01*
X228850D02*
X228600Y363750D01*
X228100Y364750D02*
X227851Y365000D01*
X227351D01*
X227101Y364750D01*
Y364500D01*
X227351Y364250D01*
X227601D01*
X227351D01*
X227101Y364000D01*
Y363750D01*
X227351Y363500D01*
X227851D01*
X228100Y363750D01*
X226601Y363250D02*
X225601D01*
X225101Y365000D02*
X224602D01*
X224851D01*
Y363500D01*
X225101D01*
X224602D01*
X223852D02*
Y365000D01*
X223102D01*
X222852Y364750D01*
Y364250D01*
X223102Y364000D01*
X223852D01*
X223352D02*
X222852Y363500D01*
X221353Y365000D02*
X222352D01*
Y364250D01*
X221852D01*
X222352D01*
Y363500D01*
X219853Y364750D02*
X220103Y365000D01*
X220603D01*
X220853Y364750D01*
Y364500D01*
X220603Y364250D01*
X220103D01*
X219853Y364000D01*
Y363750D01*
X220103Y363500D01*
X220603D01*
X220853Y363750D01*
X218354Y363500D02*
X219353D01*
X218354Y364500D01*
Y364750D01*
X218603Y365000D01*
X219103D01*
X219353Y364750D01*
X431000Y365750D02*
Y366750D01*
X431250Y367000D01*
X431750D01*
X432000Y366750D01*
Y365750D01*
X431750Y365500D01*
X431250D01*
X431500Y366000D02*
X431000Y365500D01*
X431250D02*
X431000Y365750D01*
X430501Y366750D02*
X430251Y367000D01*
X429751D01*
X429501Y366750D01*
Y366500D01*
X429751Y366250D01*
X430001D01*
X429751D01*
X429501Y366000D01*
Y365750D01*
X429751Y365500D01*
X430251D01*
X430501Y365750D01*
X429001Y365250D02*
X428001D01*
X427501Y367000D02*
X427002D01*
X427251D01*
Y365500D01*
X427501D01*
X427002D01*
X426252D02*
Y367000D01*
X425502D01*
X425252Y366750D01*
Y366250D01*
X425502Y366000D01*
X426252D01*
X425752D02*
X425252Y365500D01*
X423753Y367000D02*
X424752D01*
Y366250D01*
X424253D01*
X424752D01*
Y365500D01*
X422253Y366750D02*
X422503Y367000D01*
X423003D01*
X423253Y366750D01*
Y366500D01*
X423003Y366250D01*
X422503D01*
X422253Y366000D01*
Y365750D01*
X422503Y365500D01*
X423003D01*
X423253Y365750D01*
X421753Y365500D02*
X421253D01*
X421503D01*
Y367000D01*
X421753Y366750D01*
X183000Y284750D02*
Y285750D01*
X183250Y285999D01*
X183750D01*
X184000Y285750D01*
Y284750D01*
X183750Y284500D01*
X183250D01*
X183500Y285000D02*
X183000Y284500D01*
X183250D02*
X183000Y284750D01*
X181501Y284500D02*
X182501D01*
X181501Y285500D01*
Y285750D01*
X181751Y285999D01*
X182251D01*
X182501Y285750D01*
X181001Y284250D02*
X180001D01*
X179501Y285999D02*
X179002D01*
X179252D01*
Y284500D01*
X179501D01*
X179002D01*
X178252D02*
Y285999D01*
X177502D01*
X177252Y285750D01*
Y285250D01*
X177502Y285000D01*
X178252D01*
X177752D02*
X177252Y284500D01*
X175753Y285999D02*
X176752D01*
Y285250D01*
X176252D01*
X176752D01*
Y284500D01*
X174253Y285750D02*
X174503Y285999D01*
X175003D01*
X175253Y285750D01*
Y285500D01*
X175003Y285250D01*
X174503D01*
X174253Y285000D01*
Y284750D01*
X174503Y284500D01*
X175003D01*
X175253Y284750D01*
X172754Y284500D02*
X173753D01*
X172754Y285500D01*
Y285750D01*
X173003Y285999D01*
X173503D01*
X173753Y285750D01*
X386500Y287750D02*
Y288750D01*
X386750Y289000D01*
X387250D01*
X387500Y288750D01*
Y287750D01*
X387250Y287500D01*
X386750D01*
X387000Y288000D02*
X386500Y287500D01*
X386750D02*
X386500Y287750D01*
X385001Y287500D02*
X386000D01*
X385001Y288500D01*
Y288750D01*
X385251Y289000D01*
X385751D01*
X386000Y288750D01*
X384501Y287250D02*
X383501D01*
X383001Y289000D02*
X382502D01*
X382751D01*
Y287500D01*
X383001D01*
X382502D01*
X381752D02*
Y289000D01*
X381002D01*
X380752Y288750D01*
Y288250D01*
X381002Y288000D01*
X381752D01*
X381252D02*
X380752Y287500D01*
X379253Y289000D02*
X380252D01*
Y288250D01*
X379752D01*
X380252D01*
Y287500D01*
X377753Y288750D02*
X378003Y289000D01*
X378503D01*
X378753Y288750D01*
Y288500D01*
X378503Y288250D01*
X378003D01*
X377753Y288000D01*
Y287750D01*
X378003Y287500D01*
X378503D01*
X378753Y287750D01*
X377253Y287500D02*
X376753D01*
X377003D01*
Y289000D01*
X377253Y288750D01*
X177600Y363750D02*
Y364750D01*
X177850Y365000D01*
X178350D01*
X178600Y364750D01*
Y363750D01*
X178350Y363500D01*
X177850D01*
X178100Y364000D02*
X177600Y363500D01*
X177850D02*
X177600Y363750D01*
X177101Y363500D02*
X176601D01*
X176851D01*
Y365000D01*
X177101Y364750D01*
X175851Y363250D02*
X174851D01*
X174351Y365000D02*
X173852D01*
X174101D01*
Y363500D01*
X174351D01*
X173852D01*
X173102D02*
Y365000D01*
X172352D01*
X172102Y364750D01*
Y364250D01*
X172352Y364000D01*
X173102D01*
X172602D02*
X172102Y363500D01*
X170603Y365000D02*
X171602D01*
Y364250D01*
X171102D01*
X171602D01*
Y363500D01*
X169103Y364750D02*
X169353Y365000D01*
X169853D01*
X170103Y364750D01*
Y364500D01*
X169853Y364250D01*
X169353D01*
X169103Y364000D01*
Y363750D01*
X169353Y363500D01*
X169853D01*
X170103Y363750D01*
X167604Y363500D02*
X168603D01*
X167604Y364500D01*
Y364750D01*
X167853Y365000D01*
X168353D01*
X168603Y364750D01*
X381600Y366750D02*
Y367750D01*
X381850Y368000D01*
X382350D01*
X382600Y367750D01*
Y366750D01*
X382350Y366500D01*
X381850D01*
X382100Y367000D02*
X381600Y366500D01*
X381850D02*
X381600Y366750D01*
X381101Y366500D02*
X380601D01*
X380851D01*
Y368000D01*
X381101Y367750D01*
X379851Y366250D02*
X378851D01*
X378351Y368000D02*
X377852D01*
X378101D01*
Y366500D01*
X378351D01*
X377852D01*
X377102D02*
Y368000D01*
X376352D01*
X376102Y367750D01*
Y367250D01*
X376352Y367000D01*
X377102D01*
X376602D02*
X376102Y366500D01*
X374603Y368000D02*
X375602D01*
Y367250D01*
X375102D01*
X375602D01*
Y366500D01*
X373103Y367750D02*
X373353Y368000D01*
X373853D01*
X374103Y367750D01*
Y367500D01*
X373853Y367250D01*
X373353D01*
X373103Y367000D01*
Y366750D01*
X373353Y366500D01*
X373853D01*
X374103Y366750D01*
X372603Y366500D02*
X372103D01*
X372353D01*
Y368000D01*
X372603Y367750D01*
X135500Y206500D02*
X134000D01*
Y207500D01*
Y208749D02*
X135500D01*
X134750Y207999D01*
Y208999D01*
X134500Y275500D02*
Y274000D01*
X133750D01*
X133500Y274250D01*
Y275250D01*
X133750Y275500D01*
X134500D01*
X133001Y275250D02*
X132751Y275500D01*
X132251D01*
X132001Y275250D01*
Y275000D01*
X132251Y274750D01*
X132501D01*
X132251D01*
X132001Y274500D01*
Y274250D01*
X132251Y274000D01*
X132751D01*
X133001Y274250D01*
X131501Y273750D02*
X130501D01*
X130001Y275500D02*
Y274000D01*
X129252D01*
X129002Y274250D01*
Y275250D01*
X129252Y275500D01*
X130001D01*
X128502Y274000D02*
Y275500D01*
X127752D01*
X127502Y275250D01*
Y274750D01*
X127752Y274500D01*
X128502D01*
X128002D02*
X127502Y274000D01*
X126003D02*
X127002D01*
X126003Y275000D01*
Y275250D01*
X126253Y275500D01*
X126752D01*
X127002Y275250D01*
X341499Y260000D02*
X340000D01*
Y260750D01*
X340250Y261000D01*
X341250D01*
X341499Y260750D01*
Y260000D01*
X341250Y261500D02*
X341499Y261749D01*
Y262249D01*
X341250Y262499D01*
X341000D01*
X340750Y262249D01*
Y261999D01*
Y262249D01*
X340500Y262499D01*
X340250D01*
X340000Y262249D01*
Y261749D01*
X340250Y261500D01*
X339750Y262999D02*
Y263999D01*
X341499Y264499D02*
X340000D01*
Y265248D01*
X340250Y265498D01*
X341250D01*
X341499Y265248D01*
Y264499D01*
X340000Y265998D02*
X341499D01*
Y266748D01*
X341250Y266998D01*
X340750D01*
X340500Y266748D01*
Y265998D01*
Y266498D02*
X340000Y266998D01*
Y267498D02*
Y267997D01*
Y267747D01*
X341499D01*
X341250Y267498D01*
X112500Y189499D02*
Y188000D01*
X111750D01*
X111500Y188250D01*
Y189250D01*
X111750Y189499D01*
X112500D01*
X110001Y188000D02*
X111001D01*
X110001Y189000D01*
Y189250D01*
X110251Y189499D01*
X110751D01*
X111001Y189250D01*
X73000Y223250D02*
X73250Y223499D01*
X73750D01*
X74000Y223250D01*
Y222250D01*
X73750Y222000D01*
X73250D01*
X73000Y222250D01*
X71501Y223499D02*
X72500D01*
Y222750D01*
X72001Y223000D01*
X71751D01*
X71501Y222750D01*
Y222250D01*
X71751Y222000D01*
X72251D01*
X72500Y222250D01*
X71001Y223499D02*
X70001D01*
Y223250D01*
X71001Y222250D01*
Y222000D01*
X178250Y186500D02*
X178000Y186750D01*
Y187250D01*
X178250Y187500D01*
X179250D01*
X179500Y187250D01*
Y186750D01*
X179250Y186500D01*
X178000Y185001D02*
Y186001D01*
X178750D01*
X178500Y185501D01*
Y185251D01*
X178750Y185001D01*
X179250D01*
X179500Y185251D01*
Y185751D01*
X179250Y186001D01*
X178000Y183501D02*
X178250Y184001D01*
X178750Y184501D01*
X179250D01*
X179500Y184251D01*
Y183751D01*
X179250Y183501D01*
X179000D01*
X178750Y183751D01*
Y184501D01*
X179750Y183001D02*
Y182002D01*
X178000Y181502D02*
X179500D01*
Y180752D01*
X179250Y180502D01*
X178250D01*
X178000Y180752D01*
Y181502D01*
X179500Y180002D02*
X178000D01*
Y179253D01*
X178250Y179003D01*
X178750D01*
X179000Y179253D01*
Y180002D01*
Y179503D02*
X179500Y179003D01*
Y177503D02*
Y178503D01*
X178500Y177503D01*
X178250D01*
X178000Y177753D01*
Y178253D01*
X178250Y178503D01*
X387000Y189250D02*
X387250Y189499D01*
X387750D01*
X388000Y189250D01*
Y188250D01*
X387750Y188000D01*
X387250D01*
X387000Y188250D01*
X385501Y189499D02*
X386501D01*
Y188750D01*
X386001Y189000D01*
X385751D01*
X385501Y188750D01*
Y188250D01*
X385751Y188000D01*
X386251D01*
X386501Y188250D01*
X384001Y189499D02*
X384501Y189250D01*
X385001Y188750D01*
Y188250D01*
X384751Y188000D01*
X384251D01*
X384001Y188250D01*
Y188500D01*
X384251Y188750D01*
X385001D01*
X383501Y187750D02*
X382502D01*
X382002Y189499D02*
Y188000D01*
X381252D01*
X381002Y188250D01*
Y189250D01*
X381252Y189499D01*
X382002D01*
X380502Y188000D02*
Y189499D01*
X379753D01*
X379503Y189250D01*
Y188750D01*
X379753Y188500D01*
X380502D01*
X380003D02*
X379503Y188000D01*
X379003D02*
X378503D01*
X378753D01*
Y189499D01*
X379003Y189250D01*
X302250Y169500D02*
X302500Y169250D01*
Y168750D01*
X302250Y168500D01*
X301250D01*
X301000Y168750D01*
Y169250D01*
X301250Y169500D01*
X302500Y170999D02*
Y170000D01*
X301750D01*
X302000Y170499D01*
Y170749D01*
X301750Y170999D01*
X301250D01*
X301000Y170749D01*
Y170249D01*
X301250Y170000D01*
X301000Y172249D02*
X302500D01*
X301750Y171499D01*
Y172499D01*
X300750Y172999D02*
Y173998D01*
X302500Y174498D02*
X301000D01*
Y175248D01*
X301250Y175498D01*
X302250D01*
X302500Y175248D01*
Y174498D01*
X301000Y175998D02*
X302500D01*
Y176747D01*
X302250Y176997D01*
X301750D01*
X301500Y176747D01*
Y175998D01*
Y176497D02*
X301000Y176997D01*
Y178497D02*
Y177497D01*
X302000Y178497D01*
X302250D01*
X302500Y178247D01*
Y177747D01*
X302250Y177497D01*
X285250Y271000D02*
X285000Y271250D01*
Y271750D01*
X285250Y272000D01*
X286250D01*
X286500Y271750D01*
Y271250D01*
X286250Y271000D01*
X285000Y269501D02*
Y270500D01*
X285750D01*
X285500Y270001D01*
Y269751D01*
X285750Y269501D01*
X286250D01*
X286500Y269751D01*
Y270251D01*
X286250Y270500D01*
X286500Y268251D02*
X285000D01*
X285750Y269001D01*
Y268001D01*
X286750Y267501D02*
Y266502D01*
X285000Y266002D02*
X286500D01*
Y265252D01*
X286250Y265002D01*
X285250D01*
X285000Y265252D01*
Y266002D01*
X286500Y264502D02*
X285000D01*
Y263753D01*
X285250Y263503D01*
X285750D01*
X286000Y263753D01*
Y264502D01*
Y264003D02*
X286500Y263503D01*
Y263003D02*
Y262503D01*
Y262753D01*
X285000D01*
X285250Y263003D01*
X200256Y191750D02*
X200506Y191999D01*
X201006D01*
X201256Y191750D01*
Y190750D01*
X201006Y190500D01*
X200506D01*
X200256Y190750D01*
X198757Y191999D02*
X199756D01*
Y191250D01*
X199257Y191500D01*
X199007D01*
X198757Y191250D01*
Y190750D01*
X199007Y190500D01*
X199506D01*
X199756Y190750D01*
X198257Y191750D02*
X198007Y191999D01*
X197507D01*
X197257Y191750D01*
Y191500D01*
X197507Y191250D01*
X197757D01*
X197507D01*
X197257Y191000D01*
Y190750D01*
X197507Y190500D01*
X198007D01*
X198257Y190750D01*
X196757Y190250D02*
X195758D01*
X195258Y191999D02*
Y190500D01*
X194508D01*
X194258Y190750D01*
Y191750D01*
X194508Y191999D01*
X195258D01*
X193758Y190500D02*
Y191999D01*
X193008D01*
X192759Y191750D01*
Y191250D01*
X193008Y191000D01*
X193758D01*
X193259D02*
X192759Y190500D01*
X191259D02*
X192259D01*
X191259Y191500D01*
Y191750D01*
X191509Y191999D01*
X192009D01*
X192259Y191750D01*
X402000Y198250D02*
X402250Y198500D01*
X402750D01*
X403000Y198250D01*
Y197250D01*
X402750Y197000D01*
X402250D01*
X402000Y197250D01*
X400501Y198500D02*
X401501D01*
Y197750D01*
X401001Y198000D01*
X400751D01*
X400501Y197750D01*
Y197250D01*
X400751Y197000D01*
X401251D01*
X401501Y197250D01*
X400001Y198250D02*
X399751Y198500D01*
X399251D01*
X399001Y198250D01*
Y198000D01*
X399251Y197750D01*
X399501D01*
X399251D01*
X399001Y197500D01*
Y197250D01*
X399251Y197000D01*
X399751D01*
X400001Y197250D01*
X398501Y196750D02*
X397502D01*
X397002Y198500D02*
Y197000D01*
X396252D01*
X396002Y197250D01*
Y198250D01*
X396252Y198500D01*
X397002D01*
X395502Y197000D02*
Y198500D01*
X394753D01*
X394503Y198250D01*
Y197750D01*
X394753Y197500D01*
X395502D01*
X395003D02*
X394503Y197000D01*
X394003D02*
X393503D01*
X393753D01*
Y198500D01*
X394003Y198250D01*
X213834Y195333D02*
X214000Y195500D01*
X214333D01*
X214500Y195333D01*
Y194667D01*
X214333Y194500D01*
X214000D01*
X213834Y194667D01*
X212834Y195500D02*
X213500D01*
Y195000D01*
X213167Y195167D01*
X213000D01*
X212834Y195000D01*
Y194667D01*
X213000Y194500D01*
X213334D01*
X213500Y194667D01*
X211834Y194500D02*
X212501D01*
X211834Y195167D01*
Y195333D01*
X212001Y195500D01*
X212334D01*
X212501Y195333D01*
X211501Y194333D02*
X210835D01*
X210501Y195500D02*
Y194500D01*
X210001D01*
X209835Y194667D01*
Y195333D01*
X210001Y195500D01*
X210501D01*
X209502Y194500D02*
Y195500D01*
X209002D01*
X208835Y195333D01*
Y195000D01*
X209002Y194833D01*
X209502D01*
X209168D02*
X208835Y194500D01*
X207836D02*
X208502D01*
X207836Y195167D01*
Y195333D01*
X208002Y195500D01*
X208335D01*
X208502Y195333D01*
X416000Y197750D02*
X416250Y198000D01*
X416750D01*
X417000Y197750D01*
Y196750D01*
X416750Y196500D01*
X416250D01*
X416000Y196750D01*
X414501Y198000D02*
X415500D01*
Y197250D01*
X415001Y197500D01*
X414751D01*
X414501Y197250D01*
Y196750D01*
X414751Y196500D01*
X415251D01*
X415500Y196750D01*
X413001Y196500D02*
X414001D01*
X413001Y197500D01*
Y197750D01*
X413251Y198000D01*
X413751D01*
X414001Y197750D01*
X412501Y196250D02*
X411502D01*
X411002Y198000D02*
Y196500D01*
X410252D01*
X410002Y196750D01*
Y197750D01*
X410252Y198000D01*
X411002D01*
X409502Y196500D02*
Y198000D01*
X408753D01*
X408503Y197750D01*
Y197250D01*
X408753Y197000D01*
X409502D01*
X409003D02*
X408503Y196500D01*
X408003D02*
X407503D01*
X407753D01*
Y198000D01*
X408003Y197750D01*
X218475Y197656D02*
X218606Y197787D01*
X218869D01*
X219000Y197656D01*
Y197131D01*
X218869Y197000D01*
X218606D01*
X218475Y197131D01*
X217688Y197787D02*
X218213D01*
Y197394D01*
X217951Y197525D01*
X217819D01*
X217688Y197394D01*
Y197131D01*
X217819Y197000D01*
X218082D01*
X218213Y197131D01*
X217426Y197000D02*
X217163D01*
X217295D01*
Y197787D01*
X217426Y197656D01*
X216770Y196869D02*
X216245D01*
X215983Y197787D02*
Y197000D01*
X215589D01*
X215458Y197131D01*
Y197656D01*
X215589Y197787D01*
X215983D01*
X215195Y197000D02*
Y197787D01*
X214802D01*
X214671Y197656D01*
Y197394D01*
X214802Y197262D01*
X215195D01*
X214933D02*
X214671Y197000D01*
X213883D02*
X214408D01*
X213883Y197525D01*
Y197656D01*
X214015Y197787D01*
X214277D01*
X214408Y197656D01*
X426000Y191250D02*
X426250Y191499D01*
X426750D01*
X427000Y191250D01*
Y190250D01*
X426750Y190000D01*
X426250D01*
X426000Y190250D01*
X424501Y191499D02*
X425500D01*
Y190750D01*
X425001Y191000D01*
X424751D01*
X424501Y190750D01*
Y190250D01*
X424751Y190000D01*
X425251D01*
X425500Y190250D01*
X424001Y190000D02*
X423501D01*
X423751D01*
Y191499D01*
X424001Y191250D01*
X422751Y189750D02*
X421752D01*
X421252Y191499D02*
Y190000D01*
X420502D01*
X420252Y190250D01*
Y191250D01*
X420502Y191499D01*
X421252D01*
X419752Y190000D02*
Y191499D01*
X419003D01*
X418753Y191250D01*
Y190750D01*
X419003Y190500D01*
X419752D01*
X419252D02*
X418753Y190000D01*
X418253D02*
X417753D01*
X418003D01*
Y191499D01*
X418253Y191250D01*
X161500Y127750D02*
X161750Y127999D01*
X162250D01*
X162500Y127750D01*
Y126750D01*
X162250Y126500D01*
X161750D01*
X161500Y126750D01*
X160251Y126500D02*
Y127999D01*
X161001Y127250D01*
X160001D01*
X159501Y126750D02*
X159251Y126500D01*
X158751D01*
X158501Y126750D01*
Y127750D01*
X158751Y127999D01*
X159251D01*
X159501Y127750D01*
Y127500D01*
X159251Y127250D01*
X158501D01*
X158001Y126250D02*
X157002D01*
X156502Y127999D02*
Y126500D01*
X155752D01*
X155502Y126750D01*
Y127750D01*
X155752Y127999D01*
X156502D01*
X155002Y126500D02*
Y127999D01*
X154253D01*
X154003Y127750D01*
Y127250D01*
X154253Y127000D01*
X155002D01*
X154503D02*
X154003Y126500D01*
X152503D02*
X153503D01*
X152503Y127500D01*
Y127750D01*
X152753Y127999D01*
X153253D01*
X153503Y127750D01*
X184500D02*
X184750Y127999D01*
X185250D01*
X185500Y127750D01*
Y126750D01*
X185250Y126500D01*
X184750D01*
X184500Y126750D01*
X183251Y126500D02*
Y127999D01*
X184001Y127250D01*
X183001D01*
X182501Y127750D02*
X182251Y127999D01*
X181751D01*
X181501Y127750D01*
Y127500D01*
X181751Y127250D01*
X181501Y127000D01*
Y126750D01*
X181751Y126500D01*
X182251D01*
X182501Y126750D01*
Y127000D01*
X182251Y127250D01*
X182501Y127500D01*
Y127750D01*
X182251Y127250D02*
X181751D01*
X181001Y126250D02*
X180002D01*
X179502Y127999D02*
Y126500D01*
X178752D01*
X178502Y126750D01*
Y127750D01*
X178752Y127999D01*
X179502D01*
X178002Y126500D02*
Y127999D01*
X177253D01*
X177003Y127750D01*
Y127250D01*
X177253Y127000D01*
X178002D01*
X177503D02*
X177003Y126500D01*
X175503D02*
X176503D01*
X175503Y127500D01*
Y127750D01*
X175753Y127999D01*
X176253D01*
X176503Y127750D01*
X392500Y141250D02*
X392750Y141499D01*
X393250D01*
X393500Y141250D01*
Y140250D01*
X393250Y140000D01*
X392750D01*
X392500Y140250D01*
X391251Y140000D02*
Y141499D01*
X392001Y140750D01*
X391001D01*
X390501Y141250D02*
X390251Y141499D01*
X389751D01*
X389501Y141250D01*
Y141000D01*
X389751Y140750D01*
X389501Y140500D01*
Y140250D01*
X389751Y140000D01*
X390251D01*
X390501Y140250D01*
Y140500D01*
X390251Y140750D01*
X390501Y141000D01*
Y141250D01*
X390251Y140750D02*
X389751D01*
X389001Y139750D02*
X388002D01*
X387502Y141499D02*
Y140000D01*
X386752D01*
X386502Y140250D01*
Y141250D01*
X386752Y141499D01*
X387502D01*
X386002Y140000D02*
Y141499D01*
X385253D01*
X385003Y141250D01*
Y140750D01*
X385253Y140500D01*
X386002D01*
X385503D02*
X385003Y140000D01*
X384503D02*
X384003D01*
X384253D01*
Y141499D01*
X384503Y141250D01*
X166500Y154750D02*
X166750Y154999D01*
X167250D01*
X167500Y154750D01*
Y153750D01*
X167250Y153500D01*
X166750D01*
X166500Y153750D01*
X165251Y153500D02*
Y154999D01*
X166000Y154250D01*
X165001D01*
X164501Y154999D02*
X163501D01*
Y154750D01*
X164501Y153750D01*
Y153500D01*
X163001Y153250D02*
X162002D01*
X161502Y154999D02*
Y153500D01*
X160752D01*
X160502Y153750D01*
Y154750D01*
X160752Y154999D01*
X161502D01*
X160002Y153500D02*
Y154999D01*
X159253D01*
X159003Y154750D01*
Y154250D01*
X159253Y154000D01*
X160002D01*
X159503D02*
X159003Y153500D01*
X157503D02*
X158503D01*
X157503Y154500D01*
Y154750D01*
X157753Y154999D01*
X158253D01*
X158503Y154750D01*
X168750Y147500D02*
X168500Y147750D01*
Y148250D01*
X168750Y148500D01*
X169750D01*
X170000Y148250D01*
Y147750D01*
X169750Y147500D01*
X170000Y146251D02*
X168500D01*
X169250Y147001D01*
Y146001D01*
X168500Y144501D02*
X168750Y145001D01*
X169250Y145501D01*
X169750D01*
X170000Y145251D01*
Y144751D01*
X169750Y144501D01*
X169500D01*
X169250Y144751D01*
Y145501D01*
X170250Y144001D02*
Y143002D01*
X168500Y142502D02*
X170000D01*
Y141752D01*
X169750Y141502D01*
X168750D01*
X168500Y141752D01*
Y142502D01*
X170000Y141002D02*
X168500D01*
Y140253D01*
X168750Y140003D01*
X169250D01*
X169500Y140253D01*
Y141002D01*
Y140503D02*
X170000Y140003D01*
Y138503D02*
Y139503D01*
X169000Y138503D01*
X168750D01*
X168500Y138753D01*
Y139253D01*
X168750Y139503D01*
X375750Y150000D02*
X375500Y150250D01*
Y150750D01*
X375750Y151000D01*
X376750D01*
X377000Y150750D01*
Y150250D01*
X376750Y150000D01*
X377000Y148751D02*
X375500D01*
X376250Y149501D01*
Y148501D01*
X375500Y147001D02*
X375750Y147501D01*
X376250Y148001D01*
X376750D01*
X377000Y147751D01*
Y147251D01*
X376750Y147001D01*
X376500D01*
X376250Y147251D01*
Y148001D01*
X377250Y146501D02*
Y145502D01*
X375500Y145002D02*
X377000D01*
Y144252D01*
X376750Y144002D01*
X375750D01*
X375500Y144252D01*
Y145002D01*
X377000Y143502D02*
X375500D01*
Y142753D01*
X375750Y142503D01*
X376250D01*
X376500Y142753D01*
Y143502D01*
Y143003D02*
X377000Y142503D01*
Y142003D02*
Y141503D01*
Y141753D01*
X375500D01*
X375750Y142003D01*
X225000Y126250D02*
X225250Y126499D01*
X225750D01*
X226000Y126250D01*
Y125250D01*
X225750Y125000D01*
X225250D01*
X225000Y125250D01*
X223751Y125000D02*
Y126499D01*
X224500Y125750D01*
X223501D01*
X222001Y126499D02*
X223001D01*
Y125750D01*
X222501Y126000D01*
X222251D01*
X222001Y125750D01*
Y125250D01*
X222251Y125000D01*
X222751D01*
X223001Y125250D01*
X221501Y124750D02*
X220502D01*
X220002Y126499D02*
Y125000D01*
X219252D01*
X219002Y125250D01*
Y126250D01*
X219252Y126499D01*
X220002D01*
X218502Y125000D02*
Y126499D01*
X217753D01*
X217503Y126250D01*
Y125750D01*
X217753Y125500D01*
X218502D01*
X218003D02*
X217503Y125000D01*
X216003D02*
X217003D01*
X216003Y126000D01*
Y126250D01*
X216253Y126499D01*
X216753D01*
X217003Y126250D01*
X338500Y127250D02*
X338750Y127499D01*
X339250D01*
X339500Y127250D01*
Y126250D01*
X339250Y126000D01*
X338750D01*
X338500Y126250D01*
X337251Y126000D02*
Y127499D01*
X338000Y126750D01*
X337001D01*
X335501Y127499D02*
X336501D01*
Y126750D01*
X336001Y127000D01*
X335751D01*
X335501Y126750D01*
Y126250D01*
X335751Y126000D01*
X336251D01*
X336501Y126250D01*
X335001Y125750D02*
X334002D01*
X333502Y127499D02*
Y126000D01*
X332752D01*
X332502Y126250D01*
Y127250D01*
X332752Y127499D01*
X333502D01*
X332002Y126000D02*
Y127499D01*
X331253D01*
X331003Y127250D01*
Y126750D01*
X331253Y126500D01*
X332002D01*
X331503D02*
X331003Y126000D01*
X330503D02*
X330003D01*
X330253D01*
Y127499D01*
X330503Y127250D01*
X249000Y197750D02*
X249250Y198000D01*
X249750D01*
X250000Y197750D01*
Y196750D01*
X249750Y196500D01*
X249250D01*
X249000Y196750D01*
X247751Y196500D02*
Y198000D01*
X248500Y197250D01*
X247501D01*
X246251Y196500D02*
Y198000D01*
X247001Y197250D01*
X246001D01*
X245501Y196250D02*
X244502D01*
X244002Y198000D02*
Y196500D01*
X243252D01*
X243002Y196750D01*
Y197750D01*
X243252Y198000D01*
X244002D01*
X242502Y196500D02*
Y198000D01*
X241753D01*
X241503Y197750D01*
Y197250D01*
X241753Y197000D01*
X242502D01*
X242003D02*
X241503Y196500D01*
X240003D02*
X241003D01*
X240003Y197500D01*
Y197750D01*
X240253Y198000D01*
X240753D01*
X241003Y197750D01*
X450500Y197250D02*
X450750Y197500D01*
X451250D01*
X451500Y197250D01*
Y196250D01*
X451250Y196000D01*
X450750D01*
X450500Y196250D01*
X449251Y196000D02*
Y197500D01*
X450000Y196750D01*
X449001D01*
X447751Y196000D02*
Y197500D01*
X448501Y196750D01*
X447501D01*
X447001Y195750D02*
X446002D01*
X445502Y197500D02*
Y196000D01*
X444752D01*
X444502Y196250D01*
Y197250D01*
X444752Y197500D01*
X445502D01*
X444002Y196000D02*
Y197500D01*
X443253D01*
X443003Y197250D01*
Y196750D01*
X443253Y196500D01*
X444002D01*
X443503D02*
X443003Y196000D01*
X442503D02*
X442003D01*
X442253D01*
Y197500D01*
X442503Y197250D01*
X248000Y188750D02*
X248250Y188999D01*
X248750D01*
X249000Y188750D01*
Y187750D01*
X248750Y187500D01*
X248250D01*
X248000Y187750D01*
X246751Y187500D02*
Y188999D01*
X247500Y188250D01*
X246501D01*
X246001Y188750D02*
X245751Y188999D01*
X245251D01*
X245001Y188750D01*
Y188500D01*
X245251Y188250D01*
X245501D01*
X245251D01*
X245001Y188000D01*
Y187750D01*
X245251Y187500D01*
X245751D01*
X246001Y187750D01*
X244501Y187250D02*
X243502D01*
X243002Y188999D02*
Y187500D01*
X242252D01*
X242002Y187750D01*
Y188750D01*
X242252Y188999D01*
X243002D01*
X241502Y187500D02*
Y188999D01*
X240753D01*
X240503Y188750D01*
Y188250D01*
X240753Y188000D01*
X241502D01*
X241003D02*
X240503Y187500D01*
X239003D02*
X240003D01*
X239003Y188500D01*
Y188750D01*
X239253Y188999D01*
X239753D01*
X240003Y188750D01*
X451000Y190750D02*
X451250Y190999D01*
X451750D01*
X452000Y190750D01*
Y189750D01*
X451750Y189500D01*
X451250D01*
X451000Y189750D01*
X449751Y189500D02*
Y190999D01*
X450500Y190250D01*
X449501D01*
X449001Y190750D02*
X448751Y190999D01*
X448251D01*
X448001Y190750D01*
Y190500D01*
X448251Y190250D01*
X448501D01*
X448251D01*
X448001Y190000D01*
Y189750D01*
X448251Y189500D01*
X448751D01*
X449001Y189750D01*
X447501Y189250D02*
X446502D01*
X446002Y190999D02*
Y189500D01*
X445252D01*
X445002Y189750D01*
Y190750D01*
X445252Y190999D01*
X446002D01*
X444502Y189500D02*
Y190999D01*
X443753D01*
X443503Y190750D01*
Y190250D01*
X443753Y190000D01*
X444502D01*
X444003D02*
X443503Y189500D01*
X443003D02*
X442503D01*
X442753D01*
Y190999D01*
X443003Y190750D01*
X294500Y150250D02*
X294750Y150499D01*
X295250D01*
X295500Y150250D01*
Y149250D01*
X295250Y149000D01*
X294750D01*
X294500Y149250D01*
X293251Y149000D02*
Y150499D01*
X294001Y149750D01*
X293001D01*
X291501Y149000D02*
X292501D01*
X291501Y150000D01*
Y150250D01*
X291751Y150499D01*
X292251D01*
X292501Y150250D01*
X291001Y148750D02*
X290002D01*
X289502Y150499D02*
Y149000D01*
X288752D01*
X288502Y149250D01*
Y150250D01*
X288752Y150499D01*
X289502D01*
X288002Y149000D02*
Y150499D01*
X287253D01*
X287003Y150250D01*
Y149750D01*
X287253Y149500D01*
X288002D01*
X287503D02*
X287003Y149000D01*
X285503D02*
X286503D01*
X285503Y150000D01*
Y150250D01*
X285753Y150499D01*
X286253D01*
X286503Y150250D01*
X342750Y129500D02*
X343000Y129250D01*
Y128750D01*
X342750Y128500D01*
X341750D01*
X341500Y128750D01*
Y129250D01*
X341750Y129500D01*
X341500Y130749D02*
X343000D01*
X342250Y129999D01*
Y130999D01*
X341500Y132499D02*
Y131499D01*
X342500Y132499D01*
X342750D01*
X343000Y132249D01*
Y131749D01*
X342750Y131499D01*
X341250Y132999D02*
Y133998D01*
X343000Y134498D02*
X341500D01*
Y135248D01*
X341750Y135498D01*
X342750D01*
X343000Y135248D01*
Y134498D01*
X341500Y135998D02*
X343000D01*
Y136747D01*
X342750Y136997D01*
X342250D01*
X342000Y136747D01*
Y135998D01*
Y136497D02*
X341500Y136997D01*
Y137497D02*
Y137997D01*
Y137747D01*
X343000D01*
X342750Y137497D01*
X165750Y146000D02*
X165500Y146250D01*
Y146750D01*
X165750Y147000D01*
X166750D01*
X167000Y146750D01*
Y146250D01*
X166750Y146000D01*
X167000Y144751D02*
X165500D01*
X166250Y145501D01*
Y144501D01*
X167000Y144001D02*
Y143501D01*
Y143751D01*
X165500D01*
X165750Y144001D01*
X167250Y142751D02*
Y141752D01*
X165500Y141252D02*
X167000D01*
Y140502D01*
X166750Y140252D01*
X165750D01*
X165500Y140502D01*
Y141252D01*
X167000Y139752D02*
X165500D01*
Y139003D01*
X165750Y138753D01*
X166250D01*
X166500Y139003D01*
Y139752D01*
Y139252D02*
X167000Y138753D01*
Y137253D02*
Y138253D01*
X166000Y137253D01*
X165750D01*
X165500Y137503D01*
Y138003D01*
X165750Y138253D01*
X337500Y161250D02*
X337750Y161500D01*
X338250D01*
X338500Y161250D01*
Y160250D01*
X338250Y160000D01*
X337750D01*
X337500Y160250D01*
X336251Y160000D02*
Y161500D01*
X337000Y160750D01*
X336001D01*
X335501Y160000D02*
X335001D01*
X335251D01*
Y161500D01*
X335501Y161250D01*
X334251Y159750D02*
X333252D01*
X332752Y161500D02*
Y160000D01*
X332002D01*
X331752Y160250D01*
Y161250D01*
X332002Y161500D01*
X332752D01*
X331252Y160000D02*
Y161500D01*
X330503D01*
X330253Y161250D01*
Y160750D01*
X330503Y160500D01*
X331252D01*
X330752D02*
X330253Y160000D01*
X329753D02*
X329253D01*
X329503D01*
Y161500D01*
X329753Y161250D01*
X170250Y135000D02*
X170001Y135250D01*
Y135750D01*
X170250Y136000D01*
X171250D01*
X171500Y135750D01*
Y135250D01*
X171250Y135000D01*
X170250Y134501D02*
X170001Y134251D01*
Y133751D01*
X170250Y133501D01*
X170500D01*
X170750Y133751D01*
Y134001D01*
Y133751D01*
X171000Y133501D01*
X171250D01*
X171500Y133751D01*
Y134251D01*
X171250Y134501D01*
Y133001D02*
X171500Y132751D01*
Y132251D01*
X171250Y132001D01*
X170250D01*
X170001Y132251D01*
Y132751D01*
X170250Y133001D01*
X170500D01*
X170750Y132751D01*
Y132001D01*
X171750Y131501D02*
Y130502D01*
X170001Y130002D02*
X171500D01*
Y129252D01*
X171250Y129002D01*
X170250D01*
X170001Y129252D01*
Y130002D01*
X171500Y128502D02*
X170001D01*
Y127753D01*
X170250Y127503D01*
X170750D01*
X171000Y127753D01*
Y128502D01*
Y128003D02*
X171500Y127503D01*
Y126003D02*
Y127003D01*
X170500Y126003D01*
X170250D01*
X170001Y126253D01*
Y126753D01*
X170250Y127003D01*
X374500Y129250D02*
X374750Y129499D01*
X375250D01*
X375500Y129250D01*
Y128250D01*
X375250Y128000D01*
X374750D01*
X374500Y128250D01*
X374001Y129250D02*
X373751Y129499D01*
X373251D01*
X373001Y129250D01*
Y129000D01*
X373251Y128750D01*
X373501D01*
X373251D01*
X373001Y128500D01*
Y128250D01*
X373251Y128000D01*
X373751D01*
X374001Y128250D01*
X372501D02*
X372251Y128000D01*
X371751D01*
X371501Y128250D01*
Y129250D01*
X371751Y129499D01*
X372251D01*
X372501Y129250D01*
Y129000D01*
X372251Y128750D01*
X371501D01*
X371001Y127750D02*
X370002D01*
X369502Y129499D02*
Y128000D01*
X368752D01*
X368502Y128250D01*
Y129250D01*
X368752Y129499D01*
X369502D01*
X368002Y128000D02*
Y129499D01*
X367253D01*
X367003Y129250D01*
Y128750D01*
X367253Y128500D01*
X368002D01*
X367503D02*
X367003Y128000D01*
X366503D02*
X366003D01*
X366253D01*
Y129499D01*
X366503Y129250D01*
X200500Y142250D02*
X200750Y142499D01*
X201250D01*
X201500Y142250D01*
Y141250D01*
X201250Y141000D01*
X200750D01*
X200500Y141250D01*
X200001Y142250D02*
X199751Y142499D01*
X199251D01*
X199001Y142250D01*
Y142000D01*
X199251Y141750D01*
X199501D01*
X199251D01*
X199001Y141500D01*
Y141250D01*
X199251Y141000D01*
X199751D01*
X200001Y141250D01*
X198501Y142250D02*
X198251Y142499D01*
X197751D01*
X197501Y142250D01*
Y142000D01*
X197751Y141750D01*
X197501Y141500D01*
Y141250D01*
X197751Y141000D01*
X198251D01*
X198501Y141250D01*
Y141500D01*
X198251Y141750D01*
X198501Y142000D01*
Y142250D01*
X198251Y141750D02*
X197751D01*
X197001Y140750D02*
X196002D01*
X195502Y142499D02*
Y141000D01*
X194752D01*
X194502Y141250D01*
Y142250D01*
X194752Y142499D01*
X195502D01*
X194002Y141000D02*
Y142499D01*
X193253D01*
X193003Y142250D01*
Y141750D01*
X193253Y141500D01*
X194002D01*
X193503D02*
X193003Y141000D01*
X191503D02*
X192503D01*
X191503Y142000D01*
Y142250D01*
X191753Y142499D01*
X192253D01*
X192503Y142250D01*
X399500Y144750D02*
X399750Y145000D01*
X400250D01*
X400500Y144750D01*
Y143750D01*
X400250Y143500D01*
X399750D01*
X399500Y143750D01*
X399001Y144750D02*
X398751Y145000D01*
X398251D01*
X398001Y144750D01*
Y144500D01*
X398251Y144250D01*
X398501D01*
X398251D01*
X398001Y144000D01*
Y143750D01*
X398251Y143500D01*
X398751D01*
X399001Y143750D01*
X397501Y144750D02*
X397251Y145000D01*
X396751D01*
X396501Y144750D01*
Y144500D01*
X396751Y144250D01*
X396501Y144000D01*
Y143750D01*
X396751Y143500D01*
X397251D01*
X397501Y143750D01*
Y144000D01*
X397251Y144250D01*
X397501Y144500D01*
Y144750D01*
X397251Y144250D02*
X396751D01*
X396001Y143250D02*
X395002D01*
X394502Y145000D02*
Y143500D01*
X393752D01*
X393502Y143750D01*
Y144750D01*
X393752Y145000D01*
X394502D01*
X393002Y143500D02*
Y145000D01*
X392253D01*
X392003Y144750D01*
Y144250D01*
X392253Y144000D01*
X393002D01*
X392503D02*
X392003Y143500D01*
X391503D02*
X391003D01*
X391253D01*
Y145000D01*
X391503Y144750D01*
X261000Y141250D02*
X261250Y141499D01*
X261750D01*
X262000Y141250D01*
Y140250D01*
X261750Y140000D01*
X261250D01*
X261000Y140250D01*
X260501Y141250D02*
X260251Y141499D01*
X259751D01*
X259501Y141250D01*
Y141000D01*
X259751Y140750D01*
X260001D01*
X259751D01*
X259501Y140500D01*
Y140250D01*
X259751Y140000D01*
X260251D01*
X260501Y140250D01*
X258001Y141499D02*
X258501Y141250D01*
X259001Y140750D01*
Y140250D01*
X258751Y140000D01*
X258251D01*
X258001Y140250D01*
Y140500D01*
X258251Y140750D01*
X259001D01*
X257501Y139750D02*
X256502D01*
X256002Y141499D02*
Y140000D01*
X255252D01*
X255002Y140250D01*
Y141250D01*
X255252Y141499D01*
X256002D01*
X254502Y140000D02*
Y141499D01*
X253753D01*
X253503Y141250D01*
Y140750D01*
X253753Y140500D01*
X254502D01*
X254003D02*
X253503Y140000D01*
X252003D02*
X253003D01*
X252003Y141000D01*
Y141250D01*
X252253Y141499D01*
X252753D01*
X253003Y141250D01*
X441500Y126750D02*
X441750Y126999D01*
X442250D01*
X442500Y126750D01*
Y125750D01*
X442250Y125500D01*
X441750D01*
X441500Y125750D01*
X441001Y126750D02*
X440751Y126999D01*
X440251D01*
X440001Y126750D01*
Y126500D01*
X440251Y126250D01*
X440501D01*
X440251D01*
X440001Y126000D01*
Y125750D01*
X440251Y125500D01*
X440751D01*
X441001Y125750D01*
X438501Y126999D02*
X439001Y126750D01*
X439501Y126250D01*
Y125750D01*
X439251Y125500D01*
X438751D01*
X438501Y125750D01*
Y126000D01*
X438751Y126250D01*
X439501D01*
X438001Y125250D02*
X437002D01*
X436502Y126999D02*
Y125500D01*
X435752D01*
X435502Y125750D01*
Y126750D01*
X435752Y126999D01*
X436502D01*
X435002Y125500D02*
Y126999D01*
X434253D01*
X434003Y126750D01*
Y126250D01*
X434253Y126000D01*
X435002D01*
X434503D02*
X434003Y125500D01*
X433503D02*
X433003D01*
X433253D01*
Y126999D01*
X433503Y126750D01*
X205500Y125750D02*
X205250Y125501D01*
X204750D01*
X204500Y125750D01*
Y126750D01*
X204750Y127000D01*
X205250D01*
X205500Y126750D01*
X205999Y125750D02*
X206249Y125501D01*
X206749D01*
X206999Y125750D01*
Y126000D01*
X206749Y126250D01*
X206499D01*
X206749D01*
X206999Y126500D01*
Y126750D01*
X206749Y127000D01*
X206249D01*
X205999Y126750D01*
X208249Y127000D02*
Y125501D01*
X207499Y126250D01*
X208499D01*
X208999Y127250D02*
X209998D01*
X210498Y125501D02*
Y127000D01*
X211248D01*
X211498Y126750D01*
Y125750D01*
X211248Y125501D01*
X210498D01*
X211998Y127000D02*
Y125501D01*
X212747D01*
X212997Y125750D01*
Y126250D01*
X212747Y126500D01*
X211998D01*
X212497D02*
X212997Y127000D01*
X214497D02*
X213497D01*
X214497Y126000D01*
Y125750D01*
X214247Y125501D01*
X213747D01*
X213497Y125750D01*
X409000Y126250D02*
X408750Y126000D01*
X408250D01*
X408000Y126250D01*
Y127250D01*
X408250Y127500D01*
X408750D01*
X409000Y127250D01*
X409500Y126250D02*
X409749Y126000D01*
X410249D01*
X410499Y126250D01*
Y126500D01*
X410249Y126750D01*
X409999D01*
X410249D01*
X410499Y127000D01*
Y127250D01*
X410249Y127500D01*
X409749D01*
X409500Y127250D01*
X411749Y127500D02*
Y126000D01*
X410999Y126750D01*
X411999D01*
X412499Y127750D02*
X413498D01*
X413998Y126000D02*
Y127500D01*
X414748D01*
X414998Y127250D01*
Y126250D01*
X414748Y126000D01*
X413998D01*
X415498Y127500D02*
Y126000D01*
X416247D01*
X416497Y126250D01*
Y126750D01*
X416247Y127000D01*
X415498D01*
X415997D02*
X416497Y127500D01*
X416997D02*
X417497D01*
X417247D01*
Y126000D01*
X416997Y126250D01*
X189000Y142250D02*
X189250Y142499D01*
X189750D01*
X190000Y142250D01*
Y141250D01*
X189750Y141000D01*
X189250D01*
X189000Y141250D01*
X188500Y142250D02*
X188251Y142499D01*
X187751D01*
X187501Y142250D01*
Y142000D01*
X187751Y141750D01*
X188001D01*
X187751D01*
X187501Y141500D01*
Y141250D01*
X187751Y141000D01*
X188251D01*
X188500Y141250D01*
X187001Y142250D02*
X186751Y142499D01*
X186251D01*
X186001Y142250D01*
Y141250D01*
X186251Y141000D01*
X186751D01*
X187001Y141250D01*
Y142250D01*
X185501Y140750D02*
X184502D01*
X184002Y142499D02*
Y141000D01*
X183252D01*
X183002Y141250D01*
Y142250D01*
X183252Y142499D01*
X184002D01*
X182502Y141000D02*
Y142499D01*
X181753D01*
X181503Y142250D01*
Y141750D01*
X181753Y141500D01*
X182502D01*
X182003D02*
X181503Y141000D01*
X180003D02*
X181003D01*
X180003Y142000D01*
Y142250D01*
X180253Y142499D01*
X180753D01*
X181003Y142250D01*
X389250Y135500D02*
X389001Y135750D01*
Y136250D01*
X389250Y136500D01*
X390250D01*
X390500Y136250D01*
Y135750D01*
X390250Y135500D01*
X389250Y135001D02*
X389001Y134751D01*
Y134251D01*
X389250Y134001D01*
X389500D01*
X389750Y134251D01*
Y134501D01*
Y134251D01*
X390000Y134001D01*
X390250D01*
X390500Y134251D01*
Y134751D01*
X390250Y135001D01*
X389250Y133501D02*
X389001Y133251D01*
Y132751D01*
X389250Y132501D01*
X390250D01*
X390500Y132751D01*
Y133251D01*
X390250Y133501D01*
X389250D01*
X390750Y132001D02*
Y131002D01*
X389001Y130502D02*
X390500D01*
Y129752D01*
X390250Y129502D01*
X389250D01*
X389001Y129752D01*
Y130502D01*
X390500Y129002D02*
X389001D01*
Y128253D01*
X389250Y128003D01*
X389750D01*
X390000Y128253D01*
Y129002D01*
Y128503D02*
X390500Y128003D01*
Y127503D02*
Y127003D01*
Y127253D01*
X389001D01*
X389250Y127503D01*
X295250Y130000D02*
X295499Y129750D01*
Y129250D01*
X295250Y129000D01*
X294250D01*
X294000Y129250D01*
Y129750D01*
X294250Y130000D01*
X294000Y131499D02*
Y130499D01*
X295000Y131499D01*
X295250D01*
X295499Y131249D01*
Y130749D01*
X295250Y130499D01*
X294250Y131999D02*
X294000Y132249D01*
Y132749D01*
X294250Y132999D01*
X295250D01*
X295499Y132749D01*
Y132249D01*
X295250Y131999D01*
X295000D01*
X294750Y132249D01*
Y132999D01*
X293750Y133499D02*
Y134498D01*
X295499Y134998D02*
X294000D01*
Y135748D01*
X294250Y135998D01*
X295250D01*
X295499Y135748D01*
Y134998D01*
X294000Y136498D02*
X295499D01*
Y137247D01*
X295250Y137497D01*
X294750D01*
X294500Y137247D01*
Y136498D01*
Y136997D02*
X294000Y137497D01*
Y138997D02*
Y137997D01*
X295000Y138997D01*
X295250D01*
X295499Y138747D01*
Y138247D01*
X295250Y137997D01*
X338500Y151750D02*
X338750Y151999D01*
X339250D01*
X339500Y151750D01*
Y150750D01*
X339250Y150500D01*
X338750D01*
X338500Y150750D01*
X337001Y150500D02*
X338000D01*
X337001Y151500D01*
Y151750D01*
X337251Y151999D01*
X337751D01*
X338000Y151750D01*
X336501Y150750D02*
X336251Y150500D01*
X335751D01*
X335501Y150750D01*
Y151750D01*
X335751Y151999D01*
X336251D01*
X336501Y151750D01*
Y151500D01*
X336251Y151250D01*
X335501D01*
X335001Y150250D02*
X334002D01*
X333502Y151999D02*
Y150500D01*
X332752D01*
X332502Y150750D01*
Y151750D01*
X332752Y151999D01*
X333502D01*
X332002Y150500D02*
Y151999D01*
X331253D01*
X331003Y151750D01*
Y151250D01*
X331253Y151000D01*
X332002D01*
X331503D02*
X331003Y150500D01*
X330503D02*
X330003D01*
X330253D01*
Y151999D01*
X330503Y151750D01*
X115975Y275156D02*
X116106Y275287D01*
X116369D01*
X116500Y275156D01*
Y274631D01*
X116369Y274500D01*
X116106D01*
X115975Y274631D01*
X115188Y274500D02*
X115713D01*
X115188Y275025D01*
Y275156D01*
X115319Y275287D01*
X115582D01*
X115713Y275156D01*
X114926Y275287D02*
X114401D01*
Y275156D01*
X114926Y274631D01*
Y274500D01*
X114139Y274369D02*
X113614D01*
X113351Y275287D02*
Y274500D01*
X112958D01*
X112827Y274631D01*
Y275156D01*
X112958Y275287D01*
X113351D01*
X112564Y274500D02*
Y275287D01*
X112171D01*
X112039Y275156D01*
Y274894D01*
X112171Y274762D01*
X112564D01*
X112302D02*
X112039Y274500D01*
X111252D02*
X111777D01*
X111252Y275025D01*
Y275156D01*
X111383Y275287D01*
X111646D01*
X111777Y275156D01*
X326000Y143750D02*
X326250Y144000D01*
X326750D01*
X327000Y143750D01*
Y142750D01*
X326750Y142500D01*
X326250D01*
X326000Y142750D01*
X324501Y142500D02*
X325500D01*
X324501Y143500D01*
Y143750D01*
X324751Y144000D01*
X325251D01*
X325500Y143750D01*
X324001Y144000D02*
X323001D01*
Y143750D01*
X324001Y142750D01*
Y142500D01*
X322501Y142250D02*
X321502D01*
X321002Y144000D02*
Y142500D01*
X320252D01*
X320002Y142750D01*
Y143750D01*
X320252Y144000D01*
X321002D01*
X319502Y142500D02*
Y144000D01*
X318753D01*
X318503Y143750D01*
Y143250D01*
X318753Y143000D01*
X319502D01*
X319003D02*
X318503Y142500D01*
X318003D02*
X317503D01*
X317753D01*
Y144000D01*
X318003Y143750D01*
X262500Y126250D02*
X262750Y126499D01*
X263250D01*
X263500Y126250D01*
Y125250D01*
X263250Y125000D01*
X262750D01*
X262500Y125250D01*
X261001Y125000D02*
X262000D01*
X261001Y126000D01*
Y126250D01*
X261251Y126499D01*
X261751D01*
X262000Y126250D01*
X259501Y126499D02*
X260001Y126250D01*
X260501Y125750D01*
Y125250D01*
X260251Y125000D01*
X259751D01*
X259501Y125250D01*
Y125500D01*
X259751Y125750D01*
X260501D01*
X259001Y124750D02*
X258002D01*
X257502Y126499D02*
Y125000D01*
X256752D01*
X256502Y125250D01*
Y126250D01*
X256752Y126499D01*
X257502D01*
X256002Y125000D02*
Y126499D01*
X255253D01*
X255003Y126250D01*
Y125750D01*
X255253Y125500D01*
X256002D01*
X255503D02*
X255003Y125000D01*
X253503D02*
X254503D01*
X253503Y126000D01*
Y126250D01*
X253753Y126499D01*
X254253D01*
X254503Y126250D01*
X343250Y140000D02*
X343499Y139750D01*
Y139250D01*
X343250Y139000D01*
X342250D01*
X342000Y139250D01*
Y139750D01*
X342250Y140000D01*
X342000Y141499D02*
Y140499D01*
X343000Y141499D01*
X343250D01*
X343499Y141249D01*
Y140749D01*
X343250Y140499D01*
X343499Y142999D02*
X343250Y142499D01*
X342750Y141999D01*
X342250D01*
X342000Y142249D01*
Y142749D01*
X342250Y142999D01*
X342500D01*
X342750Y142749D01*
Y141999D01*
X341750Y143499D02*
Y144498D01*
X343499Y144998D02*
X342000D01*
Y145748D01*
X342250Y145998D01*
X343250D01*
X343499Y145748D01*
Y144998D01*
X342000Y146498D02*
X343499D01*
Y147247D01*
X343250Y147497D01*
X342750D01*
X342500Y147247D01*
Y146498D01*
Y146997D02*
X342000Y147497D01*
Y147997D02*
Y148497D01*
Y148247D01*
X343499D01*
X343250Y147997D01*
X272000Y130500D02*
X273499D01*
Y131250D01*
X273250Y131500D01*
X272750D01*
X272500Y131250D01*
Y130500D01*
Y131000D02*
X272000Y131500D01*
X273499Y132999D02*
Y132000D01*
X272750D01*
X273000Y132499D01*
Y132749D01*
X272750Y132999D01*
X272250D01*
X272000Y132749D01*
Y132249D01*
X272250Y132000D01*
X272000Y133499D02*
Y133999D01*
Y133749D01*
X273499D01*
X273250Y133499D01*
X271750Y134749D02*
Y135748D01*
X273499Y136248D02*
X272000D01*
Y136998D01*
X272250Y137248D01*
X273250D01*
X273499Y136998D01*
Y136248D01*
X272000Y137748D02*
X273499D01*
Y138497D01*
X273250Y138747D01*
X272750D01*
X272500Y138497D01*
Y137748D01*
Y138248D02*
X272000Y138747D01*
Y140247D02*
Y139247D01*
X273000Y140247D01*
X273250D01*
X273499Y139997D01*
Y139497D01*
X273250Y139247D01*
X314750Y244000D02*
X315000Y243750D01*
Y243250D01*
X314750Y243000D01*
X313750D01*
X313500Y243250D01*
Y243750D01*
X313750Y244000D01*
X313500Y245249D02*
X315000D01*
X314250Y244499D01*
Y245499D01*
X314750Y245999D02*
X315000Y246249D01*
Y246749D01*
X314750Y246999D01*
X313750D01*
X313500Y246749D01*
Y246249D01*
X313750Y245999D01*
X314750D01*
X313250Y247499D02*
Y248498D01*
X315000Y248998D02*
X313500D01*
Y249748D01*
X313750Y249998D01*
X314750D01*
X315000Y249748D01*
Y248998D01*
X313500Y250498D02*
X315000D01*
Y251247D01*
X314750Y251497D01*
X314250D01*
X314000Y251247D01*
Y250498D01*
Y250997D02*
X313500Y251497D01*
Y251997D02*
Y252497D01*
Y252247D01*
X315000D01*
X314750Y251997D01*
X88500Y271640D02*
X88250Y271390D01*
X87750D01*
X87500Y271640D01*
Y272640D01*
X87750Y272890D01*
X88250D01*
X88500Y272640D01*
X89749Y272890D02*
Y271390D01*
X88999Y272140D01*
X89999D01*
X90499Y271640D02*
X90749Y271390D01*
X91249D01*
X91499Y271640D01*
Y272640D01*
X91249Y272890D01*
X90749D01*
X90499Y272640D01*
Y271640D01*
X91999Y273140D02*
X92998D01*
X93498Y271390D02*
Y272890D01*
X94248D01*
X94498Y272640D01*
Y271640D01*
X94248Y271390D01*
X93498D01*
X94998Y272890D02*
Y271390D01*
X95747D01*
X95997Y271640D01*
Y272140D01*
X95747Y272390D01*
X94998D01*
X95497D02*
X95997Y272890D01*
X97497D02*
X96497D01*
X97497Y271890D01*
Y271640D01*
X97247Y271390D01*
X96747D01*
X96497Y271640D01*
X339000Y298000D02*
Y296500D01*
X338250D01*
X338000Y296750D01*
Y297750D01*
X338250Y298000D01*
X339000D01*
X337501Y296500D02*
X337001D01*
X337251D01*
Y298000D01*
X337501Y297750D01*
X336251Y296250D02*
X335251D01*
X334751Y298000D02*
Y296500D01*
X334002D01*
X333752Y296750D01*
Y297750D01*
X334002Y298000D01*
X334751D01*
X333252Y296500D02*
Y298000D01*
X332502D01*
X332252Y297750D01*
Y297250D01*
X332502Y297000D01*
X333252D01*
X332752D02*
X332252Y296500D01*
X331752D02*
X331253D01*
X331502D01*
Y298000D01*
X331752Y297750D01*
X78937Y266001D02*
Y267500D01*
X79687D01*
X79937Y267250D01*
Y266250D01*
X79687Y266001D01*
X78937D01*
X80436Y267500D02*
X80936D01*
X80686D01*
Y266001D01*
X80436Y266250D01*
X81686Y267750D02*
X82686D01*
X83186Y266001D02*
Y267500D01*
X83935D01*
X84185Y267250D01*
Y266250D01*
X83935Y266001D01*
X83186D01*
X84685Y267500D02*
Y266001D01*
X85435D01*
X85685Y266250D01*
Y266750D01*
X85435Y267000D01*
X84685D01*
X85185D02*
X85685Y267500D01*
X87184D02*
X86185D01*
X87184Y266500D01*
Y266250D01*
X86935Y266001D01*
X86435D01*
X86185Y266250D01*
X334500Y314499D02*
Y313000D01*
X333500D01*
X333000Y314250D02*
X332751Y314499D01*
X332251D01*
X332001Y314250D01*
Y314000D01*
X332251Y313750D01*
X332501D01*
X332251D01*
X332001Y313500D01*
Y313250D01*
X332251Y313000D01*
X332751D01*
X333000Y313250D01*
X331501Y312750D02*
X330501D01*
X330001Y314499D02*
Y313000D01*
X329252D01*
X329002Y313250D01*
Y314250D01*
X329252Y314499D01*
X330001D01*
X328502Y313000D02*
Y314499D01*
X327752D01*
X327502Y314250D01*
Y313750D01*
X327752Y313500D01*
X328502D01*
X328002D02*
X327502Y313000D01*
X327002D02*
X326503D01*
X326752D01*
Y314499D01*
X327002Y314250D01*
D164*
X442167Y145772D02*
G03*
X442167Y145772I-224J0D01*
G01*
X238423Y145382D02*
G03*
X238423Y145382I-224J0D01*
G01*
D165*
X105000Y177593D02*
D03*
M02*
