G04 Layer_Color=16711935*
%FSLAX25Y25*%
%MOIN*%
G70*
G01*
G75*
%ADD47C,0.01181*%
%ADD52C,0.14961*%
%ADD68C,0.01800*%
%ADD69C,0.05000*%
%ADD70C,0.02200*%
%ADD72C,0.02300*%
%ADD73C,0.02100*%
%ADD74C,0.02500*%
%ADD76C,0.02000*%
%ADD77C,0.03000*%
%ADD92C,0.09843*%
%ADD93C,0.20472*%
%ADD94C,0.43307*%
%ADD110R,0.05131X0.04737*%
%ADD111R,0.04737X0.05131*%
%ADD112R,0.04343X0.03950*%
%ADD113R,0.03950X0.04343*%
%ADD115R,0.08280X0.11430*%
%ADD117R,0.04737X0.08674*%
%ADD118R,0.14579X0.10642*%
%ADD125R,0.11430X0.08280*%
%ADD141C,0.15800*%
%ADD142R,0.06706X0.06706*%
%ADD143C,0.06706*%
%ADD144C,0.12611*%
%ADD145C,0.02600*%
%ADD146C,0.05800*%
%ADD147C,0.04800*%
%ADD148C,0.08800*%
%ADD149R,0.11000X0.03500*%
%ADD150R,0.09000X0.08000*%
%ADD151R,0.05500X0.05000*%
%ADD152R,0.25000X0.14213*%
%ADD153R,0.32296X0.11430*%
%ADD154R,0.03359X0.10249*%
%ADD155R,0.40544X0.44107*%
%ADD156R,0.03753X0.09796*%
%ADD157R,0.35249X0.21272*%
%ADD158R,0.08241X0.05682*%
%ADD159R,0.05682X0.08241*%
%ADD160R,0.08674X0.08674*%
%ADD161R,0.01981X0.06902*%
%ADD162R,0.11430X0.32296*%
%ADD163C,0.03398*%
D47*
X268702Y293000D02*
X271470Y290232D01*
X472702Y296000D02*
X475470Y293232D01*
X472676Y211020D02*
X472702Y211047D01*
X437000Y211520D02*
X437500Y211020D01*
X437000Y211520D02*
X437000Y211520D01*
X386000D02*
X386500Y212020D01*
X385500Y211020D02*
X386000Y211520D01*
X472676Y211020D02*
X473776D01*
X268676Y208520D02*
X268702Y208546D01*
X182000Y208520D02*
X182500Y209020D01*
X182500Y209020D01*
X182000Y208520D02*
X186256Y204264D01*
D52*
X413100Y294165D02*
Y302400D01*
X260600Y273500D02*
Y291165D01*
X158100Y290665D02*
Y298144D01*
Y262121D02*
Y290665D01*
X209100Y291165D02*
Y299400D01*
X362100Y293665D02*
Y301144D01*
Y265121D02*
Y293665D01*
X413100Y265121D02*
Y294165D01*
X464600Y276500D02*
Y294165D01*
D68*
X104751Y203125D02*
D03*
X104500Y200000D02*
D03*
Y208250D02*
D03*
Y205625D02*
D03*
X235000Y195000D02*
D03*
X231756Y192500D02*
D03*
X233256Y194000D02*
D03*
X237000Y195000D02*
D03*
X383500Y155000D02*
D03*
X381000D02*
D03*
X378500D02*
D03*
X377872Y134756D02*
D03*
X374744D02*
D03*
X310500Y153000D02*
D03*
Y151000D02*
D03*
X372500Y183000D02*
D03*
X374500D02*
D03*
X370284D02*
D03*
X374000Y198589D02*
D03*
X371500D02*
D03*
X369326D02*
D03*
X104626Y211000D02*
D03*
D69*
X452000Y140500D02*
D03*
X127000Y188000D02*
D03*
X136000Y148000D02*
D03*
D70*
X435500Y279714D02*
D03*
Y277000D02*
D03*
Y274000D02*
D03*
Y271000D02*
D03*
Y268500D02*
D03*
X185500Y144500D02*
D03*
X190500D02*
D03*
X118933Y224500D02*
D03*
X121500D02*
D03*
X116367D02*
D03*
X114000D02*
D03*
X188000Y143500D02*
D03*
D72*
X408635Y164390D02*
D03*
X439343Y174626D02*
D03*
X434225D02*
D03*
X429107D02*
D03*
X423989D02*
D03*
X418871D02*
D03*
X413753D02*
D03*
X408635D02*
D03*
X403517D02*
D03*
X398398D02*
D03*
X393280D02*
D03*
X388162D02*
D03*
X439343Y169508D02*
D03*
X434225D02*
D03*
X429107D02*
D03*
X423989D02*
D03*
X418871D02*
D03*
X413753D02*
D03*
X408635D02*
D03*
X403517D02*
D03*
X398398D02*
D03*
X393280D02*
D03*
X388162D02*
D03*
X439343Y164390D02*
D03*
X434225D02*
D03*
X429107D02*
D03*
X423989D02*
D03*
X418871D02*
D03*
X413753D02*
D03*
X403517D02*
D03*
X398398D02*
D03*
X393280D02*
D03*
X388162D02*
D03*
X439343Y159272D02*
D03*
X434225D02*
D03*
X429107D02*
D03*
X423989D02*
D03*
X418871D02*
D03*
X413753D02*
D03*
X408635D02*
D03*
X403517D02*
D03*
X398398D02*
D03*
X393280D02*
D03*
X388162D02*
D03*
X235599Y174236D02*
D03*
X230481D02*
D03*
X225363D02*
D03*
X220245D02*
D03*
X215127D02*
D03*
X210009D02*
D03*
X204891D02*
D03*
X199773D02*
D03*
X194654D02*
D03*
X189536D02*
D03*
X184418D02*
D03*
X235599Y169118D02*
D03*
X230481D02*
D03*
X225363D02*
D03*
X220245D02*
D03*
X215127D02*
D03*
X210009D02*
D03*
X204891D02*
D03*
X199773D02*
D03*
X194654D02*
D03*
X189536D02*
D03*
X184418D02*
D03*
X235599Y164000D02*
D03*
X230481D02*
D03*
X225363D02*
D03*
X220245D02*
D03*
X215127D02*
D03*
X210009D02*
D03*
X204891D02*
D03*
X199773D02*
D03*
X194654D02*
D03*
X189536D02*
D03*
X184418D02*
D03*
X235599Y158882D02*
D03*
X230481D02*
D03*
X225363D02*
D03*
X220245D02*
D03*
X215127D02*
D03*
X210009D02*
D03*
X204891D02*
D03*
X199773D02*
D03*
X194654D02*
D03*
X189536D02*
D03*
X184418D02*
D03*
D73*
X285250Y138500D02*
D03*
X406500Y133000D02*
D03*
X401877D02*
D03*
X404189D02*
D03*
X124500Y275000D02*
D03*
X399500Y133000D02*
D03*
X282500Y138500D02*
D03*
X127500Y275000D02*
D03*
Y272000D02*
D03*
X124500D02*
D03*
D74*
X234674Y132244D02*
D03*
D76*
X329000Y136450D02*
D03*
Y134000D02*
D03*
Y139000D02*
D03*
D77*
X203500Y128000D02*
D03*
X207500D02*
D03*
X211000D02*
D03*
X284500Y132500D02*
D03*
D92*
X408500Y305744D02*
X418500D01*
X472702Y284602D02*
Y296000D01*
X268702Y293000D02*
Y302744D01*
Y281602D02*
Y293000D01*
X217702Y269923D02*
Y302744D01*
X166702Y269923D02*
Y302744D01*
X143500D02*
X148500D01*
X153500D01*
X163500D02*
X166702D01*
X194500D02*
X199500D01*
X204500D01*
X214500D02*
X217702D01*
X245500D02*
X250500D01*
X255500D01*
X265500D02*
X268702D01*
X260600Y273500D02*
X268702Y281602D01*
X260600Y261821D02*
Y273500D01*
X250500Y271721D02*
Y302744D01*
X245500Y276720D02*
Y302744D01*
X255500D02*
X265500D01*
X204500D02*
X214500D01*
X153500D02*
X163500D01*
X199500Y271721D02*
Y302744D01*
X194500Y276720D02*
Y302744D01*
X148500Y271721D02*
Y302744D01*
X143500Y276720D02*
Y302744D01*
X421702Y272923D02*
Y305744D01*
X370702Y272923D02*
Y305744D01*
X347500D02*
X352500D01*
X357500D01*
X367500D02*
X370702D01*
X398500D02*
X403500D01*
X418500D02*
X421702D01*
X449500D02*
X454500D01*
X459500D01*
X469500D02*
X472702D01*
X464600Y276500D02*
X472702Y284602D01*
X464600Y264821D02*
Y276500D01*
X454500Y274721D02*
Y305744D01*
X449500Y279720D02*
Y305744D01*
X459500D02*
X469500D01*
X357500D02*
X367500D01*
X472702Y296000D02*
Y305744D01*
X403500Y274721D02*
Y305744D01*
X398500Y279720D02*
Y305744D01*
X352500Y274721D02*
Y305744D01*
X347500Y279720D02*
Y305744D01*
X472702Y211047D02*
Y228500D01*
X469500Y214195D02*
Y228500D01*
X472702D01*
X449500Y211520D02*
Y228500D01*
X459500Y224195D02*
Y228500D01*
X454500Y216520D02*
Y228500D01*
X464500D02*
X469500D01*
X459500D02*
X464500D01*
Y219195D02*
Y228500D01*
X413500Y211520D02*
Y228500D01*
X421702Y213317D02*
Y228500D01*
X403500Y214520D02*
Y228500D01*
X408500Y216520D02*
Y228500D01*
X398500Y212520D02*
Y228500D01*
X413500D02*
X418500D01*
X408500D02*
X413500D01*
X367500Y219344D02*
Y228500D01*
X362500Y214344D02*
Y228500D01*
X357500Y212695D02*
Y228500D01*
X362500D02*
X367500D01*
X357500D02*
X362500D01*
X352500Y217695D02*
Y228500D01*
X347500Y212000D02*
Y228500D01*
X454500D02*
X459500D01*
X449500D02*
X454500D01*
X418500D02*
X421702D01*
X403500D02*
X408500D01*
X398500D02*
X403500D01*
X352500D02*
X357500D01*
X347500D02*
X352500D01*
X367500D02*
X370702D01*
Y222547D02*
Y228500D01*
X143500Y207500D02*
Y225500D01*
X255500Y221695D02*
Y225500D01*
X245500Y212520D02*
Y225500D01*
X250500Y210020D02*
Y225500D01*
X260500D02*
X265500D01*
X255500D02*
X260500D01*
Y216695D02*
Y225500D01*
X194500Y212020D02*
Y225500D01*
X204500Y211520D02*
Y225500D01*
X199500Y218520D02*
Y225500D01*
X209500Y208520D02*
Y225500D01*
X214500Y214020D02*
Y225500D01*
X209500D02*
X214500D01*
X204500D02*
X209500D01*
X158000Y213000D02*
X162480Y208520D01*
X153500Y217500D02*
Y225500D01*
X158000Y213000D02*
Y225500D01*
X166702Y208520D02*
Y225500D01*
X163500Y208520D02*
Y225500D01*
X158000D02*
X163500D01*
X153500D02*
X158000D01*
X153500Y217500D02*
X158000Y213000D01*
X166702Y204298D02*
Y208520D01*
X163500Y207500D02*
Y208520D01*
X162480D02*
X163500Y207500D01*
X265500Y225500D02*
X268702D01*
X250500D02*
X255500D01*
X245500D02*
X250500D01*
X214500D02*
X217702D01*
X199500D02*
X204500D01*
X194500D02*
X199500D01*
X163500D02*
X166702D01*
X148500D02*
X153500D01*
X143500D02*
X148500D01*
X144520Y208520D02*
X148500Y212500D01*
Y225500D01*
X268702Y208546D02*
Y225500D01*
X265500Y211695D02*
Y225500D01*
X217702Y209817D02*
Y225500D01*
D93*
X385500Y211020D02*
X437500D01*
X359192Y211036D02*
X385484D01*
X385500Y211020D01*
X359176D02*
X359192Y211036D01*
X437500Y211020D02*
X472676D01*
X209500Y208520D02*
X268676D01*
X163500D02*
X166702D01*
X162480D02*
X163500D01*
X155176D02*
X162480D01*
X166702D02*
X182000D01*
X209500D01*
D94*
X317465Y341965D02*
X363000D01*
X414000D02*
X465000D01*
X363000D02*
X414000D01*
X261000Y338965D02*
X314465D01*
X210000D02*
X261000D01*
X161500Y339000D02*
X210000Y338965D01*
D110*
X186000Y138000D02*
D03*
X192693D02*
D03*
D111*
X178500Y154000D02*
D03*
Y147307D02*
D03*
X382000Y151000D02*
D03*
Y144307D02*
D03*
X175000Y132000D02*
D03*
Y138693D02*
D03*
X381000Y129000D02*
D03*
Y135693D02*
D03*
X209500Y132500D02*
D03*
Y139193D02*
D03*
X413000Y133000D02*
D03*
Y139693D02*
D03*
X393500Y129244D02*
D03*
Y135937D02*
D03*
D112*
X233000Y221744D02*
D03*
Y227256D02*
D03*
X437500Y223988D02*
D03*
Y229500D02*
D03*
X173000Y153256D02*
D03*
Y147744D02*
D03*
X293500Y141244D02*
D03*
Y146756D02*
D03*
X291256Y136366D02*
D03*
Y130854D02*
D03*
X180500Y137756D02*
D03*
Y132244D02*
D03*
X215000Y132244D02*
D03*
Y137756D02*
D03*
X220000Y132244D02*
D03*
Y137756D02*
D03*
X225139Y137756D02*
D03*
Y132244D02*
D03*
X231496Y137756D02*
D03*
Y132244D02*
D03*
X237852Y137756D02*
D03*
Y132244D02*
D03*
X244209Y137756D02*
D03*
Y132244D02*
D03*
X250565Y137756D02*
D03*
Y132244D02*
D03*
X256922D02*
D03*
Y137756D02*
D03*
X263278D02*
D03*
Y132244D02*
D03*
X269635D02*
D03*
Y137756D02*
D03*
X287500Y294500D02*
D03*
Y288988D02*
D03*
X491744Y298744D02*
D03*
Y293232D02*
D03*
X284500Y228256D02*
D03*
Y222744D02*
D03*
X488000Y229756D02*
D03*
Y224244D02*
D03*
X288000Y305256D02*
D03*
Y299744D02*
D03*
X491744Y314244D02*
D03*
Y308732D02*
D03*
X289000Y243256D02*
D03*
Y237744D02*
D03*
X233000Y295756D02*
D03*
Y290244D02*
D03*
X437244Y299244D02*
D03*
Y293732D02*
D03*
X233000Y305756D02*
D03*
Y300244D02*
D03*
X437244Y314244D02*
D03*
Y308732D02*
D03*
X182744Y294744D02*
D03*
Y289232D02*
D03*
X386744Y297744D02*
D03*
Y292232D02*
D03*
X182500Y226000D02*
D03*
Y220488D02*
D03*
X386000Y228756D02*
D03*
Y223244D02*
D03*
X183000Y305256D02*
D03*
Y299744D02*
D03*
X386744Y314244D02*
D03*
Y308732D02*
D03*
X176000Y189744D02*
D03*
Y195256D02*
D03*
X229500Y195756D02*
D03*
Y190244D02*
D03*
X224500Y190244D02*
D03*
Y195756D02*
D03*
X247500Y179244D02*
D03*
Y184756D02*
D03*
X242500Y184756D02*
D03*
Y179244D02*
D03*
X439500Y134000D02*
D03*
Y139512D02*
D03*
X434000Y134000D02*
D03*
Y139512D02*
D03*
X429000Y134000D02*
D03*
Y139512D02*
D03*
X423500Y134000D02*
D03*
Y139512D02*
D03*
X418500Y133744D02*
D03*
Y139256D02*
D03*
X386500Y129244D02*
D03*
Y134756D02*
D03*
X380000Y192244D02*
D03*
Y197756D02*
D03*
X429500Y191744D02*
D03*
Y197256D02*
D03*
X434500Y192244D02*
D03*
Y197756D02*
D03*
X451500Y179744D02*
D03*
Y185256D02*
D03*
X446500Y179744D02*
D03*
Y185256D02*
D03*
D113*
X199256Y131500D02*
D03*
X193744D02*
D03*
X198244Y137000D02*
D03*
X203756D02*
D03*
X486744Y234500D02*
D03*
X492256D02*
D03*
X232244Y232500D02*
D03*
X237756D02*
D03*
X436744Y233500D02*
D03*
X442256D02*
D03*
X186756Y231000D02*
D03*
X181244D02*
D03*
X385744Y234000D02*
D03*
X391256D02*
D03*
X180744Y195500D02*
D03*
X186256D02*
D03*
X200012Y195000D02*
D03*
X194500D02*
D03*
X210256Y192000D02*
D03*
X204744D02*
D03*
X219512Y191500D02*
D03*
X214000D02*
D03*
X401744Y138500D02*
D03*
X407256D02*
D03*
X400244Y129500D02*
D03*
X405756D02*
D03*
X423744Y129500D02*
D03*
X429256D02*
D03*
X433744Y129500D02*
D03*
X439256D02*
D03*
X332244Y136500D02*
D03*
X337756D02*
D03*
X332244Y131000D02*
D03*
X337756D02*
D03*
X332244Y142000D02*
D03*
X337756D02*
D03*
X332244Y147500D02*
D03*
X337756D02*
D03*
X330744Y156500D02*
D03*
X336256D02*
D03*
X384744Y198000D02*
D03*
X390256D02*
D03*
X400244Y193000D02*
D03*
X405756D02*
D03*
X410244D02*
D03*
X415756D02*
D03*
X419244Y197500D02*
D03*
X424756D02*
D03*
X243744Y127500D02*
D03*
X249256D02*
D03*
X231244Y127500D02*
D03*
X236756D02*
D03*
D115*
X108000Y267500D02*
D03*
X126110D02*
D03*
X161331Y147464D02*
D03*
X143220D02*
D03*
X161331Y134797D02*
D03*
X143220D02*
D03*
X292000Y267000D02*
D03*
X310110D02*
D03*
X304890Y135000D02*
D03*
X323000D02*
D03*
D117*
X108500Y256000D02*
D03*
X117555D02*
D03*
X126610D02*
D03*
X305890Y149000D02*
D03*
X314945D02*
D03*
X324000D02*
D03*
D118*
X117555Y231591D02*
D03*
X314945Y173409D02*
D03*
D125*
X306500Y253610D02*
D03*
Y235500D02*
D03*
X293500Y156500D02*
D03*
Y174610D02*
D03*
X96000Y266500D02*
D03*
Y248390D02*
D03*
D141*
X508000Y219500D02*
D03*
Y344000D02*
D03*
X60000Y219500D02*
D03*
Y344000D02*
D03*
X77500Y330500D02*
D03*
Y346000D02*
D03*
X362776Y293700D02*
D03*
X413276Y294200D02*
D03*
X464776D02*
D03*
X257500Y289500D02*
D03*
X208500Y289000D02*
D03*
X158100Y290665D02*
D03*
X124500Y148500D02*
D03*
X108500D02*
D03*
D142*
X306750Y296000D02*
D03*
D143*
Y286000D02*
D03*
Y276000D02*
D03*
D144*
X509000Y360500D02*
D03*
X58000D02*
D03*
Y132000D02*
D03*
X509000D02*
D03*
D145*
X224000Y197500D02*
D03*
X98500Y157500D02*
D03*
X107500Y172500D02*
D03*
X168500Y196000D02*
D03*
X468500Y319000D02*
D03*
X367500Y183000D02*
D03*
X231500Y146000D02*
D03*
X135000Y204500D02*
D03*
X154500Y153090D02*
D03*
X141000Y183000D02*
D03*
X142243Y179000D02*
D03*
X168500Y188500D02*
D03*
Y191000D02*
D03*
X366500Y198500D02*
D03*
Y195500D02*
D03*
X354000Y195658D02*
D03*
X354500Y198500D02*
D03*
X435044Y133369D02*
D03*
X430000Y133500D02*
D03*
X195500Y143000D02*
D03*
X225139Y144500D02*
D03*
X398805Y185500D02*
D03*
X398500Y144000D02*
D03*
X228500Y224500D02*
D03*
Y221500D02*
D03*
X190515Y193991D02*
D03*
X203993Y196725D02*
D03*
X203000Y188000D02*
D03*
X199000Y186500D02*
D03*
X195000D02*
D03*
X207797Y196838D02*
D03*
X239000Y195000D02*
D03*
X278500Y178500D02*
D03*
X415500Y127000D02*
D03*
X355000Y136000D02*
D03*
X337000Y192000D02*
D03*
X333000Y193500D02*
D03*
X119000Y203000D02*
D03*
X118000Y221500D02*
D03*
X135000Y227500D02*
D03*
X114000Y199000D02*
D03*
X204903Y186403D02*
D03*
X193092Y188664D02*
D03*
X289846Y183846D02*
D03*
X241000Y191500D02*
D03*
X216781Y185608D02*
D03*
X218683Y186817D02*
D03*
X213000Y186500D02*
D03*
X209000D02*
D03*
X183000Y257000D02*
D03*
X181000Y251500D02*
D03*
X229500Y315000D02*
D03*
X233000Y309000D02*
D03*
X159000Y154464D02*
D03*
X175000Y178000D02*
D03*
X180500Y176500D02*
D03*
X167500Y181500D02*
D03*
X181000Y186000D02*
D03*
X169000Y153500D02*
D03*
X170500Y144000D02*
D03*
X376500Y155000D02*
D03*
X214746Y188254D02*
D03*
X235500Y255000D02*
D03*
X293000Y206000D02*
D03*
X310500Y149000D02*
D03*
X292000Y191000D02*
D03*
X439500Y198000D02*
D03*
X475500Y319000D02*
D03*
X482000Y316654D02*
D03*
X419000Y313500D02*
D03*
X392000Y316500D02*
D03*
X335000Y318500D02*
D03*
X322500Y314000D02*
D03*
X240187Y126500D02*
D03*
X227000D02*
D03*
X429500Y195000D02*
D03*
X416521Y186479D02*
D03*
X422427Y186427D02*
D03*
X422500Y193500D02*
D03*
X418500Y187885D02*
D03*
X412584Y186416D02*
D03*
X408647Y187885D02*
D03*
X406679Y186321D02*
D03*
X402742Y186258D02*
D03*
X400773Y187500D02*
D03*
X396500D02*
D03*
X406000Y198000D02*
D03*
X387000Y186012D02*
D03*
X408500Y235000D02*
D03*
X396000Y241500D02*
D03*
X392000Y245500D02*
D03*
X393500Y312500D02*
D03*
X291500Y202000D02*
D03*
X475000Y146500D02*
D03*
X478500Y139000D02*
D03*
X256500Y129365D02*
D03*
X376000Y298000D02*
D03*
X341500Y235000D02*
D03*
X367000D02*
D03*
X335500Y245500D02*
D03*
X331158Y272000D02*
D03*
X363000Y235000D02*
D03*
X360500Y235500D02*
D03*
X341000Y251500D02*
D03*
X341328Y249300D02*
D03*
X354000Y235000D02*
D03*
X305000Y268500D02*
D03*
X342000Y152500D02*
D03*
X292158Y195658D02*
D03*
X292500Y246000D02*
D03*
X304658Y184158D02*
D03*
X140000Y195500D02*
D03*
X318000Y243500D02*
D03*
X333000Y165500D02*
D03*
X338000Y243000D02*
D03*
X282000Y263500D02*
D03*
Y266500D02*
D03*
X465000Y318000D02*
D03*
X349620Y199484D02*
D03*
X334500Y217500D02*
D03*
X350874Y197626D02*
D03*
X440000Y303000D02*
D03*
X405500Y235500D02*
D03*
X434000Y303000D02*
D03*
X431500Y235500D02*
D03*
X442000Y306500D02*
D03*
X360000Y186500D02*
D03*
X366500Y186000D02*
D03*
X354000Y191500D02*
D03*
X366500Y191000D02*
D03*
X312500Y228500D02*
D03*
X134125Y218816D02*
D03*
X478000Y234500D02*
D03*
X381500Y236000D02*
D03*
X390500Y314000D02*
D03*
X198000Y234000D02*
D03*
X291905Y199594D02*
D03*
X295000Y220000D02*
D03*
X294500Y222500D02*
D03*
X310563Y182937D02*
D03*
X292248Y221248D02*
D03*
X430301Y148199D02*
D03*
X432269Y146731D02*
D03*
X434237Y148238D02*
D03*
X228525Y146025D02*
D03*
X222620Y147619D02*
D03*
X220651Y146151D02*
D03*
X218683Y147318D02*
D03*
X214745Y147246D02*
D03*
X206872Y146871D02*
D03*
X204903Y145597D02*
D03*
X202935Y144065D02*
D03*
X200966Y142534D02*
D03*
X198998Y144002D02*
D03*
X197029Y145529D02*
D03*
X189155Y147345D02*
D03*
X392899Y147735D02*
D03*
X418490Y147635D02*
D03*
X422427Y147707D02*
D03*
X424395Y146541D02*
D03*
X426364Y148009D02*
D03*
X400773Y145919D02*
D03*
X402742Y144392D02*
D03*
X410616Y147261D02*
D03*
X408647Y145987D02*
D03*
X406679Y144455D02*
D03*
X404710Y143210D02*
D03*
X304500Y224500D02*
D03*
X324000Y217000D02*
D03*
X330000Y168000D02*
D03*
X352000Y181500D02*
D03*
X293500Y203500D02*
D03*
X312500Y166500D02*
D03*
X309000Y164000D02*
D03*
X186756Y225244D02*
D03*
X432500Y300000D02*
D03*
X476000Y236000D02*
D03*
X489500Y244000D02*
D03*
X484000Y315000D02*
D03*
X438000Y275500D02*
D03*
X292000Y186000D02*
D03*
X331000Y243500D02*
D03*
X314500Y183000D02*
D03*
X316469Y184468D02*
D03*
X315500Y187000D02*
D03*
X320406Y184406D02*
D03*
X324342Y184343D02*
D03*
X320500Y187000D02*
D03*
X321500Y195500D02*
D03*
X337500Y225000D02*
D03*
X337000Y219500D02*
D03*
X332000Y226500D02*
D03*
X113000Y239000D02*
D03*
X133548Y213000D02*
D03*
X111021Y171000D02*
D03*
X119000Y133500D02*
D03*
X138500Y144500D02*
D03*
X89500Y172500D02*
D03*
X138428Y153808D02*
D03*
X90500Y185000D02*
D03*
X188000Y289500D02*
D03*
X82500Y275000D02*
D03*
X283500Y303000D02*
D03*
X333000Y201500D02*
D03*
X327000Y202000D02*
D03*
X331358Y186357D02*
D03*
D146*
X237679Y225000D02*
D03*
X175000Y286500D02*
D03*
Y293500D02*
D03*
D147*
X168500Y130500D02*
D03*
D148*
X133000Y301500D02*
D03*
D149*
X405500Y308750D02*
D03*
D150*
X460000Y301000D02*
D03*
D151*
X256250Y298500D02*
D03*
D152*
X413568Y167036D02*
D03*
X209824Y166644D02*
D03*
D153*
X110500Y344433D02*
D03*
Y323567D02*
D03*
X309000Y326433D02*
D03*
Y305567D02*
D03*
D154*
X84500Y197485D02*
D03*
Y215610D02*
D03*
D155*
X413500Y341965D02*
D03*
X464500Y264721D02*
D03*
X413500D02*
D03*
X362500D02*
D03*
X158500Y261720D02*
D03*
X260500D02*
D03*
X158500Y338965D02*
D03*
X209500D02*
D03*
X260500D02*
D03*
X464500Y341965D02*
D03*
X362500D02*
D03*
X209500Y261720D02*
D03*
D156*
X398500Y305744D02*
D03*
X403500D02*
D03*
X408500D02*
D03*
X418500D02*
D03*
X423500D02*
D03*
X428500D02*
D03*
X449500Y228500D02*
D03*
X454500D02*
D03*
X459500D02*
D03*
X469500D02*
D03*
X474500D02*
D03*
X479500D02*
D03*
X398500D02*
D03*
X403500D02*
D03*
X408500D02*
D03*
X418500D02*
D03*
X423500D02*
D03*
X428500D02*
D03*
X347500D02*
D03*
X352500D02*
D03*
X357500D02*
D03*
X367500D02*
D03*
X372500D02*
D03*
X377500D02*
D03*
X143500Y225500D02*
D03*
X148500D02*
D03*
X153500D02*
D03*
X163500D02*
D03*
X168500D02*
D03*
X173500D02*
D03*
X245500D02*
D03*
X250500D02*
D03*
X255500D02*
D03*
X265500D02*
D03*
X270500D02*
D03*
X275500D02*
D03*
X143500Y302744D02*
D03*
X148500D02*
D03*
X153500D02*
D03*
X163500D02*
D03*
X168500D02*
D03*
X173500D02*
D03*
X194500D02*
D03*
X199500D02*
D03*
X204500D02*
D03*
X214500D02*
D03*
X219500D02*
D03*
X224500D02*
D03*
X245500D02*
D03*
X250500D02*
D03*
X255500D02*
D03*
X265500D02*
D03*
X270500D02*
D03*
X275500D02*
D03*
X449500Y305744D02*
D03*
X454500D02*
D03*
X459500D02*
D03*
X469500D02*
D03*
X474500D02*
D03*
X479500D02*
D03*
X347500D02*
D03*
X352500D02*
D03*
X357500D02*
D03*
X367500D02*
D03*
X372500D02*
D03*
X377500D02*
D03*
X199500Y225500D02*
D03*
X194500D02*
D03*
X219500D02*
D03*
X224500D02*
D03*
X204500D02*
D03*
X214500D02*
D03*
D157*
X268676Y208520D02*
D03*
Y166000D02*
D03*
X472676Y211020D02*
D03*
Y168500D02*
D03*
X359176Y211020D02*
D03*
Y168500D02*
D03*
X155176Y208520D02*
D03*
Y166000D02*
D03*
D158*
X333000Y251937D02*
D03*
Y268000D02*
D03*
Y275937D02*
D03*
Y292000D02*
D03*
D159*
X107500Y281500D02*
D03*
X91437D02*
D03*
X131063Y282000D02*
D03*
X115000D02*
D03*
D160*
X105000Y184500D02*
D03*
Y165000D02*
D03*
D161*
X440143Y152272D02*
D03*
X438174D02*
D03*
X436206D02*
D03*
X434237D02*
D03*
X432269D02*
D03*
X430301D02*
D03*
X428332D02*
D03*
X426364D02*
D03*
X424395D02*
D03*
X422427D02*
D03*
X420458D02*
D03*
X418490D02*
D03*
X416521D02*
D03*
X414553D02*
D03*
X412584D02*
D03*
X410616D02*
D03*
X408647D02*
D03*
X406679D02*
D03*
X404710D02*
D03*
X402742D02*
D03*
X400773D02*
D03*
X398805D02*
D03*
X396836D02*
D03*
X394868D02*
D03*
X392899D02*
D03*
X390931D02*
D03*
X388962D02*
D03*
X386994D02*
D03*
Y181799D02*
D03*
X388962Y181772D02*
D03*
X390931Y181799D02*
D03*
X392899D02*
D03*
X394868D02*
D03*
X396836D02*
D03*
X398805D02*
D03*
X400773D02*
D03*
X402742D02*
D03*
X404710D02*
D03*
X406679D02*
D03*
X408647D02*
D03*
X410616D02*
D03*
X412584D02*
D03*
X414553D02*
D03*
X416521D02*
D03*
X418490D02*
D03*
X420458D02*
D03*
X422427D02*
D03*
X424395D02*
D03*
X426364D02*
D03*
X428332D02*
D03*
X430301D02*
D03*
X432269D02*
D03*
X434238D02*
D03*
X436206D02*
D03*
X438175D02*
D03*
X440143D02*
D03*
X236399Y151882D02*
D03*
X234430D02*
D03*
X232462D02*
D03*
X230493D02*
D03*
X228525D02*
D03*
X226556D02*
D03*
X224588D02*
D03*
X222620D02*
D03*
X220651D02*
D03*
X218683D02*
D03*
X216714D02*
D03*
X214745D02*
D03*
X212777D02*
D03*
X210808D02*
D03*
X208840D02*
D03*
X206872D02*
D03*
X204903D02*
D03*
X202935D02*
D03*
X200966D02*
D03*
X198998D02*
D03*
X197029D02*
D03*
X195061D02*
D03*
X193092D02*
D03*
X191124D02*
D03*
X189155D02*
D03*
X187187D02*
D03*
X185218D02*
D03*
X183250D02*
D03*
Y181409D02*
D03*
X185218Y181382D02*
D03*
X187187Y181409D02*
D03*
X189155D02*
D03*
X191124D02*
D03*
X193092D02*
D03*
X195061D02*
D03*
X197029D02*
D03*
X198998D02*
D03*
X200966D02*
D03*
X202935D02*
D03*
X204903D02*
D03*
X206872D02*
D03*
X208840D02*
D03*
X210809D02*
D03*
X212777D02*
D03*
X214746D02*
D03*
X216714D02*
D03*
X218683D02*
D03*
X220651D02*
D03*
X222620D02*
D03*
X224588D02*
D03*
X226557D02*
D03*
X228525D02*
D03*
X230494D02*
D03*
X232462D02*
D03*
X234431D02*
D03*
X236399D02*
D03*
D162*
X106067Y207000D02*
D03*
X126933D02*
D03*
D163*
X161587Y189362D02*
D03*
Y194087D02*
D03*
X147413Y179913D02*
D03*
X161587D02*
D03*
X156862Y189362D02*
D03*
Y194087D02*
D03*
Y184638D02*
D03*
Y179913D02*
D03*
X147413Y189362D02*
D03*
X152138D02*
D03*
Y179913D02*
D03*
X147413Y194087D02*
D03*
X152138D02*
D03*
X161587Y184638D02*
D03*
X152138D02*
D03*
X147413D02*
D03*
M02*
