M48
;Layer_Color=9474304
;FILE_FORMAT=4:4
METRIC,LZ
;TYPE=PLATED
T1F00S00C0.2032
T2F00S00C0.2540
T3F00S00C0.2794
T4F00S00C0.3048
T5F00S00C0.3300
T6F00S00C0.3302
T7F00S00C0.3810
T8F00S00C0.5080
T9F00S00C0.7620
T10F00S00C0.9000
T11F00S00C1.0160
T12F00S00C1.7780
T13F00S00C2.0000
T14F00S00C3.2004
%
T01
X0030226Y0033909
X0035179Y0036703
X00351608Y00390671
X0039243Y0038885
X0040386Y00392338
X0042926Y0038989
X0043307Y0036576
X00480454Y00374256
X00500454Y00369644
X00505454Y00365766
X00510454Y00362036
X00515454Y00365926
X00520454Y00369816
X00525454Y00373054
X00545453Y00374003
X00555453Y00374187
X00560453Y00371223
X00565453Y00374953
X00571853Y0036703
X00580453Y00370903
X0058801Y0037084
X0057658Y0032131
X00610076
X0065151Y00328588
X0078867Y0037846
Y0038354
Y0038862
X0049657Y0036322
X0086868Y0038735
X009017Y0034544
X0095185Y0034228
X00959795
X0096139Y003937
X0095631
X0096774
X0097409
X00997964Y00375246
X0101219Y0036576
X01017964Y00370634
X01022964Y00366756
X01027964Y00363754
X01032964Y00366916
X01037964Y00370806
X01042964Y00374044
X01062963Y00374994
X01072963Y00375177
X01077963Y00372213
X01082963Y00375943
X01092963Y00376427
X01097963Y00372697
X01102963Y00376523
X01105012Y00338758
X010922Y0033909
X0105537Y0032258
X0121539Y0035306
X012065Y0037211
X0120904Y0059944
X0121412Y0059563
X0124333Y0061976
X0109601Y0059817
X0103759Y005969
X0102997Y0059817
X0100584Y0061341
X0099568Y0062357
X0096901Y0059944
X0093218Y005969
X0092202
X0091567Y0059817
X0089916Y005969
X0086741
X0085852Y0061722
X0085217Y0062357
X0084074Y0061849
X0080772
X0079375Y0058039
X0084328Y0057531
X0085725Y005715
X0085598Y0055753
X0084963Y0055245
X0082296Y0055118
X0083058Y0051308
X0084582Y0051181
Y0049149
X0085598Y0048768
X00841648Y00473348
X0082383Y0046823
X0081383Y0046839
X0081407Y0047498
X0080137
X0080383Y0046855
X0079883Y0046482
X0079375Y0042291
X008382Y0042672
X0084582Y0042037
X0089408Y0046101
X0089916Y0048641
Y0049697
X0090043Y0050419
X0089122Y0050197
X00888036Y00506688
X0093091Y0050419
X00938087Y00504416
X0094361
X0094996
X0093091Y0049657
Y0048514
Y0047244
X0093345Y0046482
X00940522
X0094615
X0095123
X0098298Y00472472
X0100711Y0047625
X01017964
X01022964Y00473096
X01032964Y00473256
X01037964Y00477228
X01047964Y00473496
X01057964Y00473656
X0106299Y00477228
X01072964Y00473524
X0107315Y0049149
X0109093Y004953
X0111633Y0050292
X0103124
X01012964Y0047117
X009144Y0047371
X0081661Y0049657
X00866973Y00633222
X0086614Y0063881
X00841142Y0069088
X0095504Y0075692
X0109855Y00762
X0110236Y0076962
X011176
X0112268Y0077851
X0111252Y0069977
X007747Y0068199
X0071628Y0067691
Y0066929
X0074295Y0062484
X0074231Y0056197
X0074803Y0056515
X007493Y005588
X0077343Y0057023
X0074422Y0052324
X0074549Y0051689
X0074041Y0051308
X0074144Y0050697
X0074208Y0049697
X0074168Y0048514
Y0047244
X0073621Y0046697
X0077383Y0046776
X0078883Y0046466
X0078486Y0041656
X0070739Y0045339
X0061214Y0048641
X0060706Y004953
X0060198
X005969
X0059247Y0049276
X0058866Y0048895
X0056896Y0050165
X00555454Y00474516
X00550624Y00471443
X0054102Y0047371
X00545454Y00478166
X0053086Y0047371
X00520454Y00473464
X0051562Y0047752
X0050546Y0047371
X004953
X00490454Y00479206
X00483908Y00492737
X00518142Y0049968
X00527803Y00499968
X0045974Y0047244
X0045847Y0044831
X004445Y0045212
X0042545Y0046101
X0042799Y0047879
Y0048514
Y0049784
X0047436Y0057212
X0050292Y0059436
X0045974Y0063881
X0046482Y0065278
X0047752Y0073533
X0059182Y0078486
X0059817Y006477
X0058039Y0057023
Y0056261
X0072009Y0076962
X003429Y0057785
X00340677Y00555792
X00339212Y0054102
X003429Y0051943
X003556Y0049657
X0035814Y0046482
X00361296Y0045466
X00281994Y0043434
X0027305Y0043815
X0022733
X0022987Y004699
X0026543Y00508
X00266068Y00515938
X0026543Y00522287
Y00528955
X0026575Y0053594
X0028956Y0050546
X0030226Y0051562
X0029972Y0056261
X0028702Y0060706
X0020955Y006985
X0025019Y0040005
X0058293Y008001
X0081915Y0079756
X008509Y0080899
X0099568Y0080391
X0099187Y0079756
X0099949Y0079375
X0106426Y0079629
X011811Y0080772
X0118999Y0081026
X0120777
X0122428Y008043
X0122936Y008001
T02
X0083566Y0034036
Y00346583
Y0035306
T03
X0071755Y0035179
X00724535
X0101473Y0033782
X01020768
X01026639
X0103251
X0032385Y0069088
Y006985
X0031623
Y0069088
T04
X0047117Y0036703
X0047752Y0036449
X0048387Y0036703
X0110617Y0068199
Y0068834
Y0069596
Y0070358
Y00710473
X0030861Y0057023
X00302091
X00295571
X0028956
T05
X0039843Y0045698
X0041043
Y0046898
Y0048098
Y0049298
X0039843
Y0048098
Y0046898
X0038643
Y0048098
X0037443
Y0046898
Y0045698
X0038643
Y0049298
X0037443
T06
X00985932Y0040455
Y0041755
Y0043055
Y0044355
X00998932
X01011932
X01024932
X01037932
X01050932
X01063932
X01076932
X01089932
X01102932
X01115932
Y0043055
X01102932
X01089932
X01076932
X01063932
X01050932
X01037932
Y0041755
X01050932
X01063932
X01076932
X01089932
X01102932
X01115932
Y0040455
X01102932
X01089932
X01076932
X01063932
X01050932
X01037932
X01024932
Y0041755
Y0043055
X01011932
X00998932
Y0041755
X01011932
Y0040455
X00998932
X00598422Y0040356
Y0041656
Y0042956
Y0044256
X00585422
X00572422
X00559422
X00546422
X00533422
X00520422
X00507422
X00494422
X00481422
X00468422
Y0042956
X00481422
X00494422
X00507422
X00520422
X00533422
X00546422
X00559422
X00572422
X00585422
Y0041656
X00572422
X00559422
X00546422
X00533422
X00520422
X00507422
X00494422
X00481422
X00468422
Y0040356
X00481422
X00494422
X00507422
X00520422
X00533422
X00546422
X00559422
X00572422
X00585422
T07
X00596072Y003359
T08
X0051689Y0032512
X0052705
X0053594
X0072263Y0033655
T09
X0042799Y0033147
T10
X00779145Y0070104
Y0072644
Y0075184
T11
X0034544Y0037592
X0114808Y0035687
X00603704Y005715
X004445Y0072771
Y0074549
X0032258Y0047752
T12
X0033782Y0076581
T13
X0014732Y0033528
X0129286
X0014732Y0091567
X0129286
T14
X0027559Y0037719
X0031623
X0129032Y0055753
X0118053Y00747268
X0104972
X0092145Y00745998
X0065405Y0073533
X0052959Y0073406
X00401574Y00738288
X001524Y0055753
Y0087376
X0019685Y0087884
Y0083947
X0129032Y0087376
M30
