G04 Layer_Color=8388736*
%FSLAX25Y25*%
%MOIN*%
G70*
G01*
G75*
%ADD68C,0.01800*%
%ADD69C,0.05000*%
%ADD70C,0.02200*%
%ADD72C,0.02300*%
%ADD73C,0.02100*%
%ADD74C,0.02500*%
%ADD76C,0.02000*%
%ADD77C,0.03000*%
%ADD102R,0.09100X0.12600*%
%ADD103R,0.09800X0.06700*%
%ADD104R,0.12600X0.09100*%
%ADD105R,0.06700X0.09800*%
%ADD106R,0.05918X0.06902*%
%ADD107R,0.06706X0.05918*%
%ADD108R,0.05524X0.22060*%
%ADD109R,0.03950X0.05918*%
%ADD110R,0.05131X0.04737*%
%ADD111R,0.04737X0.05131*%
%ADD112R,0.04343X0.03950*%
%ADD113R,0.03950X0.04343*%
%ADD114C,0.03280*%
%ADD115R,0.08280X0.11430*%
%ADD116R,0.16548X0.03950*%
%ADD117R,0.04737X0.08674*%
%ADD118R,0.14579X0.10642*%
%ADD119R,0.05918X0.03950*%
%ADD120R,0.11036X0.08280*%
%ADD121R,0.05918X0.06706*%
%ADD122O,0.09068X0.01981*%
%ADD123O,0.01981X0.09068*%
%ADD124R,0.03950X0.10249*%
%ADD125R,0.11430X0.08280*%
%ADD126R,0.03950X0.04737*%
%ADD127R,0.02375X0.06115*%
%ADD128R,0.07887X0.08280*%
%ADD129R,0.08280X0.08280*%
%ADD130R,0.09068X0.07099*%
%ADD131R,0.03950X0.16548*%
%ADD132O,0.01784X0.03359*%
%ADD133R,0.18517X0.18517*%
%ADD134O,0.03359X0.01784*%
%ADD135O,0.03556X0.10642*%
%ADD136O,0.10642X0.03556*%
%ADD137R,0.08280X0.11036*%
%ADD138R,0.03950X0.02178*%
%ADD139R,0.02178X0.03950*%
%ADD140R,0.11430X0.11036*%
%ADD141C,0.15800*%
%ADD142R,0.06706X0.06706*%
%ADD143C,0.06706*%
%ADD144C,0.12611*%
%ADD145C,0.02600*%
%ADD146C,0.05800*%
%ADD147C,0.04800*%
%ADD148C,0.08800*%
D68*
X104751Y203125D02*
D03*
X104500Y200000D02*
D03*
Y208250D02*
D03*
Y205625D02*
D03*
X235000Y195000D02*
D03*
X231756Y192500D02*
D03*
X233256Y194000D02*
D03*
X237000Y195000D02*
D03*
X383500Y155000D02*
D03*
X381000D02*
D03*
X378500D02*
D03*
X377872Y134756D02*
D03*
X374744D02*
D03*
X310500Y153000D02*
D03*
Y151000D02*
D03*
X372500Y183000D02*
D03*
X374500D02*
D03*
X370284D02*
D03*
X374000Y198589D02*
D03*
X371500D02*
D03*
X369326D02*
D03*
X104626Y211000D02*
D03*
D69*
X452000Y140500D02*
D03*
X127000Y188000D02*
D03*
X136000Y148000D02*
D03*
D70*
X435500Y279714D02*
D03*
Y277000D02*
D03*
Y274000D02*
D03*
Y271000D02*
D03*
Y268500D02*
D03*
X185500Y144500D02*
D03*
X190500D02*
D03*
X118933Y224500D02*
D03*
X121500D02*
D03*
X116367D02*
D03*
X114000D02*
D03*
X188000Y143500D02*
D03*
D72*
X408635Y164390D02*
D03*
X439343Y174626D02*
D03*
X434225D02*
D03*
X429107D02*
D03*
X423989D02*
D03*
X418871D02*
D03*
X413753D02*
D03*
X408635D02*
D03*
X403517D02*
D03*
X398398D02*
D03*
X393280D02*
D03*
X388162D02*
D03*
X439343Y169508D02*
D03*
X434225D02*
D03*
X429107D02*
D03*
X423989D02*
D03*
X418871D02*
D03*
X413753D02*
D03*
X408635D02*
D03*
X403517D02*
D03*
X398398D02*
D03*
X393280D02*
D03*
X388162D02*
D03*
X439343Y164390D02*
D03*
X434225D02*
D03*
X429107D02*
D03*
X423989D02*
D03*
X418871D02*
D03*
X413753D02*
D03*
X403517D02*
D03*
X398398D02*
D03*
X393280D02*
D03*
X388162D02*
D03*
X439343Y159272D02*
D03*
X434225D02*
D03*
X429107D02*
D03*
X423989D02*
D03*
X418871D02*
D03*
X413753D02*
D03*
X408635D02*
D03*
X403517D02*
D03*
X398398D02*
D03*
X393280D02*
D03*
X388162D02*
D03*
X235599Y174236D02*
D03*
X230481D02*
D03*
X225363D02*
D03*
X220245D02*
D03*
X215127D02*
D03*
X210009D02*
D03*
X204891D02*
D03*
X199773D02*
D03*
X194654D02*
D03*
X189536D02*
D03*
X184418D02*
D03*
X235599Y169118D02*
D03*
X230481D02*
D03*
X225363D02*
D03*
X220245D02*
D03*
X215127D02*
D03*
X210009D02*
D03*
X204891D02*
D03*
X199773D02*
D03*
X194654D02*
D03*
X189536D02*
D03*
X184418D02*
D03*
X235599Y164000D02*
D03*
X230481D02*
D03*
X225363D02*
D03*
X220245D02*
D03*
X215127D02*
D03*
X210009D02*
D03*
X204891D02*
D03*
X199773D02*
D03*
X194654D02*
D03*
X189536D02*
D03*
X184418D02*
D03*
X235599Y158882D02*
D03*
X230481D02*
D03*
X225363D02*
D03*
X220245D02*
D03*
X215127D02*
D03*
X210009D02*
D03*
X204891D02*
D03*
X199773D02*
D03*
X194654D02*
D03*
X189536D02*
D03*
X184418D02*
D03*
D73*
X285250Y138500D02*
D03*
X406500Y133000D02*
D03*
X401877D02*
D03*
X404189D02*
D03*
X124500Y275000D02*
D03*
X399500Y133000D02*
D03*
X282500Y138500D02*
D03*
X127500Y275000D02*
D03*
Y272000D02*
D03*
X124500D02*
D03*
D74*
X234674Y132244D02*
D03*
D76*
X329000Y136450D02*
D03*
Y134000D02*
D03*
Y139000D02*
D03*
D77*
X203500Y128000D02*
D03*
X207500D02*
D03*
X211000D02*
D03*
X284500Y132500D02*
D03*
D102*
X201929Y271500D02*
D03*
X167129D02*
D03*
X345350Y358500D02*
D03*
X310550D02*
D03*
X385950D02*
D03*
X355950D02*
D03*
X473350Y358000D02*
D03*
X438550D02*
D03*
X315050Y134500D02*
D03*
X345050D02*
D03*
X274550D02*
D03*
X304550D02*
D03*
D103*
X452000Y277194D02*
D03*
Y231794D02*
D03*
D104*
X228000Y213392D02*
D03*
Y248192D02*
D03*
X492756Y313650D02*
D03*
Y348450D02*
D03*
X492501Y273049D02*
D03*
Y303049D02*
D03*
X492500Y232549D02*
D03*
Y262549D02*
D03*
Y192049D02*
D03*
Y222049D02*
D03*
Y151549D02*
D03*
Y181549D02*
D03*
X76000Y245207D02*
D03*
Y289907D02*
D03*
X118500Y215150D02*
D03*
X118500Y249950D02*
D03*
D105*
X413550Y322000D02*
D03*
X458950D02*
D03*
X136050Y137500D02*
D03*
X181450D02*
D03*
D106*
X221500Y262500D02*
D03*
X239217D02*
D03*
Y293799D02*
D03*
X221500D02*
D03*
D107*
X181000Y294000D02*
D03*
Y286520D02*
D03*
X270000Y225244D02*
D03*
Y232724D02*
D03*
X140000Y290500D02*
D03*
Y283020D02*
D03*
X255500Y175264D02*
D03*
Y182744D02*
D03*
X273500Y176264D02*
D03*
Y183744D02*
D03*
X396862Y317520D02*
D03*
Y325000D02*
D03*
X470500Y144020D02*
D03*
Y151500D02*
D03*
X460000Y148480D02*
D03*
Y141000D02*
D03*
X130500Y158020D02*
D03*
Y165500D02*
D03*
X169000Y228520D02*
D03*
Y236000D02*
D03*
X193000Y138480D02*
D03*
Y131000D02*
D03*
D108*
X194500Y355515D02*
D03*
Y309437D02*
D03*
X120000Y355515D02*
D03*
Y309437D02*
D03*
D109*
X182000Y261000D02*
D03*
X177079D02*
D03*
X186900D02*
D03*
X191821D02*
D03*
X335243Y348000D02*
D03*
X325421D02*
D03*
X330321D02*
D03*
X320500D02*
D03*
X375842Y348000D02*
D03*
X370921D02*
D03*
X366000D02*
D03*
X453421Y347500D02*
D03*
X448500D02*
D03*
X458321D02*
D03*
X463242D02*
D03*
X335000Y145000D02*
D03*
X330079D02*
D03*
X325157D02*
D03*
X294500D02*
D03*
X289579D02*
D03*
X284658D02*
D03*
D110*
X225500Y140500D02*
D03*
X218807D02*
D03*
X353500Y132500D02*
D03*
X360193D02*
D03*
X267500Y199000D02*
D03*
X274193D02*
D03*
X202807Y254000D02*
D03*
X209500D02*
D03*
X364000Y174744D02*
D03*
X357307D02*
D03*
D111*
X349500Y253000D02*
D03*
Y246307D02*
D03*
D112*
X289500Y155756D02*
D03*
Y150244D02*
D03*
X294500Y155756D02*
D03*
Y150244D02*
D03*
X185000Y189756D02*
D03*
Y184244D02*
D03*
X168256Y222992D02*
D03*
Y217480D02*
D03*
X427500Y305256D02*
D03*
Y299744D02*
D03*
X294000Y167756D02*
D03*
Y162244D02*
D03*
X232000Y337244D02*
D03*
Y342756D02*
D03*
X194000Y286744D02*
D03*
Y292256D02*
D03*
X210000Y225756D02*
D03*
Y220244D02*
D03*
X203000Y226256D02*
D03*
Y220744D02*
D03*
X267000Y178988D02*
D03*
Y184500D02*
D03*
X262000Y177988D02*
D03*
Y183500D02*
D03*
X246500Y214500D02*
D03*
Y208988D02*
D03*
X246500Y221488D02*
D03*
Y227000D02*
D03*
X271000Y238488D02*
D03*
Y244000D02*
D03*
X358000Y277744D02*
D03*
Y283256D02*
D03*
X351000Y289000D02*
D03*
Y283488D02*
D03*
X346000Y289256D02*
D03*
Y283744D02*
D03*
X341000Y289000D02*
D03*
Y283488D02*
D03*
X345500Y234244D02*
D03*
Y239756D02*
D03*
X300500Y247756D02*
D03*
Y242244D02*
D03*
X325000Y342256D02*
D03*
Y336744D02*
D03*
X330000Y342256D02*
D03*
Y336744D02*
D03*
X357500Y333988D02*
D03*
Y339500D02*
D03*
X453500Y341256D02*
D03*
Y335744D02*
D03*
X459000Y341256D02*
D03*
Y335744D02*
D03*
X454000Y204744D02*
D03*
Y210256D02*
D03*
Y187244D02*
D03*
Y192756D02*
D03*
X427500Y141756D02*
D03*
Y136244D02*
D03*
X432750Y141756D02*
D03*
Y136244D02*
D03*
X438000Y141756D02*
D03*
Y136244D02*
D03*
X330500Y155756D02*
D03*
Y150244D02*
D03*
X335500Y155756D02*
D03*
Y150244D02*
D03*
X222750Y135256D02*
D03*
Y129744D02*
D03*
X217000D02*
D03*
Y135256D02*
D03*
X180500Y165244D02*
D03*
Y170756D02*
D03*
X174000Y165256D02*
D03*
Y159744D02*
D03*
X165000Y160256D02*
D03*
Y154744D02*
D03*
X141500Y159756D02*
D03*
Y154244D02*
D03*
X161000Y211744D02*
D03*
Y217256D02*
D03*
X180000Y207744D02*
D03*
Y213256D02*
D03*
X187744Y246008D02*
D03*
Y251520D02*
D03*
X92500Y260756D02*
D03*
Y255244D02*
D03*
X136750Y210744D02*
D03*
Y216256D02*
D03*
X131500D02*
D03*
Y210744D02*
D03*
X368000Y128244D02*
D03*
Y133756D02*
D03*
X236500Y326756D02*
D03*
Y321244D02*
D03*
X434500Y246000D02*
D03*
Y240488D02*
D03*
X420000Y128744D02*
D03*
Y134256D02*
D03*
X429000Y240488D02*
D03*
Y246000D02*
D03*
X142000Y210744D02*
D03*
Y216256D02*
D03*
X147500Y210744D02*
D03*
Y216256D02*
D03*
D113*
X196256Y181500D02*
D03*
X190744D02*
D03*
X130000Y205500D02*
D03*
X124488D02*
D03*
X450756Y299000D02*
D03*
X445244D02*
D03*
X450756Y304500D02*
D03*
X445244D02*
D03*
X377744Y170500D02*
D03*
X383256D02*
D03*
X383756Y176244D02*
D03*
X378244D02*
D03*
X383756Y181244D02*
D03*
X378244D02*
D03*
X378244Y186244D02*
D03*
X383756D02*
D03*
X378244Y191244D02*
D03*
X383756D02*
D03*
X378244Y196244D02*
D03*
X383756D02*
D03*
X383756Y201244D02*
D03*
X378244D02*
D03*
X383756Y206244D02*
D03*
X378244D02*
D03*
X378244Y211256D02*
D03*
X383756D02*
D03*
X378244Y216244D02*
D03*
X383756D02*
D03*
X363256Y207256D02*
D03*
X357744D02*
D03*
X363256Y201500D02*
D03*
X357744D02*
D03*
X363256Y196744D02*
D03*
X357744D02*
D03*
X363256Y191244D02*
D03*
X357744D02*
D03*
X363256Y185744D02*
D03*
X357744D02*
D03*
X363256Y180244D02*
D03*
X357744D02*
D03*
X273256Y204500D02*
D03*
X267744D02*
D03*
X273244Y193500D02*
D03*
X267732D02*
D03*
X255244Y240000D02*
D03*
X260756D02*
D03*
X260756Y235000D02*
D03*
X255244D02*
D03*
X257244Y247500D02*
D03*
X262756D02*
D03*
X293256Y242000D02*
D03*
X287744D02*
D03*
X244244Y302000D02*
D03*
X249756D02*
D03*
X269756Y301500D02*
D03*
X264244D02*
D03*
X333244Y256244D02*
D03*
X338756D02*
D03*
X365744Y323744D02*
D03*
X371256D02*
D03*
X379244D02*
D03*
X384756D02*
D03*
X476012Y328500D02*
D03*
X470500D02*
D03*
X476012Y333500D02*
D03*
X470500D02*
D03*
X470244Y278000D02*
D03*
X475756D02*
D03*
X470244Y283000D02*
D03*
X475756D02*
D03*
X470744Y252500D02*
D03*
X476256D02*
D03*
X470744Y247500D02*
D03*
X476256D02*
D03*
X470744Y207000D02*
D03*
X476256D02*
D03*
X470744Y212000D02*
D03*
X476256D02*
D03*
X466244Y167000D02*
D03*
X471756D02*
D03*
X466244Y162000D02*
D03*
X471756D02*
D03*
X357756Y139000D02*
D03*
X352244D02*
D03*
X352244Y145500D02*
D03*
X357756D02*
D03*
X344244Y166000D02*
D03*
X349756D02*
D03*
X270744Y152000D02*
D03*
X276256D02*
D03*
X153256Y159500D02*
D03*
X147744D02*
D03*
X127256Y129000D02*
D03*
X121744D02*
D03*
X186256Y196000D02*
D03*
X180744D02*
D03*
X186256Y202000D02*
D03*
X180744D02*
D03*
X202756Y246500D02*
D03*
X197244D02*
D03*
X159256Y237000D02*
D03*
X153744D02*
D03*
X260256Y134000D02*
D03*
X254744D02*
D03*
X362744Y150000D02*
D03*
X368256D02*
D03*
X260256Y143500D02*
D03*
X254744D02*
D03*
X362744Y140000D02*
D03*
X368256D02*
D03*
X260256Y153500D02*
D03*
X254744D02*
D03*
X360244Y225256D02*
D03*
X365756D02*
D03*
X435256Y263744D02*
D03*
X429744D02*
D03*
X265256Y129000D02*
D03*
X259744D02*
D03*
X360244Y220256D02*
D03*
X365756D02*
D03*
D114*
X294500Y340000D02*
D03*
Y345000D02*
D03*
X289500Y340000D02*
D03*
Y345000D02*
D03*
X284500D02*
D03*
Y340000D02*
D03*
X294500Y330000D02*
D03*
Y335000D02*
D03*
Y325000D02*
D03*
X289500Y335000D02*
D03*
Y330000D02*
D03*
X279500Y340000D02*
D03*
Y345000D02*
D03*
X284500Y335000D02*
D03*
X274500Y340000D02*
D03*
Y345000D02*
D03*
X279500Y335000D02*
D03*
Y330000D02*
D03*
X274500Y335000D02*
D03*
X284500Y330000D02*
D03*
X269500D02*
D03*
X274500D02*
D03*
X294500Y320000D02*
D03*
X289500Y325000D02*
D03*
X284500Y320000D02*
D03*
Y325000D02*
D03*
X289500Y320000D02*
D03*
X294500Y315000D02*
D03*
X289500D02*
D03*
X294500Y310000D02*
D03*
X284500D02*
D03*
X289500D02*
D03*
X279500Y325000D02*
D03*
X274500D02*
D03*
X279500Y320000D02*
D03*
X269500D02*
D03*
X274500D02*
D03*
X284500Y315000D02*
D03*
X279500D02*
D03*
Y310000D02*
D03*
X274500Y315000D02*
D03*
Y310000D02*
D03*
X269500Y345000D02*
D03*
X264500D02*
D03*
X269500Y340000D02*
D03*
X254500D02*
D03*
X264500D02*
D03*
X269500Y335000D02*
D03*
X264500D02*
D03*
X269500Y325000D02*
D03*
X264500Y330000D02*
D03*
X259500Y325000D02*
D03*
X254500Y345000D02*
D03*
X249500D02*
D03*
Y340000D02*
D03*
X244500Y345000D02*
D03*
Y340000D02*
D03*
X254500Y335000D02*
D03*
X249500D02*
D03*
X254500Y325000D02*
D03*
X244500Y335000D02*
D03*
Y325000D02*
D03*
X264500Y320000D02*
D03*
Y325000D02*
D03*
X269500Y315000D02*
D03*
X259500Y320000D02*
D03*
X254500D02*
D03*
X264500Y315000D02*
D03*
Y310000D02*
D03*
X259500Y315000D02*
D03*
X269500Y310000D02*
D03*
X259500D02*
D03*
X249500Y320000D02*
D03*
Y325000D02*
D03*
X254500Y315000D02*
D03*
X244500Y320000D02*
D03*
X249500Y310000D02*
D03*
Y315000D02*
D03*
X254500Y310000D02*
D03*
X244500Y315000D02*
D03*
Y310000D02*
D03*
D115*
X289610Y357500D02*
D03*
X271500D02*
D03*
X446000Y220500D02*
D03*
X427890D02*
D03*
X415500Y232500D02*
D03*
X397390D02*
D03*
X415500Y219833D02*
D03*
X397390D02*
D03*
X415500Y207167D02*
D03*
X397390D02*
D03*
X415500Y194500D02*
D03*
X397390D02*
D03*
X156000Y249000D02*
D03*
X174110D02*
D03*
X262000Y357500D02*
D03*
X243890D02*
D03*
D116*
X447000Y269244D02*
D03*
Y263339D02*
D03*
Y257433D02*
D03*
Y251528D02*
D03*
Y245622D02*
D03*
Y239717D02*
D03*
D117*
X443756Y207500D02*
D03*
X434701D02*
D03*
X425646D02*
D03*
D118*
X434701Y183091D02*
D03*
D119*
X217500Y233321D02*
D03*
Y238243D02*
D03*
Y228421D02*
D03*
Y223500D02*
D03*
X482256Y333579D02*
D03*
Y338500D02*
D03*
Y328679D02*
D03*
Y323758D02*
D03*
X482000Y293000D02*
D03*
Y288079D02*
D03*
Y283157D02*
D03*
X482000Y252500D02*
D03*
Y247579D02*
D03*
Y242657D02*
D03*
Y212000D02*
D03*
Y207079D02*
D03*
Y202157D02*
D03*
X482000Y171500D02*
D03*
Y166579D02*
D03*
Y161658D02*
D03*
X86500Y260179D02*
D03*
Y255258D02*
D03*
Y274942D02*
D03*
Y279842D02*
D03*
Y270000D02*
D03*
Y265079D02*
D03*
X108000Y230179D02*
D03*
Y235079D02*
D03*
Y240000D02*
D03*
Y225257D02*
D03*
D120*
X256500Y227244D02*
D03*
Y210315D02*
D03*
D121*
X239520Y238500D02*
D03*
X247000D02*
D03*
X244020Y248500D02*
D03*
X251500D02*
D03*
X381890Y149912D02*
D03*
X374409D02*
D03*
X381890Y129912D02*
D03*
X374409D02*
D03*
X381890Y139912D02*
D03*
X374409D02*
D03*
X241000Y152344D02*
D03*
X248480D02*
D03*
X241000Y142344D02*
D03*
X248480D02*
D03*
X241000Y132344D02*
D03*
X248480D02*
D03*
X121020Y137500D02*
D03*
X128500D02*
D03*
X160980Y230000D02*
D03*
X153500D02*
D03*
X444980Y285500D02*
D03*
X437500D02*
D03*
D122*
X344421Y219280D02*
D03*
Y221248D02*
D03*
X284579Y229122D02*
D03*
Y227153D02*
D03*
Y225185D02*
D03*
Y223217D02*
D03*
Y221248D02*
D03*
Y219280D02*
D03*
Y217311D02*
D03*
Y215342D02*
D03*
Y213374D02*
D03*
Y211405D02*
D03*
Y209437D02*
D03*
Y207469D02*
D03*
Y205500D02*
D03*
Y203532D02*
D03*
Y201563D02*
D03*
Y199594D02*
D03*
Y197626D02*
D03*
Y195658D02*
D03*
Y193689D02*
D03*
Y191720D02*
D03*
Y189752D02*
D03*
Y187784D02*
D03*
Y185815D02*
D03*
Y183846D02*
D03*
Y181878D02*
D03*
X344421D02*
D03*
Y183846D02*
D03*
Y185815D02*
D03*
Y187784D02*
D03*
Y189752D02*
D03*
Y191720D02*
D03*
Y193689D02*
D03*
Y195658D02*
D03*
Y197626D02*
D03*
Y199594D02*
D03*
Y201563D02*
D03*
Y203532D02*
D03*
Y205500D02*
D03*
Y207469D02*
D03*
Y209437D02*
D03*
Y211405D02*
D03*
Y213374D02*
D03*
Y215342D02*
D03*
Y217311D02*
D03*
Y223217D02*
D03*
Y225185D02*
D03*
Y227153D02*
D03*
Y229122D02*
D03*
D123*
X290878Y175579D02*
D03*
X292846D02*
D03*
X294815D02*
D03*
X296783D02*
D03*
X298752D02*
D03*
X300721D02*
D03*
X302689D02*
D03*
X304658D02*
D03*
X306626D02*
D03*
X308594D02*
D03*
X310563D02*
D03*
X312531D02*
D03*
X314500D02*
D03*
X316469D02*
D03*
X318437D02*
D03*
X320406D02*
D03*
X322374D02*
D03*
X324342D02*
D03*
X326311D02*
D03*
X328279D02*
D03*
X330248D02*
D03*
X332217D02*
D03*
X334185D02*
D03*
X336154D02*
D03*
X338122D02*
D03*
Y235421D02*
D03*
X336154D02*
D03*
X334185D02*
D03*
X332217D02*
D03*
X330248D02*
D03*
X328279D02*
D03*
X326311D02*
D03*
X324342D02*
D03*
X322374D02*
D03*
X320406D02*
D03*
X318437D02*
D03*
X316469D02*
D03*
X314500D02*
D03*
X312531D02*
D03*
X310563D02*
D03*
X308594D02*
D03*
X306626D02*
D03*
X304658D02*
D03*
X302689D02*
D03*
X300721D02*
D03*
X298752D02*
D03*
X296783D02*
D03*
X294815D02*
D03*
X292846D02*
D03*
X290878D02*
D03*
D124*
X272400Y274300D02*
D03*
Y258300D02*
D03*
X267400Y274500D02*
D03*
Y258300D02*
D03*
X262400Y274300D02*
D03*
Y258300D02*
D03*
X257400Y274300D02*
D03*
Y258300D02*
D03*
X252400Y274300D02*
D03*
Y258300D02*
D03*
D125*
X307000Y316000D02*
D03*
Y334110D02*
D03*
X243000Y167500D02*
D03*
Y185610D02*
D03*
X230000Y203500D02*
D03*
Y185390D02*
D03*
X141500Y248500D02*
D03*
Y230390D02*
D03*
D126*
X379000Y329244D02*
D03*
X386480D02*
D03*
X382740Y339087D02*
D03*
X365000Y329244D02*
D03*
X372480D02*
D03*
X368740Y339087D02*
D03*
D127*
X412000Y340968D02*
D03*
X414559D02*
D03*
X409441D02*
D03*
X406882D02*
D03*
X417118D02*
D03*
D128*
X397039Y351500D02*
D03*
X426961D02*
D03*
D129*
X407276D02*
D03*
X416724D02*
D03*
D130*
X399795Y341461D02*
D03*
X424205D02*
D03*
D131*
X421500Y317000D02*
D03*
X427406D02*
D03*
X433311D02*
D03*
X439217D02*
D03*
X445122D02*
D03*
X451027D02*
D03*
X143973Y142500D02*
D03*
X149878D02*
D03*
X167595D02*
D03*
X161689D02*
D03*
X155783D02*
D03*
X173500D02*
D03*
D132*
X155484Y204618D02*
D03*
X169264Y169382D02*
D03*
X167295D02*
D03*
X165327D02*
D03*
X163358D02*
D03*
X161390D02*
D03*
X159421D02*
D03*
X157453D02*
D03*
X155484D02*
D03*
X153516D02*
D03*
X151547D02*
D03*
X149579D02*
D03*
X147610D02*
D03*
X145642D02*
D03*
X143673D02*
D03*
X141705D02*
D03*
X139736D02*
D03*
Y204618D02*
D03*
X141705D02*
D03*
X143673D02*
D03*
X145642D02*
D03*
X147610D02*
D03*
X149579D02*
D03*
X151547D02*
D03*
X153516D02*
D03*
X159421D02*
D03*
X161390D02*
D03*
X163358D02*
D03*
X165327D02*
D03*
X167295D02*
D03*
X169264D02*
D03*
X157453D02*
D03*
D133*
X154500Y187000D02*
D03*
D134*
X172118Y201764D02*
D03*
Y199795D02*
D03*
Y197827D02*
D03*
Y195858D02*
D03*
Y193890D02*
D03*
Y191921D02*
D03*
Y189953D02*
D03*
Y187984D02*
D03*
Y186016D02*
D03*
Y184047D02*
D03*
Y182079D02*
D03*
Y180110D02*
D03*
Y178142D02*
D03*
Y176173D02*
D03*
Y174205D02*
D03*
Y172236D02*
D03*
X136882D02*
D03*
Y174205D02*
D03*
Y176173D02*
D03*
Y178142D02*
D03*
Y180110D02*
D03*
Y182079D02*
D03*
Y184047D02*
D03*
Y186016D02*
D03*
Y187984D02*
D03*
Y189953D02*
D03*
Y191921D02*
D03*
Y193890D02*
D03*
Y195858D02*
D03*
Y197827D02*
D03*
Y199795D02*
D03*
Y201764D02*
D03*
D135*
X72000Y172354D02*
D03*
X77000D02*
D03*
X82000D02*
D03*
X87000D02*
D03*
X72000Y191646D02*
D03*
X77000D02*
D03*
X82000D02*
D03*
X87000D02*
D03*
D136*
X215146Y192000D02*
D03*
Y197000D02*
D03*
Y202000D02*
D03*
Y207000D02*
D03*
X195854Y192000D02*
D03*
Y197000D02*
D03*
Y202000D02*
D03*
Y207000D02*
D03*
D137*
X205244Y235764D02*
D03*
X188315D02*
D03*
D138*
X350000Y264449D02*
D03*
Y266417D02*
D03*
Y268386D02*
D03*
Y270354D02*
D03*
Y272323D02*
D03*
Y274291D02*
D03*
X334252Y274291D02*
D03*
Y272323D02*
D03*
Y270354D02*
D03*
Y268386D02*
D03*
Y266417D02*
D03*
Y264449D02*
D03*
D139*
X337205Y261496D02*
D03*
X339173D02*
D03*
X341142D02*
D03*
X343110D02*
D03*
X345079D02*
D03*
X347047D02*
D03*
X347047Y277244D02*
D03*
X345079D02*
D03*
X343110D02*
D03*
X341142D02*
D03*
X339173D02*
D03*
X337205D02*
D03*
D140*
X342126Y269370D02*
D03*
D141*
X508000Y219500D02*
D03*
Y344000D02*
D03*
X60000Y219500D02*
D03*
Y344000D02*
D03*
X77500Y330500D02*
D03*
Y346000D02*
D03*
X362776Y293700D02*
D03*
X413276Y294200D02*
D03*
X464776D02*
D03*
X257500Y289500D02*
D03*
X208500Y289000D02*
D03*
X158100Y290665D02*
D03*
X124500Y148500D02*
D03*
X108500D02*
D03*
D142*
X306750Y296000D02*
D03*
D143*
Y286000D02*
D03*
Y276000D02*
D03*
D144*
X509000Y360500D02*
D03*
X58000D02*
D03*
Y132000D02*
D03*
X509000D02*
D03*
D145*
X224000Y197500D02*
D03*
X98500Y157500D02*
D03*
X107500Y172500D02*
D03*
X168500Y196000D02*
D03*
X468500Y319000D02*
D03*
X367500Y183000D02*
D03*
X231500Y146000D02*
D03*
X135000Y204500D02*
D03*
X154500Y153090D02*
D03*
X141000Y183000D02*
D03*
X142243Y179000D02*
D03*
X168500Y188500D02*
D03*
Y191000D02*
D03*
X366500Y198500D02*
D03*
Y195500D02*
D03*
X354000Y195658D02*
D03*
X354500Y198500D02*
D03*
X435044Y133369D02*
D03*
X430000Y133500D02*
D03*
X195500Y143000D02*
D03*
X225139Y144500D02*
D03*
X398805Y185500D02*
D03*
X398500Y144000D02*
D03*
X228500Y224500D02*
D03*
Y221500D02*
D03*
X190515Y193991D02*
D03*
X203993Y196725D02*
D03*
X203000Y188000D02*
D03*
X199000Y186500D02*
D03*
X195000D02*
D03*
X207797Y196838D02*
D03*
X239000Y195000D02*
D03*
X278500Y178500D02*
D03*
X415500Y127000D02*
D03*
X355000Y136000D02*
D03*
X337000Y192000D02*
D03*
X333000Y193500D02*
D03*
X119000Y203000D02*
D03*
X118000Y221500D02*
D03*
X135000Y227500D02*
D03*
X114000Y199000D02*
D03*
X204903Y186403D02*
D03*
X193092Y188664D02*
D03*
X289846Y183846D02*
D03*
X241000Y191500D02*
D03*
X216781Y185608D02*
D03*
X218683Y186817D02*
D03*
X213000Y186500D02*
D03*
X209000D02*
D03*
X183000Y257000D02*
D03*
X181000Y251500D02*
D03*
X229500Y315000D02*
D03*
X233000Y309000D02*
D03*
X159000Y154464D02*
D03*
X175000Y178000D02*
D03*
X180500Y176500D02*
D03*
X167500Y181500D02*
D03*
X181000Y186000D02*
D03*
X169000Y153500D02*
D03*
X170500Y144000D02*
D03*
X376500Y155000D02*
D03*
X214746Y188254D02*
D03*
X235500Y255000D02*
D03*
X293000Y206000D02*
D03*
X310500Y149000D02*
D03*
X292000Y191000D02*
D03*
X439500Y198000D02*
D03*
X475500Y319000D02*
D03*
X482000Y316654D02*
D03*
X419000Y313500D02*
D03*
X392000Y316500D02*
D03*
X335000Y318500D02*
D03*
X322500Y314000D02*
D03*
X240187Y126500D02*
D03*
X227000D02*
D03*
X429500Y195000D02*
D03*
X416521Y186479D02*
D03*
X422427Y186427D02*
D03*
X422500Y193500D02*
D03*
X418500Y187885D02*
D03*
X412584Y186416D02*
D03*
X408647Y187885D02*
D03*
X406679Y186321D02*
D03*
X402742Y186258D02*
D03*
X400773Y187500D02*
D03*
X396500D02*
D03*
X406000Y198000D02*
D03*
X387000Y186012D02*
D03*
X408500Y235000D02*
D03*
X396000Y241500D02*
D03*
X392000Y245500D02*
D03*
X393500Y312500D02*
D03*
X291500Y202000D02*
D03*
X475000Y146500D02*
D03*
X478500Y139000D02*
D03*
X256500Y129365D02*
D03*
X376000Y298000D02*
D03*
X341500Y235000D02*
D03*
X367000D02*
D03*
X335500Y245500D02*
D03*
X331158Y272000D02*
D03*
X363000Y235000D02*
D03*
X360500Y235500D02*
D03*
X341000Y251500D02*
D03*
X341328Y249300D02*
D03*
X354000Y235000D02*
D03*
X305000Y268500D02*
D03*
X342000Y152500D02*
D03*
X292158Y195658D02*
D03*
X292500Y246000D02*
D03*
X304658Y184158D02*
D03*
X140000Y195500D02*
D03*
X318000Y243500D02*
D03*
X333000Y165500D02*
D03*
X338000Y243000D02*
D03*
X282000Y263500D02*
D03*
Y266500D02*
D03*
X465000Y318000D02*
D03*
X349620Y199484D02*
D03*
X334500Y217500D02*
D03*
X350874Y197626D02*
D03*
X440000Y303000D02*
D03*
X405500Y235500D02*
D03*
X434000Y303000D02*
D03*
X431500Y235500D02*
D03*
X442000Y306500D02*
D03*
X360000Y186500D02*
D03*
X366500Y186000D02*
D03*
X354000Y191500D02*
D03*
X366500Y191000D02*
D03*
X312500Y228500D02*
D03*
X134125Y218816D02*
D03*
X478000Y234500D02*
D03*
X381500Y236000D02*
D03*
X390500Y314000D02*
D03*
X198000Y234000D02*
D03*
X291905Y199594D02*
D03*
X295000Y220000D02*
D03*
X294500Y222500D02*
D03*
X310563Y182937D02*
D03*
X292248Y221248D02*
D03*
X430301Y148199D02*
D03*
X432269Y146731D02*
D03*
X434237Y148238D02*
D03*
X228525Y146025D02*
D03*
X222620Y147619D02*
D03*
X220651Y146151D02*
D03*
X218683Y147318D02*
D03*
X214745Y147246D02*
D03*
X206872Y146871D02*
D03*
X204903Y145597D02*
D03*
X202935Y144065D02*
D03*
X200966Y142534D02*
D03*
X198998Y144002D02*
D03*
X197029Y145529D02*
D03*
X189155Y147345D02*
D03*
X392899Y147735D02*
D03*
X418490Y147635D02*
D03*
X422427Y147707D02*
D03*
X424395Y146541D02*
D03*
X426364Y148009D02*
D03*
X400773Y145919D02*
D03*
X402742Y144392D02*
D03*
X410616Y147261D02*
D03*
X408647Y145987D02*
D03*
X406679Y144455D02*
D03*
X404710Y143210D02*
D03*
X304500Y224500D02*
D03*
X324000Y217000D02*
D03*
X330000Y168000D02*
D03*
X352000Y181500D02*
D03*
X293500Y203500D02*
D03*
X312500Y166500D02*
D03*
X309000Y164000D02*
D03*
X186756Y225244D02*
D03*
X432500Y300000D02*
D03*
X476000Y236000D02*
D03*
X489500Y244000D02*
D03*
X484000Y315000D02*
D03*
X438000Y275500D02*
D03*
X292000Y186000D02*
D03*
X331000Y243500D02*
D03*
X314500Y183000D02*
D03*
X316469Y184468D02*
D03*
X315500Y187000D02*
D03*
X320406Y184406D02*
D03*
X324342Y184343D02*
D03*
X320500Y187000D02*
D03*
X321500Y195500D02*
D03*
X337500Y225000D02*
D03*
X337000Y219500D02*
D03*
X332000Y226500D02*
D03*
X113000Y239000D02*
D03*
X133548Y213000D02*
D03*
X111021Y171000D02*
D03*
X119000Y133500D02*
D03*
X138500Y144500D02*
D03*
X89500Y172500D02*
D03*
X138428Y153808D02*
D03*
X90500Y185000D02*
D03*
X188000Y289500D02*
D03*
X82500Y275000D02*
D03*
X283500Y303000D02*
D03*
X333000Y201500D02*
D03*
X327000Y202000D02*
D03*
X331358Y186357D02*
D03*
D146*
X237679Y225000D02*
D03*
X175000Y286500D02*
D03*
Y293500D02*
D03*
D147*
X168500Y130500D02*
D03*
D148*
X133000Y301500D02*
D03*
M02*
