%FSTAX23Y23*%
%MOIN*%
%SFA1B1*%

%IPPOS*%
%ADD47C,0.011810*%
%ADD96C,0.010000*%
%ADD97C,0.005910*%
%ADD98C,0.001180*%
%ADD99C,0.007870*%
%ADD100C,0.003940*%
%ADD101C,0.002000*%
%ADD164C,0.020000*%
%ADD165R,0.094490X0.031500*%
%LNninja_ecu_pcb-1*%
%LPD*%
G54D47*
X01053Y025D02*
X01309D01*
X01053Y02388D02*
Y025D01*
Y02388D02*
X01309D01*
Y025*
X03015Y0155D02*
X03271D01*
X03015D02*
Y01662D01*
X03271*
Y0155D02*
Y01662D01*
G54D96*
X00715Y02202D02*
X00766D01*
X00923Y02201D02*
X00975D01*
X00715Y01929D02*
Y02202D01*
Y01929D02*
X00766D01*
X00975Y01928D02*
Y02201D01*
X00923Y01928D02*
X00975D01*
X02513Y01788D02*
Y01958D01*
X02855Y01787D02*
Y01957D01*
X04553Y01813D02*
Y01983D01*
X04895Y01812D02*
Y01982D01*
X03418Y01813D02*
Y01983D01*
X0376Y01812D02*
Y01982D01*
X01378Y01788D02*
Y01958D01*
X0172Y01787D02*
Y01957D01*
G54D97*
X00671Y01927D02*
X00697D01*
X00684Y01914D02*
Y0194D01*
X03109Y02583D02*
Y02599D01*
X03101Y02591D02*
X03117D01*
X01316Y02623D02*
Y02639D01*
X01308Y02631D02*
X01324D01*
X01377Y0151D02*
Y01526D01*
X01369Y01518D02*
X01385D01*
X01377Y01383D02*
Y01399D01*
X01369Y01391D02*
X01385D01*
X02971Y01801D02*
X02987D01*
X02979Y01793D02*
Y01809D01*
X03156Y02618D02*
Y02634D01*
X03148Y02626D02*
X03164D01*
X01004Y02711D02*
Y02727D01*
X00996Y02719D02*
X01012D01*
X02994Y01386D02*
Y01402D01*
X02986Y01394D02*
X03002D01*
G54D98*
X01764Y01441D02*
X0177D01*
X01767Y01438D02*
Y01444D01*
X03799Y01411D02*
X03805D01*
X03802Y01408D02*
Y01414D01*
X01765Y01419D02*
X01771D01*
X01768Y01416D02*
Y01422D01*
X03825Y01389D02*
X03831D01*
X03828Y01386D02*
Y01392D01*
X0211Y01424D02*
X02116D01*
X02113Y01421D02*
Y01427D01*
X04145Y01429D02*
X04151D01*
X04148Y01426D02*
Y01432D01*
X01959Y01359D02*
Y01365D01*
X01956Y01362D02*
X01962D01*
X0395Y01391D02*
X03956D01*
X03953Y01388D02*
Y01394D01*
G54D99*
X03013Y02406D02*
Y02484D01*
X03116Y02406D02*
Y02484D01*
X01131Y02623D02*
X01209D01*
X01131Y02726D02*
X01209D01*
X01006Y0171D02*
Y01785D01*
X01093Y0171D02*
Y01785D01*
X01006Y0171D02*
X01093D01*
X01483Y01525D02*
X01562D01*
X01483Y01423D02*
X01562D01*
X01483Y01399D02*
X01562D01*
X01483Y01296D02*
X01562D01*
X02986Y01616D02*
Y01694D01*
X02883Y01616D02*
Y01694D01*
X02971Y02618D02*
X03049D01*
X02971Y02721D02*
X03049D01*
X00908Y02535D02*
Y02613D01*
X01011Y02535D02*
Y02613D01*
X031Y01401D02*
X03178D01*
X031Y01298D02*
X03178D01*
G54D100*
X03279Y02519D02*
X03286D01*
X03374Y0268D02*
X03381D01*
Y02515D02*
Y0268D01*
X03374Y02515D02*
X03381D01*
X03279Y0268D02*
X03286D01*
X03279Y02519D02*
Y0268D01*
Y02759D02*
X03286D01*
X03374Y0292D02*
X03381D01*
Y02755D02*
Y0292D01*
X03374Y02755D02*
X03381D01*
X03279Y0292D02*
X03286D01*
X03279Y02759D02*
Y0292D01*
X01075Y02764D02*
Y02771D01*
X00914Y02859D02*
Y02866D01*
X01079*
Y02859D02*
Y02866D01*
X00914Y02764D02*
Y02771D01*
Y02764D02*
X01075D01*
X01311Y02769D02*
Y02776D01*
X0115Y02864D02*
Y02871D01*
X01315*
Y02864D02*
Y02871D01*
X0115Y02769D02*
Y02776D01*
Y02769D02*
X01311D01*
G54D101*
X00925Y036D02*
X0094D01*
Y0359*
X00927Y03585D02*
X00925Y03582D01*
Y03577*
X00927Y03575*
X0093*
X00932Y03577*
Y0358*
Y03577*
X00935Y03575*
X00937*
X0094Y03577*
Y03582*
X00937Y03585*
X00942Y0357D02*
Y0356D01*
X00925Y03555D02*
X0094D01*
Y03547*
X00937Y03545*
X00927*
X00925Y03547*
Y03555*
X0094Y0354D02*
X00925D01*
Y03532*
X00927Y0353*
X00932*
X00935Y03532*
Y0354*
Y03535D02*
X0094Y0353D01*
Y03515D02*
Y03525D01*
X0093Y03515*
X00927*
X00925Y03517*
Y03522*
X00927Y03525*
X011Y02365D02*
Y02352D01*
X01097Y0235*
X01092*
X0109Y02352*
Y02365*
X01075D02*
X01085D01*
Y02357*
X0108Y0236*
X01077*
X01075Y02357*
Y02352*
X01077Y0235*
X01082*
X01085Y02352*
X0107Y02347D02*
X0106D01*
X01055Y02365D02*
Y0235D01*
X01047*
X01045Y02352*
Y02362*
X01047Y02365*
X01055*
X0104Y0235D02*
Y02365D01*
X01032*
X0103Y02362*
Y02357*
X01032Y02355*
X0104*
X01035D02*
X0103Y0235D01*
X01015D02*
X01025D01*
X01015Y0236*
Y02362*
X01017Y02365*
X01022*
X01025Y02362*
X0331Y01754D02*
Y01742D01*
X03307Y0174*
X03302*
X033Y01742*
Y01754*
X03285D02*
X03295D01*
Y01747*
X0329Y0175*
X03287*
X03285Y01747*
Y01742*
X03287Y0174*
X03292*
X03295Y01742*
X0328Y01737D02*
X0327D01*
X03265Y01754D02*
Y0174D01*
X03257*
X03255Y01742*
Y01752*
X03257Y01754*
X03265*
X0325Y0174D02*
Y01754D01*
X03242*
X0324Y01752*
Y01747*
X03242Y01745*
X0325*
X03245D02*
X0324Y0174D01*
X03235D02*
X0323D01*
X03232*
Y01754*
X03235Y01752*
X0247Y01534D02*
Y01522D01*
X02467Y0152*
X02462*
X0246Y01522*
Y01534*
X02445Y0152D02*
X02455D01*
X02445Y0153*
Y01532*
X02447Y01534*
X02452*
X02455Y01532*
X0244Y01517D02*
X0243D01*
X02425Y01534D02*
Y0152D01*
X02417*
X02415Y01522*
Y01532*
X02417Y01534*
X02425*
X0241Y0152D02*
Y01534D01*
X02402*
X024Y01532*
Y01527*
X02402Y01525*
X0241*
X02405D02*
X024Y0152D01*
X02385D02*
X02395D01*
X02385Y0153*
Y01532*
X02387Y01534*
X02392*
X02395Y01532*
X04409Y01891D02*
Y01879D01*
X04406Y01877*
X04401*
X04399Y01879*
Y01891*
X04384Y01877D02*
X04394D01*
X04384Y01887*
Y01889*
X04386Y01891*
X04391*
X04394Y01889*
X04379Y01874D02*
X04369D01*
X04364Y01891D02*
Y01877D01*
X04356*
X04354Y01879*
Y01889*
X04356Y01891*
X04364*
X04349Y01877D02*
Y01891D01*
X04341*
X04339Y01889*
Y01884*
X04341Y01882*
X04349*
X04344D02*
X04339Y01877D01*
X04334D02*
X04329D01*
X04331*
Y01891*
X04334Y01889*
X0288Y0188D02*
X02894D01*
Y01887*
X02892Y0189*
X02887*
X02885Y01887*
Y0188*
Y01885D02*
X0288Y0189D01*
X02892Y01894D02*
X02894Y01897D01*
Y01902*
X02892Y01904*
X0289*
X02887Y01902*
X02885Y01904*
X02882*
X0288Y01902*
Y01897*
X02882Y01894*
X02885*
X02887Y01897*
X0289Y01894*
X02892*
X02887Y01897D02*
Y01902D01*
X02894Y01919D02*
X02892Y01914D01*
X02887Y01909*
X02882*
X0288Y01912*
Y01917*
X02882Y01919*
X02885*
X02887Y01917*
Y01909*
X02877Y01924D02*
Y01934D01*
X02894Y01939D02*
Y01944D01*
Y01942*
X0288*
Y01939*
Y01944*
Y01952D02*
X02894D01*
Y01959*
X02892Y01962*
X02887*
X02885Y01959*
Y01952*
Y01957D02*
X0288Y01962D01*
X02894Y01977D02*
Y01967D01*
X02887*
Y01972*
Y01967*
X0288*
X02892Y01992D02*
X02894Y01989D01*
Y01984*
X02892Y01982*
X0289*
X02887Y01984*
Y01989*
X02885Y01992*
X02882*
X0288Y01989*
Y01984*
X02882Y01982*
X0288Y02007D02*
Y01997D01*
X0289Y02007*
X02892*
X02894Y02004*
Y01999*
X02892Y01997*
X04915Y01825D02*
X0493D01*
Y01832*
X04927Y01835*
X04922*
X0492Y01832*
Y01825*
Y0183D02*
X04915Y01835D01*
X04927Y0184D02*
X0493Y01842D01*
Y01847*
X04927Y01849*
X04925*
X04922Y01847*
X0492Y01849*
X04917*
X04915Y01847*
Y01842*
X04917Y0184*
X0492*
X04922Y01842*
X04925Y0184*
X04927*
X04922Y01842D02*
Y01847D01*
X0493Y01864D02*
X04927Y01859D01*
X04922Y01854*
X04917*
X04915Y01857*
Y01862*
X04917Y01864*
X0492*
X04922Y01862*
Y01854*
X04912Y01869D02*
Y01879D01*
X0493Y01884D02*
Y01889D01*
Y01887*
X04915*
Y01884*
Y01889*
Y01897D02*
X0493D01*
Y01904*
X04927Y01907*
X04922*
X0492Y01904*
Y01897*
Y01902D02*
X04915Y01907D01*
X0493Y01922D02*
Y01912D01*
X04922*
Y01917*
Y01912*
X04915*
X04927Y01937D02*
X0493Y01934D01*
Y01929*
X04927Y01927*
X04925*
X04922Y01929*
Y01934*
X0492Y01937*
X04917*
X04915Y01934*
Y01929*
X04917Y01927*
X04915Y01942D02*
Y01947D01*
Y01944*
X0493*
X04927Y01942*
X02837Y02967D02*
X02822D01*
Y0296*
X02825Y02957*
X0283*
X02832Y0296*
Y02967*
Y02962D02*
X02837Y02957D01*
X02825Y02952D02*
X02822Y0295D01*
Y02945*
X02825Y02942*
X02827*
X0283Y02945*
X02832Y02942*
X02835*
X02837Y02945*
Y0295*
X02835Y02952*
X02832*
X0283Y0295*
X02827Y02952*
X02825*
X0283Y0295D02*
Y02945D01*
X02825Y02937D02*
X02822Y02935D01*
Y0293*
X02825Y02927*
X02827*
X0283Y0293*
Y02932*
Y0293*
X02832Y02927*
X02835*
X02837Y0293*
Y02935*
X02835Y02937*
X0284Y02922D02*
Y02912D01*
X02822Y02907D02*
Y02902D01*
Y02905*
X02837*
Y02907*
Y02902*
Y02895D02*
X02822D01*
Y02887*
X02825Y02885*
X0283*
X02832Y02887*
Y02895*
Y0289D02*
X02837Y02885D01*
X02822Y0287D02*
Y0288D01*
X0283*
Y02875*
Y0288*
X02837*
X02825Y02855D02*
X02822Y02857D01*
Y02862*
X02825Y02865*
X02827*
X0283Y02862*
Y02857*
X02832Y02855*
X02835*
X02837Y02857*
Y02862*
X02835Y02865*
X02837Y0284D02*
Y0285D01*
X02827Y0284*
X02825*
X02822Y02842*
Y02847*
X02825Y0285*
X04965Y0289D02*
X04979D01*
Y02897*
X04977Y029*
X04972*
X0497Y02897*
Y0289*
Y02895D02*
X04965Y029D01*
X04977Y02904D02*
X04979Y02907D01*
Y02912*
X04977Y02914*
X04975*
X04972Y02912*
X0497Y02914*
X04967*
X04965Y02912*
Y02907*
X04967Y02904*
X0497*
X04972Y02907*
X04975Y02904*
X04977*
X04972Y02907D02*
Y02912D01*
X04977Y02919D02*
X04979Y02922D01*
Y02927*
X04977Y02929*
X04975*
X04972Y02927*
Y02924*
Y02927*
X0497Y02929*
X04967*
X04965Y02927*
Y02922*
X04967Y02919*
X04962Y02934D02*
Y02944D01*
X04979Y02949D02*
Y02954D01*
Y02952*
X04965*
Y02949*
Y02954*
Y02962D02*
X04979D01*
Y02969*
X04977Y02972*
X04972*
X0497Y02969*
Y02962*
Y02967D02*
X04965Y02972D01*
X04979Y02987D02*
Y02977D01*
X04972*
Y02982*
Y02977*
X04965*
X04977Y03002D02*
X04979Y02999D01*
Y02994*
X04977Y02992*
X04975*
X04972Y02994*
Y02999*
X0497Y03002*
X04967*
X04965Y02999*
Y02994*
X04967Y02992*
X04965Y03007D02*
Y03012D01*
Y03009*
X04979*
X04977Y03007*
X02875Y0218D02*
X0289D01*
Y02187*
X02887Y0219*
X02882*
X0288Y02187*
Y0218*
Y02185D02*
X02875Y0219D01*
X02887Y02194D02*
X0289Y02197D01*
Y02202*
X02887Y02204*
X02885*
X02882Y02202*
X0288Y02204*
X02877*
X02875Y02202*
Y02197*
X02877Y02194*
X0288*
X02882Y02197*
X02885Y02194*
X02887*
X02882Y02197D02*
Y02202D01*
X02875Y02219D02*
Y02209D01*
X02885Y02219*
X02887*
X0289Y02217*
Y02212*
X02887Y02209*
X02872Y02224D02*
Y02234D01*
X0289Y02239D02*
Y02244D01*
Y02242*
X02875*
Y02239*
Y02244*
Y02252D02*
X0289D01*
Y02259*
X02887Y02262*
X02882*
X0288Y02259*
Y02252*
Y02257D02*
X02875Y02262D01*
X0289Y02277D02*
Y02267D01*
X02882*
Y02272*
Y02267*
X02875*
X02887Y02292D02*
X0289Y02289D01*
Y02284*
X02887Y02282*
X02885*
X02882Y02284*
Y02289*
X0288Y02292*
X02877*
X02875Y02289*
Y02284*
X02877Y02282*
X02875Y02307D02*
Y02297D01*
X02885Y02307*
X02887*
X0289Y02304*
Y02299*
X02887Y02297*
X0491Y0218D02*
X04924D01*
Y02187*
X04922Y0219*
X04917*
X04915Y02187*
Y0218*
Y02185D02*
X0491Y0219D01*
X04922Y02194D02*
X04924Y02197D01*
Y02202*
X04922Y02204*
X0492*
X04917Y02202*
X04915Y02204*
X04912*
X0491Y02202*
Y02197*
X04912Y02194*
X04915*
X04917Y02197*
X0492Y02194*
X04922*
X04917Y02197D02*
Y02202D01*
X0491Y02219D02*
Y02209D01*
X0492Y02219*
X04922*
X04924Y02217*
Y02212*
X04922Y02209*
X04907Y02224D02*
Y02234D01*
X04924Y02239D02*
Y02244D01*
Y02242*
X0491*
Y02239*
Y02244*
Y02252D02*
X04924D01*
Y02259*
X04922Y02262*
X04917*
X04915Y02259*
Y02252*
Y02257D02*
X0491Y02262D01*
X04924Y02277D02*
Y02267D01*
X04917*
Y02272*
Y02267*
X0491*
X04922Y02292D02*
X04924Y02289D01*
Y02284*
X04922Y02282*
X0492*
X04917Y02284*
Y02289*
X04915Y02292*
X04912*
X0491Y02289*
Y02284*
X04912Y02282*
X0491Y02297D02*
Y02302D01*
Y02299*
X04924*
X04922Y02297*
X0292Y0308D02*
Y03095D01*
X02912*
X0291Y03092*
Y03087*
X02912Y03085*
X0292*
X02915D02*
X0291Y0308D01*
X02905Y03092D02*
X02902Y03095D01*
X02897*
X02895Y03092*
Y0309*
X02897Y03087*
X02895Y03085*
Y03082*
X02897Y0308*
X02902*
X02905Y03082*
Y03085*
X02902Y03087*
X02905Y0309*
Y03092*
X02902Y03087D02*
X02897D01*
X0289Y0308D02*
X02885D01*
X02887*
Y03095*
X0289Y03092*
X02877Y03077D02*
X02867D01*
X02862Y03095D02*
X02857D01*
X0286*
Y0308*
X02862*
X02857*
X0285D02*
Y03095D01*
X02842*
X0284Y03092*
Y03087*
X02842Y03085*
X0285*
X02845D02*
X0284Y0308D01*
X02825Y03095D02*
X02835D01*
Y03087*
X0283*
X02835*
Y0308*
X0281Y03092D02*
X02812Y03095D01*
X02817*
X0282Y03092*
Y0309*
X02817Y03087*
X02812*
X0281Y03085*
Y03082*
X02812Y0308*
X02817*
X0282Y03082*
X02795Y0308D02*
X02805D01*
X02795Y0309*
Y03092*
X02797Y03095*
X02802*
X02805Y03092*
X0497Y03175D02*
Y0319D01*
X04962*
X0496Y03187*
Y03182*
X04962Y0318*
X0497*
X04965D02*
X0496Y03175D01*
X04955Y03187D02*
X04952Y0319D01*
X04947*
X04945Y03187*
Y03185*
X04947Y03182*
X04945Y0318*
Y03177*
X04947Y03175*
X04952*
X04955Y03177*
Y0318*
X04952Y03182*
X04955Y03185*
Y03187*
X04952Y03182D02*
X04947D01*
X0494Y03175D02*
X04935D01*
X04937*
Y0319*
X0494Y03187*
X04927Y03172D02*
X04917D01*
X04912Y0319D02*
X04907D01*
X0491*
Y03175*
X04912*
X04907*
X049D02*
Y0319D01*
X04892*
X0489Y03187*
Y03182*
X04892Y0318*
X049*
X04895D02*
X0489Y03175D01*
X04875Y0319D02*
X04885D01*
Y03182*
X0488*
X04885*
Y03175*
X0486Y03187D02*
X04862Y0319D01*
X04867*
X0487Y03187*
Y03185*
X04867Y03182*
X04862*
X0486Y0318*
Y03177*
X04862Y03175*
X04867*
X0487Y03177*
X04855Y03175D02*
X0485D01*
X04852*
Y0319*
X04855Y03187*
X0293Y0231D02*
X02944D01*
Y02317*
X02942Y0232*
X02937*
X02935Y02317*
Y0231*
Y02315D02*
X0293Y0232D01*
X02942Y02325D02*
X02944Y02327D01*
Y02332*
X02942Y02334*
X0294*
X02937Y02332*
X02935Y02334*
X02932*
X0293Y02332*
Y02327*
X02932Y02325*
X02935*
X02937Y02327*
X0294Y02325*
X02942*
X02937Y02327D02*
Y02332D01*
X02942Y02339D02*
X02944Y02342D01*
Y02347*
X02942Y02349*
X02932*
X0293Y02347*
Y02342*
X02932Y02339*
X02942*
X02927Y02354D02*
Y02364D01*
X02944Y02369D02*
Y02374D01*
Y02372*
X0293*
Y02369*
Y02374*
Y02382D02*
X02944D01*
Y02389*
X02942Y02392*
X02937*
X02935Y02389*
Y02382*
Y02387D02*
X0293Y02392D01*
X02944Y02407D02*
Y02397D01*
X02937*
Y02402*
Y02397*
X0293*
X02942Y02422D02*
X02944Y02419D01*
Y02414*
X02942Y02412*
X0294*
X02937Y02414*
Y02419*
X02935Y02422*
X02932*
X0293Y02419*
Y02414*
X02932Y02412*
X0293Y02437D02*
Y02427D01*
X0294Y02437*
X02942*
X02944Y02434*
Y02429*
X02942Y02427*
X04935Y0237D02*
Y02384D01*
X04927*
X04925Y02382*
Y02377*
X04927Y02375*
X04935*
X0493D02*
X04925Y0237D01*
X0492Y02382D02*
X04917Y02384D01*
X04912*
X0491Y02382*
Y0238*
X04912Y02377*
X0491Y02375*
Y02372*
X04912Y0237*
X04917*
X0492Y02372*
Y02375*
X04917Y02377*
X0492Y0238*
Y02382*
X04917Y02377D02*
X04912D01*
X04905Y02382D02*
X04902Y02384D01*
X04897*
X04895Y02382*
Y02372*
X04897Y0237*
X04902*
X04905Y02372*
Y02382*
X0489Y02367D02*
X0488D01*
X04875Y02384D02*
X0487D01*
X04872*
Y0237*
X04875*
X0487*
X04862D02*
Y02384D01*
X04855*
X04852Y02382*
Y02377*
X04855Y02375*
X04862*
X04857D02*
X04852Y0237D01*
X04837Y02384D02*
X04847D01*
Y02377*
X04842*
X04847*
Y0237*
X04822Y02382D02*
X04825Y02384D01*
X0483*
X04832Y02382*
Y0238*
X0483Y02377*
X04825*
X04822Y02375*
Y02372*
X04825Y0237*
X0483*
X04832Y02372*
X04817Y0237D02*
X04812D01*
X04815*
Y02384*
X04817Y02382*
X0136Y0199D02*
X01345D01*
Y01982*
X01347Y0198*
X01352*
X01355Y01982*
Y0199*
Y01985D02*
X0136Y0198D01*
X01345Y01975D02*
Y01965D01*
X01347*
X01357Y01975*
X0136*
X01357Y0196D02*
X0136Y01957D01*
Y01952*
X01357Y0195*
X01347*
X01345Y01952*
Y01957*
X01347Y0196*
X0135*
X01352Y01957*
Y0195*
X01362Y01945D02*
Y01935D01*
X01345Y0193D02*
Y01925D01*
Y01927*
X0136*
Y0193*
Y01925*
Y01917D02*
X01345D01*
Y0191*
X01347Y01907*
X01352*
X01355Y0191*
Y01917*
Y01912D02*
X0136Y01907D01*
X01345Y01892D02*
Y01902D01*
X01352*
Y01897*
Y01902*
X0136*
X01347Y01877D02*
X01345Y0188D01*
Y01885*
X01347Y01887*
X0135*
X01352Y01885*
Y0188*
X01355Y01877*
X01357*
X0136Y0188*
Y01885*
X01357Y01887*
X0136Y01862D02*
Y01872D01*
X0135Y01862*
X01347*
X01345Y01865*
Y0187*
X01347Y01872*
X034Y02115D02*
X03385D01*
Y02107*
X03387Y02105*
X03392*
X03395Y02107*
Y02115*
Y0211D02*
X034Y02105D01*
X03385Y021D02*
Y0209D01*
X03387*
X03397Y021*
X034*
X03397Y02085D02*
X034Y02082D01*
Y02077*
X03397Y02075*
X03387*
X03385Y02077*
Y02082*
X03387Y02085*
X0339*
X03392Y02082*
Y02075*
X03402Y0207D02*
Y0206D01*
X03385Y02055D02*
Y0205D01*
Y02052*
X034*
Y02055*
Y0205*
Y02042D02*
X03385D01*
Y02035*
X03387Y02032*
X03392*
X03395Y02035*
Y02042*
Y02037D02*
X034Y02032D01*
X03385Y02017D02*
Y02027D01*
X03392*
Y02022*
Y02027*
X034*
X03387Y02002D02*
X03385Y02005D01*
Y0201*
X03387Y02012*
X0339*
X03392Y0201*
Y02005*
X03395Y02002*
X03397*
X034Y02005*
Y0201*
X03397Y02012*
X034Y01997D02*
Y01992D01*
Y01995*
X03385*
X03387Y01997*
X02357Y0288D02*
X02372D01*
Y02887*
X0237Y0289*
X02365*
X02362Y02887*
Y0288*
Y02885D02*
X02357Y0289D01*
X02372Y02895D02*
Y02905D01*
X0237*
X0236Y02895*
X02357*
X0237Y0291D02*
X02372Y02912D01*
Y02917*
X0237Y0292*
X02367*
X02365Y02917*
X02362Y0292*
X0236*
X02357Y02917*
Y02912*
X0236Y0291*
X02362*
X02365Y02912*
X02367Y0291*
X0237*
X02365Y02912D02*
Y02917D01*
X02355Y02925D02*
Y02935D01*
X02372Y0294D02*
Y02945D01*
Y02942*
X02357*
Y0294*
Y02945*
Y02952D02*
X02372D01*
Y0296*
X0237Y02962*
X02365*
X02362Y0296*
Y02952*
Y02957D02*
X02357Y02962D01*
X02372Y02977D02*
Y02967D01*
X02365*
Y02972*
Y02967*
X02357*
X0237Y02992D02*
X02372Y0299D01*
Y02985*
X0237Y02982*
X02367*
X02365Y02985*
Y0299*
X02362Y02992*
X0236*
X02357Y0299*
Y02985*
X0236Y02982*
X02357Y03007D02*
Y02997D01*
X02367Y03007*
X0237*
X02372Y03005*
Y03*
X0237Y02997*
X04405Y0288D02*
X04419D01*
Y02887*
X04417Y0289*
X04412*
X0441Y02887*
Y0288*
Y02885D02*
X04405Y0289D01*
X04419Y02894D02*
Y02904D01*
X04417*
X04407Y02894*
X04405*
X04417Y02909D02*
X04419Y02912D01*
Y02917*
X04417Y02919*
X04415*
X04412Y02917*
X0441Y02919*
X04407*
X04405Y02917*
Y02912*
X04407Y02909*
X0441*
X04412Y02912*
X04415Y02909*
X04417*
X04412Y02912D02*
Y02917D01*
X04402Y02924D02*
Y02934D01*
X04419Y02939D02*
Y02944D01*
Y02942*
X04405*
Y02939*
Y02944*
Y02952D02*
X04419D01*
Y02959*
X04417Y02962*
X04412*
X0441Y02959*
Y02952*
Y02957D02*
X04405Y02962D01*
X04419Y02977D02*
Y02967D01*
X04412*
Y02972*
Y02967*
X04405*
X04417Y02992D02*
X04419Y02989D01*
Y02984*
X04417Y02982*
X04415*
X04412Y02984*
Y02989*
X0441Y02992*
X04407*
X04405Y02989*
Y02984*
X04407Y02982*
X04405Y02997D02*
Y03002D01*
Y02999*
X04419*
X04417Y02997*
X02348Y03108D02*
Y03122D01*
X0234*
X02338Y0312*
Y03115*
X0234Y03113*
X02348*
X02343D02*
X02338Y03108D01*
X02333Y03122D02*
X02323D01*
Y0312*
X02333Y0311*
Y03108*
X02318Y03122D02*
X02308D01*
Y0312*
X02318Y0311*
Y03108*
X02303Y03105D02*
X02293D01*
X02288Y03122D02*
X02283D01*
X02285*
Y03108*
X02288*
X02283*
X02275D02*
Y03122D01*
X02268*
X02265Y0312*
Y03115*
X02268Y03113*
X02275*
X0227D02*
X02265Y03108D01*
X0225Y03122D02*
X0226D01*
Y03115*
X02255*
X0226*
Y03108*
X02235Y0312D02*
X02238Y03122D01*
X02243*
X02245Y0312*
Y03118*
X02243Y03115*
X02238*
X02235Y03113*
Y0311*
X02238Y03108*
X02243*
X02245Y0311*
X0222Y03108D02*
X0223D01*
X0222Y03118*
Y0312*
X02223Y03122*
X02228*
X0223Y0312*
X04415Y03175D02*
Y0319D01*
X04407*
X04405Y03187*
Y03182*
X04407Y0318*
X04415*
X0441D02*
X04405Y03175D01*
X044Y0319D02*
X0439D01*
Y03187*
X044Y03177*
Y03175*
X04385Y0319D02*
X04375D01*
Y03187*
X04385Y03177*
Y03175*
X0437Y03172D02*
X0436D01*
X04355Y0319D02*
X0435D01*
X04352*
Y03175*
X04355*
X0435*
X04342D02*
Y0319D01*
X04335*
X04332Y03187*
Y03182*
X04335Y0318*
X04342*
X04337D02*
X04332Y03175D01*
X04317Y0319D02*
X04327D01*
Y03182*
X04322*
X04327*
Y03175*
X04302Y03187D02*
X04305Y0319D01*
X0431*
X04312Y03187*
Y03185*
X0431Y03182*
X04305*
X04302Y0318*
Y03177*
X04305Y03175*
X0431*
X04312Y03177*
X04297Y03175D02*
X04292D01*
X04295*
Y0319*
X04297Y03187*
X02295Y0233D02*
X0228D01*
Y02322*
X02282Y0232*
X02287*
X0229Y02322*
Y0233*
Y02325D02*
X02295Y0232D01*
X0228Y02315D02*
Y02305D01*
X02282*
X02292Y02315*
X02295*
X0228Y0229D02*
X02282Y02295D01*
X02287Y023*
X02292*
X02295Y02297*
Y02292*
X02292Y0229*
X0229*
X02287Y02292*
Y023*
X02297Y02285D02*
Y02275D01*
X0228Y0227D02*
Y02265D01*
Y02267*
X02295*
Y0227*
Y02265*
Y02257D02*
X0228D01*
Y0225*
X02282Y02247*
X02287*
X0229Y0225*
Y02257*
Y02252D02*
X02295Y02247D01*
X0228Y02232D02*
Y02242D01*
X02287*
Y02237*
Y02242*
X02295*
X02282Y02217D02*
X0228Y0222D01*
Y02225*
X02282Y02227*
X02285*
X02287Y02225*
Y0222*
X0229Y02217*
X02292*
X02295Y0222*
Y02225*
X02292Y02227*
X02295Y02202D02*
Y02212D01*
X02285Y02202*
X02282*
X0228Y02205*
Y0221*
X02282Y02212*
X0434Y02347D02*
X04325D01*
Y02339*
X04327Y02337*
X04332*
X04335Y02339*
Y02347*
Y02342D02*
X0434Y02337D01*
X04325Y02332D02*
Y02322D01*
X04327*
X04337Y02332*
X0434*
X04325Y02307D02*
X04327Y02312D01*
X04332Y02317*
X04337*
X0434Y02314*
Y02309*
X04337Y02307*
X04335*
X04332Y02309*
Y02317*
X04342Y02302D02*
Y02292D01*
X04325Y02287D02*
Y02282D01*
Y02284*
X0434*
Y02287*
Y02282*
Y02274D02*
X04325D01*
Y02267*
X04327Y02264*
X04332*
X04335Y02267*
Y02274*
Y02269D02*
X0434Y02264D01*
X04325Y02249D02*
Y02259D01*
X04332*
Y02254*
Y02259*
X0434*
X04327Y02234D02*
X04325Y02237D01*
Y02242*
X04327Y02244*
X0433*
X04332Y02242*
Y02237*
X04335Y02234*
X04337*
X0434Y02237*
Y02242*
X04337Y02244*
X0434Y02229D02*
Y02224D01*
Y02227*
X04325*
X04327Y02229*
X0241Y0236D02*
Y02374D01*
X02402*
X024Y02372*
Y02367*
X02402Y02365*
X0241*
X02405D02*
X024Y0236D01*
X02395Y02374D02*
X02385D01*
Y02372*
X02395Y02362*
Y0236*
X0237Y02374D02*
X0238D01*
Y02367*
X02375Y0237*
X02372*
X0237Y02367*
Y02362*
X02372Y0236*
X02377*
X0238Y02362*
X02365Y02357D02*
X02355D01*
X0235Y02374D02*
X02345D01*
X02347*
Y0236*
X0235*
X02345*
X02337D02*
Y02374D01*
X0233*
X02327Y02372*
Y02367*
X0233Y02365*
X02337*
X02332D02*
X02327Y0236D01*
X02312Y02374D02*
X02322D01*
Y02367*
X02317*
X02322*
Y0236*
X02297Y02372D02*
X023Y02374D01*
X02305*
X02307Y02372*
Y0237*
X02305Y02367*
X023*
X02297Y02365*
Y02362*
X023Y0236*
X02305*
X02307Y02362*
X02282Y0236D02*
X02292D01*
X02282Y0237*
Y02372*
X02285Y02374*
X0229*
X02292Y02372*
X0447Y02365D02*
Y0238D01*
X04462*
X0446Y02377*
Y02372*
X04462Y0237*
X0447*
X04465D02*
X0446Y02365D01*
X04455Y0238D02*
X04445D01*
Y02377*
X04455Y02367*
Y02365*
X0443Y0238D02*
X0444D01*
Y02372*
X04435Y02375*
X04432*
X0443Y02372*
Y02367*
X04432Y02365*
X04437*
X0444Y02367*
X04425Y02362D02*
X04415D01*
X0441Y0238D02*
X04405D01*
X04407*
Y02365*
X0441*
X04405*
X04397D02*
Y0238D01*
X0439*
X04387Y02377*
Y02372*
X0439Y0237*
X04397*
X04392D02*
X04387Y02365D01*
X04372Y0238D02*
X04382D01*
Y02372*
X04377*
X04382*
Y02365*
X04357Y02377D02*
X0436Y0238D01*
X04365*
X04367Y02377*
Y02375*
X04365Y02372*
X0436*
X04357Y0237*
Y02367*
X0436Y02365*
X04365*
X04367Y02367*
X04352Y02365D02*
X04347D01*
X0435*
Y0238*
X04352Y02377*
X0186Y02885D02*
X01874D01*
Y02892*
X01872Y02895*
X01867*
X01865Y02892*
Y02885*
Y0289D02*
X0186Y02895D01*
X01874Y029D02*
Y02909D01*
X01872*
X01862Y029*
X0186*
Y02922D02*
X01874D01*
X01867Y02914*
Y02924*
X01857Y02929D02*
Y02939D01*
X01874Y02944D02*
Y02949D01*
Y02947*
X0186*
Y02944*
Y02949*
Y02957D02*
X01874D01*
Y02964*
X01872Y02967*
X01867*
X01865Y02964*
Y02957*
Y02962D02*
X0186Y02967D01*
X01874Y02982D02*
Y02972D01*
X01867*
Y02977*
Y02972*
X0186*
X01872Y02997D02*
X01874Y02994D01*
Y02989*
X01872Y02987*
X0187*
X01867Y02989*
Y02994*
X01865Y02997*
X01862*
X0186Y02994*
Y02989*
X01862Y02987*
X0186Y03012D02*
Y03002D01*
X0187Y03012*
X01872*
X01874Y03009*
Y03004*
X01872Y03002*
X039Y0288D02*
X03914D01*
Y02887*
X03912Y0289*
X03907*
X03905Y02887*
Y0288*
Y02885D02*
X039Y0289D01*
X03914Y02894D02*
Y02904D01*
X03912*
X03902Y02894*
X039*
Y02917D02*
X03914D01*
X03907Y02909*
Y02919*
X03897Y02924D02*
Y02934D01*
X03914Y02939D02*
Y02944D01*
Y02942*
X039*
Y02939*
Y02944*
Y02952D02*
X03914D01*
Y02959*
X03912Y02962*
X03907*
X03905Y02959*
Y02952*
Y02957D02*
X039Y02962D01*
X03914Y02977D02*
Y02967D01*
X03907*
Y02972*
Y02967*
X039*
X03912Y02992D02*
X03914Y02989D01*
Y02984*
X03912Y02982*
X0391*
X03907Y02984*
Y02989*
X03905Y02992*
X03902*
X039Y02989*
Y02984*
X03902Y02982*
X039Y02997D02*
Y03002D01*
Y02999*
X03914*
X03912Y02997*
X0178Y02317D02*
X01765D01*
Y02309*
X01767Y02307*
X01772*
X01775Y02309*
Y02317*
Y02312D02*
X0178Y02307D01*
X01765Y02302D02*
Y02292D01*
X01767*
X01777Y02302*
X0178*
X01767Y02287D02*
X01765Y02284D01*
Y02279*
X01767Y02277*
X0177*
X01772Y02279*
Y02282*
Y02279*
X01775Y02277*
X01777*
X0178Y02279*
Y02284*
X01777Y02287*
X01782Y02272D02*
Y02262D01*
X01765Y02257D02*
Y02252D01*
Y02254*
X0178*
Y02257*
Y02252*
Y02244D02*
X01765D01*
Y02237*
X01767Y02234*
X01772*
X01775Y02237*
Y02244*
Y02239D02*
X0178Y02234D01*
X01765Y02219D02*
Y02229D01*
X01772*
Y02224*
Y02229*
X0178*
X01767Y02204D02*
X01765Y02207D01*
Y02212*
X01767Y02214*
X0177*
X01772Y02212*
Y02207*
X01775Y02204*
X01777*
X0178Y02207*
Y02212*
X01777Y02214*
X0178Y02189D02*
Y02199D01*
X0177Y02189*
X01767*
X01765Y02192*
Y02197*
X01767Y02199*
X03815Y0234D02*
X038D01*
Y02332*
X03802Y0233*
X03807*
X0381Y02332*
Y0234*
Y02335D02*
X03815Y0233D01*
X038Y02325D02*
Y02315D01*
X03802*
X03812Y02325*
X03815*
X03802Y0231D02*
X038Y02307D01*
Y02302*
X03802Y023*
X03805*
X03807Y02302*
Y02305*
Y02302*
X0381Y023*
X03812*
X03815Y02302*
Y02307*
X03812Y0231*
X03817Y02295D02*
Y02285D01*
X038Y0228D02*
Y02275D01*
Y02277*
X03815*
Y0228*
Y02275*
Y02267D02*
X038D01*
Y0226*
X03802Y02257*
X03807*
X0381Y0226*
Y02267*
Y02262D02*
X03815Y02257D01*
X038Y02242D02*
Y02252D01*
X03807*
Y02247*
Y02252*
X03815*
X03802Y02227D02*
X038Y0223D01*
Y02235*
X03802Y02237*
X03805*
X03807Y02235*
Y0223*
X0381Y02227*
X03812*
X03815Y0223*
Y02235*
X03812Y02237*
X03815Y02222D02*
Y02217D01*
Y0222*
X038*
X03802Y02222*
X0191Y03105D02*
Y0312D01*
X01902*
X019Y03117*
Y03112*
X01902Y0311*
X0191*
X01905D02*
X019Y03105D01*
X01895Y0312D02*
X01885D01*
Y03117*
X01895Y03107*
Y03105*
X0187D02*
X0188D01*
X0187Y03115*
Y03117*
X01872Y0312*
X01877*
X0188Y03117*
X01865Y03102D02*
X01855D01*
X0185Y0312D02*
X01845D01*
X01847*
Y03105*
X0185*
X01845*
X01837D02*
Y0312D01*
X0183*
X01827Y03117*
Y03112*
X0183Y0311*
X01837*
X01832D02*
X01827Y03105D01*
X01812Y0312D02*
X01822D01*
Y03112*
X01817*
X01822*
Y03105*
X01797Y03117D02*
X018Y0312D01*
X01805*
X01807Y03117*
Y03115*
X01805Y03112*
X018*
X01797Y0311*
Y03107*
X018Y03105*
X01805*
X01807Y03107*
X01782Y03105D02*
X01792D01*
X01782Y03115*
Y03117*
X01785Y0312*
X0179*
X01792Y03117*
X03885Y03175D02*
Y0319D01*
X03877*
X03875Y03187*
Y03182*
X03877Y0318*
X03885*
X0388D02*
X03875Y03175D01*
X0387Y0319D02*
X0386D01*
Y03187*
X0387Y03177*
Y03175*
X03845D02*
X03855D01*
X03845Y03185*
Y03187*
X03847Y0319*
X03852*
X03855Y03187*
X0384Y03172D02*
X0383D01*
X03825Y0319D02*
X0382D01*
X03822*
Y03175*
X03825*
X0382*
X03812D02*
Y0319D01*
X03805*
X03802Y03187*
Y03182*
X03805Y0318*
X03812*
X03807D02*
X03802Y03175D01*
X03787Y0319D02*
X03797D01*
Y03182*
X03792*
X03797*
Y03175*
X03772Y03187D02*
X03775Y0319D01*
X0378*
X03782Y03187*
Y03185*
X0378Y03182*
X03775*
X03772Y0318*
Y03177*
X03775Y03175*
X0378*
X03782Y03177*
X03767Y03175D02*
X03762D01*
X03765*
Y0319*
X03767Y03187*
X01885Y0234D02*
Y02355D01*
X01877*
X01875Y02352*
Y02347*
X01877Y02345*
X01885*
X0188D02*
X01875Y0234D01*
X0187Y02355D02*
X0186D01*
Y02352*
X0187Y02342*
Y0234*
X01855D02*
X0185D01*
X01852*
Y02355*
X01855Y02352*
X01842Y02337D02*
X01832D01*
X01827Y02355D02*
X01822D01*
X01825*
Y0234*
X01827*
X01822*
X01815D02*
Y02355D01*
X01807*
X01805Y02352*
Y02347*
X01807Y02345*
X01815*
X0181D02*
X01805Y0234D01*
X0179Y02355D02*
X018D01*
Y02347*
X01795*
X018*
Y0234*
X01775Y02352D02*
X01777Y02355D01*
X01782*
X01785Y02352*
Y0235*
X01782Y02347*
X01777*
X01775Y02345*
Y02342*
X01777Y0234*
X01782*
X01785Y02342*
X0176Y0234D02*
X0177D01*
X0176Y0235*
Y02352*
X01762Y02355*
X01767*
X0177Y02352*
X03965Y02365D02*
Y0238D01*
X03957*
X03955Y02377*
Y02372*
X03957Y0237*
X03965*
X0396D02*
X03955Y02365D01*
X0395Y0238D02*
X0394D01*
Y02377*
X0395Y02367*
Y02365*
X03935D02*
X0393D01*
X03932*
Y0238*
X03935Y02377*
X03922Y02362D02*
X03912D01*
X03907Y0238D02*
X03902D01*
X03905*
Y02365*
X03907*
X03902*
X03895D02*
Y0238D01*
X03887*
X03885Y02377*
Y02372*
X03887Y0237*
X03895*
X0389D02*
X03885Y02365D01*
X0387Y0238D02*
X0388D01*
Y02372*
X03875*
X0388*
Y02365*
X03855Y02377D02*
X03857Y0238D01*
X03862*
X03865Y02377*
Y02375*
X03862Y02372*
X03857*
X03855Y0237*
Y02367*
X03857Y02365*
X03862*
X03865Y02367*
X0385Y02365D02*
X03845D01*
X03847*
Y0238*
X0385Y02377*
X01895Y0191D02*
Y01924D01*
X01887*
X01885Y01922*
Y01917*
X01887Y01915*
X01895*
X0189D02*
X01885Y0191D01*
X0187Y01924D02*
X0188D01*
Y01917*
X01875Y0192*
X01872*
X0187Y01917*
Y01912*
X01872Y0191*
X01877*
X0188Y01912*
X01855Y01924D02*
X0186Y01922D01*
X01865Y01917*
Y01912*
X01862Y0191*
X01857*
X01855Y01912*
Y01915*
X01857Y01917*
X01865*
X0185Y01907D02*
X0184D01*
X01835Y01924D02*
Y0191D01*
X01827*
X01825Y01912*
Y01922*
X01827Y01924*
X01835*
X0182Y0191D02*
Y01924D01*
X01812*
X0181Y01922*
Y01917*
X01812Y01915*
X0182*
X01815D02*
X0181Y0191D01*
X01795D02*
X01805D01*
X01795Y0192*
Y01922*
X01797Y01924*
X01802*
X01805Y01922*
X0394Y0194D02*
Y01955D01*
X03932*
X0393Y01952*
Y01947*
X03932Y01945*
X0394*
X03935D02*
X0393Y0194D01*
X03915Y01955D02*
X03925D01*
Y01947*
X0392Y0195*
X03917*
X03915Y01947*
Y01942*
X03917Y0194*
X03922*
X03925Y01942*
X039Y01955D02*
X03905Y01952D01*
X0391Y01947*
Y01942*
X03907Y0194*
X03902*
X039Y01942*
Y01945*
X03902Y01947*
X0391*
X03895Y01937D02*
X03885D01*
X0388Y01955D02*
Y0194D01*
X03872*
X0387Y01942*
Y01952*
X03872Y01955*
X0388*
X03865Y0194D02*
Y01955D01*
X03857*
X03855Y01952*
Y01947*
X03857Y01945*
X03865*
X0386D02*
X03855Y0194D01*
X0385D02*
X03845D01*
X03847*
Y01955*
X0385Y01952*
X02495Y01935D02*
Y0195D01*
X02487*
X02485Y01947*
Y01942*
X02487Y0194*
X02495*
X0249D02*
X02485Y01935D01*
X0247Y0195D02*
X0248D01*
Y01942*
X02475Y01945*
X02472*
X0247Y01942*
Y01937*
X02472Y01935*
X02477*
X0248Y01937*
X02455Y0195D02*
X02465D01*
Y01942*
X0246Y01945*
X02457*
X02455Y01942*
Y01937*
X02457Y01935*
X02462*
X02465Y01937*
X0245Y01932D02*
X0244D01*
X02435Y0195D02*
Y01935D01*
X02427*
X02425Y01937*
Y01947*
X02427Y0195*
X02435*
X0242Y01935D02*
Y0195D01*
X02412*
X0241Y01947*
Y01942*
X02412Y0194*
X0242*
X02415D02*
X0241Y01935D01*
X02395D02*
X02405D01*
X02395Y01945*
Y01947*
X02397Y0195*
X02402*
X02405Y01947*
X04515Y0199D02*
Y02005D01*
X04507*
X04505Y02002*
Y01997*
X04507Y01995*
X04515*
X0451D02*
X04505Y0199D01*
X0449Y02005D02*
X045D01*
Y01997*
X04495Y02*
X04492*
X0449Y01997*
Y01992*
X04492Y0199*
X04497*
X045Y01992*
X04475Y02005D02*
X04485D01*
Y01997*
X0448Y02*
X04477*
X04475Y01997*
Y01992*
X04477Y0199*
X04482*
X04485Y01992*
X0447Y01987D02*
X0446D01*
X04455Y02005D02*
Y0199D01*
X04447*
X04445Y01992*
Y02002*
X04447Y02005*
X04455*
X0444Y0199D02*
Y02005D01*
X04432*
X0443Y02002*
Y01997*
X04432Y01995*
X0444*
X04435D02*
X0443Y0199D01*
X04425D02*
X0442D01*
X04422*
Y02005*
X04425Y02002*
X02375Y0186D02*
Y01874D01*
X02367*
X02365Y01872*
Y01867*
X02367Y01865*
X02375*
X0237D02*
X02365Y0186D01*
X0235Y01874D02*
X0236D01*
Y01867*
X02355Y0187*
X02352*
X0235Y01867*
Y01862*
X02352Y0186*
X02357*
X0236Y01862*
X02337Y0186D02*
Y01874D01*
X02345Y01867*
X02335*
X0233Y01857D02*
X0232D01*
X02315Y01874D02*
Y0186D01*
X02307*
X02305Y01862*
Y01872*
X02307Y01874*
X02315*
X023Y0186D02*
Y01874D01*
X02292*
X0229Y01872*
Y01867*
X02292Y01865*
X023*
X02295D02*
X0229Y0186D01*
X02275D02*
X02285D01*
X02275Y0187*
Y01872*
X02277Y01874*
X02282*
X02285Y01872*
X04515Y0193D02*
Y01945D01*
X04507*
X04505Y01942*
Y01937*
X04507Y01935*
X04515*
X0451D02*
X04505Y0193D01*
X0449Y01945D02*
X045D01*
Y01937*
X04495Y0194*
X04492*
X0449Y01937*
Y01932*
X04492Y0193*
X04497*
X045Y01932*
X04477Y0193D02*
Y01945D01*
X04485Y01937*
X04475*
X0447Y01927D02*
X0446D01*
X04455Y01945D02*
Y0193D01*
X04447*
X04445Y01932*
Y01942*
X04447Y01945*
X04455*
X0444Y0193D02*
Y01945D01*
X04432*
X0443Y01942*
Y01937*
X04432Y01935*
X0444*
X04435D02*
X0443Y0193D01*
X04425D02*
X0442D01*
X04422*
Y01945*
X04425Y01942*
X0249Y014D02*
X02505D01*
Y01407*
X02502Y0141*
X02497*
X02495Y01407*
Y014*
Y01405D02*
X0249Y0141D01*
X02505Y01424D02*
Y01414D01*
X02497*
X025Y01419*
Y01422*
X02497Y01424*
X02492*
X0249Y01422*
Y01417*
X02492Y01414*
X02502Y01429D02*
X02505Y01432D01*
Y01437*
X02502Y01439*
X025*
X02497Y01437*
Y01434*
Y01437*
X02495Y01439*
X02492*
X0249Y01437*
Y01432*
X02492Y01429*
X02487Y01444D02*
Y01454D01*
X02505Y01459D02*
X0249D01*
Y01467*
X02492Y01469*
X02502*
X02505Y01467*
Y01459*
X0249Y01474D02*
X02505D01*
Y01482*
X02502Y01484*
X02497*
X02495Y01482*
Y01474*
Y01479D02*
X0249Y01484D01*
Y01499D02*
Y01489D01*
X025Y01499*
X02502*
X02505Y01497*
Y01492*
X02502Y01489*
X0429Y01422D02*
Y01437D01*
X04282*
X0428Y01435*
Y0143*
X04282Y01427*
X0429*
X04285D02*
X0428Y01422D01*
X04265Y01437D02*
X04275D01*
Y0143*
X0427Y01432*
X04267*
X04265Y0143*
Y01425*
X04267Y01422*
X04272*
X04275Y01425*
X0426Y01435D02*
X04257Y01437D01*
X04252*
X0425Y01435*
Y01432*
X04252Y0143*
X04255*
X04252*
X0425Y01427*
Y01425*
X04252Y01422*
X04257*
X0426Y01425*
X04245Y0142D02*
X04235D01*
X0423Y01437D02*
Y01422D01*
X04222*
X0422Y01425*
Y01435*
X04222Y01437*
X0423*
X04215Y01422D02*
Y01437D01*
X04207*
X04205Y01435*
Y0143*
X04207Y01427*
X04215*
X0421D02*
X04205Y01422D01*
X042D02*
X04195D01*
X04197*
Y01437*
X042Y01435*
X0245Y014D02*
X02464D01*
Y01407*
X02462Y0141*
X02457*
X02455Y01407*
Y014*
Y01405D02*
X0245Y0141D01*
X02464Y01424D02*
Y01414D01*
X02457*
X0246Y01419*
Y01422*
X02457Y01424*
X02452*
X0245Y01422*
Y01417*
X02452Y01414*
X0245Y01439D02*
Y01429D01*
X0246Y01439*
X02462*
X02464Y01437*
Y01432*
X02462Y01429*
X02447Y01444D02*
Y01454D01*
X02464Y01459D02*
X0245D01*
Y01467*
X02452Y01469*
X02462*
X02464Y01467*
Y01459*
X0245Y01474D02*
X02464D01*
Y01482*
X02462Y01484*
X02457*
X02455Y01482*
Y01474*
Y01479D02*
X0245Y01484D01*
Y01499D02*
Y01489D01*
X0246Y01499*
X02462*
X02464Y01497*
Y01492*
X02462Y01489*
X0431Y01255D02*
Y01269D01*
X04302*
X043Y01267*
Y01262*
X04302Y0126*
X0431*
X04305D02*
X043Y01255D01*
X04285Y01269D02*
X04295D01*
Y01262*
X0429Y01265*
X04287*
X04285Y01262*
Y01257*
X04287Y01255*
X04292*
X04295Y01257*
X0427Y01255D02*
X0428D01*
X0427Y01265*
Y01267*
X04272Y01269*
X04277*
X0428Y01267*
X04265Y01252D02*
X04255D01*
X0425Y01269D02*
Y01255D01*
X04242*
X0424Y01257*
Y01267*
X04242Y01269*
X0425*
X04235Y01255D02*
Y01269D01*
X04227*
X04225Y01267*
Y01262*
X04227Y0126*
X04235*
X0423D02*
X04225Y01255D01*
X0422D02*
X04215D01*
X04217*
Y01269*
X0422Y01267*
X04425Y01337D02*
X04439D01*
Y01345*
X04437Y01347*
X04432*
X0443Y01345*
Y01337*
Y01342D02*
X04425Y01347D01*
X04439Y01362D02*
Y01352D01*
X04432*
X04435Y01357*
Y0136*
X04432Y01362*
X04427*
X04425Y0136*
Y01355*
X04427Y01352*
X04425Y01367D02*
Y01372D01*
Y0137*
X04439*
X04437Y01367*
X04422Y0138D02*
Y0139D01*
X04439Y01395D02*
X04425D01*
Y01402*
X04427Y01405*
X04437*
X04439Y01402*
Y01395*
X04425Y0141D02*
X04439D01*
Y01417*
X04437Y0142*
X04432*
X0443Y01417*
Y0141*
Y01415D02*
X04425Y0142D01*
Y01425D02*
Y0143D01*
Y01427*
X04439*
X04437Y01425*
X02255Y01405D02*
Y01419D01*
X02247*
X02245Y01417*
Y01412*
X02247Y0141*
X02255*
X0225D02*
X02245Y01405D01*
X0223Y01419D02*
X0224D01*
Y01412*
X02235Y01415*
X02232*
X0223Y01412*
Y01407*
X02232Y01405*
X02237*
X0224Y01407*
X02225Y01417D02*
X02222Y01419D01*
X02217*
X02215Y01417*
Y01407*
X02217Y01405*
X02222*
X02225Y01407*
Y01417*
X0221Y01402D02*
X022D01*
X02195Y01419D02*
Y01405D01*
X02187*
X02185Y01407*
Y01417*
X02187Y01419*
X02195*
X0218Y01405D02*
Y01419D01*
X02172*
X0217Y01417*
Y01412*
X02172Y0141*
X0218*
X02175D02*
X0217Y01405D01*
X02155D02*
X02165D01*
X02155Y01415*
Y01417*
X02157Y01419*
X02162*
X02165Y01417*
X042Y0129D02*
Y01304D01*
X04192*
X0419Y01302*
Y01297*
X04192Y01295*
X042*
X04195D02*
X0419Y0129D01*
X04175Y01304D02*
X04185D01*
Y01297*
X0418Y013*
X04177*
X04175Y01297*
Y01292*
X04177Y0129*
X04182*
X04185Y01292*
X0417Y01302D02*
X04167Y01304D01*
X04162*
X0416Y01302*
Y01292*
X04162Y0129*
X04167*
X0417Y01292*
Y01302*
X04155Y01287D02*
X04145D01*
X0414Y01304D02*
Y0129D01*
X04132*
X0413Y01292*
Y01302*
X04132Y01304*
X0414*
X04125Y0129D02*
Y01304D01*
X04117*
X04115Y01302*
Y01297*
X04117Y01295*
X04125*
X0412D02*
X04115Y0129D01*
X0411D02*
X04105D01*
X04107*
Y01304*
X0411Y01302*
X02685Y01285D02*
Y01299D01*
X02677*
X02675Y01297*
Y01292*
X02677Y0129*
X02685*
X0268D02*
X02675Y01285D01*
X02662D02*
Y01299D01*
X0267Y01292*
X0266*
X02655Y01287D02*
X02652Y01285D01*
X02647*
X02645Y01287*
Y01297*
X02647Y01299*
X02652*
X02655Y01297*
Y01295*
X02652Y01292*
X02645*
X0264Y01282D02*
X0263D01*
X02625Y01299D02*
Y01285D01*
X02617*
X02615Y01287*
Y01297*
X02617Y01299*
X02625*
X0261Y01285D02*
Y01299D01*
X02602*
X026Y01297*
Y01292*
X02602Y0129*
X0261*
X02605D02*
X026Y01285D01*
X02585D02*
X02595D01*
X02585Y01295*
Y01297*
X02587Y01299*
X02592*
X02595Y01297*
X04405Y01422D02*
Y01437D01*
X04397*
X04395Y01435*
Y0143*
X04397Y01427*
X04405*
X044D02*
X04395Y01422D01*
X04382D02*
Y01437D01*
X0439Y0143*
X0438*
X04375Y01425D02*
X04372Y01422D01*
X04367*
X04365Y01425*
Y01435*
X04367Y01437*
X04372*
X04375Y01435*
Y01432*
X04372Y0143*
X04365*
X0436Y0142D02*
X0435D01*
X04345Y01437D02*
Y01422D01*
X04337*
X04335Y01425*
Y01435*
X04337Y01437*
X04345*
X0433Y01422D02*
Y01437D01*
X04322*
X0432Y01435*
Y0143*
X04322Y01427*
X0433*
X04325D02*
X0432Y01422D01*
X04315D02*
X0431D01*
X04312*
Y01437*
X04315Y01435*
X02275Y01435D02*
Y0145D01*
X02267*
X02265Y01447*
Y01442*
X02267Y0144*
X02275*
X0227D02*
X02265Y01435D01*
X02252D02*
Y0145D01*
X0226Y01442*
X0225*
X02245Y01447D02*
X02242Y0145D01*
X02237*
X02235Y01447*
Y01445*
X02237Y01442*
X02235Y0144*
Y01437*
X02237Y01435*
X02242*
X02245Y01437*
Y0144*
X02242Y01442*
X02245Y01445*
Y01447*
X02242Y01442D02*
X02237D01*
X0223Y01432D02*
X0222D01*
X02215Y0145D02*
Y01435D01*
X02207*
X02205Y01437*
Y01447*
X02207Y0145*
X02215*
X022Y01435D02*
Y0145D01*
X02192*
X0219Y01447*
Y01442*
X02192Y0144*
X022*
X02195D02*
X0219Y01435D01*
X02175D02*
X02185D01*
X02175Y01445*
Y01447*
X02177Y0145*
X02182*
X02185Y01447*
X02005Y01265D02*
Y01279D01*
X01997*
X01995Y01277*
Y01272*
X01997Y0127*
X02005*
X02D02*
X01995Y01265D01*
X01982D02*
Y01279D01*
X0199Y01272*
X0198*
X01975Y01279D02*
X01965D01*
Y01277*
X01975Y01267*
Y01265*
X0196Y01262D02*
X0195D01*
X01945Y01279D02*
Y01265D01*
X01937*
X01935Y01267*
Y01277*
X01937Y01279*
X01945*
X0193Y01265D02*
Y01279D01*
X01922*
X0192Y01277*
Y01272*
X01922Y0127*
X0193*
X01925D02*
X0192Y01265D01*
X01905D02*
X01915D01*
X01905Y01275*
Y01277*
X01907Y01279*
X01912*
X01915Y01277*
X0406Y01255D02*
Y01269D01*
X04052*
X0405Y01267*
Y01262*
X04052Y0126*
X0406*
X04055D02*
X0405Y01255D01*
X04037D02*
Y01269D01*
X04045Y01262*
X04035*
X0403Y01269D02*
X0402D01*
Y01267*
X0403Y01257*
Y01255*
X04015Y01252D02*
X04005D01*
X04Y01269D02*
Y01255D01*
X03992*
X0399Y01257*
Y01267*
X03992Y01269*
X04*
X03985Y01255D02*
Y01269D01*
X03977*
X03975Y01267*
Y01262*
X03977Y0126*
X03985*
X0398D02*
X03975Y01255D01*
X0397D02*
X03965D01*
X03967*
Y01269*
X0397Y01267*
X0234Y01375D02*
X02355D01*
Y01382*
X02352Y01385*
X02347*
X02345Y01382*
Y01375*
Y0138D02*
X0234Y01385D01*
Y01397D02*
X02355D01*
X02347Y01389*
Y01399*
X02355Y01414D02*
X02352Y01409D01*
X02347Y01404*
X02342*
X0234Y01407*
Y01412*
X02342Y01414*
X02345*
X02347Y01412*
Y01404*
X02337Y01419D02*
Y01429D01*
X02355Y01434D02*
X0234D01*
Y01442*
X02342Y01444*
X02352*
X02355Y01442*
Y01434*
X0234Y01449D02*
X02355D01*
Y01457*
X02352Y01459*
X02347*
X02345Y01457*
Y01449*
Y01454D02*
X0234Y01459D01*
Y01474D02*
Y01464D01*
X0235Y01474*
X02352*
X02355Y01472*
Y01467*
X02352Y01464*
X0241Y01405D02*
X02424D01*
Y01412*
X02422Y01415*
X02417*
X02415Y01412*
Y01405*
Y0141D02*
X0241Y01415D01*
Y01427D02*
X02424D01*
X02417Y01419*
Y01429*
X02424Y01444D02*
Y01434D01*
X02417*
X0242Y01439*
Y01442*
X02417Y01444*
X02412*
X0241Y01442*
Y01437*
X02412Y01434*
X02407Y01449D02*
Y01459D01*
X02424Y01464D02*
X0241D01*
Y01472*
X02412Y01474*
X02422*
X02424Y01472*
Y01464*
X0241Y01479D02*
X02424D01*
Y01487*
X02422Y01489*
X02417*
X02415Y01487*
Y01479*
Y01484D02*
X0241Y01489D01*
Y01504D02*
Y01494D01*
X0242Y01504*
X02422*
X02424Y01502*
Y01497*
X02422Y01494*
X02225Y01285D02*
Y01299D01*
X02217*
X02215Y01297*
Y01292*
X02217Y0129*
X02225*
X0222D02*
X02215Y01285D01*
X02202D02*
Y01299D01*
X0221Y01292*
X022*
X02187Y01285D02*
Y01299D01*
X02195Y01292*
X02185*
X0218Y01282D02*
X0217D01*
X02165Y01299D02*
Y01285D01*
X02157*
X02155Y01287*
Y01297*
X02157Y01299*
X02165*
X0215Y01285D02*
Y01299D01*
X02142*
X0214Y01297*
Y01292*
X02142Y0129*
X0215*
X02145D02*
X0214Y01285D01*
X02125D02*
X02135D01*
X02125Y01295*
Y01297*
X02127Y01299*
X02132*
X02135Y01297*
X0423Y0145D02*
Y01465D01*
X04222*
X0422Y01462*
Y01457*
X04222Y01455*
X0423*
X04225D02*
X0422Y0145D01*
X04207D02*
Y01465D01*
X04215Y01457*
X04205*
X04192Y0145D02*
Y01465D01*
X042Y01457*
X0419*
X04185Y01447D02*
X04175D01*
X0417Y01465D02*
Y0145D01*
X04162*
X0416Y01452*
Y01462*
X04162Y01465*
X0417*
X04155Y0145D02*
Y01465D01*
X04147*
X04145Y01462*
Y01457*
X04147Y01455*
X04155*
X0415D02*
X04145Y0145D01*
X0414D02*
X04135D01*
X04137*
Y01465*
X0414Y01462*
X02925Y02812D02*
Y02822D01*
X02927Y02825*
X02932*
X02935Y02822*
Y02812*
X02932Y0281*
X02927*
X0293Y02815D02*
X02925Y0281D01*
X02927D02*
X02925Y02812D01*
X0291Y02825D02*
X02915Y02822D01*
X0292Y02817*
Y02812*
X02917Y0281*
X02912*
X0291Y02812*
Y02815*
X02912Y02817*
X0292*
X02905Y02807D02*
X02895D01*
X0289Y02825D02*
X02885D01*
X02887*
Y0281*
X0289*
X02885*
X02877D02*
Y02825D01*
X0287*
X02867Y02822*
Y02817*
X0287Y02815*
X02877*
X02872D02*
X02867Y0281D01*
X02852Y02825D02*
X02862D01*
Y02817*
X02857*
X02862*
Y0281*
X02837Y02822D02*
X0284Y02825D01*
X02845*
X02847Y02822*
Y0282*
X02845Y02817*
X0284*
X02837Y02815*
Y02812*
X0284Y0281*
X02845*
X02847Y02812*
X02822Y0281D02*
X02832D01*
X02822Y0282*
Y02822*
X02825Y02825*
X0283*
X02832Y02822*
X0489Y02877D02*
Y02887D01*
X04892Y0289*
X04897*
X049Y02887*
Y02877*
X04897Y02875*
X04892*
X04895Y0288D02*
X0489Y02875D01*
X04892D02*
X0489Y02877D01*
X04875Y0289D02*
X0488Y02887D01*
X04885Y02882*
Y02877*
X04882Y02875*
X04877*
X04875Y02877*
Y0288*
X04877Y02882*
X04885*
X0487Y02872D02*
X0486D01*
X04855Y0289D02*
X0485D01*
X04852*
Y02875*
X04855*
X0485*
X04842D02*
Y0289D01*
X04835*
X04832Y02887*
Y02882*
X04835Y0288*
X04842*
X04837D02*
X04832Y02875D01*
X04817Y0289D02*
X04827D01*
Y02882*
X04822*
X04827*
Y02875*
X04802Y02887D02*
X04805Y0289D01*
X0481*
X04812Y02887*
Y02885*
X0481Y02882*
X04805*
X04802Y0288*
Y02877*
X04805Y02875*
X0481*
X04812Y02877*
X04797Y02875D02*
X04792D01*
X04795*
Y0289*
X04797Y02887*
X02796Y03637D02*
Y03647D01*
X02798Y0365*
X02803*
X02806Y03647*
Y03637*
X02803Y03635*
X02798*
X02801Y0364D02*
X02796Y03635D01*
X02798D02*
X02796Y03637D01*
X02781Y0365D02*
X02791D01*
Y03642*
X02786Y03645*
X02783*
X02781Y03642*
Y03637*
X02783Y03635*
X02788*
X02791Y03637*
X02776Y03632D02*
X02766D01*
X02761Y0365D02*
X02756D01*
X02758*
Y03635*
X02761*
X02756*
X02748D02*
Y0365D01*
X02741*
X02738Y03647*
Y03642*
X02741Y0364*
X02748*
X02743D02*
X02738Y03635D01*
X02723Y0365D02*
X02733D01*
Y03642*
X02728*
X02733*
Y03635*
X02708Y03647D02*
X02711Y0365D01*
X02716*
X02718Y03647*
Y03645*
X02716Y03642*
X02711*
X02708Y0364*
Y03637*
X02711Y03635*
X02716*
X02718Y03637*
X02693Y03635D02*
X02703D01*
X02693Y03645*
Y03647*
X02696Y0365*
X02701*
X02703Y03647*
X04836Y03667D02*
Y03677D01*
X04838Y0368*
X04843*
X04846Y03677*
Y03667*
X04843Y03665*
X04838*
X04841Y0367D02*
X04836Y03665D01*
X04838D02*
X04836Y03667D01*
X04821Y0368D02*
X04831D01*
Y03672*
X04826Y03675*
X04823*
X04821Y03672*
Y03667*
X04823Y03665*
X04828*
X04831Y03667*
X04816Y03662D02*
X04806D01*
X04801Y0368D02*
X04796D01*
X04798*
Y03665*
X04801*
X04796*
X04788D02*
Y0368D01*
X04781*
X04778Y03677*
Y03672*
X04781Y0367*
X04788*
X04783D02*
X04778Y03665D01*
X04763Y0368D02*
X04773D01*
Y03672*
X04768*
X04773*
Y03665*
X04748Y03677D02*
X04751Y0368D01*
X04756*
X04758Y03677*
Y03675*
X04756Y03672*
X04751*
X04748Y0367*
Y03667*
X04751Y03665*
X04756*
X04758Y03667*
X04743Y03665D02*
X04738D01*
X04741*
Y0368*
X04743Y03677*
X0236Y02852D02*
Y02862D01*
X02362Y02865*
X02367*
X0237Y02862*
Y02852*
X02367Y0285*
X02362*
X02365Y02855D02*
X0236Y0285D01*
X02362D02*
X0236Y02852D01*
X02347Y0285D02*
Y02865D01*
X02355Y02857*
X02345*
X0234Y02847D02*
X0233D01*
X02325Y02865D02*
X0232D01*
X02322*
Y0285*
X02325*
X0232*
X02312D02*
Y02865D01*
X02305*
X02302Y02862*
Y02857*
X02305Y02855*
X02312*
X02307D02*
X02302Y0285D01*
X02287Y02865D02*
X02297D01*
Y02857*
X02292*
X02297*
Y0285*
X02272Y02862D02*
X02275Y02865D01*
X0228*
X02282Y02862*
Y0286*
X0228Y02857*
X02275*
X02272Y02855*
Y02852*
X02275Y0285*
X0228*
X02282Y02852*
X02257Y0285D02*
X02267D01*
X02257Y0286*
Y02862*
X0226Y02865*
X02265*
X02267Y02862*
X0438Y02872D02*
Y02882D01*
X04382Y02884*
X04387*
X0439Y02882*
Y02872*
X04387Y0287*
X04382*
X04385Y02875D02*
X0438Y0287D01*
X04382D02*
X0438Y02872D01*
X04367Y0287D02*
Y02884D01*
X04375Y02877*
X04365*
X0436Y02867D02*
X0435D01*
X04345Y02884D02*
X0434D01*
X04342*
Y0287*
X04345*
X0434*
X04332D02*
Y02884D01*
X04325*
X04322Y02882*
Y02877*
X04325Y02875*
X04332*
X04327D02*
X04322Y0287D01*
X04307Y02884D02*
X04317D01*
Y02877*
X04312*
X04317*
Y0287*
X04292Y02882D02*
X04295Y02884D01*
X043*
X04302Y02882*
Y0288*
X043Y02877*
X04295*
X04292Y02875*
Y02872*
X04295Y0287*
X043*
X04302Y02872*
X04287Y0287D02*
X04282D01*
X04285*
Y02884*
X04287Y02882*
X02286Y03637D02*
Y03647D01*
X02288Y0365*
X02293*
X02296Y03647*
Y03637*
X02293Y03635*
X02288*
X02291Y0364D02*
X02286Y03635D01*
X02288D02*
X02286Y03637D01*
X02281Y03647D02*
X02278Y0365D01*
X02273*
X02271Y03647*
Y03645*
X02273Y03642*
X02276*
X02273*
X02271Y0364*
Y03637*
X02273Y03635*
X02278*
X02281Y03637*
X02266Y03632D02*
X02256D01*
X02251Y0365D02*
X02246D01*
X02248*
Y03635*
X02251*
X02246*
X02238D02*
Y0365D01*
X02231*
X02228Y03647*
Y03642*
X02231Y0364*
X02238*
X02233D02*
X02228Y03635D01*
X02213Y0365D02*
X02223D01*
Y03642*
X02218*
X02223*
Y03635*
X02198Y03647D02*
X02201Y0365D01*
X02206*
X02208Y03647*
Y03645*
X02206Y03642*
X02201*
X02198Y0364*
Y03637*
X02201Y03635*
X02206*
X02208Y03637*
X02183Y03635D02*
X02193D01*
X02183Y03645*
Y03647*
X02186Y0365*
X02191*
X02193Y03647*
X0431Y03657D02*
Y03667D01*
X04312Y0367*
X04317*
X0432Y03667*
Y03657*
X04317Y03655*
X04312*
X04315Y0366D02*
X0431Y03655D01*
X04312D02*
X0431Y03657D01*
X04305Y03667D02*
X04302Y0367D01*
X04297*
X04295Y03667*
Y03665*
X04297Y03662*
X043*
X04297*
X04295Y0366*
Y03657*
X04297Y03655*
X04302*
X04305Y03657*
X0429Y03652D02*
X0428D01*
X04275Y0367D02*
X0427D01*
X04272*
Y03655*
X04275*
X0427*
X04262D02*
Y0367D01*
X04255*
X04252Y03667*
Y03662*
X04255Y0366*
X04262*
X04257D02*
X04252Y03655D01*
X04237Y0367D02*
X04247D01*
Y03662*
X04242*
X04247*
Y03655*
X04222Y03667D02*
X04225Y0367D01*
X0423*
X04232Y03667*
Y03665*
X0423Y03662*
X04225*
X04222Y0366*
Y03657*
X04225Y03655*
X0423*
X04232Y03657*
X04217Y03655D02*
X04212D01*
X04215*
Y0367*
X04217Y03667*
X0183Y02847D02*
Y02857D01*
X01832Y02859*
X01837*
X0184Y02857*
Y02847*
X01837Y02845*
X01832*
X01835Y0285D02*
X0183Y02845D01*
X01832D02*
X0183Y02847D01*
X01815Y02845D02*
X01825D01*
X01815Y02855*
Y02857*
X01817Y02859*
X01822*
X01825Y02857*
X0181Y02842D02*
X018D01*
X01795Y02859D02*
X0179D01*
X01792*
Y02845*
X01795*
X0179*
X01782D02*
Y02859D01*
X01775*
X01772Y02857*
Y02852*
X01775Y0285*
X01782*
X01777D02*
X01772Y02845D01*
X01757Y02859D02*
X01767D01*
Y02852*
X01762*
X01767*
Y02845*
X01742Y02857D02*
X01745Y02859D01*
X0175*
X01752Y02857*
Y02855*
X0175Y02852*
X01745*
X01742Y0285*
Y02847*
X01745Y02845*
X0175*
X01752Y02847*
X01727Y02845D02*
X01737D01*
X01727Y02855*
Y02857*
X0173Y02859*
X01735*
X01737Y02857*
X03865Y02877D02*
Y02887D01*
X03867Y0289*
X03872*
X03875Y02887*
Y02877*
X03872Y02875*
X03867*
X0387Y0288D02*
X03865Y02875D01*
X03867D02*
X03865Y02877D01*
X0385Y02875D02*
X0386D01*
X0385Y02885*
Y02887*
X03852Y0289*
X03857*
X0386Y02887*
X03845Y02872D02*
X03835D01*
X0383Y0289D02*
X03825D01*
X03827*
Y02875*
X0383*
X03825*
X03817D02*
Y0289D01*
X0381*
X03807Y02887*
Y02882*
X0381Y0288*
X03817*
X03812D02*
X03807Y02875D01*
X03792Y0289D02*
X03802D01*
Y02882*
X03797*
X03802*
Y02875*
X03777Y02887D02*
X0378Y0289D01*
X03785*
X03787Y02887*
Y02885*
X03785Y02882*
X0378*
X03777Y0288*
Y02877*
X0378Y02875*
X03785*
X03787Y02877*
X03772Y02875D02*
X03767D01*
X0377*
Y0289*
X03772Y02887*
X01776Y03637D02*
Y03647D01*
X01778Y0365*
X01783*
X01786Y03647*
Y03637*
X01783Y03635*
X01778*
X01781Y0364D02*
X01776Y03635D01*
X01778D02*
X01776Y03637D01*
X01771Y03635D02*
X01766D01*
X01768*
Y0365*
X01771Y03647*
X01758Y03632D02*
X01748D01*
X01743Y0365D02*
X01738D01*
X01741*
Y03635*
X01743*
X01738*
X01731D02*
Y0365D01*
X01723*
X01721Y03647*
Y03642*
X01723Y0364*
X01731*
X01726D02*
X01721Y03635D01*
X01706Y0365D02*
X01716D01*
Y03642*
X01711*
X01716*
Y03635*
X01691Y03647D02*
X01693Y0365D01*
X01698*
X01701Y03647*
Y03645*
X01698Y03642*
X01693*
X01691Y0364*
Y03637*
X01693Y03635*
X01698*
X01701Y03637*
X01676Y03635D02*
X01686D01*
X01676Y03645*
Y03647*
X01678Y0365*
X01683*
X01686Y03647*
X03816Y03667D02*
Y03677D01*
X03818Y0368*
X03823*
X03826Y03677*
Y03667*
X03823Y03665*
X03818*
X03821Y0367D02*
X03816Y03665D01*
X03818D02*
X03816Y03667D01*
X03811Y03665D02*
X03806D01*
X03808*
Y0368*
X03811Y03677*
X03798Y03662D02*
X03788D01*
X03783Y0368D02*
X03778D01*
X03781*
Y03665*
X03783*
X03778*
X03771D02*
Y0368D01*
X03763*
X03761Y03677*
Y03672*
X03763Y0367*
X03771*
X03766D02*
X03761Y03665D01*
X03746Y0368D02*
X03756D01*
Y03672*
X03751*
X03756*
Y03665*
X03731Y03677D02*
X03733Y0368D01*
X03738*
X03741Y03677*
Y03675*
X03738Y03672*
X03733*
X03731Y0367*
Y03667*
X03733Y03665*
X03738*
X03741Y03667*
X03726Y03665D02*
X03721D01*
X03723*
Y0368*
X03726Y03677*
X01355Y02065D02*
X0134D01*
Y02075*
Y02087D02*
X01355D01*
X01347Y02079*
Y02089*
X01345Y02755D02*
Y0274D01*
X01337*
X01335Y02742*
Y02752*
X01337Y02755*
X01345*
X0133Y02752D02*
X01327Y02755D01*
X01322*
X0132Y02752*
Y0275*
X01322Y02747*
X01325*
X01322*
X0132Y02745*
Y02742*
X01322Y0274*
X01327*
X0133Y02742*
X01315Y02737D02*
X01305D01*
X013Y02755D02*
Y0274D01*
X01292*
X0129Y02742*
Y02752*
X01292Y02755*
X013*
X01285Y0274D02*
Y02755D01*
X01277*
X01275Y02752*
Y02747*
X01277Y02745*
X01285*
X0128D02*
X01275Y0274D01*
X0126D02*
X0127D01*
X0126Y0275*
Y02752*
X01262Y02755*
X01267*
X0127Y02752*
X03414Y026D02*
X034D01*
Y02607*
X03402Y0261*
X03412*
X03414Y02607*
Y026*
X03412Y02615D02*
X03414Y02617D01*
Y02622*
X03412Y02624*
X0341*
X03407Y02622*
Y02619*
Y02622*
X03405Y02624*
X03402*
X034Y02622*
Y02617*
X03402Y02615*
X03397Y02629D02*
Y02639D01*
X03414Y02644D02*
X034D01*
Y02652*
X03402Y02654*
X03412*
X03414Y02652*
Y02644*
X034Y02659D02*
X03414D01*
Y02667*
X03412Y02669*
X03407*
X03405Y02667*
Y02659*
Y02664D02*
X034Y02669D01*
Y02674D02*
Y02679D01*
Y02677*
X03414*
X03412Y02674*
X01125Y01894D02*
Y0188D01*
X01117*
X01115Y01882*
Y01892*
X01117Y01894*
X01125*
X011Y0188D02*
X0111D01*
X011Y0189*
Y01892*
X01102Y01894*
X01107*
X0111Y01892*
X0073Y02232D02*
X00732Y02234D01*
X00737*
X0074Y02232*
Y02222*
X00737Y0222*
X00732*
X0073Y02222*
X00715Y02234D02*
X00725D01*
Y02227*
X0072Y0223*
X00717*
X00715Y02227*
Y02222*
X00717Y0222*
X00722*
X00725Y02222*
X0071Y02234D02*
X007D01*
Y02232*
X0071Y02222*
Y0222*
X01782Y01865D02*
X0178Y01867D01*
Y01872*
X01782Y01875*
X01792*
X01795Y01872*
Y01867*
X01792Y01865*
X0178Y0185D02*
Y0186D01*
X01787*
X01785Y01855*
Y01852*
X01787Y0185*
X01792*
X01795Y01852*
Y01857*
X01792Y0186*
X0178Y01835D02*
X01782Y0184D01*
X01787Y01845*
X01792*
X01795Y01842*
Y01837*
X01792Y01835*
X0179*
X01787Y01837*
Y01845*
X01797Y0183D02*
Y0182D01*
X0178Y01815D02*
X01795D01*
Y01807*
X01792Y01805*
X01782*
X0178Y01807*
Y01815*
X01795Y018D02*
X0178D01*
Y01792*
X01782Y0179*
X01787*
X0179Y01792*
Y018*
Y01795D02*
X01795Y0179D01*
Y01775D02*
Y01785D01*
X01785Y01775*
X01782*
X0178Y01777*
Y01782*
X01782Y01785*
X0387Y01892D02*
X03872Y01894D01*
X03877*
X0388Y01892*
Y01882*
X03877Y0188*
X03872*
X0387Y01882*
X03855Y01894D02*
X03865D01*
Y01887*
X0386Y0189*
X03857*
X03855Y01887*
Y01882*
X03857Y0188*
X03862*
X03865Y01882*
X0384Y01894D02*
X03845Y01892D01*
X0385Y01887*
Y01882*
X03847Y0188*
X03842*
X0384Y01882*
Y01885*
X03842Y01887*
X0385*
X03835Y01877D02*
X03825D01*
X0382Y01894D02*
Y0188D01*
X03812*
X0381Y01882*
Y01892*
X03812Y01894*
X0382*
X03805Y0188D02*
Y01894D01*
X03797*
X03795Y01892*
Y01887*
X03797Y01885*
X03805*
X038D02*
X03795Y0188D01*
X0379D02*
X03785D01*
X03787*
Y01894*
X0379Y01892*
X03022Y01695D02*
X03025Y01692D01*
Y01687*
X03022Y01685*
X03012*
X0301Y01687*
Y01692*
X03012Y01695*
X03025Y01709D02*
Y017D01*
X03017*
X0302Y01704*
Y01707*
X03017Y01709*
X03012*
X0301Y01707*
Y01702*
X03012Y017*
X0301Y01722D02*
X03025D01*
X03017Y01714*
Y01724*
X03007Y01729D02*
Y01739D01*
X03025Y01744D02*
X0301D01*
Y01752*
X03012Y01754*
X03022*
X03025Y01752*
Y01744*
X0301Y01759D02*
X03025D01*
Y01767*
X03022Y01769*
X03017*
X03015Y01767*
Y01759*
Y01764D02*
X0301Y01769D01*
Y01784D02*
Y01774D01*
X0302Y01784*
X03022*
X03025Y01782*
Y01777*
X03022Y01774*
X02852Y0271D02*
X0285Y02712D01*
Y02717*
X02852Y0272*
X02862*
X02865Y02717*
Y02712*
X02862Y0271*
X0285Y02695D02*
Y02705D01*
X02857*
X02855Y027*
Y02697*
X02857Y02695*
X02862*
X02865Y02697*
Y02702*
X02862Y02705*
X02865Y02682D02*
X0285D01*
X02857Y0269*
Y0268*
X02867Y02675D02*
Y02665D01*
X0285Y0266D02*
X02865D01*
Y02652*
X02862Y0265*
X02852*
X0285Y02652*
Y0266*
X02865Y02645D02*
X0285D01*
Y02637*
X02852Y02635*
X02857*
X0286Y02637*
Y02645*
Y0264D02*
X02865Y02635D01*
Y0263D02*
Y02625D01*
Y02627*
X0285*
X02852Y0263*
X02002Y01917D02*
X02005Y01919D01*
X0201*
X02012Y01917*
Y01907*
X0201Y01905*
X02005*
X02002Y01907*
X01987Y01919D02*
X01997D01*
Y01912*
X01992Y01915*
X0199*
X01987Y01912*
Y01907*
X0199Y01905*
X01995*
X01997Y01907*
X01982Y01917D02*
X0198Y01919D01*
X01975*
X01972Y01917*
Y01915*
X01975Y01912*
X01977*
X01975*
X01972Y0191*
Y01907*
X01975Y01905*
X0198*
X01982Y01907*
X01967Y01902D02*
X01957D01*
X01952Y01919D02*
Y01905D01*
X01945*
X01942Y01907*
Y01917*
X01945Y01919*
X01952*
X01937Y01905D02*
Y01919D01*
X0193*
X01927Y01917*
Y01912*
X0193Y0191*
X01937*
X01932D02*
X01927Y01905D01*
X01912D02*
X01922D01*
X01912Y01915*
Y01917*
X01915Y01919*
X0192*
X01922Y01917*
X0402Y01982D02*
X04022Y01985D01*
X04027*
X0403Y01982*
Y01972*
X04027Y0197*
X04022*
X0402Y01972*
X04005Y01985D02*
X04015D01*
Y01977*
X0401Y0198*
X04007*
X04005Y01977*
Y01972*
X04007Y0197*
X04012*
X04015Y01972*
X04Y01982D02*
X03997Y01985D01*
X03992*
X0399Y01982*
Y0198*
X03992Y01977*
X03995*
X03992*
X0399Y01975*
Y01972*
X03992Y0197*
X03997*
X04Y01972*
X03985Y01967D02*
X03975D01*
X0397Y01985D02*
Y0197D01*
X03962*
X0396Y01972*
Y01982*
X03962Y01985*
X0397*
X03955Y0197D02*
Y01985D01*
X03947*
X03945Y01982*
Y01977*
X03947Y01975*
X03955*
X0395D02*
X03945Y0197D01*
X0394D02*
X03935D01*
X03937*
Y01985*
X0394Y01982*
X02138Y01953D02*
X0214Y01955D01*
X02143*
X02145Y01953*
Y01946*
X02143Y01945*
X0214*
X02138Y01946*
X02128Y01955D02*
X02135D01*
Y0195*
X02131Y01951*
X0213*
X02128Y0195*
Y01946*
X0213Y01945*
X02133*
X02135Y01946*
X02118Y01945D02*
X02125D01*
X02118Y01951*
Y01953*
X0212Y01955*
X02123*
X02125Y01953*
X02115Y01943D02*
X02108D01*
X02105Y01955D02*
Y01945D01*
X021*
X02098Y01946*
Y01953*
X021Y01955*
X02105*
X02095Y01945D02*
Y01955D01*
X0209*
X02088Y01953*
Y0195*
X0209Y01948*
X02095*
X02091D02*
X02088Y01945D01*
X02078D02*
X02085D01*
X02078Y01951*
Y01953*
X0208Y01955*
X02083*
X02085Y01953*
X0416Y01977D02*
X04162Y0198D01*
X04167*
X0417Y01977*
Y01967*
X04167Y01965*
X04162*
X0416Y01967*
X04145Y0198D02*
X04155D01*
Y01972*
X0415Y01975*
X04147*
X04145Y01972*
Y01967*
X04147Y01965*
X04152*
X04155Y01967*
X0413Y01965D02*
X0414D01*
X0413Y01975*
Y01977*
X04132Y0198*
X04137*
X0414Y01977*
X04125Y01962D02*
X04115D01*
X0411Y0198D02*
Y01965D01*
X04102*
X041Y01967*
Y01977*
X04102Y0198*
X0411*
X04095Y01965D02*
Y0198D01*
X04087*
X04085Y01977*
Y01972*
X04087Y0197*
X04095*
X0409D02*
X04085Y01965D01*
X0408D02*
X04075D01*
X04077*
Y0198*
X0408Y01977*
X02184Y01976D02*
X02186Y01977D01*
X02188*
X0219Y01976*
Y01971*
X02188Y0197*
X02186*
X02184Y01971*
X02176Y01977D02*
X02182D01*
Y01973*
X02179Y01975*
X02178*
X02176Y01973*
Y01971*
X02178Y0197*
X0218*
X02182Y01971*
X02174Y0197D02*
X02171D01*
X02172*
Y01977*
X02174Y01976*
X02167Y01968D02*
X02162D01*
X02159Y01977D02*
Y0197D01*
X02155*
X02154Y01971*
Y01976*
X02155Y01977*
X02159*
X02151Y0197D02*
Y01977D01*
X02148*
X02146Y01976*
Y01973*
X02148Y01972*
X02151*
X02149D02*
X02146Y0197D01*
X02138D02*
X02144D01*
X02138Y01975*
Y01976*
X0214Y01977*
X02142*
X02144Y01976*
X0426Y01912D02*
X04262Y01914D01*
X04267*
X0427Y01912*
Y01902*
X04267Y019*
X04262*
X0426Y01902*
X04245Y01914D02*
X04255D01*
Y01907*
X0425Y0191*
X04247*
X04245Y01907*
Y01902*
X04247Y019*
X04252*
X04255Y01902*
X0424Y019D02*
X04235D01*
X04237*
Y01914*
X0424Y01912*
X04227Y01897D02*
X04217D01*
X04212Y01914D02*
Y019D01*
X04205*
X04202Y01902*
Y01912*
X04205Y01914*
X04212*
X04197Y019D02*
Y01914D01*
X0419*
X04187Y01912*
Y01907*
X0419Y01905*
X04197*
X04192D02*
X04187Y019D01*
X04182D02*
X04177D01*
X0418*
Y01914*
X04182Y01912*
X01615Y01277D02*
X01617Y01279D01*
X01622*
X01625Y01277*
Y01267*
X01622Y01265*
X01617*
X01615Y01267*
X01602Y01265D02*
Y01279D01*
X0161Y01272*
X016*
X01595Y01267D02*
X01592Y01265D01*
X01587*
X01585Y01267*
Y01277*
X01587Y01279*
X01592*
X01595Y01277*
Y01275*
X01592Y01272*
X01585*
X0158Y01262D02*
X0157D01*
X01565Y01279D02*
Y01265D01*
X01557*
X01555Y01267*
Y01277*
X01557Y01279*
X01565*
X0155Y01265D02*
Y01279D01*
X01542*
X0154Y01277*
Y01272*
X01542Y0127*
X0155*
X01545D02*
X0154Y01265D01*
X01525D02*
X01535D01*
X01525Y01275*
Y01277*
X01527Y01279*
X01532*
X01535Y01277*
X01845D02*
X01847Y01279D01*
X01852*
X01855Y01277*
Y01267*
X01852Y01265*
X01847*
X01845Y01267*
X01832Y01265D02*
Y01279D01*
X0184Y01272*
X0183*
X01825Y01277D02*
X01822Y01279D01*
X01817*
X01815Y01277*
Y01275*
X01817Y01272*
X01815Y0127*
Y01267*
X01817Y01265*
X01822*
X01825Y01267*
Y0127*
X01822Y01272*
X01825Y01275*
Y01277*
X01822Y01272D02*
X01817D01*
X0181Y01262D02*
X018D01*
X01795Y01279D02*
Y01265D01*
X01787*
X01785Y01267*
Y01277*
X01787Y01279*
X01795*
X0178Y01265D02*
Y01279D01*
X01772*
X0177Y01277*
Y01272*
X01772Y0127*
X0178*
X01775D02*
X0177Y01265D01*
X01755D02*
X01765D01*
X01755Y01275*
Y01277*
X01757Y01279*
X01762*
X01765Y01277*
X03925Y01412D02*
X03927Y01414D01*
X03932*
X03935Y01412*
Y01402*
X03932Y014*
X03927*
X03925Y01402*
X03912Y014D02*
Y01414D01*
X0392Y01407*
X0391*
X03905Y01412D02*
X03902Y01414D01*
X03897*
X03895Y01412*
Y0141*
X03897Y01407*
X03895Y01405*
Y01402*
X03897Y014*
X03902*
X03905Y01402*
Y01405*
X03902Y01407*
X03905Y0141*
Y01412*
X03902Y01407D02*
X03897D01*
X0389Y01397D02*
X0388D01*
X03875Y01414D02*
Y014D01*
X03867*
X03865Y01402*
Y01412*
X03867Y01414*
X03875*
X0386Y014D02*
Y01414D01*
X03852*
X0385Y01412*
Y01407*
X03852Y01405*
X0386*
X03855D02*
X0385Y014D01*
X03845D02*
X0384D01*
X03842*
Y01414*
X03845Y01412*
X01665Y01547D02*
X01667Y01549D01*
X01672*
X01675Y01547*
Y01537*
X01672Y01535*
X01667*
X01665Y01537*
X01652Y01535D02*
Y01549D01*
X0166Y01542*
X0165*
X01645Y01549D02*
X01635D01*
Y01547*
X01645Y01537*
Y01535*
X0163Y01532D02*
X0162D01*
X01615Y01549D02*
Y01535D01*
X01607*
X01605Y01537*
Y01547*
X01607Y01549*
X01615*
X016Y01535D02*
Y01549D01*
X01592*
X0159Y01547*
Y01542*
X01592Y0154*
X016*
X01595D02*
X0159Y01535D01*
X01575D02*
X01585D01*
X01575Y01545*
Y01547*
X01577Y01549*
X01582*
X01585Y01547*
X01687Y01475D02*
X01685Y01477D01*
Y01482*
X01687Y01485*
X01697*
X017Y01482*
Y01477*
X01697Y01475*
X017Y01462D02*
X01685D01*
X01692Y0147*
Y0146*
X01685Y01445D02*
X01687Y0145D01*
X01692Y01455*
X01697*
X017Y01452*
Y01447*
X01697Y01445*
X01695*
X01692Y01447*
Y01455*
X01702Y0144D02*
Y0143D01*
X01685Y01425D02*
X017D01*
Y01417*
X01697Y01415*
X01687*
X01685Y01417*
Y01425*
X017Y0141D02*
X01685D01*
Y01402*
X01687Y014*
X01692*
X01695Y01402*
Y0141*
Y01405D02*
X017Y014D01*
Y01385D02*
Y01395D01*
X0169Y01385*
X01687*
X01685Y01387*
Y01392*
X01687Y01395*
X03757Y015D02*
X03755Y01502D01*
Y01507*
X03757Y0151*
X03767*
X0377Y01507*
Y01502*
X03767Y015*
X0377Y01487D02*
X03755D01*
X03762Y01495*
Y01485*
X03755Y0147D02*
X03757Y01475D01*
X03762Y0148*
X03767*
X0377Y01477*
Y01472*
X03767Y0147*
X03765*
X03762Y01472*
Y0148*
X03772Y01465D02*
Y01455D01*
X03755Y0145D02*
X0377D01*
Y01442*
X03767Y0144*
X03757*
X03755Y01442*
Y0145*
X0377Y01435D02*
X03755D01*
Y01427*
X03757Y01425*
X03762*
X03765Y01427*
Y01435*
Y0143D02*
X0377Y01425D01*
Y0142D02*
Y01415D01*
Y01417*
X03755*
X03757Y0142*
X0225Y01262D02*
X02252Y01264D01*
X02257*
X0226Y01262*
Y01252*
X02257Y0125*
X02252*
X0225Y01252*
X02237Y0125D02*
Y01264D01*
X02245Y01257*
X02235*
X0222Y01264D02*
X0223D01*
Y01257*
X02225Y0126*
X02222*
X0222Y01257*
Y01252*
X02222Y0125*
X02227*
X0223Y01252*
X02215Y01247D02*
X02205D01*
X022Y01264D02*
Y0125D01*
X02192*
X0219Y01252*
Y01262*
X02192Y01264*
X022*
X02185Y0125D02*
Y01264D01*
X02177*
X02175Y01262*
Y01257*
X02177Y01255*
X02185*
X0218D02*
X02175Y0125D01*
X0216D02*
X0217D01*
X0216Y0126*
Y01262*
X02162Y01264*
X02167*
X0217Y01262*
X03385Y01272D02*
X03387Y01274D01*
X03392*
X03395Y01272*
Y01262*
X03392Y0126*
X03387*
X03385Y01262*
X03372Y0126D02*
Y01274D01*
X0338Y01267*
X0337*
X03355Y01274D02*
X03365D01*
Y01267*
X0336Y0127*
X03357*
X03355Y01267*
Y01262*
X03357Y0126*
X03362*
X03365Y01262*
X0335Y01257D02*
X0334D01*
X03335Y01274D02*
Y0126D01*
X03327*
X03325Y01262*
Y01272*
X03327Y01274*
X03335*
X0332Y0126D02*
Y01274D01*
X03312*
X0331Y01272*
Y01267*
X03312Y01265*
X0332*
X03315D02*
X0331Y0126D01*
X03305D02*
X033D01*
X03302*
Y01274*
X03305Y01272*
X0249Y01977D02*
X02492Y0198D01*
X02497*
X025Y01977*
Y01967*
X02497Y01965*
X02492*
X0249Y01967*
X02477Y01965D02*
Y0198D01*
X02485Y01972*
X02475*
X02462Y01965D02*
Y0198D01*
X0247Y01972*
X0246*
X02455Y01962D02*
X02445D01*
X0244Y0198D02*
Y01965D01*
X02432*
X0243Y01967*
Y01977*
X02432Y0198*
X0244*
X02425Y01965D02*
Y0198D01*
X02417*
X02415Y01977*
Y01972*
X02417Y0197*
X02425*
X0242D02*
X02415Y01965D01*
X024D02*
X0241D01*
X024Y01975*
Y01977*
X02402Y0198*
X02407*
X0241Y01977*
X04505Y01972D02*
X04507Y01975D01*
X04512*
X04515Y01972*
Y01962*
X04512Y0196*
X04507*
X04505Y01962*
X04492Y0196D02*
Y01975D01*
X045Y01967*
X0449*
X04477Y0196D02*
Y01975D01*
X04485Y01967*
X04475*
X0447Y01957D02*
X0446D01*
X04455Y01975D02*
Y0196D01*
X04447*
X04445Y01962*
Y01972*
X04447Y01975*
X04455*
X0444Y0196D02*
Y01975D01*
X04432*
X0443Y01972*
Y01967*
X04432Y01965*
X0444*
X04435D02*
X0443Y0196D01*
X04425D02*
X0442D01*
X04422*
Y01975*
X04425Y01972*
X0248Y01887D02*
X02482Y01889D01*
X02487*
X0249Y01887*
Y01877*
X02487Y01875*
X02482*
X0248Y01877*
X02467Y01875D02*
Y01889D01*
X02475Y01882*
X02465*
X0246Y01887D02*
X02457Y01889D01*
X02452*
X0245Y01887*
Y01885*
X02452Y01882*
X02455*
X02452*
X0245Y0188*
Y01877*
X02452Y01875*
X02457*
X0246Y01877*
X02445Y01872D02*
X02435D01*
X0243Y01889D02*
Y01875D01*
X02422*
X0242Y01877*
Y01887*
X02422Y01889*
X0243*
X02415Y01875D02*
Y01889D01*
X02407*
X02405Y01887*
Y01882*
X02407Y0188*
X02415*
X0241D02*
X02405Y01875D01*
X0239D02*
X024D01*
X0239Y01885*
Y01887*
X02392Y01889*
X02397*
X024Y01887*
X0451Y01907D02*
X04512Y01909D01*
X04517*
X0452Y01907*
Y01897*
X04517Y01895*
X04512*
X0451Y01897*
X04497Y01895D02*
Y01909D01*
X04505Y01902*
X04495*
X0449Y01907D02*
X04487Y01909D01*
X04482*
X0448Y01907*
Y01905*
X04482Y01902*
X04485*
X04482*
X0448Y019*
Y01897*
X04482Y01895*
X04487*
X0449Y01897*
X04475Y01892D02*
X04465D01*
X0446Y01909D02*
Y01895D01*
X04452*
X0445Y01897*
Y01907*
X04452Y01909*
X0446*
X04445Y01895D02*
Y01909D01*
X04437*
X04435Y01907*
Y01902*
X04437Y019*
X04445*
X0444D02*
X04435Y01895D01*
X0443D02*
X04425D01*
X04427*
Y01909*
X0443Y01907*
X02945Y01502D02*
X02947Y01504D01*
X02952*
X02955Y01502*
Y01492*
X02952Y0149*
X02947*
X02945Y01492*
X02932Y0149D02*
Y01504D01*
X0294Y01497*
X0293*
X02915Y0149D02*
X02925D01*
X02915Y015*
Y01502*
X02917Y01504*
X02922*
X02925Y01502*
X0291Y01487D02*
X029D01*
X02895Y01504D02*
Y0149D01*
X02887*
X02885Y01492*
Y01502*
X02887Y01504*
X02895*
X0288Y0149D02*
Y01504D01*
X02872*
X0287Y01502*
Y01497*
X02872Y01495*
X0288*
X02875D02*
X0287Y0149D01*
X02855D02*
X02865D01*
X02855Y015*
Y01502*
X02857Y01504*
X02862*
X02865Y01502*
X03427Y01295D02*
X0343Y01292D01*
Y01287*
X03427Y01285*
X03417*
X03415Y01287*
Y01292*
X03417Y01295*
X03415Y01307D02*
X0343D01*
X03422Y01299*
Y01309*
X03415Y01324D02*
Y01314D01*
X03425Y01324*
X03427*
X0343Y01322*
Y01317*
X03427Y01314*
X03412Y01329D02*
Y01339D01*
X0343Y01344D02*
X03415D01*
Y01352*
X03417Y01354*
X03427*
X0343Y01352*
Y01344*
X03415Y01359D02*
X0343D01*
Y01367*
X03427Y01369*
X03422*
X0342Y01367*
Y01359*
Y01364D02*
X03415Y01369D01*
Y01374D02*
Y01379D01*
Y01377*
X0343*
X03427Y01374*
X01657Y0146D02*
X01655Y01462D01*
Y01467*
X01657Y0147*
X01667*
X0167Y01467*
Y01462*
X01667Y0146*
X0167Y01447D02*
X01655D01*
X01662Y01455*
Y01445*
X0167Y0144D02*
Y01435D01*
Y01437*
X01655*
X01657Y0144*
X01672Y01427D02*
Y01417D01*
X01655Y01412D02*
X0167D01*
Y01405*
X01667Y01402*
X01657*
X01655Y01405*
Y01412*
X0167Y01397D02*
X01655D01*
Y0139*
X01657Y01387*
X01662*
X01665Y0139*
Y01397*
Y01392D02*
X0167Y01387D01*
Y01372D02*
Y01382D01*
X0166Y01372*
X01657*
X01655Y01375*
Y0138*
X01657Y01382*
X03375Y01612D02*
X03377Y01615D01*
X03382*
X03385Y01612*
Y01602*
X03382Y016*
X03377*
X03375Y01602*
X03362Y016D02*
Y01615D01*
X0337Y01607*
X0336*
X03355Y016D02*
X0335D01*
X03352*
Y01615*
X03355Y01612*
X03342Y01597D02*
X03332D01*
X03327Y01615D02*
Y016D01*
X0332*
X03317Y01602*
Y01612*
X0332Y01615*
X03327*
X03312Y016D02*
Y01615D01*
X03305*
X03302Y01612*
Y01607*
X03305Y01605*
X03312*
X03307D02*
X03302Y016D01*
X03297D02*
X03292D01*
X03295*
Y01615*
X03297Y01612*
X01702Y0135D02*
X017Y01352D01*
Y01357*
X01702Y0136*
X01712*
X01715Y01357*
Y01352*
X01712Y0135*
X01702Y01345D02*
X017Y01342D01*
Y01337*
X01702Y01335*
X01705*
X01707Y01337*
Y0134*
Y01337*
X0171Y01335*
X01712*
X01715Y01337*
Y01342*
X01712Y01345*
Y0133D02*
X01715Y01327D01*
Y01322*
X01712Y0132*
X01702*
X017Y01322*
Y01327*
X01702Y0133*
X01705*
X01707Y01327*
Y0132*
X01717Y01315D02*
Y01305D01*
X017Y013D02*
X01715D01*
Y01292*
X01712Y0129*
X01702*
X017Y01292*
Y013*
X01715Y01285D02*
X017D01*
Y01277*
X01702Y01275*
X01707*
X0171Y01277*
Y01285*
Y0128D02*
X01715Y01275D01*
Y0126D02*
Y0127D01*
X01705Y0126*
X01702*
X017Y01262*
Y01267*
X01702Y0127*
X03745Y01292D02*
X03747Y01294D01*
X03752*
X03755Y01292*
Y01282*
X03752Y0128*
X03747*
X03745Y01282*
X0374Y01292D02*
X03737Y01294D01*
X03732*
X0373Y01292*
Y0129*
X03732Y01287*
X03735*
X03732*
X0373Y01285*
Y01282*
X03732Y0128*
X03737*
X0374Y01282*
X03725D02*
X03722Y0128D01*
X03717*
X03715Y01282*
Y01292*
X03717Y01294*
X03722*
X03725Y01292*
Y0129*
X03722Y01287*
X03715*
X0371Y01277D02*
X037D01*
X03695Y01294D02*
Y0128D01*
X03687*
X03685Y01282*
Y01292*
X03687Y01294*
X03695*
X0368Y0128D02*
Y01294D01*
X03672*
X0367Y01292*
Y01287*
X03672Y01285*
X0368*
X03675D02*
X0367Y0128D01*
X03665D02*
X0366D01*
X03662*
Y01294*
X03665Y01292*
X02005Y01422D02*
X02007Y01424D01*
X02012*
X02015Y01422*
Y01412*
X02012Y0141*
X02007*
X02005Y01412*
X02Y01422D02*
X01997Y01424D01*
X01992*
X0199Y01422*
Y0142*
X01992Y01417*
X01995*
X01992*
X0199Y01415*
Y01412*
X01992Y0141*
X01997*
X02Y01412*
X01985Y01422D02*
X01982Y01424D01*
X01977*
X01975Y01422*
Y0142*
X01977Y01417*
X01975Y01415*
Y01412*
X01977Y0141*
X01982*
X01985Y01412*
Y01415*
X01982Y01417*
X01985Y0142*
Y01422*
X01982Y01417D02*
X01977D01*
X0197Y01407D02*
X0196D01*
X01955Y01424D02*
Y0141D01*
X01947*
X01945Y01412*
Y01422*
X01947Y01424*
X01955*
X0194Y0141D02*
Y01424D01*
X01932*
X0193Y01422*
Y01417*
X01932Y01415*
X0194*
X01935D02*
X0193Y0141D01*
X01915D02*
X01925D01*
X01915Y0142*
Y01422*
X01917Y01424*
X01922*
X01925Y01422*
X03995Y01447D02*
X03997Y0145D01*
X04002*
X04005Y01447*
Y01437*
X04002Y01435*
X03997*
X03995Y01437*
X0399Y01447D02*
X03987Y0145D01*
X03982*
X0398Y01447*
Y01445*
X03982Y01442*
X03985*
X03982*
X0398Y0144*
Y01437*
X03982Y01435*
X03987*
X0399Y01437*
X03975Y01447D02*
X03972Y0145D01*
X03967*
X03965Y01447*
Y01445*
X03967Y01442*
X03965Y0144*
Y01437*
X03967Y01435*
X03972*
X03975Y01437*
Y0144*
X03972Y01442*
X03975Y01445*
Y01447*
X03972Y01442D02*
X03967D01*
X0396Y01432D02*
X0395D01*
X03945Y0145D02*
Y01435D01*
X03937*
X03935Y01437*
Y01447*
X03937Y0145*
X03945*
X0393Y01435D02*
Y0145D01*
X03922*
X0392Y01447*
Y01442*
X03922Y0144*
X0393*
X03925D02*
X0392Y01435D01*
X03915D02*
X0391D01*
X03912*
Y0145*
X03915Y01447*
X0261Y01412D02*
X02612Y01414D01*
X02617*
X0262Y01412*
Y01402*
X02617Y014*
X02612*
X0261Y01402*
X02605Y01412D02*
X02602Y01414D01*
X02597*
X02595Y01412*
Y0141*
X02597Y01407*
X026*
X02597*
X02595Y01405*
Y01402*
X02597Y014*
X02602*
X02605Y01402*
X0258Y01414D02*
X02585Y01412D01*
X0259Y01407*
Y01402*
X02587Y014*
X02582*
X0258Y01402*
Y01405*
X02582Y01407*
X0259*
X02575Y01397D02*
X02565D01*
X0256Y01414D02*
Y014D01*
X02552*
X0255Y01402*
Y01412*
X02552Y01414*
X0256*
X02545Y014D02*
Y01414D01*
X02537*
X02535Y01412*
Y01407*
X02537Y01405*
X02545*
X0254D02*
X02535Y014D01*
X0252D02*
X0253D01*
X0252Y0141*
Y01412*
X02522Y01414*
X02527*
X0253Y01412*
X04415Y01267D02*
X04417Y01269D01*
X04422*
X04425Y01267*
Y01257*
X04422Y01255*
X04417*
X04415Y01257*
X0441Y01267D02*
X04407Y01269D01*
X04402*
X044Y01267*
Y01265*
X04402Y01262*
X04405*
X04402*
X044Y0126*
Y01257*
X04402Y01255*
X04407*
X0441Y01257*
X04385Y01269D02*
X0439Y01267D01*
X04395Y01262*
Y01257*
X04392Y01255*
X04387*
X04385Y01257*
Y0126*
X04387Y01262*
X04395*
X0438Y01252D02*
X0437D01*
X04365Y01269D02*
Y01255D01*
X04357*
X04355Y01257*
Y01267*
X04357Y01269*
X04365*
X0435Y01255D02*
Y01269D01*
X04342*
X0434Y01267*
Y01262*
X04342Y0126*
X0435*
X04345D02*
X0434Y01255D01*
X04335D02*
X0433D01*
X04332*
Y01269*
X04335Y01267*
X02055Y01257D02*
X02052Y01255D01*
X02047*
X02045Y01257*
Y01267*
X02047Y0127*
X02052*
X02055Y01267*
X02059Y01257D02*
X02062Y01255D01*
X02067*
X02069Y01257*
Y0126*
X02067Y01262*
X02064*
X02067*
X02069Y01265*
Y01267*
X02067Y0127*
X02062*
X02059Y01267*
X02082Y0127D02*
Y01255D01*
X02074Y01262*
X02084*
X02089Y01272D02*
X02099D01*
X02104Y01255D02*
Y0127D01*
X02112*
X02114Y01267*
Y01257*
X02112Y01255*
X02104*
X02119Y0127D02*
Y01255D01*
X02127*
X02129Y01257*
Y01262*
X02127Y01265*
X02119*
X02124D02*
X02129Y0127D01*
X02144D02*
X02134D01*
X02144Y0126*
Y01257*
X02142Y01255*
X02137*
X02134Y01257*
X0409Y01262D02*
X04087Y0126D01*
X04082*
X0408Y01262*
Y01272*
X04082Y01275*
X04087*
X0409Y01272*
X04095Y01262D02*
X04097Y0126D01*
X04102*
X04104Y01262*
Y01265*
X04102Y01267*
X04099*
X04102*
X04104Y0127*
Y01272*
X04102Y01275*
X04097*
X04095Y01272*
X04117Y01275D02*
Y0126D01*
X04109Y01267*
X04119*
X04124Y01277D02*
X04134D01*
X04139Y0126D02*
Y01275D01*
X04147*
X04149Y01272*
Y01262*
X04147Y0126*
X04139*
X04154Y01275D02*
Y0126D01*
X04162*
X04164Y01262*
Y01267*
X04162Y0127*
X04154*
X04159D02*
X04164Y01275D01*
X04169D02*
X04174D01*
X04172*
Y0126*
X04169Y01262*
X0189Y01422D02*
X01892Y01424D01*
X01897*
X019Y01422*
Y01412*
X01897Y0141*
X01892*
X0189Y01412*
X01885Y01422D02*
X01882Y01424D01*
X01877*
X01875Y01422*
Y0142*
X01877Y01417*
X0188*
X01877*
X01875Y01415*
Y01412*
X01877Y0141*
X01882*
X01885Y01412*
X0187Y01422D02*
X01867Y01424D01*
X01862*
X0186Y01422*
Y01412*
X01862Y0141*
X01867*
X0187Y01412*
Y01422*
X01855Y01407D02*
X01845D01*
X0184Y01424D02*
Y0141D01*
X01832*
X0183Y01412*
Y01422*
X01832Y01424*
X0184*
X01825Y0141D02*
Y01424D01*
X01817*
X01815Y01422*
Y01417*
X01817Y01415*
X01825*
X0182D02*
X01815Y0141D01*
X018D02*
X0181D01*
X018Y0142*
Y01422*
X01802Y01424*
X01807*
X0181Y01422*
X03892Y01355D02*
X0389Y01357D01*
Y01362*
X03892Y01365*
X03902*
X03905Y01362*
Y01357*
X03902Y01355*
X03892Y0135D02*
X0389Y01347D01*
Y01342*
X03892Y0134*
X03895*
X03897Y01342*
Y01345*
Y01342*
X039Y0134*
X03902*
X03905Y01342*
Y01347*
X03902Y0135*
X03892Y01335D02*
X0389Y01332D01*
Y01327*
X03892Y01325*
X03902*
X03905Y01327*
Y01332*
X03902Y01335*
X03892*
X03907Y0132D02*
Y0131D01*
X0389Y01305D02*
X03905D01*
Y01297*
X03902Y01295*
X03892*
X0389Y01297*
Y01305*
X03905Y0129D02*
X0389D01*
Y01282*
X03892Y0128*
X03897*
X039Y01282*
Y0129*
Y01285D02*
X03905Y0128D01*
Y01275D02*
Y0127D01*
Y01272*
X0389*
X03892Y01275*
X02952Y013D02*
X02954Y01297D01*
Y01292*
X02952Y0129*
X02942*
X0294Y01292*
Y01297*
X02942Y013*
X0294Y01314D02*
Y01304D01*
X0295Y01314*
X02952*
X02954Y01312*
Y01307*
X02952Y01304*
X02942Y01319D02*
X0294Y01322D01*
Y01327*
X02942Y01329*
X02952*
X02954Y01327*
Y01322*
X02952Y01319*
X0295*
X02947Y01322*
Y01329*
X02937Y01334D02*
Y01344D01*
X02954Y01349D02*
X0294D01*
Y01357*
X02942Y01359*
X02952*
X02954Y01357*
Y01349*
X0294Y01364D02*
X02954D01*
Y01372*
X02952Y01374*
X02947*
X02945Y01372*
Y01364*
Y01369D02*
X0294Y01374D01*
Y01389D02*
Y01379D01*
X0295Y01389*
X02952*
X02954Y01387*
Y01382*
X02952Y01379*
X03385Y01517D02*
X03387Y01519D01*
X03392*
X03395Y01517*
Y01507*
X03392Y01505*
X03387*
X03385Y01507*
X0337Y01505D02*
X0338D01*
X0337Y01515*
Y01517*
X03372Y01519*
X03377*
X0338Y01517*
X03365Y01507D02*
X03362Y01505D01*
X03357*
X03355Y01507*
Y01517*
X03357Y01519*
X03362*
X03365Y01517*
Y01515*
X03362Y01512*
X03355*
X0335Y01502D02*
X0334D01*
X03335Y01519D02*
Y01505D01*
X03327*
X03325Y01507*
Y01517*
X03327Y01519*
X03335*
X0332Y01505D02*
Y01519D01*
X03312*
X0331Y01517*
Y01512*
X03312Y0151*
X0332*
X03315D02*
X0331Y01505D01*
X03305D02*
X033D01*
X03302*
Y01519*
X03305Y01517*
X01159Y02751D02*
X01161Y02752D01*
X01163*
X01165Y02751*
Y02746*
X01163Y02745*
X01161*
X01159Y02746*
X01151Y02745D02*
X01157D01*
X01151Y0275*
Y02751*
X01153Y02752*
X01155*
X01157Y02751*
X01149Y02752D02*
X01144D01*
Y02751*
X01149Y02746*
Y02745*
X01141Y02743D02*
X01136D01*
X01133Y02752D02*
Y02745D01*
X01129*
X01128Y02746*
Y02751*
X01129Y02752*
X01133*
X01125Y02745D02*
Y02752D01*
X01121*
X0112Y02751*
Y02748*
X01121Y02747*
X01125*
X01123D02*
X0112Y02745D01*
X01112D02*
X01117D01*
X01112Y0275*
Y02751*
X01113Y02752*
X01116*
X01117Y02751*
X0326Y01437D02*
X03262Y0144D01*
X03267*
X0327Y01437*
Y01427*
X03267Y01425*
X03262*
X0326Y01427*
X03245Y01425D02*
X03255D01*
X03245Y01435*
Y01437*
X03247Y0144*
X03252*
X03255Y01437*
X0324Y0144D02*
X0323D01*
Y01437*
X0324Y01427*
Y01425*
X03225Y01422D02*
X03215D01*
X0321Y0144D02*
Y01425D01*
X03202*
X032Y01427*
Y01437*
X03202Y0144*
X0321*
X03195Y01425D02*
Y0144D01*
X03187*
X03185Y01437*
Y01432*
X03187Y0143*
X03195*
X0319D02*
X03185Y01425D01*
X0318D02*
X03175D01*
X03177*
Y0144*
X0318Y01437*
X02625Y01262D02*
X02627Y01264D01*
X02632*
X02635Y01262*
Y01252*
X02632Y0125*
X02627*
X02625Y01252*
X0261Y0125D02*
X0262D01*
X0261Y0126*
Y01262*
X02612Y01264*
X02617*
X0262Y01262*
X02595Y01264D02*
X026Y01262D01*
X02605Y01257*
Y01252*
X02602Y0125*
X02597*
X02595Y01252*
Y01255*
X02597Y01257*
X02605*
X0259Y01247D02*
X0258D01*
X02575Y01264D02*
Y0125D01*
X02567*
X02565Y01252*
Y01262*
X02567Y01264*
X02575*
X0256Y0125D02*
Y01264D01*
X02552*
X0255Y01262*
Y01257*
X02552Y01255*
X0256*
X02555D02*
X0255Y0125D01*
X02535D02*
X02545D01*
X02535Y0126*
Y01262*
X02537Y01264*
X02542*
X02545Y01262*
X03432Y014D02*
X03434Y01397D01*
Y01392*
X03432Y0139*
X03422*
X0342Y01392*
Y01397*
X03422Y014*
X0342Y01414D02*
Y01404D01*
X0343Y01414*
X03432*
X03434Y01412*
Y01407*
X03432Y01404*
X03434Y01429D02*
X03432Y01424D01*
X03427Y01419*
X03422*
X0342Y01422*
Y01427*
X03422Y01429*
X03425*
X03427Y01427*
Y01419*
X03417Y01434D02*
Y01444D01*
X03434Y01449D02*
X0342D01*
Y01457*
X03422Y01459*
X03432*
X03434Y01457*
Y01449*
X0342Y01464D02*
X03434D01*
Y01472*
X03432Y01474*
X03427*
X03425Y01472*
Y01464*
Y01469D02*
X0342Y01474D01*
Y01479D02*
Y01484D01*
Y01482*
X03434*
X03432Y01479*
X0272Y01305D02*
X02734D01*
Y01312*
X02732Y01315*
X02727*
X02725Y01312*
Y01305*
Y0131D02*
X0272Y01315D01*
X02734Y01329D02*
Y0132D01*
X02727*
X0273Y01324*
Y01327*
X02727Y01329*
X02722*
X0272Y01327*
Y01322*
X02722Y0132*
X0272Y01334D02*
Y01339D01*
Y01337*
X02734*
X02732Y01334*
X02717Y01347D02*
Y01357D01*
X02734Y01362D02*
X0272D01*
Y01369*
X02722Y01372*
X02732*
X02734Y01369*
Y01362*
X0272Y01377D02*
X02734D01*
Y01384*
X02732Y01387*
X02727*
X02725Y01384*
Y01377*
Y01382D02*
X0272Y01387D01*
Y01402D02*
Y01392D01*
X0273Y01402*
X02732*
X02734Y01399*
Y01394*
X02732Y01392*
X03147Y0244D02*
X0315Y02437D01*
Y02432*
X03147Y0243*
X03137*
X03135Y02432*
Y02437*
X03137Y0244*
X03135Y02452D02*
X0315D01*
X03142Y02444*
Y02454*
X03147Y02459D02*
X0315Y02462D01*
Y02467*
X03147Y02469*
X03137*
X03135Y02467*
Y02462*
X03137Y02459*
X03147*
X03132Y02474D02*
Y02484D01*
X0315Y02489D02*
X03135D01*
Y02497*
X03137Y02499*
X03147*
X0315Y02497*
Y02489*
X03135Y02504D02*
X0315D01*
Y02512*
X03147Y02514*
X03142*
X0314Y02512*
Y02504*
Y02509D02*
X03135Y02514D01*
Y02519D02*
Y02524D01*
Y02522*
X0315*
X03147Y02519*
X00885Y02716D02*
X00882Y02713D01*
X00877*
X00875Y02716*
Y02726*
X00877Y02728*
X00882*
X00885Y02726*
X00897Y02728D02*
Y02713D01*
X00889Y02721*
X00899*
X00904Y02716D02*
X00907Y02713D01*
X00912*
X00914Y02716*
Y02726*
X00912Y02728*
X00907*
X00904Y02726*
Y02716*
X00919Y02731D02*
X00929D01*
X00934Y02713D02*
Y02728D01*
X00942*
X00944Y02726*
Y02716*
X00942Y02713*
X00934*
X00949Y02728D02*
Y02713D01*
X00957*
X00959Y02716*
Y02721*
X00957Y02723*
X00949*
X00954D02*
X00959Y02728D01*
X00974D02*
X00964D01*
X00974Y02718*
Y02716*
X00972Y02713*
X00967*
X00964Y02716*
X0339Y0298D02*
Y02965D01*
X03382*
X0338Y02967*
Y02977*
X03382Y0298*
X0339*
X03375Y02965D02*
X0337D01*
X03372*
Y0298*
X03375Y02977*
X03362Y02962D02*
X03352D01*
X03347Y0298D02*
Y02965D01*
X0334*
X03337Y02967*
Y02977*
X0334Y0298*
X03347*
X03332Y02965D02*
Y0298D01*
X03325*
X03322Y02977*
Y02972*
X03325Y0297*
X03332*
X03327D02*
X03322Y02965D01*
X03317D02*
X03312D01*
X03315*
Y0298*
X03317Y02977*
X00789Y0266D02*
Y02675D01*
X00796*
X00799Y02672*
Y02662*
X00796Y0266*
X00789*
X00804Y02675D02*
X00809D01*
X00806*
Y0266*
X00804Y02662*
X00816Y02677D02*
X00826D01*
X00831Y0266D02*
Y02675D01*
X00839*
X00841Y02672*
Y02662*
X00839Y0266*
X00831*
X00846Y02675D02*
Y0266D01*
X00854*
X00856Y02662*
Y02667*
X00854Y0267*
X00846*
X00851D02*
X00856Y02675D01*
X00871D02*
X00861D01*
X00871Y02665*
Y02662*
X00869Y0266*
X00864*
X00861Y02662*
X03345Y03144D02*
Y0313D01*
X03335*
X0333Y03142D02*
X03327Y03144D01*
X03322*
X0332Y03142*
Y0314*
X03322Y03137*
X03325*
X03322*
X0332Y03135*
Y03132*
X03322Y0313*
X03327*
X0333Y03132*
X03315Y03127D02*
X03305D01*
X033Y03144D02*
Y0313D01*
X03292*
X0329Y03132*
Y03142*
X03292Y03144*
X033*
X03285Y0313D02*
Y03144D01*
X03277*
X03275Y03142*
Y03137*
X03277Y03135*
X03285*
X0328D02*
X03275Y0313D01*
X0327D02*
X03265D01*
X03267*
Y03144*
X0327Y03142*
G54D164*
X04421Y01457D02*
D01*
X04421Y01457*
X04421Y01458*
X04421Y01458*
X04421Y01458*
X04421Y01458*
X04421Y01458*
X04421Y01458*
X04421Y01458*
X04421Y01459*
X04421Y01459*
X04421Y01459*
X0442Y01459*
X0442Y01459*
X0442Y01459*
X0442Y01459*
X0442Y01459*
X0442Y01459*
X0442Y01459*
X04419Y01459*
X04419Y01459*
X04419Y01459*
X04419Y01459*
X04419*
X04419Y01459*
X04419Y01459*
X04418Y01459*
X04418Y01459*
X04418Y01459*
X04418Y01459*
X04418Y01459*
X04418Y01459*
X04418Y01459*
X04417Y01459*
X04417Y01459*
X04417Y01459*
X04417Y01459*
X04417Y01458*
X04417Y01458*
X04417Y01458*
X04417Y01458*
X04417Y01458*
X04417Y01458*
X04417Y01458*
X04417Y01457*
X04417Y01457*
X04417Y01457*
X04417Y01457*
X04417Y01457*
X04417Y01457*
X04417Y01456*
X04417Y01456*
X04417Y01456*
X04417Y01456*
X04417Y01456*
X04417Y01456*
X04417Y01456*
X04417Y01456*
X04418Y01455*
X04418Y01455*
X04418Y01455*
X04418Y01455*
X04418Y01455*
X04418Y01455*
X04418Y01455*
X04419Y01455*
X04419Y01455*
X04419Y01455*
X04419*
X04419Y01455*
X04419Y01455*
X04419Y01455*
X0442Y01455*
X0442Y01455*
X0442Y01455*
X0442Y01455*
X0442Y01455*
X0442Y01455*
X0442Y01456*
X04421Y01456*
X04421Y01456*
X04421Y01456*
X04421Y01456*
X04421Y01456*
X04421Y01456*
X04421Y01456*
X04421Y01457*
X04421Y01457*
X04421Y01457*
X04421Y01457*
X04421Y01457*
X02384Y01453D02*
D01*
X02384Y01453*
X02384Y01454*
X02384Y01454*
X02384Y01454*
X02384Y01454*
X02384Y01454*
X02383Y01454*
X02383Y01455*
X02383Y01455*
X02383Y01455*
X02383Y01455*
X02383Y01455*
X02383Y01455*
X02383Y01455*
X02383Y01455*
X02382Y01455*
X02382Y01455*
X02382Y01455*
X02382Y01455*
X02382Y01456*
X02382Y01456*
X02382Y01456*
X02381*
X02381Y01456*
X02381Y01456*
X02381Y01455*
X02381Y01455*
X02381Y01455*
X02381Y01455*
X0238Y01455*
X0238Y01455*
X0238Y01455*
X0238Y01455*
X0238Y01455*
X0238Y01455*
X0238Y01455*
X0238Y01455*
X0238Y01454*
X02379Y01454*
X02379Y01454*
X02379Y01454*
X02379Y01454*
X02379Y01454*
X02379Y01453*
X02379Y01453*
X02379Y01453*
X02379Y01453*
X02379Y01453*
X02379Y01453*
X02379Y01453*
X02379Y01452*
X0238Y01452*
X0238Y01452*
X0238Y01452*
X0238Y01452*
X0238Y01452*
X0238Y01452*
X0238Y01452*
X0238Y01451*
X0238Y01451*
X02381Y01451*
X02381Y01451*
X02381Y01451*
X02381Y01451*
X02381Y01451*
X02381Y01451*
X02381Y01451*
X02382*
X02382Y01451*
X02382Y01451*
X02382Y01451*
X02382Y01451*
X02382Y01451*
X02382Y01451*
X02383Y01451*
X02383Y01451*
X02383Y01452*
X02383Y01452*
X02383Y01452*
X02383Y01452*
X02383Y01452*
X02383Y01452*
X02383Y01452*
X02384Y01452*
X02384Y01453*
X02384Y01453*
X02384Y01453*
X02384Y01453*
X02384Y01453*
X02384Y01453*
G54D165*
X0105Y01775D03*
M02*