%FSTAX23Y23*%
%MOIN*%
%SFA1B1*%

%IPPOS*%
%ADD14R,0.043310X0.039370*%
%ADD15R,0.039370X0.043310*%
%ADD16R,0.035430X0.031500*%
%ADD17R,0.031500X0.035430*%
%ADD19R,0.074800X0.106300*%
%ADD21R,0.039370X0.078740*%
%ADD22R,0.137800X0.098430*%
%ADD29R,0.106300X0.074800*%
%ADD45C,0.009840*%
%ADD46C,0.039370*%
%ADD47C,0.011810*%
%ADD48C,0.196850*%
%ADD49C,0.019690*%
%ADD50C,0.027560*%
%ADD52C,0.149610*%
%ADD54C,0.078740*%
%ADD64C,0.150000*%
%ADD65R,0.059060X0.059060*%
%ADD66C,0.059060*%
%ADD67C,0.118110*%
%ADD68C,0.018000*%
%ADD69C,0.050000*%
%ADD70C,0.022000*%
%ADD71C,0.025980*%
%ADD72C,0.023000*%
%ADD73C,0.021000*%
%ADD74C,0.025000*%
%ADD75C,0.040000*%
%ADD76C,0.020000*%
%ADD77C,0.030000*%
%ADD78C,0.080000*%
%ADD79R,0.314960X0.106300*%
%ADD80R,0.025590X0.094490*%
%ADD81R,0.397440X0.433070*%
%ADD82R,0.029530X0.089960*%
%ADD83R,0.344490X0.204720*%
%ADD84R,0.074410X0.048820*%
%ADD85R,0.048820X0.074410*%
%ADD86R,0.078740X0.078740*%
%ADD87R,0.011810X0.061020*%
%ADD88R,0.551180X0.200790*%
%ADD89R,0.106300X0.314960*%
%ADD90C,0.047240*%
%ADD91C,0.118110*%
%ADD92C,0.098430*%
%ADD93C,0.204720*%
%ADD94C,0.433070*%
%LNninja_ecu_pcb-1*%
%LPD*%
G36*
X0197Y01442D02*
X01972Y01442D01*
X01976Y0144*
X01976Y01438*
X01977Y01434*
X0198Y0143*
X01984Y01427*
X01989Y01426*
X01991Y01427*
X01995Y01425*
X01996Y01423*
X01997Y0142*
X01997Y0142*
X01994Y01415*
X01985*
X01981Y01414*
X01977Y01412*
X01975Y01408*
X01974Y01405*
Y01391*
X01962*
Y01348*
X02002*
Y01391*
X02005Y01394*
X02014*
X02017Y01391*
Y01348*
X02055*
Y01334*
X0204Y0132*
X02012*
Y01336*
X01972*
Y01293*
X02008*
X0201Y0129*
Y01284*
X01783*
X01779Y01288*
Y01296*
X018*
Y01322*
X0181*
Y01296*
X01832*
Y01312*
X01868*
X01872Y01313*
X01875Y01315*
X01877Y01318*
X01878Y01322*
Y0135*
X01891*
Y01375*
X0186*
Y0138*
X01855*
Y01409*
X01828*
Y01401*
X01826Y01397*
X01819*
Y01419*
X0183Y0143*
X01849*
X01849Y0143*
X01855Y01429*
X0186Y0143*
X0186Y0143*
X01864*
X01865Y01429*
X01865Y01429*
X01869Y01424*
X01874Y0142*
X0188Y01419*
X01885Y0142*
X01885Y0142*
X01895*
X019Y01421*
X01904Y01425*
X01908Y01429*
X01908Y0143*
X0191Y0143*
X01915Y01434*
X01915Y01434*
X0192Y01432*
Y01403*
X01901*
Y01356*
X01927*
Y01336*
X01917*
Y01293*
X01957*
Y01336*
X01947*
Y01356*
X01952*
Y01403*
X01941*
Y01418*
X01944Y01419*
X01946Y0142*
X01949Y01417*
X01955Y01416*
X0196Y01417*
X01964Y0142*
X01967Y01424*
X01968Y0143*
X01967Y01435*
X01965Y01437*
X01968Y01442*
X0197Y01442*
G37*
G36*
X04929Y02318D02*
X04929Y02317D01*
X04926Y02311*
X04926Y02305*
Y01949*
X04915Y01938*
X0442*
X04413Y01938*
X04408Y01935*
X04404Y01932*
X04404Y01932*
X044Y01932*
X04398Y01933*
X04397Y01934*
X04366Y01965*
Y01997*
X04323*
X04322Y01998*
X043*
Y01972*
X0429*
Y01998*
X04267*
Y01996*
X04227*
Y01953*
X04228*
X04229Y01952*
X04225Y01948*
X04225Y01948*
X04219Y01947*
X04219Y01947*
X04214Y01949*
Y01962*
X04213Y01966*
X04212Y01969*
Y01996*
X04172*
Y01953*
X04168Y01951*
X04137*
Y01924*
X04136Y01921*
X04135Y01917*
Y01879*
X04131Y01876*
X0413Y01876*
X04125Y01877*
X04121Y01876*
X0412Y01876*
X04116Y01879*
Y01908*
X04122*
Y01951*
X04111*
X04109Y01954*
X04077Y01987*
X04073Y01989*
X0407Y0199*
X04068*
X04065Y01992*
X0406Y01993*
X04054Y01992*
X0405Y01989*
X04047Y01985*
X04046Y0198*
X04047Y01974*
X0405Y0197*
X04054Y01967*
X0406Y01966*
X04065Y01967*
X04066Y01968*
X0408Y01955*
X04076Y01951*
X04037*
Y01923*
X04037Y01923*
X04037Y01919*
Y01877*
X04032Y01875*
X04032Y01874*
X04027Y01875*
X04025Y01875*
X04022Y01875*
X0402Y01879*
X04019Y0188*
X04017Y01883*
Y01908*
X04022*
Y01951*
X03982*
Y01918*
X03977Y01918*
X03975Y01921*
X03922Y01974*
Y02001*
X03926Y02003*
X04726*
X0473Y02003*
X04903*
Y02216*
X04856*
X04854Y02221*
X04856Y02223*
X04858Y02222*
X04901*
Y02262*
X04858*
Y02252*
X04855Y02251*
X04851Y02249*
X04818Y02216*
X0478*
Y02236*
X04813*
Y02287*
X04858*
Y02277*
X04901*
Y02304*
X0492Y02323*
X04927*
X04929Y02318*
G37*
G36*
X02877Y01787D02*
Y01704D01*
X02977*
X02979Y017*
X02927Y01648*
X02925Y01645*
X02924Y01641*
Y01612*
X02871*
X02869Y01616*
Y01655*
X02686*
Y01665*
X02869*
Y01772*
X02797*
X02795Y01777*
X02797Y01779*
X02798Y01785*
X02802Y01788*
X02873*
X02877Y01787*
G37*
G36*
X02578Y01777D02*
X02578Y01776D01*
X02576Y01772*
X02504*
X02502Y01776*
Y01787*
X02475*
Y01792*
X0247*
Y01818*
X02466*
X02464Y01822*
X02469Y01827*
X02496*
Y01852*
X02501Y01854*
X02578Y01777*
G37*
G36*
X04297Y01469D02*
X04303Y01468D01*
X04304Y01469*
X04308Y01467*
X04309Y01465*
X0431Y01462*
X04313Y01457*
X04317Y01455*
X04319Y01454*
X04321Y01449*
X04287Y01414*
X04268*
Y01375*
X04264Y01372*
X04262Y01371*
X04256Y01365*
X04256Y01365*
X0424*
Y0134*
X0423*
Y01365*
X04207*
Y01363*
X04187*
X04185Y01367*
X04186Y01368*
X04188Y01371*
X04188Y01372*
X04206*
Y01412*
X04189*
Y01431*
X04211Y01453*
X04212Y01456*
X04213Y0146*
Y01462*
X04218Y01465*
X04219Y01464*
X04224Y01463*
X04229Y01464*
X04231Y0146*
X04231Y0146*
X04234Y01456*
X04238Y01453*
X04243Y01452*
X04249Y01453*
X04253Y01456*
X04256Y0146*
X04256Y01463*
X04257Y01465*
X04261Y01467*
X04263Y01466*
X04266Y01467*
X04269Y01462*
X04228Y01422*
X04226Y01419*
X04225Y01415*
Y01414*
X04213*
Y01375*
X04256*
Y01414*
X04253*
X04251Y01419*
X04289Y01457*
X04291Y0146*
X04292Y01463*
Y01467*
X04297Y0147*
X04297Y01469*
G37*
G36*
X01679Y01542D02*
X01677Y0154D01*
X01676Y01535*
X01677Y01529*
X0168Y01525*
X01684Y01522*
X0169Y01521*
X01695Y01522*
X01697Y01524*
X01702Y01521*
Y01506*
X01725*
Y01532*
X01735*
Y01506*
X01757*
Y01508*
X0178*
Y0154*
X0179*
Y01508*
X01814*
X01816Y01504*
Y01481*
X01811Y01479*
X01808Y0148*
Y01498*
X01761*
Y01447*
X018*
X01802Y01442*
X01795Y01434*
X01791Y0143*
X0179Y01425*
Y01397*
X01783*
Y01391*
X01773*
Y01412*
X01754*
Y01467*
X01753Y01472*
X01751Y01474*
Y01497*
X01708*
Y01457*
X01725*
Y01392*
X01726Y0139*
Y01361*
X01722Y01358*
X0166*
Y01411*
Y01411*
Y01469*
X01613*
X01565*
Y01411*
X01565*
Y01411*
X01565*
Y01352*
X01613*
Y01342*
X01565*
Y01284*
X01374*
Y0143*
X01379Y01433*
X01379Y01432*
X01385Y01431*
X01385Y01431*
X0139Y01427*
Y01417*
X01422*
Y01405*
X0139*
Y0129*
X01473*
Y01405*
X01442*
Y01417*
X01473*
Y01531*
X01401*
X01397Y01536*
X01397Y01538*
X01396Y01542*
X01396Y01543*
X01399Y01547*
X01538*
X01538Y01545*
X01539Y01542*
X01535Y0154*
X01532Y01535*
X01531Y0153*
X01532Y01525*
X01535Y01521*
X01539Y01518*
X01545Y01517*
X0155Y01518*
X01554Y01521*
X01557Y01525*
X01558Y0153*
X01557Y01535*
X01554Y0154*
X0155Y01542*
X01551Y01545*
X01551Y01547*
X01573*
X01576Y01544*
X01576Y01542*
X01574Y01538*
X01573Y01537*
X01565*
Y01479*
X01613*
X0166*
Y01537*
X01623*
Y01547*
X01677*
X01679Y01542*
G37*
G36*
X02194Y01456D02*
X02194Y01456D01*
X02197Y01452*
X02201Y01449*
X02204Y01448*
X02205Y01443*
X02192Y0143*
X0219Y01427*
X02189Y01423*
Y01406*
X0219Y01402*
X02191Y01402*
X02188Y01397*
X02178*
Y01357*
X02221*
Y01397*
X02217*
Y01399*
X02216Y01402*
X02214Y01406*
X0221Y0141*
Y01419*
X02233Y01442*
X02238Y0144*
X02239Y01439*
X02241Y01436*
Y01397*
X02229*
Y01357*
X02273*
Y01397*
X02261*
Y01436*
X02263Y01439*
X02264Y01445*
X02263Y0145*
X02263Y0145*
X02268Y01454*
X02274Y01453*
X02275Y0145*
X02279Y01448*
Y01444*
X02279Y0144*
X02281Y01437*
X02304Y01414*
Y01397*
X02293*
Y01357*
X02336*
Y01397*
X02325*
Y0141*
X02329Y01412*
X02356Y01384*
Y01357*
X024*
Y01393*
X02417*
X0242Y0139*
Y01357*
X02463*
Y01367*
X02483*
Y01358*
X02483*
X02479Y01357*
X02476Y01355*
X02471Y0135*
X0246*
X02456Y01349*
X02454Y01348*
X02447*
Y01322*
X02442*
Y01317*
X02414*
Y01302*
X02411*
Y0129*
X02393*
Y01302*
X024*
Y01342*
X02356*
Y01341*
X02355Y0134*
X02351Y01338*
X02346Y01339*
X02341Y01338*
X02337Y0134*
X02336Y01341*
Y01342*
X02293*
Y01336*
X02273*
Y01342*
X02229*
X02227Y01346*
Y01348*
X02205*
Y01322*
Y01296*
X02211*
X02247Y0126*
X02245Y01256*
X02122*
X02121Y01257*
X0212Y01261*
X02123Y01264*
X02123Y01266*
X02123Y01266*
X02127Y01272*
X02129Y0128*
X02128Y01285*
X02129Y01289*
X02128Y01291*
X02132Y01296*
X02145*
Y01322*
Y01348*
X02127*
X02125Y01353*
X02125Y01353*
X0213Y01357*
X02171*
Y01397*
X02173Y01401*
X02174Y01402*
X02176Y01405*
X02177Y01409*
Y01457*
X02181Y0146*
X02182Y0146*
X02186Y01459*
X02191Y0146*
X02194Y01456*
G37*
G36*
X04308Y02366D02*
X04305Y02364D01*
X04302Y0236*
X04301Y02355*
X04302Y02349*
X04305Y02345*
X04309Y02342*
X04313Y02342*
X04327Y02327*
X04331Y02325*
X04335Y02324*
X04347*
Y02313*
X04353*
Y02297*
X04303*
Y02333*
X04266*
Y02318*
X04261Y02315*
X04261Y02315*
X04254Y02322*
X04253Y02323*
Y02333*
X04238*
X04237Y02334*
X04227Y02337*
X04217Y02338*
X04105*
X04103Y02343*
X04103Y02345*
X04085*
Y02355*
X04103*
X04102Y02357*
X04098Y02363*
X04095Y02366*
X04096Y02371*
X04306*
X04308Y02366*
G37*
G36*
X02956Y02441D02*
Y02239D01*
X02951Y02236*
X0295Y02237*
X02945Y02238*
X02939Y02237*
X02935Y02234*
X02932Y0223*
X02932Y02227*
X02927Y02224*
X02927Y02224*
X02922Y02225*
X02917Y02224*
X02913Y02221*
X0291Y02217*
X02909Y02212*
X0291Y02207*
X02913Y02203*
X02917Y022*
X02922Y02199*
X02927Y022*
X02931Y02203*
X02932Y02203*
X02937Y02202*
X02936Y022*
X02937Y02194*
X0294Y0219*
X02944Y02187*
X0295Y02186*
X02953Y02187*
X02958Y02184*
Y01803*
X02942Y01787*
X02938*
X02906Y01819*
X02903Y01821*
X02903Y01823*
X02904Y01826*
X02907Y01829*
X0291Y01833*
X02911Y01838*
X0291Y01843*
X02909Y01845*
X02913Y01848*
X02914Y01847*
X0292Y01846*
X02925Y01847*
X02929Y0185*
X02932Y01854*
X02933Y0186*
X02932Y01865*
X02929Y01869*
X02925Y01872*
X0292Y01873*
X02914Y01872*
X0291Y01869*
X02907Y01865*
X02906Y0186*
X02907Y01854*
X02908Y01853*
X02905Y01849*
X02903Y0185*
X02898Y01851*
X02893Y0185*
X02889Y01847*
X02886Y01843*
X02885Y01838*
X02886Y01833*
X02888Y01829*
X02887Y01826*
X02886Y01824*
X02808*
X02803Y01828*
X02796Y01829*
X02773*
X02766Y01828*
X02761Y01824*
X02745Y01808*
X02744Y01808*
X02598*
X02512Y01893*
X02507Y01897*
X025Y01899*
X02428*
X02425Y01904*
X02427Y01907*
X02428Y0191*
X0241*
Y0192*
X02428*
X02427Y01922*
X02423Y01928*
X0242Y0193*
X02417Y01933*
X02418Y01937*
X02419Y01937*
X02419Y01941*
Y01958*
X02419Y01962*
X02416Y01965*
X02409Y01972*
X02411Y01977*
X02686*
X02697Y01978*
X02863*
Y02191*
X02813*
X02812Y02196*
X02823Y02207*
X02866*
Y02247*
X02823*
Y02235*
X02821Y02234*
X02778Y02191*
X0274*
Y02206*
X02773*
Y02259*
X02786Y02272*
X02823*
Y02262*
X02866*
Y02289*
X02897Y0232*
X02899Y02323*
X029Y02327*
Y02357*
X02911*
Y02397*
X02873*
X02872Y02397*
X0287Y024*
X0287Y02402*
X02871Y02405*
X02872Y02412*
Y02412*
X02911*
Y02439*
X02919Y02447*
X02919Y02447*
X02925Y02446*
X0293Y02447*
X02934Y0245*
X02936Y02453*
X02942Y02455*
X02956Y02441*
G37*
G36*
X03257Y02641D02*
X03198Y02581D01*
X03194Y02576*
X03191Y02571*
X03191Y02565*
Y02449*
X03186Y02446*
X03185Y02447*
X0318Y02448*
X03174Y02447*
X0317Y02444*
X03167Y0244*
X03166Y02435*
X03167Y02429*
X0317Y02425*
X03174Y02422*
X0318Y02421*
X03185Y02422*
X03186Y02423*
X03191Y0242*
Y02395*
X03191Y02388*
X03194Y02383*
X03198Y02378*
X03203Y02374*
X03208Y02371*
X03215Y02371*
X03596*
X03598Y02366*
X03595Y02364*
X03592Y0236*
X03591Y02355*
X03592Y02349*
X03595Y02345*
X03598Y02343*
X03597Y02338*
X03553*
X03551Y02343*
X03552Y02344*
X03553Y0235*
X03552Y02355*
X03549Y02359*
X03545Y02362*
X0354Y02363*
X03534Y02362*
X0353Y02359*
X03527Y02355*
X03526Y0235*
X03527Y02344*
X03528Y02343*
X03526Y02338*
X03475*
X03464Y02337*
X03454Y02334*
X03445Y02329*
X03437Y02322*
X0343Y02314*
X03425Y02305*
X03422Y02295*
X03421Y02285*
Y02216*
X03415*
Y02003*
X03481*
X03483Y01998*
X03482Y01994*
X03483Y01989*
X03486Y01985*
X03491Y01982*
X03492Y01982*
X03496Y01981*
X03495Y01976*
X03495Y01976*
X03496Y01971*
X03499Y01966*
X03503Y01964*
X03508Y01963*
X03513Y01964*
X03518Y01966*
X0352Y01971*
X03522Y01976*
X0352Y01981*
X03518Y01985*
X03513Y01988*
X03512Y01988*
X03508Y01989*
X03509Y01994*
X03509Y01994*
X03508Y01998*
X03511Y02003*
X03587*
X03591Y02003*
X03593Y02003*
X03684*
X03684Y02002*
X03683Y01996*
X03683Y01995*
X03681Y01992*
X03676Y01992*
X03675Y01992*
X03674Y01994*
X0367Y01997*
X03665Y01998*
X03659Y01997*
X03655Y01994*
X03652Y0199*
X03651Y01985*
X03652Y01979*
X03655Y01975*
X03659Y01972*
X0366Y01972*
Y01967*
X03659Y01967*
X03655Y01964*
X03652Y0196*
X03651Y01955*
X03652Y01949*
X03655Y01945*
X03659Y01942*
X03665Y01941*
X0367Y01942*
X03674Y01945*
X03677Y01949*
X03678Y01955*
X03677Y0196*
X03674Y01964*
X0367Y01967*
X03669Y01967*
Y01972*
X0367Y01972*
X03674Y01975*
X03675Y01978*
X03681Y01978*
X03681Y01978*
X03683Y01975*
X03687Y01972*
X03693Y01971*
X0374*
X03745Y01972*
X03749Y01975*
X03753Y0198*
X03754Y01985*
X03753Y01991*
X03749Y01995*
X03749Y01996*
X03748Y02002*
X03748Y02003*
X03823*
X03827Y02001*
Y01987*
X03821*
Y01997*
X03778*
Y01957*
X03821*
Y01967*
X03827*
Y01958*
X03854*
X03936Y01877*
Y01858*
X03933*
Y01817*
X03923*
Y01858*
X03919*
X03919Y01858*
X03917Y01862*
X03849Y01929*
X03846Y01931*
X03842Y01932*
X03827*
Y01948*
X03805*
Y01922*
Y01896*
X03827*
Y01912*
X03838*
X03872Y01877*
X0387Y01873*
X0387Y01873*
X03864Y01872*
X0386Y01869*
X03857Y01865*
X03856Y0186*
X03857Y01855*
X03859Y01851*
Y01817*
X0386Y01817*
Y01783*
X03856Y0178*
X0385*
Y01773*
X03774*
Y01797*
X03596*
Y01685*
X03591*
Y0168*
X03409*
Y01626*
X03375Y01592*
X03367*
Y0157*
X03388*
Y01576*
X03404Y01593*
X03409Y01591*
Y01572*
X03574*
X0359Y01568*
X03606Y01567*
X03758*
X03758Y01565*
X03758Y01562*
X03755Y01559*
X03751Y01555*
X0375Y0155*
X03751Y01544*
X03755Y0154*
X03759Y01536*
X03765Y01535*
X0379*
Y0152*
X03785*
X03781Y01519*
X03777Y01517*
X03775Y01513*
X03774Y0151*
Y01434*
X03697Y01357*
X03695Y01353*
X03694Y0135*
X03695Y01346*
X03697Y01342*
X03725Y01314*
X03729Y01312*
X03733Y01311*
X0378*
Y01295*
X0381*
Y01285*
X0378*
Y01258*
X03776Y01256*
X02886*
X02885Y0126*
X02885Y01261*
X02912Y01288*
X02934*
Y01294*
X03007*
X03007Y01294*
Y01292*
X0309*
Y01391*
X03121Y01422*
X03265*
X0327Y01423*
X03275Y01426*
X03291Y01443*
X03296Y01441*
Y01425*
X03322*
Y01415*
X03296*
Y01407*
X03291Y01403*
X0329Y01404*
X03284Y01403*
X03282Y01401*
X03277Y01404*
Y01413*
X03235*
Y0135*
Y01286*
X03277*
X03281Y01288*
X03295Y01275*
X03298Y01273*
X03302Y01272*
X03342*
X03346Y01273*
X03349Y01275*
X03356Y01282*
X03372*
Y0131*
X03377*
Y01315*
X03403*
Y01321*
X0341Y01328*
X03412Y01331*
X03413Y01335*
Y01349*
X03533*
X03536Y01346*
X03542Y01342*
X03545Y01341*
Y0136*
Y01378*
X03542Y01377*
X03536Y01373*
X03533Y0137*
X03413*
Y01508*
X03418Y01512*
X0342Y01511*
X03425Y01512*
X03429Y01515*
X03432Y01519*
X03433Y01525*
X03432Y0153*
X03429Y01534*
X03425Y01537*
X0342Y01538*
X03414Y01537*
X0341Y01534*
X03408Y01531*
X03402Y01529*
X03388Y01544*
Y0156*
X03362*
X03336*
Y01553*
X03331Y01548*
X03327Y0155*
Y01586*
X03287*
Y01579*
X03224*
X03219Y01578*
X03214Y01574*
X03172Y01533*
X03163*
Y0168*
X03222*
Y01787*
X03076*
Y0168*
X03116*
X03117Y01675*
X03115Y01674*
X03112Y0167*
X03111Y01665*
X03112Y01659*
X03115Y01655*
X03119Y01652*
X03125Y01651*
X0313Y01652*
X0313Y01652*
X03135Y0165*
Y01533*
X03125*
Y01504*
X03119*
Y0153*
X03118Y01535*
X03114Y01539*
X0311Y01543*
X03105Y01544*
X03099Y01543*
X03095Y01539*
X03091Y01535*
X0309Y0153*
Y0149*
X03091Y01484*
X03095Y0148*
X03099Y01476*
X03105Y01475*
X03125*
Y0145*
X03115*
X0311Y01449*
X03105Y01446*
X03068Y01409*
X03063Y01411*
Y01446*
X03082*
Y01533*
X03035*
Y01482*
X03034Y0148*
Y01407*
X03007*
Y01328*
X03001Y01322*
X02934*
Y01328*
X0289*
Y01322*
X02873*
X02872Y01323*
X02869Y01327*
X0287Y01331*
X02869Y01336*
X02866Y01341*
X02861Y01344*
X02856Y01345*
X02836*
X02831Y01344*
X02826Y01341*
X02825Y01339*
X02821Y01335*
X0282Y0133*
Y0131*
X02821Y01304*
X02825Y013*
X02829Y01296*
X02835Y01295*
X02839Y01296*
X02841Y01295*
X02846Y01294*
X02851Y01295*
X02856Y01294*
X02871*
X02873Y01289*
X02868Y01284*
X02616*
X02614Y01289*
X02627Y01302*
X02654*
Y01338*
X02666*
X02668Y01335*
Y01327*
X02724*
Y01343*
X02725Y01344*
X02731Y0135*
X02733Y01353*
X02734Y01357*
Y01403*
X02733Y01407*
X02731Y0141*
X02706Y01435*
Y01547*
X02869*
X02871Y01543*
Y01517*
X0293*
Y01565*
X02935*
Y0157*
X02998*
Y01612*
X02945*
Y01637*
X03005Y01697*
X03007Y017*
X03008Y01704*
Y01718*
X03027Y01737*
X03029Y01741*
X0303Y01745*
Y01794*
X03409*
Y0169*
X03586*
Y01797*
X03523*
X03523Y01802*
X03525Y01802*
X03529Y01805*
X03532Y01809*
X03533Y01815*
X03532Y0182*
X03529Y01824*
X03525Y01827*
X0352Y01828*
X03514Y01827*
X0351Y01824*
X03507Y0182*
X03506Y01815*
X03507Y01809*
X0351Y01805*
X03514Y01802*
X03516Y01802*
X03516Y01797*
X03493*
X03478Y01812*
X03475Y01814*
X03471Y01815*
X03155*
X03153Y0182*
X03154Y0182*
X03157Y01824*
X03157Y01828*
X03158Y0183*
X03163Y01831*
X03164Y01831*
X03169Y01832*
X03174Y01835*
X03176Y01839*
X03177Y01844*
X03176Y01849*
X03174Y01854*
X03169Y01856*
X03167Y01857*
X03165Y01862*
X03167Y01864*
X03168Y0187*
X03167Y01875*
X03164Y01879*
X0316Y01882*
X03155Y01883*
X03149Y01882*
X03145Y01879*
X03142Y01875*
X03141Y0187*
X03142Y01864*
X03145Y0186*
X03149Y01857*
X03151Y01857*
X03153Y01851*
X03152Y01849*
X03151Y01846*
X0315Y01844*
X03146Y01842*
X03145Y01843*
X03139Y01842*
X03135Y01839*
X03132Y01835*
X03131Y0183*
X03132Y01824*
X03135Y0182*
X03136Y0182*
X03134Y01815*
X03116*
X03115Y01819*
X03115Y0182*
X03117Y01824*
X03118Y01829*
X03117Y01834*
X03115Y01838*
X0311Y01841*
X03105Y01842*
X031Y01841*
X03096Y01838*
X03093Y01834*
X03092Y01829*
X03093Y01824*
X03096Y0182*
X03096Y01819*
X03094Y01815*
X0303*
Y01834*
X03035Y01835*
X03037Y01832*
X03041Y01829*
X03046Y01828*
X03051Y01829*
X03055Y01832*
X03058Y01836*
X03059Y01841*
X03058Y01846*
X03055Y0185*
X03051Y01853*
X03046Y01854*
X03041Y01853*
X03037Y0185*
X03035Y01847*
X0303Y01849*
Y02234*
X03035Y02236*
X03035Y02235*
X03039Y02232*
X03045Y02231*
X0305Y02232*
X03054Y02235*
X03057Y02239*
X03058Y02245*
X03057Y0225*
X03054Y02254*
X0305Y02257*
X03045Y02258*
X03039Y02257*
X03035Y02254*
X03035Y02253*
X0303Y02255*
Y02305*
X03031Y02307*
X0306*
Y02355*
X03065*
Y0236*
X03128*
Y02402*
X03075*
Y02431*
X03074Y02435*
X03072Y02438*
X0302Y0249*
X03022Y02494*
X03122*
Y02577*
X03088*
Y02612*
X03142*
Y02646*
X03255*
X03257Y02641*
G37*
G36*
X03911Y01384D02*
Y01333D01*
X03956*
X03957Y01328*
X03954Y01324*
X0394*
Y01297*
X03964*
Y01313*
X03969Y01315*
X03982Y01301*
Y01273*
X04022*
Y01315*
X04037*
Y01273*
X04077*
Y01285*
X0408*
X04083Y01286*
X04086Y01288*
X04095Y01297*
X041Y01298*
X04125*
Y0133*
X04135*
Y01298*
X04159*
Y01311*
X0418*
Y01337*
X0419*
Y01311*
X04192*
Y0128*
X04171*
X04168Y01283*
X04162Y01287*
X0416Y01288*
Y0127*
X04155*
Y01265*
X04136*
X04137Y01262*
X04138Y01261*
X04135Y01256*
X03965*
X03964Y0126*
Y01287*
X03935*
Y01292*
X0393*
Y01324*
X03905*
Y01302*
X03892*
Y01318*
X0387*
Y01292*
X0386*
Y01318*
X03839*
Y01321*
X0382*
Y01321*
X03819Y01325*
X03818Y01326*
X03821Y01331*
X03833*
Y01333*
X03843*
Y01327*
X03886*
Y01366*
X03907Y01387*
X03911Y01384*
G37*
G36*
X05158Y03469D02*
X05153Y03468D01*
X05153Y0347*
X05146Y03484*
X05136Y03496*
X05124Y03506*
X0511Y03513*
X05095Y03517*
X0508Y03519*
X05064Y03517*
X05049Y03513*
X05035Y03506*
X05023Y03496*
X05014Y03484*
X05006Y0347*
X05002Y03455*
X05Y0344*
X05002Y03424*
X05006Y03409*
X05014Y03395*
X05023Y03383*
X05035Y03374*
X05049Y03366*
X05064Y03362*
X0508Y0336*
X05095Y03362*
X0511Y03366*
X05124Y03374*
X05136Y03383*
X05146Y03395*
X05153Y03409*
X05153Y03411*
X05158Y0341*
Y02224*
X05153Y02223*
X05153Y02225*
X05146Y02239*
X05136Y02251*
X05124Y02261*
X0511Y02268*
X05095Y02272*
X0508Y02274*
X05064Y02272*
X05049Y02268*
X05035Y02261*
X05023Y02251*
X05014Y02239*
X05006Y02225*
X05002Y0221*
X05Y02195*
X05002Y02179*
X05006Y02164*
X05014Y0215*
X05023Y02138*
X05035Y02129*
X05049Y02121*
X05064Y02117*
X0508Y02115*
X05095Y02117*
X0511Y02121*
X05124Y02129*
X05136Y02138*
X05146Y0215*
X05153Y02164*
X05153Y02166*
X05158Y02165*
Y01256*
X05113*
X05113Y01261*
X05114Y01261*
X05125Y01267*
X05134Y01275*
X05142Y01284*
X05148Y01295*
X05152Y01307*
X05153Y0132*
X05152Y01332*
X05148Y01344*
X05142Y01355*
X05134Y01364*
X05125Y01372*
X05114Y01378*
X05102Y01382*
X0509Y01383*
X05077Y01382*
X05065Y01378*
X05054Y01372*
X05045Y01364*
X05037Y01355*
X05031Y01344*
X05027Y01332*
X05026Y0132*
X05027Y01307*
X05031Y01295*
X05037Y01284*
X05045Y01275*
X05054Y01267*
X05065Y01261*
X05067Y01261*
X05066Y01256*
X04367*
X04366Y01257*
X04365Y01261*
X0437Y01266*
X04371Y01267*
X04387*
Y01295*
X04392*
Y013*
X04418*
Y01314*
X04422*
Y01338*
X04429Y01345*
X04431Y01348*
X04432Y01352*
Y01418*
X04431Y01422*
X04429Y01425*
X04427Y01427*
Y01538*
X04437Y01547*
X04439Y01551*
X0444Y01555*
Y01567*
X04712*
X04728Y01568*
X04743Y01572*
X04909*
Y0168*
X04726*
Y01685*
X04721*
Y01797*
X04544*
X04542Y01801*
Y01823*
X0452*
Y01797*
X0451*
Y01823*
X04492*
X0447*
Y01797*
X04465*
Y01792*
X04437*
Y01773*
X04421*
Y0178*
X04415*
X04411Y01783*
Y01817*
X04411Y01817*
Y01836*
X04415Y01841*
X04443*
Y01832*
X04486*
Y01841*
X04491Y01843*
X04493Y01842*
Y01832*
X04536*
Y01872*
X0451*
Y0188*
X04509Y01883*
X04507Y01886*
X04509Y01889*
X0451Y01891*
X04925*
X04931Y01891*
X04936Y01894*
X04941Y01898*
X04966Y01923*
X0497Y01928*
X04973Y01933*
X04973Y0194*
Y02295*
X04978Y023*
X04978*
X04982Y02305*
X04985Y02311*
X04985Y02317*
Y02372*
X04985Y02378*
X04982Y02384*
X04978Y02389*
X04978*
X04973Y02394*
Y02395*
X04973Y02401*
X0497Y02406*
X04966Y02411*
X04961Y02415*
X04956Y02418*
X0495Y02418*
X03986*
X0398Y02418*
X03977Y02417*
X03974Y02418*
X03972Y02422*
X03975Y02426*
X04337*
Y02674*
X04342Y02676*
X04344Y02674*
X04349Y0267*
X04355Y02669*
X0436Y0267*
X04365Y02674*
X04369Y02679*
X0437Y02685*
X04369Y0269*
X04369Y0269*
Y02704*
X04369Y02704*
X0437Y0271*
X04369Y02715*
X04369Y02715*
Y02734*
X04369Y02734*
X0437Y0274*
X04374Y02742*
X04374Y02742*
X0438Y02741*
X04385Y02742*
X04389Y02745*
X04392Y02749*
X04393Y02755*
X04392Y0276*
X04389Y02764*
X04385Y02767*
X0438Y02768*
X04374Y02767*
X04374Y02767*
X0437Y0277*
X04369Y02775*
X04369Y02775*
Y02791*
X04369Y02791*
X0437Y02797*
X04369Y02802*
X04365Y02807*
X0436Y02811*
X04355Y02812*
X04349Y02811*
X04344Y02807*
X04342Y02805*
X04337Y02807*
Y02867*
X0427*
Y02927*
X0435*
Y02917*
X04394*
Y02957*
X0435*
Y02947*
X0427*
Y03008*
X04303*
Y03047*
X04334*
X04335Y03042*
X04334Y03042*
X0433Y03039*
X04327Y03035*
X04326Y0303*
X04327Y03024*
X0433Y0302*
X04334Y03017*
X0434Y03016*
X04345Y03017*
X04349Y0302*
X04352Y03024*
X04353Y0303*
X04352Y03035*
X04349Y03039*
X04345Y03042*
X04343Y03042*
Y03047*
X04346Y03048*
X04349Y0305*
X04357Y03058*
X04362Y03056*
Y03012*
X0435*
Y02972*
X04394*
Y03012*
X04382*
Y03025*
X04387Y03026*
X04387Y03024*
X0439Y0302*
X04394Y03017*
X044Y03016*
X04405Y03017*
X04409Y0302*
X04412Y03024*
X04413Y0303*
X04412Y03035*
X04409Y03039*
X04405Y03042*
X044Y03043*
X04394Y03042*
X0439Y03039*
X04387Y03035*
X04387Y03034*
X04382Y03034*
Y03067*
X04394*
Y03099*
X04398Y03101*
X04409Y0309*
Y03073*
X04407Y0307*
X04406Y03065*
X04407Y03059*
X0441Y03055*
X04414Y03052*
X0442Y03051*
X04425Y03052*
X04429Y03055*
X04432Y03059*
X04433Y03065*
X04432Y0307*
X0443Y03073*
Y03094*
X04429Y03098*
X04427Y03102*
X04394Y03135*
Y03162*
X0435*
Y03122*
X04377*
X04388Y03111*
X04386Y03107*
X0435*
Y03079*
X04338Y03067*
X04303*
Y03106*
X04266*
Y0309*
X04261Y03087*
X04261Y03087*
X04254Y03095*
X04253Y03096*
Y03106*
X04238*
X04237Y03106*
X04227Y03109*
X04217Y0311*
X03985*
X03974Y03109*
X03964Y03106*
X03955Y03101*
X03947Y03095*
X0394Y03087*
X03935Y03077*
X03932Y03067*
X03931Y03057*
Y02797*
X03932Y02789*
Y02468*
X03927Y02465*
X03925Y02467*
X0392Y02468*
X03914Y02467*
X0391Y02464*
X03907Y0246*
X03906Y02455*
X03907Y02449*
X0391Y02445*
X03914Y02442*
X0392Y02441*
X03925Y02442*
X03927Y02444*
X03932Y02441*
Y02426*
X03942*
X03946Y02421*
X03945Y0242*
X0394Y02417*
X03939Y02418*
X03933Y02418*
X03394*
X03391Y02423*
X03392Y02424*
X03393Y0243*
X03392Y02435*
X03389Y02439*
X03385Y02442*
X0338Y02443*
X03374Y02442*
X0337Y02439*
X03367Y02435*
X03366Y0243*
X03367Y02424*
X03368Y02423*
X03365Y02418*
X03318*
X03316Y02423*
X03319Y02425*
X03322Y02429*
X03323Y02435*
X03322Y0244*
X03319Y02444*
X03315Y02447*
X0331Y02448*
X03304Y02447*
X033Y02444*
X03297Y0244*
X03296Y02435*
X03297Y02429*
X033Y02425*
X03303Y02423*
X03301Y02418*
X03238*
Y02555*
X03335Y02651*
X03371*
Y02708*
X03368*
Y0273*
X03371*
Y02787*
X03288*
Y0273*
X03297*
X03299Y02725*
X03299Y02725*
X03298Y0272*
X03299Y02714*
X033Y02713*
X03297Y02708*
X03288*
Y02693*
X03142*
Y02727*
X03087*
X03086Y02732*
X03091Y02736*
X03096Y02743*
X031Y02751*
X03101Y0276*
X031Y02768*
X03096Y02776*
X03091Y02783*
X03084Y02789*
X03076Y02792*
X03067Y02793*
X03058Y02792*
X0305Y02789*
X03043Y02783*
X03038Y02776*
X03034Y02768*
X03033Y0276*
X03034Y02751*
X03038Y02743*
X03043Y02736*
X0305Y0273*
X03055Y02728*
X03055Y02728*
X03058Y02727*
X03059Y02727*
Y027*
X03055Y02697*
X03054Y02697*
X0305Y02698*
X03044Y02697*
X0304Y02694*
X03037Y0269*
X03036Y02685*
X03037Y02679*
X0304Y02675*
X03044Y02672*
X0305Y02671*
X03054Y02672*
X03055Y02672*
X03059Y02669*
Y02662*
X03048Y0265*
X03044Y02645*
X03041Y0264*
X03041Y02633*
Y02577*
X03012*
Y02588*
X03011Y02591*
X03009Y02595*
X02967Y02636*
Y02665*
X02925*
Y02606*
X02967*
X02971Y02604*
X02991Y02583*
Y02494*
X02992Y0249*
X02994Y02487*
X03054Y02427*
Y02402*
X03003*
Y02451*
X03003Y02457*
X03Y02463*
X02996Y02468*
X02945Y02519*
X0294Y02523*
X02935Y02525*
X02928Y02526*
X02855*
X02848Y02525*
X02843Y02523*
X02838Y02519*
X02834Y02514*
X02831Y02508*
X02831Y02502*
Y02474*
X02827Y0247*
X02825Y02464*
X02824Y02458*
Y02421*
X02812Y02409*
X02807Y02411*
Y02621*
X02812Y02624*
X02814Y02622*
X0282Y02621*
X02825Y02622*
X02829Y02625*
X02832Y02629*
X02833Y02635*
X02832Y0264*
X02829Y02644*
X02825Y02647*
X02824Y02647*
Y02652*
X02825Y02652*
X02829Y02655*
X02832Y02659*
X02833Y02665*
X02832Y0267*
X02829Y02674*
X02825Y02677*
X0282Y02678*
X02814Y02677*
X02812Y02675*
X02807Y02678*
Y02837*
X0274*
Y02892*
X02853*
Y0287*
X02896*
Y02909*
X02884*
X02881Y02911*
X02877Y02912*
X0274*
Y0293*
Y02978*
X02773*
Y03017*
X02783*
X0281Y0299*
X02813Y02988*
X02817Y02987*
X02858*
Y02977*
X02867*
Y02964*
X02853*
Y02925*
X02896*
Y02964*
X02887*
Y02977*
X02901*
Y03017*
X02865*
X02863Y03022*
X02864Y03022*
X02874Y03032*
X02901*
Y03072*
X02858*
Y03045*
X02853Y0304*
X02843*
X0284Y03042*
X02835Y03043*
X02829Y03042*
X02825Y03039*
X02822Y03035*
X02821Y0303*
X02822Y03024*
X02825Y0302*
X02829Y03017*
X02835Y03016*
X0284Y03017*
X02843Y03019*
X02854*
X02857Y03017*
X02858Y03015*
Y03007*
X02821*
X02794Y03034*
X02791Y03036*
X02787Y03037*
X02773*
Y03076*
X02736*
Y0306*
X02731Y03057*
X02731Y03057*
X02724Y03065*
X02723Y03066*
Y03076*
X02708*
X02707Y03076*
X02697Y03079*
X02687Y0308*
X02455*
X02444Y03079*
X02434Y03076*
X02425Y03071*
X02417Y03065*
X0241Y03057*
X02405Y03047*
X02402Y03037*
X02401Y03027*
Y02767*
X02402Y02759*
Y02396*
X02792*
X02794Y02392*
X02776Y02373*
X02429*
X0242Y02383*
X02415Y02387*
X02409Y02389*
X02403Y0239*
X02352*
X0235Y0239*
X02348Y0239*
X02296*
X0229Y02389*
X02284Y02387*
X0228Y02383*
X02016*
X0201Y02389*
X02007Y02391*
X02009Y02396*
X02297*
Y02837*
X0223*
Y02897*
X02308*
Y02882*
X02351*
Y02922*
X02308*
Y02917*
X0223*
Y02978*
X02263*
Y02989*
X02268Y02992*
X0227Y02992*
X02308*
Y02982*
X02322*
Y02977*
X02308*
Y02937*
X02351*
Y02977*
X02342*
Y02982*
X02351*
Y03022*
X02308*
Y03012*
X02274*
X02263Y03022*
Y03076*
X02226*
Y0306*
X02221Y03057*
X02221Y03057*
X02214Y03065*
X02213Y03066*
Y03076*
X02198*
X02197Y03076*
X02187Y03079*
X02177Y0308*
X01945*
X01934Y03079*
X01924Y03076*
X01915Y03071*
X01907Y03065*
X019Y03057*
X01895Y03047*
X01892Y03037*
X01891Y03027*
Y03012*
X01889Y0301*
X01886Y0301*
X01851Y03045*
Y03072*
X01808*
Y03032*
X01835*
X01846Y03021*
X01844Y03017*
X01808*
Y03007*
X01769*
X01753Y03022*
Y03076*
X01716*
Y0306*
X01711Y03057*
X01711Y03057*
X01704Y03065*
X01703Y03066*
Y03076*
X01688*
X01687Y03076*
X01677Y03079*
X01667Y0308*
X01435*
X01424Y03079*
X01414Y03076*
X01405Y03071*
X01397Y03065*
X0139Y03057*
X01385Y03047*
X01382Y03037*
X01382Y03032*
X01376Y03032*
X01376Y03034*
X01371Y03042*
X01365Y0305*
X01357Y03056*
X01349Y03061*
X01339Y03064*
X01335Y03064*
Y03015*
Y02965*
X01339Y02965*
X01349Y02968*
X01357Y02973*
X01365Y02979*
X01371Y02987*
X01376Y02995*
X01376Y02996*
X01381Y02995*
Y02914*
X01376Y02911*
X01374Y02913*
X01368Y02915*
X01362Y02916*
X01222*
X01216Y02915*
X0121Y02913*
X01206Y02909*
X01157Y02861*
X01121*
Y02838*
X01103*
Y02856*
X01046*
Y0282*
X00943Y02716*
X00939Y02711*
X00937Y02706*
X00902*
Y02623*
X01017*
Y02706*
X01006*
X01004Y02711*
X01027Y02733*
X01032Y02731*
Y0268*
X01075*
Y02738*
X01039*
X01036Y02743*
X01067Y02773*
X01103*
Y02791*
X01121*
Y02778*
X01178*
Y02814*
X01232Y02869*
X01338*
Y02861*
X01282*
Y02778*
X01319*
Y02726*
X0132Y02722*
X01322Y02719*
X01322Y02719*
Y02562*
X01322Y0256*
Y02378*
X01323Y02374*
X01325Y02371*
X01359Y02337*
Y0229*
X01355Y02287*
X01354Y02287*
X0135Y02288*
X01344Y02287*
X0134Y02284*
X01337Y0228*
X01336Y02275*
X01337Y02269*
X0134Y02265*
X01344Y02262*
X0135Y02261*
X01354Y02262*
X01355Y02262*
X01359Y02259*
Y0206*
X01355Y02057*
X01354Y02057*
X0135Y02058*
X01344Y02057*
X0134Y02054*
X01337Y0205*
X01336Y02045*
X01337Y02039*
X0134Y02035*
X01344Y02032*
X0135Y02031*
X01354Y02032*
X01355Y02032*
X01359Y02029*
Y01978*
X0136Y01974*
X01362Y01971*
X01371Y01963*
Y01947*
X01371Y01943*
X01373Y0194*
X01385Y01928*
X01388Y01926*
X01392Y01925*
X01407*
X01411Y01926*
X01414Y01928*
X01448Y01962*
X01467*
X01468Y01957*
X01467Y01957*
X01461Y01953*
X01457Y01947*
X01456Y0194*
Y01893*
Y01846*
Y01799*
X01457Y01792*
X01458Y01789*
X01456Y01784*
X01439*
X01435Y01789*
X01435Y0179*
X01434Y01795*
X01431Y01799*
X01427Y01802*
X01422Y01803*
X01417Y01802*
X01413Y01799*
X0141Y01795*
X01409Y0179*
X0141Y01784*
X0141Y01783*
X0141Y01783*
X01409Y01779*
X0141Y01777*
X01407Y01773*
X01406Y01772*
X01369*
Y01762*
X01325*
X01308Y01761*
X01293Y01757*
X01278Y01751*
X01264Y01743*
X01252Y01732*
X01241Y0172*
X01233Y01706*
X01227Y01691*
X01224Y01679*
X01099*
Y01695*
X01104Y01698*
X01105Y01697*
X0111Y01696*
X01115Y01697*
X01119Y017*
X01122Y01704*
X01123Y0171*
X01122Y01715*
X01119Y01719*
X01115Y01722*
X0111Y01723*
X01105Y01722*
X011Y01719*
X01097Y01715*
X01096Y0171*
X01097Y01704*
X01098Y01704*
X01095Y01699*
X0105*
X0105Y01699*
X01039Y01705*
X01027Y01709*
X01014Y0171*
X00955*
X00945Y01709*
X00941Y01711*
X00929Y01715*
X00917Y01716*
X0091*
X00907Y01721*
X00908Y01725*
X00907Y0173*
X00904Y01734*
X009Y01737*
X00895Y01738*
X00889Y01737*
X00885Y01734*
X00883Y01731*
X00877Y01729*
X00813Y01794*
Y02071*
X00823*
X00836Y02072*
X00848Y02076*
X00859Y02082*
X00868Y0209*
X00889Y02111*
X00897Y0212*
X00903Y02131*
X00907Y02143*
X00908Y02156*
Y02342*
X01002Y02436*
X01023*
Y02481*
X01023Y02483*
X01023Y02485*
X0105Y02512*
X01055Y0251*
Y0251*
X0108*
Y0256*
X01085*
Y02565*
X01114*
Y02576*
X01115Y02577*
X01122Y02587*
X01127Y02597*
X01128Y02608*
Y0261*
X01127Y0262*
Y0267*
X0108*
X01032*
Y02618*
X00961Y02547*
X0096Y02547*
X00947Y02546*
X00935Y02542*
X00924Y02536*
X00918Y02531*
X00896*
Y0251*
X008Y02413*
X00792Y02404*
X00786Y02393*
X00782Y02381*
X00781Y02368*
Y02198*
X0075*
X00737Y02197*
X00725Y02193*
X00714Y02187*
X00705Y02179*
X00697Y0217*
X00691Y02159*
X00687Y02147*
X00686Y02135*
Y01768*
X00687Y01755*
X00691Y01743*
X00697Y01732*
X00705Y01723*
X0082Y01608*
X00829Y016*
X0084Y01594*
X00852Y0159*
X00865Y01589*
X0089*
X00894Y01586*
X00903Y01578*
X00914Y01572*
X00926Y01568*
X00939Y01567*
X00951Y01568*
X00963Y01572*
X00966Y01574*
X00972Y01571*
X00972Y01569*
X00975Y01565*
X00979Y01562*
X00981Y01562*
X00984Y01556*
X00982Y01553*
X00978Y01541*
X00977Y01529*
X00978Y01516*
X00982Y01504*
X00988Y01493*
X00996Y01484*
X01Y0148*
X01Y01471*
X01003Y01458*
X01009Y01446*
X01016Y01434*
X01024Y01424*
X01034Y01416*
X01046Y01409*
X01058Y01403*
X01071Y014*
X0108Y014*
Y01485*
X0109*
Y014*
X01098Y014*
X01111Y01403*
X01115Y01405*
X01214*
X01218Y01403*
X01231Y014*
X0124Y014*
Y01485*
X0125*
Y014*
X01258Y014*
X01271Y01403*
X01283Y01409*
X01295Y01416*
X01305Y01424*
X01313Y01434*
X0132Y01446*
X01326Y01458*
X01328Y01467*
X01333Y01468*
X01334Y01465*
X01339Y01459*
X01345Y01454*
X01345Y01454*
Y01288*
X01339Y01281*
X01335Y01277*
X01334Y01271*
X01335Y01266*
X01339Y01261*
X01339Y01261*
X01339Y0126*
X01338Y01256*
X00603*
X00603Y01261*
X00604Y01261*
X00615Y01267*
X00624Y01275*
X00632Y01284*
X00638Y01295*
X00642Y01307*
X00643Y0132*
X00642Y01332*
X00638Y01344*
X00632Y01355*
X00624Y01364*
X00615Y01372*
X00604Y01378*
X00592Y01382*
X0058Y01383*
X00567Y01382*
X00555Y01378*
X00544Y01372*
X00535Y01364*
X00527Y01355*
X00521Y01344*
X00521Y01343*
X00516Y01343*
Y0219*
X00521Y0219*
X00522Y02179*
X00526Y02164*
X00534Y0215*
X00543Y02138*
X00555Y02129*
X00569Y02121*
X00584Y02117*
X006Y02115*
X00615Y02117*
X0063Y02121*
X00644Y02129*
X00656Y02138*
X00666Y0215*
X00673Y02164*
X00677Y02179*
X00679Y02195*
X00677Y0221*
X00673Y02225*
X00666Y02239*
X00656Y02251*
X00644Y02261*
X0063Y02268*
X00615Y02272*
X006Y02274*
X00584Y02272*
X00569Y02268*
X00555Y02261*
X00543Y02251*
X00534Y02239*
X00526Y02225*
X00522Y0221*
X00521Y02199*
X00516Y02199*
Y03435*
X00521Y03435*
X00522Y03424*
X00526Y03409*
X00534Y03395*
X00543Y03383*
X00555Y03374*
X00569Y03366*
X00584Y03362*
X006Y0336*
X00615Y03362*
X0063Y03366*
X00644Y03374*
X00656Y03383*
X00666Y03395*
X00673Y03409*
X00677Y03424*
X00679Y0344*
X00677Y03455*
X00673Y0347*
X00666Y03484*
X00656Y03496*
X00644Y03506*
X0063Y03513*
X00615Y03517*
X006Y03519*
X00584Y03517*
X00569Y03513*
X00555Y03506*
X00543Y03496*
X00534Y03484*
X00526Y0347*
X00522Y03455*
X00521Y03444*
X00516Y03444*
Y03581*
X00521Y03582*
X00521Y0358*
X00527Y03569*
X00535Y0356*
X00544Y03552*
X00555Y03546*
X00567Y03542*
X0058Y03541*
X00592Y03542*
X00604Y03546*
X00615Y03552*
X00624Y0356*
X00632Y03569*
X00638Y0358*
X00642Y03592*
X00643Y03605*
X00642Y03617*
X00638Y03629*
X00632Y0364*
X00624Y03649*
X00615Y03657*
X00604Y03663*
X00603Y03663*
X00603Y03668*
X05066*
X05067Y03663*
X05065Y03663*
X05054Y03657*
X05045Y03649*
X05037Y0364*
X05031Y03629*
X05027Y03617*
X05026Y03605*
X05027Y03592*
X05031Y0358*
X05037Y03569*
X05045Y0356*
X05054Y03552*
X05065Y03546*
X05077Y03542*
X0509Y03541*
X05102Y03542*
X05114Y03546*
X05125Y03552*
X05134Y0356*
X05142Y03569*
X05148Y0358*
X05152Y03592*
X05153Y03605*
X05152Y03617*
X05148Y03629*
X05142Y0364*
X05134Y03649*
X05125Y03657*
X05114Y03663*
X05113Y03663*
X05113Y03668*
X05158*
Y03469*
G37*
G36*
X02218Y01983D02*
X02218Y01983D01*
X02217*
Y01962*
X02245*
Y01952*
X02217*
Y0194*
X02214Y01936*
X02175*
Y01908*
X0217Y01906*
X02159Y01916*
Y01936*
X02122*
Y01941*
X02082*
Y01905*
X02078Y01902*
X02077Y01902*
X02075Y01905*
X02067Y01914*
Y01941*
X0205*
Y01958*
X02052Y01962*
X02053Y01967*
X02052Y01972*
X02051Y01973*
X02054Y01978*
X02063*
X02065Y01973*
X02065Y01973*
X02064Y01968*
X02065Y01963*
X02068Y01959*
X02072Y01956*
X02077Y01955*
X02083Y01956*
X02087Y01959*
X0209Y01963*
X02091Y01968*
X0209Y01973*
X0209Y01973*
X02092Y01978*
X0216*
X02177Y01979*
X02193Y01983*
X02205Y01988*
X02215*
X02218Y01983*
G37*
%LNninja_ecu_pcb-2*%
%LPC*%
G36*
X01891Y01409D02*
X01865D01*
Y01385*
X01891*
Y01409*
G37*
G36*
X04395Y01993D02*
X04389Y01992D01*
X04385Y01989*
X04382Y01985*
X04381Y0198*
X04382Y01974*
X04385Y0197*
X04389Y01967*
X04395Y01966*
X044Y01967*
X04404Y0197*
X04407Y01974*
X04408Y0198*
X04407Y01985*
X04404Y01989*
X044Y01992*
X04395Y01993*
G37*
G36*
X02502Y01818D02*
X0248D01*
Y01797*
X02502*
Y01818*
G37*
G36*
X01705Y01453D02*
X01699Y01452D01*
X01695Y01449*
X01692Y01445*
X01691Y0144*
X01692Y01434*
X01695Y0143*
X01699Y01427*
X01705Y01426*
X0171Y01427*
X01714Y0143*
X01717Y01434*
X01718Y0144*
X01717Y01445*
X01714Y01449*
X0171Y01452*
X01705Y01453*
G37*
G36*
X02437Y01348D02*
X02414D01*
Y01327*
X02437*
Y01348*
G37*
G36*
X02195D02*
X02155D01*
Y01322*
Y01296*
X02195*
Y01322*
Y01348*
G37*
G36*
X0292Y01923D02*
X02914Y01922D01*
X0291Y01919*
X02907Y01915*
X02906Y0191*
X02907Y01904*
X0291Y019*
X02914Y01897*
X0292Y01896*
X02925Y01897*
X02929Y019*
X02932Y01904*
X02933Y0191*
X02932Y01915*
X02929Y01919*
X02925Y01922*
X0292Y01923*
G37*
G36*
X02921Y01969D02*
X02916Y01968D01*
X02912Y01965*
X02909Y01961*
X02908Y01956*
X02909Y01951*
X02912Y01947*
X02916Y01944*
X02921Y01943*
X02926Y01944*
X0293Y01947*
X02933Y01951*
X02934Y01956*
X02933Y01961*
X0293Y01965*
X02926Y01968*
X02921Y01969*
G37*
G36*
X0293Y02073D02*
X02924Y02072D01*
X0292Y02069*
X02917Y02065*
X02916Y0206*
X02917Y02054*
X0292Y0205*
X02923Y02048*
X02924Y02045*
X02924Y02042*
X02922Y0204*
X02922Y02036*
X02921Y02034*
X02917Y02032*
X02915Y02033*
X02909Y02032*
X02905Y02029*
X02902Y02025*
X02901Y0202*
X02902Y02014*
X02905Y0201*
X02907Y02009*
X02909Y02005*
X02908Y02003*
X02906Y02001*
X02905Y01995*
X02906Y0199*
X02909Y01986*
X02913Y01983*
X02919Y01982*
X02924Y01983*
X02928Y01986*
X02931Y0199*
X02932Y01995*
X02931Y02001*
X02928Y02005*
X02926Y02006*
X02924Y02009*
X02925Y02012*
X02927Y02014*
X02927Y02018*
X02928Y0202*
X02932Y02022*
X02935Y02021*
X0294Y02022*
X02944Y02025*
X02947Y02029*
X02948Y02035*
X02947Y0204*
X02944Y02044*
X02941Y02046*
X0294Y02049*
X0294Y02052*
X02942Y02054*
X02943Y0206*
X02942Y02065*
X02939Y02069*
X02935Y02072*
X0293Y02073*
G37*
G36*
X03665Y01873D02*
X03659Y01872D01*
X03655Y01869*
X03652Y01865*
X03651Y0186*
X03652Y01854*
X03655Y0185*
X03659Y01847*
X03665Y01846*
X0367Y01847*
X03674Y0185*
X03677Y01854*
X03678Y0186*
X03677Y01865*
X03674Y01869*
X0367Y01872*
X03665Y01873*
G37*
G36*
X03357Y01592D02*
X03336D01*
Y0157*
X03357*
Y01592*
G37*
G36*
X03745Y01844D02*
X03702D01*
X03697Y01843*
X03692Y01839*
X03691Y01837*
X03685Y01837*
X03684Y01839*
X0368Y01842*
X03675Y01843*
X03669Y01842*
X03665Y01839*
X03662Y01835*
X03661Y0183*
X03662Y01824*
X03665Y0182*
X03669Y01817*
X03675Y01816*
X0368Y01817*
X03684Y0182*
X03685Y01822*
X03691Y01822*
X03692Y0182*
X03697Y01816*
X03702Y01815*
X03745*
X0375Y01816*
X03754Y0182*
X03758Y01824*
X03759Y0183*
X03758Y01835*
X03754Y01839*
X0375Y01843*
X03745Y01844*
G37*
G36*
X03313Y01876D02*
X03308Y01875D01*
X03304Y01872*
X03301Y01868*
X033Y01863*
X03301Y01858*
X03304Y01854*
X03308Y01851*
X03313Y0185*
X03318Y01851*
X03322Y01854*
X03325Y01858*
X03326Y01863*
X03325Y01868*
X03322Y01872*
X03318Y01875*
X03313Y01876*
G37*
G36*
X036Y01878D02*
X03594Y01877D01*
X0359Y01874*
X03587Y0187*
X03586Y01865*
X03587Y01859*
X0359Y01855*
X03594Y01852*
X036Y01851*
X03605Y01852*
X03609Y01855*
X03612Y01859*
X03613Y01865*
X03612Y0187*
X03609Y01874*
X03605Y01877*
X036Y01878*
G37*
G36*
X03795Y01917D02*
X03772D01*
Y01896*
X03795*
Y01917*
G37*
G36*
X03243Y01856D02*
X03238Y01855D01*
X03234Y01852*
X03231Y01848*
X0323Y01843*
X03231Y01838*
X03234Y01834*
X03238Y01831*
X03243Y0183*
X03248Y01831*
X03252Y01834*
X03255Y01838*
X03256Y01843*
X03255Y01848*
X03252Y01852*
X03248Y01855*
X03243Y01856*
G37*
G36*
X0333Y01668D02*
X03324Y01667D01*
X0332Y01664*
X03317Y0166*
X03316Y01655*
X03317Y01649*
X0332Y01645*
X03324Y01642*
X0333Y01641*
X03335Y01642*
X03339Y01645*
X03342Y01649*
X03343Y01655*
X03342Y0166*
X03339Y01664*
X03335Y01667*
X0333Y01668*
G37*
G36*
X0309Y01653D02*
X03084Y01652D01*
X0308Y01649*
X03077Y01645*
X03076Y0164*
X03077Y01634*
X0308Y0163*
X03084Y01627*
X0309Y01626*
X03095Y01627*
X03099Y0163*
X03102Y01634*
X03103Y0164*
X03102Y01645*
X03099Y01649*
X03095Y01652*
X0309Y01653*
G37*
G36*
X033Y01693D02*
X03294Y01692D01*
X0329Y01689*
X03287Y01685*
X03286Y0168*
X03287Y01674*
X0329Y0167*
X03294Y01667*
X033Y01666*
X03305Y01667*
X03309Y0167*
X03312Y01674*
X03313Y0168*
X03312Y01685*
X03309Y01689*
X03305Y01692*
X033Y01693*
G37*
G36*
X03205Y01883D02*
X03199Y01882D01*
X03195Y01879*
X03192Y01875*
X03191Y0187*
X03192Y01864*
X03195Y0186*
X03196Y0186*
Y01854*
X03194Y01853*
X03191Y01849*
X0319Y01844*
X03191Y01838*
X03194Y01834*
X03198Y01831*
X03204Y0183*
X03209Y01831*
X03213Y01834*
X03216Y01838*
X03217Y01844*
X03216Y01849*
X03213Y01853*
X03213Y01853*
Y01859*
X03214Y0186*
X03217Y01864*
X03218Y0187*
X03217Y01875*
X03214Y01879*
X0321Y01882*
X03205Y01883*
G37*
G36*
X03568Y01355D02*
X03555D01*
Y01341*
X03557Y01342*
X03563Y01346*
X03567Y01352*
X03568Y01355*
G37*
G36*
X0294Y01358D02*
X02917D01*
Y01337*
X0294*
Y01358*
G37*
G36*
X02907D02*
X02884D01*
Y01337*
X02907*
Y01358*
G37*
G36*
X03403Y01305D02*
X03382D01*
Y01282*
X03403*
Y01305*
G37*
G36*
X02724Y01317D02*
X02701D01*
Y01296*
X02724*
Y01317*
G37*
G36*
X02691D02*
X02668D01*
Y01296*
X02691*
Y01317*
G37*
G36*
X03225Y01345D02*
X03182D01*
Y01286*
X03225*
Y01345*
G37*
G36*
Y01413D02*
X03182D01*
Y01355*
X03225*
Y01413*
G37*
G36*
X02998Y0156D02*
X0294D01*
Y01517*
X02952*
Y01487*
X02913*
Y01465*
X02865Y01417*
X02861Y01412*
X0286Y01407*
Y01399*
X02855*
X02852Y01399*
X02849Y01399*
X02828*
X02825Y01399*
X02819Y01398*
X02814Y01395*
X02811Y0139*
X0281Y01385*
X02811Y01379*
X02814Y01374*
X02819Y01371*
X02825Y0137*
X02828Y0137*
X02849*
X02852Y0137*
X02855Y0137*
X0288*
X0288Y01371*
X02883Y01368*
X02912*
X0294*
Y01377*
X02942Y01378*
X02944Y01382*
X02945Y01386*
Y01386*
X02962*
Y01407*
X02935*
Y01417*
X02962*
Y01433*
X02969Y0144*
X02971Y01443*
X02972Y01447*
Y01517*
X02998*
Y0156*
G37*
G36*
X03555Y01378D02*
Y01365D01*
X03568*
X03567Y01367*
X03563Y01373*
X03557Y01377*
X03555Y01378*
G37*
G36*
X03545Y01998D02*
X03539Y01997D01*
X03535Y01994*
X03532Y0199*
X03531Y01985*
X03532Y01979*
X03535Y01975*
X03537Y01974*
X03536Y01969*
X03534Y01968*
X0353Y01965*
X03527Y01961*
X03526Y01956*
X03527Y01951*
X0353Y01947*
X03534Y01944*
X0354Y01943*
X03545Y01944*
X03549Y01947*
X03552Y01951*
X03553Y01956*
X03552Y01961*
X03549Y01965*
X03547Y01967*
X03548Y01972*
X0355Y01972*
X03554Y01975*
X03557Y01979*
X03558Y01985*
X03557Y0199*
X03554Y01994*
X0355Y01997*
X03545Y01998*
G37*
G36*
X0327Y02033D02*
X03264Y02032D01*
X0326Y02029*
X03257Y02025*
X03256Y0202*
X03257Y02014*
X0326Y0201*
X03264Y02007*
X0327Y02006*
X03275Y02007*
X03279Y0201*
X03282Y02014*
X03283Y0202*
X03282Y02025*
X03279Y02029*
X03275Y02032*
X0327Y02033*
G37*
G36*
X0333Y02028D02*
X03324Y02027D01*
X0332Y02024*
X03317Y0202*
X03316Y02015*
X03317Y02009*
X0332Y02005*
X03324Y02002*
X0333Y02001*
X03335Y02002*
X03339Y02005*
X03342Y02009*
X03343Y02015*
X03342Y0202*
X03339Y02024*
X03335Y02027*
X0333Y02028*
G37*
G36*
X0337Y01933D02*
X03364Y01932D01*
X0336Y01929*
X03357Y01925*
X03356Y0192*
X03357Y01914*
X0336Y0191*
X03364Y01907*
X0337Y01906*
X03375Y01907*
X03379Y0191*
X03382Y01914*
X03383Y0192*
X03382Y01925*
X03379Y01929*
X03375Y01932*
X0337Y01933*
G37*
G36*
X0354Y01928D02*
X03534Y01927D01*
X0353Y01924*
X03527Y0192*
X03526Y01915*
X03527Y01909*
X0353Y01905*
X03534Y01902*
X0354Y01901*
X03545Y01902*
X03549Y01905*
X03552Y01909*
X03553Y01915*
X03552Y0192*
X03549Y01924*
X03545Y01927*
X0354Y01928*
G37*
G36*
X03665Y01923D02*
X03659Y01922D01*
X03655Y01919*
X03652Y01915*
X03651Y0191*
X03652Y01904*
X03655Y019*
X03659Y01897*
X03665Y01896*
X0367Y01897*
X03674Y019*
X03677Y01904*
X03678Y0191*
X03677Y01915*
X03674Y01919*
X0367Y01922*
X03665Y01923*
G37*
G36*
X03215Y01968D02*
X03209Y01967D01*
X03205Y01964*
X03202Y0196*
X03201Y01955*
X03202Y01949*
X03205Y01945*
X03209Y01942*
X03215Y01941*
X0322Y01942*
X03224Y01945*
X03227Y01949*
X03228Y01955*
X03227Y0196*
X03224Y01964*
X0322Y01967*
X03215Y01968*
G37*
G36*
X03795Y01948D02*
X03772D01*
Y01927*
X03795*
Y01948*
G37*
G36*
X0333Y01948D02*
X03324Y01947D01*
X0332Y01944*
X03317Y0194*
X03316Y01935*
X03317Y01929*
X0332Y01925*
X03324Y01922*
X0333Y01921*
X03335Y01922*
X03339Y01925*
X03342Y01929*
X03343Y01935*
X03342Y0194*
X03339Y01944*
X03335Y01947*
X0333Y01948*
G37*
G36*
X03415Y02363D02*
X03409Y02362D01*
X03405Y02359*
X03402Y02355*
X03401Y0235*
X03402Y02344*
X03405Y0234*
X03409Y02337*
X03415Y02336*
X0342Y02337*
X03424Y0234*
X03427Y02344*
X03428Y0235*
X03427Y02355*
X03424Y02359*
X0342Y02362*
X03415Y02363*
G37*
G36*
X03128Y0235D02*
X0307D01*
Y02307*
X03128*
Y0235*
G37*
G36*
X03125Y02298D02*
X03119Y02297D01*
X03115Y02294*
X03112Y0229*
X03111Y02285*
X03112Y02279*
X03115Y02275*
X03119Y02272*
X03125Y02271*
X0313Y02272*
X03134Y02275*
X03137Y02279*
X03138Y02285*
X03137Y0229*
X03134Y02294*
X0313Y02297*
X03125Y02298*
G37*
G36*
X03345Y02188D02*
X03339Y02187D01*
X03335Y02184*
X03332Y0218*
X03331Y02175*
X03332Y02169*
X03335Y02165*
X03339Y02162*
X03345Y02161*
X0335Y02162*
X03354Y02165*
X03357Y02169*
X03358Y02175*
X03357Y0218*
X03354Y02184*
X0335Y02187*
X03345Y02188*
G37*
G36*
X0324Y02183D02*
X03234Y02182D01*
X0323Y02179*
X03227Y02175*
X03226Y0217*
X03227Y02164*
X0323Y0216*
X03234Y02157*
X0324Y02156*
X03245Y02157*
X03249Y0216*
X03252Y02164*
X03253Y0217*
X03252Y02175*
X03249Y02179*
X03245Y02182*
X0324Y02183*
G37*
G36*
X0332Y02278D02*
X03314Y02277D01*
X0331Y02274*
X03307Y0227*
X03306Y02265*
X03307Y02259*
X0331Y02255*
X03314Y02252*
X0332Y02251*
X03325Y02252*
X03329Y02255*
X03332Y02259*
X03333Y02265*
X03332Y0227*
X03329Y02274*
X03325Y02277*
X0332Y02278*
G37*
G36*
X03375Y02263D02*
X03369Y02262D01*
X03365Y02259*
X03362Y02255*
X03361Y0225*
X03362Y02244*
X03365Y0224*
X03369Y02237*
X03375Y02236*
X0338Y02237*
X03384Y0224*
X03387Y02244*
X03388Y0225*
X03387Y02255*
X03384Y02259*
X0338Y02262*
X03375Y02263*
G37*
G36*
X0337Y02208D02*
X03364Y02207D01*
X0336Y02204*
X03357Y022*
X03356Y02195*
X03357Y02189*
X0336Y02185*
X03364Y02182*
X0337Y02181*
X03375Y02182*
X03379Y02185*
X03382Y02189*
X03383Y02195*
X03382Y022*
X03379Y02204*
X03375Y02207*
X0337Y02208*
G37*
G36*
X0415Y01288D02*
X04147Y01287D01*
X04141Y01283*
X04137Y01277*
X04136Y01275*
X0415*
Y01288*
G37*
G36*
X00905Y01863D02*
X00899Y01862D01*
X00895Y01859*
X00892Y01855*
X00891Y0185*
X00892Y01844*
X00895Y0184*
X00899Y01837*
X00905Y01836*
X0091Y01837*
X00914Y0184*
X00917Y01844*
X00918Y0185*
X00917Y01855*
X00914Y01859*
X0091Y01862*
X00905Y01863*
G37*
G36*
X04755Y01483D02*
Y0147D01*
X04768*
X04767Y01472*
X04763Y01478*
X04757Y01482*
X04755Y01483*
G37*
G36*
X01075Y01738D02*
X01069Y01737D01*
X01065Y01734*
X01062Y0173*
X01061Y01725*
X01062Y01719*
X01065Y01715*
X01069Y01712*
X01075Y01711*
X0108Y01712*
X01084Y01715*
X01087Y01719*
X01088Y01725*
X01087Y0173*
X01084Y01734*
X0108Y01737*
X01075Y01738*
G37*
G36*
X0446Y01823D02*
X04437D01*
Y01802*
X0446*
Y01823*
G37*
G36*
X0141Y01843D02*
X01404Y01842D01*
X014Y01839*
X01397Y01835*
X01396Y0183*
X01397Y01824*
X014Y0182*
X01404Y01817*
X0141Y01816*
X01415Y01817*
X01419Y0182*
X01422Y01824*
X01423Y0183*
X01422Y01835*
X01419Y01839*
X01415Y01842*
X0141Y01843*
G37*
G36*
X04731Y01797D02*
Y0169D01*
X04909*
Y01797*
X04731*
G37*
G36*
X0119Y01348D02*
X01184Y01347D01*
X0118Y01344*
X01177Y0134*
X01176Y01335*
X01177Y01329*
X0118Y01325*
X01184Y01322*
X0119Y01321*
X01195Y01322*
X01199Y01325*
X01202Y01329*
X01203Y01335*
X01202Y0134*
X01199Y01344*
X01195Y01347*
X0119Y01348*
G37*
G36*
X04418Y0129D02*
X04397D01*
Y01267*
X04418*
Y0129*
G37*
G36*
X0479Y01408D02*
Y01395D01*
X04803*
X04802Y01397*
X04798Y01403*
X04792Y01407*
X0479Y01408*
G37*
G36*
X04745Y01483D02*
X04742Y01482D01*
X04736Y01478*
X04732Y01472*
X04731Y0147*
X04745*
Y01483*
G37*
G36*
X04768Y0146D02*
X04755D01*
Y01446*
X04757Y01447*
X04763Y01451*
X04767Y01457*
X04768Y0146*
G37*
G36*
X04745D02*
X04731D01*
X04732Y01457*
X04736Y01451*
X04742Y01447*
X04745Y01446*
Y0146*
G37*
G36*
X04803Y01385D02*
X0479D01*
Y01371*
X04792Y01372*
X04798Y01376*
X04802Y01382*
X04803Y01385*
G37*
G36*
X0478D02*
X04766D01*
X04767Y01382*
X04771Y01376*
X04777Y01372*
X0478Y01371*
Y01385*
G37*
G36*
Y01408D02*
X04777Y01407D01*
X04771Y01403*
X04767Y01397*
X04766Y01395*
X0478*
Y01408*
G37*
G36*
X0452Y01434D02*
X04512Y01433D01*
X04505Y0143*
X04499Y01425*
X04494Y01419*
X04491Y01412*
X0449Y01405*
X04491Y01397*
X04494Y0139*
X04499Y01384*
X04505Y01379*
X04512Y01376*
X0452Y01375*
X04527Y01376*
X04534Y01379*
X0454Y01384*
X04545Y0139*
X04548Y01397*
X04549Y01405*
X04548Y01412*
X04545Y01419*
X0454Y01425*
X04534Y0143*
X04527Y01433*
X0452Y01434*
G37*
G36*
X03067Y02893D02*
X03058Y02892D01*
X0305Y02889*
X03043Y02883*
X03038Y02876*
X03034Y02868*
X03033Y0286*
X03034Y02851*
X03038Y02843*
X03043Y02836*
X0305Y0283*
X03058Y02827*
X03067Y02826*
X03076Y02827*
X03084Y0283*
X03091Y02836*
X03096Y02843*
X031Y02851*
X03101Y0286*
X031Y02868*
X03096Y02876*
X03091Y02883*
X03084Y02889*
X03076Y02892*
X03067Y02893*
G37*
G36*
X01266Y03292D02*
X00943D01*
Y03178*
X01136*
X01151Y03163*
Y03001*
X01072Y02922*
X01003*
X00996Y02921*
X0099Y02917*
X00929Y02856*
X00885*
Y02773*
X00942*
Y02817*
X01011Y02886*
X0108*
X01086Y02887*
X01092Y02891*
X01182Y02981*
X01186Y02987*
X01188Y02994*
Y0317*
X01187Y03173*
X01191Y03178*
X01266*
Y03292*
G37*
G36*
X00825Y02763D02*
X00819Y02762D01*
X00815Y02759*
X00812Y02755*
X00811Y0275*
X00812Y02744*
X00815Y0274*
X00819Y02737*
X00825Y02736*
X0083Y02737*
X00834Y0274*
X00837Y02744*
X00838Y0275*
X00837Y02755*
X00834Y02759*
X0083Y02762*
X00825Y02763*
G37*
G36*
X01325Y0301D02*
X0128D01*
X0128Y03005*
X01283Y02995*
X01288Y02987*
X01294Y02979*
X01302Y02973*
X0131Y02968*
X0132Y02965*
X01325Y02965*
Y0301*
G37*
G36*
X03707Y0311D02*
X03475D01*
X03464Y03109*
X03454Y03106*
X03445Y03101*
X03437Y03095*
X0343Y03087*
X03425Y03077*
X03422Y03067*
X03421Y03057*
Y02797*
X03422Y02789*
Y02528*
X03417Y02525*
X03415Y02527*
X0341Y02528*
X03404Y02527*
X034Y02524*
X03397Y0252*
X03396Y02515*
X03397Y02509*
X034Y02505*
X03403Y02503*
Y02502*
X03401Y02498*
X034Y02493*
X03401Y02487*
X03403Y02483*
X03408Y0248*
X03413Y02479*
X03417Y0248*
X03422Y02477*
Y02426*
X03827*
Y02867*
X0376*
Y02912*
X03845*
Y02902*
X03889*
Y02942*
X03845*
Y02932*
X0376*
Y02944*
X03759Y02955*
X03757Y02962*
X03758Y02963*
X03761Y02966*
X03765Y02967*
X03769Y0297*
X03772Y02974*
X03773Y0298*
X03772Y02985*
X03769Y02989*
X03765Y02992*
X03761Y02993*
X03758Y02996*
X03757Y02997*
X03759Y03004*
X03759Y03008*
X03793*
Y03061*
X03809Y03077*
X03845*
Y03067*
X03857*
Y02997*
X03845*
Y02957*
X03889*
Y02997*
X03877*
Y03067*
X03889*
Y03107*
X03845*
Y03097*
X03804*
X03801Y03096*
X03798Y03095*
X03793Y03096*
Y03106*
X03756*
Y0309*
X03751Y03087*
X03751Y03087*
X03744Y03095*
X03743Y03096*
Y03106*
X03728*
X03727Y03106*
X03717Y03109*
X03707Y0311*
G37*
G36*
X03189Y03114D02*
X03145D01*
X03134Y03113*
X03131Y03112*
X02928*
Y02998*
X03033*
X03033Y02993*
Y02993*
Y02926*
X03101*
Y02993*
Y02993*
X03101Y02998*
X03218*
X03288Y02928*
Y02891*
X03371*
Y02948*
X03336*
X03251Y03033*
Y03112*
X03202*
X03199Y03113*
X03189Y03114*
G37*
G36*
X02915Y02665D02*
X02872D01*
Y02606*
X02915*
Y02665*
G37*
G36*
X02355Y02563D02*
X02349Y02562D01*
X02345Y02559*
X02342Y02555*
X02341Y0255*
X02342Y02544*
X02345Y0254*
X02349Y02537*
X02355Y02536*
X0236Y02537*
X02364Y0254*
X02367Y02544*
X02368Y0255*
X02367Y02555*
X02364Y02559*
X0236Y02562*
X02355Y02563*
G37*
G36*
X01114Y02555D02*
X0109D01*
Y0251*
X01114*
Y02555*
G37*
G36*
X01127Y02738D02*
X01085D01*
Y0268*
X01127*
Y02738*
G37*
G36*
X02967Y02733D02*
X02925D01*
Y02675*
X02967*
Y02733*
G37*
G36*
X02915D02*
X02872D01*
Y02675*
X02915*
Y02733*
G37*
G36*
X04727Y0311D02*
X04495D01*
X04484Y03109*
X04474Y03106*
X04465Y03101*
X04457Y03095*
X0445Y03087*
X04445Y03077*
X04442Y03067*
X04441Y03057*
Y02802*
X04442Y02795*
Y02426*
X04847*
Y02867*
X0478*
Y02922*
X04895*
Y02912*
X04939*
Y02952*
X04895*
Y02942*
X0478*
Y03008*
X04813*
Y03017*
X04818Y03019*
X04857Y0298*
X04861Y02978*
X04865Y02977*
X04895*
Y02967*
X04939*
Y03007*
X04927*
Y03067*
X04939*
Y03107*
X04895*
Y03067*
X04907*
Y03007*
X04895*
Y02997*
X04869*
X04813Y03052*
Y03106*
X04776*
Y0309*
X04771Y03087*
X04771Y03087*
X04764Y03095*
X04763Y03096*
Y03106*
X04748*
X04747Y03106*
X04737Y03109*
X04727Y0311*
G37*
G36*
X02295Y03163D02*
X02289Y03162D01*
X02285Y03159*
X02282Y03155*
X02281Y0315*
X02282Y03144*
X02285Y0314*
X02289Y03137*
X02295Y03136*
X023Y03137*
X02304Y0314*
X02307Y03144*
X02308Y0315*
X02307Y03155*
X02304Y03159*
X023Y03162*
X02295Y03163*
G37*
G36*
X0394Y03143D02*
Y0313D01*
X03953*
X03952Y03132*
X03948Y03138*
X03942Y03142*
X0394Y03143*
G37*
G36*
X03225Y03153D02*
X03219Y03152D01*
X03215Y03149*
X03212Y03145*
X03211Y0314*
X03212Y03134*
X03215Y0313*
X03219Y03127*
X03225Y03126*
X0323Y03127*
X03234Y0313*
X03237Y03134*
X03238Y0314*
X03237Y03145*
X03234Y03149*
X0323Y03152*
X03225Y03153*
G37*
G36*
X04645Y0364D02*
X03169D01*
X03144Y03639*
X0312Y03634*
X03096Y03628*
X03073Y03618*
X03059Y0361*
X01796*
X0179Y0361*
X01777Y0361*
X01382*
Y03539*
X00777*
X00775Y03539*
X00759Y03537*
X00744Y03533*
X0073Y03526*
X00718Y03516*
X00709Y03504*
X00701Y0349*
X00697Y03475*
X00695Y0346*
X00695Y03457*
Y03307*
X00695Y03305*
X00697Y03289*
X00701Y03274*
X00709Y0326*
X00718Y03248*
X0073Y03239*
X00744Y03231*
X00759Y03227*
X00775Y03225*
X0079Y03227*
X00805Y03231*
X00819Y03239*
X00831Y03248*
X00841Y0326*
X00848Y03274*
X00852Y03289*
X00854Y03305*
X00854Y03307*
Y0338*
X01382*
Y03169*
X01784*
X0179Y03168*
X03139*
X03164Y0317*
X03188Y03174*
X03212Y03181*
X03235Y0319*
X0325Y03198*
X03338*
X03339Y03196*
X0334Y03193*
X03337Y0319*
X03336Y03185*
X03337Y03179*
X0334Y03175*
X03344Y03172*
X0335Y03171*
X03355Y03172*
X03359Y03175*
X03362Y03179*
X03363Y03185*
X03362Y0319*
X03359Y03193*
X0336Y03196*
X03361Y03198*
X04645*
X04651Y03199*
X04669*
X04672Y03194*
X04671Y0319*
X04672Y03184*
X04675Y0318*
X04679Y03177*
X04685Y03176*
X0469Y03177*
X04694Y0318*
X04697Y03184*
X04698Y0319*
X04697Y03194*
X047Y03199*
X04739*
X04742Y03194*
X04741Y0319*
X04742Y03184*
X04745Y0318*
X04749Y03177*
X04755Y03176*
X0476Y03177*
X04764Y0318*
X04767Y03184*
X04768Y0319*
X04767Y03194*
X0477Y03199*
X04847*
Y03332*
X04853Y03346*
X0486Y0337*
X04864Y03394*
X04865Y03419*
X04864Y03444*
X0486Y03468*
X04853Y03492*
X04847Y03506*
Y0364*
X04651*
X04645Y0364*
G37*
G36*
X0465Y03193D02*
X04644Y03192D01*
X0464Y03189*
X04637Y03185*
X04636Y0318*
X04637Y03174*
X0464Y0317*
X04644Y03167*
X0465Y03166*
X04655Y03167*
X04659Y0317*
X04662Y03174*
X04663Y0318*
X04662Y03185*
X04659Y03189*
X04655Y03192*
X0465Y03193*
G37*
G36*
X0392Y03178D02*
X03914Y03177D01*
X0391Y03174*
X03907Y0317*
X03906Y03165*
X03907Y03159*
X03909Y03157*
X03906Y03152*
X03905Y03153*
X03901Y03152*
X03889*
Y03162*
X03845*
Y03122*
X03889*
Y03132*
X03894*
X03895Y0313*
X03899Y03127*
X03905Y03126*
X0391Y03127*
X03911Y03128*
X03915Y03125*
X03915Y03125*
X03917Y03117*
X03921Y03111*
X03927Y03107*
X0393Y03106*
Y03125*
Y03143*
X03927Y03142*
X03923Y03139*
X03922Y03139*
X03917Y03141*
X03917Y03141*
X03917Y03145*
X03915Y03147*
X03918Y03152*
X0392Y03151*
X03925Y03152*
X03929Y03155*
X03932Y03159*
X03933Y03165*
X03932Y0317*
X03929Y03174*
X03925Y03177*
X0392Y03178*
G37*
G36*
X0233Y03103D02*
X02324Y03102D01*
X0232Y03099*
X02317Y03095*
X02316Y0309*
X02317Y03084*
X02319Y03082*
X02318Y03077*
X02308*
Y03037*
X02351*
Y03077*
X02341*
X0234Y03082*
X02342Y03084*
X02343Y0309*
X02342Y03095*
X02339Y03099*
X02335Y03102*
X0233Y03103*
G37*
G36*
X01325Y03064D02*
X0132Y03064D01*
X0131Y03061*
X01302Y03056*
X01294Y0305*
X01288Y03042*
X01283Y03034*
X0128Y03024*
X0128Y0302*
X01325*
Y03064*
G37*
G36*
X04325Y03013D02*
X04319Y03012D01*
X04315Y03009*
X04312Y03005*
X04311Y03*
X04312Y02994*
X04315Y0299*
X04319Y02987*
X04325Y02986*
X0433Y02987*
X04334Y0299*
X04337Y02994*
X04338Y03*
X04337Y03005*
X04334Y03009*
X0433Y03012*
X04325Y03013*
G37*
G36*
X0482Y03179D02*
X04814Y03178D01*
X0481Y03175*
X04807Y03171*
X04806Y03166*
X04807Y03161*
X0481Y03157*
X04814Y03154*
X0482Y03153*
X04822Y03153*
X04826Y0315*
X04826Y03149*
X04827Y03144*
X0483Y0314*
X04834Y03137*
X04838Y03137*
X0484Y03135*
X04843Y03133*
X04847Y03132*
X04895*
Y03122*
X04939*
Y03162*
X04895*
Y03152*
X04852*
X04852Y03155*
X04849Y03159*
X04845Y03162*
X0484Y03163*
X04837Y03162*
X04833Y03166*
X04833Y03166*
X04832Y03171*
X04829Y03175*
X04825Y03178*
X0482Y03179*
G37*
G36*
X0419Y03148D02*
X04184Y03147D01*
X0418Y03144*
X04177Y0314*
X04176Y03135*
X04177Y03129*
X0418Y03125*
X04184Y03122*
X0419Y03121*
X04195Y03122*
X04199Y03125*
X04202Y03129*
X04203Y03135*
X04202Y0314*
X04199Y03144*
X04195Y03147*
X0419Y03148*
G37*
G36*
X03953Y0312D02*
X0394D01*
Y03106*
X03942Y03107*
X03948Y03111*
X03952Y03117*
X03953Y0312*
G37*
G36*
X03371Y02547D02*
X03288D01*
Y0249*
X03319*
Y0248*
X0332Y02476*
X03322Y02472*
X03342Y02453*
X03342Y02449*
X03345Y02445*
X03349Y02442*
X03355Y02441*
X0336Y02442*
X03364Y02445*
X03367Y02449*
X03368Y02455*
X03367Y0246*
X03364Y02464*
X0336Y02467*
X03356Y02468*
X0334Y02484*
Y0249*
X03371*
Y02547*
G37*
G36*
X0114Y02003D02*
X01134Y02002D01*
X0113Y01999*
X01127Y01995*
X01126Y0199*
X01127Y01984*
X0113Y0198*
X01134Y01977*
X0114Y01976*
X01145Y01977*
X01149Y0198*
X01152Y01984*
X01153Y0199*
X01152Y01995*
X01149Y01999*
X01145Y02002*
X0114Y02003*
G37*
G36*
X0119Y02043D02*
X01184Y02042D01*
X0118Y02039*
X01177Y02035*
X01176Y0203*
X01177Y02024*
X0118Y0202*
X01184Y02017*
X0119Y02016*
X01195Y02017*
X01199Y0202*
X01202Y02024*
X01203Y0203*
X01202Y02035*
X01199Y02039*
X01195Y02042*
X0119Y02043*
G37*
G36*
X04895Y02453D02*
X04889Y02452D01*
X04885Y02449*
X04882Y02445*
X04881Y0244*
X04882Y02434*
X04885Y0243*
X04889Y02427*
X04895Y02426*
X049Y02427*
X04904Y0243*
X04907Y02434*
X04908Y0244*
X04907Y02445*
X04904Y02449*
X049Y02452*
X04895Y02453*
G37*
G36*
X0113Y02403D02*
X01124Y02402D01*
X0112Y02399*
X01117Y02395*
X01116Y0239*
X01117Y02384*
X0112Y0238*
X01124Y02377*
X0113Y02376*
X01135Y02377*
X01139Y0238*
X01142Y02384*
X01143Y0239*
X01142Y02395*
X01139Y02399*
X01135Y02402*
X0113Y02403*
G37*
G36*
X01261Y02773D02*
X0124D01*
X01233Y02773*
X01228Y0277*
X01223Y02766*
X01219Y02761*
X01216Y02756*
X01216Y0275*
Y02696*
X01216Y02689*
X01219Y02684*
X01219Y02683*
Y02617*
X01242*
Y0256*
X01242Y02558*
Y02516*
X01244*
Y02369*
X01199*
Y0256*
X01199Y02561*
Y02603*
X01151*
Y02561*
X01151Y0256*
Y02369*
X01102*
Y02262*
X01122*
X01126Y02257*
X01126Y02255*
X01126Y02251*
X01125Y0225*
X01124Y02245*
X01125Y02239*
X01129Y02234*
X01134Y0223*
X0114Y02229*
X01145Y0223*
X01146Y02231*
X0115Y02231*
X01157*
X01157Y0223*
X01163Y02229*
X01169Y0223*
X0117Y0223*
X0117Y02224*
X01167Y0222*
X01166Y02215*
X01167Y02209*
X0117Y02205*
X01174Y02202*
X0118Y02201*
X01185Y02202*
X01189Y02205*
X01192Y02209*
X01193Y02215*
X01192Y0222*
X01189Y02224*
X01188Y02224*
X01188Y02227*
X0119Y02229*
X01195Y0223*
X01195Y02231*
X01208*
X01209Y0223*
X01212Y0223*
Y01908*
X01245*
Y01895*
X01244Y01894*
X01241Y01887*
X01241Y01885*
X01211Y01854*
X01148*
X01142Y01854*
X01136Y01851*
X01131Y01848*
Y01847*
X01097Y01814*
X01093Y01816*
Y01888*
X01073*
Y01908*
X01117*
Y02231*
X01003*
Y01908*
X01026*
Y01888*
X01006*
Y01805*
X00887*
X00868Y01824*
Y01974*
X00868Y01981*
X00865Y01986*
X00861Y01991*
X00861Y01991*
Y02026*
X00828*
Y01991*
X00828Y01991*
X00824Y01986*
X00821Y01981*
X00821Y01974*
Y01815*
X00821Y01808*
X00824Y01803*
X00828Y01798*
X00861Y01765*
X00866Y01761*
X00871Y01758*
X00878Y01758*
X00878*
X01099*
X01105Y01758*
X01111Y01761*
X01116Y01765*
X01158Y01807*
X01221*
X01227Y01808*
X01233Y0181*
X01238Y01814*
X01275Y01851*
X01277Y01851*
X01284Y01854*
X0129Y01859*
X01295Y01865*
X01298Y01872*
X01299Y0188*
X01298Y01887*
X01295Y01894*
X01293Y01897*
Y01908*
X01326*
Y02114*
X01331Y02117*
X01335Y02116*
X0134Y02117*
X01344Y0212*
X01347Y02124*
X01348Y0213*
X01347Y02135*
X01344Y02139*
X0134Y02142*
X01335Y02143*
X01331Y02142*
X01326Y02145*
Y02177*
X01331Y02179*
X01331Y02178*
X01336Y02175*
X01341Y02174*
X01346Y02175*
X0135Y02178*
X01353Y02183*
X01354Y02188*
X01353Y02193*
X0135Y02197*
X01346Y022*
X01341Y02201*
X01336Y022*
X01331Y02197*
X01331Y02196*
X01326Y02198*
Y02231*
X01292*
Y02557*
X01291Y02563*
X01289Y02567*
Y02617*
X01302*
Y02732*
X01298*
Y02736*
X01298Y02742*
X01295Y02748*
X01291Y02753*
X01288Y02755*
X01288Y02755*
X01285Y0276*
X0128Y02763*
X0128Y02763*
X01277Y02766*
X01273Y0277*
X01267Y02773*
X01261Y02773*
G37*
%LNninja_ecu_pcb-3*%
%LPD*%
G54D14*
X0186Y0138D03*
X01926D03*
G54D15*
X01785Y0154D03*
Y01473D03*
X0382Y0151D03*
Y01443D03*
X0175Y0132D03*
Y01386D03*
X0381Y0129D03*
Y01356D03*
X02095Y01325D03*
Y01391D03*
X0413Y0133D03*
Y01396D03*
X03935Y01292D03*
Y01359D03*
G54D16*
X0233Y02217D03*
Y02272D03*
X04375Y02239D03*
Y02295D03*
X0173Y01532D03*
Y01477D03*
X02935Y01412D03*
Y01467D03*
X02912Y01363D03*
Y01308D03*
X01805Y01377D03*
Y01322D03*
X0215D03*
Y01377D03*
X022Y01322D03*
Y01377D03*
X02251D03*
Y01322D03*
X02314Y01377D03*
Y01322D03*
X02378Y01377D03*
Y01322D03*
X02442Y01377D03*
Y01322D03*
X02505Y01377D03*
Y01322D03*
X02569D03*
Y01377D03*
X02632D03*
Y01322D03*
X02696D03*
Y01377D03*
X02875Y02945D03*
Y02889D03*
X04917Y02987D03*
Y02932D03*
X02845Y02282D03*
Y02227D03*
X0488Y02297D03*
Y02242D03*
X0288Y03052D03*
Y02997D03*
X04917Y03142D03*
Y03087D03*
X0289Y02432D03*
Y02377D03*
X0233Y02957D03*
Y02902D03*
X04372Y02992D03*
Y02937D03*
X0233Y03057D03*
Y03002D03*
X04372Y03142D03*
Y03087D03*
X01827Y02947D03*
Y02892D03*
X03867Y02977D03*
Y02922D03*
X01825Y0226D03*
Y02204D03*
X0386Y02287D03*
Y02232D03*
X0183Y03052D03*
Y02997D03*
X03867Y03142D03*
Y03087D03*
X0176Y01897D03*
Y01952D03*
X02295Y01957D03*
Y01902D03*
X02245D03*
Y01957D03*
X02475Y01792D03*
Y01847D03*
X02425D03*
Y01792D03*
X04395Y0134D03*
Y01395D03*
X0434Y0134D03*
Y01395D03*
X0429Y0134D03*
Y01395D03*
X04235Y0134D03*
Y01395D03*
X04185Y01337D03*
Y01392D03*
X03865Y01292D03*
Y01347D03*
X038Y01922D03*
Y01977D03*
X04295Y01917D03*
Y01972D03*
X04345Y01922D03*
Y01977D03*
X04515Y01797D03*
Y01852D03*
X04465Y01797D03*
Y01852D03*
G54D17*
X01992Y01315D03*
X01937D03*
X01982Y0137D03*
X02037D03*
X04867Y02345D03*
X04922D03*
X02322Y02325D03*
X02377D03*
X04367Y02335D03*
X04422D03*
X01867Y0231D03*
X01812D03*
X03857Y0234D03*
X03912D03*
X01807Y01955D03*
X01862D03*
X02Y0195D03*
X01945D03*
X02102Y0192D03*
X02047D03*
X02195Y01915D03*
X0214D03*
X04017Y01385D03*
X04072D03*
X04002Y01295D03*
X04057D03*
X04237D03*
X04292D03*
X04337D03*
X04392D03*
X03322Y01365D03*
X03377D03*
X03322Y0131D03*
X03377D03*
X03322Y0142D03*
X03377D03*
X03322Y01475D03*
X03377D03*
X03307Y01565D03*
X03362D03*
X03847Y0198D03*
X03902D03*
X04002Y0193D03*
X04057D03*
X04102D03*
X04157D03*
X04192Y01975D03*
X04247D03*
X02437Y01275D03*
X02492D03*
X02312D03*
X02367D03*
G54D19*
X0108Y02675D03*
X01261D03*
X01613Y01474D03*
X01432D03*
X01613Y01347D03*
X01432D03*
X0292Y0267D03*
X03101D03*
X03048Y0135D03*
X0323D03*
G54D21*
X01085Y0256D03*
X01175D03*
X01266D03*
X03058Y0149D03*
X03149D03*
X0324D03*
G54D22*
X01175Y02315D03*
X03149Y01734D03*
G54D29*
X03065Y02536D03*
Y02355D03*
X02935Y01565D03*
Y01746D03*
X0096Y02665D03*
Y02483D03*
G54D45*
X03869Y01522D02*
Y01592D01*
X03818Y015D02*
X03847D01*
X04347Y0133D02*
X04351Y01333D01*
X0434Y01337D02*
X04347Y0133D01*
X04332Y01385D02*
X04366D01*
X04338Y0129D02*
X04348Y01299D01*
X04337Y0129D02*
X04338D01*
X04358Y01309D02*
X04368Y01319D01*
Y01346*
X04366Y01348D02*
X04368Y01346D01*
X0435Y01333D02*
X04351D01*
X04366Y01348D02*
Y01385D01*
X04356Y01309D02*
X04358D01*
X04348Y01301D02*
X04356Y01309D01*
X04332Y01385D02*
X0434Y01392D01*
X0429D02*
X04295Y01397D01*
X04282D02*
X04349Y01464D01*
X04282Y01397D02*
X04295D01*
X0429Y01364D02*
Y01392D01*
X04268Y01364D02*
X0429D01*
X04263Y01359D02*
X04268Y01364D01*
X04238Y01295D02*
X04263Y01319D01*
Y01359*
X04235Y01392D02*
Y01415D01*
X0439Y01392D02*
Y01403D01*
X0434Y01395D02*
Y01435D01*
Y01392D02*
Y01395D01*
X03967Y0133D02*
X04002Y01295D01*
X03967Y0133D02*
Y01521D01*
X03968Y01522*
X02009Y01814D02*
Y01947D01*
X01585Y01544D02*
X0159D01*
X0418Y01375D02*
Y01435D01*
X0417Y01365D02*
X0418Y01375D01*
X04105Y01365D02*
X0417D01*
X03869Y01592D02*
X03881D01*
X04035D02*
X04058D01*
X03983D02*
X04035D01*
X03932D02*
X03983D01*
X03881D02*
X03932D01*
X03847Y015D02*
X03869Y01522D01*
X04357Y01492D02*
Y01517D01*
X04362Y01522*
X04376Y01471D02*
Y01517D01*
X0434Y01435D02*
X04376Y01471D01*
Y01517D02*
X04381Y01522D01*
X04396Y01472D02*
Y01497D01*
X0438Y01455D02*
X04396Y01472D01*
X0438Y01412D02*
Y01455D01*
X04349Y01464D02*
X0436Y01474D01*
X04357Y01492D02*
X0436Y01489D01*
Y01474D02*
Y01489D01*
X04396Y01497D02*
X044D01*
Y01521*
X0438Y01412D02*
X04388Y01403D01*
X0439*
X04235Y01415D02*
X04283Y01463D01*
X04348Y01299D02*
Y01301D01*
X04057Y01295D02*
X0408D01*
X04237D02*
X04238D01*
X044Y01521D02*
X04401Y01522D01*
X04349Y01464D02*
X04349D01*
X04283Y01463D02*
Y01522D01*
X0418Y01435D02*
X04204Y0146D01*
Y01522*
X04165Y01465D02*
Y01522D01*
X0413Y0143D02*
X04165Y01465D01*
X0413Y01392D02*
Y0143D01*
X04145Y01475D02*
Y01522D01*
X04137Y01467D02*
X04145Y01475D01*
X04137Y01459D02*
Y01467D01*
X04124Y01465D02*
Y0152D01*
X04106Y01428D02*
X04137Y01459D01*
X041Y01441D02*
X04124Y01465D01*
X04145Y01522D02*
X04145Y01522D01*
X04098Y01428D02*
X04106D01*
X04077Y01407D02*
X04098Y01428D01*
X04077Y01385D02*
Y01407D01*
X04092Y01441D02*
X041D01*
X04077Y01426D02*
X04092Y01441D01*
X04066Y01426D02*
X04077D01*
X04022Y01385D02*
Y01397D01*
X04039Y01414*
X04054*
X04066Y01426*
X04124Y0152D02*
X04125Y01522D01*
X0408Y01295D02*
X0409Y01304D01*
Y0135*
X04105Y01365*
G54D46*
X01275Y0272D02*
Y02736D01*
X01268Y01948D02*
Y02557D01*
X01261Y02675D02*
Y0275D01*
X01245D02*
X01261D01*
X0124D02*
X01245D01*
X0124Y02696D02*
Y0275D01*
X0115Y02255D02*
X01215D01*
X0115D02*
X01175Y0228D01*
X01075Y02815D02*
X01145D01*
X0115Y0282*
X0105Y02059D02*
X0106Y0207D01*
X0105Y02033D02*
Y02057D01*
Y02005D02*
Y02033D01*
Y01845D02*
Y02005D01*
X00845Y01815D02*
Y01974D01*
Y01815D02*
X00878Y01781D01*
X01099*
X01148Y01831*
X01221*
X01269Y0188D02*
X0127Y0188D01*
X01221Y01831D02*
X0127Y0188D01*
X01085Y0261D02*
Y0264D01*
X02006Y0236D02*
X02286D01*
X0096Y027D02*
X01075Y02815D01*
X0096Y02665D02*
Y027D01*
X0235Y02364D02*
D01*
X02348Y02366D02*
X0235Y02364D01*
X0105Y02057D02*
Y02059D01*
X01266Y0256D02*
X01268Y02557D01*
X01175Y0228D02*
Y02315D01*
X03946Y02382D02*
X03973D01*
X03933Y02395D02*
X03946Y02382D01*
X03215Y02395D02*
X03933D01*
X01175Y02315D02*
Y0256D01*
X01261Y02675D02*
X01266Y0267D01*
X0333Y02747D02*
Y02759D01*
Y02747D02*
X03344Y02733D01*
Y02706D02*
Y02733D01*
X0333Y02692D02*
X03344Y02706D01*
X0333Y0268D02*
Y02692D01*
X03101Y0267D02*
X0332D01*
X03215Y02565D02*
X0332Y0267D01*
X02982Y01793D02*
Y0222D01*
X02935Y01746D02*
X02982Y01793D01*
X0298Y02222D02*
X02982Y0222D01*
X02928Y02502D02*
X0298Y02451D01*
Y02222D02*
Y02451D01*
X03215Y02395D02*
Y02565D01*
X0332Y0267D02*
X0333Y0268D01*
X03065Y02633D02*
X03101Y0267D01*
X03065Y02536D02*
Y02633D01*
X03986Y02395D02*
X0495D01*
X03973Y02382D02*
X03986Y02395D01*
X0495Y02384D02*
Y02395D01*
Y02384D02*
X04961Y02372D01*
Y02317D02*
Y02372D01*
X0495Y02305D02*
X04961Y02317D01*
X0495Y0194D02*
Y02305D01*
X04925Y01915D02*
X0495Y0194D01*
X0442Y01915D02*
X04925D01*
X03189Y03061D02*
X0333Y0292D01*
X01266Y0256D02*
Y0267D01*
X01362Y0239D02*
Y02582D01*
Y0239D02*
X01393Y0236D01*
X01953*
X01966Y02372*
X01993*
X02006Y0236*
X02416Y0235D02*
X02786D01*
X02352Y02366D02*
X02403D01*
X02416Y02352*
Y0235D02*
Y02352D01*
X02296Y02366D02*
X02348D01*
X0235Y02364D02*
X02352Y02366D01*
X02289Y02358D02*
X02296Y02366D01*
X02286Y0236D02*
X02288Y02358D01*
X02289*
X02855Y02502D02*
X02928D01*
X02786Y0235D02*
X02848Y02412D01*
Y02458*
X02855Y02464*
Y02502*
X01362Y02583D02*
X01362Y02582D01*
X01261Y02675D02*
D01*
X0124Y02696D02*
X01261Y02675D01*
X01248Y01948D02*
X01268D01*
X01269Y0188D02*
Y0207D01*
X0115Y0282D02*
X01222Y02892D01*
X01362*
Y02583D02*
Y02892D01*
G54D47*
X045Y01675D02*
Y01797D01*
X0445Y01715D02*
Y01797D01*
X044Y01337D02*
Y0134D01*
X04395Y01292D02*
Y01337D01*
X04205D02*
X04235D01*
X0413D02*
X04205D01*
X0381Y01292D02*
X03935D01*
X02927Y01412D02*
X02962Y01447D01*
X03377Y01317D02*
Y01365D01*
X03342Y01282D02*
X03377Y01317D01*
X02235Y01966D02*
X0224Y01971D01*
X02696Y01606D02*
X02718Y01628D01*
X02367Y0128D02*
X02405D01*
X0226Y01261D02*
X0227D01*
X0179Y01522D02*
Y01653D01*
X01755Y01322D02*
X01868D01*
X0174Y01522D02*
X0179D01*
X01729Y01347D02*
X01755Y01322D01*
X02235Y01966D02*
X02245Y01957D01*
X0224Y01971D02*
Y01975D01*
X02167Y01818D02*
Y01895D01*
X02164Y01816D02*
X02167Y01818D01*
X01413Y0151D02*
X01432D01*
X0164Y01972D02*
X01672Y01941D01*
X01692*
X01697Y01946D02*
X01703D01*
X01692Y01941D02*
X01697Y01946D01*
X01703D02*
X01726Y01923D01*
X01444Y01972D02*
X0164D01*
X0192Y0195D02*
X01952D01*
Y01907D02*
Y0195D01*
X02189Y02907D02*
X02332D01*
X02421Y01403D02*
X02447Y01377D01*
X02324Y01483D02*
X02327D01*
X02304Y01451D02*
X02378Y01377D01*
X02344Y01518D02*
X02348Y01514D01*
X02308Y01466D02*
Y01514D01*
X0237Y01469D02*
Y01512D01*
X02363Y01518D02*
X0237Y01512D01*
X02308Y01466D02*
X02315Y0146D01*
X02313D02*
X02315D01*
X02304Y01451D02*
X02313Y0146D01*
X02348Y01484D02*
X02354Y01477D01*
Y01462D02*
Y01477D01*
X02348Y01484D02*
Y01514D01*
X02338Y01456D02*
Y01471D01*
X02332Y01477D02*
X02338Y01471D01*
X02327Y01483D02*
X02332Y01479D01*
Y01477D02*
Y01479D01*
X0237Y01469D02*
X02405Y01435D01*
X02354Y01462D02*
X02398Y01419D01*
X02338Y01456D02*
X02391Y01403D01*
X02324Y01483D02*
Y01518D01*
X01369Y01978D02*
Y02342D01*
X01419Y01779D02*
X01422Y01782D01*
Y0179*
X01424Y01774D02*
X01606D01*
X01419Y01779D02*
X01424Y01774D01*
X01622Y01772D02*
X01625Y01774D01*
X01609Y01772D02*
X01622D01*
X01606Y01774D02*
X01609Y01772D01*
X01625Y01774D02*
X01679D01*
X01732Y01827D02*
Y01917D01*
X01726Y01923D02*
X01738D01*
X01679Y01774D02*
X01732Y01827D01*
X03968Y01817D02*
Y0189D01*
X04395Y01337D02*
X044D01*
X04363Y01295D02*
X04392D01*
X04363Y01273D02*
Y01295D01*
X044Y01327D02*
Y01337D01*
X04407*
X04422Y01352D02*
Y01418D01*
X04407Y01337D02*
X04422Y01352D01*
X01951Y01433D02*
Y01463D01*
Y01433D02*
X01955Y0143D01*
X01952Y01464D02*
Y01516D01*
X01951Y01463D02*
X01952Y01464D01*
X0195Y01518D02*
X01952Y01516D01*
X0197Y01455D02*
Y01518D01*
X02265Y01466D02*
Y01518D01*
X02251Y01452D02*
X02265Y01466D01*
X02251Y01377D02*
Y01445D01*
Y01452*
X02245Y01469D02*
Y01518D01*
X022Y01423D02*
X02245Y01469D01*
X02304Y01518D02*
X02308Y01514D01*
X03988Y01817D02*
Y01855D01*
X03935Y01347D02*
X03965D01*
X03985Y0144D02*
Y01519D01*
X03988Y01522*
X04007Y01459D02*
Y01522D01*
X04027Y01443D02*
Y01522D01*
X04047Y01432D02*
Y01522D01*
X02306Y01941D02*
X02334Y01969D01*
X02125Y01816D02*
X0213Y01821D01*
X01825Y0209D02*
Y02212D01*
X01909Y01939D02*
X0192Y0195D01*
X01905Y01939D02*
X01908D01*
X01909Y01939*
X01897Y0192D02*
X0193Y01886D01*
X01885Y0192D02*
X01897D01*
X01873Y01931D02*
X01885Y0192D01*
X01873Y01931D02*
Y01943D01*
X01862Y01955D02*
X01873Y01943D01*
X02047Y0192D02*
X02068Y01898D01*
X02039Y01927D02*
X02047Y0192D01*
X02039Y01927D02*
Y01967D01*
X0203Y01814D02*
Y0188D01*
X01989Y01864D02*
X0199Y01865D01*
X0195Y01853D02*
Y01865D01*
X0193Y01814D02*
Y01886D01*
X0186Y01854D02*
X0191D01*
X01911Y01853*
Y01814D02*
Y01853D01*
X0197Y01814D02*
Y01889D01*
X0195Y01853D02*
X0195Y01854D01*
Y01814D02*
Y01854D01*
X02398Y0193D02*
X02409Y01941D01*
X0237Y0193D02*
X02398D01*
X02316Y01876D02*
X0237Y0193D01*
X02418Y01854D02*
X02425Y01847D01*
X02413Y01854D02*
X02418D01*
X02413Y0185D02*
Y01854D01*
X02399Y01836D02*
X02413Y0185D01*
X02029Y01814D02*
X0203Y01814D01*
X01741Y02261D02*
X01747Y02256D01*
X0437Y02287D02*
X04417Y02335D01*
X04155Y0127D02*
X042D01*
X04202Y01267*
X03408Y0136D02*
X0355D01*
X03403Y01355D02*
X03408Y0136D01*
X0108Y02603D02*
Y02675D01*
X01995Y02325D02*
X02322D01*
X0198Y0234D02*
X01995Y02325D01*
X01807Y01907D02*
X0186Y01854D01*
X02068Y01875D02*
Y01898D01*
X02067Y01874D02*
X02068Y01875D01*
X02049Y01814D02*
Y01864D01*
X01952Y01907D02*
X0197Y01889D01*
X02334Y01969D02*
X02398D01*
X02409Y01958*
Y01941D02*
Y01958D01*
X02285Y0185D02*
X02311Y01876D01*
X0235Y01854D02*
X02374D01*
X02348Y01852D02*
X0235Y01854D01*
X02348Y01848D02*
Y01852D01*
X02344Y01848D02*
X02348D01*
X02344Y01814D02*
Y01848D01*
X02295Y01952D02*
X02306Y01941D01*
X02167Y01819D02*
Y01856D01*
X02186Y01814D02*
Y01868D01*
X0213Y01821D02*
Y01865D01*
X0209Y01822D02*
Y01865D01*
X02067Y01814D02*
Y01874D01*
X02085Y01817D02*
X02088Y01814D01*
X02147D02*
Y01855D01*
X02164Y01816D02*
X02167Y01814D01*
X01332Y02562D02*
Y02726D01*
X0131Y0282D02*
X01329Y02801D01*
Y02726D02*
Y02801D01*
Y02726D02*
X01332D01*
X0233Y03057D02*
Y0309D01*
X01613Y01474D02*
Y01598D01*
X01551Y0166D02*
X01613Y01598D01*
X01787Y01892D02*
Y01917D01*
X01781Y01923D02*
X01787Y01917D01*
X01738Y01923D02*
X01781D01*
X01787Y01892D02*
X0181Y0187D01*
Y0186D02*
Y0187D01*
Y0186D02*
X0182D01*
X01772Y02256D02*
X01784Y02267D01*
X01825*
X01747Y02256D02*
X01772D01*
X01735Y02255D02*
X01741Y02261D01*
X02095Y01325D02*
X02097Y01322D01*
X02085Y01335D02*
X02095Y01325D01*
X0186Y0138D02*
X01868Y01371D01*
Y01322D02*
Y01371D01*
X01937Y01315D02*
Y01369D01*
X01926Y0138D02*
X01937Y01369D01*
X02097Y01322D02*
X0215D01*
X02087Y01518D02*
X02088D01*
X0205Y01412D02*
X02059Y01421D01*
X0215Y01322D02*
X022D01*
X0215Y01392D02*
X02167Y01409D01*
X0215Y01377D02*
Y01392D01*
Y0138D02*
Y01392D01*
X022Y01322D02*
X0226Y01261D01*
X0227D02*
Y01265D01*
X022Y01406D02*
Y01423D01*
Y01406D02*
X02207Y01399D01*
Y01386D02*
Y01399D01*
X022Y01378D02*
X02207Y01386D01*
X022Y01377D02*
Y01378D01*
X02108Y01458D02*
Y01518D01*
X0205Y01382D02*
Y01412D01*
X02034Y01421D02*
X02037D01*
X02034Y01421D02*
X02034Y01421D01*
X02034Y01407D02*
Y01421D01*
X02031Y01405D02*
X02034Y01407D01*
X03733Y01321D02*
X0381D01*
Y01292D02*
Y01321D01*
X03705Y0135D02*
X03733Y01321D01*
X02148Y01857D02*
Y01881D01*
X02147Y01855D02*
X02148Y01857D01*
X02108Y01814D02*
Y01913D01*
X01432Y01474D02*
Y0151D01*
X02447Y01377D02*
X02505D01*
X02374Y01854D02*
X02391Y01836D01*
X02311Y01876D02*
X02316D01*
X02147Y01882D02*
X02148Y01881D01*
X02206Y01814D02*
Y01911D01*
X03705Y0135D02*
X03785Y0143D01*
Y0151*
X03302Y01282D02*
X03342D01*
X03234Y0135D02*
X03302Y01282D01*
X02962Y01447D02*
Y01537D01*
X01911Y01518D02*
Y01535D01*
Y01456D02*
Y01518D01*
X01825Y01865D02*
X01832Y01857D01*
X0182Y0186D02*
X01825Y01865D01*
X01807Y01907D02*
Y01955D01*
X03785Y0151D02*
X038D01*
X03865Y01455D02*
X03889Y01479D01*
X03836Y01455D02*
X03865D01*
X03403Y01355D02*
Y01515D01*
Y01335D02*
Y01355D01*
X0302Y01805D02*
Y0231D01*
Y01745D02*
Y01805D01*
X03471D02*
X03591Y01685D01*
X0302Y01805D02*
X03471D01*
X02718Y01628D02*
X02781Y01565D01*
X02686Y0166D02*
X02718Y01628D01*
X02696Y0143D02*
Y01606D01*
Y0143D02*
X02723Y01403D01*
Y01357D02*
Y01403D01*
X02718Y01351D02*
X02723Y01357D01*
X02696Y01351D02*
X02718D01*
X02696Y01322D02*
Y01351D01*
X0267Y01348D02*
X02696Y01322D01*
X02603Y01348D02*
X0267D01*
X02577Y01322D02*
X02603Y01348D01*
X02569Y01322D02*
X02577D01*
X02442D02*
X02442D01*
X0246Y0134*
X02475*
X02483Y01348*
X02543*
X02569Y01322*
X02405Y0128D02*
X02437D01*
X02405Y01268D02*
Y0128D01*
X02401Y01265D02*
X02405Y01268D01*
X0443Y01605D02*
X04495Y0167D01*
X0443Y01555D02*
Y01605D01*
X04417Y01542D02*
X0443Y01555D01*
X04417Y01423D02*
Y01542D01*
Y01423D02*
X04422Y01418D01*
X03909Y01817D02*
X0391Y01818D01*
Y01855*
X03842Y01922D02*
X0391Y01855D01*
X038Y01922D02*
X03842D01*
X04295Y0195D02*
Y01972D01*
X04165Y01817D02*
Y01864D01*
X04204Y01817D02*
Y01935D01*
X04224Y01817D02*
Y01864D01*
X04204Y01935D02*
X04225D01*
X04185Y01818D02*
Y01878D01*
X04263Y01886D02*
X04295Y01917D01*
X04263Y01817D02*
Y01886D01*
X04322Y01856D02*
X04342Y01876D01*
X04322Y01817D02*
Y01856D01*
X04243Y01817D02*
Y01971D01*
X04125Y01817D02*
Y01864D01*
X04346Y01876D02*
X0439Y0192D01*
X04342Y01876D02*
X04346D01*
X04106Y01817D02*
Y01926D01*
X04086Y01817D02*
Y01878D01*
X04047Y01817D02*
Y01919D01*
X04007Y01817D02*
Y01875D01*
X04066Y01817D02*
Y01863D01*
X04027Y01817D02*
Y01862D01*
X04007Y01875D02*
Y01924D01*
X03847Y0198D02*
X03946Y01881D01*
Y0182D02*
Y01881D01*
X03965Y01875D02*
Y01886D01*
X0406Y0198D02*
X0407D01*
X04145Y01817D02*
Y01917D01*
X0407Y0198D02*
X04102Y01947D01*
X03869Y0186D02*
X0387Y0186D01*
X02565Y01293D02*
X02603D01*
X02632Y01322*
X0333Y0248D02*
X03355Y02455D01*
X03362Y01555D02*
X03403Y01515D01*
X03362Y01555D02*
Y01565D01*
X04184Y01817D02*
X04185Y01818D01*
X03902Y0198D02*
Y02062D01*
X0445Y01715D02*
X04495Y0167D01*
X045Y01675*
X03273Y01506D02*
X03292Y01526D01*
X03323*
X03482Y01685D02*
X03591D01*
X02927Y01412D02*
X02935D01*
Y01565D02*
X02962Y01537D01*
X02912Y01363D02*
X02935Y01386D01*
Y01412*
X0302Y0231D02*
X03065Y02355D01*
X02998Y01723D02*
X0302Y01745D01*
X02998Y01704D02*
Y01723D01*
X02935Y01641D02*
X02998Y01704D01*
X02935Y01565D02*
Y01641D01*
X02781Y01565D02*
X02935D01*
X0292Y0267D02*
X03001Y02588D01*
Y02494D02*
Y02588D01*
Y02494D02*
X03065Y02431D01*
Y02355D02*
Y02431D01*
X02917Y0246D02*
X02925D01*
X04204Y01935D02*
Y01962D01*
X02167Y01818D02*
X02167Y01819D01*
X02167Y01814D02*
Y01818D01*
X02067Y01814D02*
X02068Y01814D01*
X02108Y01914D02*
X02108Y01913D01*
X02108Y01814D02*
X02108Y01814D01*
X02125Y01816D02*
X02127Y01814D01*
X01369Y01978D02*
X01381Y01967D01*
X01407Y01936D02*
X01444Y01972D01*
X01381Y01947D02*
Y01967D01*
X01392Y01936D02*
X01407D01*
X01381Y01947D02*
X01392Y01936D01*
X04192Y01975D02*
X04204Y01962D01*
X04315Y02355D02*
X04335Y02335D01*
X0442Y03065D02*
Y03094D01*
X04047Y01919D02*
X04057Y0193D01*
X03968Y0189D02*
Y01914D01*
X03965Y01886D02*
X03968Y0189D01*
X03946Y0182D02*
X03948Y01817D01*
X04727Y0211D02*
X04859Y02242D01*
X04726Y0211D02*
X04727Y0211D01*
X04859Y02242D02*
X0488D01*
X0478Y02345D02*
X04867D01*
X04795Y02285D02*
X04807Y02297D01*
X0488*
X04922Y0234*
X04335Y02335D02*
X04367D01*
X04287Y02287D02*
X0437D01*
Y02115D02*
X04375Y0211D01*
X0437Y02115D02*
D01*
Y02232*
X03815Y0236D02*
X03835Y0234D01*
X03857*
X0386Y02115D02*
X03865Y0212D01*
X03855Y0211D02*
X0386Y02115D01*
Y02232*
Y02287D02*
X0386D01*
X03777D02*
X0386D01*
X03775Y02285D02*
X03777Y02287D01*
X0386D02*
X03912Y0234D01*
X04734Y02932D02*
X04917D01*
X04229Y02937D02*
X04372D01*
X03724Y02922D02*
X03867D01*
X03902Y03142D02*
X03905Y0314D01*
X03867Y03142D02*
X03902D01*
X03775Y03057D02*
X03804Y03087D01*
X03867*
Y02977D02*
Y03087D01*
X04847Y03142D02*
X04917D01*
X04865Y02987D02*
X04917D01*
X04795Y03057D02*
X04865Y02987D01*
X04917D02*
Y03087D01*
X04285Y03057D02*
X04342D01*
X04372Y03087*
Y02992D02*
Y03087D01*
Y03142D02*
X0442Y03094D01*
X0333Y0248D02*
Y02519D01*
X02377Y0232D02*
Y02325D01*
X0233Y02272D02*
X02377Y0232D01*
X04303Y01481D02*
Y01522D01*
X04322Y01467D02*
Y01522D01*
X04342Y01482D02*
Y01522D01*
X04357Y01267D02*
X04363Y01273D01*
X03935Y01347D02*
X03937Y0135D01*
X04202Y01335D02*
X04205Y01337D01*
X04202Y01267D02*
Y01335D01*
X04292Y01267D02*
Y01272D01*
Y01295*
X04397Y01329D02*
X044Y01327D01*
X03889Y01479D02*
Y01522D01*
X03928Y01477D02*
Y01522D01*
X03948Y01448D02*
Y01522D01*
X04184Y01476D02*
Y01522D01*
X04106Y01472D02*
Y01522D01*
X02638Y01435D02*
X02696Y01377D01*
X0254Y01419D02*
X02569Y0139D01*
X02391Y01403D02*
X02421D01*
X02569Y01377D02*
X02632D01*
X02569D02*
Y0139D01*
X02314Y01377D02*
Y01418D01*
X02289Y01444D02*
X02314Y01418D01*
X02289Y01444D02*
Y01456D01*
X02285Y0146D02*
X02289Y01456D01*
X02167Y01409D02*
Y01518D01*
X02085Y0141D02*
X02127Y01452D01*
Y01518*
X02037Y0137D02*
X0205Y01382D01*
X01985Y01405D02*
X02031D01*
X01985Y01372D02*
Y01405D01*
X02068Y01468D02*
Y01518D01*
X02226Y01476D02*
Y01518D01*
X02206Y01461D02*
Y01518D01*
X02186Y01473D02*
Y01518D01*
X02147Y01472D02*
Y01518D01*
X02049Y01455D02*
Y01518D01*
X02029Y0144D02*
Y01518D01*
X02009Y01425D02*
Y01518D01*
X01989Y0144D02*
Y01518D01*
X01891Y01473D02*
Y01518D01*
X0179Y01467D02*
X01842D01*
X01852Y01477*
Y01518*
X01793D02*
X01832D01*
X0179Y01522D02*
D01*
X03845Y01977D02*
X03847Y0198D01*
X038Y01977D02*
X03845D01*
X03902Y0198D02*
X03968Y01914D01*
X04002Y0193D02*
X04007Y01924D01*
X04102Y0193D02*
X04106Y01926D01*
X04243Y01971D02*
X04247Y01975D01*
X04381Y01848D02*
X04413Y0188D01*
X04381Y01817D02*
Y01848D01*
X04411Y01851D02*
X04448D01*
X04401Y01841D02*
X04411Y01851D01*
X04401Y01817D02*
Y01841D01*
X0439Y0192D02*
Y01927D01*
X04345Y01972D02*
Y01977D01*
Y01972D02*
X0439Y01927D01*
X04102Y0193D02*
Y01947D01*
X0176Y01952D02*
X01805D01*
X02391Y01836D02*
X02399D01*
X02295Y01952D02*
Y01957D01*
X01989Y01814D02*
Y01864D01*
X01832Y01814D02*
Y01857D01*
X02363Y01818D02*
X02445D01*
X02475Y01847*
X02363Y01814D02*
Y01818D01*
X03869Y01817D02*
Y0186D01*
X04263Y0148D02*
Y01522D01*
X04243Y01465D02*
Y01522D01*
X04224Y01477D02*
Y01522D01*
X04086Y01459D02*
Y01522D01*
X04066Y01444D02*
Y01522D01*
X03322Y0142D02*
Y01475D01*
Y0142D02*
X03377Y01365D01*
X0324Y0149D02*
X03273D01*
Y01506*
X0323Y0135D02*
X03234D01*
X03323Y01526D02*
X03362Y01565D01*
X03377Y0131D02*
X03403Y01335D01*
X03362Y01565D02*
X03482Y01685D01*
X02437Y0128D02*
Y01317D01*
X01432Y01347D02*
Y01474D01*
X02285Y0146D02*
Y01518D01*
X02398Y01419D02*
X0254D01*
X02405Y01435D02*
X02638D01*
X04292Y01272D02*
X04297Y01267D01*
X04357*
X04202D02*
X04292D01*
X01732Y01917D02*
X01738Y01923D01*
X02686Y02085D02*
X02687Y02085D01*
X02782Y02282D02*
X02845D01*
X02755Y02255D02*
X02782Y02282D01*
X04726Y0211D02*
X04737D01*
X0289Y02432D02*
X02917Y0246D01*
X02687Y02085D02*
X02829Y02227D01*
X02845*
X0289Y02327D02*
Y02377D01*
X02845Y02282D02*
X0289Y02327D01*
X0233Y0209D02*
Y02217D01*
X02262Y02272D02*
X0233D01*
X02245Y02255D02*
X02262Y02272D01*
X0182Y02085D02*
X01825Y0209D01*
X01812Y0228D02*
Y0231D01*
Y0228D02*
X01825Y02267D01*
X01867Y02252D02*
Y0231D01*
X01827Y02947D02*
Y02994D01*
X01765Y02997D02*
X0183D01*
X01735Y03027D02*
X01765Y02997D01*
X02332Y02962D02*
Y03D01*
X0227Y03002D02*
X0233D01*
X02245Y03027D02*
X0227Y03002D01*
X02877Y02957D02*
Y02994D01*
X02687Y0293D02*
X02714Y02902D01*
X01862Y01955D02*
Y02042D01*
X0182Y02085D02*
X01862Y02042D01*
X02147Y01915D02*
X02167Y01895D01*
X02285Y01814D02*
Y0185D01*
X02226Y01814D02*
Y01883D01*
X02245Y01902*
X0484Y0315D02*
X04847Y03142D01*
X04413Y0188D02*
X045D01*
Y01852D02*
Y0188D01*
X01333Y02378D02*
Y02562D01*
Y02378D02*
X01369Y02342D01*
X01332Y02562D02*
X01333Y02562D01*
X01613Y01347D02*
Y01474D01*
Y01347D02*
X01729D01*
X01404Y01474D02*
X01432D01*
X01385Y01455D02*
X01404Y01474D01*
X01385Y01445D02*
Y01455D01*
X01926Y0138D02*
X0193Y01383D01*
Y01518*
X02085Y01335D02*
Y0134D01*
X02037Y01421D02*
X02048Y01432D01*
Y01435*
X02049Y01437*
X02056*
X02069Y01449*
X02076*
X02087Y0146*
Y01518*
X02124Y01377D02*
X0215D01*
X02124Y01366D02*
Y01377D01*
X02083Y01434D02*
X02108Y01458D01*
X02076Y01434D02*
X02083D01*
X02059Y01421D02*
X02063D01*
X02076Y01434*
X02065Y0133D02*
Y0135D01*
X02118Y0136D02*
X02124Y01366D01*
X02065Y0135D02*
X02075Y0136D01*
X02118*
X02044Y0131D02*
X02065Y0133D01*
X01992Y0131D02*
X02044D01*
X01674Y02892D02*
X01727D01*
X01735Y02899*
X01764*
X01772Y02892*
X01827*
X0183Y03052D02*
X0188Y03002D01*
Y02895D02*
Y03002D01*
X02755Y03027D02*
X02787D01*
X02835Y0303D02*
X02857D01*
X0288Y03052*
X02085Y01817D02*
X0209Y01822D01*
X02714Y02902D02*
X02877D01*
X02787Y03027D02*
X02817Y02997D01*
X0288*
G54D48*
X04393Y0167D02*
X04495D01*
X04137D02*
X04393D01*
X04135D02*
X04137D01*
X03932D02*
X04135D01*
X03606D02*
X03932D01*
X02304Y01666D02*
X0268D01*
X02202D02*
X02304D01*
X01869D02*
X02098D01*
X01558D02*
X01563Y01661D01*
X01758Y01653D02*
X0179D01*
X01563Y01661D02*
X01664D01*
X01669Y01666D02*
X01745D01*
X01664Y01661D02*
X01669Y01666D01*
X01745D02*
X01758Y01653D01*
X04495Y0167D02*
X04712D01*
X01325Y0166D02*
X01551D01*
G54D49*
X04353Y02685D02*
X04355Y02686D01*
X03352Y01475D02*
Y01506D01*
X04295Y01332D02*
X04297Y01335D01*
X02836Y01331D02*
X02856D01*
X02853Y01311D02*
Y01328D01*
X0284Y01315D02*
X0285D01*
X02836Y01328D02*
X02853D01*
X02835Y0131D02*
Y0133D01*
X02025Y01289D02*
X02115D01*
X02492Y0128D02*
X02542D01*
X02015Y0127D02*
X0211D01*
X02075Y01287D02*
X02097D01*
X02027D02*
X02075D01*
X02025Y0127D02*
Y0129D01*
X021Y0127D02*
Y01285D01*
X02025Y0127D02*
X021D01*
X03778Y01347D02*
X03865D01*
X0329Y0139D02*
X03315Y01365D01*
X01892Y01437D02*
X01895Y01435D01*
X0174Y01392D02*
X01755Y01377D01*
X04355Y0277D02*
Y02797D01*
Y0274D02*
Y0277D01*
Y0271D02*
Y0274D01*
Y02686D02*
Y0271D01*
X04353Y02685D02*
X04355D01*
X01805Y01425D02*
X01825Y01445D01*
X01855*
X0187*
X0188Y01435*
X0176Y01802D02*
Y01897D01*
X04297Y01335D02*
X043D01*
X019Y01445D02*
X01905D01*
Y01448*
X01073Y02056D02*
X01086Y0207D01*
X01072Y02083D02*
X01086Y0207D01*
X01055Y02005D02*
Y02038D01*
X0105Y02057D02*
X01072D01*
X01045Y02083D02*
Y0211D01*
Y02083D02*
X01072D01*
X01045Y02057D02*
X0105D01*
X0103Y02083D02*
X01045D01*
X0103Y02057D02*
Y02083D01*
X01045Y02057D02*
Y02082D01*
X0103Y02057D02*
X01045D01*
Y02056D02*
X01047Y02053D01*
X01045Y02005D02*
X0105D01*
X0103Y02031D02*
Y02057D01*
Y02005D02*
Y02031D01*
Y02005D02*
X01045D01*
X0237Y0195D02*
X0239D01*
X02875Y0139D02*
X0288Y01385D01*
X02852D02*
X0288D01*
X02875Y0139D02*
Y01407D01*
X01047Y02031D02*
Y02053D01*
X01046Y02031D02*
X01047D01*
X0105Y02033*
X01045Y02D02*
Y02005D01*
X01035Y02D02*
X01045D01*
X01031Y02082D02*
X01045D01*
Y02083*
X01031Y02056D02*
X01045D01*
Y02057*
X0235Y0195D02*
X0237D01*
X02342D02*
X0235D01*
X02342Y01874D02*
X02362D01*
X02325Y01857D02*
X02342Y01874D01*
X02319Y01857D02*
X02325D01*
X02314Y01852D02*
X02319Y01857D01*
X02332Y0194D02*
X02342Y0195D01*
X02317Y01925D02*
X02332Y0194D01*
X02295Y01902D02*
X02317Y01925D01*
X04018Y0133D02*
X04038D01*
X03995D02*
X04018D01*
X04041D02*
X04061D01*
X04041D02*
X04041D01*
X0176Y01666D02*
Y01757D01*
X01772Y0177*
X0176Y01802D02*
X01772Y01789D01*
Y0177D02*
Y01789D01*
X0174Y01392D02*
Y01467D01*
X0329Y0134D02*
Y01364D01*
X01349Y01271D02*
X0135Y0127D01*
X02097Y01287D02*
X021Y01285D01*
X0105Y02005D02*
X01055D01*
X0105Y02033D02*
X01055Y02038D01*
X0381Y0155D02*
X03835D01*
X03785D02*
X0381D01*
X03765D02*
X03785D01*
X03747Y01347D02*
X03778D01*
X01755Y01377D02*
X01805D01*
X02362Y01874D02*
X02368Y01881D01*
X03315Y01365D02*
X03322D01*
X03265Y01436D02*
X03292Y01464D01*
X03115Y01436D02*
X03265D01*
X03322Y0131D02*
Y01365D01*
X02875Y01407D02*
X02935Y01467D01*
X03105Y0151D02*
Y0153D01*
Y0149D02*
Y0151D01*
Y0149D02*
X03149D01*
X02346Y01322D02*
X02378D01*
X02314D02*
X02346D01*
X03725Y0183D02*
X03745D01*
X03702D02*
X03725D01*
X03715Y01985D02*
X0374D01*
X03693D02*
X03715D01*
X02492Y01309D02*
X02505Y01322D01*
X02492Y0128D02*
Y01309D01*
X02251Y01322D02*
X02314D01*
X04291Y01856D02*
X04345Y0191D01*
X04291Y0182D02*
Y01856D01*
X02555Y0127D02*
X02874D01*
X02555D02*
D01*
X02551D02*
X02555D01*
X02542Y0128D02*
X02551Y0127D01*
X02874D02*
X02912Y01308D01*
X0103Y02109D02*
X0103Y0211D01*
X01072Y02057D02*
X01073Y02056D01*
X01055Y02038D02*
X01073Y02056D01*
X02314Y01829D02*
Y01852D01*
X03149Y0149D02*
Y01734D01*
Y0149D02*
X03224Y01565D01*
X03307*
X03292Y01498D02*
X033Y01506D01*
X03352*
X03292Y01464D02*
Y01498D01*
X03865Y01347D02*
D01*
Y01365D02*
X03945Y01445D01*
X03865Y01347D02*
Y01365D01*
X01805Y01377D02*
D01*
X04345Y0191D02*
Y01922D01*
X04367Y01862D02*
X0442Y01915D01*
X04362Y01862D02*
X04367D01*
X04362Y01852D02*
Y01862D01*
X04352Y01842D02*
X04362Y01852D01*
X0435Y0184D02*
X04352Y01842D01*
X02475Y01671D02*
Y01792D01*
X02425Y01681D02*
Y01792D01*
X03377Y0142D02*
Y01475D01*
X03048Y0137D02*
X03115Y01436D01*
X03048Y0135D02*
Y0137D01*
Y0148*
X03352Y01475D02*
X03377D01*
X02912Y01308D02*
X03007D01*
X03048Y0135*
X02312Y0128D02*
Y01319D01*
X02314Y01322*
X01805Y01377D02*
Y01425D01*
X0429Y01337D02*
X04295Y01332D01*
X02856Y01308D02*
X02912D01*
X02835Y0133D02*
X02836Y01331D01*
Y01328D02*
Y01331D01*
X0285Y01315D02*
X02853Y01311D01*
X0284Y01315D02*
X02846Y01308D01*
X0103Y02083D02*
Y02109D01*
Y02083D02*
X01031Y02082D01*
X0103Y02057D02*
X01031Y02056D01*
X01045Y0203D02*
X01046Y02031D01*
X0103Y02005D02*
X01035Y02D01*
X01045Y02005D02*
Y0203D01*
X0103Y02031D02*
X01046D01*
X0103Y0211D02*
X01045D01*
X01046D02*
X01072Y02083D01*
X01045Y0211D02*
X01046D01*
X01349Y01271D02*
X0136Y01282D01*
Y0148*
X0191Y01455D02*
X0191Y01454D01*
X01905Y01448D02*
X0191Y01454D01*
X0188Y01435D02*
X01895D01*
X01892Y01437D02*
X019Y01445D01*
X02825Y01385D02*
X02852D01*
X02025Y0129D02*
X02025Y01289D01*
X0211Y0127D02*
Y0128D01*
X02015Y0127D02*
X02015Y0127D01*
X0135Y0127D02*
X02015D01*
X02025*
X0329Y01364D02*
Y0139D01*
G54D50*
X01885Y01745D02*
Y0183D01*
X01865Y01745D02*
Y01814D01*
Y0183*
X02314Y01795D02*
Y01829D01*
X01615Y01846D02*
Y01893D01*
Y0194*
X01568Y01893D02*
X01615D01*
X01568Y0194D02*
X01615D01*
X01568Y01893D02*
X01615Y0194D01*
X01474Y01799D02*
Y01846D01*
Y01799D02*
X01521D01*
X01474D02*
X01521Y01846D01*
Y01799D02*
X01568D01*
X01521D02*
Y01846D01*
X01474D02*
X01521D01*
X01568Y01799D02*
Y01846D01*
X01474D02*
Y01893D01*
Y01846D02*
X01521Y01893D01*
X01474D02*
X01521D01*
X01474D02*
Y0194D01*
X01521Y01893*
X01474Y0194D02*
X01521D01*
Y01893D02*
Y0194D01*
Y01846D02*
Y01893D01*
X01545Y0187D02*
X01568Y01846D01*
X01521Y01893D02*
X01568D01*
X01521D02*
X01545Y0187D01*
Y01917D02*
X01568Y01893D01*
X01521Y0194D02*
X01545Y01917D01*
X01568Y01893D02*
Y0194D01*
X01521D02*
X01568D01*
Y01799D02*
X01615D01*
X01521D02*
X01568Y01846D01*
X01521D02*
X01568D01*
Y01893*
Y01846D02*
X01615Y01799D01*
X01568Y01846D02*
X01615D01*
X01545Y0187D02*
X01568Y01893D01*
X01545Y01917D02*
X01568Y0194D01*
X01615Y01799D02*
Y01846D01*
X01568Y01893D02*
X01615Y01846D01*
X01568D02*
D01*
Y01893D02*
D01*
X01521D02*
X01545Y01917D01*
X01568Y01893D02*
D01*
D01*
D01*
D01*
Y0194D02*
D01*
X01474Y01846D02*
D01*
X01521D02*
X01545Y0187D01*
X02255Y01795D02*
Y01863D01*
X02368Y01881D02*
X025D01*
X02801Y01806D02*
X02893D01*
X02796Y01811D02*
X02801Y01806D01*
X02773Y01811D02*
X02796D01*
X02758Y01796D02*
X02773Y01811D01*
X02758Y01791D02*
Y01796D01*
X02757Y0179D02*
X02758Y01791D01*
X00914Y02815D02*
X01003Y02904D01*
X0108*
X02591Y0179D02*
X02757D01*
X02893Y01806D02*
X02935Y01765D01*
X04291Y01805D02*
Y0182D01*
X04352Y01842D02*
Y01852D01*
Y01837D02*
Y01842D01*
Y01797D02*
Y01837D01*
X0435Y0184D02*
X04352Y01837D01*
X02935Y01746D02*
Y01765D01*
X025Y01881D02*
X02591Y0179D01*
X01865Y01745D02*
X0187Y0174D01*
X0227Y01868D02*
X02295Y01893D01*
X02255Y01863D02*
X02261Y01868D01*
X0227*
X0117Y02994D02*
Y0317D01*
X01105Y03235D02*
X0117Y0317D01*
X0108Y02904D02*
X0117Y02994D01*
G54D52*
X01085Y016D02*
X01265D01*
X01085Y01485D02*
Y016D01*
X01514Y0346D02*
X01584Y0339D01*
X02575Y02895D02*
X02606Y02735D01*
X02085Y0289D02*
X02091Y02994D01*
X02575Y02895D02*
X02606Y02989D01*
X03627Y02937D02*
Y03017D01*
X04132Y02942D02*
Y03022D01*
X04647Y02942D02*
Y03022D01*
Y02649D02*
Y02942D01*
X04132Y02649D02*
Y02942D01*
X03627Y02649D02*
Y02937D01*
X02085Y0289D02*
X02091Y02621D01*
X01581D02*
Y02906D01*
Y02981*
X01085Y01485D02*
X01245D01*
X00775Y03305D02*
Y0346D01*
X01584Y0339D02*
X0179D01*
X00775Y0346D02*
X01514D01*
G54D54*
X0096Y02483D02*
X0108Y02603D01*
X01085Y02608*
Y0261*
G54D64*
X0508Y02195D03*
Y0344D03*
X006Y02195D03*
Y0344D03*
X00775Y03305D03*
Y0346D03*
X03627Y02937D03*
X04132Y02942D03*
X04647D03*
X02575Y02895D03*
X02085Y0289D03*
X01581Y02906D03*
X01245Y01485D03*
X01085D03*
G54D65*
X03067Y0296D03*
G54D66*
X03067Y0286D03*
Y0276D03*
G54D67*
X0509Y03605D03*
X0058D03*
Y0132D03*
X0509D03*
G54D68*
X0224Y01975D03*
X00985Y01575D03*
X01075Y01725D03*
X01685Y0196D03*
X04685Y0319D03*
X03675Y0183D03*
X02315Y0146D03*
X0135Y02045D03*
X01545Y0153D03*
X0141Y0183D03*
X01422Y0179D03*
X01685Y01885D03*
Y0191D03*
X03665Y01985D03*
Y01955D03*
X0354Y01956D03*
X03545Y01985D03*
X0435Y01333D03*
X043Y01335D03*
X01955Y0143D03*
X02251Y01445D03*
X03988Y01855D03*
X03985Y0144D03*
X02285Y02245D03*
Y02215D03*
X01905Y01939D03*
X02039Y01967D03*
X0203Y0188D03*
X0199Y01865D03*
X0195D03*
X02077Y01968D03*
X0239Y0195D03*
X02785Y01785D03*
X04155Y0127D03*
X0355Y0136D03*
X0337Y0192D03*
X0333Y01935D03*
X0119Y0203D03*
X0118Y02215D03*
X0135Y02275D03*
X0114Y0199D03*
X01047Y02031D03*
X01045Y02D03*
Y02082D03*
Y02056D03*
X02049Y01864D03*
X0193Y01886D03*
X0235Y0195D03*
X02898Y01838D03*
X02317Y01925D03*
X02332Y0194D03*
X0237Y0195D03*
X0241Y01915D03*
X02167Y01856D03*
X02186Y01868D03*
X0213Y01865D03*
X0209D03*
X0183Y0257D03*
X0181Y02515D03*
X02295Y0315D03*
X0233Y0309D03*
X0159Y01544D03*
X0175Y0178D03*
X01805Y01765D03*
X01675Y01815D03*
X0181Y0186D03*
X0169Y01535D03*
X01705Y0144D03*
X03835Y0155D03*
X0381D03*
X03785D03*
X03765D03*
X03778Y01347D03*
X02147Y01882D03*
X02355Y0255D03*
X0293Y0206D03*
X03747Y01347D03*
X03105Y0153D03*
Y0151D03*
Y0149D03*
X0292Y0191D03*
X03725Y0183D03*
X03745D03*
X03702D03*
X04395Y0198D03*
X04755Y0319D03*
X0482Y03166D03*
X0419Y03135D03*
X0392Y03165D03*
X0335Y03185D03*
X03225Y0314D03*
X0374Y01985D03*
X03715D03*
X03693D03*
X02401Y01265D03*
X0227D03*
X04295Y0195D03*
X04165Y01864D03*
X04224Y01864D03*
X04225Y01935D03*
X04185Y01878D03*
X04125Y01864D03*
X04086Y01878D03*
X04066Y01863D03*
X04027Y01862D03*
X04007Y01875D03*
X03965D03*
X0406Y0198D03*
X0387Y0186D03*
X04085Y0235D03*
X0396Y02415D03*
X0392Y02455D03*
X03935Y03125D03*
X02915Y0202D03*
X0475Y01465D03*
X04785Y0139D03*
X02565Y01293D03*
X0376Y0298D03*
X03415Y0235D03*
X0367D03*
X03355Y02455D03*
X03311Y0272D03*
X0363Y0235D03*
X03605Y02355D03*
X0341Y02515D03*
X03413Y02493D03*
X0354Y0235D03*
X0305Y02685D03*
X0342Y01525D03*
X02921Y01956D03*
X02925Y0246D03*
X03046Y01841D03*
X014Y01955D03*
X0318Y02435D03*
X0333Y01655D03*
X0338Y0243D03*
X0282Y02635D03*
Y02665D03*
X0465Y0318D03*
X03496Y01994D03*
X03345Y02175D03*
X03508Y01976D03*
X044Y0303D03*
X04055Y02355D03*
X0434Y0303D03*
X04315Y02355D03*
X0442Y03065D03*
X036Y01865D03*
X03665Y0186D03*
X0354Y01915D03*
X03665Y0191D03*
X03125Y02285D03*
X01341Y02188D03*
X0478Y02345D03*
X03815Y0236D03*
X03905Y0314D03*
X0198Y0234D03*
X02919Y01995D03*
X0295Y022D03*
X02945Y02225D03*
X03105Y01829D03*
X02922Y02212D03*
X04303Y01481D03*
X04322Y01467D03*
X04342Y01482D03*
X02285Y0146D03*
X02226Y01476D03*
X02206Y01461D03*
X02186Y01473D03*
X02147Y01472D03*
X02068Y01468D03*
X02049Y01455D03*
X02029Y0144D03*
X02009Y01425D03*
X01989Y0144D03*
X0197Y01455D03*
X01891Y01473D03*
X03928Y01477D03*
X04184Y01476D03*
X04224Y01477D03*
X04243Y01465D03*
X04263Y0148D03*
X04007Y01459D03*
X04027Y01443D03*
X04106Y01472D03*
X04086Y01459D03*
X04066Y01444D03*
X04047Y01432D03*
X03045Y02245D03*
X0324Y0217D03*
X033Y0168D03*
X0352Y01815D03*
X02935Y02035D03*
X03125Y01665D03*
X0309Y0164D03*
X01867Y02252D03*
X04325Y03D03*
X0476Y0236D03*
X04895Y0244D03*
X0484Y0315D03*
X0438Y02755D03*
X0292Y0186D03*
X0331Y02435D03*
X03145Y0183D03*
X03164Y01844D03*
X03155Y0187D03*
X03204Y01844D03*
X03243Y01843D03*
X03205Y0187D03*
X03215Y01955D03*
X03375Y0225D03*
X0337Y02195D03*
X0332Y02265D03*
X0113Y0239D03*
X01335Y0213D03*
X0111Y0171D03*
X0119Y01335D03*
X01046Y0211D03*
X01385Y01445D03*
X00895Y01725D03*
X01384Y01538D03*
X00905Y0185D03*
X0188Y02895D03*
X00825Y0275D03*
X02835Y0303D03*
X0333Y02015D03*
X0327Y0202D03*
X03313Y01863D03*
G54D69*
X0452Y01405D03*
X0127Y0188D03*
X02376Y0225D03*
X0136Y0148D03*
X0175Y02865D03*
Y02935D03*
G54D70*
X04355Y02797D03*
Y0277D03*
Y0274D03*
Y0271D03*
Y02685D03*
X01855Y01445D03*
X01905D03*
X01189Y02245D03*
X01215D03*
X01163D03*
X0114D03*
X0188Y01435D03*
G54D71*
X01615Y01893D03*
Y0194D03*
X01474Y01799D03*
X01615D03*
X01568Y01893D03*
Y0194D03*
Y01846D03*
Y01799D03*
X01474Y01893D03*
X01521D03*
Y01799D03*
X01474Y0194D03*
X01521D03*
X01615Y01846D03*
X01521D03*
X01474D03*
G54D72*
X04086Y01643D03*
X04393Y01746D03*
X04342D03*
X04291D03*
X04239D03*
X04188D03*
X04137D03*
X04086D03*
X04035D03*
X03983D03*
X03932D03*
X03881D03*
X04393Y01695D03*
X04342D03*
X04291D03*
X04239D03*
X04188D03*
X04137D03*
X04086D03*
X04035D03*
X03983D03*
X03932D03*
X03881D03*
X04393Y01643D03*
X04342D03*
X04291D03*
X04239D03*
X04188D03*
X04137D03*
X04035D03*
X03983D03*
X03932D03*
X03881D03*
X04393Y01592D03*
X04342D03*
X04291D03*
X04239D03*
X04188D03*
X04137D03*
X04086D03*
X04035D03*
X03983D03*
X03932D03*
X03881D03*
X02355Y01742D03*
X02304D03*
X02253D03*
X02202D03*
X02151D03*
X021D03*
X02048D03*
X01997D03*
X01946D03*
X01895D03*
X01844D03*
X02355Y01691D03*
X02304D03*
X02253D03*
X02202D03*
X02151D03*
X021D03*
X02048D03*
X01997D03*
X01946D03*
X01895D03*
X01844D03*
X02355Y0164D03*
X02304D03*
X02253D03*
X02202D03*
X02151D03*
X021D03*
X02048D03*
X01997D03*
X01946D03*
X01895D03*
X01844D03*
X02355Y01588D03*
X02304D03*
X02253D03*
X02202D03*
X02151D03*
X021D03*
X02048D03*
X01997D03*
X01946D03*
X01895D03*
X01844D03*
G54D73*
X02852Y01385D03*
X04065Y0133D03*
X04018D03*
X04041D03*
X01245Y0275D03*
X03995Y0133D03*
X02825Y01385D03*
X01275Y0275D03*
Y0272D03*
X01245D03*
G54D74*
X02346Y01322D03*
G54D75*
X01685Y01305D03*
G54D76*
X0329Y01364D03*
Y0134D03*
Y0139D03*
G54D77*
X02035Y0128D03*
X02075D03*
X0211D03*
X02845Y01325D03*
G54D78*
X0133Y03015D03*
G54D79*
X01105Y03444D03*
Y03235D03*
X0309Y03264D03*
Y03055D03*
G54D80*
X00845Y01974D03*
Y02156D03*
G54D81*
X04135Y03419D03*
X04645Y02647D03*
X04135D03*
X03625D03*
X01585Y02617D03*
X02605D03*
X01585Y03389D03*
X02095D03*
X02605D03*
X04645Y03419D03*
X03625D03*
X02095Y02617D03*
G54D82*
X03985Y03057D03*
X04035D03*
X04085D03*
X04185D03*
X04235D03*
X04285D03*
X04495Y02285D03*
X04545D03*
X04595D03*
X04695D03*
X04745D03*
X04795D03*
X03985D03*
X04035D03*
X04085D03*
X04185D03*
X04235D03*
X04285D03*
X03475D03*
X03525D03*
X03575D03*
X03675D03*
X03725D03*
X03775D03*
X01435Y02255D03*
X01485D03*
X01535D03*
X01635D03*
X01685D03*
X01735D03*
X02455D03*
X02505D03*
X02555D03*
X02655D03*
X02705D03*
X02755D03*
X01435Y03027D03*
X01485D03*
X01535D03*
X01635D03*
X01685D03*
X01735D03*
X01945D03*
X01995D03*
X02045D03*
X02145D03*
X02195D03*
X02245D03*
X02455D03*
X02505D03*
X02555D03*
X02655D03*
X02705D03*
X02755D03*
X04495Y03057D03*
X04545D03*
X04595D03*
X04695D03*
X04745D03*
X04795D03*
X03475D03*
X03525D03*
X03575D03*
X03675D03*
X03725D03*
X03775D03*
X01995Y02255D03*
X01945D03*
X02195D03*
X02245D03*
X02045D03*
X02145D03*
G54D83*
X02686Y02085D03*
Y0166D03*
X04726Y0211D03*
Y01685D03*
X03591Y0211D03*
Y01685D03*
X01551Y02085D03*
Y0166D03*
G54D84*
X0333Y02519D03*
Y0268D03*
Y02759D03*
Y0292D03*
G54D85*
X01075Y02815D03*
X00914D03*
X0131Y0282D03*
X0115D03*
G54D86*
X0105Y01845D03*
Y0165D03*
G54D87*
X04401Y01522D03*
X04381D03*
X04362D03*
X04342D03*
X04322D03*
X04303D03*
X04283D03*
X04263D03*
X04243D03*
X04224D03*
X04204D03*
X04184D03*
X04165D03*
X04145D03*
X04125D03*
X04106D03*
X04086D03*
X04066D03*
X04047D03*
X04027D03*
X04007D03*
X03988D03*
X03968D03*
X03948D03*
X03928D03*
X03909D03*
X03889D03*
X03869D03*
Y01817D03*
X03889Y01817D03*
X03909Y01817D03*
X03928D03*
X03948D03*
X03968D03*
X03988D03*
X04007D03*
X04027D03*
X04047D03*
X04066D03*
X04086D03*
X04106D03*
X04125D03*
X04145D03*
X04165D03*
X04184D03*
X04204D03*
X04224D03*
X04243D03*
X04263D03*
X04283D03*
X04303D03*
X04322D03*
X04342D03*
X04362D03*
X04381D03*
X04401D03*
X02363Y01518D03*
X02344D03*
X02324D03*
X02304D03*
X02285D03*
X02265D03*
X02245D03*
X02226D03*
X02206D03*
X02186D03*
X02167D03*
X02147D03*
X02127D03*
X02108D03*
X02088D03*
X02068D03*
X02049D03*
X02029D03*
X02009D03*
X01989D03*
X0197D03*
X0195D03*
X0193D03*
X01911D03*
X01891D03*
X01871D03*
X01852D03*
X01832D03*
Y01814D03*
X01852Y01813D03*
X01871Y01814D03*
X01891D03*
X01911D03*
X0193D03*
X0195D03*
X0197D03*
X01989D03*
X02009D03*
X02029D03*
X02049D03*
X02068D03*
X02088D03*
X02108D03*
X02127D03*
X02147D03*
X02167D03*
X02186D03*
X02206D03*
X02226D03*
X02245D03*
X02265D03*
X02285D03*
X02304D03*
X02324D03*
X02344D03*
X02363D03*
G54D88*
X04135Y0167D03*
X02098Y01666D03*
G54D89*
X0106Y0207D03*
X01269D03*
G54D90*
X03909Y01749D02*
Y01817D01*
Y01825*
X03905Y01745D02*
X03909Y01749D01*
G54D91*
X01014Y01647D02*
X01057Y01604D01*
X0104Y01529D02*
X01057Y01545D01*
Y01604*
X00955Y01647D02*
X01014D01*
X00939Y0163D02*
X00955Y01647D01*
X0075Y02135D02*
X00823D01*
X00845Y02156*
X0075Y01768D02*
Y02135D01*
Y01768D02*
X00865Y01652D01*
X00845Y02368D02*
X0096Y02483D01*
X00845Y02156D02*
Y02368D01*
X00865Y01652D02*
X00917D01*
X00939Y0163*
X0104Y01529D02*
X01085Y01485D01*
G54D92*
X01667Y02699D02*
Y03027D01*
X01535D02*
X01635D01*
X01485Y02717D02*
Y03027D01*
X01435Y02767D02*
Y03027D01*
X03985Y02797D02*
Y03057D01*
X04035Y02747D02*
Y03057D01*
X04217Y02729D02*
Y03057D01*
X04085D02*
X04185D01*
X01945Y02767D02*
Y03027D01*
X01995Y02717D02*
Y03027D01*
X02177Y02699D02*
Y03027D01*
X02555D02*
X02655D01*
X03475Y0212D02*
Y02285D01*
X03985Y02125D02*
Y02285D01*
X03525Y02176D02*
Y02285D01*
X03575Y02126D02*
Y02285D01*
X03625Y02143D02*
Y02285D01*
X03675Y02193D02*
Y02285D01*
X03707Y02225D02*
Y02285D01*
X04035Y02145D02*
Y02285D01*
X04135Y02115D02*
Y02285D01*
X04217Y02133D02*
Y02285D01*
X04495Y02115D02*
Y02285D01*
X04727Y0211D02*
Y02285D01*
X04695Y02141D02*
Y02285D01*
X04085Y02165D02*
Y02285D01*
X04545Y02165D02*
Y02285D01*
X04595Y02241D02*
Y02285D01*
X04645Y02191D02*
Y02285D01*
X02655Y02116D02*
Y02255D01*
X02605Y02166D02*
Y02255D01*
X02555Y02216D02*
Y02255D01*
X02505Y021D02*
Y02255D01*
X02455Y02125D02*
Y02255D01*
X02145Y0214D02*
Y02255D01*
X02045Y02115D02*
Y02255D01*
X02687Y02085D02*
Y02255D01*
X02177Y02098D02*
Y02255D01*
X02095Y02085D02*
Y02255D01*
X01995Y02185D02*
Y02255D01*
X01945Y0212D02*
Y02255D01*
X01667Y02085D02*
Y02255D01*
X01535Y02175D02*
Y02255D01*
X01635Y02085D02*
Y02255D01*
X0158Y0213D02*
Y02255D01*
X01485Y02125D02*
Y02255D01*
X0158Y0213D02*
X01624Y02085D01*
X01635Y02075D02*
Y02085D01*
X01435Y02075D02*
Y02255D01*
X01667Y02042D02*
Y02085D01*
X02045Y03027D02*
X02145D01*
X01624Y02085D02*
X01635Y02075D01*
X03707Y03015D02*
Y03057D01*
X03697Y03005D02*
X03707Y03015D01*
X03697Y02954D02*
Y03005D01*
Y02954D02*
X03707Y02944D01*
Y02729D02*
Y02944D01*
X04545Y02752D02*
X04647Y02649D01*
X04695Y02285D02*
X04727D01*
X03145Y03061D02*
X03189D01*
X02605Y02255D02*
X02655D01*
X02555D02*
X02605D01*
X02095D02*
X02145D01*
X02045D02*
X02095D01*
X0158D02*
X01635D01*
X01535D02*
X0158D01*
X01535Y02175D02*
X0158Y0213D01*
X04645Y02285D02*
X04695D01*
X04595D02*
X04645D01*
X04135D02*
X04185D01*
X04085D02*
X04135D01*
X03625D02*
X03675D01*
X03575D02*
X03625D01*
X04545D02*
X04595D01*
X04495D02*
X04545D01*
X04185D02*
X04217D01*
X04035D02*
X04085D01*
X03985D02*
X04035D01*
X03525D02*
X03575D01*
X03475D02*
X03525D01*
X02655Y02255D02*
X02687D01*
X02505D02*
X02555D01*
X02455D02*
X02505D01*
X02145D02*
X02177D01*
X01995D02*
X02045D01*
X01945D02*
X01995D01*
X01635D02*
X01667D01*
X01485D02*
X01535D01*
X01435D02*
X01485D01*
X02606Y02618D02*
Y02735D01*
X02687Y02816*
X03575Y03057D02*
X03675D01*
X03475Y02797D02*
Y03057D01*
X03525Y02747D02*
Y03057D01*
X04495Y02802D02*
X04545Y02752D01*
Y02747D02*
Y02752D01*
X04695Y03057D02*
X04727D01*
X04545D02*
X04595D01*
X04495D02*
X04545D01*
X04185D02*
X04217D01*
X04035D02*
X04085D01*
X03985D02*
X04035D01*
X03675D02*
X03707D01*
X03525D02*
X03575D01*
X03475D02*
X03525D01*
X02655Y03027D02*
X02687D01*
X02505D02*
X02555D01*
X02455D02*
X02505D01*
X02145D02*
X02177D01*
X01995D02*
X02045D01*
X01945D02*
X01995D01*
X01635D02*
X01667D01*
X01485D02*
X01535D01*
X01435D02*
X01485D01*
X01445Y02085D02*
X01485Y02125D01*
X03675Y02285D02*
X03707D01*
X04595Y03057D02*
X04695D01*
X04727Y02729D02*
Y03057D01*
X04545Y02752D02*
Y03057D01*
X04495Y02802D02*
Y03057D01*
X02455Y02767D02*
Y03027D01*
X02505Y02717D02*
Y03027D01*
X02687Y02816D02*
Y0293D01*
Y03027*
G54D93*
X01667Y02085D02*
X0182D01*
X02287Y02095D02*
X02298Y02084D01*
X0217Y02095D02*
X02287D01*
X0216Y02085D02*
X0217Y02095D01*
X02298Y02084D02*
X02686D01*
X02095Y02085D02*
X0216D01*
X02686Y02084D02*
X02686Y02085D01*
X03855Y0211D02*
X04375D01*
X03591Y0211D02*
X03854D01*
X03855Y0211*
X03591D02*
X03591Y0211D01*
X01635Y02085D02*
X01667D01*
X01624D02*
X01635D01*
X01551D02*
X01624D01*
X0182D02*
X02095D01*
X04375Y0211D02*
X04726D01*
G54D94*
X0179Y0339D02*
X0179Y03389D01*
X02095*
X03169Y03419D02*
X03625D01*
X04135D02*
X04645D01*
X03625D02*
X04135D01*
X02095Y03389D02*
X02605D01*
X03139*
M02*