%FSTAX23Y23*%
%MOIN*%
%SFA1B1*%

%IPPOS*%
%ADD45C,0.009840*%
%ADD47C,0.011810*%
%ADD49C,0.019690*%
%ADD50C,0.027560*%
%ADD52C,0.149610*%
%ADD64C,0.150000*%
%ADD65R,0.059060X0.059060*%
%ADD68C,0.018000*%
%ADD69C,0.050000*%
%ADD70C,0.022000*%
%ADD71C,0.025980*%
%ADD73C,0.021000*%
%ADD74C,0.025000*%
%ADD75C,0.040000*%
%ADD76C,0.020000*%
%ADD77C,0.030000*%
%LNninja_ecu_pcb-1*%
%LPD*%
G36*
X05158Y03469D02*
X05153Y03468D01*
X05153Y0347*
X05146Y03484*
X05136Y03496*
X05124Y03506*
X0511Y03513*
X05095Y03517*
X0508Y03519*
X05064Y03517*
X05049Y03513*
X05035Y03506*
X05023Y03496*
X05014Y03484*
X05006Y0347*
X05002Y03455*
X05Y0344*
X05002Y03424*
X05006Y03409*
X05014Y03395*
X05023Y03383*
X05035Y03374*
X05049Y03366*
X05064Y03362*
X0508Y0336*
X05095Y03362*
X0511Y03366*
X05124Y03374*
X05136Y03383*
X05146Y03395*
X05153Y03409*
X05153Y03411*
X05158Y0341*
Y02224*
X05153Y02223*
X05153Y02225*
X05146Y02239*
X05136Y02251*
X05124Y02261*
X0511Y02268*
X05095Y02272*
X0508Y02274*
X05064Y02272*
X05049Y02268*
X05035Y02261*
X05023Y02251*
X05014Y02239*
X05006Y02225*
X05002Y0221*
X05Y02195*
X05002Y02179*
X05006Y02164*
X05014Y0215*
X05023Y02138*
X05035Y02129*
X05049Y02121*
X05064Y02117*
X0508Y02115*
X05095Y02117*
X0511Y02121*
X05124Y02129*
X05136Y02138*
X05146Y0215*
X05153Y02164*
X05153Y02166*
X05158Y02165*
Y01256*
X05113*
X05113Y01261*
X05114Y01261*
X05125Y01267*
X05134Y01275*
X05142Y01284*
X05148Y01295*
X05152Y01307*
X05153Y0132*
X05152Y01332*
X05148Y01344*
X05142Y01355*
X05134Y01364*
X05125Y01372*
X05114Y01378*
X05102Y01382*
X0509Y01383*
X05077Y01382*
X05065Y01378*
X05054Y01372*
X05045Y01364*
X05037Y01355*
X05031Y01344*
X05027Y01332*
X05026Y0132*
X05027Y01307*
X05031Y01295*
X05037Y01284*
X05045Y01275*
X05054Y01267*
X05065Y01261*
X05067Y01261*
X05066Y01256*
X04166*
X04165Y01258*
X04164Y01261*
X04167Y01264*
X04168Y0127*
X04167Y01275*
X04164Y01279*
X0416Y01282*
X04155Y01283*
X04149Y01282*
X04145Y01279*
X04142Y01275*
X04141Y0127*
X04142Y01264*
X04145Y01261*
X04144Y01258*
X04143Y01256*
X02807*
X02806Y0126*
X02806Y01261*
X0284Y01295*
X0285*
X02851Y01295*
X02856Y01294*
X02861Y01295*
X02866Y01298*
X02868Y01301*
X02872Y013*
X0399*
X03995Y01301*
X03999Y01305*
X04004Y0131*
X04008Y01314*
X04008Y01315*
X04015*
X04018Y01315*
X04022Y01315*
X04038*
X04041Y01315*
X04045Y01315*
X04061*
X04065Y01315*
X0407Y01316*
X04075Y01319*
X04076Y0132*
X04286*
X04286Y01319*
X0429Y01315*
X04307Y01297*
X04312Y01294*
X04317Y01293*
X04422*
X04427Y01294*
X04432Y01297*
X04511Y01376*
X04512Y01376*
X0452Y01375*
X04527Y01376*
X04534Y01379*
X0454Y01384*
X04545Y0139*
X04548Y01397*
X04549Y01405*
X04548Y01412*
X04545Y01419*
X0454Y01425*
X04534Y0143*
X04534Y0143*
Y0251*
X04533Y02515*
X04529Y02519*
X04369Y0268*
X0437Y02685*
X04369Y0269*
X04369Y0269*
Y02704*
X04369Y02704*
X0437Y0271*
X04369Y02715*
X04369Y02715*
Y02733*
X04371Y02735*
X04372Y02737*
X04375Y02736*
Y02755*
Y02773*
X04372Y02772*
X04371Y02774*
X04369Y02776*
Y02791*
X04369Y02791*
X0437Y02797*
X04369Y02802*
X04365Y02807*
X0436Y02811*
X04355Y02812*
X04349Y02811*
X04344Y02807*
X0434Y02802*
X04339Y02797*
X0434Y02791*
X0434Y02791*
Y02775*
X0434Y02775*
X04339Y0277*
X0434Y02764*
X0434Y02764*
Y02745*
X0434Y02745*
X04339Y0274*
X0434Y02734*
X0434Y02734*
Y02715*
X0434Y02715*
X04339Y0271*
X0434Y02704*
X0434Y02704*
Y0269*
X0434Y0269*
X0434Y0269*
X0434Y0269*
X04339Y02685*
X0434Y02679*
X0434Y02679*
X0434Y02679*
X0434Y02679*
Y02675*
X04341Y02669*
X04345Y02665*
X04505Y02504*
Y0143*
X04505Y0143*
X04499Y01425*
X04494Y01419*
X04491Y01412*
X0449Y01405*
X04491Y01397*
X04491Y01396*
X04416Y01321*
X04363*
X04361Y01326*
X04362Y01328*
X04363Y01333*
X04362Y01338*
X04359Y01343*
X04355Y01345*
X0435Y01346*
X04345Y01345*
X04341Y01343*
X04338Y01338*
X04337Y01333*
X04338Y01328*
X04339Y01326*
X04337Y01321*
X04323*
X04314Y0133*
Y01335*
X04313Y0134*
X04309Y01344*
X04305Y01348*
X043Y01349*
X0407*
X04064Y01348*
X0406Y01344*
X04059Y01344*
X04045*
X04041Y01344*
X04038Y01344*
X04022*
X04018Y01344*
X04015Y01344*
X03998*
X03995Y01344*
X03989Y01343*
X03984Y0134*
X03981Y01335*
X0398Y0133*
X03979Y01329*
X03782*
X03782Y01334*
X03784Y01334*
X03788Y01337*
X03791Y01342*
X03792Y01347*
X03791Y01352*
X03788Y01357*
X03784Y0136*
X03778Y01361*
X03633*
X03599Y01394*
X03595Y01398*
X0359Y01399*
X033*
X033Y01399*
X033Y014*
X03295Y01403*
X0329Y01404*
X03289Y01404*
X0321*
X03119Y01495*
Y0153*
X03118Y01535*
X03114Y01539*
X0311Y01543*
X03105Y01544*
X03099Y01543*
X03095Y01539*
X03091Y01535*
X0309Y0153*
Y01495*
X02962Y01367*
X02895*
X02894Y01368*
Y01385*
X02893Y0139*
X02889Y01394*
X02885Y01398*
X0288Y01399*
X02855*
X02852Y01399*
X02849Y01399*
X02828*
X02825Y01399*
X02819Y01398*
X02814Y01395*
X02811Y0139*
X0281Y01385*
X0281Y01381*
Y01359*
X02788Y01336*
X02355*
X02353Y01337*
X02346Y01339*
X0234Y01337*
X02334Y01334*
X02331Y01328*
X02329Y01322*
X02331Y01316*
X02334Y0131*
X0234Y01306*
X02339Y01301*
X02122*
X0212Y01303*
X02115Y01304*
X02025*
X02019Y01303*
X02015Y01299*
X02011Y01295*
X0201Y0129*
X02011Y01287*
X0201Y01285*
Y0127*
X02011Y01264*
X02014Y01261*
X02013Y01257*
X02012Y01256*
X00603*
X00603Y01261*
X00604Y01261*
X00615Y01267*
X00624Y01275*
X00632Y01284*
X00638Y01295*
X00642Y01307*
X00643Y0132*
X00642Y01332*
X00638Y01344*
X00632Y01355*
X00624Y01364*
X00615Y01372*
X00604Y01378*
X00592Y01382*
X0058Y01383*
X00567Y01382*
X00555Y01378*
X00544Y01372*
X00535Y01364*
X00527Y01355*
X00521Y01344*
X00521Y01343*
X00516Y01343*
Y0219*
X00521Y0219*
X00522Y02179*
X00526Y02164*
X00534Y0215*
X00543Y02138*
X00555Y02129*
X00569Y02121*
X00584Y02117*
X006Y02115*
X00615Y02117*
X0063Y02121*
X00644Y02129*
X00656Y02138*
X00666Y0215*
X00673Y02164*
X00677Y02179*
X00679Y02195*
X00677Y0221*
X00673Y02225*
X00666Y02239*
X00656Y02251*
X00644Y02261*
X0063Y02268*
X00615Y02272*
X006Y02274*
X00584Y02272*
X00569Y02268*
X00555Y02261*
X00543Y02251*
X00534Y02239*
X00526Y02225*
X00522Y0221*
X00521Y02199*
X00516Y02199*
Y03435*
X00521Y03435*
X00522Y03424*
X00526Y03409*
X00534Y03395*
X00543Y03383*
X00555Y03374*
X00569Y03366*
X00584Y03362*
X006Y0336*
X00615Y03362*
X0063Y03366*
X00644Y03374*
X00656Y03383*
X00666Y03395*
X00673Y03409*
X00677Y03424*
X00679Y0344*
X00677Y03455*
X00673Y0347*
X00666Y03484*
X00656Y03496*
X00644Y03506*
X0063Y03513*
X00615Y03517*
X006Y03519*
X00584Y03517*
X00569Y03513*
X00555Y03506*
X00543Y03496*
X00534Y03484*
X00526Y0347*
X00522Y03455*
X00521Y03444*
X00516Y03444*
Y03581*
X00521Y03582*
X00521Y0358*
X00527Y03569*
X00535Y0356*
X00544Y03552*
X00555Y03546*
X00567Y03542*
X0058Y03541*
X00592Y03542*
X00604Y03546*
X00615Y03552*
X00624Y0356*
X00632Y03569*
X00638Y0358*
X00642Y03592*
X00643Y03605*
X00642Y03617*
X00638Y03629*
X00632Y0364*
X00624Y03649*
X00615Y03657*
X00604Y03663*
X00603Y03663*
X00603Y03668*
X05066*
X05067Y03663*
X05065Y03663*
X05054Y03657*
X05045Y03649*
X05037Y0364*
X05031Y03629*
X05027Y03617*
X05026Y03605*
X05027Y03592*
X05031Y0358*
X05037Y03569*
X05045Y0356*
X05054Y03552*
X05065Y03546*
X05077Y03542*
X0509Y03541*
X05102Y03542*
X05114Y03546*
X05125Y03552*
X05134Y0356*
X05142Y03569*
X05148Y0358*
X05152Y03592*
X05153Y03605*
X05152Y03617*
X05148Y03629*
X05142Y0364*
X05134Y03649*
X05125Y03657*
X05114Y03663*
X05113Y03663*
X05113Y03668*
X05158*
Y03469*
G37*
%LNninja_ecu_pcb-2*%
%LPC*%
G36*
X0333Y01668D02*
X03324Y01667D01*
X0332Y01664*
X03317Y0166*
X03316Y01655*
X03317Y01649*
X0332Y01645*
X03324Y01642*
X0333Y01641*
X03335Y01642*
X03339Y01645*
X03342Y01649*
X03343Y01655*
X03342Y0166*
X03339Y01664*
X03335Y01667*
X0333Y01668*
G37*
G36*
X03125Y01678D02*
X03119Y01677D01*
X03115Y01674*
X03112Y0167*
X03111Y01665*
X03112Y01659*
X03115Y01655*
X03119Y01652*
X03125Y01651*
X0313Y01652*
X03134Y01655*
X03137Y01659*
X03138Y01665*
X03137Y0167*
X03134Y01674*
X0313Y01677*
X03125Y01678*
G37*
G36*
X033Y01693D02*
X03294Y01692D01*
X0329Y01689*
X03287Y01685*
X03286Y0168*
X03287Y01674*
X0329Y0167*
X03294Y01667*
X033Y01666*
X03305Y01667*
X03309Y0167*
X03312Y01674*
X03313Y0168*
X03312Y01685*
X03309Y01689*
X03305Y01692*
X033Y01693*
G37*
G36*
X04393Y01659D02*
X04387Y01658D01*
X04382Y01655*
X04378Y01649*
X04377Y01643*
X04378Y01637*
X04382Y01632*
X04387Y01629*
X04393Y01628*
X04399Y01629*
X04404Y01632*
X04408Y01637*
X04409Y01643*
X04408Y01649*
X04404Y01655*
X04399Y01658*
X04393Y01659*
G37*
G36*
X04239D02*
X04233Y01658D01*
X04228Y01655*
X04225Y01649*
X04224Y01643*
X04225Y01637*
X04228Y01632*
X04233Y01629*
X04239Y01628*
X04245Y01629*
X04251Y01632*
X04254Y01637*
X04255Y01643*
X04254Y01649*
X04251Y01655*
X04245Y01658*
X04239Y01659*
G37*
G36*
X04291D02*
X04285Y01658D01*
X04279Y01655*
X04276Y01649*
X04275Y01643*
X04276Y01637*
X04279Y01632*
X04285Y01629*
X04291Y01628*
X04297Y01629*
X04302Y01632*
X04305Y01637*
X04306Y01643*
X04305Y01649*
X04302Y01655*
X04297Y01658*
X04291Y01659*
G37*
G36*
X04342D02*
X04336Y01658D01*
X04331Y01655*
X04327Y01649*
X04326Y01643*
X04327Y01637*
X04331Y01632*
X04336Y01629*
X04342Y01628*
X04348Y01629*
X04353Y01632*
X04356Y01637*
X04358Y01643*
X04356Y01649*
X04353Y01655*
X04348Y01658*
X04342Y01659*
G37*
G36*
X02048Y01706D02*
X02042Y01705D01*
X02037Y01702*
X02034Y01697*
X02033Y01691*
X02034Y01685*
X02037Y0168*
X02042Y01676*
X02048Y01675*
X02054Y01676*
X0206Y0168*
X02063Y01685*
X02064Y01691*
X02063Y01697*
X0206Y01702*
X02054Y01705*
X02048Y01706*
G37*
G36*
X021D02*
X02094Y01705D01*
X02088Y01702*
X02085Y01697*
X02084Y01691*
X02085Y01685*
X02088Y0168*
X02094Y01676*
X021Y01675*
X02106Y01676*
X02111Y0168*
X02114Y01685*
X02115Y01691*
X02114Y01697*
X02111Y01702*
X02106Y01705*
X021Y01706*
G37*
G36*
X02151D02*
X02145Y01705D01*
X0214Y01702*
X02136Y01697*
X02135Y01691*
X02136Y01685*
X0214Y0168*
X02145Y01676*
X02151Y01675*
X02157Y01676*
X02162Y0168*
X02165Y01685*
X02167Y01691*
X02165Y01697*
X02162Y01702*
X02157Y01705*
X02151Y01706*
G37*
G36*
X01997D02*
X01991Y01705D01*
X01986Y01702*
X01983Y01697*
X01981Y01691*
X01983Y01685*
X01986Y0168*
X01991Y01676*
X01997Y01675*
X02003Y01676*
X02008Y0168*
X02012Y01685*
X02013Y01691*
X02012Y01697*
X02008Y01702*
X02003Y01705*
X01997Y01706*
G37*
G36*
X01844D02*
X01838Y01705D01*
X01833Y01702*
X01829Y01697*
X01828Y01691*
X01829Y01685*
X01833Y0168*
X01838Y01676*
X01844Y01675*
X0185Y01676*
X01855Y0168*
X01858Y01685*
X01859Y01691*
X01858Y01697*
X01855Y01702*
X0185Y01705*
X01844Y01706*
G37*
G36*
X01895D02*
X01889Y01705D01*
X01884Y01702*
X0188Y01697*
X01879Y01691*
X0188Y01685*
X01884Y0168*
X01889Y01676*
X01895Y01675*
X01901Y01676*
X01906Y0168*
X01909Y01685*
X01911Y01691*
X01909Y01697*
X01906Y01702*
X01901Y01705*
X01895Y01706*
G37*
G36*
X01946D02*
X0194Y01705D01*
X01935Y01702*
X01931Y01697*
X0193Y01691*
X01931Y01685*
X01935Y0168*
X0194Y01676*
X01946Y01675*
X01952Y01676*
X01957Y0168*
X01961Y01685*
X01962Y01691*
X01961Y01697*
X01957Y01702*
X01952Y01705*
X01946Y01706*
G37*
G36*
X04188Y01659D02*
X04182Y01658D01*
X04177Y01655*
X04174Y01649*
X04172Y01643*
X04174Y01637*
X04177Y01632*
X04182Y01629*
X04188Y01628*
X04194Y01629*
X04199Y01632*
X04203Y01637*
X04204Y01643*
X04203Y01649*
X04199Y01655*
X04194Y01658*
X04188Y01659*
G37*
G36*
X02253Y01655D02*
X02247Y01654D01*
X02242Y01651*
X02239Y01646*
X02237Y0164*
X02239Y01633*
X02242Y01628*
X02247Y01625*
X02253Y01624*
X02259Y01625*
X02264Y01628*
X02268Y01633*
X02269Y0164*
X02268Y01646*
X02264Y01651*
X02259Y01654*
X02253Y01655*
G37*
G36*
X02304D02*
X02298Y01654D01*
X02293Y01651*
X0229Y01646*
X02289Y0164*
X0229Y01633*
X02293Y01628*
X02298Y01625*
X02304Y01624*
X0231Y01625*
X02315Y01628*
X02319Y01633*
X0232Y0164*
X02319Y01646*
X02315Y01651*
X0231Y01654*
X02304Y01655*
G37*
G36*
X02355D02*
X02349Y01654D01*
X02344Y01651*
X02341Y01646*
X0234Y0164*
X02341Y01633*
X02344Y01628*
X02349Y01625*
X02355Y01624*
X02362Y01625*
X02367Y01628*
X0237Y01633*
X02371Y0164*
X0237Y01646*
X02367Y01651*
X02362Y01654*
X02355Y01655*
G37*
G36*
X02202D02*
X02196Y01654D01*
X02191Y01651*
X02187Y01646*
X02186Y0164*
X02187Y01633*
X02191Y01628*
X02196Y01625*
X02202Y01624*
X02208Y01625*
X02213Y01628*
X02217Y01633*
X02218Y0164*
X02217Y01646*
X02213Y01651*
X02208Y01654*
X02202Y01655*
G37*
G36*
X02048D02*
X02042Y01654D01*
X02037Y01651*
X02034Y01646*
X02033Y0164*
X02034Y01633*
X02037Y01628*
X02042Y01625*
X02048Y01624*
X02054Y01625*
X0206Y01628*
X02063Y01633*
X02064Y0164*
X02063Y01646*
X0206Y01651*
X02054Y01654*
X02048Y01655*
G37*
G36*
X021D02*
X02094Y01654D01*
X02088Y01651*
X02085Y01646*
X02084Y0164*
X02085Y01633*
X02088Y01628*
X02094Y01625*
X021Y01624*
X02106Y01625*
X02111Y01628*
X02114Y01633*
X02115Y0164*
X02114Y01646*
X02111Y01651*
X02106Y01654*
X021Y01655*
G37*
G36*
X02151D02*
X02145Y01654D01*
X0214Y01651*
X02136Y01646*
X02135Y0164*
X02136Y01633*
X0214Y01628*
X02145Y01625*
X02151Y01624*
X02157Y01625*
X02162Y01628*
X02165Y01633*
X02167Y0164*
X02165Y01646*
X02162Y01651*
X02157Y01654*
X02151Y01655*
G37*
G36*
X04035Y01659D02*
X04029Y01658D01*
X04023Y01655*
X0402Y01649*
X04019Y01643*
X0402Y01637*
X04023Y01632*
X04029Y01629*
X04035Y01628*
X04041Y01629*
X04046Y01632*
X04049Y01637*
X0405Y01643*
X04049Y01649*
X04046Y01655*
X04041Y01658*
X04035Y01659*
G37*
G36*
X04086D02*
X0408Y01658D01*
X04075Y01655*
X04071Y01649*
X0407Y01643*
X04071Y01637*
X04075Y01632*
X0408Y01629*
X04086Y01628*
X04092Y01629*
X04097Y01632*
X041Y01637*
X04102Y01643*
X041Y01649*
X04097Y01655*
X04092Y01658*
X04086Y01659*
G37*
G36*
X04137D02*
X04131Y01658D01*
X04126Y01655*
X04122Y01649*
X04121Y01643*
X04122Y01637*
X04126Y01632*
X04131Y01629*
X04137Y01628*
X04143Y01629*
X04148Y01632*
X04152Y01637*
X04153Y01643*
X04152Y01649*
X04148Y01655*
X04143Y01658*
X04137Y01659*
G37*
G36*
X03983D02*
X03977Y01658D01*
X03972Y01655*
X03969Y01649*
X03968Y01643*
X03969Y01637*
X03972Y01632*
X03977Y01629*
X03983Y01628*
X0399Y01629*
X03995Y01632*
X03998Y01637*
X03999Y01643*
X03998Y01649*
X03995Y01655*
X0399Y01658*
X03983Y01659*
G37*
G36*
X0309Y01653D02*
X03084Y01652D01*
X0308Y01649*
X03077Y01645*
X03076Y0164*
X03077Y01634*
X0308Y0163*
X03084Y01627*
X0309Y01626*
X03095Y01627*
X03099Y0163*
X03102Y01634*
X03103Y0164*
X03102Y01645*
X03099Y01649*
X03095Y01652*
X0309Y01653*
G37*
G36*
X03881Y01659D02*
X03875Y01658D01*
X0387Y01655*
X03867Y01649*
X03865Y01643*
X03867Y01637*
X0387Y01632*
X03875Y01629*
X03881Y01628*
X03887Y01629*
X03892Y01632*
X03896Y01637*
X03897Y01643*
X03896Y01649*
X03892Y01655*
X03887Y01658*
X03881Y01659*
G37*
G36*
X03932D02*
X03926Y01658D01*
X03921Y01655*
X03918Y01649*
X03917Y01643*
X03918Y01637*
X03921Y01632*
X03926Y01629*
X03932Y01628*
X03938Y01629*
X03943Y01632*
X03947Y01637*
X03948Y01643*
X03947Y01649*
X03943Y01655*
X03938Y01658*
X03932Y01659*
G37*
G36*
X01997Y01758D02*
X01991Y01756D01*
X01986Y01753*
X01983Y01748*
X01981Y01742*
X01983Y01736*
X01986Y01731*
X01991Y01727*
X01997Y01726*
X02003Y01727*
X02008Y01731*
X02012Y01736*
X02013Y01742*
X02012Y01748*
X02008Y01753*
X02003Y01756*
X01997Y01758*
G37*
G36*
X02048D02*
X02042Y01756D01*
X02037Y01753*
X02034Y01748*
X02033Y01742*
X02034Y01736*
X02037Y01731*
X02042Y01727*
X02048Y01726*
X02054Y01727*
X0206Y01731*
X02063Y01736*
X02064Y01742*
X02063Y01748*
X0206Y01753*
X02054Y01756*
X02048Y01758*
G37*
G36*
X021D02*
X02094Y01756D01*
X02088Y01753*
X02085Y01748*
X02084Y01742*
X02085Y01736*
X02088Y01731*
X02094Y01727*
X021Y01726*
X02106Y01727*
X02111Y01731*
X02114Y01736*
X02115Y01742*
X02114Y01748*
X02111Y01753*
X02106Y01756*
X021Y01758*
G37*
G36*
X01946D02*
X0194Y01756D01*
X01935Y01753*
X01931Y01748*
X0193Y01742*
X01931Y01736*
X01935Y01731*
X0194Y01727*
X01946Y01726*
X01952Y01727*
X01957Y01731*
X01961Y01736*
X01962Y01742*
X01961Y01748*
X01957Y01753*
X01952Y01756*
X01946Y01758*
G37*
G36*
X00895Y01738D02*
X00889Y01737D01*
X00885Y01734*
X00882Y0173*
X00881Y01725*
X00882Y01719*
X00885Y01715*
X00889Y01712*
X00895Y01711*
X009Y01712*
X00904Y01715*
X00907Y01719*
X00908Y01725*
X00907Y0173*
X00904Y01734*
X009Y01737*
X00895Y01738*
G37*
G36*
X01844Y01758D02*
X01838Y01756D01*
X01833Y01753*
X01829Y01748*
X01828Y01742*
X01829Y01736*
X01833Y01731*
X01838Y01727*
X01844Y01726*
X0185Y01727*
X01855Y01731*
X01858Y01736*
X01859Y01742*
X01858Y01748*
X01855Y01753*
X0185Y01756*
X01844Y01758*
G37*
G36*
X01895D02*
X01889Y01756D01*
X01884Y01753*
X0188Y01748*
X01879Y01742*
X0188Y01736*
X01884Y01731*
X01889Y01727*
X01895Y01726*
X01901Y01727*
X01906Y01731*
X01909Y01736*
X01911Y01742*
X01909Y01748*
X01906Y01753*
X01901Y01756*
X01895Y01758*
G37*
G36*
X02355D02*
X02349Y01756D01*
X02344Y01753*
X02341Y01748*
X0234Y01742*
X02341Y01736*
X02344Y01731*
X02349Y01727*
X02355Y01726*
X02362Y01727*
X02367Y01731*
X0237Y01736*
X02371Y01742*
X0237Y01748*
X02367Y01753*
X02362Y01756*
X02355Y01758*
G37*
G36*
X03881Y01762D02*
X03875Y0176D01*
X0387Y01757*
X03867Y01752*
X03865Y01746*
X03867Y0174*
X0387Y01735*
X03875Y01731*
X03881Y0173*
X03887Y01731*
X03892Y01735*
X03896Y0174*
X03897Y01746*
X03896Y01752*
X03892Y01757*
X03887Y0176*
X03881Y01762*
G37*
G36*
X03932D02*
X03926Y0176D01*
X03921Y01757*
X03918Y01752*
X03917Y01746*
X03918Y0174*
X03921Y01735*
X03926Y01731*
X03932Y0173*
X03938Y01731*
X03943Y01735*
X03947Y0174*
X03948Y01746*
X03947Y01752*
X03943Y01757*
X03938Y0176*
X03932Y01762*
G37*
G36*
X02304Y01758D02*
X02298Y01756D01*
X02293Y01753*
X0229Y01748*
X02289Y01742*
X0229Y01736*
X02293Y01731*
X02298Y01727*
X02304Y01726*
X0231Y01727*
X02315Y01731*
X02319Y01736*
X0232Y01742*
X02319Y01748*
X02315Y01753*
X0231Y01756*
X02304Y01758*
G37*
G36*
X02151D02*
X02145Y01756D01*
X0214Y01753*
X02136Y01748*
X02135Y01742*
X02136Y01736*
X0214Y01731*
X02145Y01727*
X02151Y01726*
X02157Y01727*
X02162Y01731*
X02165Y01736*
X02167Y01742*
X02165Y01748*
X02162Y01753*
X02157Y01756*
X02151Y01758*
G37*
G36*
X02202D02*
X02196Y01756D01*
X02191Y01753*
X02187Y01748*
X02186Y01742*
X02187Y01736*
X02191Y01731*
X02196Y01727*
X02202Y01726*
X02208Y01727*
X02213Y01731*
X02217Y01736*
X02218Y01742*
X02217Y01748*
X02213Y01753*
X02208Y01756*
X02202Y01758*
G37*
G36*
X02253D02*
X02247Y01756D01*
X02242Y01753*
X02239Y01748*
X02237Y01742*
X02239Y01736*
X02242Y01731*
X02247Y01727*
X02253Y01726*
X02259Y01727*
X02264Y01731*
X02268Y01736*
X02269Y01742*
X02268Y01748*
X02264Y01753*
X02259Y01756*
X02253Y01758*
G37*
G36*
X04393Y0171D02*
X04387Y01709D01*
X04382Y01706*
X04378Y01701*
X04377Y01695*
X04378Y01689*
X04382Y01683*
X04387Y0168*
X04393Y01679*
X04399Y0168*
X04404Y01683*
X04408Y01689*
X04409Y01695*
X04408Y01701*
X04404Y01706*
X04399Y01709*
X04393Y0171*
G37*
G36*
X03881D02*
X03875Y01709D01*
X0387Y01706*
X03867Y01701*
X03865Y01695*
X03867Y01689*
X0387Y01683*
X03875Y0168*
X03881Y01679*
X03887Y0168*
X03892Y01683*
X03896Y01689*
X03897Y01695*
X03896Y01701*
X03892Y01706*
X03887Y01709*
X03881Y0171*
G37*
G36*
X03932D02*
X03926Y01709D01*
X03921Y01706*
X03918Y01701*
X03917Y01695*
X03918Y01689*
X03921Y01683*
X03926Y0168*
X03932Y01679*
X03938Y0168*
X03943Y01683*
X03947Y01689*
X03948Y01695*
X03947Y01701*
X03943Y01706*
X03938Y01709*
X03932Y0171*
G37*
G36*
X03983D02*
X03977Y01709D01*
X03972Y01706*
X03969Y01701*
X03968Y01695*
X03969Y01689*
X03972Y01683*
X03977Y0168*
X03983Y01679*
X0399Y0168*
X03995Y01683*
X03998Y01689*
X03999Y01695*
X03998Y01701*
X03995Y01706*
X0399Y01709*
X03983Y0171*
G37*
G36*
X02355Y01706D02*
X02349Y01705D01*
X02344Y01702*
X02341Y01697*
X0234Y01691*
X02341Y01685*
X02344Y0168*
X02349Y01676*
X02355Y01675*
X02362Y01676*
X02367Y0168*
X0237Y01685*
X02371Y01691*
X0237Y01697*
X02367Y01702*
X02362Y01705*
X02355Y01706*
G37*
G36*
X02202D02*
X02196Y01705D01*
X02191Y01702*
X02187Y01697*
X02186Y01691*
X02187Y01685*
X02191Y0168*
X02196Y01676*
X02202Y01675*
X02208Y01676*
X02213Y0168*
X02217Y01685*
X02218Y01691*
X02217Y01697*
X02213Y01702*
X02208Y01705*
X02202Y01706*
G37*
G36*
X02253D02*
X02247Y01705D01*
X02242Y01702*
X02239Y01697*
X02237Y01691*
X02239Y01685*
X02242Y0168*
X02247Y01676*
X02253Y01675*
X02259Y01676*
X02264Y0168*
X02268Y01685*
X02269Y01691*
X02268Y01697*
X02264Y01702*
X02259Y01705*
X02253Y01706*
G37*
G36*
X02304D02*
X02298Y01705D01*
X02293Y01702*
X0229Y01697*
X02289Y01691*
X0229Y01685*
X02293Y0168*
X02298Y01676*
X02304Y01675*
X0231Y01676*
X02315Y0168*
X02319Y01685*
X0232Y01691*
X02319Y01697*
X02315Y01702*
X0231Y01705*
X02304Y01706*
G37*
G36*
X04239Y0171D02*
X04233Y01709D01*
X04228Y01706*
X04225Y01701*
X04224Y01695*
X04225Y01689*
X04228Y01683*
X04233Y0168*
X04239Y01679*
X04245Y0168*
X04251Y01683*
X04254Y01689*
X04255Y01695*
X04254Y01701*
X04251Y01706*
X04245Y01709*
X04239Y0171*
G37*
G36*
X04291D02*
X04285Y01709D01*
X04279Y01706*
X04276Y01701*
X04275Y01695*
X04276Y01689*
X04279Y01683*
X04285Y0168*
X04291Y01679*
X04297Y0168*
X04302Y01683*
X04305Y01689*
X04306Y01695*
X04305Y01701*
X04302Y01706*
X04297Y01709*
X04291Y0171*
G37*
G36*
X04342D02*
X04336Y01709D01*
X04331Y01706*
X04327Y01701*
X04326Y01695*
X04327Y01689*
X04331Y01683*
X04336Y0168*
X04342Y01679*
X04348Y0168*
X04353Y01683*
X04356Y01689*
X04358Y01695*
X04356Y01701*
X04353Y01706*
X04348Y01709*
X04342Y0171*
G37*
G36*
X04188D02*
X04182Y01709D01*
X04177Y01706*
X04174Y01701*
X04172Y01695*
X04174Y01689*
X04177Y01683*
X04182Y0168*
X04188Y01679*
X04194Y0168*
X04199Y01683*
X04203Y01689*
X04204Y01695*
X04203Y01701*
X04199Y01706*
X04194Y01709*
X04188Y0171*
G37*
G36*
X04035D02*
X04029Y01709D01*
X04023Y01706*
X0402Y01701*
X04019Y01695*
X0402Y01689*
X04023Y01683*
X04029Y0168*
X04035Y01679*
X04041Y0168*
X04046Y01683*
X04049Y01689*
X0405Y01695*
X04049Y01701*
X04046Y01706*
X04041Y01709*
X04035Y0171*
G37*
G36*
X04086D02*
X0408Y01709D01*
X04075Y01706*
X04071Y01701*
X0407Y01695*
X04071Y01689*
X04075Y01683*
X0408Y0168*
X04086Y01679*
X04092Y0168*
X04097Y01683*
X041Y01689*
X04102Y01695*
X041Y01701*
X04097Y01706*
X04092Y01709*
X04086Y0171*
G37*
G36*
X04137D02*
X04131Y01709D01*
X04126Y01706*
X04122Y01701*
X04121Y01695*
X04122Y01689*
X04126Y01683*
X04131Y0168*
X04137Y01679*
X04143Y0168*
X04148Y01683*
X04152Y01689*
X04153Y01695*
X04152Y01701*
X04148Y01706*
X04143Y01709*
X04137Y0171*
G37*
G36*
X01997Y01655D02*
X01991Y01654D01*
X01986Y01651*
X01983Y01646*
X01981Y0164*
X01983Y01633*
X01986Y01628*
X01991Y01625*
X01997Y01624*
X02003Y01625*
X02008Y01628*
X02012Y01633*
X02013Y0164*
X02012Y01646*
X02008Y01651*
X02003Y01654*
X01997Y01655*
G37*
G36*
X04263Y01493D02*
X04258Y01492D01*
X04254Y01489*
X04251Y01485*
X0425Y01482*
X04249Y01479*
X04245Y01478*
X04243Y01478*
X04238Y01477*
X04236Y01481*
X04236Y01482*
X04233Y01486*
X04229Y01489*
X04224Y0149*
X04219Y01489*
X04214Y01486*
X04212Y01482*
X04211Y01477*
X04212Y01472*
X04214Y01467*
X04219Y01464*
X04224Y01463*
X04229Y01464*
X04231Y0146*
X04231Y0146*
X04234Y01456*
X04238Y01453*
X04243Y01452*
X04249Y01453*
X04253Y01456*
X04256Y0146*
X04256Y01463*
X04257Y01465*
X04261Y01467*
X04263Y01466*
X04268Y01467*
X04273Y0147*
X04275Y01475*
X04276Y0148*
X04275Y01485*
X04273Y01489*
X04268Y01492*
X04263Y01493*
G37*
G36*
X04342Y01495D02*
X04337Y01494D01*
X04333Y01491*
X0433Y01487*
X04329Y01483*
X04328Y01482*
X04324Y0148*
X04322Y0148*
X04321Y0148*
X04316Y01481*
X04315Y01483*
X04315Y01487*
X04312Y01491*
X04308Y01494*
X04303Y01495*
X04297Y01494*
X04293Y01491*
X0429Y01487*
X04289Y01481*
X0429Y01476*
X04293Y01472*
X04297Y01469*
X04303Y01468*
X04304Y01469*
X04308Y01467*
X04309Y01465*
X0431Y01462*
X04313Y01457*
X04317Y01455*
X04322Y01454*
X04327Y01455*
X04332Y01457*
X04334Y01462*
X04335Y01465*
X04336Y01467*
X0434Y01469*
X04342Y01469*
X04347Y0147*
X04351Y01473*
X04354Y01477*
X04355Y01482*
X04354Y01487*
X04351Y01491*
X04347Y01494*
X04342Y01495*
G37*
G36*
X03415Y0152D02*
X03401D01*
X03402Y01517*
X03406Y01511*
X03412Y01507*
X03415Y01506*
Y0152*
G37*
G36*
X02226Y01489D02*
X02221Y01488D01*
X02216Y01485*
X02213Y01481*
X02213Y01478*
X02212Y01476*
X02208Y01474*
X02206Y01474*
X02201Y01473*
X02199Y01478*
X02199Y01478*
X02196Y01482*
X02191Y01485*
X02186Y01486*
X02181Y01485*
X02177Y01482*
X02174Y01478*
X02173Y01473*
X02174Y01468*
X02177Y01463*
X02181Y0146*
X02186Y01459*
X02191Y0146*
X02194Y01456*
X02194Y01456*
X02197Y01452*
X02201Y01449*
X02206Y01448*
X02211Y01449*
X02215Y01452*
X02218Y01456*
X02219Y01459*
X0222Y01461*
X02224Y01463*
X02226Y01462*
X02231Y01463*
X02235Y01466*
X02238Y01471*
X02239Y01476*
X02238Y01481*
X02235Y01485*
X02231Y01488*
X02226Y01489*
G37*
G36*
X03928Y0149D02*
X03923Y01489D01*
X03919Y01486*
X03916Y01482*
X03915Y01477*
X03916Y01472*
X03919Y01467*
X03923Y01465*
X03928Y01464*
X03934Y01465*
X03938Y01467*
X03941Y01472*
X03942Y01477*
X03941Y01482*
X03938Y01486*
X03934Y01489*
X03928Y0149*
G37*
G36*
X02068Y01481D02*
X02063Y0148D01*
X02059Y01478*
X02056Y01473*
X02056Y01472*
X02054Y01468*
X0205Y01468*
X02049Y01469*
X02043Y01468*
X02039Y01465*
X02036Y01461*
X02036Y01457*
X02035Y01455*
X02031Y01453*
X02029Y01453*
X02024Y01452*
X02019Y0145*
X02017Y01445*
X02016Y01441*
X02015Y0144*
X02011Y01438*
X02009Y01438*
X02007Y01438*
X02003Y01439*
X02002Y01441*
X02002Y01445*
X01999Y01449*
X01995Y01452*
X01989Y01453*
X01988Y01452*
X01983Y01455*
X01983Y01456*
X01982Y0146*
X01979Y01464*
X01975Y01467*
X0197Y01468*
X01965Y01467*
X0196Y01464*
X01958Y0146*
X01957Y01455*
X01958Y0145*
X01959Y01447*
X01957Y01442*
X01955Y01443*
X01949Y01442*
X01945Y01439*
X01942Y01435*
X01941Y0143*
X01942Y01424*
X01945Y0142*
X01949Y01417*
X01955Y01416*
X0196Y01417*
X01964Y0142*
X01967Y01424*
X01968Y0143*
X01967Y01435*
X01965Y01437*
X01968Y01442*
X0197Y01442*
X01972Y01442*
X01976Y0144*
X01976Y01438*
X01977Y01434*
X0198Y0143*
X01984Y01427*
X01989Y01426*
X01991Y01427*
X01995Y01425*
X01996Y01423*
X01997Y0142*
X02Y01415*
X02004Y01413*
X02009Y01412*
X02014Y01413*
X02019Y01415*
X02021Y0142*
X02022Y01424*
X02023Y01425*
X02027Y01427*
X02029Y01427*
X02034Y01428*
X02038Y01431*
X02041Y01435*
X02042Y01439*
X02042Y0144*
X02047Y01443*
X02049Y01442*
X02054Y01443*
X02058Y01446*
X02061Y0145*
X02061Y01452*
X02063Y01455*
X02066Y01455*
X02068Y01455*
X02073Y01456*
X02078Y01459*
X0208Y01463*
X02081Y01468*
X0208Y01473*
X02078Y01478*
X02073Y0148*
X02068Y01481*
G37*
G36*
X04106Y01485D02*
X04101Y01484D01*
X04096Y01481*
X04093Y01477*
X04093Y01476*
X04091Y01472*
X04088Y01472*
X04086Y01473*
X04081Y01472*
X04077Y01469*
X04074Y01464*
X04073Y01461*
X04072Y01459*
X04068Y01457*
X04066Y01457*
X04061Y01456*
X04057Y01453*
X04054Y01449*
X04054Y01448*
X04052Y01444*
X04048Y01445*
X04047Y01445*
X04042Y01444*
X04039Y01448*
X04039Y01448*
X04036Y01453*
X04032Y01456*
X04027Y01457*
X04025Y01456*
X04021Y01459*
X0402Y0146*
X04019Y01464*
X04017Y01468*
X04012Y01471*
X04007Y01472*
X04002Y01471*
X03998Y01468*
X03995Y01464*
X03994Y01459*
X03995Y01454*
X03994Y01453*
X03991Y01451*
X0399Y01452*
X03985Y01453*
X03979Y01452*
X03975Y01449*
X03972Y01445*
X03971Y0144*
X03972Y01434*
X03975Y0143*
X03979Y01427*
X03985Y01426*
X0399Y01427*
X03994Y0143*
X03997Y01434*
X03998Y0144*
X03997Y01444*
X03998Y01446*
X04001Y01447*
X04002Y01446*
X04007Y01445*
X04009Y01446*
X04013Y01444*
X04014Y01442*
X04015Y01438*
X04018Y01434*
X04022Y01431*
X04027Y0143*
X04032Y01431*
X04034Y01427*
X04034Y01427*
X04037Y01422*
X04042Y01419*
X04047Y01418*
X04052Y01419*
X04056Y01422*
X04059Y01427*
X04059Y01428*
X04061Y01431*
X04064Y01431*
X04066Y01431*
X04071Y01432*
X04076Y01435*
X04079Y01439*
X04079Y01443*
X0408Y01444*
X04084Y01446*
X04086Y01446*
X04091Y01447*
X04095Y0145*
X04098Y01454*
X04098Y01456*
X041Y01459*
X04104Y01459*
X04106Y01459*
X04111Y0146*
X04115Y01463*
X04118Y01467*
X04119Y01472*
X04118Y01477*
X04115Y01481*
X04111Y01484*
X04106Y01485*
G37*
G36*
X01685Y01553D02*
X01682Y01552D01*
X01676Y01548*
X01672Y01542*
X01671Y0154*
X01685*
Y01553*
G37*
G36*
X01695D02*
Y0154D01*
X01708*
X01707Y01542*
X01703Y01548*
X01697Y01552*
X01695Y01553*
G37*
G36*
X0098Y0157D02*
X00966D01*
X00967Y01567*
X00971Y01561*
X00977Y01557*
X0098Y01556*
Y0157*
G37*
G36*
X0367Y01825D02*
X03656D01*
X03657Y01822*
X03658Y01821*
X03413Y01576*
X03411Y01573*
X0341Y0157*
Y01541*
X03406Y01538*
X03402Y01532*
X03401Y0153*
X03438*
X03437Y01532*
X03433Y01538*
X03429Y01541*
Y01566*
X0367Y01807*
Y01825*
G37*
G36*
X03438Y0152D02*
X03425D01*
Y01506*
X03427Y01507*
X03433Y01511*
X03437Y01517*
X03438Y0152*
G37*
G36*
X01545Y01544D02*
X01539Y01543D01*
X01535Y0154*
X01532Y01535*
X01531Y0153*
X01532Y01525*
X01535Y01521*
X01539Y01518*
X01545Y01517*
X0155Y01518*
X01554Y01521*
X01557Y01525*
X01558Y0153*
X01557Y01535*
X01554Y0154*
X0155Y01543*
X01545Y01544*
G37*
G36*
X01384Y01551D02*
X01379Y0155D01*
X01374Y01547*
X01372Y01543*
X01371Y01538*
X01372Y01533*
X01374Y01528*
X01379Y01525*
X01384Y01524*
X01389Y01525*
X01393Y01528*
X01396Y01533*
X01397Y01538*
X01396Y01543*
X01393Y01547*
X01389Y0155*
X01384Y01551*
G37*
G36*
X04184Y01489D02*
X04179Y01488D01*
X04175Y01485*
X04172Y01481*
X04171Y01476*
X04172Y01471*
X04175Y01466*
X04179Y01464*
X04184Y01463*
X04189Y01464*
X04194Y01466*
X04197Y01471*
X04198Y01476*
X04197Y01481*
X04194Y01485*
X04189Y01488*
X04184Y01489*
G37*
G36*
X04785Y01403D02*
X04779Y01402D01*
X04775Y01399*
X04772Y01395*
X04771Y0139*
X04772Y01384*
X04775Y0138*
X04779Y01377*
X04785Y01376*
X0479Y01377*
X04794Y0138*
X04797Y01384*
X04798Y0139*
X04797Y01395*
X04794Y01399*
X0479Y01402*
X04785Y01403*
G37*
G36*
X017Y01435D02*
X01686D01*
X01687Y01432*
X01691Y01426*
X01697Y01422*
X017Y01421*
Y01435*
G37*
G36*
X01723D02*
X0171D01*
Y01421*
X01712Y01422*
X01718Y01426*
X01722Y01432*
X01723Y01435*
G37*
G36*
X01195Y01353D02*
Y0134D01*
X01208*
X01207Y01342*
X01203Y01348*
X01197Y01352*
X01195Y01353*
G37*
G36*
X01185Y0133D02*
X01171D01*
X01172Y01327*
X01176Y01321*
X01182Y01317*
X01185Y01316*
Y0133*
G37*
G36*
X01208D02*
X01195D01*
Y01316*
X01197Y01317*
X01203Y01321*
X01207Y01327*
X01208Y0133*
G37*
G36*
X01185Y01353D02*
X01182Y01352D01*
X01176Y01348*
X01172Y01342*
X01171Y0134*
X01185*
Y01353*
G37*
G36*
X0475Y01478D02*
X04744Y01477D01*
X0474Y01474*
X04737Y0147*
X04736Y01465*
X04737Y01459*
X0474Y01455*
X04744Y01452*
X0475Y01451*
X04755Y01452*
X04759Y01455*
X04762Y01459*
X04763Y01465*
X04762Y0147*
X04759Y01474*
X04755Y01477*
X0475Y01478*
G37*
G36*
X01891Y01486D02*
X01886Y01485D01*
X01882Y01482*
X01879Y01478*
X01878Y01473*
X01879Y01468*
X01882Y01464*
X01883Y01463*
X01883Y01458*
X01882Y01457*
X01879Y01455*
X01875Y01458*
X0187Y01459*
X0186*
X0186Y01459*
X01855Y0146*
X01849Y01459*
X01844Y01455*
X0184Y0145*
X01839Y01445*
X0184Y01439*
X01844Y01434*
X01849Y0143*
X01855Y01429*
X0186Y0143*
X0186Y0143*
X01864*
X01865Y01429*
X01865Y01429*
X01869Y01424*
X01874Y0142*
X0188Y01419*
X01885Y0142*
X0189Y01424*
X01894Y01429*
Y01429*
X01895Y0143*
X01899*
X01899Y0143*
X01905Y01429*
X0191Y0143*
X01915Y01434*
X01919Y01439*
X0192Y01445*
X01919Y0145*
X01915Y01455*
X0191Y01459*
X01905Y0146*
X01903Y0146*
X01902Y01462*
X01901Y01464*
X01903Y01468*
X01904Y01473*
X01903Y01478*
X019Y01482*
X01896Y01485*
X01891Y01486*
G37*
G36*
X02147Y01485D02*
X02142Y01484D01*
X02138Y01481*
X02135Y01477*
X02134Y01472*
X02135Y01467*
X02138Y01463*
X02142Y0146*
X02147Y01459*
X02152Y0146*
X02156Y01463*
X02159Y01467*
X0216Y01472*
X02159Y01477*
X02156Y01481*
X02152Y01484*
X02147Y01485*
G37*
G36*
X02285Y01473D02*
X0228Y01472D01*
X02275Y01469*
X02273Y01465*
X02271Y0146*
X02273Y01455*
X02275Y0145*
X0228Y01448*
X02285Y01447*
X0229Y01448*
X02294Y0145*
X02297Y01455*
X02297Y01455*
X02302*
X02302Y01454*
X02305Y0145*
X02309Y01447*
X02315Y01446*
X0232Y01447*
X02324Y0145*
X02327Y01454*
X02328Y0146*
X02327Y01465*
X02324Y01469*
X0232Y01472*
X02315Y01473*
X02309Y01472*
X02305Y01469*
X02302Y01465*
X02302Y01464*
X02297*
X02297Y01465*
X02294Y01469*
X0229Y01472*
X02285Y01473*
G37*
G36*
X0136Y01509D02*
X01352Y01508D01*
X01345Y01505*
X01339Y015*
X01334Y01494*
X01331Y01487*
X0133Y0148*
X01331Y01472*
X01334Y01465*
X01339Y01459*
X01345Y01454*
X01352Y01451*
X0136Y0145*
X01367Y01451*
X01368Y01452*
X01368Y01451*
X01372Y01448*
X01371Y01445*
X01372Y01439*
X01375Y01435*
X01379Y01432*
X01385Y01431*
X0139Y01432*
X01394Y01435*
X01397Y01439*
X01398Y01445*
X01397Y0145*
X01394Y01454*
X0139Y01457*
X01386Y01458*
X01384Y01461*
X01383Y01463*
X01385Y01465*
X01388Y01472*
X01389Y0148*
X01388Y01487*
X01385Y01494*
X0138Y015*
X01374Y01505*
X01367Y01508*
X0136Y01509*
G37*
G36*
X02251Y01458D02*
X02246Y01457D01*
X02242Y01454*
X02239Y0145*
X02238Y01445*
X02239Y01439*
X02242Y01435*
X02246Y01432*
X02251Y01431*
X02256Y01432*
X0226Y01435*
X02263Y01439*
X02264Y01445*
X02263Y0145*
X0226Y01454*
X02256Y01457*
X02251Y01458*
G37*
G36*
X01709Y0153D02*
X01671D01*
X01672Y01527*
X01676Y01521*
X01682Y01517*
X0169Y01515*
X01694Y01511*
Y01456*
X01691Y01453*
X01687Y01447*
X01686Y01445*
X01723*
X01722Y01447*
X01718Y01453*
X01715Y01456*
Y0152*
X01714Y01523*
X01712Y01527*
X01709Y0153*
G37*
G36*
X04188Y01608D02*
X04182Y01607D01*
X04177Y01603*
X04174Y01598*
X04172Y01592*
X04174Y01586*
X04177Y01581*
X04182Y01578*
X04188Y01576*
X04194Y01578*
X04199Y01581*
X04203Y01586*
X04204Y01592*
X04203Y01598*
X04199Y01603*
X04194Y01607*
X04188Y01608*
G37*
G36*
X04239D02*
X04233Y01607D01*
X04228Y01603*
X04225Y01598*
X04224Y01592*
X04225Y01586*
X04228Y01581*
X04233Y01578*
X04239Y01576*
X04245Y01578*
X04251Y01581*
X04254Y01586*
X04255Y01592*
X04254Y01598*
X04251Y01603*
X04245Y01607*
X04239Y01608*
G37*
G36*
X04291D02*
X04285Y01607D01*
X04279Y01603*
X04276Y01598*
X04275Y01592*
X04276Y01586*
X04279Y01581*
X04285Y01578*
X04291Y01576*
X04297Y01578*
X04302Y01581*
X04305Y01586*
X04306Y01592*
X04305Y01598*
X04302Y01603*
X04297Y01607*
X04291Y01608*
G37*
G36*
X04137D02*
X04131Y01607D01*
X04126Y01603*
X04122Y01598*
X04121Y01592*
X04122Y01586*
X04126Y01581*
X04131Y01578*
X04137Y01576*
X04143Y01578*
X04148Y01581*
X04152Y01586*
X04153Y01592*
X04152Y01598*
X04148Y01603*
X04143Y01607*
X04137Y01608*
G37*
G36*
X03983D02*
X03977Y01607D01*
X03972Y01603*
X03969Y01598*
X03968Y01592*
X03969Y01586*
X03972Y01581*
X03977Y01578*
X03983Y01576*
X0399Y01578*
X03995Y01581*
X03998Y01586*
X03999Y01592*
X03998Y01598*
X03995Y01603*
X0399Y01607*
X03983Y01608*
G37*
G36*
X04035D02*
X04029Y01607D01*
X04023Y01603*
X0402Y01598*
X04019Y01592*
X0402Y01586*
X04023Y01581*
X04029Y01578*
X04035Y01576*
X04041Y01578*
X04046Y01581*
X04049Y01586*
X0405Y01592*
X04049Y01598*
X04046Y01603*
X04041Y01607*
X04035Y01608*
G37*
G36*
X04086D02*
X0408Y01607D01*
X04075Y01603*
X04071Y01598*
X0407Y01592*
X04071Y01586*
X04075Y01581*
X0408Y01578*
X04086Y01576*
X04092Y01578*
X04097Y01581*
X041Y01586*
X04102Y01592*
X041Y01598*
X04097Y01603*
X04092Y01607*
X04086Y01608*
G37*
G36*
X01844Y01655D02*
X01838Y01654D01*
X01833Y01651*
X01829Y01646*
X01828Y0164*
X01829Y01633*
X01833Y01628*
X01838Y01625*
X01844Y01624*
X0185Y01625*
X01855Y01628*
X01858Y01633*
X01859Y0164*
X01858Y01646*
X01855Y01651*
X0185Y01654*
X01844Y01655*
G37*
G36*
X01895D02*
X01889Y01654D01*
X01884Y01651*
X0188Y01646*
X01879Y0164*
X0188Y01633*
X01884Y01628*
X01889Y01625*
X01895Y01624*
X01901Y01625*
X01906Y01628*
X01909Y01633*
X01911Y0164*
X01909Y01646*
X01906Y01651*
X01901Y01654*
X01895Y01655*
G37*
G36*
X01946D02*
X0194Y01654D01*
X01935Y01651*
X01931Y01646*
X0193Y0164*
X01931Y01633*
X01935Y01628*
X0194Y01625*
X01946Y01624*
X01952Y01625*
X01957Y01628*
X01961Y01633*
X01962Y0164*
X01961Y01646*
X01957Y01651*
X01952Y01654*
X01946Y01655*
G37*
G36*
X0099Y01593D02*
Y0158D01*
X01003*
X01002Y01582*
X00998Y01588*
X00992Y01592*
X0099Y01593*
G37*
G36*
X04342Y01608D02*
X04336Y01607D01*
X04331Y01603*
X04327Y01598*
X04326Y01592*
X04327Y01586*
X04331Y01581*
X04336Y01578*
X04342Y01576*
X04348Y01578*
X04353Y01581*
X04356Y01586*
X04358Y01592*
X04356Y01598*
X04353Y01603*
X04348Y01607*
X04342Y01608*
G37*
G36*
X04393D02*
X04387Y01607D01*
X04382Y01603*
X04378Y01598*
X04377Y01592*
X04378Y01586*
X04382Y01581*
X04387Y01578*
X04393Y01576*
X04399Y01578*
X04404Y01581*
X04408Y01586*
X04409Y01592*
X04408Y01598*
X04404Y01603*
X04399Y01607*
X04393Y01608*
G37*
G36*
X0098Y01593D02*
X00977Y01592D01*
X00971Y01588*
X00967Y01582*
X00966Y0158*
X0098*
Y01593*
G37*
G36*
X03932Y01608D02*
X03926Y01607D01*
X03921Y01603*
X03918Y01598*
X03917Y01592*
X03918Y01586*
X03921Y01581*
X03926Y01578*
X03932Y01576*
X03938Y01578*
X03943Y01581*
X03947Y01586*
X03948Y01592*
X03947Y01598*
X03943Y01603*
X03938Y01607*
X03932Y01608*
G37*
G36*
X01946Y01604D02*
X0194Y01603D01*
X01935Y01599*
X01931Y01594*
X0193Y01588*
X01931Y01582*
X01935Y01577*
X0194Y01574*
X01946Y01573*
X01952Y01574*
X01957Y01577*
X01961Y01582*
X01962Y01588*
X01961Y01594*
X01957Y01599*
X01952Y01603*
X01946Y01604*
G37*
G36*
X01997D02*
X01991Y01603D01*
X01986Y01599*
X01983Y01594*
X01981Y01588*
X01983Y01582*
X01986Y01577*
X01991Y01574*
X01997Y01573*
X02003Y01574*
X02008Y01577*
X02012Y01582*
X02013Y01588*
X02012Y01594*
X02008Y01599*
X02003Y01603*
X01997Y01604*
G37*
G36*
X02048D02*
X02042Y01603D01*
X02037Y01599*
X02034Y01594*
X02033Y01588*
X02034Y01582*
X02037Y01577*
X02042Y01574*
X02048Y01573*
X02054Y01574*
X0206Y01577*
X02063Y01582*
X02064Y01588*
X02063Y01594*
X0206Y01599*
X02054Y01603*
X02048Y01604*
G37*
G36*
X01895D02*
X01889Y01603D01*
X01884Y01599*
X0188Y01594*
X01879Y01588*
X0188Y01582*
X01884Y01577*
X01889Y01574*
X01895Y01573*
X01901Y01574*
X01906Y01577*
X01909Y01582*
X01911Y01588*
X01909Y01594*
X01906Y01599*
X01901Y01603*
X01895Y01604*
G37*
G36*
X01003Y0157D02*
X0099D01*
Y01556*
X00992Y01557*
X00998Y01561*
X01002Y01567*
X01003Y0157*
G37*
G36*
X01245Y01564D02*
X01242Y01564D01*
X01087*
X01085Y01564*
X01069Y01562*
X01054Y01558*
X0104Y01551*
X01028Y01541*
X01019Y01529*
X01011Y01515*
X01007Y015*
X01005Y01485*
X01007Y01469*
X01011Y01454*
X01019Y0144*
X01028Y01428*
X0104Y01419*
X01054Y01411*
X01069Y01407*
X01085Y01405*
X01087Y01405*
X01242*
X01245Y01405*
X0126Y01407*
X01275Y01411*
X01289Y01419*
X01301Y01428*
X01311Y0144*
X01318Y01454*
X01322Y01469*
X01324Y01485*
X01322Y015*
X01318Y01515*
X01311Y01529*
X01301Y01541*
X01289Y01551*
X01275Y01558*
X0126Y01562*
X01245Y01564*
G37*
G36*
X01844Y01604D02*
X01838Y01603D01*
X01833Y01599*
X01829Y01594*
X01828Y01588*
X01829Y01582*
X01833Y01577*
X01838Y01574*
X01844Y01573*
X0185Y01574*
X01855Y01577*
X01858Y01582*
X01859Y01588*
X01858Y01594*
X01855Y01599*
X0185Y01603*
X01844Y01604*
G37*
G36*
X02304D02*
X02298Y01603D01*
X02293Y01599*
X0229Y01594*
X02289Y01588*
X0229Y01582*
X02293Y01577*
X02298Y01574*
X02304Y01573*
X0231Y01574*
X02315Y01577*
X02319Y01582*
X0232Y01588*
X02319Y01594*
X02315Y01599*
X0231Y01603*
X02304Y01604*
G37*
G36*
X02355D02*
X02349Y01603D01*
X02344Y01599*
X02341Y01594*
X0234Y01588*
X02341Y01582*
X02344Y01577*
X02349Y01574*
X02355Y01573*
X02362Y01574*
X02367Y01577*
X0237Y01582*
X02371Y01588*
X0237Y01594*
X02367Y01599*
X02362Y01603*
X02355Y01604*
G37*
G36*
X03881Y01608D02*
X03875Y01607D01*
X0387Y01603*
X03867Y01598*
X03865Y01592*
X03867Y01586*
X0387Y01581*
X03875Y01578*
X03881Y01576*
X03887Y01578*
X03892Y01581*
X03896Y01586*
X03897Y01592*
X03896Y01598*
X03892Y01603*
X03887Y01607*
X03881Y01608*
G37*
G36*
X02253Y01604D02*
X02247Y01603D01*
X02242Y01599*
X02239Y01594*
X02237Y01588*
X02239Y01582*
X02242Y01577*
X02247Y01574*
X02253Y01573*
X02259Y01574*
X02264Y01577*
X02268Y01582*
X02269Y01588*
X02268Y01594*
X02264Y01599*
X02259Y01603*
X02253Y01604*
G37*
G36*
X021D02*
X02094Y01603D01*
X02088Y01599*
X02085Y01594*
X02084Y01588*
X02085Y01582*
X02088Y01577*
X02094Y01574*
X021Y01573*
X02106Y01574*
X02111Y01577*
X02114Y01582*
X02115Y01588*
X02114Y01594*
X02111Y01599*
X02106Y01603*
X021Y01604*
G37*
G36*
X02151D02*
X02145Y01603D01*
X0214Y01599*
X02136Y01594*
X02135Y01588*
X02136Y01582*
X0214Y01577*
X02145Y01574*
X02151Y01573*
X02157Y01574*
X02162Y01577*
X02165Y01582*
X02167Y01588*
X02165Y01594*
X02162Y01599*
X02157Y01603*
X02151Y01604*
G37*
G36*
X02202D02*
X02196Y01603D01*
X02191Y01599*
X02187Y01594*
X02186Y01588*
X02187Y01582*
X02191Y01577*
X02196Y01574*
X02202Y01573*
X02208Y01574*
X02213Y01577*
X02217Y01582*
X02218Y01588*
X02217Y01594*
X02213Y01599*
X02208Y01603*
X02202Y01604*
G37*
G36*
X0188Y02908D02*
X01874Y02907D01*
X0187Y02904*
X01867Y029*
X01866Y02895*
X01867Y02889*
X0187Y02885*
X01874Y02882*
X0188Y02881*
X01885Y02882*
X01889Y02885*
X01892Y02889*
X01893Y02895*
X01892Y029*
X01889Y02904*
X01885Y02907*
X0188Y02908*
G37*
G36*
X03062Y02955D02*
X03027D01*
Y0292*
X03062*
Y02955*
G37*
G36*
X03107D02*
X03072D01*
Y0292*
X03107*
Y02955*
G37*
G36*
X04647Y03021D02*
X04632Y03019D01*
X04617Y03015*
X04603Y03008*
X04591Y02998*
X04581Y02986*
X04574Y02972*
X04569Y02957*
X04568Y02942*
X04569Y02926*
X04574Y02911*
X04581Y02897*
X04591Y02885*
X04603Y02876*
X04617Y02868*
X04632Y02864*
X04647Y02862*
X04663Y02864*
X04678Y02868*
X04691Y02876*
X04703Y02885*
X04713Y02897*
X04721Y02911*
X04725Y02926*
X04727Y02942*
X04725Y02957*
X04721Y02972*
X04713Y02986*
X04703Y02998*
X04691Y03008*
X04678Y03015*
X04663Y03019*
X04647Y03021*
G37*
G36*
X02085Y02969D02*
X02069Y02967D01*
X02054Y02963*
X0204Y02956*
X02028Y02946*
X02019Y02934*
X02011Y0292*
X02007Y02905*
X02005Y0289*
X02007Y02874*
X02011Y02859*
X02019Y02845*
X02028Y02833*
X0204Y02824*
X02054Y02816*
X02069Y02812*
X02085Y0281*
X021Y02812*
X02115Y02816*
X02129Y02824*
X02141Y02833*
X02151Y02845*
X02158Y02859*
X02162Y02874*
X02164Y0289*
X02162Y02905*
X02158Y0292*
X02151Y02934*
X02141Y02946*
X02129Y02956*
X02115Y02963*
X021Y02967*
X02085Y02969*
G37*
G36*
X02295Y03163D02*
X02289Y03162D01*
X02285Y03159*
X02282Y03155*
X02281Y0315*
X02282Y03144*
X02285Y0314*
X02289Y03137*
X02295Y03136*
X02295Y03136*
X02325Y03107*
X02323Y03101*
X0232Y03099*
X02317Y03095*
X02316Y0309*
X02317Y03084*
X0232Y0308*
X02324Y03077*
X0233Y03076*
X02335Y03077*
X02339Y0308*
X02341Y03083*
X02347Y03085*
X02464Y02967*
Y02872*
X02465Y02868*
X02467Y02865*
X02649Y02683*
Y02275*
X0265Y02271*
X02652Y02267*
X02902Y02018*
X02902Y02014*
X02905Y0201*
X02907Y02009*
X02908Y02006*
X02906Y02001*
X02902Y02*
X02365Y02537*
Y02541*
X02367Y02544*
X02368Y0255*
X02367Y02555*
X02364Y02559*
X0236Y02562*
X02355Y02563*
X02349Y02562*
X02345Y02559*
X02342Y02555*
X02341Y0255*
X02342Y02544*
X02344Y02541*
Y02533*
X02345Y02529*
X02347Y02526*
X02904Y01969*
X02907Y01967*
X02907*
X02909Y01962*
X02909Y01961*
X02908Y01956*
X02909Y01951*
X02912Y01947*
X02916Y01944*
X02921Y01943*
X02926Y01944*
X0293Y01947*
X02933Y01951*
X02934Y01956*
X02933Y01961*
X02932Y01963*
X02931Y01966*
X02933Y01969*
X02934Y01969*
X02961Y01996*
X02963Y02*
X02964Y02004*
Y02042*
X02963Y02046*
X02961Y02049*
X02943Y02067*
X0294Y02069*
X02938Y02069*
X02935Y02072*
X0293Y02073*
X02924Y02072*
X0292Y02069*
X02917Y02065*
X02916Y0206*
X02917Y02054*
X0292Y0205*
X02923Y02048*
X02924Y02045*
X02924Y02042*
X02922Y0204*
X02922Y02036*
X02922Y02036*
X02918Y02033*
X02917Y02032*
X02916Y02033*
X0267Y02279*
Y02687*
X02669Y02691*
X02667Y02694*
X02546Y02815*
X02548Y0282*
X02559Y02817*
X02575Y02815*
X0259Y02817*
X02605Y02821*
X02619Y02829*
X02631Y02838*
X02641Y0285*
X02648Y02864*
X02652Y02879*
X02654Y02895*
X02652Y0291*
X02648Y02925*
X02641Y02939*
X02631Y02951*
X02619Y02961*
X02605Y02968*
X0259Y02972*
X02575Y02974*
X02559Y02972*
X02544Y02968*
X0253Y02961*
X02518Y02951*
X02509Y02939*
X02501Y02925*
X02497Y0291*
X02495Y02895*
X02497Y02879*
X025Y02868*
X02495Y02866*
X02485Y02877*
Y02971*
X02484Y02975*
X02482Y02978*
X02307Y03153*
X02307Y03155*
X02304Y03159*
X023Y03162*
X02295Y03163*
G37*
G36*
X03067Y02893D02*
X03058Y02892D01*
X0305Y02889*
X03043Y02883*
X03038Y02876*
X03034Y02868*
X03033Y0286*
X03034Y02851*
X03038Y02843*
X03043Y02836*
X0305Y0283*
X03058Y02827*
X03067Y02826*
X03076Y02827*
X03084Y0283*
X03091Y02836*
X03096Y02843*
X031Y02851*
X03101Y0286*
X031Y02868*
X03096Y02876*
X03091Y02883*
X03084Y02889*
X03076Y02892*
X03067Y02893*
G37*
G36*
X0133Y03059D02*
X01318Y03057D01*
X01307Y03053*
X01298Y03046*
X01291Y03037*
X01287Y03026*
X01285Y03015*
X01287Y03003*
X01291Y02992*
X01298Y02983*
X01307Y02976*
X01318Y02972*
X0133Y0297*
X01341Y02972*
X01352Y02976*
X01361Y02983*
X01368Y02992*
X01372Y03003*
X01374Y03015*
X01372Y03026*
X01368Y03037*
X01361Y03046*
X01352Y03053*
X01341Y03057*
X0133Y03059*
G37*
G36*
X04325Y03013D02*
X04319Y03012D01*
X04315Y03009*
X04312Y03005*
X04311Y03*
X04312Y02994*
X04315Y0299*
X04319Y02987*
X04325Y02986*
X0433Y02987*
X04334Y0299*
X04337Y02994*
X04338Y03*
X04337Y03005*
X04334Y03009*
X0433Y03012*
X04325Y03013*
G37*
G36*
X02835Y03043D02*
X02829Y03042D01*
X02825Y03039*
X02822Y03035*
X02821Y0303*
X02822Y03024*
X02825Y0302*
X02829Y03017*
X02835Y03016*
X0284Y03017*
X02844Y0302*
X02847Y03024*
X02848Y0303*
X02847Y03035*
X02844Y03039*
X0284Y03042*
X02835Y03043*
G37*
G36*
X037Y03049D02*
X03565D01*
X03561Y03048*
X03558Y03046*
X03305Y02793*
X03303Y0279*
X03302Y02786*
Y02729*
X03302Y02729*
X03299Y02725*
X03298Y0272*
X03299Y02714*
X03302Y0271*
X03302Y0271*
Y02453*
X03303Y02449*
X03301Y02444*
X033Y02444*
X033Y02444*
X03297Y0244*
X03296Y02435*
X03297Y02429*
X033Y02425*
X03304Y02422*
X0331Y02421*
X03315Y02422*
X03319Y02425*
X03321Y02428*
X03327Y0243*
X03402Y02354*
X03401Y0235*
X03402Y02344*
X03405Y0234*
X03409Y02337*
X03415Y02336*
X03415Y02336*
X03428Y02323*
X03431Y02321*
X03434Y02321*
X03561*
X03566Y02316*
X03569Y02314*
X03572Y02314*
X03628*
X03632Y02314*
X03635Y02316*
X03655Y02337*
X03659Y02336*
X0366Y02335*
Y02165*
X03661Y02161*
X03663Y02158*
X03938Y01883*
X03937Y01882*
Y01867*
X03938Y01864*
X0394Y01861*
X04003Y01798*
X04006Y01796*
X04009Y01795*
X0422*
X04223Y01796*
X04226Y01798*
X04394Y01966*
X04395Y01966*
X044Y01967*
X04404Y0197*
X04407Y01974*
X04408Y0198*
X04407Y01985*
X04404Y01989*
X044Y01992*
X04395Y01993*
X04389Y01992*
X04385Y01989*
X04382Y01985*
X04381Y0198*
X04381Y01979*
X04216Y01814*
X04013*
X0399Y01837*
X03992Y01842*
X03993Y01842*
X03997Y01845*
X04Y01849*
X04001Y01855*
X04Y01858*
X04Y01858*
X04003Y01862*
X04004Y01862*
X04007Y01861*
X04009Y01862*
X04012Y01862*
X04014Y01858*
X04015Y01857*
X04018Y01853*
X04022Y0185*
X04027Y01849*
X04032Y0185*
X04036Y01853*
X04039Y01857*
X0404Y01862*
X04039Y01867*
X04036Y01871*
X04032Y01874*
X04029Y01875*
X04027Y0188*
X04053Y01906*
X04232*
X04236Y01906*
X04239Y01908*
X04251Y0192*
X04253Y01923*
X04254Y01927*
Y0283*
X04253Y02834*
X04251Y02837*
X04195Y02893*
X04198Y02897*
X04206Y02911*
X0421Y02926*
X04212Y02942*
X0421Y02957*
X04206Y02972*
X04198Y02986*
X04188Y02998*
X04176Y03008*
X04163Y03015*
X04148Y03019*
X04132Y03021*
X04117Y03019*
X04102Y03015*
X04088Y03008*
X04076Y02998*
X04066Y02986*
X04059Y02972*
X04054Y02957*
X04053Y02942*
X04054Y02926*
X04059Y02911*
X04066Y02897*
X04076Y02885*
X04088Y02876*
X04102Y02868*
X04117Y02864*
X04132Y02862*
X04148Y02864*
X04163Y02868*
X04176Y02876*
X04181Y02879*
X04233Y02826*
Y02352*
X04228Y0235*
X0369Y02888*
X03693Y02892*
X03701Y02906*
X03705Y02921*
X03707Y02937*
X03705Y02952*
X03701Y02967*
X03693Y02981*
X03683Y02993*
X03671Y03003*
X03658Y0301*
X03643Y03014*
X03627Y03016*
X03612Y03014*
X03597Y0301*
X03583Y03003*
X03571Y02993*
X03561Y02981*
X03554Y02967*
X03549Y02952*
X03548Y02937*
X03549Y02921*
X03554Y02906*
X03561Y02892*
X03571Y0288*
X03583Y02871*
X03597Y02863*
X03612Y02859*
X03627Y02857*
X03643Y02859*
X03658Y02863*
X03671Y02871*
X03676Y02874*
X04214Y02335*
Y01943*
X04212Y0194*
X04211Y01935*
X04212Y01931*
X04209Y01926*
X04048*
X04044Y01925*
X04041Y01923*
X04006Y01888*
X04002Y01887*
X03998Y01884*
X03995Y0188*
X03994Y01875*
X03995Y01871*
X03995Y01871*
X03991Y01867*
X03991Y01867*
X03988Y01868*
X03982Y01867*
X0398Y01865*
X03976Y01869*
X03977Y01869*
X03978Y01875*
X03977Y0188*
X03974Y01884*
X0397Y01887*
X03965Y01888*
X03963Y01887*
X03958Y01888*
X03956Y01891*
X03956Y01891*
X03679Y02168*
Y0234*
X03679Y0234*
X03682Y02344*
X03683Y0235*
X03682Y02355*
X03679Y02359*
X03675Y02362*
X0367Y02363*
X03664Y02362*
X0366Y02359*
X03658Y02356*
X03657Y02356*
X03652*
X03649Y02355*
X03647Y02354*
X03645Y02354*
X03643Y02355*
X03641Y02356*
X03639Y02359*
X03635Y02362*
X0363Y02363*
X03624Y02362*
X03622Y0236*
X03619Y0236*
X03616Y02361*
X03614Y02364*
X0361Y02367*
X03605Y02368*
X03604Y02368*
X03451Y02521*
X03448Y02523*
X03445Y02524*
X03419*
X03419Y02524*
X03415Y02527*
X0341Y02528*
X03404Y02527*
X034Y02524*
X03397Y0252*
X03396Y02515*
X03397Y02509*
X034Y02505*
X03403Y02503*
Y02502*
X03401Y02498*
X034Y02493*
X03401Y02487*
X03403Y02483*
X03408Y0248*
X03413Y02479*
X03418Y0248*
X0342Y02482*
X03535Y02367*
X03533Y02361*
X0353Y02359*
X03527Y02355*
X03526Y0235*
X03527Y02344*
X03528Y02344*
X03525Y02339*
X03438*
X03428Y02349*
X03428Y0235*
X03427Y02355*
X03424Y02359*
X03421Y0236*
X03421Y02361*
X03323Y02459*
X0332Y02461*
X0332Y02461*
Y0271*
X0332Y0271*
X03323Y02714*
X03324Y0272*
X03323Y02725*
X0332Y02729*
X0332Y02729*
Y02782*
X03568Y0303*
X03696*
X03746Y0298*
X03746Y0298*
X03747Y02974*
X0375Y0297*
X03754Y02967*
X0376Y02966*
X03765Y02967*
X03769Y0297*
X03772Y02974*
X03773Y0298*
X03772Y02985*
X03769Y02989*
X03765Y02992*
X0376Y02993*
X03759Y02993*
X03706Y03046*
X03703Y03048*
X037Y03049*
G37*
G36*
X01585Y03114D02*
X01166D01*
X01161Y03113*
X01156Y03109*
X01005Y02959*
X01002Y02954*
X01001Y02949*
Y01724*
X01002Y01718*
X01005Y01714*
X01042Y01677*
X01047Y01674*
X01052Y01673*
X01297*
X01661Y01308*
X0166Y01305*
X01661Y01298*
X01664Y01292*
X01667Y01287*
X01672Y01284*
X01678Y01281*
X01685Y0128*
X01691Y01281*
X01697Y01284*
X01702Y01287*
X01705Y01292*
X01708Y01298*
X01709Y01305*
X01708Y01311*
X01705Y01317*
X01702Y01322*
X01697Y01325*
X01691Y01328*
X01685Y01329*
X01681Y01328*
X01312Y01697*
X01308Y017*
X01302Y01701*
X01125*
X01122Y01706*
X01123Y0171*
X01122Y01715*
X01119Y01719*
X01117Y0172*
X01118Y01725*
X01765*
X0177Y01726*
X01774Y0173*
X0179Y01745*
X01795Y01744*
X01795Y01744*
Y01738*
X0161Y01553*
X01599*
X01599Y01554*
X01595Y01556*
X0159Y01557*
X01584Y01556*
X0158Y01554*
X01577Y01549*
X01576Y01544*
X01577Y01539*
X0158Y01535*
X01584Y01532*
X0159Y01531*
X01595Y01532*
X01599Y01535*
X01599Y01535*
X01614*
X01618Y01536*
X01621Y01538*
X01811Y01728*
X01813Y01731*
X01814Y01735*
Y01755*
X01814Y01755*
X01817Y01759*
X01818Y01765*
X01817Y0177*
X01814Y01774*
X01812Y01775*
X01813Y0178*
X02187*
X02192Y01781*
X02197Y01785*
X02327Y01915*
X02348Y01935*
X0239*
X02395Y01936*
X02399Y0194*
X02403Y01944*
X02404Y0195*
X02403Y01954*
X02405Y01959*
X02405Y01959*
X02592*
X02773Y01778*
X02773Y01778*
X02775Y01775*
X02779Y01772*
X02785Y01771*
X0279Y01772*
X02794Y01775*
X02797Y01779*
X02798Y01785*
X02797Y0179*
X02794Y01794*
X0279Y01797*
X02785Y01798*
X0278Y01797*
X02601Y01976*
X02598Y01978*
X02595Y01978*
X02591Y01978*
X02591Y01977*
X0228*
X02272Y01985*
X02274Y01989*
X02647*
X02838Y01798*
X02841Y01796*
X02845Y01795*
X03285*
X03288Y01796*
X03291Y01798*
X03391Y01898*
X03393Y01901*
X03394Y01905*
X03393Y01908*
X03391Y01911*
X03383Y01919*
X03383Y0192*
X03382Y01925*
X03379Y01929*
X03375Y01932*
X0337Y01933*
X03364Y01932*
X0336Y01929*
X03357Y01925*
X03356Y0192*
X03357Y01914*
X0336Y0191*
X03364Y01907*
X03367Y01907*
X03368Y01901*
X03331Y01864*
X03326Y01866*
X03325Y01868*
X03322Y01872*
X03318Y01875*
X03313Y01876*
X03308Y01875*
X03304Y01872*
X03301Y01868*
X033Y01863*
X03301Y01858*
X03304Y01854*
X03308Y01851*
X0331Y0185*
X03312Y01845*
X03281Y01814*
X03153*
X03152Y01819*
X03154Y0182*
X03157Y01824*
X03157Y01828*
X03158Y0183*
X03163Y01831*
X03164Y01831*
X03169Y01832*
X03174Y01835*
X03176Y01839*
X03177Y01844*
X03176Y01849*
X03174Y01854*
X03169Y01856*
X03167Y01857*
X03165Y01862*
X03167Y01864*
X03168Y0187*
X03167Y01875*
X03164Y01879*
X0316Y01882*
X03155Y01883*
X03149Y01882*
X03145Y01879*
X03142Y01875*
X03141Y0187*
X03142Y01864*
X03145Y0186*
X03149Y01857*
X03151Y01857*
X03153Y01851*
X03152Y01849*
X03151Y01846*
X0315Y01844*
X03146Y01842*
X03145Y01843*
X03139Y01842*
X03135Y01839*
X03132Y01835*
X03131Y0183*
X03132Y01824*
X03135Y0182*
X03137Y01819*
X03136Y01814*
X03115*
X03113Y01819*
X03115Y0182*
X03117Y01824*
X03118Y01829*
X03117Y01834*
X03115Y01838*
X0311Y01841*
X03105Y01842*
X031Y01841*
X03096Y01838*
X03093Y01834*
X03092Y01829*
X03093Y01824*
X03096Y0182*
X03097Y01819*
X03096Y01814*
X02938*
X02936Y01819*
X02958Y0184*
X0296Y01843*
X0296Y01846*
Y01862*
X03016Y01917*
X03264*
X03268Y01918*
X03271Y0192*
X03276Y01925*
X0332*
X0332Y01925*
X03324Y01922*
X0333Y01921*
X03335Y01922*
X03339Y01925*
X03342Y01929*
X03343Y01935*
X03342Y0194*
X03339Y01944*
X03335Y01947*
X0333Y01948*
X03324Y01947*
X0332Y01944*
X0332Y01944*
X03272*
X03269Y01943*
X03266Y01941*
X03261Y01936*
X03012*
X03008Y01935*
X03005Y01933*
X02948Y01876*
X02944Y01873*
X02925Y01893*
X02926Y01898*
X02929Y019*
X02932Y01904*
X02933Y0191*
X02932Y01915*
X02929Y01919*
X02925Y01922*
X0292Y01923*
X02914Y01922*
X0291Y01919*
X02908Y01916*
X02903Y01915*
X02731Y02086*
X02728Y02088*
X02725Y02089*
X02433*
X02301Y02221*
X02298Y02223*
X02295Y02224*
X02294*
X02294Y02224*
X0229Y02227*
X02289Y02227*
Y02232*
X0229Y02232*
X02294Y02235*
X02297Y02239*
X02298Y02245*
X02297Y0225*
X02294Y02254*
X0229Y02257*
X02285Y02258*
X02279Y02257*
X02275Y02254*
X02275Y02254*
X02273*
X0227Y02253*
X02267Y02251*
X0226Y02244*
X02258Y02241*
X02257Y02238*
Y02207*
X02258Y02204*
X0226Y02201*
X02432Y02029*
X0243Y02024*
X02273*
X02265Y02032*
X02262Y02034*
X02258Y02034*
X02199*
X02196Y02034*
X02193Y02032*
X02185Y02024*
X01359*
X01359Y02025*
Y02035*
X01359Y02035*
X01362Y02039*
X01363Y02045*
X01362Y0205*
X01359Y02054*
X01355Y02057*
X0135Y02058*
X01344Y02057*
X0134Y02054*
X01337Y0205*
X01336Y02045*
X01337Y02039*
X0134Y02035*
X0134Y02035*
Y02028*
X01333Y02021*
X01331Y02018*
X01331Y02018*
X01326Y02017*
X01326Y02018*
Y02115*
X01331Y02117*
X01335Y02116*
X0134Y02117*
X01344Y0212*
X01347Y02124*
X01348Y0213*
X01347Y02135*
X01344Y02139*
X0134Y02142*
X01335Y02143*
X01331Y02142*
X01326Y02144*
Y02178*
X01331Y02179*
X01331Y02178*
X01336Y02175*
X01341Y02174*
X01346Y02175*
X0135Y02178*
X01353Y02183*
X01354Y02188*
X01353Y02193*
X0135Y02197*
X01346Y022*
X01341Y02201*
X01336Y022*
X01331Y02197*
X01331Y02196*
X01326Y02198*
Y02637*
X01532Y02844*
X01536Y0284*
X0155Y02833*
X01565Y02828*
X01581Y02827*
X01596Y02828*
X01611Y02833*
X01625Y0284*
X01637Y0285*
X01647Y02862*
X01654Y02876*
X01658Y02891*
X0166Y02906*
X01658Y02922*
X01654Y02937*
X01647Y0295*
X01637Y02962*
X01625Y02972*
X01611Y02979*
X01596Y02984*
X01581Y02986*
X01565Y02984*
X0155Y02979*
X01536Y02972*
X01524Y02962*
X01515Y0295*
X01507Y02937*
X01503Y02922*
X01501Y02906*
X01503Y02891*
X01507Y02876*
X01515Y02862*
X01518Y02858*
X01308Y02648*
X01306Y02645*
X01305Y02641*
Y01948*
X01301Y01946*
X01251Y01996*
X01248Y01998*
X01245Y01999*
X01156*
X01153Y02003*
X01147Y02007*
X01145Y02008*
Y0199*
Y01971*
X01147Y01972*
X01153Y01976*
X01156Y0198*
X01241*
X0138Y01841*
X01383Y01839*
X01387Y01838*
X01394*
X01397Y01833*
X01396Y0183*
X01397Y01824*
X014Y0182*
X01404Y01817*
X0141Y01816*
X01415Y01817*
X01419Y0182*
X01423Y01818*
X01433Y01808*
X01436Y01806*
X0144Y01805*
X01446*
X01448Y01804*
X01474*
Y01799*
X01479*
Y01776*
X0148Y01776*
X01485Y01779*
X01488Y01781*
X01507*
X01509Y01779*
X01515Y01776*
X01516Y01776*
Y01799*
X01526*
Y01776*
X01527Y01776*
X01532Y01779*
X01535Y01781*
X01554*
X01557Y01779*
X01562Y01776*
X01563Y01776*
Y01799*
X01573*
Y01776*
X01574Y01776*
X0158Y01779*
X01582Y01781*
X01601*
X01604Y01779*
X01609Y01776*
X0161Y01776*
Y01799*
X01615*
Y01804*
X01641*
X01643Y01805*
X01658*
X01661Y01801*
X01667Y01797*
X0167Y01796*
Y01815*
Y01833*
X01667Y01832*
X01661Y01828*
X01658Y01824*
X01633*
Y01832*
X01635Y01834*
X01638Y0184*
X01638Y01841*
X01615*
Y01851*
X01638*
X01638Y01852*
X01635Y01857*
X01633Y0186*
Y01879*
X01635Y01882*
X01637Y01884*
X01642Y01886*
X0167Y01858*
X01673Y01856*
X01677Y01856*
X01692*
X01696Y01856*
X01699Y01858*
X017Y01859*
X01779*
X01781Y01857*
Y01852*
X01781Y01848*
X01783Y01845*
X01795Y01833*
X01798Y01831*
X01802Y0183*
X02132*
X02136Y01831*
X02139Y01833*
X02152Y01845*
X02159*
X02162Y01843*
X02167Y01842*
X02172Y01843*
X02177Y01846*
X0218Y01851*
X0218Y01851*
X02181Y01855*
X02186Y01854*
X02191Y01855*
X02196Y01858*
X02199Y01863*
X022Y01868*
X02199Y01873*
X02196Y01877*
X02191Y0188*
X02186Y01881*
X02181Y0188*
X02177Y01877*
X02174Y01873*
X02174Y01872*
X02172Y01868*
X02167Y01869*
X02162Y01868*
X0216Y01866*
X02156Y01867*
X02155Y01872*
X02156Y01873*
X02159Y01877*
X0216Y01882*
X02159Y01887*
X02156Y01891*
X02152Y01894*
X02147Y01895*
X02142Y01894*
X02138Y01891*
X02135Y01887*
X02134Y01882*
X02134Y01882*
X0213Y01878*
X02124Y01877*
X0212Y01874*
X02117Y0187*
X02116Y01865*
X02117Y01859*
X0212Y01856*
X02119Y01853*
X02118Y01851*
X02101*
X021Y01853*
X02099Y01856*
X02102Y01859*
X02103Y01865*
X02102Y0187*
X02099Y01874*
X02095Y01877*
X0209Y01878*
X02084Y01877*
X0208Y01874*
X02077Y0187*
X02076Y01865*
X02077Y01859*
X0208Y01856*
X02079Y01853*
X02078Y01851*
X02061*
X02061Y01851*
X02059Y01856*
X02061Y01858*
X02062Y01864*
X02061Y01869*
X02058Y01873*
X02054Y01876*
X02049Y01877*
X02047Y01877*
X02043Y0188*
X02042Y01885*
X02039Y01889*
X02035Y01892*
X0203Y01893*
X02024Y01892*
X0202Y01889*
X02017Y01885*
X02016Y0188*
X02017Y01874*
X0202Y0187*
X02024Y01867*
X0203Y01866*
X02031Y01867*
X02035Y01864*
X02036Y01858*
X02038Y01856*
X02036Y01851*
X02036Y01851*
X02001*
X02Y01853*
X01999Y01856*
X02002Y01859*
X02003Y01865*
X02002Y0187*
X01999Y01874*
X01995Y01877*
X0199Y01878*
X01984Y01877*
X0198Y01874*
X01977Y0187*
X01976Y01865*
X01977Y01859*
X0198Y01856*
X01979Y01853*
X01978Y01851*
X01961*
X0196Y01853*
X01959Y01856*
X01962Y01859*
X01963Y01865*
X01962Y0187*
X01959Y01874*
X01955Y01877*
X0195Y01878*
X01946Y01877*
X01943Y01881*
X01943Y01881*
X01944Y01886*
X01943Y01891*
X0194Y01896*
X01935Y01898*
X0193Y01899*
X01925Y01898*
X01921Y01896*
X01918Y01891*
X01917Y01886*
X01918Y01881*
X01921Y01877*
X01925Y01874*
X0193Y01873*
X01934Y01874*
X01937Y0187*
X01937Y0187*
X01936Y01865*
X01937Y01859*
X0194Y01856*
X01939Y01853*
X01938Y01851*
X01825*
X01822Y01856*
X01823Y0186*
X01822Y01865*
X01819Y01869*
X01815Y01872*
X0181Y01873*
X01804Y01872*
X01803Y01871*
X01799Y01869*
X01796Y01871*
X01791Y01876*
X01787Y01878*
X01783Y01879*
X01702*
X01698Y01884*
X01698Y01885*
Y01885*
X01709Y01896*
X0171Y01897*
X01788Y01976*
X02024*
X02027Y01971*
X02026Y01967*
X02027Y01962*
X0203Y01957*
X02034Y01955*
X02039Y01953*
X02045Y01955*
X02049Y01957*
X0205Y01959*
X02054Y01961*
X02056Y0196*
X02058Y01959*
X02061Y01959*
X02068*
X02068Y01959*
X02072Y01956*
X02077Y01955*
X02083Y01956*
X02087Y01959*
X02087Y01959*
X02199*
X02202Y0196*
X02205Y01962*
X02222Y01978*
X02227Y01976*
X02226Y01975*
X02227Y01969*
X0223Y01965*
X02234Y01962*
X0224Y01961*
X02245Y01962*
X02249Y01965*
X02252Y01969*
X02252Y01972*
X02258Y01974*
X0227Y01962*
X02273Y0196*
X02276Y01959*
X02325*
X02327Y01955*
X02307Y01934*
X02181Y01809*
X01802*
X01797Y01808*
X01792Y01804*
X01772Y01784*
X01769Y01779*
X01768Y01774*
Y01763*
X01759Y01754*
X01098*
X01094Y01757*
X01089Y0176*
X01084Y01761*
X01083*
X01053Y01791*
Y01988*
X01054Y0199*
X01058Y01994*
X01059Y02*
Y02025*
X01059Y02026*
X0106Y02031*
X01059Y02036*
X01059Y02037*
Y02056*
Y02104*
X01059Y02104*
X0106Y0211*
X01059Y02115*
X01056Y02119*
X01051Y02123*
X01046Y02124*
X0104Y02123*
X01036Y02119*
X01035Y02118*
X01034Y02118*
X01029Y0212*
Y02943*
X01172Y03085*
X01579*
X01721Y02943*
X01721Y02942*
X0172Y02936*
X01716Y02933*
X01589Y03059*
X01585Y03063*
X0158Y03064*
X0149*
X01484Y03063*
X0148Y03059*
X0124Y02819*
X01236Y02815*
X01235Y0281*
Y02761*
X01234Y0276*
X01231Y02755*
X0123Y0275*
X0123Y02746*
Y02723*
X0123Y0272*
X01231Y02714*
X01234Y02709*
X01239Y02706*
X01245Y02705*
X01248Y02705*
X01271*
X01275Y02705*
X0128Y02706*
X01285Y02709*
X01288Y02714*
X01289Y0272*
X01289Y02723*
Y02746*
X01289Y0275*
X01288Y02755*
X01285Y0276*
X0128Y02763*
X01275Y02764*
X01271Y02764*
X01264*
Y02804*
X01495Y03035*
X01574*
X01727Y02882*
X01724Y02879*
X01721Y02872*
X0172Y02865*
X01721Y02857*
X01724Y0285*
X01729Y02844*
X01735Y02839*
X01742Y02836*
X0175Y02835*
X01757Y02836*
X01764Y02839*
X0177Y02844*
X01775Y0285*
X01778Y02857*
X01779Y02865*
X01778Y02872*
X01775Y02879*
X0177Y02885*
X01764Y0289*
X01757Y02893*
X01756Y02893*
X01748Y02901*
X01751Y02905*
X01757Y02906*
X01761Y02908*
X0182Y02849*
Y02791*
X01821Y02786*
X01825Y02781*
X02348Y02258*
X02348Y02257*
X02347Y0225*
X02348Y02242*
X02351Y02235*
X02356Y02229*
X02362Y02224*
X02369Y02221*
X02376Y0222*
X02384Y02221*
X02391Y02224*
X02397Y02229*
X02402Y02235*
X02405Y02242*
X02406Y0225*
X02405Y02257*
X02402Y02264*
X02397Y0227*
X02391Y02275*
X02384Y02278*
X02376Y02279*
X02369Y02278*
X02368Y02278*
X01849Y02797*
Y02855*
X01848Y0286*
X01844Y02864*
X01778Y02931*
X01779Y02935*
X01778Y02942*
X01775Y02949*
X0177Y02955*
X01764Y0296*
X01757Y02963*
X0175Y02964*
X01742Y02963*
X01741Y02963*
X01594Y03109*
X0159Y03113*
X01585Y03114*
G37*
G36*
X03062Y02999D02*
X03027D01*
Y02965*
X03062*
Y02999*
G37*
G36*
X03107D02*
X03072D01*
Y02965*
X03107*
Y02999*
G37*
G36*
X04385Y02773D02*
Y0276D01*
X04398*
X04397Y02762*
X04393Y02768*
X04387Y02772*
X04385Y02773*
G37*
G36*
X03355Y02468D02*
X03349Y02467D01*
X03345Y02464*
X03342Y0246*
X03341Y02455*
X03342Y02449*
X03345Y02445*
X03349Y02442*
X03355Y02441*
X0336Y02442*
X03364Y02445*
X03367Y02449*
X03368Y02455*
X03367Y0246*
X03364Y02464*
X0336Y02467*
X03355Y02468*
G37*
G36*
X0392D02*
X03914Y02467D01*
X0391Y02464*
X03907Y0246*
X03906Y02455*
X03907Y02449*
X0391Y02445*
X03914Y02442*
X0392Y02441*
X03925Y02442*
X03929Y02445*
X03932Y02449*
X03933Y02455*
X03932Y0246*
X03929Y02464*
X03925Y02467*
X0392Y02468*
G37*
G36*
X0489Y02458D02*
X04887Y02457D01*
X04881Y02453*
X04877Y02447*
X04876Y02445*
X0489*
Y02458*
G37*
G36*
X0318Y02448D02*
X03174Y02447D01*
X0317Y02444*
X03167Y0244*
X03166Y02435*
X03167Y02429*
X0317Y02425*
X03174Y02422*
X0318Y02421*
X03185Y02422*
X03189Y02425*
X03192Y02429*
X03193Y02435*
X03192Y0244*
X03189Y02444*
X03185Y02447*
X0318Y02448*
G37*
G36*
X0338Y02443D02*
X03374Y02442D01*
X0337Y02439*
X03367Y02435*
X03366Y0243*
X03367Y02424*
X0337Y0242*
X03374Y02417*
X0338Y02416*
X03385Y02417*
X03389Y0242*
X03392Y02424*
X03393Y0243*
X03392Y02435*
X03389Y02439*
X03385Y02442*
X0338Y02443*
G37*
G36*
X04398Y0275D02*
X04385D01*
Y02736*
X04385Y02736*
X04746Y02375*
X04746Y02373*
X04742Y02367*
X04741Y02365*
X0476*
Y0236*
X04765*
Y02341*
X04767Y02342*
X04767Y02339*
X0477Y02335*
X04774Y02332*
X0478Y02331*
X04785Y02332*
X04789Y02335*
X04792Y02339*
X04793Y02345*
X04793Y02345*
X04797Y0235*
X04815*
X04818Y02351*
X04821Y02353*
X04889Y02421*
X0489Y02421*
Y02435*
X04876*
X04876Y02434*
X04811Y02369*
X04794*
X04793Y02369*
X0479Y02371*
X04787Y02372*
X04774*
X04773Y02373*
X04768Y02377*
X04768Y02378*
X04766Y02381*
X04398Y02749*
X04398Y0275*
G37*
G36*
X04913Y02435D02*
X049D01*
Y02421*
X04902Y02422*
X04908Y02426*
X04912Y02432*
X04913Y02435*
G37*
G36*
X0282Y02678D02*
X02814Y02677D01*
X0281Y02674*
X02807Y0267*
X02806Y02665*
X02807Y02659*
X0281Y02655*
X02814Y02652*
X02815Y02652*
Y02647*
X02814Y02647*
X0281Y02644*
X02807Y0264*
X02806Y02635*
X02807Y02629*
X0281Y02625*
X02814Y02622*
X0282Y02621*
X02825Y02622*
X02829Y02625*
X02832Y02629*
X02833Y02635*
X02832Y0264*
X02829Y02644*
X02825Y02647*
X02824Y02647*
Y02652*
X02825Y02652*
X02829Y02655*
X02832Y02659*
X02833Y02665*
X02832Y0267*
X02829Y02674*
X02825Y02677*
X0282Y02678*
G37*
G36*
X03067Y02793D02*
X03058Y02792D01*
X0305Y02789*
X03043Y02783*
X03038Y02776*
X03034Y02768*
X03033Y0276*
X03034Y02751*
X03038Y02743*
X03043Y02736*
X0305Y0273*
X03058Y02727*
X03067Y02726*
X03076Y02727*
X03084Y0273*
X03091Y02736*
X03096Y02743*
X031Y02751*
X03101Y0276*
X031Y02768*
X03096Y02776*
X03091Y02783*
X03084Y02789*
X03076Y02792*
X03067Y02793*
G37*
G36*
X00825Y02763D02*
X00819Y02762D01*
X00815Y02759*
X00812Y02755*
X00811Y0275*
X00812Y02744*
X00815Y0274*
X00819Y02737*
X00825Y02736*
X0083Y02737*
X00834Y0274*
X00837Y02744*
X00838Y0275*
X00837Y02755*
X00834Y02759*
X0083Y02762*
X00825Y02763*
G37*
G36*
X0183Y02583D02*
X01824Y02582D01*
X0182Y02579*
X01817Y02575*
X01816Y0257*
X01817Y02564*
X0182Y0256*
X01824Y02557*
X0183Y02556*
X01835Y02557*
X01839Y0256*
X01842Y02564*
X01843Y0257*
X01842Y02575*
X01839Y02579*
X01835Y02582*
X0183Y02583*
G37*
G36*
X049Y02458D02*
Y02445D01*
X04913*
X04912Y02447*
X04908Y02453*
X04902Y02457*
X049Y02458*
G37*
G36*
X02925Y02473D02*
X02919Y02472D01*
X02915Y02469*
X02912Y02465*
X02911Y0246*
X02912Y02454*
X02915Y0245*
X02919Y02447*
X02925Y02446*
X0293Y02447*
X02934Y0245*
X02937Y02454*
X02938Y0246*
X02937Y02465*
X02934Y02469*
X0293Y02472*
X02925Y02473*
G37*
G36*
X0181Y02528D02*
X01804Y02527D01*
X018Y02524*
X01797Y0252*
X01796Y02515*
X01797Y02509*
X018Y02505*
X01804Y02502*
X0181Y02501*
X01815Y02502*
X01819Y02505*
X01822Y02509*
X01823Y02515*
X01822Y0252*
X01819Y02524*
X01815Y02527*
X0181Y02528*
G37*
G36*
X03925Y03183D02*
Y0317D01*
X03938*
X03937Y03172*
X03933Y03178*
X03927Y03182*
X03925Y03183*
G37*
G36*
X04815Y03184D02*
X04812Y03184D01*
X04806Y0318*
X04802Y03173*
X04801Y03171*
X04815*
Y03184*
G37*
G36*
X0475Y03185D02*
X04736D01*
X04737Y03182*
X04741Y03176*
X04747Y03172*
X0475Y03171*
Y03185*
G37*
G36*
X03915Y03183D02*
X03912Y03182D01*
X03906Y03178*
X03902Y03172*
X03901Y0317*
X03915*
Y03183*
G37*
G36*
X03345Y0318D02*
X03331D01*
X03332Y03177*
X03336Y03171*
X03342Y03167*
X03345Y03166*
Y0318*
G37*
G36*
X03368D02*
X03355D01*
Y03166*
X03357Y03167*
X03363Y03171*
X03367Y03177*
X03368Y0318*
G37*
G36*
X0465Y03193D02*
X04644Y03192D01*
X0464Y03189*
X04637Y03185*
X04636Y0318*
X04637Y03174*
X0464Y0317*
X04644Y03167*
X0465Y03166*
X04655Y03167*
X04659Y0317*
X04662Y03174*
X04663Y0318*
X04662Y03185*
X04659Y03189*
X04655Y03192*
X0465Y03193*
G37*
G36*
X0475Y03208D02*
X04747Y03207D01*
X04741Y03203*
X04737Y03197*
X04736Y03195*
X0475*
Y03208*
G37*
G36*
X0476D02*
Y03195D01*
X04773*
X04772Y03197*
X04768Y03203*
X04762Y03207*
X0476Y03208*
G37*
G36*
X00775Y03539D02*
X00759Y03537D01*
X00744Y03533*
X0073Y03526*
X00718Y03516*
X00709Y03504*
X00701Y0349*
X00697Y03475*
X00695Y0346*
X00697Y03444*
X00701Y03429*
X00709Y03415*
X00718Y03403*
X0073Y03394*
X00744Y03386*
X0075Y03385*
Y0338*
X00744Y03378*
X0073Y03371*
X00718Y03361*
X00709Y03349*
X00701Y03335*
X00697Y0332*
X00695Y03305*
X00697Y03289*
X00701Y03274*
X00709Y0326*
X00718Y03248*
X0073Y03239*
X00744Y03231*
X00759Y03227*
X00775Y03225*
X0079Y03227*
X00805Y03231*
X00819Y03239*
X00831Y03248*
X00841Y0326*
X00848Y03274*
X00852Y03289*
X00854Y03305*
X00852Y0332*
X00848Y03335*
X00841Y03349*
X00831Y03361*
X00819Y03371*
X00805Y03378*
X00799Y0338*
Y03385*
X00805Y03386*
X00819Y03394*
X00831Y03403*
X00841Y03415*
X00848Y03429*
X00852Y03444*
X00854Y0346*
X00852Y03475*
X00848Y0349*
X00841Y03504*
X00831Y03516*
X00819Y03526*
X00805Y03533*
X0079Y03537*
X00775Y03539*
G37*
G36*
X03355Y03203D02*
Y0319D01*
X03368*
X03367Y03192*
X03363Y03198*
X03357Y03202*
X03355Y03203*
G37*
G36*
X04773Y03185D02*
X0476D01*
Y03171*
X04762Y03172*
X04768Y03176*
X04772Y03182*
X04773Y03185*
G37*
G36*
X04685Y03203D02*
X04679Y03202D01*
X04675Y03199*
X04672Y03195*
X04671Y0319*
X04672Y03184*
X04675Y0318*
X04679Y03177*
X04685Y03176*
X0469Y03177*
X04694Y0318*
X04697Y03184*
X04698Y0319*
X04697Y03195*
X04694Y03199*
X0469Y03202*
X04685Y03203*
G37*
G36*
X03345Y03203D02*
X03342Y03202D01*
X03336Y03198*
X03332Y03192*
X03331Y0319*
X03345*
Y03203*
G37*
G36*
X04815Y03161D02*
X04801D01*
X04802Y03159*
X04806Y03152*
X04812Y03148*
X04815Y03148*
Y03161*
G37*
G36*
X04185Y0313D02*
X04171D01*
X04172Y03127*
X04176Y03121*
X04182Y03117*
X04185Y03116*
Y0313*
G37*
G36*
X04208D02*
X04195D01*
Y03116*
X04197Y03117*
X04203Y03121*
X04207Y03127*
X04208Y0313*
G37*
G36*
X0322Y03135D02*
X03206D01*
X03207Y03132*
X03211Y03126*
X03217Y03122*
X0322Y03121*
Y03135*
G37*
G36*
X03935Y03138D02*
X03929Y03137D01*
X03925Y03134*
X03922Y0313*
X03921Y03125*
X03922Y03119*
X03925Y03115*
X03929Y03112*
X03935Y03111*
X0394Y03112*
X03944Y03115*
X03947Y03119*
X03948Y03125*
X03947Y0313*
X03944Y03134*
X0394Y03137*
X03935Y03138*
G37*
G36*
X0434Y03043D02*
X04334Y03042D01*
X0433Y03039*
X04327Y03035*
X04326Y0303*
X04327Y03024*
X0433Y0302*
X04334Y03017*
X0434Y03016*
X04345Y03017*
X04349Y0302*
X04352Y03024*
X04353Y0303*
X04352Y03035*
X04349Y03039*
X04345Y03042*
X0434Y03043*
G37*
G36*
X044D02*
X04394Y03042D01*
X0439Y03039*
X04387Y03035*
X04386Y0303*
X04387Y03024*
X0439Y0302*
X04394Y03017*
X044Y03016*
X04405Y03017*
X04409Y0302*
X04412Y03024*
X04413Y0303*
X04412Y03035*
X04409Y03039*
X04405Y03042*
X044Y03043*
G37*
G36*
X0442Y03078D02*
X04414Y03077D01*
X0441Y03074*
X04407Y0307*
X04406Y03065*
X04407Y03059*
X0441Y03055*
X04414Y03052*
X0442Y03051*
X04425Y03052*
X04429Y03055*
X04432Y03059*
X04433Y03065*
X04432Y0307*
X04429Y03074*
X04425Y03077*
X0442Y03078*
G37*
G36*
X04195Y03153D02*
Y0314D01*
X04208*
X04207Y03142*
X04203Y03148*
X04197Y03152*
X04195Y03153*
G37*
G36*
X0322Y03158D02*
X03217Y03157D01*
X03211Y03153*
X03207Y03147*
X03206Y03145*
X0322*
Y03158*
G37*
G36*
X0323D02*
Y03145D01*
X03243*
X03242Y03147*
X03238Y03153*
X03232Y03157*
X0323Y03158*
G37*
G36*
X04185Y03153D02*
X04182Y03152D01*
X04176Y03148*
X04172Y03142*
X04171Y0314*
X04185*
Y03153*
G37*
G36*
X03243Y03135D02*
X0323D01*
Y03121*
X03232Y03122*
X03238Y03126*
X03242Y03132*
X03243Y03135*
G37*
G36*
X03938Y0316D02*
X03901D01*
X03902Y03157*
X03902Y03157*
X039Y03153*
X03899Y03152*
X03895Y03149*
X03892Y03145*
X03891Y0314*
X03892Y03134*
X03895Y0313*
X03899Y03127*
X03905Y03126*
X0391Y03127*
X03914Y0313*
X03917Y03134*
X03918Y0314*
X03918Y0314*
X03918Y03141*
X03922Y03146*
X03927Y03147*
X03933Y03151*
X03937Y03157*
X03938Y0316*
G37*
G36*
X04825Y03184D02*
Y03166D01*
Y03148*
X04827Y03148*
X04827Y03144*
X0483Y0314*
X04834Y03137*
X0484Y03136*
X04845Y03137*
X04849Y0314*
X04852Y03144*
X04853Y0315*
X04852Y03155*
X04849Y03159*
X04845Y03162*
X0484Y03163*
X04839Y03166*
Y03166*
X04837Y03173*
X04833Y0318*
X04827Y03184*
X04825Y03184*
G37*
G36*
X0396Y02428D02*
X03954Y02427D01*
X0395Y02424*
X03947Y0242*
X03946Y02415*
X03947Y02409*
X0395Y02405*
X03954Y02402*
X0396Y02401*
X03965Y02402*
X03969Y02405*
X03972Y02409*
X03973Y02415*
X03972Y0242*
X03969Y02424*
X03965Y02427*
X0396Y02428*
G37*
G36*
X00905Y01863D02*
X00899Y01862D01*
X00895Y01859*
X00892Y01855*
X00891Y0185*
X00892Y01844*
X00895Y0184*
X00899Y01837*
X00905Y01836*
X0091Y01837*
X00914Y0184*
X00917Y01844*
X00918Y0185*
X00917Y01855*
X00914Y01859*
X0091Y01862*
X00905Y01863*
G37*
G36*
X0387Y01873D02*
X03864Y01872D01*
X0386Y01869*
X03857Y01865*
X03856Y0186*
X03857Y01855*
X0386Y0185*
X03864Y01847*
X0387Y01846*
X03875Y01847*
X03879Y0185*
X03882Y01855*
X03883Y0186*
X03882Y01865*
X03879Y01869*
X03875Y01872*
X0387Y01873*
G37*
G36*
X0127Y01909D02*
X01262Y01908D01*
X01255Y01905*
X01249Y019*
X01244Y01894*
X01241Y01887*
X0124Y0188*
X01241Y01872*
X01244Y01865*
X01249Y01859*
X01255Y01854*
X01262Y01851*
X0127Y0185*
X01277Y01851*
X01284Y01854*
X0129Y01859*
X01295Y01865*
X01298Y01872*
X01299Y0188*
X01298Y01887*
X01295Y01894*
X0129Y019*
X01284Y01905*
X01277Y01908*
X0127Y01909*
G37*
G36*
X03205Y01883D02*
X03199Y01882D01*
X03195Y01879*
X03192Y01875*
X03191Y0187*
X03192Y01864*
X03195Y0186*
X03196Y0186*
Y01854*
X03194Y01853*
X03191Y01849*
X0319Y01844*
X03191Y01838*
X03194Y01834*
X03198Y01831*
X03204Y0183*
X03209Y01831*
X03213Y01834*
X03216Y01838*
X03217Y01844*
X03216Y01849*
X03213Y01853*
X03213Y01853*
Y01859*
X03214Y0186*
X03217Y01864*
X03218Y0187*
X03217Y01875*
X03214Y01879*
X0321Y01882*
X03205Y01883*
G37*
G36*
X0168Y01833D02*
Y0182D01*
X01693*
X01692Y01822*
X01688Y01828*
X01682Y01832*
X0168Y01833*
G37*
G36*
X03046Y01854D02*
X03041Y01853D01*
X03037Y0185*
X03034Y01846*
X03033Y01841*
X03034Y01836*
X03037Y01832*
X03041Y01829*
X03046Y01828*
X03051Y01829*
X03055Y01832*
X03058Y01836*
X03059Y01841*
X03058Y01846*
X03055Y0185*
X03051Y01853*
X03046Y01854*
G37*
G36*
X03243Y01856D02*
X03238Y01855D01*
X03234Y01852*
X03231Y01848*
X0323Y01843*
X03231Y01838*
X03234Y01834*
X03238Y01831*
X03243Y0183*
X03248Y01831*
X03252Y01834*
X03255Y01838*
X03256Y01843*
X03255Y01848*
X03252Y01852*
X03248Y01855*
X03243Y01856*
G37*
G36*
X04185Y01892D02*
X04179Y01891D01*
X04175Y01888*
X04172Y01883*
X04172Y01881*
X04171Y01878*
X04166Y01877*
X04165Y01878*
X0416Y01877*
X04155Y01874*
X04152Y01869*
X04151Y01864*
X04152Y01859*
X04155Y01855*
X0416Y01852*
X04165Y01851*
X0417Y01852*
X04174Y01855*
X04177Y01859*
X04177Y01862*
X04179Y01864*
X04183Y01865*
X04185Y01865*
X0419Y01866*
X04194Y01869*
X04197Y01873*
X04198Y01878*
X04197Y01883*
X04194Y01888*
X0419Y01891*
X04185Y01892*
G37*
G36*
X03665Y01923D02*
X03659Y01922D01*
X03655Y01919*
X03652Y01915*
X03651Y0191*
X03652Y01904*
X03655Y019*
X03659Y01897*
X03665Y01896*
X0367Y01897*
X03674Y019*
X03677Y01904*
X03678Y0191*
X03677Y01915*
X03674Y01919*
X0367Y01922*
X03665Y01923*
G37*
G36*
X0241Y01928D02*
X02404Y01927D01*
X024Y01924*
X02397Y0192*
X02396Y01915*
X02397Y01909*
X024Y01905*
X02404Y01902*
X0241Y01901*
X02415Y01902*
X02419Y01905*
X02422Y01909*
X02423Y01915*
X02422Y0192*
X02419Y01924*
X02415Y01927*
X0241Y01928*
G37*
G36*
X04086Y01892D02*
X04081Y01891D01*
X04077Y01888*
X04074Y01883*
X04073Y01879*
X04073Y01878*
X04068Y01876*
X04066Y01876*
X04061Y01875*
X04057Y01872*
X04054Y01868*
X04053Y01863*
X04054Y01858*
X04057Y01853*
X04061Y0185*
X04066Y01849*
X04071Y0185*
X04076Y01853*
X04079Y01858*
X04079Y01862*
X0408Y01863*
X04084Y01865*
X04086Y01865*
X04091Y01866*
X04095Y01869*
X04098Y01873*
X04099Y01878*
X04098Y01883*
X04095Y01888*
X04091Y01891*
X04086Y01892*
G37*
G36*
X04125Y01877D02*
X0412Y01876D01*
X04116Y01873*
X04113Y01869*
X04112Y01864*
X04113Y01859*
X04116Y01854*
X0412Y01851*
X04125Y0185*
X0413Y01851*
X04135Y01854*
X04138Y01859*
X04139Y01864*
X04138Y01869*
X04135Y01873*
X0413Y01876*
X04125Y01877*
G37*
G36*
X04224Y01877D02*
X04219Y01876D01*
X04214Y01873*
X04212Y01869*
X04211Y01864*
X04212Y01859*
X04214Y01854*
X04219Y01852*
X04224Y01851*
X04229Y01852*
X04233Y01854*
X04236Y01859*
X04237Y01864*
X04236Y01869*
X04233Y01873*
X04229Y01876*
X04224Y01877*
G37*
G36*
X036Y01878D02*
X03594Y01877D01*
X0359Y01874*
X03587Y0187*
X03586Y01865*
X03587Y01859*
X0359Y01855*
X03594Y01852*
X036Y01851*
X03605Y01852*
X03609Y01855*
X03612Y01859*
X03613Y01865*
X03612Y0187*
X03609Y01874*
X03605Y01877*
X036Y01878*
G37*
G36*
X0352Y01828D02*
X03514Y01827D01*
X0351Y01824*
X03507Y0182*
X03506Y01815*
X03507Y01809*
X0351Y01805*
X03514Y01802*
X0352Y01801*
X03525Y01802*
X03529Y01805*
X03532Y01809*
X03533Y01815*
X03532Y0182*
X03529Y01824*
X03525Y01827*
X0352Y01828*
G37*
G36*
X04188Y01762D02*
X04182Y0176D01*
X04177Y01757*
X04174Y01752*
X04172Y01746*
X04174Y0174*
X04177Y01735*
X04182Y01731*
X04188Y0173*
X04194Y01731*
X04199Y01735*
X04203Y0174*
X04204Y01746*
X04203Y01752*
X04199Y01757*
X04194Y0176*
X04188Y01762*
G37*
G36*
X04239D02*
X04233Y0176D01*
X04228Y01757*
X04225Y01752*
X04224Y01746*
X04225Y0174*
X04228Y01735*
X04233Y01731*
X04239Y0173*
X04245Y01731*
X04251Y01735*
X04254Y0174*
X04255Y01746*
X04254Y01752*
X04251Y01757*
X04245Y0176*
X04239Y01762*
G37*
G36*
X04291D02*
X04285Y0176D01*
X04279Y01757*
X04276Y01752*
X04275Y01746*
X04276Y0174*
X04279Y01735*
X04285Y01731*
X04291Y0173*
X04297Y01731*
X04302Y01735*
X04305Y0174*
X04306Y01746*
X04305Y01752*
X04302Y01757*
X04297Y0176*
X04291Y01762*
G37*
G36*
X04137D02*
X04131Y0176D01*
X04126Y01757*
X04122Y01752*
X04121Y01746*
X04122Y0174*
X04126Y01735*
X04131Y01731*
X04137Y0173*
X04143Y01731*
X04148Y01735*
X04152Y0174*
X04153Y01746*
X04152Y01752*
X04148Y01757*
X04143Y0176*
X04137Y01762*
G37*
G36*
X03983D02*
X03977Y0176D01*
X03972Y01757*
X03969Y01752*
X03968Y01746*
X03969Y0174*
X03972Y01735*
X03977Y01731*
X03983Y0173*
X0399Y01731*
X03995Y01735*
X03998Y0174*
X03999Y01746*
X03998Y01752*
X03995Y01757*
X0399Y0176*
X03983Y01762*
G37*
G36*
X04035D02*
X04029Y0176D01*
X04023Y01757*
X0402Y01752*
X04019Y01746*
X0402Y0174*
X04023Y01735*
X04029Y01731*
X04035Y0173*
X04041Y01731*
X04046Y01735*
X04049Y0174*
X0405Y01746*
X04049Y01752*
X04046Y01757*
X04041Y0176*
X04035Y01762*
G37*
G36*
X04086D02*
X0408Y0176D01*
X04075Y01757*
X04071Y01752*
X0407Y01746*
X04071Y0174*
X04075Y01735*
X0408Y01731*
X04086Y0173*
X04092Y01731*
X04097Y01735*
X041Y0174*
X04102Y01746*
X041Y01752*
X04097Y01757*
X04092Y0176*
X04086Y01762*
G37*
G36*
X01638Y01794D02*
X0162D01*
Y01776*
X01621Y01776*
X01627Y01779*
X01632Y01782*
X01635Y01787*
X01638Y01793*
X01638Y01794*
G37*
G36*
X01422Y01803D02*
X01417Y01802D01*
X01413Y01799*
X0141Y01795*
X01409Y0179*
X0141Y01784*
X01413Y0178*
X01417Y01777*
X01422Y01776*
X01427Y01777*
X01431Y0178*
X01434Y01784*
X01435Y0179*
X01434Y01795*
X01431Y01799*
X01427Y01802*
X01422Y01803*
G37*
G36*
X01693Y0181D02*
X0168D01*
Y01796*
X01682Y01797*
X01688Y01801*
X01692Y01807*
X01693Y0181*
G37*
G36*
X01469Y01794D02*
X01451D01*
X01451Y01793*
X01454Y01787*
X01457Y01782*
X01462Y01779*
X01468Y01776*
X01469Y01776*
Y01794*
G37*
G36*
X04342Y01762D02*
X04336Y0176D01*
X04331Y01757*
X04327Y01752*
X04326Y01746*
X04327Y0174*
X04331Y01735*
X04336Y01731*
X04342Y0173*
X04348Y01731*
X04353Y01735*
X04356Y0174*
X04358Y01746*
X04356Y01752*
X04353Y01757*
X04348Y0176*
X04342Y01762*
G37*
G36*
X04393D02*
X04387Y0176D01*
X04382Y01757*
X04378Y01752*
X04377Y01746*
X04378Y0174*
X04382Y01735*
X04387Y01731*
X04393Y0173*
X04399Y01731*
X04404Y01735*
X04408Y0174*
X04409Y01746*
X04408Y01752*
X04404Y01757*
X04399Y0176*
X04393Y01762*
G37*
G36*
X0175Y01793D02*
X01744Y01792D01*
X0174Y01789*
X01737Y01785*
X01736Y0178*
X01737Y01774*
X0174Y0177*
X01744Y01767*
X0175Y01766*
X01755Y01767*
X01759Y0177*
X01762Y01774*
X01763Y0178*
X01762Y01785*
X01759Y01789*
X01755Y01792*
X0175Y01793*
G37*
G36*
X01867Y02265D02*
X01862Y02264D01*
X01858Y02261*
X01855Y02257*
X01854Y02252*
X01855Y02247*
X01858Y02243*
X01862Y0224*
X01867Y02239*
X01872Y0224*
X01876Y02243*
X01879Y02247*
X0188Y02252*
X01879Y02257*
X01876Y02261*
X01872Y02264*
X01867Y02265*
G37*
G36*
X0332Y02278D02*
X03314Y02277D01*
X0331Y02274*
X03307Y0227*
X03306Y02265*
X03307Y02259*
X0331Y02255*
X03314Y02252*
X0332Y02251*
X03325Y02252*
X03329Y02255*
X03332Y02259*
X03333Y02265*
X03332Y0227*
X03329Y02274*
X03325Y02277*
X0332Y02278*
G37*
G36*
X0135Y02288D02*
X01344Y02287D01*
X0134Y02284*
X01337Y0228*
X01336Y02275*
X01337Y02269*
X0134Y02265*
X01344Y02262*
X0135Y02261*
X01355Y02262*
X01359Y02265*
X01362Y02269*
X01363Y02275*
X01362Y0228*
X01359Y02284*
X01355Y02287*
X0135Y02288*
G37*
G36*
X03375Y02263D02*
X03369Y02262D01*
X03365Y02259*
X03362Y02255*
X03361Y0225*
X03362Y02244*
X03365Y0224*
X03369Y02237*
X03375Y02236*
X0338Y02237*
X03384Y0224*
X03387Y02244*
X03388Y0225*
X03387Y02255*
X03384Y02259*
X0338Y02262*
X03375Y02263*
G37*
G36*
X0337Y02208D02*
X03364Y02207D01*
X0336Y02204*
X03357Y022*
X03356Y02195*
X03357Y02189*
X0336Y02185*
X03364Y02182*
X0337Y02181*
X03375Y02182*
X03379Y02185*
X03382Y02189*
X03383Y02195*
X03382Y022*
X03379Y02204*
X03375Y02207*
X0337Y02208*
G37*
G36*
X02945Y02238D02*
X02939Y02237D01*
X02935Y02234*
X02932Y0223*
X02932Y02227*
X02927Y02224*
X02927Y02224*
X02922Y02225*
X02917Y02224*
X02913Y02221*
X0291Y02217*
X02909Y02212*
X0291Y02207*
X02913Y02203*
X02917Y022*
X02922Y02199*
X02927Y022*
X02931Y02203*
X02932Y02203*
X02937Y02202*
X02936Y022*
X02937Y02194*
X0294Y0219*
X02944Y02187*
X0295Y02186*
X02955Y02187*
X02959Y0219*
X02962Y02194*
X02963Y022*
X02962Y02205*
X02959Y02209*
X02956Y02211*
X02955Y02214*
X02955Y02217*
X02957Y02219*
X02958Y02225*
X02957Y0223*
X02954Y02234*
X0295Y02237*
X02945Y02238*
G37*
G36*
X03045Y02258D02*
X03039Y02257D01*
X03035Y02254*
X03032Y0225*
X03031Y02245*
X03032Y02239*
X03035Y02235*
X03039Y02232*
X03045Y02231*
X0305Y02232*
X03054Y02235*
X03057Y02239*
X03058Y02245*
X03057Y0225*
X03054Y02254*
X0305Y02257*
X03045Y02258*
G37*
G36*
X04315Y02368D02*
X04309Y02367D01*
X04305Y02364*
X04302Y0236*
X04301Y02355*
X04302Y02349*
X04305Y02345*
X04309Y02342*
X04315Y02341*
X0432Y02342*
X04324Y02345*
X04327Y02349*
X04328Y02355*
X04327Y0236*
X04324Y02364*
X0432Y02367*
X04315Y02368*
G37*
G36*
X03815Y02373D02*
X03809Y02372D01*
X03805Y02369*
X03802Y02365*
X03801Y0236*
X03802Y02354*
X03805Y0235*
X03809Y02347*
X03815Y02346*
X0382Y02347*
X03824Y0235*
X03827Y02354*
X03828Y0236*
X03827Y02365*
X03824Y02369*
X0382Y02372*
X03815Y02373*
G37*
G36*
X0113Y02403D02*
X01124Y02402D01*
X0112Y02399*
X01117Y02395*
X01116Y0239*
X01117Y02384*
X0112Y0238*
X01124Y02377*
X0113Y02376*
X01135Y02377*
X01139Y0238*
X01142Y02384*
X01143Y0239*
X01142Y02395*
X01139Y02399*
X01135Y02402*
X0113Y02403*
G37*
G36*
X04755Y02355D02*
X04741D01*
X04742Y02352*
X04746Y02346*
X04752Y02342*
X04755Y02341*
Y02355*
G37*
G36*
X03125Y02298D02*
X03119Y02297D01*
X03115Y02294*
X03112Y0229*
X03111Y02285*
X03112Y02279*
X03115Y02275*
X03119Y02272*
X03125Y02271*
X0313Y02272*
X03134Y02275*
X03137Y02279*
X03138Y02285*
X03137Y0229*
X03134Y02294*
X0313Y02297*
X03125Y02298*
G37*
G36*
X0198Y02353D02*
X01974Y02352D01*
X0197Y02349*
X01967Y02345*
X01966Y0234*
X01967Y02334*
X0197Y0233*
X01974Y02327*
X0198Y02326*
X01985Y02327*
X01989Y0233*
X01992Y02334*
X01993Y0234*
X01992Y02345*
X01989Y02349*
X01985Y02352*
X0198Y02353*
G37*
G36*
X04055Y02368D02*
X04049Y02367D01*
X04045Y02364*
X04042Y0236*
X04041Y02355*
X04042Y02349*
X04045Y02345*
X04049Y02342*
X04055Y02341*
X0406Y02342*
X04064Y02345*
X04066Y02349*
X04069Y02349*
X04072Y02348*
X04072Y02344*
X04075Y0234*
X04079Y02337*
X04085Y02336*
X0409Y02337*
X04094Y0234*
X04097Y02344*
X04098Y0235*
X04097Y02355*
X04094Y02359*
X0409Y02362*
X04085Y02363*
X04079Y02362*
X04075Y02359*
X04073Y02355*
X0407Y02355*
X04068Y02356*
X04067Y0236*
X04064Y02364*
X0406Y02367*
X04055Y02368*
G37*
G36*
X03345Y02188D02*
X03339Y02187D01*
X03335Y02184*
X03332Y0218*
X03331Y02175*
X03332Y02169*
X03335Y02165*
X03339Y02162*
X03345Y02161*
X0335Y02162*
X03354Y02165*
X03357Y02169*
X03358Y02175*
X03357Y0218*
X03354Y02184*
X0335Y02187*
X03345Y02188*
G37*
G36*
X03545Y01998D02*
X03539Y01997D01*
X03535Y01994*
X03532Y0199*
X03531Y01985*
X03532Y01979*
X03535Y01975*
X03537Y01974*
X03536Y01969*
X03534Y01968*
X0353Y01965*
X03527Y01961*
X03526Y01956*
X03527Y01951*
X0353Y01947*
X03534Y01944*
X0354Y01943*
X03545Y01944*
X03549Y01947*
X03552Y01951*
X03553Y01956*
X03552Y01961*
X03549Y01965*
X03547Y01967*
X03548Y01972*
X0355Y01972*
X03554Y01975*
X03557Y01979*
X03558Y01985*
X03557Y0199*
X03554Y01994*
X0355Y01997*
X03545Y01998*
G37*
G36*
X03496Y02008D02*
X03491Y02007D01*
X03486Y02004*
X03483Y01999*
X03482Y01994*
X03483Y01989*
X03486Y01985*
X03491Y01982*
X03492Y01982*
X03496Y01981*
X03495Y01976*
X03495Y01976*
X03496Y01971*
X03499Y01966*
X03503Y01964*
X03508Y01963*
X03513Y01964*
X03518Y01966*
X0352Y01971*
X03522Y01976*
X0352Y01981*
X03518Y01985*
X03513Y01988*
X03512Y01988*
X03508Y01989*
X03509Y01994*
X03509Y01994*
X03508Y01999*
X03505Y02004*
X03501Y02007*
X03496Y02008*
G37*
G36*
X0406Y01993D02*
X04054Y01992D01*
X0405Y01989*
X04047Y01985*
X04046Y0198*
X04047Y01974*
X0405Y0197*
X04054Y01967*
X0406Y01966*
X04065Y01967*
X04069Y0197*
X04072Y01974*
X04073Y0198*
X04072Y01985*
X04069Y01989*
X04065Y01992*
X0406Y01993*
G37*
G36*
X03215Y01968D02*
X03209Y01967D01*
X03205Y01964*
X03202Y0196*
X03201Y01955*
X03202Y01949*
X03205Y01945*
X03209Y01942*
X03215Y01941*
X0322Y01942*
X03224Y01945*
X03227Y01949*
X03228Y01955*
X03227Y0196*
X03224Y01964*
X0322Y01967*
X03215Y01968*
G37*
G36*
X0354Y01928D02*
X03534Y01927D01*
X0353Y01924*
X03527Y0192*
X03526Y01915*
X03527Y01909*
X0353Y01905*
X03534Y01902*
X0354Y01901*
X03545Y01902*
X03549Y01905*
X03552Y01909*
X03553Y01915*
X03552Y0192*
X03549Y01924*
X03545Y01927*
X0354Y01928*
G37*
G36*
X01905Y01953D02*
X019Y01952D01*
X01895Y01949*
X01892Y01944*
X01891Y01939*
X01892Y01934*
X01895Y0193*
X019Y01927*
X01905Y01926*
X0191Y01927*
X01914Y0193*
X01917Y01934*
X01918Y01939*
X01917Y01944*
X01914Y01949*
X0191Y01952*
X01905Y01953*
G37*
G36*
X04295Y01963D02*
X04289Y01962D01*
X04285Y01959*
X04282Y01955*
X04281Y0195*
X04282Y01944*
X04285Y0194*
X04289Y01937*
X04295Y01936*
X043Y01937*
X04304Y0194*
X04307Y01944*
X04308Y0195*
X04307Y01955*
X04304Y01959*
X043Y01962*
X04295Y01963*
G37*
G36*
X0305Y02698D02*
X03044Y02697D01*
X0304Y02694*
X03037Y0269*
X03036Y02685*
X03037Y02679*
X0304Y02675*
X03044Y02672*
X0305Y02671*
X0305Y02671*
X03267Y02455*
X03265Y02453*
X03263Y0245*
X03262Y02446*
Y0203*
X0326Y02029*
X03257Y02025*
X03256Y0202*
X03257Y02014*
X0326Y0201*
X03264Y02007*
X0327Y02006*
X03275Y02007*
X03279Y0201*
X03282Y02014*
X03283Y0202*
X03282Y02025*
X0328Y02027*
Y02443*
X03286Y02448*
X03288Y02451*
X03289Y02455*
X03288Y02458*
X03286Y02461*
X03063Y02684*
X03063Y02685*
X03062Y0269*
X03059Y02694*
X03055Y02697*
X0305Y02698*
G37*
G36*
X01215Y02263D02*
X0114D01*
X01133Y02261*
X01127Y02257*
X01123Y02251*
X01121Y02245*
X01123Y02238*
X01127Y02232*
X01133Y02228*
X0114Y02226*
X01166*
X01168Y02221*
X01167Y0222*
X01166Y02215*
X01167Y02209*
X0117Y02205*
X0117Y02205*
Y0204*
X01171Y02036*
X01173Y02033*
X01176Y0203*
X01176Y0203*
X01177Y02024*
X0118Y0202*
X01184Y02017*
X0119Y02016*
X01195Y02017*
X01199Y0202*
X01202Y02024*
X01203Y0203*
X01202Y02035*
X01199Y02039*
X01195Y02042*
X0119Y02043*
X01189Y02048*
Y02205*
X01189Y02205*
X01192Y02209*
X01193Y02215*
X01192Y0222*
X01191Y02221*
X01193Y02226*
X01215*
X01221Y02228*
X01227Y02232*
X01231Y02238*
X01233Y02245*
X01231Y02251*
X01227Y02257*
X01221Y02261*
X01215Y02263*
G37*
G36*
X0324Y02183D02*
X03234Y02182D01*
X0323Y02179*
X03227Y02175*
X03226Y0217*
X03227Y02164*
X0323Y0216*
X03234Y02157*
X0324Y02156*
X03245Y02157*
X03249Y0216*
X03252Y02164*
X03253Y0217*
X03252Y02175*
X03249Y02179*
X03245Y02182*
X0324Y02183*
G37*
G36*
X0333Y02028D02*
X03324Y02027D01*
X0332Y02024*
X03317Y0202*
X03316Y02015*
X03317Y02009*
X0332Y02005*
X03324Y02002*
X0333Y02001*
X03335Y02002*
X03339Y02005*
X03342Y02009*
X03343Y02015*
X03342Y0202*
X03339Y02024*
X03335Y02027*
X0333Y02028*
G37*
G36*
X01135Y01985D02*
X01121D01*
X01122Y01982*
X01126Y01976*
X01132Y01972*
X01135Y01971*
Y01985*
G37*
G36*
X0374Y02D02*
X03693D01*
X03687Y01998*
X03683Y01995*
X03681Y01992*
X03676Y01992*
X03675Y01992*
X03674Y01994*
X0367Y01997*
X03665Y01998*
X03659Y01997*
X03655Y01994*
X03652Y0199*
X03651Y01985*
X03652Y01979*
X03655Y01975*
X03659Y01972*
X0366Y01972*
Y01967*
X03659Y01967*
X03655Y01964*
X03652Y0196*
X03651Y01955*
X03652Y01949*
X03655Y01945*
X03659Y01942*
X03665Y01941*
X0367Y01942*
X03674Y01945*
X03677Y01949*
X03678Y01955*
X03677Y0196*
X03674Y01964*
X0367Y01967*
X03669Y01967*
Y01972*
X0367Y01972*
X03674Y01975*
X03675Y01978*
X03681Y01978*
X03681Y01978*
X03683Y01975*
X03687Y01972*
X03693Y01971*
X037*
Y01843*
X03697Y01843*
X03695Y01841*
X03689Y01842*
X03688Y01843*
X03682Y01847*
X03679Y01848*
X03676Y01854*
X03677Y01854*
X03678Y0186*
X03677Y01865*
X03674Y01869*
X0367Y01872*
X03665Y01873*
X03659Y01872*
X03655Y01869*
X03652Y01865*
X03651Y0186*
X03652Y01854*
X03655Y0185*
X03659Y01848*
X03659Y01847*
X0366Y01844*
X0366Y01842*
X03657Y01837*
X03656Y01835*
X03675*
Y0183*
X0368*
Y01811*
X03682Y01812*
X03688Y01816*
X03689Y01817*
X03695Y01818*
X03697Y01816*
X03702Y01815*
X0373*
Y01565*
X03731Y01559*
X03735Y01555*
X0375Y0154*
X03754Y01536*
X0376Y01535*
X03835*
X0384Y01536*
X03844Y0154*
X03848Y01544*
X03849Y0155*
X03848Y01555*
X03844Y01559*
X0384Y01563*
X03835Y01564*
X03765*
X03759Y0157*
Y0183*
X03758Y01835*
X03754Y01839*
X0375Y01843*
X03745Y01844*
X0373*
X03729Y01845*
Y01971*
X0374*
X03745Y01972*
X03749Y01975*
X03753Y0198*
X03754Y01985*
X03753Y01991*
X03749Y01995*
X03745Y01998*
X0374Y02*
G37*
G36*
X01135Y02008D02*
X01132Y02007D01*
X01126Y02003*
X01122Y01997*
X01121Y01995*
X01135*
Y02008*
G37*
%LNninja_ecu_pcb-3*%
%LPD*%
G54D45*
X0144Y01815D02*
X01474D01*
X03675Y01825D02*
Y0183D01*
X0342Y0157D02*
X03675Y01825D01*
X0135Y02025D02*
Y02045D01*
X0134Y02015D02*
X0135Y02025D01*
X01402Y01847D02*
D01*
X01387D02*
X01402D01*
X01245Y0199D02*
X01387Y01847D01*
X01427Y01827D02*
X0144Y01815D01*
X01427Y01827D02*
Y01837D01*
X01417Y01847D02*
X01427Y01837D01*
X01402Y01847D02*
X01417D01*
X01685Y01885D02*
X01685D01*
X01702Y01902*
Y01902*
X01477Y01999D02*
X02192D01*
X0134Y02015D02*
X02189D01*
X01702Y01902D02*
X01785Y01985D01*
X01615Y01799D02*
X01631Y01815D01*
X02273Y02245D02*
X02285D01*
X02267Y02238D02*
X02273Y02245D01*
X0244Y02033D02*
X02697D01*
X02267Y02207D02*
Y02238D01*
Y02207D02*
X0244Y02033D01*
X02285Y02215D02*
X02295D01*
X02228Y01997D02*
X02247D01*
X02199Y01968D02*
X02228Y01997D01*
X02247D02*
X02276Y01968D01*
X02594*
X02078D02*
X02199D01*
X02205Y02011D02*
X02253D01*
X02192Y01999D02*
X02205Y02011D01*
X02199Y02025D02*
X02258D01*
X02189Y02015D02*
X02199Y02025D01*
X02295Y02215D02*
X0243Y0208D01*
X02269Y02015D02*
X02656D01*
X02258Y02025D02*
X02269Y02015D01*
X02265Y01999D02*
X0265D01*
X02253Y02011D02*
X02265Y01999D01*
X02077Y01968D02*
X02078Y01968D01*
X0265Y01999D02*
X02845Y01805D01*
X01433Y01955D02*
X01477Y01999D01*
X01785Y01985D02*
X02047D01*
X02057Y01972D02*
X02061Y01968D01*
X02057Y01972D02*
Y01974D01*
X02047Y01985D02*
X02057Y01974D01*
X02594Y01968D02*
X02595Y01969D01*
X02061Y01968D02*
X02077D01*
X0278Y01785D02*
X02785D01*
X02595Y01969D02*
X0278Y01785D01*
X03272Y01935D02*
X0333D01*
X0118Y0204D02*
X0119Y0203D01*
X0118Y0204D02*
Y02215D01*
X02656Y02015D02*
X02666Y02005D01*
X02681Y0202*
X02686Y02015*
X02691Y0202*
X0114Y0199D02*
X01245D01*
X02697Y02033D02*
X02871Y0186D01*
X02691Y0202D02*
X02891Y0182D01*
X02898Y01838D02*
X02902Y01842D01*
X02891Y0182D02*
X02925D01*
X0243Y0208D02*
X02725D01*
X02902Y01903*
Y01902D02*
Y01903D01*
Y01902D02*
X02912Y01892D01*
X02913*
X02937Y01867*
Y01852D02*
Y01867D01*
X02927Y01842D02*
X02937Y01852D01*
X02902Y01842D02*
X02927D01*
X02925Y0182D02*
X02951Y01846D01*
Y01866D02*
X03012Y01927D01*
X02951Y01846D02*
Y01866D01*
X02871Y0186D02*
X0292D01*
X0159Y01544D02*
X01614D01*
X01805Y01735*
Y01765*
X01631Y01815D02*
X01675D01*
X0367Y02165D02*
Y0235D01*
Y02165D02*
X03949Y01885D01*
D01*
X03947Y01882D02*
X03949Y01885D01*
X03947Y01867D02*
Y01882D01*
Y01867D02*
X04009Y01805D01*
X0422*
X04395Y0198*
X03311Y02453D02*
Y0272D01*
Y02786*
X03565Y0304*
X037*
X0376Y0298*
X03415Y0235D02*
X03434Y0233D01*
X03565*
X03572Y02323*
X03628*
X03652Y02347*
X03657*
X03622Y02347D02*
X03625Y0235D01*
X03622Y02347D02*
Y02347D01*
X03612Y02337D02*
X03622Y02347D01*
X03578Y02337D02*
X03612D01*
X03422Y02493D02*
X03578Y02337D01*
X03413Y02493D02*
X03422D01*
X0305Y02685D02*
X0328Y02455D01*
X03625Y0235D02*
X0363D01*
X03445Y02515D02*
X03605Y02355D01*
X0341Y02515D02*
X03445D01*
X0342Y01525D02*
Y0157D01*
X03264Y01927D02*
X03272Y01935D01*
X03012Y01927D02*
X03264D01*
X0476Y0236D02*
X04762Y02362D01*
X04787*
X0479Y0236*
X04815*
X04895Y0244*
X0438Y02755D02*
X0476Y02375D01*
Y0236D02*
Y02375D01*
X03311Y02453D02*
X03312Y02452D01*
X03317*
X03415Y0235D02*
Y02355D01*
X03317Y02452D02*
X03415Y02355D01*
X014Y01955D02*
X01433D01*
X0327Y0202D02*
X03271Y02021D01*
Y02446*
X0328Y02455*
X02845Y01805D02*
X03285D01*
X03385Y01905*
X0337Y0192D02*
X03385Y01905D01*
G54D47*
X01625Y01964D02*
X01639Y0195D01*
Y01903D02*
Y0195D01*
X02296Y0315D02*
X02475Y02971D01*
Y02872D02*
Y02971D01*
Y02872D02*
X0266Y02687D01*
X01393Y01862D02*
X01423D01*
X01316Y01939D02*
X01393Y01862D01*
X0143Y01856D02*
X0145D01*
X01423Y01862D02*
X0143Y01856D01*
X01677Y01866D02*
X01692D01*
X01696Y01869*
X01783*
X01639Y01903D02*
X01677Y01866D01*
X01464Y01964D02*
X01625D01*
X0145Y0195D02*
X01464Y01964D01*
X01316Y01939D02*
Y02641D01*
X02147Y01856D02*
X02167D01*
X02132Y01841D02*
X02147Y01856D01*
X02295Y0315D02*
X02296D01*
X01783Y01869D02*
X01791Y01862D01*
X01802Y01841D02*
X02132D01*
X01791Y01852D02*
X01802Y01841D01*
X01791Y01852D02*
Y01862D01*
X0169Y01535D02*
X01705Y0152D01*
Y0144D02*
Y0152D01*
X02355Y02533D02*
Y0255D01*
Y02533D02*
X02911Y01977D01*
X02926*
X02953Y02004*
Y02042*
X02936Y0206D02*
X02953Y02042D01*
X0293Y0206D02*
X02936D01*
X04232Y01916D02*
X04243Y01927D01*
X04048Y01916D02*
X04232D01*
X0227Y01265D02*
X02401D01*
X04225Y01935D02*
Y02339D01*
X04007Y01875D02*
X04048Y01916D01*
X04243Y01927D02*
Y0283D01*
X0266Y02275D02*
X02915Y0202D01*
X0266Y02275D02*
Y02687D01*
X04132Y02942D02*
X04243Y0283D01*
X03627Y02937D02*
X04225Y02339D01*
X01316Y02641D02*
X01581Y02906D01*
X0145Y01856D02*
X0145Y01856D01*
Y0195*
G54D49*
X04353Y02685D02*
X04355Y02686D01*
X02836Y01331D02*
X02845D01*
X02856Y01311D02*
Y01331D01*
X02836D02*
X02856Y01311D01*
X02835Y0131D02*
X02855D01*
X02835D02*
Y0133D01*
X0158Y0305D02*
X01765Y02865D01*
X01265Y0273D02*
X01275Y0274D01*
X0127Y02745D02*
X01275Y0274D01*
X0125Y0275D02*
Y0281D01*
Y02745D02*
Y0275D01*
X02095Y0129D02*
X02115D01*
X02102Y01287D02*
X02115D01*
X021Y01285D02*
X02102Y01287D01*
X02085Y0127D02*
X0211D01*
X02025Y0129D02*
X02095D01*
X02085Y0127D02*
X021Y01285D01*
X02037Y01277D02*
X02045Y01285D01*
X02025Y0127D02*
Y01285D01*
X02045D02*
X021D01*
X02035Y01275D02*
X02037Y01277D01*
X02045Y0127D02*
X02085D01*
X02025Y01285D02*
X02035Y01275D01*
X0452Y01405D02*
Y0251D01*
X04422Y01307D02*
X0452Y01405D01*
X01092Y0174D02*
X01765D01*
X01084Y01747D02*
X01092Y0174D01*
X01077Y01747D02*
X01084D01*
X01039Y01785D02*
X01077Y01747D01*
X02845Y0137D02*
X02859D01*
X02845D02*
Y01385D01*
X02825Y0137D02*
X02845D01*
X02865Y01363D02*
Y01385D01*
X04355Y0277D02*
Y02797D01*
Y0274D02*
Y0277D01*
Y0271D02*
Y0274D01*
Y02686D02*
Y0271D01*
Y02675D02*
Y02685D01*
Y02675D02*
X0452Y0251D01*
X04353Y02685D02*
X04355D01*
X01855Y01445D02*
X0187D01*
X0188Y01435*
X043Y01325D02*
X04317Y01307D01*
X043Y01325D02*
Y01335D01*
X04317Y01307D02*
X04422D01*
X0407Y01335D02*
X043D01*
X04065Y0133D02*
X0407Y01335D01*
X0189Y01445D02*
X01905D01*
X01045Y02D02*
Y02056D01*
X0237Y0195D02*
X0239D01*
X0288Y01368D02*
Y01385D01*
X02865D02*
X0288D01*
X01039Y01994D02*
X01045Y02D01*
Y02056D02*
Y02082D01*
Y02108*
X0175Y02935D02*
X01755D01*
X01835Y02855*
Y02791D02*
Y02855D01*
Y02791D02*
X02376Y0225D01*
X0235Y0195D02*
X0237D01*
X02342D02*
X0235D01*
X02317Y01925D02*
X02332Y0194D01*
X02187Y01795D02*
X02317Y01925D01*
X02332Y0194D02*
X02342Y0195D01*
X04041Y0133D02*
X04065D01*
X04018D02*
X04041D01*
X03995D02*
X04018D01*
X01765Y0174D02*
X01782Y01757D01*
Y01774D02*
X01802Y01795D01*
X01782Y01757D02*
Y01774D01*
X01802Y01795D02*
X02187D01*
X0329Y0134D02*
Y01364D01*
X02095Y0129D02*
X021Y01285D01*
X0125Y02745D02*
X01255Y0274D01*
X0381Y0155D02*
X03835D01*
X03785D02*
X0381D01*
X03765D02*
X03785D01*
X0376D02*
X03765D01*
X03745Y01565D02*
X0376Y0155D01*
X03747Y01347D02*
X03778D01*
X03295Y01385D02*
X0359D01*
X03627Y01347*
X03747*
X02872Y01315D02*
X0399D01*
X02856Y01331D02*
X02872Y01315D01*
X03105Y0149D02*
X03205Y0139D01*
X02825Y01356D02*
Y0137D01*
X02845Y0136D02*
Y0137D01*
X02859D02*
X0286Y0137D01*
X02825Y01356D02*
X02826Y01355D01*
X0285D02*
X02866D01*
X02826D02*
X0285D01*
X02845Y0136D02*
X0285Y01355D01*
X03105Y0151D02*
Y0153D01*
Y0149D02*
Y0151D01*
X02968Y01353D02*
X03105Y0149D01*
X02867Y01353D02*
X02968D01*
X02866Y01355D02*
X02867Y01353D01*
X02793Y01322D02*
X02826Y01355D01*
X02346Y01322D02*
X02793D01*
X03745Y01565D02*
Y0183D01*
X03725D02*
X03745D01*
X03702D02*
X03725D01*
X03715Y0184D02*
X03725Y0183D01*
X03715Y0184D02*
Y01985D01*
X0374*
X03693D02*
X03715D01*
X02538Y01287D02*
X02555Y0127D01*
X02795*
X02835Y0131*
X0203Y0127D02*
X02035Y01275D01*
X02835Y0133D02*
X02836Y01331D01*
X02856Y01308D02*
Y01311D01*
X02855Y0131D02*
X02856Y01311D01*
X01045Y02108D02*
X01046Y0211D01*
X03205Y0139D02*
X0329D01*
X03295Y01385*
X0399Y01315D02*
X03995Y0132D01*
Y0133*
X0188Y01435D02*
X0189Y01445D01*
X02825Y01385D02*
X02845D01*
X02825Y0137D02*
Y01385D01*
X02866Y01355D02*
X0288Y01368D01*
X02845Y01385D02*
X02852D01*
X02865*
X01245Y0272D02*
X01275D01*
X01245D02*
Y0275D01*
X0125Y02745D02*
X0127D01*
X0126Y0273D02*
X01265D01*
X01275Y0272D02*
Y0274D01*
Y0275*
X01245D02*
X0125D01*
X01275*
X02115Y01287D02*
Y0129D01*
X02035Y01275D02*
X0204Y0127D01*
X02115Y01287D02*
X02538D01*
X02845Y01326D02*
X0285Y01331D01*
X02845Y01325D02*
Y01326D01*
Y01331*
X0211Y0127D02*
Y0128D01*
X02035D02*
X02037Y01277D01*
X02045Y0127*
X0329Y01364D02*
Y0139D01*
X01302Y01687D02*
X01685Y01305D01*
X01039Y01785D02*
Y01994D01*
X01015Y01724D02*
Y02949D01*
X01166Y031*
X01585*
X01015Y01724D02*
X01052Y01687D01*
X01302*
X0175Y02865D02*
X01765D01*
X01585Y031D02*
X0175Y02935D01*
X0125Y0281D02*
X0149Y0305D01*
X0158*
G54D50*
X01615Y01846D02*
Y01893D01*
Y0194*
X01568Y01893D02*
X01615D01*
X01568Y01846D02*
X01615Y01893D01*
X01568Y0194D02*
X01615D01*
X01568Y01893D02*
X01615Y0194D01*
X01474Y01799D02*
Y01815D01*
Y01799D02*
X01521D01*
X01474D02*
X01521Y01846D01*
X01474Y01815D02*
Y01846D01*
X01521Y01799D02*
Y01846D01*
Y01799D02*
X01568D01*
X01474Y01846D02*
X01521D01*
X01568Y01799D02*
Y01846D01*
X01521Y01799D02*
X01568Y01846D01*
X01521D02*
X01568D01*
X01474D02*
Y01893D01*
Y01846D02*
X01521Y01893D01*
X01474D02*
X01521D01*
X01474D02*
Y0194D01*
X01521*
X01474D02*
X01521Y01893D01*
Y01846D02*
Y01893D01*
X01545Y0187*
X01521Y01893D02*
X01568D01*
X01521D02*
Y0194D01*
X01568Y01893D02*
Y0194D01*
X01521Y01893D02*
X01568Y0194D01*
X01521D02*
X01568D01*
Y01799D02*
X01615D01*
X01568Y01846D02*
Y01893D01*
X01545Y0187D02*
X01568Y01846D01*
X01545Y0187D02*
X01568Y01893D01*
Y01846D02*
X01615Y01799D01*
Y01846*
X01568D02*
X01615D01*
X01521Y01893D02*
D01*
D01*
D01*
X01568Y01846D02*
D01*
D01*
D01*
X01521D02*
X01545Y0187D01*
X01189Y02245D02*
X01215D01*
X01163D02*
X01189D01*
X0114D02*
X01163D01*
G54D52*
X01085Y01485D02*
X01245D01*
G54D64*
X03627Y02937D03*
X04132Y02942D03*
X01581Y02906D03*
X01245Y01485D03*
X01085D03*
G54D65*
X03067Y0296D03*
G54D68*
X00985Y01575D03*
X03675Y0183D03*
X0135Y02045D03*
X01685Y01885D03*
X043Y01335D03*
X02285Y02245D03*
Y02215D03*
X02077Y01968D03*
X0239Y0195D03*
X02785Y01785D03*
X0337Y0192D03*
X0333Y01935D03*
X0119Y0203D03*
X0118Y02215D03*
X0114Y0199D03*
X01047Y02031D03*
X01045Y02D03*
Y02082D03*
Y02056D03*
X0235Y0195D03*
X02898Y01838D03*
X02317Y01925D03*
X02332Y0194D03*
X0237Y0195D03*
X02167Y01856D03*
X02295Y0315D03*
X0159Y01544D03*
X01805Y01765D03*
X01675Y01815D03*
X0169Y01535D03*
X01705Y0144D03*
X03835Y0155D03*
X0381D03*
X03785D03*
X03765D03*
X03778Y01347D03*
X02355Y0255D03*
X0293Y0206D03*
X03747Y01347D03*
X03105Y0153D03*
Y0151D03*
Y0149D03*
X03725Y0183D03*
X03745D03*
X03702D03*
X04395Y0198D03*
X04755Y0319D03*
X0482Y03166D03*
X0419Y03135D03*
X0392Y03165D03*
X0335Y03185D03*
X03225Y0314D03*
X0374Y01985D03*
X03715D03*
X03693D03*
X02401Y01265D03*
X0227D03*
X04225Y01935D03*
X04007Y01875D03*
X02915Y0202D03*
X0376Y0298D03*
X03415Y0235D03*
X0367D03*
X03311Y0272D03*
X0363Y0235D03*
X03605Y02355D03*
X0341Y02515D03*
X03413Y02493D03*
X0305Y02685D03*
X0342Y01525D03*
X014Y01955D03*
X0476Y0236D03*
X04895Y0244D03*
X0438Y02755D03*
X0292Y0186D03*
X0119Y01335D03*
X01046Y0211D03*
X0327Y0202D03*
G54D69*
X0452Y01405D03*
X02376Y0225D03*
X0175Y02865D03*
Y02935D03*
G54D70*
X04355Y02797D03*
Y0277D03*
Y0274D03*
Y0271D03*
Y02685D03*
X01855Y01445D03*
X01905D03*
X01189Y02245D03*
X01215D03*
X01163D03*
X0114D03*
X0188Y01435D03*
G54D71*
X01615Y01893D03*
Y0194D03*
X01474Y01799D03*
X01615D03*
X01568Y01893D03*
Y0194D03*
Y01846D03*
Y01799D03*
X01474Y01893D03*
X01521D03*
Y01799D03*
X01474Y0194D03*
X01521D03*
X01615Y01846D03*
X01521D03*
X01474D03*
G54D73*
X02852Y01385D03*
X04065Y0133D03*
X04018D03*
X04041D03*
X01245Y0275D03*
X03995Y0133D03*
X02825Y01385D03*
X01275Y0275D03*
Y0272D03*
X01245D03*
G54D74*
X02346Y01322D03*
G54D75*
X01685Y01305D03*
G54D76*
X0329Y01364D03*
Y0134D03*
Y0139D03*
G54D77*
X02035Y0128D03*
X02075D03*
X0211D03*
X02845Y01325D03*
M02*