%FSTAX23Y23*%
%MOMM*%
%SFA1B1*%

%IPPOS*%
%ADD34C,0.250000*%
%ADD35C,0.299999*%
%ADD36C,0.699999*%
%ADD38C,0.499999*%
%ADD39C,0.999998*%
%ADD45C,0.399999*%
%ADD51R,1.499997X1.499997*%
%ADD52C,1.499997*%
%ADD53C,3.809992*%
%ADD55C,0.634999*%
%ADD56C,0.584199*%
%ADD57C,1.015998*%
%ADD59C,0.689999*%
%LNninja_ecu_pcb-1*%
%LPD*%
G36*
X75078Y84405D02*
X7493Y84314D01*
X74594Y84027*
X74308Y83692*
X74078Y83317*
X73909Y82909*
X73806Y82481*
X73772Y82041*
X73806Y81602*
X73909Y81174*
X74078Y80766*
X74308Y80391*
X74594Y80055*
X7493Y79769*
X75305Y79539*
X75713Y7937*
X76141Y79267*
X7658Y79233*
X7702Y79267*
X77448Y7937*
X77856Y79539*
X78231Y79769*
X78566Y80055*
X78853Y80391*
X78944Y80539*
X79066Y80505*
Y00393*
X78944Y00359*
X78853Y00507*
X78566Y00842*
X78231Y01129*
X77856Y01359*
X77448Y01528*
X7702Y01631*
X7658Y01665*
X76141Y01631*
X75713Y01528*
X75305Y01359*
X7493Y01129*
X74594Y00842*
X74308Y00507*
X74078Y00132*
X73909Y-00275*
X73806Y-00703*
X73772Y-01142*
X73806Y-01582*
X73909Y-0201*
X74078Y-02418*
X74308Y-02793*
X74594Y-03128*
X7493Y-03415*
X75078Y-03506*
X75044Y-03628*
X03949*
X03915Y-03506*
X04063Y-03415*
X04398Y-03128*
X04685Y-02793*
X04915Y-02418*
X05084Y-0201*
X05187Y-01582*
X05221Y-01142*
X05187Y-00703*
X05084Y-00275*
X04915Y00132*
X04685Y00507*
X04398Y00842*
X04063Y01129*
X03688Y01359*
X0328Y01528*
X02852Y01631*
X02412Y01665*
X01973Y01631*
X01545Y01528*
X01137Y01359*
X00762Y01129*
X00426Y00842*
X0014Y00507*
X00049Y00359*
X-00072Y00393*
Y80505*
X00049Y80539*
X0014Y80391*
X00426Y80055*
X00762Y79769*
X01137Y79539*
X01545Y7937*
X01973Y79267*
X02412Y79233*
X02852Y79267*
X0328Y7937*
X03688Y79539*
X04063Y79769*
X04398Y80055*
X04685Y80391*
X04915Y80766*
X05084Y81174*
X05187Y81602*
X05221Y82041*
X05187Y82481*
X05084Y82909*
X04915Y83317*
X04685Y83692*
X04398Y84027*
X04063Y84314*
X03915Y84405*
X03949Y84527*
X75044*
X75078Y84405*
G37*
%LNninja_ecu_pcb-2*%
%LPC*%
G36*
X49148Y23489D02*
X48908Y23441D01*
X48703Y23305*
X48567Y231*
X48519Y22859*
X48567Y22619*
X48703Y22414*
X48908Y22278*
X49148Y2223*
X49389Y22278*
X49594Y22414*
X4973Y22619*
X49778Y22859*
X4973Y231*
X49594Y23305*
X49389Y23441*
X49148Y23489*
G37*
G36*
X4737Y28696D02*
X4713Y28648D01*
X46925Y28512*
X46789Y28307*
X46741Y28066*
X46789Y27826*
X46925Y27621*
X4713Y27485*
X4737Y27437*
X47611Y27485*
X47816Y27621*
X47952Y27826*
X48Y28066*
X47952Y28307*
X47816Y28512*
X47611Y28648*
X4737Y28696*
G37*
G36*
X08127Y23235D02*
X07887Y23187D01*
X07682Y23051*
X07546Y22846*
X07498Y22605*
X07546Y22365*
X07682Y2216*
X07887Y22024*
X08127Y21976*
X08368Y22024*
X08573Y2216*
X08709Y22365*
X08757Y22605*
X08709Y22846*
X08573Y23051*
X08368Y23187*
X08127Y23235*
G37*
G36*
X00888Y21838D02*
X00648Y2179D01*
X00443Y21654*
X00307Y21449*
X00259Y21208*
X00307Y20968*
X00443Y20763*
X00648Y20627*
X00888Y20579*
X00902Y20582*
X0259Y18894*
X02545Y18668*
X02593Y18428*
X02729Y18223*
X02934Y18087*
X03174Y18039*
X03415Y18087*
X0362Y18223*
X03756Y18428*
X03804Y18668*
X03756Y18909*
X0362Y19114*
X03508Y19188*
X03481Y19229*
X01515Y21194*
X01518Y21208*
X0147Y21449*
X01334Y21654*
X01129Y2179*
X00888Y21838*
G37*
G36*
X03047D02*
X02807Y2179D01*
X02602Y21654*
X02466Y21449*
X02418Y21208*
X02466Y20968*
X02602Y20763*
X02807Y20627*
X03047Y20579*
X03288Y20627*
X03493Y20763*
X03629Y20968*
X03677Y21208*
X03629Y21449*
X03493Y21654*
X03288Y2179*
X03047Y21838*
G37*
G36*
X57657Y38729D02*
X57417Y38681D01*
X57212Y38545*
X57076Y3834*
X57028Y38099*
X57076Y37859*
X57212Y37654*
X57417Y37518*
X57657Y3747*
X57898Y37518*
X58103Y37654*
X58239Y37859*
X58287Y38099*
X58239Y3834*
X58103Y38545*
X57898Y38681*
X57657Y38729*
G37*
G36*
X52196Y45968D02*
X51956Y4592D01*
X51751Y45784*
X51615Y45579*
X51567Y45338*
X51615Y45098*
X51751Y44893*
X51956Y44757*
X52172Y44714*
X54151Y42735*
Y38416*
X53657Y37923*
X52875*
X52691Y38046*
X5245Y38094*
X5221Y38046*
X52005Y3791*
X51869Y37705*
X51821Y37464*
X51869Y37224*
X52005Y37019*
X5221Y36883*
X5245Y36835*
X52691Y36883*
X52875Y37006*
X53847*
X54023Y37041*
X54172Y3714*
X54934Y37902*
X55033Y38051*
X55068Y38226*
Y42925*
X55033Y43101*
X54934Y4325*
X52821Y45362*
X52778Y45579*
X52642Y45784*
X52437Y4592*
X52196Y45968*
G37*
G36*
X39496Y31871D02*
X39256Y31823D01*
X39051Y31687*
X38915Y31482*
X38867Y31241*
X38915Y31001*
X39051Y30796*
X39256Y3066*
X39496Y30612*
X39737Y3066*
X39942Y30796*
X40078Y31001*
X40126Y31241*
X40078Y31482*
X39942Y31687*
X39737Y31823*
X39496Y31871*
G37*
G36*
X4483Y28823D02*
X4459Y28775D01*
X44385Y28639*
X44249Y28434*
X44201Y28193*
X44249Y27953*
X44385Y27748*
X4459Y27612*
X4483Y27564*
X45071Y27612*
X45276Y27748*
X45412Y27953*
X4546Y28193*
X45412Y28434*
X45276Y28639*
X45071Y28775*
X4483Y28823*
G37*
G36*
X45846Y30093D02*
X45606Y30045D01*
X45401Y29909*
X45265Y29704*
X45217Y29463*
X45265Y29223*
X45401Y29018*
X45606Y28882*
X45846Y28834*
X46087Y28882*
X46292Y29018*
X46428Y29223*
X46476Y29463*
X46428Y29704*
X46292Y29909*
X46087Y30045*
X45846Y30093*
G37*
G36*
X65404Y03357D02*
X65127Y0332D01*
X64869Y03213*
X64647Y03043*
X64477Y02821*
X6437Y02563*
X64333Y02285*
X6437Y02008*
X64477Y0175*
X64647Y01528*
X64869Y01358*
X65127Y01251*
X65404Y01214*
X65682Y01251*
X6594Y01358*
X66162Y01528*
X66332Y0175*
X66439Y02008*
X66476Y02285*
X66439Y02563*
X66332Y02821*
X66162Y03043*
X6594Y03213*
X65682Y0332*
X65404Y03357*
G37*
G36*
X31654Y05123D02*
X3138Y05086D01*
X31125Y04981*
X30905Y04812*
X30737Y04593*
X30631Y04338*
X30595Y04063*
X30631Y03789*
X30737Y03534*
X30905Y03315*
X31125Y03146*
X3138Y0304*
X31654Y03004*
X31928Y0304*
X32184Y03146*
X32403Y03315*
X32571Y03534*
X32677Y03789*
X32713Y04063*
X32677Y04338*
X32571Y04593*
X32403Y04812*
X32184Y04981*
X31928Y05086*
X31654Y05123*
G37*
G36*
X61213Y03357D02*
X60936Y0332D01*
X60678Y03213*
X60456Y03043*
X60286Y02821*
X60179Y02563*
X60142Y02285*
X60179Y02008*
X60286Y0175*
X60456Y01528*
X60678Y01358*
X60936Y01251*
X61213Y01214*
X61491Y01251*
X61749Y01358*
X61971Y01528*
X62141Y0175*
X62248Y02008*
X62285Y02285*
X62248Y02563*
X62141Y02821*
X61971Y03043*
X61749Y03213*
X61491Y0332*
X61213Y03357*
G37*
G36*
X21208Y01899D02*
X20968Y01851D01*
X20763Y01715*
X20627Y0151*
X20579Y01269*
X20627Y01029*
X20763Y00824*
X20968Y00688*
X21208Y0064*
X21449Y00688*
X21654Y00824*
X2179Y01029*
X21838Y01269*
X2179Y0151*
X21654Y01715*
X21449Y01851*
X21208Y01899*
G37*
G36*
X18541Y02153D02*
X18301Y02105D01*
X18096Y01969*
X1796Y01764*
X17912Y01523*
X1796Y01283*
X18096Y01078*
X18301Y00942*
X18541Y00894*
X18782Y00942*
X18987Y01078*
X19123Y01283*
X19171Y01523*
X19123Y01764*
X18987Y01969*
X18782Y02105*
X18541Y02153*
G37*
G36*
X58165Y15869D02*
X57925Y15821D01*
X5772Y15685*
X57584Y1548*
X57536Y15239*
X57584Y14999*
X57677Y14858*
X57584Y14718*
X57536Y14477*
X57584Y14237*
X5772Y14032*
Y13907*
X57584Y13702*
X57536Y13461*
X57584Y13221*
X5772Y13017*
X57584Y12813*
X57536Y12572*
X57584Y12332*
X5772Y12127*
X57925Y11991*
X58165Y11943*
X58406Y11991*
X58546Y12084*
X58687Y11991*
X58927Y11943*
X59168Y11991*
X59373Y12127*
X59509Y12332*
X59557Y12572*
X59509Y12813*
X59373Y13017*
X59509Y13221*
X59557Y13461*
X59509Y13702*
X59373Y13907*
Y14032*
X59509Y14237*
X59557Y14477*
X59509Y14718*
X59373Y14923*
X59168Y15059*
X58927Y15107*
X58874Y15096*
X58784Y15186*
X58795Y15239*
X58747Y1548*
X58611Y15685*
X58406Y15821*
X58165Y15869*
G37*
G36*
X5499Y34818D02*
X54821Y34796D01*
X54663Y3473*
X54527Y34626*
X54423Y3449*
X54357Y34332*
X54335Y34162*
Y25163*
X52495Y23323*
X52391Y23187*
X52325Y23029*
X52303Y22859*
X52325Y2269*
X52391Y22532*
X52495Y22396*
X57386Y17505*
X57405Y17356*
X57471Y17198*
X57575Y17062*
X57711Y16958*
X57869Y16892*
X58038Y1687*
X58208Y16892*
X58366Y16958*
X58502Y17062*
X58606Y17198*
X58672Y17356*
X58694Y17525*
Y17779*
X58672Y17949*
X58606Y18107*
X58502Y18243*
X53886Y22859*
X55581Y24555*
X55685Y24691*
X55751Y24849*
X55773Y25018*
X55751Y25188*
X55685Y25346*
X55646Y25397*
Y34162*
X55624Y34332*
X55558Y3449*
X55454Y34626*
X55318Y3473*
X5516Y34796*
X5499Y34818*
G37*
G36*
X25526Y11678D02*
X25286Y1163D01*
X25081Y11494*
X24945Y11289*
X24897Y11048*
X24945Y10808*
X25081Y10603*
X25286Y10467*
X25526Y10419*
X25767Y10467*
X25972Y10603*
X26108Y10808*
X26156Y11048*
X26108Y11289*
X25972Y11494*
X25767Y1163*
X25526Y11678*
G37*
G36*
X40893Y05123D02*
X40619Y05086D01*
X40364Y04981*
X40145Y04812*
X39976Y04593*
X3987Y04338*
X39834Y04063*
X3987Y03789*
X39976Y03534*
X40145Y03315*
X40364Y03146*
X40619Y0304*
X40893Y03004*
X41168Y0304*
X41423Y03146*
X41642Y03315*
X41811Y03534*
X41916Y03789*
X41953Y04063*
X41916Y04338*
X41811Y04593*
X41642Y04812*
X41423Y04981*
X41168Y05086*
X40893Y05123*
G37*
G36*
X09143Y04439D02*
X08903Y04391D01*
X08811Y0433*
X05468*
X05302Y04297*
X05162Y04203*
X04525Y03566*
X04431Y03629*
X0419Y03677*
X0395Y03629*
X03745Y03493*
X03609Y03288*
X03561Y03047*
X03609Y02807*
X03745Y02602*
X0395Y02466*
X0419Y02418*
X04431Y02466*
X04636Y02602*
X04647Y0262*
X04785Y02647*
X04906Y02728*
X04951Y02735*
X05072Y02708*
X05142Y02602*
X05347Y02466*
X05587Y02418*
X05828Y02466*
X06033Y02602*
X06169Y02807*
X06217Y03047*
X06169Y03288*
X06127Y03351*
X06187Y03463*
X08632*
X08698Y03364*
X08903Y03228*
X09143Y0318*
X09384Y03228*
X09589Y03364*
X09725Y03569*
X09773Y03809*
X09725Y0405*
X09589Y04255*
X09384Y04391*
X09143Y04439*
G37*
G36*
X71754Y59098D02*
X7148Y59061D01*
X71225Y58956*
X71006Y58787*
X70837Y58568*
X70731Y58313*
X70695Y58038*
X70731Y57764*
X70837Y57509*
X70864Y57474*
X70831Y57352*
X70717Y57305*
X70498Y57136*
X70329Y56917*
X70223Y56662*
X70187Y56387*
X70223Y56113*
X70329Y55858*
X70498Y55639*
X70717Y5547*
X70972Y55364*
X71246Y55328*
X71521Y55364*
X71776Y5547*
X71995Y55639*
X72164Y55858*
X72269Y56113*
X72306Y56387*
X72269Y56662*
X72164Y56917*
X72137Y56951*
X7217Y57074*
X72284Y57121*
X72503Y5729*
X72672Y57509*
X72777Y57764*
X72814Y58038*
X72777Y58313*
X72672Y58568*
X72503Y58787*
X72284Y58956*
X72029Y59061*
X71754Y59098*
G37*
G36*
X16128Y607D02*
X15888Y60652D01*
X15683Y60516*
X15547Y60311*
X15499Y6007*
X15547Y5983*
X15683Y59626*
X15547Y59422*
X15499Y59181*
X15547Y58941*
X15585Y58884*
X15556Y58865*
X1542Y5866*
X154Y58562*
X15366Y58569*
X15126Y58521*
X14921Y58385*
X14785Y5818*
X14737Y57939*
X14785Y57699*
X14921Y57494*
X15126Y57358*
X15366Y5731*
X15607Y57358*
X15812Y57494*
X15948Y57699*
X15968Y57797*
X16001Y5779*
X16242Y57838*
X16447Y57974*
X16583Y58179*
X16631Y58419*
X16583Y5866*
X16545Y58717*
X16574Y58736*
X1671Y58941*
X16758Y59181*
X1671Y59422*
X16574Y59626*
X1671Y5983*
X16758Y6007*
X1671Y60311*
X16574Y60516*
X16369Y60652*
X16128Y607*
G37*
G36*
X55244Y56001D02*
X55004Y55953D01*
X54799Y55817*
X54663Y55612*
X54615Y55371*
X54663Y55131*
X54799Y54926*
X55004Y5479*
X55244Y54742*
X55485Y5479*
X5569Y54926*
X55826Y55131*
X55874Y55371*
X55826Y55612*
X5569Y55817*
X55485Y55953*
X55244Y56001*
G37*
G36*
X63272Y57893D02*
X62871Y57854D01*
X62484Y57737*
X62128Y57546*
X61816Y5729*
X6156Y56978*
X61369Y56622*
X61252Y56235*
X61213Y55833*
X61252Y55432*
X61369Y55045*
X6156Y54689*
X61816Y54377*
X62128Y54121*
X62484Y5393*
X62871Y53813*
X63272Y53774*
X63674Y53813*
X64061Y5393*
X64417Y54121*
X64729Y54377*
X64985Y54689*
X65176Y55045*
X65293Y55432*
X65332Y55833*
X65293Y56235*
X65176Y56622*
X64985Y56978*
X64729Y5729*
X64417Y57546*
X64061Y57737*
X63674Y57854*
X63272Y57893*
G37*
G36*
X4864Y76891D02*
X48208Y76849D01*
X47793Y76722*
X47409Y76518*
X47074Y76242*
X46798Y75906*
X46593Y75523*
X46467Y75108*
X46425Y74675*
X46467Y74243*
X46593Y73828*
X46798Y73444*
X47074Y73109*
X47409Y72833*
X47793Y72628*
X48208Y72502*
X4864Y7246*
X49073Y72502*
X49488Y72628*
X49871Y72833*
X50207Y73109*
X50483Y73444*
X50687Y73828*
X50814Y74243*
X50856Y74675*
X50814Y75108*
X50687Y75523*
X50483Y75906*
X50207Y76242*
X49871Y76518*
X49488Y76722*
X49073Y76849*
X4864Y76891*
G37*
G36*
X21589D02*
X21157Y76849D01*
X20742Y76722*
X20358Y76518*
X20023Y76242*
X19747Y75906*
X19542Y75523*
X19416Y75108*
X19374Y74675*
X19416Y74243*
X19542Y73828*
X19747Y73444*
X20023Y73109*
X20358Y72833*
X20742Y72628*
X21157Y72502*
X21589Y7246*
X22022Y72502*
X22437Y72628*
X2282Y72833*
X23156Y73109*
X23432Y73444*
X23636Y73828*
X23763Y74243*
X23805Y74675*
X23763Y75108*
X23636Y75523*
X23432Y75906*
X23156Y76242*
X2282Y76518*
X22437Y76722*
X22022Y76849*
X21589Y76891*
G37*
G36*
X35178D02*
X34746Y76849D01*
X34331Y76722*
X33947Y76518*
X33612Y76242*
X33336Y75906*
X33131Y75523*
X33005Y75108*
X32963Y74675*
X33005Y74243*
X33131Y73828*
X33336Y73444*
X33612Y73109*
X33947Y72833*
X34331Y72628*
X34746Y72502*
X35178Y7246*
X35611Y72502*
X36026Y72628*
X36409Y72833*
X36745Y73109*
X37021Y73444*
X37225Y73828*
X37352Y74243*
X37394Y74675*
X37352Y75108*
X37225Y75523*
X37021Y75906*
X36745Y76242*
X36409Y76518*
X36026Y76722*
X35611Y76849*
X35178Y76891*
G37*
G36*
X54609Y71114D02*
X54369Y71066D01*
X54164Y7093*
X54156Y70918*
X52704*
X52539Y70885*
X52398Y70791*
X50874Y69267*
X412*
X4059Y69877*
X40671Y69975*
X4078Y69903*
X4102Y69855*
X41261Y69903*
X41466Y70039*
X41602Y70244*
X4165Y70484*
X41602Y70725*
X41466Y7093*
X41261Y71066*
X4102Y71114*
X4078Y71066*
X40575Y7093*
X40439Y70725*
X40391Y70484*
X40439Y70244*
X40511Y70135*
X40413Y70054*
X3993Y70537*
X39789Y70631*
X39623Y70664*
X30098*
X29933Y70631*
X29792Y70537*
X26871Y67616*
X26777Y67475*
X26744Y67309*
Y55571*
X26732Y55563*
X26596Y55358*
X26562Y55186*
X26427Y5516*
X26412Y55182*
X26208Y55318*
X25967Y55366*
X25726Y55318*
X25522Y55182*
X25385Y54977*
X25337Y54736*
X25385Y54496*
X25522Y54291*
X25726Y54155*
X25967Y54107*
X26208Y54155*
X26412Y54291*
X26548Y54496*
X26583Y54667*
X26718Y54694*
X26732Y54672*
X26937Y54536*
X27177Y54488*
X27418Y54536*
X27539Y54616*
X27633Y54527*
Y50981*
X27535Y509*
X27431Y50921*
X27191Y50873*
X26986Y50737*
X2685Y50532*
X26802Y50291*
X2685Y50051*
X26986Y49846*
X27191Y4971*
X27431Y49662*
X27647Y49705*
X27666Y4961*
X2776Y49469*
X29871Y47358*
X30012Y47264*
X30178Y47231*
X34028*
X34194Y47264*
X34334Y47358*
X34802Y47826*
X35868*
X35876Y47814*
X36081Y47678*
X36321Y4763*
X36562Y47678*
X36767Y47814*
X36903Y48019*
X36951Y48259*
X36903Y485*
X36849Y48581*
X36884Y48739*
X37021Y4883*
X37157Y49035*
X37205Y49275*
X37157Y49516*
X37055Y4967*
X37146Y49762*
X37224Y4971*
X37464Y49662*
X37705Y4971*
X3791Y49846*
X3795*
X38035Y49719*
X3824Y49583*
X3848Y49535*
X38721Y49583*
X38926Y49719*
X39062Y49924*
X39088Y50052*
X39113Y50061*
X3922Y50066*
X39339Y49887*
X39543Y49751*
X39784Y49703*
X40025Y49751*
X40229Y49887*
X40366Y50092*
X40414Y50333*
X40366Y50574*
X40229Y50778*
X40025Y50914*
X39784Y50962*
X39543Y50914*
X39339Y50778*
X39203Y50574*
X39177Y50445*
X39152Y50436*
X39045Y50431*
X38926Y5061*
X38721Y50746*
X3848Y50794*
X3824Y50746*
X38035Y5061*
X37994*
X3791Y50737*
X37743Y50848*
X37708Y50992*
X3964Y52925*
X40037*
X40202Y52958*
X40343Y53052*
X40927Y53636*
X41021Y53777*
X41054Y53942*
Y54339*
X41076Y54361*
X41387*
X41552Y54394*
X41656Y54463*
X41683Y54457*
X41849Y5449*
X41989Y54584*
X4209Y54685*
X42121Y54682*
X42142Y54664*
X42207Y54546*
X42169Y54355*
X42217Y54115*
X42353Y5391*
X42558Y53774*
X42798Y53726*
X43039Y53774*
X43244Y5391*
X4338Y54115*
X43428Y54355*
X4338Y54596*
X43244Y54801*
X43039Y54937*
X42798Y54985*
X42757Y54977*
X42687Y55082*
X42729Y55146*
X42777Y55387*
X42729Y55628*
X42593Y55832*
X42389Y55969*
X42148Y56017*
X41907Y55969*
X41702Y55832*
X41566Y55628*
X41518Y55387*
X41522Y55366*
X4136Y55333*
X41219Y55239*
X41207Y55227*
X40896*
X40731Y55194*
X4059Y551*
X40461Y54972*
X40221Y55212*
X40253Y55371*
X40205Y55612*
X40069Y55817*
X39864Y55953*
X39623Y56001*
X39383Y55953*
X39178Y55817*
X39042Y55612*
X38994Y55371*
X39042Y55131*
X39168Y54941*
X39151Y54876*
X39117Y54814*
X35839*
X3499Y55663*
X34842Y55763*
X34666Y55798*
X31942*
X3158Y5616*
Y56303*
X31545Y56478*
X31445Y56627*
X30846Y57226*
X30697Y57326*
X30522Y57361*
X30379*
X29588Y58152*
Y65171*
X29628Y65212*
X29728Y6536*
X29763Y65536*
Y66326*
X29728Y66502*
X29628Y6665*
X28818Y67461*
X28791Y67598*
X28787Y67616*
X28907Y67666*
X28919Y67648*
X29018Y67499*
X29223Y67363*
X29463Y67315*
X29704Y67363*
X29909Y67499*
X30045Y67704*
X30093Y67944*
X30045Y68185*
X29909Y6839*
X29704Y68526*
X29463Y68574*
X29223Y68526*
X29114Y68454*
X29033Y68552*
X30278Y69797*
X39444*
X40714Y68527*
X40855Y68433*
X4102Y684*
X51053*
X51219Y68433*
X5136Y68527*
X52884Y70051*
X54156*
X54164Y70039*
X54369Y69903*
X54609Y69855*
X5485Y69903*
X55055Y70039*
X55191Y70244*
X55239Y70484*
X55191Y70725*
X55055Y7093*
X5485Y71066*
X54609Y71114*
G37*
G36*
X40893Y67177D02*
X40653Y67129D01*
X40448Y66993*
X40312Y66788*
X40264Y66547*
X40312Y66307*
X40448Y66102*
X40653Y65966*
X40893Y65918*
X41134Y65966*
X41339Y66102*
X41475Y66307*
X41523Y66547*
X41475Y66788*
X41339Y66993*
X41134Y67129*
X40893Y67177*
G37*
G36*
X63272Y72893D02*
X62871Y72854D01*
X62484Y72737*
X62128Y72546*
X61816Y7229*
X6156Y71978*
X61369Y71622*
X61252Y71235*
X61213Y70833*
X61252Y70432*
X61369Y70045*
X6156Y69689*
X61816Y69377*
X62128Y69121*
X62484Y6893*
X62871Y68813*
X63272Y68774*
X63674Y68813*
X64061Y6893*
X64417Y69121*
X64729Y69377*
X64985Y69689*
X65176Y70045*
X65293Y70432*
X65332Y70833*
X65293Y71235*
X65176Y71622*
X64985Y71978*
X64729Y7229*
X64417Y72546*
X64061Y72737*
X63674Y72854*
X63272Y72893*
G37*
G36*
X42671Y74085D02*
X42463Y74058D01*
X42268Y73977*
X42243Y73958*
X41213*
X41147Y73971*
X41082Y73958*
X39115*
X38907Y73931*
X38712Y7385*
X38545Y73722*
X38417Y73555*
X38336Y7336*
X38309Y73151*
X38336Y72943*
X38417Y72748*
X38545Y72581*
X38712Y72453*
X38907Y72372*
X39115Y72345*
X42544*
X42753Y72372*
X42948Y72453*
X43115Y72581*
X43242Y72708*
X4337Y72875*
X43451Y7307*
X43478Y73278*
X43451Y73487*
X4337Y73682*
X43242Y73849*
X43075Y73977*
X4288Y74058*
X42671Y74085*
G37*
G36*
X25272Y48889D02*
X25032Y48841D01*
X24827Y48705*
X24691Y485*
X24643Y48259*
X24691Y48019*
X24827Y47814*
X25032Y47678*
X25272Y4763*
X25513Y47678*
X25718Y47814*
X25854Y48019*
X25902Y48259*
X25854Y485*
X25718Y48705*
X25513Y48841*
X25272Y48889*
G37*
G36*
X7658Y76764D02*
X76148Y76722D01*
X75733Y76595*
X75349Y76391*
X75014Y76115*
X74738Y75779*
X74533Y75396*
X74485Y75237*
X74358*
X74309Y75396*
X74105Y75779*
X73829Y76115*
X73493Y76391*
X7311Y76595*
X72695Y76722*
X72262Y76764*
X7183Y76722*
X71415Y76595*
X71031Y76391*
X70696Y76115*
X7042Y75779*
X70215Y75396*
X70089Y74981*
X70047Y74548*
X70089Y74116*
X70215Y73701*
X7042Y73317*
X70696Y72982*
X71031Y72706*
X71415Y72501*
X7183Y72375*
X72262Y72333*
X72695Y72375*
X7311Y72501*
X73493Y72706*
X73829Y72982*
X74105Y73317*
X74309Y73701*
X74358Y7386*
X74485*
X74533Y73701*
X74738Y73317*
X75014Y72982*
X75349Y72706*
X75733Y72501*
X76148Y72375*
X7658Y72333*
X77013Y72375*
X77428Y72501*
X77811Y72706*
X78147Y72982*
X78423Y73317*
X78627Y73701*
X78754Y74116*
X78796Y74548*
X78754Y74981*
X78627Y75396*
X78423Y75779*
X78147Y76115*
X77811Y76391*
X77428Y76595*
X77013Y76722*
X7658Y76764*
G37*
G36*
X5753Y4419D02*
X5729Y44142D01*
X57085Y44006*
X56949Y43801*
X56901Y4356*
X56949Y4332*
X57085Y43115*
X5729Y42979*
X5753Y42931*
X57771Y42979*
X57976Y43115*
X58112Y4332*
X5816Y4356*
X58112Y43801*
X57976Y44006*
X57771Y44142*
X5753Y4419*
G37*
G36*
X39028Y49103D02*
X38787Y49055D01*
X38583Y48919*
X38447Y48714*
X38399Y48473*
X38447Y48233*
X38583Y48028*
X38787Y47892*
X38824Y47884*
X4103Y45679*
X41212Y45557*
X41427Y45514*
X42501*
X42685Y45392*
X42925Y45344*
X43166Y45392*
X43371Y45528*
X43507Y45733*
X43555Y45973*
X43507Y46214*
X43371Y46419*
X43166Y46555*
X43065Y46575*
X43038Y46593*
X42824Y46636*
X41659*
X39617Y48678*
X3961Y48714*
X39474Y48919*
X39269Y49055*
X39028Y49103*
G37*
G36*
X4132Y50962D02*
X41079Y50914D01*
X40874Y50778*
X40738Y50574*
X4069Y50333*
X40738Y50092*
X40874Y49887*
X41079Y49751*
X4132Y49703*
X4156Y49751*
X41765Y49887*
X41901Y50092*
X41949Y50333*
X41901Y50574*
X41765Y50778*
X4156Y50914*
X4132Y50962*
G37*
G36*
X57403Y57458D02*
X57159Y57425D01*
X56932Y57331*
X56737Y57181*
X56587Y56986*
X56493Y56759*
X5646Y56514*
X56493Y5627*
X56587Y56043*
X5669Y55909*
X56725Y55816*
X5669Y55723*
X56587Y55589*
X56493Y55362*
X5646Y55117*
X56493Y54873*
X56587Y54646*
X5669Y54512*
X56725Y54419*
X5669Y54326*
X56587Y54192*
X56493Y53965*
X5646Y5372*
X56493Y53476*
X56587Y53249*
X56737Y53054*
X56932Y52904*
X57159Y5281*
X57403Y52777*
X57648Y5281*
X57875Y52904*
X5807Y53054*
X5822Y53249*
X58314Y53476*
X58347Y5372*
X58314Y53965*
X5822Y54192*
X58117Y54326*
X58082Y54419*
X58117Y54512*
X5822Y54646*
X58314Y54873*
X58347Y55117*
X58314Y55362*
X5822Y55589*
X58117Y55723*
X58082Y55816*
X58117Y55909*
X5822Y56043*
X58314Y5627*
X58347Y56514*
X58314Y56759*
X5822Y56986*
X5807Y57181*
X57875Y57331*
X57648Y57425*
X57403Y57458*
G37*
G36*
X25967Y50962D02*
X25726Y50914D01*
X25522Y50778*
X25385Y50574*
X25337Y50333*
X25385Y50092*
X25522Y49887*
X25726Y49751*
X25967Y49703*
X26208Y49751*
X26412Y49887*
X26548Y50092*
X26596Y50333*
X26548Y50574*
X26412Y50778*
X26208Y50914*
X25967Y50962*
G37*
G36*
X08635Y59684D02*
X08395Y59636D01*
X0819Y595*
X08054Y59295*
X08006Y59054*
X08054Y58814*
X0819Y58609*
X08395Y58473*
X08596Y58433*
X08746Y58283*
X08701Y58148*
X08522Y58112*
X08317Y57976*
X08181Y57771*
X08133Y5753*
X08181Y5729*
X08317Y57085*
X08522Y56949*
X08762Y56901*
X08852Y56919*
X23544Y42227*
Y37546*
X23432Y37487*
X23354Y37538*
X23113Y37586*
X22873Y37538*
X22668Y37402*
X22537Y37206*
X22515Y37186*
X22409Y37154*
X22298Y37266*
X22149Y37365*
X21973Y374*
X21357*
X21182Y37365*
X21156Y37348*
X21039Y37397*
X21028Y37451*
X20892Y37656*
X20687Y37792*
X20446Y3784*
X20206Y37792*
X20001Y37656*
X19865Y37451*
X19817Y3721*
X19865Y3697*
X20001Y36765*
X20168Y36654*
X20118Y36534*
X19938Y3657*
X19698Y36522*
X19493Y36386*
X19357Y36181*
X19309Y3594*
X19357Y357*
X19493Y35495*
X19698Y35359*
X19938Y35311*
X20179Y35359*
X20366Y35484*
X20532Y35517*
X20681Y35616*
X21068Y36003*
X21195Y35991*
X21271Y35876*
X21283Y35868*
Y30686*
X21316Y3052*
X2141Y30379*
X22521Y29268*
X22541Y29147*
X22405Y28942*
X22357Y28701*
X22405Y28461*
X22541Y28256*
X22553Y28248*
Y2583*
X22472Y25775*
X22335Y25571*
X22287Y2533*
X22335Y25089*
X22458Y24905*
Y24568*
X22493Y24392*
X22593Y24243*
X2264Y24196*
Y24063*
X22545Y23968*
X22055*
X20267Y25756*
X20119Y25856*
X19943Y25891*
X18863*
X18761Y26018*
X1879Y26161*
X18755Y26336*
X18782Y26342*
X18987Y26478*
X19123Y26683*
X19171Y26923*
X19123Y27164*
X18987Y27369*
X18782Y27505*
X18541Y27553*
X18301Y27505*
X18117Y27382*
X17349*
Y34624*
X17476Y34711*
X17652Y34676*
X17893Y34724*
X18098Y3486*
X18234Y35065*
X18282Y35305*
X18234Y35546*
X18111Y3573*
Y40131*
X18076Y40307*
X17977Y40456*
X12054Y46379*
X12011Y46595*
X11888Y46779*
Y47307*
X13012Y48431*
X13207Y48392*
X13448Y4844*
X13653Y48576*
X13789Y48781*
X13837Y49021*
X13789Y49262*
X13653Y49467*
X13448Y49603*
X13207Y49651*
X12967Y49603*
X12762Y49467*
X12724Y49409*
X12629Y49346*
X11105Y47822*
X11006Y47673*
X10971Y47497*
Y46779*
X10944Y46739*
X10817Y46726*
X0773Y49814*
Y50273*
X08818Y51361*
X08917Y5151*
X08952Y51686*
Y52199*
X08917Y52375*
X08818Y52524*
X07697Y53644*
Y56979*
X0782Y57163*
X07868Y57403*
X0782Y57644*
X07684Y57849*
X07479Y57985*
X07238Y58033*
X06998Y57985*
X06793Y57849*
X06657Y57644*
X06609Y57403*
X06657Y57163*
X0678Y56979*
Y53454*
X06815Y53279*
X06914Y5313*
X07494Y5255*
X07482Y52423*
X07428Y52388*
X07292Y52183*
X07244Y51942*
X07292Y51702*
X07428Y51497*
X07482Y51462*
X07494Y51335*
X06947Y50788*
X06847Y50639*
X06812Y50463*
Y49624*
X06847Y49448*
X06947Y49299*
X07287Y48959*
X07282Y48942*
X07236Y48831*
X07047Y48705*
X06911Y485*
X06863Y48259*
X06911Y48019*
X0701Y47871*
X07002Y47832*
X06949Y47739*
X06744Y47698*
X06539Y47562*
X06403Y47357*
X06355Y47116*
X06403Y46876*
X06539Y46671*
X06744Y46535*
X06984Y46487*
X0703Y46496*
X07111Y4648*
X07307Y46518*
X0731Y4652*
X07329Y46511*
X07412Y46436*
X07371Y46227*
X07419Y45987*
X07555Y45782*
X0776Y45646*
X08Y45598*
X08241Y45646*
X08446Y45782*
X08582Y45987*
X0863Y46227*
X08582Y46468*
X08446Y46673*
X08354Y46734*
X08393Y46861*
X08603*
X15878Y39585*
Y26897*
X1585Y26874*
X14521*
X14337Y26997*
X14096Y27045*
X13856Y26997*
X13651Y26861*
X13515Y26656*
X13472Y2644*
X13264Y26232*
X13165Y26083*
X1313Y25907*
Y22872*
X13016Y22797*
X1288Y22592*
X12832Y22351*
X1288Y22111*
X13016Y21906*
X13221Y2177*
X13461Y21722*
X13702Y2177*
X13742Y21796*
X13764Y21801*
X13913Y219*
X14012Y22049*
X14017Y22071*
X14043Y22111*
X14091Y22351*
X14047Y22572*
Y25717*
X1412Y25791*
X14337Y25834*
X14521Y25957*
X1566*
X16509Y25108*
X16658Y25008*
X16834Y24973*
X19753*
X21541Y23185*
X2169Y23086*
X21865Y23051*
X22735*
X22911Y23086*
X2306Y23185*
X23423Y23548*
X23522Y23697*
X23557Y23873*
Y24386*
X23522Y24562*
X23423Y24711*
X23389Y24744*
X23408Y24871*
X23792*
X25188Y23475*
X25147Y23337*
X25032Y23314*
X24827Y23178*
X24691Y22973*
X24643Y22732*
X24671Y22589*
X24557Y22512*
X24497Y22552*
X24256Y226*
X24016Y22552*
X23811Y22416*
X23675Y22211*
X23627Y2197*
X23675Y2173*
X23811Y21525*
X23954Y2143*
X23916Y21303*
X1701*
X17002Y21308*
X16827Y21343*
X10597*
X10421Y21308*
X10272Y21208*
X08061Y18997*
X07887*
X07839Y19114*
X09139Y20415*
X09238Y20563*
X09261Y20677*
X10603Y2202*
X111*
X11189Y2196*
X11429Y21912*
X1167Y2196*
X11875Y22097*
X12011Y22301*
X12059Y22542*
X12011Y22783*
X11875Y22987*
X1167Y23124*
X11429Y23171*
X11189Y23124*
X10984Y22987*
X10951Y22937*
X10413*
X10238Y22902*
X10171Y22858*
X10044Y22926*
Y24576*
X10009Y24752*
X10002Y24763*
X09979Y24878*
X09843Y25083*
X09638Y25219*
X09397Y25267*
X09157Y25219*
X08952Y25083*
X08816Y24878*
X08768Y24637*
X08816Y24397*
X08952Y24192*
X09127Y24076*
Y2248*
X08267Y21621*
X08187Y21628*
X07983Y21765*
X07742Y21813*
X07501Y21765*
X07297Y21628*
X07289Y21616*
X063*
X03696Y24221*
X03758Y24338*
X03876Y24315*
X04117Y24363*
X04321Y24499*
X04457Y24703*
X04505Y24944*
X04457Y25185*
X04321Y2539*
X04117Y25526*
X03876Y25574*
X03635Y25526*
X03431Y2539*
X03423Y25378*
X03227*
X03062Y25345*
X02921Y25251*
X02487Y24817*
X02393Y24676*
X0236Y2451*
X02393Y24345*
X02487Y24204*
X05756Y20935*
X05715Y20797*
X05601Y20774*
X05396Y20638*
X0526Y20433*
X05212Y20192*
X0526Y19952*
X05396Y19747*
X05601Y19611*
X05841Y19563*
X05933Y19581*
X05996Y19464*
X05842Y1931*
X05742Y19161*
X05707Y18986*
Y11137*
X05742Y10961*
X05842Y10813*
X06029Y10625*
X0598Y10508*
X05948*
X05773Y10473*
X05734Y10481*
X05652Y10605*
X05447Y10741*
X05206Y10789*
X04966Y10741*
X04761Y10605*
X04678Y10481*
X0464Y10473*
X04465Y10508*
X03938*
X03874Y10605*
X03669Y10741*
X03428Y10789*
X03188Y10741*
X02983Y10605*
X02949Y10553*
X0278Y10529*
X02653Y10614*
X02412Y10662*
X02172Y10614*
X01967Y10478*
X01831Y10273*
X01783Y10032*
X01831Y09792*
X01967Y09587*
X02148Y09467*
X0243Y09185*
X0248Y09151*
X02466Y0913*
X02418Y08889*
X02466Y08649*
X02602Y08444*
X02807Y08308*
X03047Y0826*
X03288Y08308*
X03493Y08444*
X03629Y08649*
X03677Y08889*
X03665Y08952*
X03745Y09051*
X0415*
X04438Y08763*
X04587Y08663*
X04762Y08628*
X05651*
X05826Y08663*
X05975Y08763*
X0635Y09138*
X14899*
X1773Y06307*
X1778Y06233*
X18408Y05605*
X18557Y05505*
X18732Y0547*
X26975*
X2715Y05505*
X27299Y05605*
X28891Y07197*
X30635*
X30711Y0707*
X30631Y06878*
X30595Y06603*
X30631Y06329*
X30737Y06074*
X30905Y05855*
X31125Y05686*
X3138Y0558*
X31654Y05544*
X31928Y0558*
X32184Y05686*
X32403Y05855*
X32571Y06074*
X32677Y06329*
X32713Y06603*
X32677Y06878*
X32597Y0707*
X32673Y07197*
X3712*
X37295Y07232*
X37444Y07331*
X40283Y1017*
X40499Y10213*
X40704Y10349*
X4084Y10554*
X40888Y10794*
X4084Y11035*
X40704Y1124*
X40499Y11376*
X40258Y11424*
X40018Y11376*
X39813Y1124*
X3975Y11146*
X39623*
X39561Y1124*
X39356Y11376*
X39115Y11424*
X38875Y11376*
X3867Y1124*
X38534Y11035*
X38491Y10818*
X36239Y08567*
X28514*
X28338Y08532*
X2819Y08433*
X26597Y0684*
X21439*
X21379Y06952*
X21409Y06998*
X21457Y07238*
X21409Y07479*
X21273Y07684*
X21068Y0782*
X20852Y07863*
X20771Y07944*
X20622Y08043*
X20446Y08078*
X19658*
X18555Y09181*
X18567Y09308*
X18606Y09333*
X18742Y09538*
X1879Y09778*
X18742Y10019*
X18606Y10224*
X18401Y1036*
X1816Y10408*
X1792Y1036*
X17715Y10224*
X1768Y1017*
X17553Y10158*
X16433Y11278*
X16284Y11378*
X16108Y11413*
X09084*
X08982Y1154*
X09011Y11683*
X08975Y11863*
X09341Y12229*
X0944Y12378*
X09475Y12553*
Y13415*
X09602Y13502*
X09778Y13467*
X09935Y13498*
X09946Y13496*
X10351*
X10431Y13398*
X10419Y13334*
X10467Y13094*
X10603Y12889*
X10808Y12753*
X11048Y12705*
X11289Y12753*
X11494Y12889*
X11514Y12891*
X11614Y12791*
X11755Y12697*
X1192Y12664*
X12692*
X1278Y12682*
X13508*
X13596Y12664*
X1698*
X17146Y12697*
X17286Y12791*
X19314Y14819*
X19452Y14777*
X19484Y14618*
X1962Y14413*
X19825Y14277*
X20065Y14229*
X20306Y14277*
X20511Y14413*
X20647Y14618*
X20695Y14858*
X20647Y15099*
X20511Y15304*
X20306Y1544*
X20147Y15472*
X20105Y1561*
X2273Y18235*
X2725*
X2733Y18137*
X2731Y18033*
X27358Y17793*
X27494Y17588*
X27699Y17452*
X27939Y17404*
X2818Y17452*
X28385Y17588*
X28521Y17793*
X28569Y18033*
X28548Y18137*
X28629Y18235*
X32257*
X32423Y18268*
X32564Y18362*
X33637Y19436*
X33731Y19576*
X33753Y19683*
X33887Y19728*
X36128Y17487*
X3612Y1736*
X36112Y17354*
X36008Y17218*
X35942Y1706*
X35922Y16911*
X33129Y14117*
X2832*
X28151Y14095*
X27993Y14029*
X27857Y13925*
X27753Y13789*
X27687Y13631*
X27665Y13461*
X27687Y13292*
X27753Y13134*
X27857Y12998*
X27993Y12894*
X28151Y12828*
X2832Y12806*
X334*
X3357Y12828*
X33728Y12894*
X33864Y12998*
X37039Y16173*
X37136Y16299*
X3715Y1631*
X37288Y16327*
X41184Y12431*
X41325Y12337*
X4149Y12304*
X41857*
Y07281*
X4173Y07238*
X41642Y07352*
X41423Y07521*
X41168Y07626*
X40893Y07663*
X40619Y07626*
X40364Y07521*
X40145Y07352*
X39976Y07133*
X3987Y06878*
X39834Y06603*
X3987Y06329*
X39976Y06074*
X40145Y05855*
X40364Y05686*
X40619Y0558*
X40893Y05544*
X41168Y0558*
X41423Y05686*
X41544Y05779*
X41661Y05714*
X41709Y05474*
X41845Y05269*
X4205Y05133*
X4229Y05085*
X42531Y05133*
X42736Y05269*
X42744Y05281*
X49477*
X53602Y01156*
X53599Y01142*
X53647Y00902*
X53783Y00697*
X53988Y00561*
X54228Y00513*
X54469Y00561*
X54674Y00697*
X5481Y00902*
X54858Y01142*
X5481Y01383*
X54674Y01588*
X54469Y01724*
X54228Y01772*
X54214Y01769*
X49963Y06021*
X49822Y06115*
X49656Y06148*
X42744*
X42736Y0616*
X42724Y06168*
Y12304*
X43932*
X44098Y12337*
X44238Y12431*
X51233Y19426*
X51327Y19566*
X5136Y19732*
Y28418*
X51487Y28493*
X51688Y28453*
X51929Y28501*
X52134Y28637*
X5227Y28842*
X52318Y29082*
X5227Y29323*
X52134Y29528*
X51929Y29664*
X51688Y29712*
X51487Y29672*
X5136Y29747*
Y35741*
X51372Y35749*
X51508Y35954*
X51556Y36194*
X51508Y36435*
X51372Y3664*
X5136Y36648*
Y46608*
X51343Y46692*
X51381Y46749*
X51429Y46989*
X51381Y4723*
X51245Y47435*
X5104Y47571*
X50799Y47619*
X50559Y47571*
X50354Y47435*
X50218Y4723*
X5017Y46989*
X50218Y46749*
X50354Y46544*
X50466Y4647*
X50493Y46429*
X50493Y46429*
Y36648*
X50481Y3664*
X50345Y36435*
X50299Y36207*
X49283*
X49117Y36174*
X48977Y3608*
X47747Y3485*
X42744*
X42736Y34862*
X42531Y34998*
X4229Y35046*
X4205Y34998*
X41845Y34862*
X41709Y34657*
X41661Y34416*
X41709Y34176*
X41845Y33971*
X4205Y33835*
X4229Y33787*
X42531Y33835*
X42736Y33971*
X42744Y33983*
X47926*
X48092Y34016*
X48233Y3411*
X49463Y3534*
X50493*
Y19912*
X48557Y17975*
X48552Y17977*
X48459Y18058*
X4846Y18061*
X48508Y18301*
X48486Y18413*
X49258Y19185*
X49379Y19367*
X49422Y19582*
Y20271*
X4952Y20352*
X49656Y20325*
X49897Y20373*
X50102Y20509*
X50238Y20714*
X50286Y20954*
X50238Y21195*
X50102Y214*
X49897Y21536*
X4975Y21566*
X4973Y21663*
X49594Y21867*
X49389Y22004*
X49148Y22052*
X48908Y22004*
X48703Y21867*
X48567Y21663*
X48538Y21518*
X48465Y21445*
X48422Y21441*
X47703Y2216*
X47708Y22177*
X47754Y22288*
X47943Y22414*
X48079Y22619*
X48127Y22859*
X48079Y231*
X47943Y23305*
X47738Y23441*
X47497Y23489*
X47257Y23441*
X47052Y23305*
X46926Y23116*
X46815Y2307*
X46798Y23065*
X46679Y23184*
X4653Y23283*
X46354Y23318*
X46303*
X37971Y3165*
X37983Y31777*
X38037Y31812*
X38173Y32017*
X38221Y32257*
X38173Y32498*
X3805Y32682*
Y3269*
X42097Y36737*
X4235*
X42438Y36719*
X42512*
X42687Y36754*
X42836Y36853*
X49727Y43744*
X49826Y43893*
X49861Y44068*
Y44914*
X49984Y45098*
X50032Y45338*
X49984Y45579*
X49848Y45784*
X49643Y4592*
X49402Y45968*
X49162Y4592*
X48957Y45784*
X48894Y4569*
X48767*
X48705Y45784*
X485Y4592*
X48259Y45968*
X48019Y4592*
X47814Y45784*
X47678Y45579*
X47674Y4556*
X47557Y45555*
X47544Y45557*
X47409Y45758*
X47205Y45895*
X46964Y45943*
X46723Y45895*
X46608Y45818*
X46546Y45911*
X46341Y46047*
X461Y46095*
X4586Y46047*
X45655Y45911*
X45519Y45706*
X45471Y45465*
X45494Y45347*
X4539Y4522*
X43286*
X4311Y45185*
X42961Y45086*
X42862Y44937*
X42827Y44761*
Y42333*
X4222Y41726*
X42121Y41577*
X42086Y41401*
Y40717*
X26115*
X26108Y40753*
X25972Y40958*
X25767Y41094*
X25526Y41142*
X25286Y41094*
X25081Y40958*
X25041Y40897*
X24914Y40935*
Y43223*
X24879Y43398*
X24779Y43547*
X09263Y59063*
X09217Y59295*
X09081Y595*
X08876Y59636*
X08635Y59684*
G37*
G36*
X43179Y49778D02*
X42939Y4973D01*
X42734Y49594*
X42598Y49389*
X42463Y49363*
X4229Y49397*
X4205Y49349*
X41845Y49213*
X41709Y49008*
X41661Y48767*
X41709Y48527*
X41845Y48322*
X4205Y48186*
X4229Y48138*
X42531Y48186*
X42736Y48322*
X42872Y48527*
X43007Y48553*
X43179Y48519*
X4342Y48567*
X43625Y48703*
X43761Y48908*
X43809Y49148*
X43761Y49389*
X43625Y49594*
X4342Y4973*
X43179Y49778*
G37*
%LNninja_ecu_pcb-3*%
%LPD*%
G36*
X25081Y40067D02*
X25286Y39931D01*
X25526Y39883*
X25531Y39884*
X25605Y39835*
X2578Y398*
X41906*
X41954Y39682*
X3923Y36958*
X391Y37007*
X39062Y37197*
X38926Y37402*
X38721Y37538*
X3848Y37586*
X38436Y37577*
X3841Y3771*
X38273Y37915*
X38069Y38051*
X37828Y38099*
X37587Y38051*
X37383Y37915*
X37246Y3771*
X37198Y37469*
X37231Y37305*
X37127Y37196*
X37083Y37205*
X36843Y37157*
X36638Y37021*
X36502Y36816*
X36454Y36575*
X36502Y36335*
X36638Y3613*
X36843Y35994*
X37083Y35946*
X37324Y35994*
X37529Y3613*
X37665Y36335*
X37713Y36575*
X37685Y36714*
X37777Y36806*
X37885Y36783*
X37899Y36716*
X38035Y36511*
X3824Y36375*
X3843Y36337*
X38479Y36207*
X34281Y32009*
X34155Y32021*
X34082Y32129*
X33878Y32266*
X33724Y32297*
X33682Y32434*
X33961Y32713*
X34055Y32854*
X34088Y33019*
Y36239*
X34215Y36306*
X34303Y36248*
X34543Y362*
X34784Y36248*
X34989Y36384*
X35125Y36589*
X35173Y36829*
X35125Y3707*
X34989Y37275*
X34784Y37411*
X34543Y37459*
X34303Y37411*
X34099Y37275*
X3394Y37381*
X33987Y37617*
X33939Y37858*
X33803Y38062*
X33599Y38199*
X33358Y38246*
X33117Y38199*
X32913Y38062*
X32776Y37858*
X32728Y37617*
X32729Y37611*
X3261Y37578*
X32474Y37783*
X32269Y37919*
X32028Y37967*
X31788Y37919*
X31583Y37783*
X31447Y37578*
X31399Y37337*
X31402Y37322*
X31335Y37276*
X31285Y37259*
X31094Y37387*
X30853Y37435*
X30612Y37387*
X30408Y37251*
X30271Y37046*
X30223Y36805*
X30271Y36564*
X30408Y3636*
X30612Y36224*
X30853Y36176*
X31094Y36224*
X31298Y3636*
X31435Y36564*
X31483Y36805*
X3148Y3682*
X31546Y36867*
X31596Y36883*
X31788Y36756*
X32028Y36708*
X32179Y36738*
X32184Y36716*
X3232Y36511*
X32525Y36375*
X32765Y36327*
X33006Y36375*
X33127Y36455*
X33221Y36366*
Y33649*
X33094Y33636*
X33093Y33641*
X32957Y33846*
X32752Y33982*
X32511Y3403*
X32271Y33982*
X32066Y33846*
X32016Y3377*
X31889Y33855*
X31648Y33903*
X31407Y33855*
X31203Y33719*
X31066Y33514*
X31044Y33404*
X31031Y33407*
X30825Y33366*
X30739Y33429*
X30715Y33461*
X30728Y33527*
X3068Y33768*
X30544Y33973*
X30339Y34109*
X30098Y34157*
X29858Y34109*
X29653Y33973*
X29517Y33768*
X29469Y33527*
X29517Y33287*
X29653Y33082*
X2978Y32997*
Y32957*
X29644Y32752*
X29596Y32511*
X29599Y32497*
X2903Y31929*
X27123*
X27115Y31941*
X2691Y32077*
X26669Y32125*
X26429Y32077*
X26224Y31941*
X26088Y31736*
X2604Y31495*
X26088Y31255*
X26224Y3105*
X26429Y30914*
X26669Y30866*
X2691Y30914*
X27115Y3105*
X27123Y31062*
X29209*
X29375Y31095*
X29516Y31189*
X30211Y31885*
X30225Y31882*
X30466Y3193*
X30671Y32066*
X30767Y32211*
X3079Y32195*
X31031Y32147*
X31272Y32195*
X31476Y32332*
X31612Y32536*
X31634Y32647*
X31648Y32644*
X31889Y32692*
X32093Y32828*
X32143Y32904*
X32271Y32819*
X32511Y32771*
X32639Y32796*
X32701Y32679*
X32586Y32564*
X32492Y32423*
X32459Y32257*
Y30834*
X32157Y30531*
X32063Y30391*
X3203Y30225*
Y28627*
X28982Y25579*
X27885*
X27877Y25591*
X27672Y25727*
X27431Y25775*
X27191Y25727*
X26986Y25591*
X2685Y25386*
X26818Y25227*
X2668Y25186*
X25477Y26389*
Y31889*
X25442Y32064*
X25343Y32213*
X24964Y32592*
X2499Y32745*
X25027Y32763*
X25133Y32692*
X25374Y32644*
X25615Y32692*
X25768Y32794*
X25921Y32692*
X26161Y32644*
X26402Y32692*
X26607Y32828*
X26743Y33033*
X26791Y33273*
X26743Y33514*
X26607Y33719*
X26402Y33855*
X26161Y33903*
X25921Y33855*
X25768Y33753*
X25615Y33855*
X25374Y33903*
X25133Y33855*
X25056Y33803*
X24944Y33863*
Y35634*
X25768Y36458*
X25928Y36447*
X2597Y36384*
X26175Y36248*
X26415Y362*
X26656Y36248*
X26861Y36384*
X26997Y36589*
X27045Y36829*
X26997Y3707*
X26952Y37137*
X27044Y37229*
X27191Y37131*
X27314Y37106*
X2731Y37083*
X27358Y36843*
X27494Y36638*
X27699Y36502*
X27939Y36454*
X2818Y36502*
X28385Y36638*
X28521Y36843*
X28569Y37083*
X28521Y37324*
X28385Y37529*
X2818Y37665*
X28057Y3769*
X28061Y37713*
X28013Y37954*
X27877Y38158*
X27672Y38294*
X27431Y38342*
X27191Y38294*
X26986Y38158*
X2685Y37954*
X26802Y37713*
X2685Y37472*
X26895Y37405*
X26803Y37313*
X26656Y37411*
X26415Y37459*
X26175Y37411*
X26077Y37498*
X25972Y37656*
X25767Y37792*
X25526Y3784*
X25286Y37792*
X25081Y37656*
X25041Y37595*
X24914Y37633*
Y40089*
X25041Y40128*
X25081Y40067*
G37*
G36*
X15765Y19874D02*
X15753Y19811D01*
X15801Y19571*
X15937Y19366*
X16142Y1923*
X16382Y19182*
X16623Y1923*
X16828Y19366*
X16863Y1942*
X1699Y19432*
X17301Y19121*
X17449Y19022*
X17625Y18987*
X20068*
X20244Y19022*
X20393Y19121*
X20756Y19484*
X20806Y19559*
X20879Y19633*
X21179Y19933*
X21899*
X21948Y19815*
X17181Y15048*
X15872*
X15696Y15013*
X15547Y14914*
X1541Y14777*
X11653*
X11647Y14781*
X11472Y14816*
X11212*
X10651Y15377*
X10611Y15437*
X10462Y15536*
X10286Y15571*
X10203*
X10019Y15694*
X09778Y15742*
X09602Y15707*
X09475Y15794*
Y18351*
X11096Y19973*
X13526*
X13606Y19874*
X13594Y19811*
X13642Y19571*
X13778Y19366*
X13983Y1923*
X14223Y19182*
X14464Y1923*
X14669Y19366*
X14805Y19571*
X14853Y19811*
X14841Y19874*
X14921Y19973*
X15685*
X15765Y19874*
G37*
%LNninja_ecu_pcb-4*%
%LPC*%
G36*
X36194Y38602D02*
X35954Y38554D01*
X35749Y38418*
X35613Y38213*
X35565Y37972*
X35613Y37732*
X35749Y37527*
X35954Y37391*
X36194Y37343*
X36435Y37391*
X3664Y37527*
X36776Y37732*
X36824Y37972*
X36776Y38213*
X3664Y38418*
X36435Y38554*
X36194Y38602*
G37*
%LNninja_ecu_pcb-5*%
%LPD*%
G54D34*
X41683Y54891D02*
X42163Y55371D01*
X50799Y46735D02*
X50926Y46862D01*
X33331Y2279D02*
X33395Y22726D01*
X39449Y55371D02*
X3987Y5495D01*
X32892Y30654D02*
Y32257D01*
X33654Y33019D02*
Y36829D01*
X32892Y32257D02*
X33654Y33019D01*
X32463Y30225D02*
X32892Y30654D01*
X1698Y13097D02*
X22551Y18668D01*
X13596Y13097D02*
X1698D01*
X4149Y12737D02*
X43932D01*
X37203Y17025D02*
X4149Y12737D01*
X22551Y18668D02*
X32257D01*
X33331Y19742D02*
Y2279D01*
X32257Y18668D02*
X33331Y19742D01*
X33527Y22859D02*
Y22859D01*
X29161Y25145D02*
X32463Y28447D01*
X27431Y25145D02*
X29161D01*
X21716Y30686D02*
Y36321D01*
Y30686D02*
X22986Y29416D01*
Y28701D02*
Y29416D01*
X2451Y33273D02*
Y35813D01*
X32838Y48284D02*
X33956Y49402D01*
X32838Y48259D02*
Y48284D01*
X33956Y22049D02*
X34035Y22128D01*
X33395Y22726D02*
X33527Y22859D01*
X50037Y26161D02*
Y27431D01*
X46735D02*
X50037D01*
X22917Y2533D02*
X22986Y25399D01*
Y28701*
X49656Y05714D02*
X54228Y01142D01*
X50799Y46989D02*
X50926Y46862D01*
X31241Y48259D02*
X32838D01*
X16255Y18414D02*
X19811D01*
X34028Y47665D02*
X34623Y48259D01*
X36321*
X40218Y54109D02*
Y54602D01*
X3987Y53761D02*
X40218Y54109D01*
X39461Y53358D02*
X40037D01*
X40621Y53942*
X41122Y55528D02*
X41147Y55553D01*
X50799Y46735D02*
X50926Y46608D01*
Y36194D02*
Y46608D01*
X41696Y34917D02*
X41713Y34934D01*
X50505Y35773D02*
X50926Y36194D01*
X49283Y35773D02*
X50505D01*
X41713Y34934D02*
Y36125D01*
X43932Y12737D02*
X50926Y19732D01*
Y36194*
X0419Y03047D02*
X04619D01*
X05468Y03896D02*
X09057D01*
X09143Y03809*
X04619Y03047D02*
X05468Y03896D01*
X11643Y13375D02*
Y13581D01*
X12692Y13097D02*
X12709Y13115D01*
X13579*
X13596Y13097*
X11643Y13375D02*
X1192Y13097D01*
X12692*
X4229Y05714D02*
Y1261D01*
Y05714D02*
X49656D01*
X19948Y18033D02*
X2007Y18156D01*
X19938Y18033D02*
X19948D01*
X4229Y34416D02*
X47926D01*
X49283Y35773*
X41713Y36125D02*
X42163Y36575D01*
X30178Y47665D02*
X34028D01*
X47624Y23748D02*
Y23875D01*
X11295Y13929D02*
X11643Y13581D01*
X09778Y14096D02*
X09946Y13929D01*
X11295*
X41696Y32471D02*
Y34917D01*
X32463Y28447D02*
Y30225D01*
X41696Y32471D02*
X43941Y30225D01*
X46735Y27431*
X36835Y17518D02*
X37203Y1715D01*
Y17025D02*
Y1715D01*
X3671Y17518D02*
X36835D01*
X33956Y20271D02*
X3671Y17518D01*
X33956Y20271D02*
Y22049D01*
X2451Y35813D02*
X25526Y36829D01*
Y3721*
X26669Y31495D02*
X29209D01*
X30225Y32511*
X00888Y21208D02*
X03174Y18922D01*
Y18668D02*
Y18922D01*
X06121Y21183D02*
X07742D01*
X02793Y2451D02*
X06121Y21183D01*
X02793Y2451D02*
X03227Y24944D01*
X03876*
X52704Y70484D02*
X54609D01*
X2832Y58165D02*
X28447Y58292D01*
Y65912*
X3987Y5495D02*
X40218Y54602D01*
X3987Y5495D02*
D01*
X42148Y55387D02*
X42163Y55371D01*
X28066Y49776D02*
X30178Y47665D01*
X41525Y54933D02*
X41641D01*
X41683Y54891*
X42148Y55387D02*
D01*
X33956Y49402D02*
X35505D01*
X39461Y53358*
X31622Y54863D02*
X34289D01*
X34416Y54736*
X34664*
X3564Y53761*
X3987*
X2832Y58165D02*
X30012Y56474D01*
X30345*
X30693Y56126*
Y55793D02*
Y56126D01*
Y55793D02*
X31622Y54863D01*
X40621Y53942D02*
Y54518D01*
X40896Y54794*
X41387*
X41525Y54933*
X41024Y55625D02*
X41147D01*
X28066Y49776D02*
Y5499D01*
X27177Y55117D02*
Y67309D01*
X30098Y7023*
X39623*
X4102Y68833*
X51053*
X52704Y70484*
X39449Y55371D02*
X39623D01*
X34035Y22128D02*
Y22224D01*
X19811Y18414D02*
X2007Y18156D01*
X47624Y23748D02*
X50037Y26161D01*
X41024Y55625D02*
X41122Y55528D01*
G54D35*
X03428Y10049D02*
X04465D01*
X13588Y22224D02*
Y25907D01*
X10413Y22478D02*
X11429D01*
X32168Y24637D02*
X3277Y2524D01*
X10906Y20431D02*
X16639D01*
X09016Y12553D02*
Y18541D01*
X10906Y20431*
X08251Y18538D02*
X10597Y20884D01*
X07242Y18538D02*
X08251D01*
X10597Y20884D02*
X16827D01*
X17928Y09159D02*
X19468Y07619D01*
X20446D02*
X20827Y07238D01*
X19468Y07619D02*
X20446D01*
X16108Y10954D02*
X17904Y09159D01*
X17928*
X06989Y10954D02*
X16108D01*
X28514Y08108D02*
X36429D01*
X1892Y06382D02*
X26787D01*
X28514Y08108*
X28701Y07656D02*
X3712D01*
X18732Y05929D02*
X26975D01*
X28701Y07656*
X17371Y14589D02*
X22593Y19811D01*
X31241*
X16867Y20844D02*
X24256D01*
X25272Y2186*
Y22732*
X20989Y20391D02*
X25349D01*
X25988Y2103D02*
Y22334D01*
X25349Y20391D02*
X25988Y2103D01*
X31241Y19811D02*
X32384Y20954D01*
X324Y22875D02*
X33004Y23479D01*
X33784*
X30352Y24129D02*
X3213D01*
X3257Y23932D02*
X33972D01*
X3213Y24129D02*
X32146Y24114D01*
X32387*
X3257Y23932*
X33878Y26002D02*
X39946Y19935D01*
X31262Y26002D02*
X33878D01*
X29248Y23987D02*
X31262Y26002D01*
X35038Y27305D02*
X40131Y22212D01*
X2906Y2444D02*
X31926Y27305D01*
X35038*
X41245Y26041D02*
D01*
X30706Y22875D02*
X324D01*
X24566Y26011D02*
X2659Y23987D01*
X29248*
X26777Y2444D02*
X2906D01*
X25018Y26199D02*
X26777Y2444D01*
X25018Y26199D02*
Y31889D01*
X23891Y33017D02*
X25018Y31889D01*
X23891Y35798D02*
X24455Y36362D01*
X23891Y33017D02*
Y35798D01*
X23438Y32829D02*
Y35985D01*
X24002Y3655*
Y42417*
X24455Y36362D02*
Y43223D01*
X08635Y59042D02*
X24455Y43223D01*
X08889Y5753D02*
X24002Y42417D01*
X23438Y32829D02*
X24566Y31701D01*
Y26011D02*
Y31701D01*
X22297Y29155D02*
X22351Y29209D01*
X17652D02*
X22351D01*
X17525Y29336D02*
X17652Y29209D01*
X21973Y36941D02*
X22478Y36436D01*
Y31876D02*
Y36436D01*
Y31876D02*
X23875Y30479D01*
X33701Y3078D02*
X42727Y39806D01*
X36956Y32892D02*
X44957Y40893D01*
X37591Y3288D02*
X41907Y37195D01*
X11511Y14318D02*
X156D01*
X42544Y41401D02*
X43286Y42143D01*
Y44761*
X49402Y44068D02*
Y45338D01*
X43286Y44761D02*
X46412D01*
X12953Y49021D02*
X13207D01*
X11429Y47497D02*
X12953Y49021D01*
X20555Y19957D02*
X20989Y20391D01*
X20555Y19957D02*
D01*
X46412Y44761D02*
X46964Y45313D01*
X15676Y10502D02*
X19176Y07001D01*
X33607Y31622D02*
X33637Y31653D01*
X13461Y22351D02*
X13588Y22224D01*
X36429Y08108D02*
X39115Y10794D01*
X3712Y07656D02*
X40258Y10794D01*
X22917Y2533D02*
X23982D01*
X33701Y30399D02*
Y3078D01*
X28193Y67436D02*
X29304Y66326D01*
X29129Y65361D02*
X29304Y65536D01*
Y66326*
X29129Y57961D02*
Y65361D01*
X33607Y31622D02*
X33701Y31528D01*
X41245Y21208D02*
X43179D01*
X40797Y20761D02*
X41245Y21208D01*
X11429Y46354D02*
Y47497D01*
X52196Y45338D02*
X54609Y42925D01*
Y38226D02*
Y42925D01*
X33701Y30399D02*
X33747Y30352D01*
X53847Y37464D02*
X54609Y38226D01*
X41907Y37195D02*
X4242D01*
X5245Y37464D02*
X53847D01*
X48141Y207D02*
Y21073D01*
X43814Y20573D02*
X45084D01*
X46354Y22859D02*
X48141Y21073D01*
X43179Y21208D02*
X43814Y20573D01*
X15277Y10049D02*
X18557Y06769D01*
Y06745D02*
Y06769D01*
Y06745D02*
X1892Y06382D01*
X15089Y09597D02*
X18104Y06582D01*
Y06557D02*
Y06582D01*
Y06557D02*
X18732Y05929D01*
X04465Y10049D02*
X04587Y09927D01*
Y09903D02*
Y09927D01*
Y09903D02*
X0495Y0954D01*
X05463*
X05826Y09903*
Y09927*
X05948Y10049*
X04762Y09087D02*
X05651D01*
X0616Y09597*
X02412Y09851D02*
Y10032D01*
X0616Y09597D02*
X15089D01*
X05948Y10049D02*
X15277D01*
X06802Y10502D02*
X15676D01*
X08349Y11886D02*
X08381Y11854D01*
Y11683D02*
Y11854D01*
X09524Y24637D02*
X09586Y24576D01*
X17017Y26923D02*
X18541D01*
X1585Y26415D02*
X16834Y25432D01*
X19943*
X22297Y24329D02*
Y29155D01*
X17652Y35305D02*
Y40131D01*
X11429Y46354D02*
X17652Y40131D01*
X07271Y49624D02*
X1689Y40004D01*
X08493Y51686D02*
Y52199D01*
X07271Y49624D02*
Y50463D01*
X08493Y51686*
X08762Y5753D02*
X08889D01*
X07238Y53454D02*
Y57403D01*
X40797Y20288D02*
Y20761D01*
X40445Y19935D02*
X40797Y20288D01*
X39946Y19935D02*
X40445D01*
X40131Y20827D02*
Y22212D01*
X22297Y24329D02*
X22478Y24148D01*
Y24129D02*
Y24148D01*
X22735Y2351D02*
X23098Y23873D01*
Y24386*
X22917Y24568D02*
X23098Y24386D01*
X22917Y24568D02*
Y2533D01*
X21865Y2351D02*
X22735D01*
X19943Y25432D02*
X21865Y2351D01*
X156Y14318D02*
X15872Y14589D01*
X17371*
X25526Y40512D02*
X2578Y40258D01*
X42544*
Y41401*
X42727Y39806D02*
X42732D01*
X48259Y45334D02*
Y45338D01*
X42732Y39806D02*
X48259Y45334D01*
X20068Y19446D02*
X20431Y19809D01*
Y19833*
X20555Y19957*
X16827Y20884D02*
X16867Y20844D01*
X16639Y20431D02*
X17625Y19446D01*
X20068*
X09397Y24637D02*
X09524D01*
X4242Y37195D02*
X42438Y37178D01*
X42512*
X49402Y44068*
X42163Y36411D02*
Y36575D01*
X19938Y3594D02*
X20357D01*
X21357Y36941D02*
X21973D01*
X20357Y3594D02*
X21357Y36941D01*
X34147Y22336D02*
Y23116D01*
X14096Y26415D02*
X1585D01*
X13588Y25907D02*
X14096Y26415D01*
X09586Y2229D02*
Y24576D01*
X11429Y22478D02*
Y22542D01*
X08349Y11886D02*
X09016Y12553D01*
X10286Y15093D02*
Y15112D01*
X09778D02*
X10286D01*
Y15093D02*
X11022Y14357D01*
X11472*
X11511Y14318*
X1689Y2705D02*
Y40004D01*
Y2705D02*
X17017Y26923D01*
X07238Y53454D02*
X08493Y52199D01*
X03428Y10049D02*
Y10159D01*
X02754Y09509D02*
X0434D01*
X02412Y09851D02*
X02754Y09509D01*
X0434D02*
X04762Y09087D01*
X06619Y11324D02*
Y18798D01*
Y11324D02*
X06989Y10954D01*
X06166Y11137D02*
X06802Y10502D01*
X06166Y11137D02*
Y18986D01*
X33747Y30352D02*
X33781D01*
X36956Y32892D02*
X36989Y3286D01*
Y32532D02*
Y3286D01*
X36972Y32514D02*
X36989Y32532D01*
X33637Y31653D02*
Y31684D01*
X37591Y32257D02*
Y3288D01*
X46113Y22859D02*
X46354D01*
X36972Y32001D02*
Y32514D01*
Y32001D02*
X46113Y22859D01*
X41245Y26041D02*
X41245D01*
X29715Y23098D02*
X30482D01*
X30987Y24764D02*
X32041D01*
X32168Y24637*
X30482Y23098D02*
X30706Y22875D01*
X33784Y23479D02*
X34147Y23116D01*
X35851Y18981D02*
X37015D01*
X34384Y20448D02*
X35851Y18981D01*
X33972Y23932D02*
X34655Y23248D01*
X34384Y20448D02*
Y21594D01*
X34655Y21865*
Y23248*
X26564Y22748D02*
X29364D01*
X23982Y2533D02*
X26564Y22748D01*
X29364D02*
X29715Y23098D01*
X08635Y59042D02*
Y59054D01*
Y59067*
X07238Y18541D02*
X07242Y18538D01*
X06619Y18798D02*
X06982Y19161D01*
X06166Y18986D02*
X06794Y19614D01*
X08362Y20926D02*
Y21067D01*
X09586Y2229*
X08815Y20739D02*
Y2088D01*
X10413Y22478*
X07237Y19161D02*
X08815Y20739D01*
X0705Y19614D02*
X08362Y20926D01*
X06794Y19614D02*
X0705D01*
X06982Y19161D02*
X07237D01*
X31751Y55339D02*
X34666D01*
X35649Y54355*
X39623*
X29129Y57961D02*
X30189Y56902D01*
X30522*
X31121Y56303*
Y5597D02*
Y56303D01*
Y5597D02*
X31751Y55339D01*
X32384Y20954D02*
Y21605D01*
X34035Y22224D02*
X34147Y22336D01*
G54D36*
X52958Y22859D02*
X55117Y25018D01*
X58038Y17525D02*
Y17779D01*
X52958Y22859D02*
X58038Y17779D01*
X36575Y16636D02*
Y1689D01*
X2832Y13461D02*
X334D01*
X36575Y16636*
X5499Y25145D02*
X55117Y25018D01*
X5499Y25145D02*
Y34162D01*
G54D38*
X47878Y18301D02*
Y18599D01*
X45606Y18795D02*
X461Y18301D01*
X46989D02*
X47878D01*
X461D02*
X46989D01*
X42824Y46075D02*
X42925Y45973D01*
X41427Y46075D02*
X42824D01*
X39028Y48473D02*
X41427Y46075D01*
X461Y17525D02*
Y18287D01*
X46989Y17525D02*
Y18301D01*
X461Y17525D02*
X46989D01*
X47878*
Y18301*
X48861Y19582D02*
Y21048D01*
X47878Y18599D02*
X48861Y19582D01*
Y21048D02*
X49148Y21335D01*
Y21422*
X40673Y19382D02*
X41102Y19811D01*
X44195*
X39717Y19382D02*
X40673D01*
X39288Y19811D02*
X39717Y19382D01*
X45479Y18668D02*
X45606Y18795D01*
X44068Y18668D02*
X45479D01*
X44068D02*
X44195Y18795D01*
Y19811*
X37083D02*
X39288D01*
X36348Y20547D02*
X37083Y19811D01*
X36348Y20547D02*
X36366Y20564D01*
Y20954*
G54D39*
X40309Y73151D02*
X41909D01*
X42544*
X39115D02*
X40309D01*
X42544D02*
X42671Y73278D01*
X60705Y73151D02*
X6261Y75056D01*
G54D45*
X07111Y46989D02*
X07492Y4737D01*
X08814D02*
X16388Y39796D01*
Y26588D02*
Y39796D01*
X07492Y4737D02*
X08814D01*
X16388Y26588D02*
X16682Y26294D01*
X18121*
X1816Y26255*
Y26161D02*
Y26255D01*
X06984Y47116D02*
X07111Y46989D01*
G54D51*
X31654Y01523D03*
X40893D03*
G54D52*
X55625Y46735D03*
G54D53*
X0927Y72008D03*
X05333D03*
G54D55*
X66166Y38861D03*
X01523Y29717D03*
Y39877D03*
X0165Y50291D03*
X01777Y60578D03*
X01523Y70103D03*
Y77342D03*
X07492D03*
X41909Y75818D03*
X15493Y73278D03*
X08635Y67055D03*
X13842Y65277D03*
X0927Y30733D03*
X1054Y2705D03*
X63753Y43687D03*
X64642Y36829D03*
X64515Y30733D03*
X65785Y22605D03*
X65658Y15493D03*
X73278Y04825D03*
X66166Y04952D03*
X60451D03*
X35051Y05587D03*
X36956D03*
X41245Y26041D03*
X33527Y22859D03*
X32783Y25163D03*
X22351Y29209D03*
X2451Y33273D03*
X33654Y36829D03*
X66801Y39242D03*
Y39877D03*
Y40512D03*
Y41274D03*
X66166Y39623D03*
Y40258D03*
Y40893D03*
Y41528D03*
X52958Y22859D03*
X48259Y45338D03*
X49402D03*
X461Y18301D03*
X47878D03*
X13207Y49021D03*
X2832Y13461D03*
X46989Y18301D03*
X09143Y03809D03*
X46964Y45313D03*
X42925Y45973D03*
X19176Y07001D03*
X42671Y73278D03*
X50037Y27431D03*
X22917Y2533D03*
X22986Y28701D03*
X54228Y01142D03*
X13461Y22351D03*
X39115Y10794D03*
X40258D03*
X50799Y46989D03*
X44957Y40893D03*
X28193Y67436D03*
X31241Y48259D03*
X17525Y29336D03*
X16255Y18414D03*
X41909Y73151D03*
X41147Y73342D03*
X39115Y73151D03*
X40309D03*
X11429Y46354D03*
X52196Y45338D03*
X41274Y72135D03*
X36321Y48259D03*
X39028Y48473D03*
X25526Y40512D03*
X50926Y36194D03*
X5245Y37464D03*
X461Y17525D03*
X46989D03*
X47878D03*
X48141Y207D03*
X45084Y20573D03*
X49148Y21422D03*
X20827Y07238D03*
X0419Y03047D03*
X02412Y10032D03*
X08381Y11683D03*
X09778Y15112D03*
Y14096D03*
X03174Y18668D03*
X18541Y26923D03*
X1816Y26161D03*
X17652Y35305D03*
X08635Y59054D03*
X08762Y5753D03*
X07238Y57403D03*
X58038Y17525D03*
X4229Y05714D03*
X36575Y1689D03*
X40131Y20827D03*
X44068Y18668D03*
X22478Y24129D03*
X19938Y18033D03*
X4229Y34416D03*
X09397Y24637D03*
X42163Y36575D03*
X19938Y3594D03*
X21716Y36321D03*
X23875Y30479D03*
X14096Y26415D03*
X11429Y22542D03*
X06984Y47116D03*
X47624Y23875D03*
X03428Y10159D03*
X33781Y30352D03*
X33637Y31684D03*
X3213Y30733D03*
X37591Y32257D03*
X43941Y30225D03*
X39496Y3213D03*
X41528Y31622D03*
X25272Y22732D03*
X25988Y22334D03*
X27431Y25145D03*
X30987Y24764D03*
X30352Y24129D03*
X36366Y20954D03*
X37015Y18981D03*
X26669Y31495D03*
X25526Y3721D03*
X30225Y32511D03*
X07238Y18541D03*
X07742Y21183D03*
X00888Y21208D03*
X03876Y24944D03*
X54609Y70484D03*
X28447Y65912D03*
X39623Y54355D03*
X42148Y55387D03*
X41147Y55625D03*
X28066Y5499D03*
X27177Y55117D03*
X39623Y55371D03*
X32384Y21605D03*
X34035Y22224D03*
X5499Y34162D03*
G54D56*
X41579Y4492D03*
X40279D03*
X38979D03*
X37679D03*
X36379D03*
X35079D03*
X33779D03*
X32479D03*
X31179D03*
X29879D03*
X28579D03*
X41579Y4362D03*
X40279D03*
X38979D03*
X37679D03*
X36379D03*
X35079D03*
X33779D03*
X32479D03*
X31179D03*
X29879D03*
X28579D03*
X41579Y4232D03*
X40279D03*
X38979D03*
X37679D03*
X36379D03*
X35079D03*
X33779D03*
X32479D03*
X31179D03*
X29879D03*
X28579D03*
X41579Y4102D03*
X40279D03*
X38979D03*
X37679D03*
X36379D03*
X35079D03*
X33779D03*
X32479D03*
X31179D03*
X29879D03*
X28579D03*
G54D57*
X62864Y73532D03*
X60832Y74294D03*
X68706Y63753D03*
X67563Y64896D03*
X66166Y63753D03*
X67436Y62483D03*
X61848Y73024D03*
X63245Y74548D03*
X61594Y75056D03*
X67436Y63753D03*
X60705Y73151D03*
G54D59*
X14804Y1509D03*
Y1629D03*
Y1749D03*
Y1869D03*
X13604Y1509D03*
Y1629D03*
Y1749D03*
Y1869D03*
X12404Y1509D03*
Y1629D03*
Y1749D03*
Y1869D03*
X11204Y1509D03*
Y1629D03*
Y1749D03*
Y1869D03*
M02*