%FSTAX23Y23*%
%MOMM*%
%SFA1B1*%

%IPPOS*%
%ADD10R,1.899996X2.699995*%
%ADD12R,2.599995X1.899996*%
%ADD13R,0.999998X1.999996*%
%ADD14R,3.499993X2.499995*%
%ADD19R,1.499997X1.299997*%
%ADD20R,0.999998X1.099998*%
%ADD21R,1.099998X0.999998*%
%ADD22R,10.094980X10.694979*%
%ADD23R,0.749999X2.284995*%
%ADD33R,2.699995X1.899996*%
%ADD61O,0.699999X2.499995*%
%ADD62C,0.629999*%
%ADD63R,0.299999X1.549997*%
%ADD65R,8.749982X5.199990*%
%ADD66R,4.999990X1.999996*%
%ADD67R,1.999996X1.999996*%
%ADD68O,2.499995X0.699999*%
%ADD69O,0.250000X0.649999*%
%ADD70O,0.649999X0.250000*%
%ADD71R,4.499991X4.499991*%
%ADD121R,6.349987X3.609993*%
%LNninja_ecu_pcb-1*%
%LPD*%
G54D10*
X39623Y75056D03*
X44223D03*
X04825Y45592D03*
X09425D03*
X51321Y20446D03*
X46721D03*
X44576Y16763D03*
X39976D03*
X49402Y1689D03*
X54002D03*
G54D12*
X21716Y09379D03*
Y05079D03*
G54D13*
X5118Y24129D03*
X4888D03*
X4658D03*
G54D14*
X4888Y30329D03*
G54D19*
X38099Y28955D03*
Y27055D03*
X40195Y28955D03*
Y27055D03*
X42294Y28955D03*
Y27055D03*
X16636Y06344D03*
Y04444D03*
X06476Y06503D03*
Y04603D03*
G54D20*
X01269Y22429D03*
Y24129D03*
X53847Y56592D03*
Y58292D03*
X55371Y58214D03*
Y56514D03*
X42036Y61037D03*
Y62737D03*
Y5923D03*
Y5753D03*
X28574Y62737D03*
Y61037D03*
Y5923D03*
Y5753D03*
X10667Y25194D03*
Y23494D03*
X12191D03*
Y25194D03*
X21081Y20241D03*
Y18541D03*
X11556Y04903D03*
Y06603D03*
X22605Y18492D03*
Y20192D03*
X24129Y18492D03*
Y20192D03*
X43814Y38939D03*
Y40639D03*
X39496Y35735D03*
Y34035D03*
X37337Y20016D03*
Y21716D03*
X39115Y20016D03*
Y21716D03*
X44068Y20143D03*
Y21843D03*
X37972Y35735D03*
Y34035D03*
X38099Y25067D03*
Y23367D03*
X40131Y25067D03*
Y23367D03*
X4229Y25067D03*
Y23367D03*
X58165Y09094D03*
Y10794D03*
X14731Y25067D03*
Y23367D03*
X03936Y23924D03*
Y22224D03*
X01142Y08D03*
Y097D03*
X16636Y2494D03*
Y2324D03*
X18795Y10872D03*
Y12572D03*
X18414Y22908D03*
Y21208D03*
X16382Y01308D03*
Y03008D03*
X0673Y0122D03*
Y0292D03*
X24383Y05393D03*
Y07093D03*
X26542Y40385D03*
Y38685D03*
X34543Y18619D03*
Y20319D03*
X18795Y36751D03*
Y35051D03*
X15112Y34924D03*
Y36624D03*
X06476Y12367D03*
Y10667D03*
X57657Y22527D03*
Y20827D03*
X35051Y31573D03*
Y33273D03*
X51561Y33351D03*
Y35051D03*
G54D21*
X02412Y19811D03*
X04112D03*
X02822Y07487D03*
X04522D03*
X02744Y05968D03*
X04444D03*
Y04444D03*
X02744D03*
X26464Y13715D03*
X24764D03*
X26464Y12191D03*
X24764D03*
X45133Y334D03*
X43433D03*
X48562D03*
X46862D03*
X45094Y35178D03*
X43394D03*
X30049Y3467D03*
X31749D03*
X5456Y02412D03*
X5626D03*
X50975D03*
X49275D03*
X08713Y09016D03*
X10413D03*
X224Y03156D03*
X207D03*
X05538Y22605D03*
X07238D03*
X29258Y30606D03*
X27558D03*
X44244Y31876D03*
X42544D03*
X35481Y34924D03*
X33781D03*
X43384Y36702D03*
X45084D03*
X46735Y35178D03*
X48435D03*
X26669Y3467D03*
X28369D03*
X53798Y19684D03*
X55498D03*
X3637Y24129D03*
X3467D03*
X48132Y36829D03*
X49832D03*
G54D22*
X4864Y66573D03*
X35242D03*
X21843D03*
G54D23*
X4483Y5753D03*
X461D03*
X4737D03*
X4991D03*
X5118D03*
X5245D03*
X31432D03*
X32702D03*
X33972D03*
X36512D03*
X37782D03*
X39052D03*
X18033D03*
X19303D03*
X20573D03*
X23113D03*
X24383D03*
X25653D03*
G54D33*
X13969Y02031D03*
Y06631D03*
X09143Y01603D03*
Y06203D03*
X53974Y25018D03*
Y29618D03*
X57784Y46735D03*
Y51335D03*
X13588Y50672D03*
Y46072D03*
Y53339D03*
Y57939D03*
X40258Y1387D03*
Y0927D03*
G54D61*
X01269Y168D03*
X02539D03*
X03809D03*
X05079D03*
X01269Y119D03*
X02539D03*
X03809D03*
X05079D03*
G54D62*
X44576Y04597D03*
X45846D03*
X47116D03*
X48386D03*
X49656D03*
X50926D03*
X52196D03*
X53466D03*
X54736D03*
X56006D03*
X44576Y05867D03*
X45846D03*
X47116D03*
X48386D03*
X49656D03*
X50926D03*
X52196D03*
X53466D03*
X54736D03*
X56006D03*
X44576Y07137D03*
X45846D03*
X47116D03*
X48386D03*
X49656D03*
X50926D03*
X52196D03*
X53466D03*
X54736D03*
X56006D03*
X44576Y08407D03*
X45846D03*
X47116D03*
X48386D03*
X49656D03*
X50926D03*
X52196D03*
X53466D03*
X54736D03*
X56006D03*
X43306Y09677D03*
X44576D03*
X45846D03*
X47116D03*
X48386D03*
X49656D03*
X50926D03*
X43306Y10947D03*
X44576D03*
X45846D03*
X47116D03*
X48386D03*
X49656D03*
X50926D03*
X53466D03*
X54736D03*
X56006D03*
X43306Y12217D03*
X44576D03*
X45846D03*
X47116D03*
X48386D03*
X49656D03*
X50926D03*
X53466D03*
X54736D03*
X56006D03*
Y13487D03*
X54736D03*
X53466D03*
X50926D03*
X49656D03*
X48386D03*
X47116D03*
X45846D03*
X44576D03*
X43306D03*
Y04597D03*
Y05867D03*
Y07137D03*
Y08407D03*
G54D63*
X41782Y39242D03*
X41282D03*
X40782D03*
X40282D03*
X39782D03*
X39282D03*
X38782D03*
X38282D03*
X37782D03*
X37282D03*
X36782D03*
X36282D03*
X35782D03*
X35282D03*
X34782D03*
X34282D03*
X33782D03*
X33282D03*
X32782D03*
X32282D03*
X31782D03*
X31282D03*
X30782D03*
X30282D03*
X29782D03*
X29282D03*
X28782D03*
X28282D03*
Y46742D03*
X28782Y46735D03*
X29282Y46742D03*
X29782D03*
X30282D03*
X30782D03*
X31282D03*
X31782D03*
X32282D03*
X32782D03*
X33282D03*
X33782D03*
X34282D03*
X34782D03*
X35282D03*
X35782D03*
X36282D03*
X36782D03*
X37282D03*
X37782D03*
X38282D03*
X38782D03*
X39282D03*
X39782D03*
X40282D03*
X40782D03*
X41282D03*
X41782D03*
G54D65*
X20624Y51439D03*
Y40639D03*
X49904Y51439D03*
Y40639D03*
G54D66*
X55498Y32407D03*
Y35963D03*
G54D67*
X56006Y44322D03*
Y39369D03*
G54D68*
X26505Y16128D03*
Y17398D03*
Y18668D03*
Y19938D03*
X31405Y16128D03*
Y17398D03*
Y18668D03*
Y19938D03*
G54D69*
X16754Y12415D03*
X16254D03*
X15754D03*
X15254D03*
X14754D03*
X14254D03*
X13754D03*
X13254D03*
X12754D03*
X12254D03*
X11754D03*
X11254D03*
X10754D03*
X10254D03*
X09754D03*
X09254D03*
Y21365D03*
X09754D03*
X10254D03*
X10754D03*
X11254D03*
X11754D03*
X12254D03*
X12754D03*
X13254D03*
X13754D03*
X14254D03*
X14754D03*
X15254D03*
X15754D03*
X16254D03*
X16754D03*
G54D70*
X08529Y1314D03*
Y1364D03*
Y1414D03*
Y1464D03*
Y1514D03*
Y1564D03*
Y1614D03*
Y1664D03*
Y1714D03*
Y1764D03*
Y1814D03*
Y1864D03*
Y1914D03*
Y1964D03*
Y2014D03*
Y2064D03*
X17479D03*
Y2014D03*
Y1964D03*
Y1914D03*
Y1864D03*
Y1814D03*
Y1764D03*
Y1714D03*
Y1664D03*
Y1614D03*
Y1564D03*
Y1514D03*
Y1464D03*
Y1414D03*
Y1364D03*
Y1314D03*
G54D71*
X13004Y1689D03*
G54D121*
X35032Y42992D03*
M02*