%FSTAX23Y23*%
%MOMM*%
%SFA1B1*%

%IPPOS*%
%ADD34C,0.250000*%
%ADD35C,0.299999*%
%ADD38C,0.499999*%
%ADD73C,0.200000*%
%ADD79C,0.599999*%
%ADD80C,0.253999*%
%ADD81C,0.150000*%
%ADD82C,0.100000*%
%ADD83C,0.030000*%
%ADD84C,0.127000*%
%LNninja_ecu_pcb-1*%
%LPD*%
G54D34*
X20718Y34385D02*
D01*
X20718Y34394*
X20717Y34403*
X20716Y34411*
X20714Y3442*
X20711Y34428*
X20708Y34436*
X20704Y34444*
X20699Y34452*
X20695Y34459*
X20689Y34466*
X20683Y34472*
X20677Y34478*
X2067Y34484*
X20663Y34489*
X20656Y34494*
X20648Y34498*
X2064Y34501*
X20632Y34504*
X20624Y34507*
X20615Y34509*
X20607Y3451*
X20598Y3451*
X20589*
X2058Y3451*
X20572Y34509*
X20563Y34507*
X20555Y34504*
X20547Y34501*
X20539Y34498*
X20531Y34494*
X20524Y34489*
X20517Y34484*
X2051Y34478*
X20504Y34472*
X20498Y34466*
X20492Y34459*
X20487Y34452*
X20483Y34444*
X20479Y34436*
X20476Y34428*
X20473Y3442*
X20471Y34411*
X2047Y34403*
X20469Y34394*
X20468Y34385*
X20469Y34377*
X2047Y34368*
X20471Y3436*
X20473Y34351*
X20476Y34343*
X20479Y34335*
X20483Y34327*
X20487Y34319*
X20492Y34312*
X20498Y34305*
X20504Y34299*
X2051Y34293*
X20517Y34287*
X20524Y34282*
X20531Y34277*
X20539Y34273*
X20547Y3427*
X20555Y34267*
X20563Y34264*
X20572Y34262*
X2058Y34261*
X20589Y34261*
X20598*
X20607Y34261*
X20615Y34262*
X20624Y34264*
X20632Y34267*
X2064Y3427*
X20648Y34273*
X20656Y34277*
X20663Y34282*
X2067Y34287*
X20677Y34293*
X20683Y34299*
X20689Y34305*
X20695Y34312*
X20699Y34319*
X20704Y34327*
X20708Y34335*
X20711Y34343*
X20714Y34351*
X20716Y3436*
X20717Y34368*
X20718Y34377*
X20718Y34385*
G54D35*
X51523Y06476D02*
X58023D01*
X51523D02*
Y09321D01*
X58023*
Y06476D02*
Y09321D01*
G54D38*
X67272Y55833D02*
Y70833D01*
X59272Y55833D02*
Y70833D01*
G54D73*
X72927Y68736D02*
X74927D01*
X72927Y66136D02*
X74927D01*
X22043Y21535D02*
Y33835D01*
X34343Y21535D02*
Y33835D01*
X22043D02*
X34343D01*
X22043Y21535D02*
X34343D01*
X44357Y40258D02*
X47357D01*
X44357Y3975D02*
X47357D01*
Y40258*
X44357Y3975D02*
Y40258D01*
X4804D02*
X5104D01*
X4804Y3975D02*
X5104D01*
Y40258*
X4804Y3975D02*
Y40258D01*
X32924Y00253D02*
Y07873D01*
X30384D02*
X32924D01*
X30384Y00253D02*
Y07873D01*
Y00253D02*
X32924D01*
X42163D02*
Y07873D01*
X39623D02*
X42163D01*
X39623Y00253D02*
Y07873D01*
Y00253D02*
X42163D01*
X60167Y47781D02*
Y49781D01*
X62767Y47781D02*
Y49781D01*
X53623Y03077D02*
X55623D01*
X53623Y00477D02*
X55623D01*
G54D79*
X23343Y32835D02*
D01*
X23343Y32856*
X23341Y32877*
X23337Y32898*
X23332Y32918*
X23325Y32938*
X23318Y32957*
X23308Y32976*
X23298Y32994*
X23286Y33012*
X23273Y33028*
X23259Y33044*
X23244Y33058*
X23228Y33072*
X23211Y33084*
X23193Y33095*
X23175Y33105*
X23156Y33114*
X23136Y33121*
X23116Y33127*
X23096Y33131*
X23075Y33134*
X23054Y33135*
X23033*
X23012Y33134*
X22991Y33131*
X22971Y33127*
X22951Y33121*
X22931Y33114*
X22912Y33105*
X22893Y33095*
X22876Y33084*
X22859Y33072*
X22843Y33058*
X22828Y33044*
X22814Y33028*
X22801Y33012*
X22789Y32994*
X22779Y32976*
X22769Y32957*
X22762Y32938*
X22755Y32918*
X2275Y32898*
X22746Y32877*
X22744Y32856*
X22743Y32835*
X22744Y32815*
X22746Y32794*
X2275Y32773*
X22755Y32753*
X22762Y32733*
X22769Y32713*
X22779Y32695*
X22789Y32677*
X22801Y32659*
X22814Y32643*
X22828Y32627*
X22843Y32613*
X22859Y32599*
X22876Y32587*
X22893Y32576*
X22912Y32566*
X22931Y32557*
X22951Y3255*
X22971Y32544*
X22991Y3254*
X23012Y32537*
X23033Y32536*
X23054*
X23075Y32537*
X23096Y3254*
X23116Y32544*
X23136Y3255*
X23156Y32557*
X23175Y32566*
X23193Y32576*
X23211Y32587*
X23228Y32599*
X23244Y32613*
X23259Y32627*
X23273Y32643*
X23286Y32659*
X23298Y32677*
X23308Y32695*
X23318Y32713*
X23325Y32733*
X23332Y32753*
X23337Y32773*
X23341Y32794*
X23343Y32815*
X23343Y32835*
G54D80*
X51339Y4925D02*
D01*
X51339Y49265*
X51337Y49279*
X51335Y49294*
X51331Y49308*
X51326Y49322*
X51321Y49335*
X51315Y49348*
X51307Y49361*
X51299Y49373*
X5129Y49385*
X5128Y49396*
X5127Y49406*
X51259Y49415*
X51247Y49424*
X51234Y49432*
X51221Y49438*
X51208Y49444*
X51194Y49449*
X5118Y49453*
X51166Y49456*
X51151Y49458*
X51137Y49459*
X51122*
X51108Y49458*
X51093Y49456*
X51079Y49453*
X51065Y49449*
X51051Y49444*
X51038Y49438*
X51025Y49432*
X51012Y49424*
X51001Y49415*
X50989Y49406*
X50979Y49396*
X50969Y49385*
X5096Y49373*
X50952Y49361*
X50945Y49348*
X50938Y49335*
X50933Y49322*
X50928Y49308*
X50925Y49294*
X50922Y49279*
X50921Y49265*
X5092Y4925*
X50921Y49235*
X50922Y49221*
X50925Y49207*
X50928Y49192*
X50933Y49178*
X50938Y49165*
X50945Y49152*
X50952Y49139*
X5096Y49127*
X50969Y49115*
X50979Y49105*
X50989Y49094*
X51001Y49085*
X51012Y49076*
X51025Y49069*
X51038Y49062*
X51051Y49056*
X51065Y49051*
X51079Y49047*
X51093Y49044*
X51108Y49042*
X51122Y49041*
X51137*
X51151Y49042*
X51166Y49044*
X5118Y49047*
X51194Y49051*
X51208Y49056*
X51221Y49062*
X51234Y49069*
X51247Y49076*
X51259Y49085*
X5127Y49094*
X5128Y49105*
X5129Y49115*
X51299Y49127*
X51307Y49139*
X51315Y49152*
X51321Y49165*
X51326Y49178*
X51331Y49192*
X51335Y49207*
X51337Y49221*
X51339Y49235*
X51339Y4925*
X48539Y16255D02*
Y18185D01*
X50037Y1435D02*
X54787D01*
X57124Y16255D02*
Y18186D01*
X50037Y20091D02*
X54787D01*
X47599Y03251D02*
Y10972D01*
X43408Y13385D02*
X44043D01*
X43408Y11226D02*
Y13385D01*
Y00761D02*
X44043D01*
X43408D02*
Y0292D01*
X14005Y05637D02*
X15239D01*
X24764D02*
X26034D01*
X13969Y0043D02*
Y01573D01*
Y04748D02*
Y05637D01*
X26034Y04748D02*
Y05637D01*
Y0043D02*
Y01573D01*
X13969Y0043D02*
X26034D01*
X07746Y03047D02*
Y08585D01*
X11302Y00634D02*
X11937D01*
Y02793*
X11302Y10769D02*
X11937D01*
Y0861D02*
Y10769D01*
X12445Y63245D02*
Y64479D01*
Y5245D02*
Y5372D01*
X07238Y64515D02*
X08381D01*
X11556D02*
X12445D01*
X11556Y5245D02*
X12445D01*
X07238D02*
X08381D01*
X07238D02*
Y64515D01*
X53847Y47624D02*
Y49783D01*
X54482*
X58038Y43306D02*
Y4737D01*
X53847Y40893D02*
X54482D01*
X53847D02*
Y43052D01*
X04698Y04444D02*
Y06603D01*
X04063Y04444D02*
X04698D01*
X00507Y06857D02*
Y10921D01*
X04063Y13334D02*
X04698D01*
Y11175D02*
Y13334D01*
Y14858D02*
Y17017D01*
X04063Y14858D02*
X04698D01*
X00507Y17271D02*
Y21335D01*
X04063Y23748D02*
X04698D01*
Y21589D02*
Y23748D01*
X58546Y23418D02*
Y28955D01*
X54355Y31368D02*
X5499D01*
X54355Y29209D02*
Y31368D01*
Y21234D02*
X5499D01*
X54355D02*
Y23393D01*
X04698Y25272D02*
Y27431D01*
X04063Y25272D02*
X04698D01*
X00507Y27685D02*
Y31749D01*
X04063Y34162D02*
X04698D01*
Y32003D02*
Y34162D01*
Y35686D02*
Y37845D01*
X04063Y35686D02*
X04698D01*
X00507Y38099D02*
Y42163D01*
X04063Y44576D02*
X04698D01*
Y42417D02*
Y44576D01*
Y45973D02*
Y48132D01*
X04063Y45973D02*
X04698D01*
X00507Y48386D02*
Y5245D01*
X04063Y54863D02*
X04698D01*
Y52704D02*
Y54863D01*
Y5626D02*
Y58419D01*
X04063Y5626D02*
X04698D01*
X00507Y58673D02*
Y62737D01*
X04063Y6515D02*
X04698D01*
Y62991D02*
Y6515D01*
X5052Y48336D02*
X5179D01*
Y4671D02*
Y48336D01*
Y43052D02*
Y44678D01*
X5052Y43052D02*
X5179D01*
X4224Y46761D02*
Y48386D01*
X4351*
X4224Y43052D02*
Y44678D01*
Y43052D02*
X4351D01*
X28625Y0927D02*
X34162D01*
X36575Y12826D02*
Y13461D01*
X34416D02*
X36575D01*
X26441Y12826D02*
Y13461D01*
X286*
X17068Y07238D02*
X22605D01*
X25018Y10794D02*
Y11429D01*
X22859D02*
X25018D01*
X14884Y10794D02*
Y11429D01*
X17043*
X17144Y47243D02*
Y52781D01*
X207Y4483D02*
X21335D01*
Y46989*
X207Y54965D02*
X21335D01*
Y52806D02*
Y54965D01*
X59958Y84229D02*
X63108D01*
X52808D02*
X55958D01*
X63108Y73329D02*
Y84229D01*
X59958Y73307D02*
X63108D01*
X52771Y73279D02*
Y84179D01*
X52808Y73282D02*
X55958D01*
X70941Y34346D02*
Y37496D01*
Y41496D02*
Y44646D01*
X60041Y34346D02*
X70941D01*
X60019D02*
Y37496D01*
X59991Y44684D02*
X70891D01*
X59994Y41496D02*
Y44646D01*
X70894Y22027D02*
Y25177D01*
Y29177D02*
Y32327D01*
X59994Y22027D02*
X70894D01*
X59972D02*
Y25177D01*
X59944Y32365D02*
X70844D01*
X59947Y29177D02*
Y32327D01*
X71402Y09835D02*
Y12985D01*
Y16985D02*
Y20135D01*
X60502Y09835D02*
X71402D01*
X6048D02*
Y12985D01*
X60452Y20173D02*
X71352D01*
X60455Y16985D02*
Y20135D01*
X06349Y82676D02*
Y842D01*
X07365Y82676*
Y842*
X07873Y82676D02*
X08381D01*
X08127*
Y83692*
X07873*
X09143Y82676D02*
Y83692D01*
X09904*
X10158Y83438*
Y82676*
X10666Y82169D02*
X1092D01*
X11174Y82423*
Y83692*
X12443D02*
X12951D01*
X13205Y83438*
Y82676*
X12443*
X1219Y8293*
X12443Y83184*
X13205*
X16252Y83946D02*
X15998Y842D01*
X1549*
X15237Y83946*
Y8293*
X1549Y82676*
X15998*
X16252Y8293*
X17014Y83692D02*
X17522D01*
X17776Y83438*
Y82676*
X17014*
X1676Y8293*
X17014Y83184*
X17776*
X18284Y83692D02*
Y82676D01*
Y83184*
X18538Y83438*
X18791Y83692*
X19045*
X21331Y842D02*
Y83184D01*
X21838Y82676*
X22346Y83184*
Y842*
X23616Y82676D02*
X23108D01*
X22854Y8293*
Y83438*
X23108Y83692*
X23616*
X2387Y83438*
Y83184*
X22854*
X24378Y83692D02*
Y82676D01*
Y83184*
X24632Y83438*
X24885Y83692*
X25139*
X25901Y82676D02*
X26663D01*
X26917Y8293*
X26663Y83184*
X26155*
X25901Y83438*
X26155Y83692*
X26917*
X27425Y82676D02*
X27932D01*
X27679*
Y83692*
X27425*
X28948Y82676D02*
X29456D01*
X2971Y8293*
Y83438*
X29456Y83692*
X28948*
X28694Y83438*
Y8293*
X28948Y82676*
X30218D02*
Y83692D01*
X30979*
X31233Y83438*
Y82676*
X33265Y83946D02*
X33519Y842D01*
X34027*
X3428Y83946*
Y83692*
X34027Y83438*
X33773*
X34027*
X3428Y83184*
Y8293*
X34027Y82676*
X33519*
X33265Y8293*
X34788Y82676D02*
Y8293D01*
X35042*
Y82676*
X34788*
X3682D02*
Y842D01*
X36058Y83438*
X37074*
G54D81*
X77622Y68351D02*
Y68757D01*
X77419Y68554D02*
X77825D01*
X63521Y7379D02*
X64181D01*
X63851Y7346D02*
Y7412D01*
X60502Y33273D02*
Y33934D01*
X60172Y33604D02*
X60832D01*
X60147Y52476D02*
X60553D01*
X6035Y52273D02*
Y52679D01*
X60455Y20954D02*
Y21615D01*
X60125Y21285D02*
X60785D01*
X60963Y08762D02*
Y09423D01*
X60633Y09093D02*
X61293D01*
X58318Y02692D02*
Y03098D01*
X58115Y02895D02*
X58521D01*
G54D82*
X14554Y26979D02*
Y32973D01*
X18059Y26973D02*
Y32973D01*
X7238Y69443D02*
X76469D01*
Y69621*
X72278Y71856D02*
Y72034D01*
X76469*
Y71856D02*
Y72034D01*
X7238Y69443D02*
Y69621D01*
X77114Y58918D02*
Y63007D01*
X76936D02*
X77114D01*
X74523Y58816D02*
X74701D01*
X74523D02*
Y63007D01*
X74701*
X76936Y58918D02*
X77114D01*
X68698Y6134D02*
X68198D01*
Y61007*
X68615Y60841D02*
X68698Y60757D01*
Y60591*
X68615Y60507*
X68532*
X68448Y60591*
Y60674*
Y60591*
X68365Y60507*
X68282*
X68198Y60591*
Y60757*
X68282Y60841*
X77723Y52704D02*
X78223D01*
Y52455*
X7814Y52371*
X77973*
X7789Y52455*
Y52704*
Y52538D02*
X77723Y52371D01*
X77807Y52205D02*
X77723Y52121D01*
Y51955*
X77807Y51871*
X7814*
X78223Y51955*
Y52121*
X7814Y52205*
X78057*
X77973Y52121*
Y51871*
X7814Y51705D02*
X78223Y51621D01*
Y51455*
X7814Y51372*
X77807*
X77723Y51455*
Y51621*
X77807Y51705*
X7814*
X75437Y53036D02*
X75937D01*
Y52787*
X75854Y52703*
X75687*
X75604Y52787*
Y53036*
Y5287D02*
X75437Y52703D01*
X75854Y52537D02*
X75937Y52453D01*
Y52287*
X75854Y52203*
X75771*
X75687Y52287*
X75604Y52203*
X75521*
X75437Y52287*
Y52453*
X75521Y52537*
X75604*
X75687Y52453*
X75771Y52537*
X75854*
X75687Y52453D02*
Y52287D01*
X75521Y52037D02*
X75437Y51953D01*
Y51787*
X75521Y51704*
X75854*
X75937Y51787*
Y51953*
X75854Y52037*
X75771*
X75687Y51953*
Y51704*
X7785Y71619D02*
Y71119D01*
X781*
X78184Y71203*
Y71536*
X781Y71619*
X7785*
X786Y71119D02*
Y71619D01*
X7835Y71369*
X78684*
X63963Y83058D02*
X64046Y83142D01*
Y83308*
X63963Y83391*
X6363*
X63546Y83308*
Y83142*
X6363Y83058*
X64046Y82892D02*
Y82558D01*
X63963*
X6363Y82892*
X63546*
X64046Y82392D02*
Y82059D01*
X63963*
X6363Y82392*
X63546*
X69675Y45374D02*
X69591Y45457D01*
X69425*
X69341Y45374*
Y45041*
X69425Y44957*
X69591*
X69675Y45041*
X69841Y45457D02*
X70175D01*
Y45374*
X69841Y45041*
Y44957*
X70674Y45457D02*
X70508Y45374D01*
X70341Y45207*
Y45041*
X70424Y44957*
X70591*
X70674Y45041*
Y45124*
X70591Y45207*
X70341*
X72425Y54149D02*
X72508Y54233D01*
Y54399*
X72425Y54482*
X72092*
X72008Y54399*
Y54233*
X72092Y54149*
X72508Y53983D02*
Y53649D01*
X72425*
X72092Y53983*
X72008*
X72508Y5315D02*
Y53483D01*
X72258*
X72342Y53316*
Y53233*
X72258Y5315*
X72092*
X72008Y53233*
Y53399*
X72092Y53483*
X68913Y67726D02*
X68829Y67809D01*
X68663*
X68579Y67726*
Y67393*
X68663Y67309*
X68829*
X68913Y67393*
X69079Y67809D02*
X69413D01*
Y67726*
X69079Y67393*
Y67309*
X69829D02*
Y67809D01*
X69579Y67559*
X69912*
X75644Y64551D02*
X7556Y64634D01*
X75394*
X7531Y64551*
Y64218*
X75394Y64134*
X7556*
X75644Y64218*
X7581Y64634D02*
X76144D01*
Y64551*
X7581Y64218*
Y64134*
X7631Y64551D02*
X76393Y64634D01*
X7656*
X76643Y64551*
Y64468*
X7656Y64384*
X76477*
X7656*
X76643Y64301*
Y64218*
X7656Y64134*
X76393*
X7631Y64218*
X14811Y12183D02*
X14477D01*
Y11683*
X14811*
X14477Y11933D02*
X14644D01*
X14977Y11683D02*
Y12017D01*
X15227*
X15311Y11933*
Y11683*
X1581Y12017D02*
X1556D01*
X15477Y11933*
Y11767*
X1556Y11683*
X1581*
X1631D02*
X15977D01*
X1631Y12017*
Y121*
X16227Y12183*
X1606*
X15977Y121*
X12017Y32039D02*
X11933Y32122D01*
X11767*
X11683Y32039*
Y31706*
X11767Y31622*
X11933*
X12017Y31706*
X12183Y31622D02*
X1235D01*
X12267*
Y32122*
X12183Y32039*
X40433Y31792D02*
X40517Y31709D01*
X40683*
X40766Y31792*
Y32125*
X40683Y32208*
X40517*
X40433Y32125*
X39933Y32208D02*
X40267D01*
X39933Y31875*
Y31792*
X40017Y31709*
X40183*
X40267Y31792*
X12061Y28792D02*
X11978Y28709D01*
Y28542*
X12061Y28459*
X12394*
X12478Y28542*
Y28709*
X12394Y28792*
X12061Y28959D02*
X11978Y29042D01*
Y29208*
X12061Y29292*
X12145*
X12228Y29208*
Y29125*
Y29208*
X12311Y29292*
X12394*
X12478Y29208*
Y29042*
X12394Y28959*
X34005Y16728D02*
X34089Y16645D01*
X34255*
X34338Y16728*
Y17061*
X34255Y17144*
X34089*
X34005Y17061*
X33589Y17144D02*
Y16645D01*
X33839Y16895*
X33505*
X10493Y24673D02*
X10409Y24756D01*
X10243*
X10159Y24673*
Y2434*
X10243Y24256*
X10409*
X10493Y2434*
X10993Y24756D02*
X10659D01*
Y24506*
X10826Y2459*
X10909*
X10993Y24506*
Y2434*
X10909Y24256*
X10743*
X10659Y2434*
X41227Y4004D02*
X41143Y40123D01*
X40977*
X40893Y4004*
Y39707*
X40977Y39623*
X41143*
X41227Y39707*
X41727Y40123D02*
X4156Y4004D01*
X41393Y39873*
Y39707*
X41477Y39623*
X41643*
X41727Y39707*
Y3979*
X41643Y39873*
X41393*
X23574Y18706D02*
X2349Y18789D01*
X23324*
X2324Y18706*
Y18373*
X23324Y18289*
X2349*
X23574Y18373*
X2374Y18789D02*
X24074D01*
Y18706*
X2374Y18373*
Y18289*
X09477Y20355D02*
X09393Y20438D01*
X09227*
X09143Y20355*
Y20022*
X09227Y19938*
X09393*
X09477Y20022*
X09643Y20355D02*
X09727Y20438D01*
X09893*
X09977Y20355*
Y20272*
X09893Y20188*
X09977Y20105*
Y20022*
X09893Y19938*
X09727*
X09643Y20022*
Y20105*
X09727Y20188*
X09643Y20272*
Y20355*
X09727Y20188D02*
X09893D01*
X49482Y3115D02*
X49398Y31233D01*
X49232*
X49148Y3115*
Y30817*
X49232Y30733*
X49398*
X49482Y30817*
X49648D02*
X49732Y30733D01*
X49898*
X49982Y30817*
Y3115*
X49898Y31233*
X49732*
X49648Y3115*
Y31067*
X49732Y30983*
X49982*
X31067Y18577D02*
X30983Y1866D01*
X30817*
X30733Y18577*
Y18244*
X30817Y1816*
X30983*
X31067Y18244*
X31233Y1816D02*
X314D01*
X31317*
Y1866*
X31233Y18577*
X3165D02*
X31733Y1866D01*
X319*
X31983Y18577*
Y18244*
X319Y1816*
X31733*
X3165Y18244*
Y18577*
X2988Y17446D02*
X29963Y1753D01*
Y17696*
X2988Y17779*
X29547*
X29463Y17696*
Y1753*
X29547Y17446*
X29463Y1728D02*
Y17113D01*
Y17196*
X29963*
X2988Y1728*
X29463Y16863D02*
Y16696D01*
Y1678*
X29963*
X2988Y16863*
X14303Y41564D02*
X14219Y41647D01*
X14053*
X13969Y41564*
Y41231*
X14053Y41147*
X14219*
X14303Y41231*
X14469Y41147D02*
X14636D01*
X14553*
Y41647*
X14469Y41564*
X15219Y41147D02*
X14886D01*
X15219Y41481*
Y41564*
X15136Y41647*
X14969*
X14886Y41564*
X11394Y39322D02*
X11311Y39238D01*
Y39072*
X11394Y38988*
X11727*
X1181Y39072*
Y39238*
X11727Y39322*
X1181Y39488D02*
Y39655D01*
Y39572*
X11311*
X11394Y39488*
Y39905D02*
X11311Y39988D01*
Y40155*
X11394Y40238*
X11477*
X11561Y40155*
Y40071*
Y40155*
X11644Y40238*
X11727*
X1181Y40155*
Y39988*
X11727Y39905*
X46898Y24431D02*
X46981Y24515D01*
Y24681*
X46898Y24764*
X46565*
X46481Y24681*
Y24515*
X46565Y24431*
X46481Y24265D02*
Y24098D01*
Y24181*
X46981*
X46898Y24265*
X46481Y23598D02*
X46981D01*
X46731Y23848*
Y23515*
X42116Y23276D02*
X42032Y23359D01*
X41866*
X41782Y23276*
Y22943*
X41866Y22859*
X42032*
X42116Y22943*
X42282Y22859D02*
X42449D01*
X42366*
Y23359*
X42282Y23276*
X43032Y23359D02*
X42699D01*
Y23109*
X42865Y23193*
X42949*
X43032Y23109*
Y22943*
X42949Y22859*
X42782*
X42699Y22943*
X40719Y23276D02*
X40635Y23359D01*
X40469*
X40385Y23276*
Y22943*
X40469Y22859*
X40635*
X40719Y22943*
X40885Y22859D02*
X41052D01*
X40969*
Y23359*
X40885Y23276*
X41635Y23359D02*
X41468Y23276D01*
X41302Y23109*
Y22943*
X41385Y22859*
X41552*
X41635Y22943*
Y23026*
X41552Y23109*
X41302*
X12735Y50212D02*
X12818Y50296D01*
Y50462*
X12735Y50545*
X12402*
X12318Y50462*
Y50296*
X12402Y50212*
X12318Y50046D02*
Y49879D01*
Y49962*
X12818*
X12735Y50046*
X12818Y49629D02*
Y49296D01*
X12735*
X12402Y49629*
X12318*
X50764Y02619D02*
X50681Y02535D01*
Y02369*
X50764Y02285*
X51097*
X5118Y02369*
Y02535*
X51097Y02619*
X5118Y02785D02*
Y02952D01*
Y02869*
X50681*
X50764Y02785*
X51097Y03202D02*
X5118Y03285D01*
Y03452*
X51097Y03535*
X50764*
X50681Y03452*
Y03285*
X50764Y03202*
X50847*
X50931Y03285*
Y03535*
X07826Y33563D02*
X07742Y33646D01*
X07576*
X07492Y33563*
Y3323*
X07576Y33146*
X07742*
X07826Y3323*
X08326Y33146D02*
X07992D01*
X08326Y3348*
Y33563*
X08242Y33646*
X08076*
X07992Y33563*
X08492D02*
X08575Y33646D01*
X08742*
X08825Y33563*
Y3323*
X08742Y33146*
X08575*
X08492Y3323*
Y33563*
X27003Y48803D02*
X26919Y48886D01*
X26753*
X26669Y48803*
Y4847*
X26753Y48386*
X26919*
X27003Y4847*
X27503Y48386D02*
X27169D01*
X27503Y4872*
Y48803*
X27419Y48886*
X27253*
X27169Y48803*
X27669Y48386D02*
X27836D01*
X27752*
Y48886*
X27669Y48803*
X34369Y16418D02*
X34285Y16501D01*
X34119*
X34035Y16418*
Y16085*
X34119Y16001*
X34285*
X34369Y16085*
X34869Y16001D02*
X34535D01*
X34869Y16335*
Y16418*
X34785Y16501*
X34619*
X34535Y16418*
X35368Y16001D02*
X35035D01*
X35368Y16335*
Y16418*
X35285Y16501*
X35118*
X35035Y16418*
X64008Y09108D02*
X64092Y09025D01*
X64258*
X64341Y09108*
Y09441*
X64258Y09524*
X64092*
X64008Y09441*
X63508Y09524D02*
X63842D01*
X63508Y09191*
Y09108*
X63592Y09025*
X63758*
X63842Y09108*
X63342D02*
X63258Y09025D01*
X63092*
X63009Y09108*
Y09191*
X63092Y09275*
X63009Y09358*
Y09441*
X63092Y09524*
X63258*
X63342Y09441*
Y09358*
X63258Y09275*
X63342Y09191*
Y09108*
X63258Y09275D02*
X63092D01*
X65913Y21173D02*
X65997Y2109D01*
X66163*
X66246Y21173*
Y21506*
X66163Y21589*
X65997*
X65913Y21506*
X65747Y21173D02*
X65663Y2109D01*
X65497*
X65413Y21173*
Y21256*
X65497Y2134*
X6558*
X65497*
X65413Y21423*
Y21506*
X65497Y21589*
X65663*
X65747Y21506*
X65247Y21589D02*
X6508D01*
X65163*
Y2109*
X65247Y21173*
X594Y48085D02*
X59317Y48001D01*
Y47835*
X594Y47751*
X59733*
X59816Y47835*
Y48001*
X59733Y48085*
X59816Y48501D02*
X59317D01*
X59567Y48251*
Y48585*
X594Y48751D02*
X59317Y48834D01*
Y49001*
X594Y49084*
X59733*
X59816Y49001*
Y48834*
X59733Y48751*
X594*
X45501Y53006D02*
X45584Y5309D01*
Y53256*
X45501Y53339*
X45168*
X45084Y53256*
Y5309*
X45168Y53006*
X45084Y5259D02*
X45584D01*
X45334Y5284*
Y52506*
X45501Y5234D02*
X45584Y52256D01*
Y5209*
X45501Y52007*
X45418*
X45334Y5209*
Y52173*
Y5209*
X45251Y52007*
X45168*
X45084Y5209*
Y52256*
X45168Y5234*
X41576Y49367D02*
X4166Y49284D01*
X41826*
X41909Y49367*
Y497*
X41826Y49783*
X4166*
X41576Y497*
X4116Y49783D02*
Y49284D01*
X4141Y49534*
X41076*
X4066Y49783D02*
Y49284D01*
X4091Y49534*
X40577*
X37798Y49438D02*
X37714Y49521D01*
X37548*
X37464Y49438*
Y49105*
X37548Y49021*
X37714*
X37798Y49105*
X38298Y49521D02*
X37964D01*
Y49271*
X38131Y49355*
X38214*
X38298Y49271*
Y49105*
X38214Y49021*
X38048*
X37964Y49105*
X38464Y49021D02*
X38631D01*
X38547*
Y49521*
X38464Y49438*
X34061Y50207D02*
X34144Y50124D01*
X34311*
X34394Y50207*
Y5054*
X34311Y50623*
X34144*
X34061Y5054*
X33561Y50124D02*
X33894D01*
Y50374*
X33727Y5029*
X33644*
X33561Y50374*
Y5054*
X33644Y50623*
X33811*
X33894Y5054*
X33061Y50623D02*
X33394D01*
X33061Y5029*
Y50207*
X33144Y50124*
X33311*
X33394Y50207*
X30079Y49572D02*
X30162Y49489D01*
X30329*
X30412Y49572*
Y49905*
X30329Y49988*
X30162*
X30079Y49905*
X29579Y49489D02*
X29912D01*
Y49739*
X29745Y49655*
X29662*
X29579Y49739*
Y49905*
X29662Y49988*
X29829*
X29912Y49905*
X29412Y49572D02*
X29329Y49489D01*
X29162*
X29079Y49572*
Y49655*
X29162Y49739*
X29246*
X29162*
X29079Y49822*
Y49905*
X29162Y49988*
X29329*
X29412Y49905*
X23078Y52276D02*
X22995Y52192D01*
Y52026*
X23078Y51942*
X23411*
X23494Y52026*
Y52192*
X23411Y52276*
X22995Y52776D02*
Y52442D01*
X23245*
X23161Y52609*
Y52692*
X23245Y52776*
X23411*
X23494Y52692*
Y52526*
X23411Y52442*
X22995Y53275D02*
X23078Y53109D01*
X23245Y52942*
X23411*
X23494Y53025*
Y53192*
X23411Y53275*
X23328*
X23245Y53192*
Y52942*
X74421Y58047D02*
Y58546D01*
X74172*
X74088Y58463*
Y5813*
X74172Y58047*
X74421*
X73922Y58546D02*
X73755D01*
X73838*
Y58047*
X73922Y5813*
X16391Y50752D02*
Y50418D01*
X1689*
Y50752*
X16641Y50418D02*
Y50585D01*
X1689Y50918D02*
X16557D01*
Y51168*
X16641Y51252*
X1689*
X16557Y51751D02*
Y51501D01*
X16641Y51418*
X16807*
X1689Y51501*
Y51751*
X16474Y51918D02*
X16391Y52001D01*
Y52168*
X16474Y52251*
X16557*
X16641Y52168*
Y52085*
Y52168*
X16724Y52251*
X16807*
X1689Y52168*
Y52001*
X16807Y51918*
X27003Y14342D02*
X26669D01*
Y13842*
X27003*
X26669Y14092D02*
X26836D01*
X27169Y13842D02*
Y14176D01*
X27419*
X27503Y14092*
Y13842*
X28002Y14176D02*
X27752D01*
X27669Y14092*
Y13926*
X27752Y13842*
X28002*
X28169D02*
X28336D01*
X28252*
Y14342*
X28169Y14259*
X47069Y49648D02*
X46902D01*
X46985*
Y49232*
X46902Y49148*
X46819*
X46735Y49232*
X47235Y49648D02*
X47569D01*
X47402*
Y49148*
X47735D02*
Y49482D01*
X47902Y49648*
X48068Y49482*
Y49148*
Y49398*
X47735*
X48568Y49565D02*
X48485Y49648D01*
X48318*
X48235Y49565*
Y49232*
X48318Y49148*
X48485*
X48568Y49232*
Y49398*
X48402*
X42961Y02079D02*
X43044Y02163D01*
Y02329*
X42961Y02412*
X42878*
X42794Y02329*
Y02163*
X42711Y02079*
X42628*
X42544Y02163*
Y02329*
X42628Y02412*
X42544Y01663D02*
Y01829D01*
X42628Y01913*
X42794*
X42878Y01829*
Y01663*
X42794Y01579*
X42711*
Y01913*
X42878Y01413D02*
X42544D01*
X42711*
X42794Y01329*
X42878Y01246*
Y01163*
Y00913D02*
X42544Y00746D01*
X42878Y0058*
X42544Y00413D02*
Y00246D01*
Y0033*
X43044*
X42961Y00413*
X03809Y55498D02*
Y55998D01*
X04059*
X04143Y55915*
Y55748*
X04059Y55665*
X03809*
X04393Y55498D02*
X04559D01*
X04643Y55582*
Y55748*
X04559Y55832*
X04393*
X04309Y55748*
Y55582*
X04393Y55498*
X04892Y55915D02*
Y55832D01*
X04809*
X04976*
X04892*
Y55582*
X04976Y55498*
X05226D02*
X05392D01*
X05309*
Y55998*
X05226Y55915*
X03682Y45211D02*
Y45711D01*
X03932*
X04016Y45628*
Y45461*
X03932Y45378*
X03682*
X04266Y45211D02*
X04432D01*
X04516Y45295*
Y45461*
X04432Y45545*
X04266*
X04182Y45461*
Y45295*
X04266Y45211*
X04765Y45628D02*
Y45545D01*
X04682*
X04849*
X04765*
Y45295*
X04849Y45211*
X05432D02*
X05099D01*
X05432Y45545*
Y45628*
X05349Y45711*
X05182*
X05099Y45628*
X03682Y34924D02*
Y35424D01*
X03932*
X04016Y35341*
Y35174*
X03932Y35091*
X03682*
X04266Y34924D02*
X04432D01*
X04516Y35008*
Y35174*
X04432Y35258*
X04266*
X04182Y35174*
Y35008*
X04266Y34924*
X04765Y35341D02*
Y35258D01*
X04682*
X04849*
X04765*
Y35008*
X04849Y34924*
X05099Y35341D02*
X05182Y35424D01*
X05349*
X05432Y35341*
Y35258*
X05349Y35174*
X05265*
X05349*
X05432Y35091*
Y35008*
X05349Y34924*
X05182*
X05099Y35008*
X03523Y24289D02*
Y24789D01*
X03772*
X03856Y24705*
Y24539*
X03772Y24455*
X03523*
X04106Y24289D02*
X04272D01*
X04356Y24372*
Y24539*
X04272Y24622*
X04106*
X04022Y24539*
Y24372*
X04106Y24289*
X04605Y24705D02*
Y24622D01*
X04522*
X04689*
X04605*
Y24372*
X04689Y24289*
X05189D02*
Y24789D01*
X04939Y24539*
X05272*
X53348Y21923D02*
Y21589D01*
X53847*
Y21923*
X53598Y21589D02*
Y21756D01*
X53847Y22089D02*
X53514D01*
Y22339*
X53598Y22423*
X53847*
X53514Y22922D02*
Y22672D01*
X53598Y22589*
X53764*
X53847Y22672*
Y22922*
Y23339D02*
X53348D01*
X53598Y23089*
Y23422*
X03682Y13969D02*
Y14469D01*
X03932*
X04016Y14386*
Y14219*
X03932Y14136*
X03682*
X04266Y13969D02*
X04432D01*
X04516Y14053*
Y14219*
X04432Y14303*
X04266*
X04182Y14219*
Y14053*
X04266Y13969*
X04765Y14386D02*
Y14303D01*
X04682*
X04849*
X04765*
Y14053*
X04849Y13969*
X05432Y14469D02*
X05099D01*
Y14219*
X05265Y14303*
X05349*
X05432Y14219*
Y14053*
X05349Y13969*
X05182*
X05099Y14053*
X30813Y08671D02*
X30729Y08754D01*
X30563*
X30479Y08671*
Y08588*
X30563Y08504*
X30729*
X30813Y08421*
Y08338*
X30729Y08254*
X30563*
X30479Y08338*
X31229Y08254D02*
X31063D01*
X30979Y08338*
Y08504*
X31063Y08588*
X31229*
X31313Y08504*
Y08421*
X30979*
X31479Y08588D02*
Y08254D01*
Y08421*
X31562Y08504*
X31646Y08588*
X31729*
X31979D02*
X32146Y08254D01*
X32312Y08588*
X32812Y08254D02*
X32479D01*
X32812Y08588*
Y08671*
X32729Y08754*
X32562*
X32479Y08671*
X03682Y03682D02*
Y04182D01*
X03932*
X04016Y04099*
Y03932*
X03932Y03849*
X03682*
X04266Y03682D02*
X04432D01*
X04516Y03766*
Y03932*
X04432Y04016*
X04266*
X04182Y03932*
Y03766*
X04266Y03682*
X04765Y04099D02*
Y04016D01*
X04682*
X04849*
X04765*
Y03766*
X04849Y03682*
X05432Y04182D02*
X05265Y04099D01*
X05099Y03932*
Y03766*
X05182Y03682*
X05349*
X05432Y03766*
Y03849*
X05349Y03932*
X05099*
X54097Y50791D02*
X53931D01*
X53847Y50708*
Y50375*
X53931Y50291*
X54097*
X54181Y50375*
Y50708*
X54097Y50791*
X54681Y50625D02*
X54431D01*
X54347Y50541*
Y50375*
X54431Y50291*
X54681*
X54847D02*
X55014D01*
X5493*
Y50791*
X54847Y50708*
X06603Y65904D02*
Y65404D01*
Y65654*
X06937*
Y65904*
Y65404*
X07187Y65738D02*
X07353D01*
X07437Y65654*
Y65404*
X07187*
X07103Y65488*
X07187Y65571*
X07437*
X07603Y65404D02*
X0777D01*
X07686*
Y65904*
X07603*
X0802Y65404D02*
X08186D01*
X08103*
Y65904*
X0802*
X09269Y65821D02*
X09186Y65904D01*
X09019*
X08936Y65821*
Y65738*
X09019Y65654*
X09186*
X09269Y65571*
Y65488*
X09186Y65404*
X09019*
X08936Y65488*
X09686Y65404D02*
X09519D01*
X09436Y65488*
Y65654*
X09519Y65738*
X09686*
X09769Y65654*
Y65571*
X09436*
X09936Y65404D02*
Y65738D01*
X10186*
X10269Y65654*
Y65404*
X10436D02*
X10685D01*
X10769Y65488*
X10685Y65571*
X10519*
X10436Y65654*
X10519Y65738*
X10769*
X10935Y65404D02*
X11102D01*
X11019*
Y65904*
X10935Y65821*
X06612Y01269D02*
X07028D01*
X07111Y01353*
Y01519*
X07028Y01603*
X06612*
X06695Y02103D02*
X06612Y02019D01*
Y01853*
X06695Y01769*
X06778*
X06862Y01853*
Y02019*
X06945Y02103*
X07028*
X07111Y02019*
Y01853*
X07028Y01769*
X06612Y02269D02*
X07111D01*
Y02519*
X07028Y02602*
X06945*
X06862Y02519*
Y02269*
Y02519*
X06778Y02602*
X06695*
X06612Y02519*
Y02269*
X07111Y02769D02*
Y02936D01*
Y02852*
X06612*
X06695Y02769*
X12791Y01095D02*
X12708Y01011D01*
Y00845*
X12791Y00761*
X13124*
X13207Y00845*
Y01011*
X13124Y01095*
X12958*
Y00928*
X13207Y01261D02*
X12708D01*
Y01511*
X12791Y01595*
X12958*
X13041Y01511*
Y01261*
X12791Y02094D02*
X12708Y02011D01*
Y01844*
X12791Y01761*
X12874*
X12958Y01844*
Y02011*
X13041Y02094*
X13124*
X13207Y02011*
Y01844*
X13124Y01761*
X13291Y02261D02*
Y02594D01*
X12791Y03094D02*
X12708Y03011D01*
Y02844*
X12791Y02761*
X13124*
X13207Y02844*
Y03011*
X13124Y03094*
X13207Y03344D02*
Y03511D01*
X13124Y03594*
X12958*
X12874Y03511*
Y03344*
X12958Y03261*
X13124*
X13207Y03344*
Y0376D02*
X12874D01*
Y0401*
X12958Y04094*
X13207*
X43306Y14723D02*
X43473D01*
X4339*
Y14223*
X43306*
X43473*
X43723D02*
Y14723D01*
X4389Y14557*
X44056Y14723*
Y14223*
X44223Y14723D02*
Y14307D01*
X44306Y14223*
X44473*
X44556Y14307*
Y14723*
X44723Y1414D02*
X45056D01*
X45556Y1464D02*
X45472Y14723D01*
X45306*
X45222Y1464*
Y14307*
X45306Y14223*
X45472*
X45556Y14307*
X45806Y14223D02*
X45972D01*
X46056Y14307*
Y14473*
X45972Y14557*
X45806*
X45722Y14473*
Y14307*
X45806Y14223*
X46222D02*
Y14557D01*
X46472*
X46555Y14473*
Y14223*
X12064Y25188D02*
Y24688D01*
X12398*
X12564D02*
X12731D01*
X12648*
Y25188*
X12564Y25105*
X15874Y21581D02*
Y21081D01*
X16208*
X16708D02*
X16374D01*
X16708Y21415*
Y21498*
X16624Y21581*
X16458*
X16374Y21498*
X20565Y42671D02*
X20065D01*
Y42338*
X20565Y41838D02*
Y42172D01*
X20065*
Y41838*
X20315Y42172D02*
Y42005D01*
X20565Y41672D02*
X20065D01*
Y41422*
X20149Y41339*
X20482*
X20565Y41422*
Y41672*
X20065Y41172D02*
Y41005D01*
Y41089*
X20565*
X20482Y41172*
X14731Y43425D02*
Y42925D01*
X15065*
X15565Y43425D02*
X15231D01*
Y42925*
X15565*
X15231Y43175D02*
X15398D01*
X15731Y43425D02*
Y42925D01*
X15981*
X16064Y43009*
Y43342*
X15981Y43425*
X15731*
X16564Y42925D02*
X16231D01*
X16564Y43259*
Y43342*
X16481Y43425*
X16314*
X16231Y43342*
X15366Y19219D02*
Y18719D01*
X157*
X162Y19219D02*
X15866D01*
Y18719*
X162*
X15866Y18969D02*
X16033D01*
X16366Y19219D02*
Y18719D01*
X16616*
X16699Y18803*
Y19136*
X16616Y19219*
X16366*
X17199D02*
X17033Y19136D01*
X16866Y18969*
Y18803*
X16949Y18719*
X17116*
X17199Y18803*
Y18886*
X17116Y18969*
X16866*
X17554Y72955D02*
Y73289D01*
X17471Y73372*
X17304*
X17221Y73289*
Y72955*
X17304Y72872*
X17471*
X17387Y73039D02*
X17554Y72872D01*
X17471D02*
X17554Y72955D01*
X1772Y72872D02*
X17887D01*
X17804*
Y73372*
X1772Y73289*
X30432Y71965D02*
Y72298D01*
X30348Y72381*
X30182*
X30098Y72298*
Y71965*
X30182Y71881*
X30348*
X30265Y72048D02*
X30432Y71881D01*
X30348D02*
X30432Y71965D01*
X30598Y72298D02*
X30682Y72381D01*
X30848*
X30932Y72298*
Y72215*
X30848Y72131*
X30765*
X30848*
X30932Y72048*
Y71965*
X30848Y71881*
X30682*
X30598Y71965*
X44148Y72727D02*
Y7306D01*
X44064Y73143*
X43898*
X43814Y7306*
Y72727*
X43898Y72643*
X44064*
X43981Y7281D02*
X44148Y72643D01*
X44064D02*
X44148Y72727D01*
X44648Y73143D02*
X44314D01*
Y72893*
X44481Y72977*
X44564*
X44648Y72893*
Y72727*
X44564Y72643*
X44398*
X44314Y72727*
X29844Y46227D02*
Y46727D01*
X30094*
X30178Y46644*
Y46477*
X30094Y46394*
X29844*
X30011D02*
X30178Y46227D01*
X30344D02*
X30511D01*
X30428*
Y46727*
X30344Y46644*
X25145Y42925D02*
Y43425D01*
X25395*
X25479Y43342*
Y43175*
X25395Y43092*
X25145*
X25312D02*
X25479Y42925D01*
X25979D02*
X25645D01*
X25979Y43259*
Y43342*
X25895Y43425*
X25729*
X25645Y43342*
X22859Y13858D02*
Y14358D01*
X23109*
X23193Y14274*
Y14108*
X23109Y14024*
X22859*
X23026D02*
X23193Y13858D01*
X23359Y14274D02*
X23443Y14358D01*
X23609*
X23693Y14274*
Y14191*
X23609Y14108*
X23526*
X23609*
X23693Y14024*
Y13941*
X23609Y13858*
X23443*
X23359Y13941*
X17017Y13842D02*
Y14342D01*
X17267*
X17351Y14259*
Y14092*
X17267Y14009*
X17017*
X17184D02*
X17351Y13842D01*
X17767D02*
Y14342D01*
X17517Y14092*
X17851*
X16128Y24383D02*
Y24883D01*
X16378*
X16462Y248*
Y24633*
X16378Y2455*
X16128*
X16295D02*
X16462Y24383D01*
X16962Y24883D02*
X16628D01*
Y24633*
X16795Y24717*
X16878*
X16962Y24633*
Y24467*
X16878Y24383*
X16712*
X16628Y24467*
X23494Y39242D02*
Y39742D01*
X23744*
X23828Y39659*
Y39492*
X23744Y39409*
X23494*
X23661D02*
X23828Y39242D01*
X24328Y39742D02*
X24161Y39659D01*
X23994Y39492*
Y39326*
X24078Y39242*
X24244*
X24328Y39326*
Y39409*
X24244Y39492*
X23994*
X19923Y16636D02*
X19423D01*
Y16886*
X19507Y1697*
X19673*
X19756Y16886*
Y16636*
Y16803D02*
X19923Y1697D01*
X19423Y17136D02*
Y1747D01*
X19507*
X1984Y17136*
X19923*
X21716Y18033D02*
Y18533D01*
X21966*
X2205Y1845*
Y18283*
X21966Y182*
X21716*
X21883D02*
X2205Y18033D01*
X22216Y1845D02*
X223Y18533D01*
X22466*
X2255Y1845*
Y18367*
X22466Y18283*
X2255Y182*
Y18117*
X22466Y18033*
X223*
X22216Y18117*
Y182*
X223Y18283*
X22216Y18367*
Y1845*
X223Y18283D02*
X22466D01*
X24764Y18084D02*
Y18584D01*
X25014*
X25098Y18501*
Y18334*
X25014Y18251*
X24764*
X24931D02*
X25098Y18084D01*
X25264Y18168D02*
X25348Y18084D01*
X25514*
X25598Y18168*
Y18501*
X25514Y18584*
X25348*
X25264Y18501*
Y18417*
X25348Y18334*
X25598*
X26288Y18033D02*
Y18533D01*
X26538*
X26622Y1845*
Y18283*
X26538Y182*
X26288*
X26455D02*
X26622Y18033D01*
X26788D02*
X26955D01*
X26872*
Y18533*
X26788Y1845*
X27205D02*
X27288Y18533D01*
X27455*
X27538Y1845*
Y18117*
X27455Y18033*
X27288*
X27205Y18117*
Y1845*
X05714Y61363D02*
Y61863D01*
X05964*
X06048Y61779*
Y61613*
X05964Y61529*
X05714*
X05881D02*
X06048Y61363D01*
X06214D02*
X06381D01*
X06298*
Y61863*
X06214Y61779*
X06631Y61363D02*
X06797D01*
X06714*
Y61863*
X06631Y61779*
X06857Y54609D02*
Y5411D01*
X06608*
X06524Y54193*
Y5436*
X06608Y54443*
X06857*
X06691D02*
X06524Y54609D01*
X06358D02*
X06191D01*
X06274*
Y5411*
X06358Y54193*
X05608Y54609D02*
X05941D01*
X05608Y54276*
Y54193*
X05691Y5411*
X05858*
X05941Y54193*
X0546Y51053D02*
Y51553D01*
X0571*
X05794Y5147*
Y51303*
X0571Y5122*
X0546*
X05627D02*
X05794Y51053D01*
X0596D02*
X06127D01*
X06044*
Y51553*
X0596Y5147*
X06377D02*
X0646Y51553D01*
X06627*
X0671Y5147*
Y51387*
X06627Y51303*
X06543*
X06627*
X0671Y5122*
Y51137*
X06627Y51053*
X0646*
X06377Y51137*
X07365Y44449D02*
Y4395D01*
X07116*
X07032Y44033*
Y442*
X07116Y44283*
X07365*
X07199D02*
X07032Y44449D01*
X06866D02*
X06699D01*
X06782*
Y4395*
X06866Y44033*
X06199Y44449D02*
Y4395D01*
X06449Y442*
X06116*
X05714Y4102D02*
Y4152D01*
X05964*
X06048Y41437*
Y4127*
X05964Y41187*
X05714*
X05881D02*
X06048Y4102D01*
X06214D02*
X06381D01*
X06298*
Y4152*
X06214Y41437*
X06964Y4152D02*
X06631D01*
Y4127*
X06797Y41354*
X06881*
X06964Y4127*
Y41104*
X06881Y4102*
X06714*
X06631Y41104*
X07365Y35559D02*
Y36059D01*
X07615*
X07699Y35976*
Y35809*
X07615Y35726*
X07365*
X07532D02*
X07699Y35559D01*
X07865D02*
X08032D01*
X07949*
Y36059*
X07865Y35976*
X08615Y36059D02*
X08448Y35976D01*
X08282Y35809*
Y35643*
X08365Y35559*
X08532*
X08615Y35643*
Y35726*
X08532Y35809*
X08282*
X46608Y27558D02*
X47108D01*
Y27309*
X47025Y27225*
X46858*
X46775Y27309*
Y27558*
Y27392D02*
X46608Y27225D01*
Y27059D02*
Y26892D01*
Y26975*
X47108*
X47025Y27059*
X47108Y26642D02*
Y26309D01*
X47025*
X46692Y26642*
X46608*
X07492Y29717D02*
X07992D01*
Y29468*
X07909Y29384*
X07742*
X07659Y29468*
Y29717*
Y29551D02*
X07492Y29384D01*
Y29218D02*
Y29051D01*
Y29134*
X07992*
X07909Y29218*
Y28801D02*
X07992Y28718D01*
Y28551*
X07909Y28468*
X07826*
X07742Y28551*
X07659Y28468*
X07576*
X07492Y28551*
Y28718*
X07576Y28801*
X07659*
X07742Y28718*
X07826Y28801*
X07909*
X07742Y28718D02*
Y28551D01*
X07111Y26161D02*
X07611D01*
Y25912*
X07528Y25828*
X07361*
X07278Y25912*
Y26161*
Y25995D02*
X07111Y25828D01*
Y25662D02*
Y25495D01*
Y25578*
X07611*
X07528Y25662*
X07195Y25245D02*
X07111Y25162D01*
Y24995*
X07195Y24912*
X07528*
X07611Y24995*
Y25162*
X07528Y25245*
X07445*
X07361Y25162*
Y24912*
X42925Y24637D02*
X42426D01*
Y24887*
X42509Y24971*
X42676*
X42759Y24887*
Y24637*
Y24804D02*
X42925Y24971D01*
Y25471D02*
Y25137D01*
X42592Y25471*
X42509*
X42426Y25387*
Y25221*
X42509Y25137*
X42925Y25637D02*
Y25804D01*
Y2572*
X42426*
X42509Y25637*
X07111Y19049D02*
Y19549D01*
X07361*
X07445Y19466*
Y19299*
X07361Y19216*
X07111*
X07278D02*
X07445Y19049D01*
X07945D02*
X07611D01*
X07945Y19383*
Y19466*
X07861Y19549*
X07695*
X07611Y19466*
X08111D02*
X08194Y19549D01*
X08361*
X08444Y19466*
Y19383*
X08361Y19299*
X08278*
X08361*
X08444Y19216*
Y19133*
X08361Y19049*
X08194*
X08111Y19133*
X06984Y15366D02*
Y15866D01*
X07234*
X07318Y15783*
Y15616*
X07234Y15533*
X06984*
X07151D02*
X07318Y15366D01*
X07818D02*
X07484D01*
X07818Y157*
Y15783*
X07734Y15866*
X07568*
X07484Y15783*
X08234Y15366D02*
Y15866D01*
X07984Y15616*
X08317*
X38861Y22859D02*
Y23359D01*
X39111*
X39195Y23276*
Y23109*
X39111Y23026*
X38861*
X39028D02*
X39195Y22859D01*
X39695D02*
X39361D01*
X39695Y23193*
Y23276*
X39611Y23359*
X39445*
X39361Y23276*
X40194Y23359D02*
X39861D01*
Y23109*
X40028Y23193*
X40111*
X40194Y23109*
Y22943*
X40111Y22859*
X39944*
X39861Y22943*
X43814Y22732D02*
Y23032D01*
X43964*
X44014Y22982*
Y22882*
X43964Y22832*
X43814*
X43914D02*
X44014Y22732D01*
X44314D02*
X44114D01*
X44314Y22932*
Y22982*
X44264Y23032*
X44164*
X44114Y22982*
X44614Y23032D02*
X44514Y22982D01*
X44414Y22882*
Y22782*
X44464Y22732*
X44564*
X44614Y22782*
Y22832*
X44564Y22882*
X44414*
X05968Y51688D02*
Y52188D01*
X06218*
X06302Y52105*
Y51938*
X06218Y51855*
X05968*
X06135D02*
X06302Y51688D01*
X06802D02*
X06468D01*
X06802Y52022*
Y52105*
X06718Y52188*
X06552*
X06468Y52105*
X06968Y52188D02*
X07301D01*
Y52105*
X06968Y51772*
Y51688*
X19684Y38353D02*
X20184D01*
Y38104*
X20101Y3802*
X19934*
X19851Y38104*
Y38353*
Y38187D02*
X19684Y3802D01*
Y3752D02*
Y37854D01*
X20018Y3752*
X20101*
X20184Y37604*
Y3777*
X20101Y37854*
Y37354D02*
X20184Y3727D01*
Y37104*
X20101Y37021*
X20018*
X19934Y37104*
X19851Y37021*
X19768*
X19684Y37104*
Y3727*
X19768Y37354*
X19851*
X19934Y3727*
X20018Y37354*
X20101*
X19934Y3727D02*
Y37104D01*
X17144Y35686D02*
Y35187D01*
X16895*
X16811Y3527*
Y35437*
X16895Y3552*
X17144*
X16978D02*
X16811Y35686D01*
X16311D02*
X16645D01*
X16311Y35353*
Y3527*
X16395Y35187*
X16561*
X16645Y3527*
X16145Y35603D02*
X16061Y35686D01*
X15895*
X15812Y35603*
Y3527*
X15895Y35187*
X16061*
X16145Y3527*
Y35353*
X16061Y35437*
X15812*
X05206Y05206D02*
Y05706D01*
X05456*
X0554Y05623*
Y05456*
X05456Y05373*
X05206*
X05373D02*
X0554Y05206D01*
X05706Y05623D02*
X0579Y05706D01*
X05956*
X0604Y05623*
Y0554*
X05956Y05456*
X05873*
X05956*
X0604Y05373*
Y0529*
X05956Y05206*
X0579*
X05706Y0529*
X06206Y05623D02*
X06289Y05706D01*
X06456*
X06539Y05623*
Y0529*
X06456Y05206*
X06289*
X06206Y0529*
Y05623*
X08Y12318D02*
Y12818D01*
X0825*
X08334Y12735*
Y12568*
X0825Y12485*
X08*
X08167D02*
X08334Y12318D01*
X085Y12735D02*
X08584Y12818D01*
X0875*
X08834Y12735*
Y12652*
X0875Y12568*
X08667*
X0875*
X08834Y12485*
Y12402*
X0875Y12318*
X08584*
X085Y12402*
X09Y12318D02*
X09167D01*
X09083*
Y12818*
X09Y12735*
X07492Y4737D02*
Y4787D01*
X07742*
X07826Y47787*
Y4762*
X07742Y47537*
X07492*
X07659D02*
X07826Y4737D01*
X07992Y47787D02*
X08076Y4787D01*
X08242*
X08326Y47787*
Y47704*
X08242Y4762*
X08159*
X08242*
X08326Y47537*
Y47454*
X08242Y4737*
X08076*
X07992Y47454*
X08825Y4737D02*
X08492D01*
X08825Y47704*
Y47787*
X08742Y4787*
X08575*
X08492Y47787*
X46608Y22224D02*
X47108D01*
Y21975*
X47025Y21891*
X46858*
X46775Y21975*
Y22224*
Y22058D02*
X46608Y21891D01*
X47025Y21725D02*
X47108Y21641D01*
Y21475*
X47025Y21391*
X46942*
X46858Y21475*
Y21558*
Y21475*
X46775Y21391*
X46692*
X46608Y21475*
Y21641*
X46692Y21725*
X46608Y20975D02*
X47108D01*
X46858Y21225*
Y20892*
X3721Y22859D02*
Y23359D01*
X3746*
X37544Y23276*
Y23109*
X3746Y23026*
X3721*
X37377D02*
X37544Y22859D01*
X3771Y23276D02*
X37794Y23359D01*
X3796*
X38044Y23276*
Y23193*
X3796Y23109*
X37877*
X3796*
X38044Y23026*
Y22943*
X3796Y22859*
X37794*
X3771Y22943*
X38543Y23359D02*
X38377Y23276D01*
X3821Y23109*
Y22943*
X38293Y22859*
X3846*
X38543Y22943*
Y23026*
X3846Y23109*
X3821*
X09143Y45846D02*
Y46346D01*
X09393*
X09477Y46263*
Y46096*
X09393Y46013*
X09143*
X0931D02*
X09477Y45846D01*
X09643Y46263D02*
X09727Y46346D01*
X09893*
X09977Y46263*
Y4618*
X09893Y46096*
X0981*
X09893*
X09977Y46013*
Y4593*
X09893Y45846*
X09727*
X09643Y4593*
X10143Y46346D02*
X10476D01*
Y46263*
X10143Y4593*
Y45846*
X40258Y54482D02*
Y54782D01*
X40408*
X40458Y54732*
Y54632*
X40408Y54582*
X40258*
X40358D02*
X40458Y54482D01*
X40758Y54782D02*
X40558D01*
Y54632*
X40658Y54682*
X40708*
X40758Y54632*
Y54532*
X40708Y54482*
X40608*
X40558Y54532*
X41058Y54782D02*
X40858D01*
Y54632*
X40958Y54682*
X41008*
X41058Y54632*
Y54532*
X41008Y54482*
X40908*
X40858Y54532*
X25018Y53974D02*
Y54474D01*
X25268*
X25352Y54391*
Y54224*
X25268Y54141*
X25018*
X25185D02*
X25352Y53974D01*
X25852Y54474D02*
X25518D01*
Y54224*
X25685Y54308*
X25768*
X25852Y54224*
Y54058*
X25768Y53974*
X25602*
X25518Y54058*
X26351Y54474D02*
X26185Y54391D01*
X26018Y54224*
Y54058*
X26101Y53974*
X26268*
X26351Y54058*
Y54141*
X26268Y54224*
X26018*
X18681Y16127D02*
X19181D01*
Y15877*
X19097Y15793*
X18931*
X18847Y15877*
Y16127*
Y1596D02*
X18681Y15793D01*
X19181Y15293D02*
X19097Y1546D01*
X18931Y15627*
X18764*
X18681Y15543*
Y15377*
X18764Y15293*
X18847*
X18931Y15377*
Y15627*
X18764Y15127D02*
X18681Y15044D01*
Y14877*
X18764Y14794*
X19097*
X19181Y14877*
Y15044*
X19097Y15127*
X19014*
X18931Y15044*
Y14794*
X40385Y11302D02*
Y11802D01*
X40635*
X40719Y11719*
Y11552*
X40635Y11469*
X40385*
X40552D02*
X40719Y11302D01*
X40885Y11802D02*
X41219D01*
Y11719*
X40885Y11386*
Y11302*
X41385Y11719D02*
X41468Y11802D01*
X41635*
X41718Y11719*
Y11386*
X41635Y11302*
X41468*
X41385Y11386*
Y11719*
X36956Y50164D02*
Y49665D01*
X36707*
X36623Y49748*
Y49915*
X36707Y49998*
X36956*
X3679D02*
X36623Y50164D01*
X36457Y49665D02*
X36123D01*
Y49748*
X36457Y50081*
Y50164*
X35624D02*
X35957D01*
X35624Y49831*
Y49748*
X35707Y49665*
X35873*
X35957Y49748*
X35813Y53974D02*
X35314D01*
Y54224*
X35397Y54308*
X35564*
X35647Y54224*
Y53974*
Y54141D02*
X35813Y54308D01*
X35314Y54474D02*
Y54808D01*
X35397*
X3573Y54474*
X35813*
Y55224D02*
X35314D01*
X35564Y54974*
Y55307*
X2832Y53974D02*
Y54474D01*
X2857*
X28654Y54391*
Y54224*
X2857Y54141*
X2832*
X28487D02*
X28654Y53974D01*
X2882Y54474D02*
X29154D01*
Y54391*
X2882Y54058*
Y53974*
X2932Y54474D02*
X29653D01*
Y54391*
X2932Y54058*
Y53974*
X28193Y49783D02*
Y49284D01*
X27944*
X2786Y49367*
Y49534*
X27944Y49617*
X28193*
X28027D02*
X2786Y49783D01*
X27694Y49284D02*
X2736D01*
Y49367*
X27694Y497*
Y49783*
X27194Y49367D02*
X2711Y49284D01*
X26944*
X26861Y49367*
Y4945*
X26944Y49534*
X26861Y49617*
Y497*
X26944Y49783*
X2711*
X27194Y497*
Y49617*
X2711Y49534*
X27194Y4945*
Y49367*
X2711Y49534D02*
X26944D01*
X35813Y49529D02*
Y4903D01*
X35564*
X3548Y49113*
Y4928*
X35564Y49363*
X35813*
X35647D02*
X3548Y49529D01*
X35314Y49113D02*
X3523Y4903D01*
X35064*
X3498Y49113*
Y49196*
X35064Y4928*
X3498Y49363*
Y49446*
X35064Y49529*
X3523*
X35314Y49446*
Y49363*
X3523Y4928*
X35314Y49196*
Y49113*
X3523Y4928D02*
X35064D01*
X34814Y49529D02*
X34647D01*
X3473*
Y4903*
X34814Y49113*
X32257Y50037D02*
Y49538D01*
X32008*
X31924Y49621*
Y49788*
X32008Y49871*
X32257*
X32091D02*
X31924Y50037D01*
X31758Y49621D02*
X31674Y49538D01*
X31508*
X31424Y49621*
Y49704*
X31508Y49788*
X31424Y49871*
Y49954*
X31508Y50037*
X31674*
X31758Y49954*
Y49871*
X31674Y49788*
X31758Y49704*
Y49621*
X31674Y49788D02*
X31508D01*
X31258Y49621D02*
X31174Y49538D01*
X31008*
X30925Y49621*
Y49704*
X31008Y49788*
X31091*
X31008*
X30925Y49871*
Y49954*
X31008Y50037*
X31174*
X31258Y49954*
X4745Y16545D02*
X47366Y16628D01*
X472*
X47116Y16545*
Y16462*
X472Y16378*
X47366*
X4745Y16295*
Y16212*
X47366Y16128*
X472*
X47116Y16212*
X47616Y16128D02*
X47783D01*
X477*
Y16628*
X47616Y16545*
X50545Y41393D02*
X50879D01*
X50712*
Y40893*
X51045D02*
X51212D01*
X51129*
Y41393*
X51045Y4131*
X46862Y41393D02*
X47196D01*
X47029*
Y40893*
X47696D02*
X47362D01*
X47696Y41227*
Y4131*
X47612Y41393*
X47446*
X47362Y4131*
X207Y35551D02*
Y35135D01*
X20784Y35051*
X2095*
X21034Y35135*
Y35551*
X212Y35051D02*
X21367D01*
X21284*
Y35551*
X212Y35468*
X50799Y10405D02*
Y09989D01*
X50883Y09905*
X51049*
X51133Y09989*
Y10405*
X51299Y10322D02*
X51383Y10405D01*
X51549*
X51633Y10322*
Y10239*
X51549Y10155*
X51466*
X51549*
X51633Y10072*
Y09989*
X51549Y09905*
X51383*
X51299Y09989*
X14477Y33773D02*
X14811Y33273D01*
Y33773D02*
X14477Y33273D01*
X14977D02*
X15144D01*
X15061*
Y33773*
X14977Y3369*
X12699Y35551D02*
X13033Y35051D01*
Y35551D02*
X12699Y35051D01*
X13533D02*
X13199D01*
X13533Y35385*
Y35468*
X13449Y35551*
X13283*
X13199Y35468*
X51561Y38607D02*
X52061D01*
Y38358*
X51978Y38274*
X51811*
X51728Y38358*
Y38607*
Y38441D02*
X51561Y38274D01*
Y37774D02*
Y38108D01*
X51895Y37774*
X51978*
X52061Y37858*
Y38024*
X51978Y38108*
Y37608D02*
X52061Y37524D01*
Y37358*
X51978Y37275*
X51645*
X51561Y37358*
Y37524*
X51645Y37608*
X51978*
X42163Y37083D02*
Y37583D01*
X42413*
X42497Y375*
Y37333*
X42413Y3725*
X42163*
X4233D02*
X42497Y37083D01*
X42997D02*
X42663D01*
X42997Y37417*
Y375*
X42913Y37583*
X42747*
X42663Y375*
X43496Y37083D02*
X43163D01*
X43496Y37417*
Y375*
X43413Y37583*
X43246*
X43163Y375*
X52831Y3975D02*
Y4025D01*
X53081*
X53165Y40167*
Y4*
X53081Y39917*
X52831*
X52998D02*
X53165Y3975D01*
X53331Y40167D02*
X53415Y4025D01*
X53581*
X53665Y40167*
Y40084*
X53581Y4*
X53665Y39917*
Y39834*
X53581Y3975*
X53415*
X53331Y39834*
Y39917*
X53415Y4*
X53331Y40084*
Y40167*
X53415Y4D02*
X53581D01*
X53831Y4025D02*
X54164D01*
Y40167*
X53831Y39834*
Y3975*
X42751Y54772D02*
X42667Y54855D01*
X42501*
X42417Y54772*
Y54439*
X42501Y54355*
X42667*
X42751Y54439*
X42917Y54855D02*
X43251D01*
Y54772*
X42917Y54439*
Y54355*
X4375D02*
X43417D01*
X4375Y54689*
Y54772*
X43667Y54855*
X435*
X43417Y54772*
G54D83*
X30954Y50698D02*
X31106D01*
X3103Y50622D02*
Y50774D01*
X3311Y54027D02*
X33262D01*
X33186Y53951D02*
Y54103D01*
X3863Y50698D02*
X38782D01*
X38706Y50622D02*
Y50774D01*
X23215Y17578D02*
X23367D01*
X23291Y17502D02*
Y17654D01*
X42265Y42011D02*
X42417D01*
X42341Y41935D02*
Y42087D01*
X33094Y175D02*
Y17652D01*
X33018Y17576D02*
X3317D01*
X39623Y3241D02*
X39776D01*
X397Y32334D02*
Y32486D01*
G54D84*
X06222Y82168D02*
X0673D01*
Y82041*
X06222Y81533*
Y81406*
X0673*
X07111Y81914D02*
X07365D01*
X07492Y81787*
Y81406*
X07111*
X06984Y81533*
X07111Y8166*
X07492*
X08254Y81914D02*
X07873D01*
X07746Y81787*
Y81533*
X07873Y81406*
X08254*
X08508Y82168D02*
Y81406D01*
Y81787*
X08635Y81914*
X08889*
X09016Y81787*
Y81406*
X09396Y81914D02*
X0965D01*
X09777Y81787*
Y81406*
X09396*
X09269Y81533*
X09396Y8166*
X09777*
X10031Y81914D02*
Y81406D01*
Y8166*
X10158Y81787*
X10285Y81914*
X10412*
X10793D02*
Y81533D01*
X1092Y81406*
X11301*
Y81279*
X11174Y81153*
X11047*
X11301Y81406D02*
Y81914D01*
X12316Y81406D02*
Y81914D01*
X1257Y82168*
X12824Y81914*
Y81406*
Y81787*
X12316*
X13078Y81406D02*
X13459D01*
X13586Y81533*
X13459Y8166*
X13205*
X13078Y81787*
X13205Y81914*
X13586*
X1384Y81406D02*
Y81914D01*
X13967*
X14094Y81787*
Y81406*
Y81787*
X14221Y81914*
X14348Y81787*
Y81406*
X14602Y81914D02*
Y81533D01*
X14729Y81406*
X1511*
Y81914*
X15363Y81406D02*
X15744D01*
X15871Y81533*
X15744Y8166*
X1549*
X15363Y81787*
X1549Y81914*
X15871*
X16125Y81406D02*
X16506D01*
X16633Y81533*
X16506Y8166*
X16252*
X16125Y81787*
X16252Y81914*
X16633*
X17268Y81406D02*
X17014D01*
X16887Y81533*
Y81787*
X17014Y81914*
X17268*
X17395Y81787*
Y8166*
X16887*
X17649Y81406D02*
Y81914D01*
X1803*
X18157Y81787*
Y81406*
M02*