%FSTAX23Y23*%
%MOMM*%
%SFA1B1*%

%IPPOS*%
%ADD35C,0.299999*%
%ADD37C,2.999994*%
%ADD39C,0.999998*%
%ADD42C,4.999990*%
%ADD56C,0.584199*%
%ADD90R,2.103196X2.903194*%
%ADD92R,2.803194X2.103196*%
%ADD93R,1.203198X2.203196*%
%ADD94R,3.703193X2.703195*%
%ADD99R,1.703197X1.503197*%
%ADD100R,1.203198X1.303197*%
%ADD101R,1.303197X1.203198*%
%ADD102R,10.298179X10.898178*%
%ADD103R,0.953198X2.488195*%
%ADD113R,2.903194X2.103196*%
%ADD114C,3.703193*%
%ADD115R,1.703197X1.703197*%
%ADD116C,1.703197*%
%ADD117C,4.013192*%
%ADD118C,5.203190*%
%ADD119C,0.838198*%
%ADD120C,1.727197*%
%ADD121R,6.349987X3.609993*%
%ADD122O,0.903198X2.703195*%
%ADD123C,0.833198*%
%ADD124R,0.503199X1.753196*%
%ADD125R,8.953182X5.403189*%
%ADD126R,5.203190X2.203196*%
%ADD127R,2.203196X2.203196*%
%ADD128O,2.703195X0.903198*%
%ADD129O,0.453199X0.853198*%
%ADD130O,0.853198X0.453199*%
%ADD131R,4.703191X4.703191*%
%LNninja_ecu_pcb-1*%
%LPD*%
G54D35*
X36165Y51786D02*
X36829Y5245D01*
X3194Y52582D02*
X34001Y54644D01*
X32072Y5245D02*
X32891Y51632D01*
X36165Y51046D02*
Y51786D01*
G54D37*
X36512Y5753D02*
X37025D01*
X32702D02*
X33972D01*
X18287D02*
X19557D01*
X23367Y53339D02*
Y56941D01*
X34019Y57578D02*
X35305Y56292D01*
X3194Y56824D02*
Y5753D01*
Y56824D02*
X32603Y56161D01*
X18033Y5403D02*
Y5753D01*
X20573D02*
X23113D01*
X19303D02*
X20573D01*
X36512D02*
X36829Y57213D01*
Y5245D02*
Y57213D01*
X32703Y53412D02*
Y5606D01*
X35305Y5245D02*
Y56292D01*
X20624Y51439D02*
Y5748D01*
X3194Y5753D02*
X32702D01*
X34019Y57578D02*
X36465D01*
X31717Y5245D02*
X32072D01*
X31415Y52149D02*
X31717Y5245D01*
X29798Y52149D02*
X31415D01*
X29496Y5245D02*
X29798Y52149D01*
X2578Y5245D02*
X29496D01*
X4483Y5753D02*
X44878Y57483D01*
X4991Y5753D02*
X50423D01*
X4737D02*
X4991D01*
X461D02*
X4737D01*
X4483D02*
X461D01*
X36829Y5245D02*
X36877Y52403D01*
X20624Y51439D02*
X21635Y5245D01*
X2578*
X40432Y52403D02*
X4048Y5245D01*
X40545*
X40593Y52403*
X4221*
X42258Y5245*
X4483*
Y53626*
X44878Y53674*
Y57483*
X36877Y52403D02*
X40432D01*
X36194Y5245D02*
X36829D01*
X49904Y51439D02*
Y57524D01*
X4737Y53973D02*
Y5753D01*
X34001Y54644D02*
X36194Y5245D01*
X31894D02*
X35128D01*
G54D39*
X5118Y52716D02*
Y5753D01*
X49904Y51439D02*
X5118Y52716D01*
X51423Y57773D02*
Y58546D01*
X4356Y55194D02*
Y58546D01*
Y55194D02*
X43878Y54877D01*
Y54088D02*
Y54877D01*
X4356Y58546D02*
X51423D01*
G54D42*
X4864Y66293D02*
Y74675D01*
X35178Y66293D02*
Y74675D01*
X21589Y66293D02*
Y74675D01*
G54D56*
X41579Y4492D03*
X40279D03*
X38979D03*
X37679D03*
X36379D03*
X35079D03*
X33779D03*
X32479D03*
X31179D03*
X29879D03*
X28579D03*
X41579Y4362D03*
X40279D03*
X38979D03*
X37679D03*
X36379D03*
X35079D03*
X33779D03*
X32479D03*
X31179D03*
X29879D03*
X28579D03*
X41579Y4232D03*
X40279D03*
X38979D03*
X37679D03*
X36379D03*
X35079D03*
X33779D03*
X32479D03*
X31179D03*
X29879D03*
X28579D03*
X41579Y4102D03*
X40279D03*
X38979D03*
X37679D03*
X36379D03*
X35079D03*
X33779D03*
X32479D03*
X31179D03*
X29879D03*
X28579D03*
G54D90*
X39623Y75056D03*
X44223D03*
X04825Y45592D03*
X09425D03*
X51321Y20446D03*
X46721D03*
X44576Y16763D03*
X39976D03*
X49402Y1689D03*
X54002D03*
G54D92*
X21716Y09379D03*
Y05079D03*
G54D93*
X5118Y24129D03*
X4888D03*
X4658D03*
G54D94*
X4888Y30329D03*
G54D99*
X38099Y28955D03*
Y27055D03*
X40195Y28955D03*
Y27055D03*
X42294Y28955D03*
Y27055D03*
X16636Y06344D03*
Y04444D03*
X06476Y06503D03*
Y04603D03*
G54D100*
X01269Y22429D03*
Y24129D03*
X53847Y56592D03*
Y58292D03*
X55371Y58214D03*
Y56514D03*
X42036Y61037D03*
Y62737D03*
Y5923D03*
Y5753D03*
X28574Y62737D03*
Y61037D03*
Y5923D03*
Y5753D03*
X10667Y25194D03*
Y23494D03*
X12191D03*
Y25194D03*
X21081Y20241D03*
Y18541D03*
X11556Y04903D03*
Y06603D03*
X22605Y18492D03*
Y20192D03*
X24129Y18492D03*
Y20192D03*
X43814Y38939D03*
Y40639D03*
X39496Y35735D03*
Y34035D03*
X37337Y20016D03*
Y21716D03*
X39115Y20016D03*
Y21716D03*
X44068Y20143D03*
Y21843D03*
X37972Y35735D03*
Y34035D03*
X38099Y25067D03*
Y23367D03*
X40131Y25067D03*
Y23367D03*
X4229Y25067D03*
Y23367D03*
X58165Y09094D03*
Y10794D03*
X14731Y25067D03*
Y23367D03*
X03936Y23924D03*
Y22224D03*
X01142Y08D03*
Y097D03*
X16636Y2494D03*
Y2324D03*
X18795Y10872D03*
Y12572D03*
X18414Y22908D03*
Y21208D03*
X16382Y01308D03*
Y03008D03*
X0673Y0122D03*
Y0292D03*
X24383Y05393D03*
Y07093D03*
X26542Y40385D03*
Y38685D03*
X34543Y18619D03*
Y20319D03*
X18795Y36751D03*
Y35051D03*
X15112Y34924D03*
Y36624D03*
X06476Y12367D03*
Y10667D03*
X57657Y22527D03*
Y20827D03*
X35051Y31573D03*
Y33273D03*
X51561Y33351D03*
Y35051D03*
G54D101*
X02412Y19811D03*
X04112D03*
X02822Y07487D03*
X04522D03*
X02744Y05968D03*
X04444D03*
Y04444D03*
X02744D03*
X26464Y13715D03*
X24764D03*
X26464Y12191D03*
X24764D03*
X45133Y334D03*
X43433D03*
X48562D03*
X46862D03*
X45094Y35178D03*
X43394D03*
X30049Y3467D03*
X31749D03*
X5456Y02412D03*
X5626D03*
X50975D03*
X49275D03*
X08713Y09016D03*
X10413D03*
X224Y03156D03*
X207D03*
X05538Y22605D03*
X07238D03*
X29258Y30606D03*
X27558D03*
X44244Y31876D03*
X42544D03*
X35481Y34924D03*
X33781D03*
X43384Y36702D03*
X45084D03*
X46735Y35178D03*
X48435D03*
X26669Y3467D03*
X28369D03*
X53798Y19684D03*
X55498D03*
X3637Y24129D03*
X3467D03*
X48132Y36829D03*
X49832D03*
G54D102*
X4864Y66573D03*
X35242D03*
X21843D03*
G54D103*
X4483Y5753D03*
X461D03*
X4737D03*
X4991D03*
X5118D03*
X5245D03*
X31432D03*
X32702D03*
X33972D03*
X36512D03*
X37782D03*
X39052D03*
X18033D03*
X19303D03*
X20573D03*
X23113D03*
X24383D03*
X25653D03*
G54D113*
X13969Y02031D03*
Y06631D03*
X09143Y01603D03*
Y06203D03*
X53974Y25018D03*
Y29618D03*
X57784Y46735D03*
Y51335D03*
X13588Y50672D03*
Y46072D03*
Y53339D03*
Y57939D03*
X40258Y1387D03*
Y0927D03*
G54D114*
X63272Y55833D03*
Y70833D03*
G54D115*
X31654Y01523D03*
X40893D03*
G54D116*
X31654Y04063D03*
Y06603D03*
X40893Y04063D03*
Y06603D03*
G54D117*
X0927Y72008D03*
X7658Y74548D03*
X05333Y72008D03*
X72262Y74548D03*
X4864Y74675D03*
X35178D03*
X21589D03*
G54D118*
X02412Y-01142D03*
X7658Y82041D03*
Y-01142D03*
X02412Y82041D03*
G54D119*
X27177Y55117D03*
G54D120*
X61213Y02285D03*
X65404D03*
G54D121*
X35032Y42992D03*
G54D122*
X01269Y168D03*
X02539D03*
X03809D03*
X05079D03*
X01269Y119D03*
X02539D03*
X03809D03*
X05079D03*
G54D123*
X44576Y04597D03*
X45846D03*
X47116D03*
X48386D03*
X49656D03*
X50926D03*
X52196D03*
X53466D03*
X54736D03*
X56006D03*
X44576Y05867D03*
X45846D03*
X47116D03*
X48386D03*
X49656D03*
X50926D03*
X52196D03*
X53466D03*
X54736D03*
X56006D03*
X44576Y07137D03*
X45846D03*
X47116D03*
X48386D03*
X49656D03*
X50926D03*
X52196D03*
X53466D03*
X54736D03*
X56006D03*
X44576Y08407D03*
X45846D03*
X47116D03*
X48386D03*
X49656D03*
X50926D03*
X52196D03*
X53466D03*
X54736D03*
X56006D03*
X43306Y09677D03*
X44576D03*
X45846D03*
X47116D03*
X48386D03*
X49656D03*
X50926D03*
X43306Y10947D03*
X44576D03*
X45846D03*
X47116D03*
X48386D03*
X49656D03*
X50926D03*
X53466D03*
X54736D03*
X56006D03*
X43306Y12217D03*
X44576D03*
X45846D03*
X47116D03*
X48386D03*
X49656D03*
X50926D03*
X53466D03*
X54736D03*
X56006D03*
Y13487D03*
X54736D03*
X53466D03*
X50926D03*
X49656D03*
X48386D03*
X47116D03*
X45846D03*
X44576D03*
X43306D03*
Y04597D03*
Y05867D03*
Y07137D03*
Y08407D03*
G54D124*
X41782Y39242D03*
X41282D03*
X40782D03*
X40282D03*
X39782D03*
X39282D03*
X38782D03*
X38282D03*
X37782D03*
X37282D03*
X36782D03*
X36282D03*
X35782D03*
X35282D03*
X34782D03*
X34282D03*
X33782D03*
X33282D03*
X32782D03*
X32282D03*
X31782D03*
X31282D03*
X30782D03*
X30282D03*
X29782D03*
X29282D03*
X28782D03*
X28282D03*
Y46742D03*
X28782Y46735D03*
X29282Y46742D03*
X29782D03*
X30282D03*
X30782D03*
X31282D03*
X31782D03*
X32282D03*
X32782D03*
X33282D03*
X33782D03*
X34282D03*
X34782D03*
X35282D03*
X35782D03*
X36282D03*
X36782D03*
X37282D03*
X37782D03*
X38282D03*
X38782D03*
X39282D03*
X39782D03*
X40282D03*
X40782D03*
X41282D03*
X41782D03*
G54D125*
X20624Y51439D03*
Y40639D03*
X49904Y51439D03*
Y40639D03*
G54D126*
X55498Y32407D03*
Y35963D03*
G54D127*
X56006Y44322D03*
Y39369D03*
G54D128*
X26505Y16128D03*
Y17398D03*
Y18668D03*
Y19938D03*
X31405Y16128D03*
Y17398D03*
Y18668D03*
Y19938D03*
G54D129*
X16754Y12415D03*
X16254D03*
X15754D03*
X15254D03*
X14754D03*
X14254D03*
X13754D03*
X13254D03*
X12754D03*
X12254D03*
X11754D03*
X11254D03*
X10754D03*
X10254D03*
X09754D03*
X09254D03*
Y21365D03*
X09754D03*
X10254D03*
X10754D03*
X11254D03*
X11754D03*
X12254D03*
X12754D03*
X13254D03*
X13754D03*
X14254D03*
X14754D03*
X15254D03*
X15754D03*
X16254D03*
X16754D03*
G54D130*
X08529Y1314D03*
Y1364D03*
Y1414D03*
Y1464D03*
Y1514D03*
Y1564D03*
Y1614D03*
Y1664D03*
Y1714D03*
Y1764D03*
Y1814D03*
Y1864D03*
Y1914D03*
Y1964D03*
Y2014D03*
Y2064D03*
X17479D03*
Y2014D03*
Y1964D03*
Y1914D03*
Y1864D03*
Y1814D03*
Y1764D03*
Y1714D03*
Y1664D03*
Y1614D03*
Y1564D03*
Y1514D03*
Y1464D03*
Y1414D03*
Y1364D03*
Y1314D03*
G54D131*
X13004Y1689D03*
M02*