%FSTAX23Y23*%
%MOIN*%
%SFA1B1*%

%IPPOS*%
%ADD10R,0.039370X0.043310*%
%ADD11R,0.043310X0.039370*%
%ADD12R,0.051180X0.059060*%
%ADD13R,0.102360X0.074800*%
%ADD14R,0.102360X0.106300*%
%ADD15R,0.031500X0.013780*%
%ADD16R,0.013780X0.031500*%
%ADD17R,0.137800X0.098430*%
%ADD18R,0.039370X0.078740*%
%ADD19O,0.011810X0.082680*%
%ADD20O,0.082680X0.011810*%
%ADD21R,0.031500X0.039370*%
%ADD22R,0.061020X0.051180*%
%ADD23R,0.059060X0.051180*%
%ADD24R,0.074800X0.106300*%
%ADD25R,0.031500X0.094490*%
%ADD26R,0.051180X0.031500*%
%ADD27R,0.031500X0.051180*%
%ADD28R,0.157480X0.031500*%
%ADD29R,0.031500X0.157480*%
%ADD30R,0.029530X0.089960*%
%ADD31R,0.391540X0.354920*%
%ADD32C,0.011810*%
%ADD33C,0.009840*%
%ADD34C,0.019690*%
%ADD35C,0.015750*%
%ADD36C,0.027560*%
%ADD37C,0.039370*%
%ADD38C,0.118110*%
%ADD39C,0.196850*%
%ADD40C,0.015000*%
%ADD41C,0.177160*%
%ADD42C,0.157480*%
%ADD43R,0.118110X0.082680*%
%ADD44R,0.082680X0.118110*%
%ADD45R,0.090550X0.059060*%
%ADD46R,0.059060X0.090550*%
%ADD47C,0.118110*%
%ADD48C,0.196850*%
%ADD49C,0.098430*%
%ADD50R,0.059060X0.059060*%
%ADD51C,0.059060*%
%ADD52C,0.027170*%
%ADD53C,0.025000*%
%ADD54C,0.078740*%
%LNninja_3_2_pcb-1*%
%LPD*%
G36*
X02107Y00959D02*
X02066Y00918D01*
X02037Y00889*
X01961*
X01959Y00892*
X01958Y00894*
X01959Y009*
X01958Y00906*
X01956Y00912*
X01952Y00917*
X01947Y00921*
X01941Y00923*
X01935Y00924*
X01928Y00923*
X01922Y00921*
X01917Y00917*
X01913Y00912*
X01911Y00906*
X0191Y009*
X01911Y00894*
X0191Y00892*
X01908Y00889*
X01896*
X01894Y00892*
X01893Y00894*
X01894Y009*
X01893Y00906*
X01891Y00912*
X01887Y00917*
X01883Y0092*
X01883Y00924*
X01884Y00925*
X01887Y00927*
X0189Y00933*
X01892Y0094*
X0189Y00946*
X01887Y00952*
X01881Y00955*
X01875Y00957*
X01795*
X01788Y00955*
X01782Y00952*
X01777Y00947*
X01774Y00941*
X01772Y00935*
X01774Y00928*
X01777Y00922*
X01783Y00919*
X0179Y00917*
X01796Y00919*
X01802Y00922*
X01802*
X01851*
X01853Y00917*
X01852Y00917*
X01848Y00912*
X01846Y00906*
X01845Y009*
X01846Y00894*
X01845Y00892*
X01843Y00889*
X01831*
Y009*
X0176*
X01756Y00903*
Y00963*
X01761*
X01828*
Y00977*
X02078*
X02084Y00979*
X0209Y00982*
X02102Y00994*
X02107*
Y00959*
G37*
G36*
X00202Y01523D02*
X00213D01*
Y01472*
Y01411*
X00252*
X00485Y01179*
Y01054*
X00486Y01047*
X0049Y01041*
X00499Y01032*
X00497Y01028*
X00276*
Y01062*
Y01115*
X00281Y01118*
X00307Y01144*
X0031Y01149*
X00312Y01156*
Y01299*
X00313Y01305*
X00312Y0131*
Y01328*
X0031Y01334*
X00307Y0134*
X0026Y01386*
X00257Y0139*
X00251Y01394*
X00245Y01396*
X00214*
X00193Y01417*
Y01517*
X00196Y01523*
X00197Y01524*
X00202Y01523*
G37*
G36*
X00258Y00993D02*
X00265Y00991D01*
X0035*
X00352Y00988*
X00352Y00986*
X00348Y00982*
X00346Y00976*
X00345Y0097*
X00346Y00963*
X00348Y00957*
X00352Y00952*
X00357Y00948*
X00359Y00948*
X00358Y00943*
X0029*
X00257Y00975*
X00251Y00979*
X00245Y00981*
X00219*
Y00996*
X00253*
X00258Y00993*
G37*
G36*
X0027Y00912D02*
X00276Y00908D01*
X00283Y00906*
X00296*
X00298Y00902*
X00298Y00902*
X00296Y00896*
X00295Y0089*
X00296Y00883*
X00298Y00877*
X00302Y00872*
X00307Y00868*
X00313Y00866*
X0032Y00865*
X00326Y00866*
X00332Y00868*
X00336Y00872*
X00338Y00872*
X00341Y0087*
Y00857*
X00308Y00824*
X00304Y00826*
X00304Y0083*
X00303Y00836*
X00301Y00842*
X00297Y00847*
X00292Y00851*
X00286Y00853*
X0028Y00854*
X00273Y00853*
X00267Y00851*
X00262Y00847*
X00258Y00842*
X00256Y00836*
X00255Y0083*
X00256Y00823*
X00258Y00817*
X00262Y00812*
X00267Y00808*
X00273Y00806*
X0028Y00805*
X00286Y00806*
X00292Y00808*
X00296Y00811*
X003Y00809*
X003Y00809*
X003Y00808*
Y00757*
X00296Y00754*
X00295Y00754*
X00288Y00753*
X00282Y00751*
X00281Y0075*
X00276Y00752*
Y00786*
X00263*
X0026Y00791*
X00261Y00796*
X0026Y00803*
X00258Y00809*
X00254Y00814*
X00249Y00818*
X00243Y0082*
X00236Y00821*
X0023Y0082*
X00224Y00818*
X00222Y00816*
X00217Y00818*
Y00835*
X00201*
Y00944*
X00201Y00945*
X00237*
X0027Y00912*
G37*
G36*
X00158Y01047D02*
Y00841D01*
X0013*
X00126Y00843*
X0012Y00844*
X00113Y00843*
X00107Y00841*
X00102Y00837*
X00098Y00832*
X00096Y00826*
X00095Y0082*
X00096Y00813*
X00098Y00807*
X00102Y00802*
X00107Y00798*
X00113Y00796*
X0012Y00795*
X00126Y00796*
X0013Y00798*
X00142*
Y00758*
X00137Y00755*
X00137Y00756*
X00131Y00758*
X00125Y00759*
X00118Y00758*
X00112Y00756*
X00107Y00752*
X00103Y00747*
X00101Y00741*
X001Y00735*
X00101Y00728*
X00103Y00722*
X00107Y00717*
X00112Y00713*
X00118Y00711*
X00125Y0071*
X00131Y00711*
X00137Y00713*
X00142Y00717*
X00146Y00722*
X00148Y00728*
X00149Y00731*
X00172*
X00173Y00726*
X00167Y00722*
X00163Y00716*
X00161Y0071*
Y00623*
X00163Y00616*
X00167Y0061*
X00231Y00545*
Y00504*
X00179*
X00172Y00503*
X00166Y00499*
X0015Y00484*
X00146Y00486*
Y00541*
X00145Y00546*
X00142Y0055*
X00138Y00552*
X00138Y00552*
Y00557*
X00138Y00557*
X00142Y0056*
X00145Y00564*
X00146Y00569*
Y00651*
X00145Y00656*
X00142Y0066*
X00138Y00662*
X00134Y00663*
X00016*
X00011Y00662*
X00007Y0066*
X00007Y00659*
X00002Y00661*
Y00859*
X00007Y00861*
X00007Y0086*
X00011Y00857*
X00016Y00856*
X00134*
X00138Y00857*
X00142Y0086*
X00145Y00864*
X00146Y00869*
Y00951*
X00145Y00956*
X00142Y0096*
X00138Y00962*
X00138Y00962*
Y00967*
X00138Y00967*
X00142Y0097*
X00145Y00974*
X00146Y00979*
Y01052*
X0015Y01054*
X00158Y01047*
G37*
G36*
X02082Y01197D02*
Y01132D01*
X02061*
X02058Y01137*
X02058Y01138*
X02059Y01145*
X02058Y01151*
X02056Y01157*
X02052Y01162*
X02047Y01166*
X02041Y01168*
X02036Y01169*
X02034Y01173*
X02034Y01174*
X02036Y01178*
X02038Y01185*
Y01203*
X02045Y01211*
X02049Y01216*
X0205Y01223*
X02051Y01224*
X02055Y01225*
X02082Y01197*
G37*
G36*
X00194Y01365D02*
X002Y01361D01*
X00206Y0136*
X00238*
X00266Y01332*
X00264Y01328*
X0025*
X00243Y01326*
X00237Y01322*
X00233Y01316*
X00231Y0131*
X00233Y01303*
X00237Y01297*
X00243Y01293*
X0025Y01291*
X00277*
Y01276*
X00218*
Y0125*
X00217Y01245*
X00183*
X00171Y01257*
Y01381*
X00176Y01383*
X00194Y01365*
G37*
G36*
X01142Y01337D02*
X01149Y01335D01*
X01156Y01337*
X01159Y01338*
X0116Y01338*
X01162Y01337*
X01163Y01336*
X01163Y01336*
X01163Y01331*
X01162Y01331*
X01157Y01327*
X01153Y01322*
X01151Y01316*
X0115Y0131*
X01151Y01303*
X01153Y01297*
X01157Y01292*
X01162Y01288*
X01168Y01286*
X01175Y01285*
X01181Y01286*
X01187Y01288*
X0119Y0129*
X01192Y01287*
X01197Y01283*
X01203Y01281*
X0121Y0128*
X01216Y01281*
X01222Y01283*
X01227Y01287*
X0123Y01291*
X01233Y01288*
X01239Y01286*
X01246Y01285*
X01252Y01286*
X01258Y01288*
X01263Y01292*
X01265Y01295*
X01267Y01293*
X01273Y01291*
X01274Y01291*
X01276Y01287*
Y01281*
X01273Y01277*
X01271Y01271*
X0127Y01265*
X01271Y01258*
X01273Y01252*
X01277Y01247*
X01282Y01243*
X01288Y01241*
X01295Y0124*
X013Y01241*
X013Y01241*
X01303Y01235*
X01306Y0123*
X01312Y01226*
X01313Y01225*
X01313Y01225*
X01311Y01218*
Y01211*
X01308Y01207*
X01306Y01201*
X01305Y01195*
X01306Y01188*
X01308Y01182*
X01311Y01178*
X0131Y01175*
X01309Y01173*
X01305Y01174*
X01298Y01173*
X01292Y01171*
X01287Y01167*
X01283Y01162*
X01281Y01156*
X0128Y0115*
X01281Y01143*
X01283Y01137*
X01287Y01132*
X01292Y01128*
X01298Y01126*
X01305Y01125*
X01311Y01126*
X01317Y01128*
X01322Y01132*
X01326Y01133*
X01332Y01137*
X01352Y01157*
X01356Y01154*
X01355Y01149*
X01357Y01142*
X01359Y01139*
X01357Y01136*
X01355Y01129*
X01357Y01122*
X01359Y01119*
X01357Y01116*
X01355Y01109*
X01357Y01102*
X01359Y01099*
X01357Y01096*
X01355Y0109*
X01353Y01087*
X01349*
X01345Y01089*
X01343Y0109*
X01344Y01095*
X01343Y01101*
X01341Y01107*
X01337Y01112*
X01332Y01116*
X01326Y01118*
X0132Y01119*
X01313Y01118*
X01307Y01116*
X01302Y01112*
X01298Y01107*
X01296Y01101*
X01295Y01095*
X01296Y01088*
X01298Y01082*
X01302Y01077*
X01303Y01076*
X01304Y01073*
X01307Y01067*
X0131Y01065*
X01308Y01062*
X01305Y01056*
X01304Y0105*
X01305Y01044*
X01308Y01038*
X01312Y01033*
X01317Y01029*
X01323Y01026*
X01329Y01026*
X01335Y01026*
X01341Y01029*
X01345Y01032*
X01354*
X01355Y0103*
X01357Y01024*
X01359Y01021*
X01357Y01018*
X01355Y01011*
X01354Y01009*
X01319*
X01316Y01012*
X0131Y01016*
X01303Y01018*
X01296Y01016*
X01293Y01014*
X0129Y01015*
X01284Y01014*
X01278Y01011*
X01273Y01008*
X01269Y01002*
X01267Y00997*
X01266Y0099*
X01267Y00984*
X01269Y00978*
X01273Y00973*
X01278Y00969*
X01284Y00967*
X01285Y00966*
X01285Y00966*
X01286Y0096*
X01289Y00954*
X01293Y00949*
X01298Y00945*
X01304Y00942*
X0131Y00942*
X01316Y00942*
X01321Y00944*
X01337Y00927*
X01338Y00927*
X01345Y0092*
X0135Y00916*
X01356Y00915*
X01355Y00912*
X01357Y00905*
X01359Y00902*
X01357Y009*
X01356Y00898*
X01351Y00896*
X01346Y00898*
X01344Y00898*
X01344Y009*
X01343Y00906*
X01341Y00912*
X01337Y00917*
X01332Y00921*
X01326Y00923*
X0132Y00924*
X01313Y00923*
X01307Y00921*
X01302Y00917*
X01298Y00912*
X01296Y00906*
X01296Y00905*
X01294Y00903*
X01291Y00898*
X01289Y00891*
Y00881*
X01285Y00877*
X01285Y00878*
X01282Y00877*
X01278Y0088*
X01278Y00881*
X01276Y00887*
X01272Y00892*
X01267Y00896*
X01261Y00898*
X01255Y00899*
X01248Y00898*
X01242Y00896*
X01237Y00892*
X01235Y00889*
X01232Y00891*
X01226Y00893*
X0122Y00894*
X01213Y00893*
X01212Y00893*
X01211Y00897*
X01207Y00902*
X01202Y00906*
X01196Y00908*
X0119Y00909*
X01183Y00908*
X01177Y00906*
X01172Y00902*
X01168Y00897*
X01167Y00893*
X01166Y00893*
X0116Y00894*
X01153Y00893*
X01147Y00891*
X01142Y00887*
X01141Y00885*
X01137Y00882*
X01136Y00882*
X01136Y00881*
X01133Y00881*
X0113Y00882*
X01127Y00887*
X01122Y00891*
X01116Y00893*
X0111Y00894*
X01103Y00893*
X01097Y00891*
X01092Y00887*
X01092Y00887*
X01087*
X01087Y00887*
X01085Y00888*
X01085Y00893*
X01092Y009*
X01095Y00905*
X01097Y00912*
Y00972*
X01097Y00972*
X01101Y00977*
X01103Y00983*
X01104Y0099*
X01104Y00992*
X01107Y00996*
X01128*
X0117Y00953*
X0117Y0095*
X01171Y00943*
X01173Y00937*
X01177Y00932*
X01182Y00928*
X01188Y00926*
X01195Y00925*
X01201Y00926*
X01207Y00928*
X01212Y00932*
X01216Y00937*
X01218Y00943*
X01218Y00945*
X0122Y0095*
X01226Y00951*
X01232Y00953*
X01237Y00957*
X01241Y00962*
X01243Y00968*
X01244Y00975*
X01243Y00981*
X01241Y00987*
X01237Y00992*
X01232Y00996*
X01226Y00998*
X0122Y00999*
X01213Y00998*
X01207Y00996*
X01202Y00992*
X01198Y00987*
X01197Y00984*
X01191Y00983*
X01148Y01027*
X01142Y01031*
X01135Y01032*
X01069*
X01062Y01031*
X01057Y01027*
X01038Y01008*
X01034Y01002*
X01033Y00995*
Y00967*
X01013Y00947*
X01013Y00947*
X00877Y01082*
X00871Y01086*
X00868Y01087*
X00864Y0109*
X00862Y01096*
X0086Y01099*
X00862Y01102*
X00864Y01109*
X00891*
X00892Y01108*
X00898Y01106*
X00905Y01105*
X00911Y01106*
X00917Y01108*
X00922Y01112*
X00926Y01117*
X00928Y01123*
X00929Y0113*
X00928Y01136*
X00926Y01142*
X00922Y01147*
X00917Y01151*
X00911Y01153*
X00905Y01154*
X00903Y01154*
X00898Y01158*
Y01201*
X00896Y01208*
X00894Y0121*
X00904Y0122*
X00908Y01225*
X00909Y01232*
Y01332*
X00913Y01335*
X0092Y01337*
X00922Y01339*
X00925Y01337*
X00932Y01335*
X00939Y01337*
X00942Y01339*
X00945Y01337*
X00951Y01335*
X00952Y01332*
X00952Y0133*
X00947Y01327*
X00943Y01322*
X00941Y01316*
X0094Y0131*
X00941Y01303*
X00943Y01297*
X00947Y01292*
X00952Y01288*
X00958Y01286*
X00965Y01285*
X00971Y01286*
X00977Y01288*
X00982Y01292*
X00986Y01288*
X00992Y01286*
X00999Y01285*
X01005Y01286*
X01011Y01288*
X01014Y01291*
X01017Y01288*
X01023Y01286*
X0103Y01285*
X01036Y01286*
X01042Y01288*
X01043Y01289*
X01047Y01292*
X01051Y01289*
X01052Y01288*
X01058Y01286*
X01065Y01285*
X01071Y01286*
X01077Y01288*
X01082Y01292*
X01086Y01297*
X01088Y01303*
X01089Y0131*
X01088Y01316*
X01086Y01322*
X01082Y01327*
X01077Y01331*
X01076Y01331*
X01076Y01336*
X0108Y01338*
X01083Y01337*
X0109Y01335*
X01097Y01337*
X011Y01339*
X01103Y01337*
X0111Y01335*
X01116Y01337*
X01119Y01339*
X01122Y01337*
X01129Y01335*
X01136Y01337*
X01139Y01339*
X01142Y01337*
G37*
G36*
X01599Y01269D02*
X01597Y01267D01*
X01593Y01262*
X01592Y01255*
Y01234*
X01591Y01233*
X01579*
X01578Y01236*
X01576Y01242*
X01572Y01247*
X01567Y01251*
X01561Y01253*
X01555Y01254*
X01548Y01253*
X01542Y01251*
X01537Y01247*
X01533Y01242*
X01531Y01236*
X0153Y0123*
X01531Y01223*
X01531Y01222*
X01529Y01218*
X01481*
X01474Y01216*
X01468Y01212*
X01467Y01211*
X01461Y01212*
X01461Y01215*
X01459Y01217*
X01461Y0122*
X01462Y01227*
X01461Y01234*
X01459Y01237*
X01461Y0124*
X01462Y01247*
X01463Y01248*
X01467Y01248*
X01467Y01248*
X01473Y01246*
X0148Y01245*
X01486Y01246*
X01492Y01248*
X01497Y01252*
X01501Y01257*
X01503Y01263*
X01504Y01268*
X01523*
X0153Y0127*
X01536Y01274*
X01537Y01274*
X01598*
X01599Y01269*
G37*
G36*
X02001Y01202D02*
Y01185D01*
X02003Y01178*
X02007Y01172*
X02013Y01168*
X02016Y01167*
X02017Y01162*
X02013Y01157*
X02011Y01151*
X0201Y01145*
X02011Y01138*
X02011Y01137*
X02008Y01132*
X02005*
X01998Y0113*
X01992Y01127*
X01957Y01092*
X01954Y01086*
X01952Y0108*
X01953Y01077*
X01949Y01072*
X01828*
Y01086*
X01782*
X0178Y01091*
X01782Y01092*
X01786Y01097*
X01788Y01103*
X01789Y0111*
X01788Y01116*
X01786Y01122*
X01782Y01127*
X01777Y01131*
X01771Y01133*
X01766Y01134*
X01764Y01139*
X01776Y01151*
X01782Y0115*
X01783Y01147*
X01787Y01142*
X01792Y01138*
X01798Y01136*
X01805Y01135*
X01811Y01136*
X01817Y01138*
X01822Y01142*
X01826Y01147*
X01828Y01153*
X01829Y0116*
X01828Y01166*
X01826Y01172*
X01823Y01175*
X01826Y0118*
X0187*
X01878Y01172*
X01883Y01169*
X0189Y01167*
X01919*
Y01153*
X01986*
Y01194*
X01996Y01204*
X02001Y01202*
G37*
G36*
X00577Y01216D02*
X00663D01*
X00696Y01184*
Y01175*
X00692Y01172*
X0069Y01173*
X00553*
Y01215*
X00551Y01221*
X00547Y01227*
X00531Y01243*
X00533Y01248*
X00566*
Y01263*
X00577*
Y01216*
G37*
G36*
X00622Y00528D02*
X00628Y00526D01*
X00635Y00525*
X00641Y00526*
X00647Y00528*
X00649Y0053*
X00654Y00528*
Y00483*
X0068*
X00685Y00482*
Y00407*
X00693*
Y00395*
X00691Y00391*
X0069Y00385*
X00691Y00378*
X00693Y00372*
X00697Y00367*
X00702Y00363*
X00708Y00361*
X00715Y0036*
X00721Y00361*
X00725Y00363*
X00854*
Y00267*
X00848*
X00844*
X00841Y00271*
X00841Y00272*
X00841Y00272*
X00843Y00278*
X00844Y00285*
X00843Y00291*
X00841Y00297*
X00837Y00302*
X00832Y00306*
X00826Y00308*
X0082Y00309*
X00813Y00308*
X00807Y00306*
X00802Y00302*
X00798Y00297*
X00796Y00291*
X00795Y00285*
X00796Y00278*
X00798Y00272*
X00798Y00272*
Y00267*
X00789*
X00785*
X00781Y00269*
X00779Y00272*
X00779Y00275*
X00778Y00282*
X00776Y00287*
X00772Y00293*
X00767Y00296*
X00761Y00299*
X00755Y003*
X00748Y00299*
X00742Y00296*
X00737Y00293*
X00733Y00287*
X00731Y00282*
X0073Y00275*
X0073Y00272*
X0073Y00267*
X0073*
X0073*
Y00103*
X00717*
X00716Y00103*
Y00176*
X00715Y00183*
X00711Y00189*
X00705Y00193*
X00698Y00195*
X00691Y00193*
X00686Y00189*
X00682Y00183*
X0068Y00176*
Y00103*
X00667*
Y00267*
X00662*
X0066Y00272*
X00663Y00276*
X00664Y00281*
Y00399*
X00663Y00403*
X0066Y00407*
X00656Y0041*
X00652Y00411*
X0059*
X00588Y00415*
X00607Y00435*
X00611Y00441*
X00613Y00448*
Y0053*
X00616Y00532*
X00618Y00532*
X00622Y00528*
G37*
G36*
X0114Y00487D02*
X01293D01*
X01296Y00484*
Y00457*
X01112Y00272*
X01047Y00208*
X00948*
X00941Y00206*
X00935Y00202*
X00922Y00189*
X00918Y00183*
X00916Y00176*
Y00103*
X00903*
Y00267*
X00897*
Y0037*
X009Y00372*
X00905Y0037*
Y00281*
X00906Y00276*
X00908Y00272*
X00912Y00269*
X00917Y00268*
X01*
X01004Y00269*
X01008Y00272*
X01011Y00276*
X01012Y00281*
Y00349*
X01012Y0035*
X01017Y00351*
X01019Y00349*
X01024Y00348*
X01107*
X01111Y00349*
X01115Y00352*
X01118Y00356*
X01119Y00361*
Y00479*
X01118Y00483*
X01115Y00487*
X01112Y00489*
X0111Y00495*
X01122Y00506*
X01125Y00508*
X0114*
Y00487*
G37*
G36*
X01676Y00325D02*
X01703D01*
X01705Y0032*
X01701Y00316*
X01697Y0031*
X01695Y00303*
Y00282*
X01695Y00282*
X01676*
Y00271*
X01675*
X01668Y0027*
X01663Y00266*
X01657Y00261*
X01656Y00259*
X01656Y00259*
X01651Y00261*
X0165Y0027*
X01646Y0028*
X01639Y00289*
X0163Y00296*
X0162Y003*
X0161Y00301*
Y00316*
X01661*
Y00331*
X01676*
Y00325*
G37*
G36*
X02274Y00459D02*
X02281Y00451D01*
X02287Y00447*
X02293Y00445*
X023Y00444*
X02305*
X02311Y00445*
X02317Y00447*
X02318Y00448*
X02322Y00445*
Y-00032*
X02317Y-00033*
X0231Y-00024*
X02299Y-00015*
X02287Y-00009*
X02273Y-00005*
X0226Y-00003*
X02246Y-00005*
X02232Y-00009*
X0222Y-00015*
X02209Y-00024*
X022Y-00035*
X02194Y-00047*
X0219Y-00061*
X02188Y-00075*
X0219Y-00088*
X02194Y-00102*
X022Y-00114*
X02209Y-00125*
X02209Y-00127*
X02207Y-0013*
X00117*
X00115Y-00127*
X00115Y-00125*
X00124Y-00114*
X0013Y-00102*
X00134Y-00088*
X00136Y-00075*
X00134Y-00061*
X0013Y-00047*
X00124Y-00035*
X00115Y-00024*
X00104Y-00015*
X00092Y-00009*
X00078Y-00005*
X00065Y-00003*
X00051Y-00005*
X00037Y-00009*
X00025Y-00015*
X00014Y-00024*
X00007Y-00033*
X00002Y-00032*
Y00149*
X00007Y00151*
X00007Y0015*
X00011Y00147*
X00016Y00146*
X00134*
X00138Y00147*
X00142Y0015*
X00145Y00154*
X00146Y00159*
Y00241*
X00145Y00246*
X00142Y0025*
X00138Y00252*
X00134Y00253*
X00016*
X00011Y00252*
X00007Y0025*
X00007Y00249*
X00002Y00251*
Y00449*
X00007Y00451*
X00007Y0045*
X00011Y00447*
X00016Y00446*
X0008*
X00082Y00442*
X00057Y00417*
X00053Y00412*
X00052Y00405*
Y00359*
X00053Y00352*
X00057Y00347*
X00117Y00287*
X00123Y00283*
X0013Y00281*
X00173*
X00175Y0028*
X00178Y0028*
Y00278*
X00179Y00271*
X00183Y00265*
X00212Y00236*
X00218Y00232*
X00225Y00231*
X00274*
X00281Y00232*
X00287Y00236*
X0033Y00279*
X00406*
X00409Y00275*
Y00267*
X00322Y0018*
X00318Y00174*
X00317Y00168*
Y00139*
X00318Y00132*
X00322Y00127*
X00337Y00112*
X00341Y00109*
X0034Y00104*
X00301*
X00296Y00103*
X00292Y00101*
X00289Y00097*
X00288Y00092*
Y0001*
X00289Y00005*
X00292Y00001*
X00296Y-00001*
X00301Y-00002*
X00419*
X00423Y-00001*
X00427Y00001*
X0043Y00005*
X00431Y0001*
Y00076*
X00435Y00078*
X00458Y00056*
X00463Y00052*
X0047Y00051*
X00611*
X00618Y00052*
X00624Y00056*
X00634Y00066*
X00701*
X00705Y00061*
X00705Y0006*
X00706Y00053*
X00708Y00047*
X00712Y00042*
X00717Y00038*
X00723Y00036*
X0073Y00035*
X00736Y00036*
X00742Y00038*
X00747Y00042*
X00751Y00047*
X00753Y00053*
X00754Y0006*
X00754Y00061*
X00758Y00066*
X00811*
X00813Y00062*
X00813Y00062*
X00811Y00056*
X0081Y0005*
X00811Y00043*
X00813Y00037*
X00817Y00032*
X00822Y00028*
X00828Y00026*
X00835Y00025*
X00841Y00026*
X00847Y00028*
X00852Y00032*
X00856Y00037*
X00858Y00043*
X00859Y0005*
X00858Y00056*
X00856Y00062*
X00856Y00062*
X00858Y00066*
X00917*
X00937Y00047*
X00943Y00043*
X0095Y00041*
X0161*
X01616Y00043*
X01622Y00047*
X0171Y00134*
X01747Y00096*
X01747Y00096*
Y00013*
X01748Y00008*
X01751Y00004*
X01755Y00002*
X01759Y00001*
X01878*
X01882Y00002*
X01886Y00004*
X01889Y00008*
X0189Y00013*
Y00069*
X01894Y00071*
X01908Y00057*
X01914Y00053*
X01921Y00051*
X0206*
X02066Y00053*
X02072Y00057*
X02076Y00063*
X02078Y0007*
Y00195*
Y00378*
X02133*
Y00246*
X02119*
Y00185*
X02117Y00179*
Y00062*
X02117Y00062*
X02113Y00057*
X02111Y00051*
X0211Y00045*
X02111Y00038*
X02113Y00032*
X02117Y00027*
X02122Y00023*
X02128Y00021*
X02135Y0002*
X02141Y00021*
X02147Y00023*
X02152Y00027*
X02156Y00032*
X02158Y00038*
X02159Y00045*
X02158Y00051*
X02156Y00057*
X02152Y00062*
X02152Y00062*
Y00143*
X02182*
Y00246*
X02167*
Y00378*
X02213*
Y00325*
X02194Y00306*
X0219Y00301*
X02187Y00295*
X02186Y00288*
Y00261*
X02187Y00254*
X0219Y00248*
X02194Y00243*
X02209Y00228*
Y00143*
X02219*
Y00134*
X02191*
Y00005*
X0229*
Y00134*
X02262*
Y00143*
X02272*
Y00246*
X02266*
X02266Y00246*
X02263Y00252*
X02261Y00254*
X02262Y00257*
X02266Y00262*
X02268Y00268*
X02269Y00275*
X02268Y00281*
X02266Y00287*
X02262Y00292*
X02261Y00293*
X02261Y00293*
X0226Y003*
X02261Y00301*
X02264Y00308*
X02265Y00314*
Y00456*
X0227Y00459*
X02274Y00459*
G37*
G36*
X0199Y0047D02*
X01996Y00466D01*
X02003Y00465*
X02041*
Y00195*
Y00088*
X01928*
X01895Y00121*
X01889Y00124*
X01882Y00126*
X01769*
X0174Y00154*
X01742Y00159*
X01744*
X01751Y0016*
X01757Y00164*
X01764Y00171*
X01768Y00177*
X01769Y00184*
Y00282*
X01768Y00289*
X01764Y00295*
X01758Y00298*
X01751Y003*
X01746*
X01743Y00305*
X01745Y00307*
X01765*
X01772Y00308*
X01777Y00312*
X01919Y00454*
X01923Y0046*
X01925Y00467*
Y00529*
X01929Y00531*
X0199Y0047*
G37*
G36*
X00955Y0046D02*
X00931Y00436D01*
X0091*
X00905Y00436*
X00902Y00435*
X00899Y00433*
X00895Y0043*
X00871Y00406*
X00843*
X00838Y00407*
Y00437*
X00843Y00438*
X00847Y00432*
X00853Y00428*
X0086Y00426*
X00866Y00428*
X00872Y00432*
X00905Y00465*
X00953*
X00955Y0046*
G37*
G36*
X02302Y00797D02*
X02301Y00791D01*
X02303Y00785*
X02305Y00782*
Y00713*
X023Y0071*
X02297Y00712*
X02291Y00714*
X02285Y00715*
X02255*
X02249Y00714*
X02242Y00712*
X02237Y00708*
X02219Y0069*
X0221*
X02203Y00689*
X02197Y00686*
X02192Y00682*
X02151Y00642*
X02147Y00636*
X02144Y0063*
X02143Y00623*
Y00556*
X02144Y00549*
X02147Y00543*
X02151Y00537*
X02163Y00526*
X02168Y00522*
X02174Y00519*
X0218Y00518*
X02194Y00504*
X02192Y005*
X02069*
X02065Y005*
X0206Y00501*
X02011*
X01925Y00587*
Y0059*
X01923Y00596*
X01919Y00602*
X01913Y00606*
X01907Y00608*
X019Y00606*
X01894Y00602*
X0189Y00596*
X01888Y0059*
Y00555*
X01883Y00553*
X01882Y00554*
X01878Y00555*
X01759*
X01755Y00554*
X01751Y00551*
X01748Y00547*
X01747Y00543*
Y0046*
X01748Y00455*
X01751Y00451*
X01755Y00449*
X01759Y00448*
X01856*
X01858Y00443*
X01757Y00343*
X01751*
Y00374*
Y00429*
X01676*
Y00428*
X01661*
Y0045*
X01598*
X01593Y00447*
X01591Y00448*
X01585Y00449*
X01578Y00448*
X01572Y00446*
X01567Y00442*
X01565Y00439*
X01565Y00439*
X01559*
X01559Y00439*
X01557Y00442*
X01552Y00446*
X01546Y00448*
X0154Y00449*
X01533Y00448*
X01527Y00446*
X01522Y00442*
X01518Y00437*
X01518Y00436*
X01512Y00434*
X01486Y00461*
Y00647*
X01486Y0065*
Y00708*
X01485Y00715*
X01481Y00721*
X01474Y00728*
X01474Y00729*
X01478Y00735*
X01481Y0074*
X01481Y00747*
X01482Y00748*
X01662*
X01665Y00743*
X01665Y0074*
X01666Y00733*
X01668Y00727*
X01672Y00722*
X01677Y00718*
X01683Y00716*
X0169Y00715*
X01696Y00716*
X01702Y00718*
X01707Y00722*
X01708Y00723*
X01713Y00722*
X01713Y00722*
X01717Y00717*
X01722Y00713*
X01728Y00711*
X01735Y0071*
X01741Y00711*
X01747Y00713*
X01752Y00717*
X01756Y00722*
X01758Y00728*
X01759Y00735*
X01758Y00741*
X01757Y00743*
X01761Y00748*
X01805*
X01806Y00743*
X01802Y00741*
X01797Y00737*
X01793Y00732*
X01791Y00726*
X0179Y0072*
X01791Y00714*
X01793Y00709*
Y007*
X01791Y00696*
X0179Y0069*
X01791Y00683*
X01793Y00677*
X01797Y00672*
X01802Y00668*
X01808Y00666*
X01815Y00665*
X01821Y00666*
X01825Y00668*
X01839*
X01843Y00666*
X0185Y00665*
X01856Y00666*
X0186Y00668*
X01874*
X01878Y00666*
X01885Y00665*
X01891Y00666*
X01897Y00668*
X01902Y00672*
X01906Y00677*
X01908Y00683*
X01909Y0069*
X01908Y00696*
X01906Y007*
Y00709*
X01908Y00714*
X01909Y0072*
X01908Y00724*
X01912Y00729*
X01949*
Y00749*
X02177*
Y00729*
X02262*
Y00804*
X02266Y00807*
X02302*
Y00797*
G37*
G36*
X0128Y00738D02*
X01287Y00737D01*
X01294Y00738*
X01297Y0074*
X01299Y00738*
X01301Y00738*
Y00696*
X01271*
Y00715*
X01208*
Y00648*
X01271*
Y00662*
X01322*
X01324Y00657*
X01302Y00635*
X013Y00633*
X01147*
X01137Y00642*
X01131Y00646*
X01125Y00648*
X01118Y00646*
X01115Y00644*
X01086*
Y0068*
X01091Y00683*
X01093Y00682*
Y00663*
X01156*
Y0073*
X01113*
X01112Y0073*
X01112Y00731*
X01111Y00731*
X01111Y00731*
X01111Y00732*
X01115Y00738*
X01116Y00738*
X01119Y0074*
X01122Y00738*
X01129Y00737*
X01136Y00738*
X01139Y0074*
X01142Y00738*
X01149Y00737*
X01156Y00738*
X01159Y0074*
X01162Y00738*
X01169Y00737*
X01175Y00738*
X01178Y0074*
X01181Y00738*
X01188Y00737*
X01195Y00738*
X01198Y0074*
X01201Y00738*
X01208Y00737*
X01215Y00738*
X01218Y0074*
X01221Y00738*
X01228Y00737*
X01235Y00738*
X01237Y0074*
X0124Y00738*
X01247Y00737*
X01254Y00738*
X01257Y0074*
X0126Y00738*
X01267Y00737*
X01274Y00738*
X01277Y0074*
X0128Y00738*
G37*
G36*
X01373Y00835D02*
X01388D01*
Y00763*
X01389Y00756*
X01393Y00751*
X01422Y00721*
X01436Y00708*
X01441Y00704*
X01448Y00703*
X0145Y007*
Y00691*
X01447Y00689*
X01445Y00688*
X0144Y00689*
X01433Y00688*
X01427Y00686*
X01422Y00682*
X01418Y00677*
X01416Y00671*
X01415Y00665*
X01415Y00661*
X01413Y00657*
X0141Y00652*
X0141Y00646*
Y00636*
X01398*
Y00573*
X0145*
Y00491*
X01372*
X01367Y0049*
X01363Y00487*
X01361Y00483*
X0136Y00479*
Y00361*
X01361Y00356*
X01363Y00352*
X01367Y00349*
X01372Y00348*
X01455*
X01459Y00349*
X01463Y00352*
X01466Y00356*
X01467Y00361*
Y00422*
X01471Y00424*
X01574Y00321*
Y00308*
X01555Y00289*
X01551Y00284*
X0155Y00277*
Y00242*
X01551Y00235*
X01555Y0023*
X0158Y00205*
X01585Y00201*
X01588Y00201*
X01589Y00196*
X01589Y00196*
X01583Y00191*
X01515*
X01509Y00196*
X01499Y002*
X01488Y00201*
X01477Y002*
X01467Y00196*
X01462Y00191*
X01394*
X01388Y00196*
X01378Y002*
X01367Y00201*
X01356Y002*
X01346Y00196*
X0134Y00191*
X01272*
X01267Y00196*
X01257Y002*
X01246Y00201*
X01235Y002*
X01225Y00196*
X01219Y00191*
X01151*
X01145Y00196*
X01135Y002*
X01125Y00201*
X01114Y002*
X01104Y00196*
X01095Y00189*
X01088Y0018*
X01084Y0017*
X01083Y0016*
X01084Y00149*
X01088Y00139*
X01095Y0013*
X01104Y00123*
X01114Y00119*
X01125Y00118*
X01135Y00119*
X01145Y00123*
X01151Y00128*
X01219*
X01225Y00123*
X01235Y00119*
X01246Y00118*
X01257Y00119*
X01267Y00123*
X01272Y00128*
X0134*
X01346Y00123*
X01356Y00119*
X01367Y00118*
X01378Y00119*
X01388Y00123*
X01394Y00128*
X01462*
X01467Y00123*
X01477Y00119*
X01488Y00118*
X01499Y00119*
X01509Y00123*
X01515Y00128*
X01583*
X01589Y00123*
X01599Y00119*
X0161Y00118*
X0162Y00119*
X0163Y00123*
X01639Y0013*
X01646Y00139*
X0165Y00149*
X01651Y0016*
X0165Y0017*
X01646Y00179*
X01649Y00183*
X0165Y00183*
X01654Y00182*
X01676*
Y00177*
X01695*
X01695Y00177*
Y0017*
X01693Y00168*
X01602Y00078*
X01058*
X01056Y00081*
Y00171*
X01056Y00172*
X01061Y00173*
X01067Y00177*
X01137Y00247*
X01327Y00437*
X01331Y00443*
X01333Y0045*
Y00525*
Y00547*
X01377Y00592*
X01381Y00598*
X01383Y00605*
X01381Y00611*
X01377Y00617*
X01371Y00621*
X01365Y00623*
X01347*
X01345Y00627*
X01361Y00644*
X01368*
X01375Y00645*
X0138Y00649*
X01397Y00666*
X01401Y00671*
X01402Y00678*
Y00684*
X01414Y00697*
X01418Y00703*
X01419Y0071*
X01418Y00716*
X01414Y00722*
X01408Y00726*
X01401Y00728*
X01395Y00726*
X01389Y00723*
X01386Y00723*
X01384Y00724*
Y00734*
X01383Y0074*
X01379Y00746*
X01373Y00752*
X01367Y00756*
X01364Y00757*
Y00826*
X01363Y00831*
Y00833*
X01368Y00836*
X01373Y00835*
G37*
G36*
X02305Y00666D02*
Y00658D01*
X02294*
X02287Y00657*
X02281Y00653*
X02251Y00623*
X02247Y00617*
X02246Y0061*
Y00608*
X0222*
X02213Y00606*
X02207Y00602*
X02203Y00596*
X02201Y0059*
X02203Y00583*
X02207Y00577*
X02213Y00573*
X0222Y00571*
X02264*
Y0054*
Y00514*
X02259Y00512*
X02257Y00514*
X02209Y00562*
X02204Y00566*
X02197Y00569*
X02195Y00569*
Y00613*
X02221Y00638*
X0223*
X02236Y00639*
X02243Y00642*
X02248Y00646*
X02266Y00664*
X02285*
X02291Y00665*
X02297Y00667*
X023Y00669*
X02305Y00666*
G37*
G36*
X00527Y00979D02*
X00525Y00974D01*
X00469*
X00462Y00973*
X00456Y00969*
X00449Y00962*
X00449Y00961*
X00398*
Y00898*
X00423*
X00426Y00894*
X00426Y00893*
X00425Y00887*
X00426Y00881*
X00428Y00876*
X00425Y00871*
X00393*
Y00808*
X00444*
Y008*
X00446Y00793*
X00449Y00787*
X00456Y0078*
X00462Y00776*
X00469Y00775*
X0053*
X00533Y00775*
X00536Y00773*
X00538Y00767*
X00542Y00762*
X00547Y00758*
X00553Y00756*
X0056Y00755*
X00566Y00756*
X00572Y00758*
X00577Y00762*
X00581Y00767*
X00583Y00773*
X00584Y0078*
X00583Y00786*
X00582Y00788*
X00586Y00793*
X00612*
Y00846*
X00652Y00887*
X00656Y00893*
X00657Y00894*
X00688*
X00692Y0089*
X00691Y0089*
Y00756*
X00693Y0075*
X00697Y00744*
X00715Y00725*
X00713Y00721*
X00667*
Y00641*
X00601*
Y00602*
X00582Y00582*
X00578Y00576*
X00576Y0057*
Y00455*
X00555Y00433*
X0055Y00435*
Y00515*
X00551Y00515*
X00557Y00517*
X00562Y00521*
X00566Y00526*
X00568Y00532*
X00569Y00539*
X00568Y00545*
X00566Y00551*
X00562Y00556*
X00557Y0056*
X00551Y00562*
X00545Y00563*
X00538Y00562*
X00532Y0056*
X00527Y00556*
X00523Y00551*
X00521Y00545*
X00521Y00544*
X00517Y00542*
X00513Y00544*
X00513Y00545*
X00511Y00551*
X00507Y00556*
X00502Y0056*
X00496Y00562*
X0049Y00563*
X00483Y00562*
X00477Y0056*
X00472Y00556*
X00468Y00551*
X00466Y00545*
X00465Y00539*
X00466Y00532*
X00468Y00526*
X00472Y00521*
X00477Y00517*
X00483Y00515*
X00484Y00515*
Y00309*
X00479Y00307*
X00477Y0031*
X00471Y00314*
X00465Y00315*
X00322*
X00315Y00314*
X00309Y0031*
X00286Y00286*
X00281Y00288*
Y00316*
Y00316*
Y00383*
Y00386*
Y00415*
X00284Y00416*
X00288Y00413*
Y00358*
X00289Y00353*
X00292Y00349*
X00296Y00346*
X00301Y00345*
X00419*
X00423Y00346*
X00427Y00349*
X0043Y00353*
X00431Y00358*
Y0044*
X0043Y00445*
X00427Y00449*
X00423Y00451*
X00419Y00452*
X00358*
X00354Y00457*
X00354Y0046*
X00353Y00466*
X00351Y00472*
X00347Y00477*
X00342Y00481*
X00336Y00483*
X0033Y00484*
X00323Y00483*
X00317Y00481*
X00313Y00478*
X00303*
X00296Y00476*
X0029Y00472*
X00287Y00469*
X00284Y00464*
X00275Y00455*
X00267*
X0026Y00454*
X00259Y00453*
X00218*
Y0043*
X00217Y00425*
X00148*
X00147Y0043*
X00151Y00433*
X00186Y00468*
X0025*
X00256Y0047*
X00262Y00474*
X00266Y0048*
X00268Y00486*
Y00553*
X00266Y00559*
X00263Y00564*
X00264Y00569*
X00265Y0057*
X00268Y00569*
X0027Y00567*
X00271Y00563*
X00273Y00557*
X00277Y00552*
X00282Y00548*
X00288Y00546*
X00295Y00545*
X00301Y00546*
X00307Y00548*
X00312Y00552*
X00316Y00557*
X00318Y00563*
X00319Y0057*
X00318Y00576*
X00316Y00582*
X00312Y00587*
X00307Y00591*
X00303Y00592*
X00302Y00598*
X00332Y00628*
X00336Y00634*
X00337Y00641*
Y0074*
X00336Y00743*
Y00801*
X00372Y00837*
X00376Y00843*
X00378Y0085*
Y00925*
X00376Y00931*
X00372Y00937*
X00368Y0094*
X00369Y00945*
X0037Y00945*
X00376Y00946*
X00382Y00948*
X00387Y00952*
X00391Y00957*
X00393Y00963*
X00394Y0097*
X00393Y00976*
X00391Y00982*
X00387Y00986*
X00387Y00988*
X00389Y00991*
X00515*
X00527Y00979*
G37*
G36*
X00425Y01825D02*
X00426Y01818D01*
X00428Y01812*
X00432Y01807*
X00437Y01803*
X00443Y01801*
X0045Y018*
X00456Y01801*
X00462Y01803*
X00467Y01807*
X00471Y01812*
X00471Y01814*
X00476Y01813*
Y01809*
X00478Y01802*
X00482Y01797*
X00629Y01649*
X00584Y01604*
X005*
X00494Y01603*
X00315*
X00308Y01602*
X00303Y01598*
X00281Y01576*
X00276Y01578*
Y01606*
X00217*
Y01634*
X00331Y01748*
X00334Y01753*
X00336Y01758*
X00337Y01764*
X00336Y01769*
X00336Y0177*
Y01808*
X00356Y01828*
X00416*
X00416*
X00422*
X00425Y01825*
G37*
G36*
X0127Y01989D02*
X0127Y01985D01*
X01271Y01979*
X01273Y01973*
X01277Y01968*
X01279Y01966*
X01282Y01963*
X0128Y01959*
X01278Y01957*
X01276Y01951*
X01275Y01945*
X01276Y01938*
X01278Y01932*
X01282Y01927*
X01287Y01923*
X01293Y01921*
X013Y0192*
X01305Y01921*
X01307Y01919*
X01308Y01916*
X01306Y01911*
X01305Y01905*
X01306Y01898*
X01308Y01892*
X01308Y01892*
X01306Y01888*
X01255*
X01253Y01892*
X01253Y01893*
X01254Y019*
X01253Y01906*
X01251Y01912*
X01247Y01917*
X01242Y01921*
X01236Y01923*
X0123Y01924*
X01223Y01923*
X01217Y01921*
X01214Y01918*
X01213Y01918*
X01208Y01922*
X01202Y01925*
X01196Y01925*
X0119Y01925*
X01184Y01922*
X01179Y01918*
X01175Y01913*
X01172Y01907*
X01171Y01901*
X01172Y01895*
X01173Y01893*
X0117Y01888*
X01145*
X01138Y01886*
X01132Y01882*
X01128Y01876*
X01126Y0187*
X01128Y01863*
X01131Y01858*
X0113Y01854*
X01129Y01853*
X01111*
Y01901*
X01044*
Y01891*
X01029*
X01019Y01901*
X01018Y01906*
X01016Y01912*
X01012Y01917*
X01007Y01921*
X01001Y01923*
X00996Y01924*
X00933Y01987*
X00935Y01992*
X00993*
X00995Y01992*
X00998Y01987*
X00997Y01981*
X00998Y01975*
X01001Y01969*
X01005Y01964*
X0101Y0196*
X01014Y01958*
X01015Y01957*
X01022Y01956*
X01028Y01957*
X01029Y01958*
X01034Y0196*
X01039Y01964*
X01043Y01969*
X01046Y01975*
X01046Y01981*
X01046Y01987*
X01045Y01989*
X01048Y01994*
X01056*
X01059Y01989*
X01059Y01987*
X01058Y01981*
X01059Y01975*
X01061Y01969*
X01065Y01964*
X0107Y0196*
X01076Y01957*
X01079Y01957*
X01082Y01956*
X01085Y01957*
X01089Y01957*
X01095Y0196*
X011Y01964*
X01104Y01969*
X01106Y01975*
X01107Y01981*
X01106Y01987*
X01105Y01989*
X01109Y01994*
X01122*
Y01982*
X01122Y01982*
X01118Y01977*
X01116Y01971*
X01115Y01965*
X01116Y01958*
X01118Y01952*
X01122Y01947*
X01127Y01943*
X01133Y01941*
X0114Y0194*
X01146Y01941*
X01152Y01943*
X01157Y01947*
X01161Y01952*
X01163Y01958*
X01164Y01965*
X01163Y01971*
X01161Y01977*
X01157Y01982*
X01157Y01982*
Y01994*
X01182*
Y01987*
X01182Y01987*
X01178Y01982*
X01176Y01976*
X01175Y0197*
X01176Y01963*
X01178Y01957*
X01182Y01952*
X01187Y01948*
X01193Y01946*
X012Y01945*
X01206Y01946*
X01212Y01948*
X01217Y01952*
X01221Y01957*
X01223Y01963*
X01224Y0197*
X01223Y01976*
X01221Y01982*
X01217Y01987*
X01217Y01987*
Y01994*
X01267*
X0127Y01989*
G37*
G36*
X00007Y02085D02*
X00011Y02082D01*
X00016Y02081*
X00123*
X00124Y0208*
Y01963*
X00125Y01956*
X00129Y0195*
X00156Y01923*
Y0183*
X00158Y01823*
X00162Y01817*
X00209Y0177*
X00215Y01766*
X00221Y01765*
X00245*
X00251Y01766*
X00257Y0177*
X00261Y01776*
X00263Y01783*
Y01795*
X00261Y01801*
X00257Y01807*
X00252Y01811*
X00252Y01811*
X00253Y01816*
X00276*
Y0183*
X00281Y01831*
X00287Y01833*
X0029Y01836*
X00294Y01832*
X00293Y01832*
X00291Y01826*
X0029Y0182*
X00291Y01813*
X00293Y01809*
Y01772*
X00176Y01655*
X00142*
Y0165*
X00118*
X00112Y01649*
X00107Y01647*
X00102Y01643*
X00099Y0164*
X00096Y01635*
X00093Y0163*
X00093Y01625*
Y01522*
X00093Y01516*
X00096Y01511*
X00099Y01507*
X00118Y01488*
X00116Y01483*
X00016*
X00011Y01482*
X00007Y0148*
X00007Y01479*
X00002Y01481*
Y01679*
X00007Y01681*
X00007Y0168*
X00011Y01677*
X00016Y01676*
X00134*
X00138Y01677*
X00142Y0168*
X00145Y01684*
X00146Y01689*
Y01771*
X00145Y01776*
X00142Y0178*
Y01785*
X00145Y01789*
X00146Y01794*
Y01876*
X00145Y01881*
X00142Y01885*
X00138Y01887*
X00134Y01888*
X00016*
X00011Y01887*
X00007Y01885*
X00007Y01884*
X00002Y01886*
Y02084*
X00007Y02086*
X00007Y02085*
G37*
G36*
X00213Y01949D02*
Y01944D01*
Y01877*
Y01823*
X00208Y01821*
X00193Y01837*
Y01922*
X00196Y01928*
X00198Y01935*
X00196Y01941*
X00192Y01947*
X00186Y01951*
X00187Y01956*
X00213*
Y01949*
G37*
G36*
X00285Y02235D02*
X00285Y02235D01*
X00289Y0223*
X00288Y0223*
X00288Y02224*
Y02061*
X0018*
X00177Y0206*
X0016*
Y02073*
X00257Y0217*
X00261Y02176*
X00263Y02183*
X00261Y02189*
X00257Y02195*
X00241Y02211*
X00243Y02216*
X00276*
Y02232*
X00281Y02235*
X00285Y02235*
G37*
G36*
X00265Y02685D02*
X00265Y02684D01*
X00265Y02683*
X00268Y02676*
X00271Y02669*
X00272Y02668*
X00272Y02667*
X00276Y02661*
X0028Y02655*
X00281Y02654*
X00282Y02652*
X00286Y02647*
X00291Y02641*
X00292Y0264*
X00293Y0264*
X00299Y02635*
X00305Y0263*
X00306Y02629*
X00307Y02629*
X00313Y02625*
X00319Y02621*
X0032Y0262*
X00322Y0262*
X00328Y02617*
X00335Y02614*
X00337Y02614*
X00338Y02614*
X00345Y02612*
X00352Y0261*
X00353Y0261*
X00355Y0261*
X00362Y0261*
X0037Y02609*
X00437*
X00455Y0261*
X00471Y02614*
X00487Y02621*
X00498Y02628*
X00505*
X00507Y02623*
X00504Y02619*
X00498Y02608*
X00494Y02596*
X00493Y02585*
X00494Y02573*
X00498Y02561*
X00504Y0255*
X00511Y02541*
X0052Y02534*
X00531Y02528*
X00543Y02524*
X00555Y02523*
X00566Y02524*
X00578Y02528*
X00589Y02534*
X00598Y02541*
X00605Y0255*
X00609Y02557*
X00615Y02557*
X00615Y02557*
X00624Y02546*
X00692Y02479*
Y02269*
X01107*
Y02347*
X01157*
Y02269*
X01572*
Y02347*
X01642*
Y02269*
X01938*
X01973Y02234*
X01983Y02225*
X01996Y02219*
X02009Y02215*
X02023Y02213*
X02229*
X02241Y0221*
X02255Y02208*
X02264*
X02278Y0221*
X02292Y02214*
X02304Y0222*
X02315Y02229*
X02317Y02232*
X02317Y02232*
X02322Y0223*
Y01259*
X02317Y01258*
X02317Y01258*
X02313Y01261*
X02309Y01262*
X0219*
X02186Y01261*
X02182Y01258*
X02179Y01254*
X02178Y0125*
Y01167*
X02179Y01162*
X02182Y01158*
X02186Y01156*
X0219Y01155*
X02309*
X02313Y01156*
X02317Y01158*
X02317Y01159*
X02322Y01157*
Y00932*
X02317Y00929*
X02313Y00929*
X02198*
Y01081*
X02197Y01087*
X02193Y01093*
X02164Y01122*
X02159Y01125*
X02152Y01127*
X02117*
Y01205*
X02115Y01211*
X02112Y01217*
X02067Y01262*
Y01315*
Y01357*
X02072Y01362*
X02075Y01368*
X02077Y01375*
Y01431*
X02107*
X02148Y0139*
Y0138*
X02146Y01376*
X02145Y0137*
X02146Y01363*
X02148Y01357*
X02152Y01352*
X02157Y01348*
X02163Y01346*
X0217Y01345*
X02176Y01346*
X02182Y01348*
X02187Y01352*
X02191Y01357*
X02193Y01363*
X02194Y0137*
X02193Y01376*
X02191Y0138*
Y014*
X02191Y01405*
X02188Y0141*
X02185Y01415*
X02136Y01464*
Y01498*
Y01503*
Y01565*
X02073*
Y01515*
X02073*
X02067Y01511*
X02052Y01495*
X02052Y01495*
X02047Y01492*
X02046Y01492*
X02008Y0153*
Y01535*
X02155Y01683*
X02159Y0168*
X02158Y01676*
Y01593*
X02159Y01588*
X02162Y01584*
X02166Y01582*
X0217Y01581*
X02289*
X02293Y01582*
X02297Y01584*
X023Y01588*
X02301Y01593*
Y01676*
X023Y0168*
X02297Y01684*
X02293Y01687*
X02289Y01688*
X0217*
X02166Y01687*
X02163Y01691*
X02175Y01703*
X02179Y01708*
X0218Y01715*
Y01806*
X02179Y01813*
X02175Y01819*
X02146Y01847*
X0214Y01851*
X02133Y01853*
X02116*
X02109Y01851*
X02103Y01847*
X02085Y01829*
X02021*
X02018Y01834*
X02021Y01837*
X02023Y01843*
X02024Y0185*
X02023Y01856*
X02021Y01862*
X02017Y01867*
X02012Y01871*
X02006Y01873*
X02Y01874*
X01999Y01874*
X01984Y0189*
X01978Y01893*
X01976Y01894*
Y01937*
X01921*
Y01829*
X01915*
Y01878*
X01913Y01884*
X01909Y0189*
X01903Y01894*
X01897Y01896*
X01849*
X01842Y01894*
X01836Y0189*
X01831Y01886*
X01826Y01888*
Y01937*
X01724*
X01723Y01941*
X01721Y01947*
X01717Y01952*
X01717Y01952*
Y01973*
X01738Y01994*
X01779*
Y02061*
X01663*
X01658Y02061*
Y02112*
X01665Y02119*
X01671*
X01672Y02118*
X01678Y02116*
X01678Y02116*
X01679Y02114*
X01679Y02111*
X01674Y02107*
X0167Y02101*
X01669Y02095*
X0167Y02088*
X01674Y02082*
X0168Y02078*
X01687Y02076*
X01747*
X01754Y02078*
X0176Y02082*
X01764Y02088*
X01765Y02095*
X01764Y02101*
X0176Y02107*
X01756Y0211*
X01729Y02137*
Y0215*
X01728Y02156*
X01724Y02162*
X01706Y0218*
X01701Y02184*
X01694Y02185*
X01687*
X01684Y02189*
X01684Y0219*
X01683Y02196*
X01681Y02202*
X01677Y02207*
X01672Y02211*
X01666Y02213*
X0166Y02214*
X01653Y02213*
X01647Y02211*
X01642Y02207*
X01638Y02202*
X01638Y02201*
X01632Y022*
X01632Y02202*
X01626Y02205*
X0162Y02207*
X01616*
X01582Y02241*
X01576Y02245*
X0157Y02246*
X01046*
X01039Y02245*
X01034Y02241*
X00985Y02192*
X00981Y02186*
X0098Y0218*
Y02135*
X00949Y02105*
X00946Y02099*
X00944Y02093*
X00946Y02086*
X00949Y02081*
X00955Y02077*
X00961Y02076*
X00968Y02077*
X00973Y02081*
X00986Y02093*
X0099Y02091*
Y02061*
X00986Y02059*
X0093*
Y01997*
X00925Y01995*
X00911Y02009*
Y02037*
X00911Y02043*
X00908Y02048*
X00905Y02052*
X009Y02056*
X00895Y02058*
X0089Y02059*
X00872*
Y02064*
X00797*
Y02009*
Y0196*
Y01911*
X00793Y01909*
X00541*
X00538Y01914*
X00541Y01917*
X00543Y01923*
X00544Y0193*
X00543Y01936*
X00541Y01942*
X00537Y01947*
X00532Y01951*
X00526Y01953*
X0052Y01954*
X00513Y01953*
X00507Y01951*
X00503Y01948*
X00488*
X00486Y01953*
X00487Y01953*
X00548Y02014*
X00552Y0202*
X00553Y02027*
Y02369*
X00552Y02376*
X00548Y02382*
X00535Y02394*
Y02418*
Y02422*
Y02477*
X00354*
Y02472*
X00294*
X00289Y02471*
X00283Y02469*
X00279Y02465*
X00275Y02461*
X00275Y0246*
X00217*
Y02465*
X00173*
X0017Y0247*
X00171Y02471*
X00173Y02478*
Y0261*
X00189Y02614*
X00205Y02621*
X0022Y0263*
X00233Y02641*
X00244Y02655*
X00253Y02669*
X00259Y02685*
X00262Y02685*
X00265Y02685*
G37*
G36*
X00007Y0249D02*
X00011Y02487D01*
X00016Y02486*
X0013*
X00132Y02481*
X00129Y02478*
X00125Y02472*
X00124Y02466*
Y02368*
X00125Y02361*
X00129Y02355*
X00158Y02327*
X00164Y02323*
X00171Y02321*
X00172*
X00175Y02319*
Y02235*
X00176Y02228*
X0018Y02222*
X00219Y02183*
X0015Y02114*
X00146Y02116*
Y02176*
X00145Y02181*
X00142Y02185*
Y0219*
X00145Y02194*
X00146Y02199*
Y02281*
X00145Y02286*
X00142Y0229*
X00138Y02292*
X00134Y02293*
X00016*
X00011Y02292*
X00007Y0229*
X00007Y02289*
X00002Y02291*
Y02489*
X00007Y02491*
X00007Y0249*
G37*
G36*
X00517Y02034D02*
X0047Y01988D01*
X00469Y01988*
X00466Y01992*
X00466Y01993*
X00468Y02*
X00466Y02006*
X00463Y02012*
Y02026*
X00477Y02041*
X00481Y02047*
X00483Y02053*
Y02135*
X00481Y02141*
X00477Y02147*
X00457Y02167*
X00451Y02171*
X00445Y02173*
X00438Y02171*
X00432Y02167*
X00428Y02161*
X00426Y02155*
X00428Y02148*
X00432Y02142*
X00446Y02127*
Y0212*
X00441Y02116*
X0044Y02117*
X00355*
Y02151*
X00368Y02164*
X00413*
X0042Y02165*
X00426Y02169*
X00442Y02186*
X00517*
Y02034*
G37*
G36*
X01216Y01798D02*
X01278D01*
X01283*
X01283*
X0135*
Y01811*
X01611*
X01659Y01764*
X01665Y0176*
X01672Y01759*
X01721*
Y01715*
X01672Y01666*
X01668Y0166*
X01667Y01655*
X01653*
Y01588*
X01716*
Y01655*
X01716Y01655*
X0172Y01659*
X01721Y01658*
X0173*
Y01626*
X01732Y01619*
X01736Y01613*
X01746Y01602*
X01748Y01597*
X0175Y01595*
X01748Y0159*
X01737*
X01731Y01589*
X01725Y01585*
X01712Y01572*
X01685*
X01678Y0157*
X01672Y01567*
X01669Y01561*
X01667Y01555*
X01669Y01548*
X01669Y01547*
X01667Y01542*
X01665Y01541*
X01654Y01552*
X01648Y01556*
X01641Y01558*
X0136*
X01353Y01556*
X01347Y01552*
X01346Y01551*
X01203*
X01196Y0155*
X0119Y01546*
X01136Y01492*
X01132Y01486*
X01131Y01479*
Y01444*
X01129Y01442*
X01123Y01441*
X0112Y01444*
X01119Y01445*
X01119Y01445*
X01121Y01447*
X01123Y01453*
X01124Y0146*
X01123Y01466*
X01121Y01472*
X01117Y01477*
X01112Y01481*
X01106Y01483*
X01104Y01483*
X01104Y01484*
X01103Y01491*
X01101Y01497*
X01097Y01502*
X01092Y01506*
X01087Y01507*
X01088Y01509*
Y01599*
X01101*
Y01666*
Y01733*
X01075*
X00996Y01812*
X00996Y01813*
X00998Y01816*
X01216*
Y01798*
G37*
G36*
X02209Y03222D02*
X02209Y0322D01*
X022Y03209*
X02194Y03197*
X0219Y03183*
X02188Y0317*
X0219Y03156*
X02194Y03142*
X022Y0313*
X02209Y03119*
X0222Y0311*
X02232Y03104*
X02246Y031*
X0226Y03098*
X02273Y031*
X02287Y03104*
X02299Y0311*
X0231Y03119*
X02317Y03128*
X02322Y03127*
Y02864*
X02317Y02863*
X02315Y02867*
X02308Y02876*
X02299Y02884*
X02288Y02889*
X02276Y02893*
X02265Y02894*
X02253Y02893*
X02241Y02889*
X0223Y02884*
X02221Y02876*
X02214Y02867*
X02208Y02856*
X02204Y02845*
X02204Y0284*
X02199Y02837*
X02196Y02838*
X0219Y02839*
X02183Y02838*
X02177Y02836*
X02172Y02832*
X02169Y02828*
X02167Y02828*
X02164Y02829*
X02164Y02829*
X02162Y02834*
X02158Y0284*
X02152Y02844*
X02146Y02846*
X0214Y02847*
X0207*
X02063Y02846*
X02057Y02844*
X02051Y0284*
X02047Y02834*
X02045Y02828*
X02044Y02821*
X02045Y02815*
X02047Y02808*
X02051Y02803*
X02051Y02803*
X02049Y02798*
X02045Y02799*
X02038Y02798*
X02032Y02796*
X02031Y02795*
X02026Y02797*
Y02826*
X02009*
X02007Y02831*
X02013Y02842*
X0202Y02858*
X02024Y02875*
X02025Y02892*
Y0294*
X02024Y02957*
X0202Y02974*
X02013Y0299*
X02004Y03005*
X01993Y03018*
X0198Y03029*
X01965Y03038*
X01949Y03045*
X01932Y03049*
X01915Y0305*
X01897Y03049*
X0188Y03045*
X01864Y03038*
X0185Y03029*
X01836Y03018*
X01825Y03005*
X01816Y0299*
X01809Y02974*
X01805Y02957*
X01804Y0294*
Y02938*
X01802Y02936*
X01791Y02923*
X01782Y02908*
X01775Y02892*
X01771Y02875*
X0177Y02858*
Y02841*
X017*
X01686Y02839*
X01672Y02835*
X0166Y02829*
X01649Y0282*
X0164Y02809*
X01634Y02797*
X0163Y02783*
X01628Y0277*
X0163Y02756*
X01634Y02742*
X01638Y02734*
X01597Y02692*
X01593Y02686*
X01591Y0268*
Y02636*
X01588Y02632*
X01586Y02626*
X01585Y0262*
X01586Y02613*
X01588Y02607*
X01592Y02602*
X01597Y02598*
X01603Y02596*
X0161Y02595*
X01616Y02596*
X01622Y02598*
X01627Y02602*
X01631Y02607*
X01633Y02613*
X01634Y0262*
X01633Y02626*
X01631Y02632*
X01628Y02636*
Y02672*
X01664Y02708*
X01672Y02704*
X01686Y027*
X017Y02698*
X0192*
X01934Y027*
X01947Y02704*
X01959Y0271*
X01962Y02713*
X02026*
Y02752*
X02034*
X02038Y02751*
X02045Y0275*
X02051Y02751*
X02057Y02753*
X02062Y02757*
X02066Y02762*
X02068Y02768*
X02069Y02775*
X02068Y02781*
X02066Y02787*
X02062Y02791*
X02063Y02793*
X02064Y02796*
X0207Y02795*
X0214*
X02146Y02796*
X02152Y02799*
X02158Y02803*
X02161Y02807*
X02162Y02807*
X02165Y02807*
X02166Y02807*
X02168Y02802*
X02172Y02797*
X02175Y02795*
X02177Y02793*
X02177Y02788*
X02176Y02786*
X02175Y0278*
X02176Y02773*
X02178Y02767*
X02182Y02762*
X02187Y02758*
X02193Y02756*
X022Y02755*
X02206Y02756*
X02212Y02758*
X02217Y02762*
X02221Y02767*
X02223Y02773*
X02224Y0278*
X02224Y0278*
X02229Y02783*
X0223Y02782*
X02241Y02776*
X02253Y02772*
X02265Y02771*
X02276Y02772*
X02288Y02776*
X02299Y02782*
X02308Y02789*
X02315Y02799*
X02317Y02802*
X02322Y02801*
Y02431*
X02317Y0243*
X02315Y02434*
X02308Y02443*
X02299Y0245*
X02288Y02456*
X02276Y0246*
X02265Y02461*
X02253Y0246*
X02241Y02456*
X0223Y0245*
X02221Y02443*
X02214Y02434*
X02208Y02423*
X02204Y02411*
X02203Y024*
X02204Y02388*
X02208Y02376*
X02214Y02365*
X02217Y02361*
X02215Y02356*
X02057*
Y02647*
X01642*
Y02568*
X01572*
Y02647*
X0117*
X01169Y02652*
X01172Y02653*
X01177Y02657*
X01181Y02662*
X01183Y02668*
X01184Y02673*
X01209Y02699*
X01215Y02698*
X01415*
X01425Y02699*
X01435Y02698*
X01449Y027*
X01462Y02704*
X01474Y0271*
X01477Y02713*
X01541*
Y02751*
X01552*
X01553Y02751*
X0156Y0275*
X01566Y02751*
X01572Y02753*
X01577Y02757*
X01581Y02762*
X01583Y02768*
X01584Y02775*
X01583Y02781*
X01581Y02787*
X01577Y02792*
X01572Y02796*
X01566Y02798*
X0156Y02799*
X01553Y02798*
X01547Y02796*
X01546Y02795*
X01541Y02797*
Y02826*
X01496*
X01493Y0283*
X01494Y02832*
X01495Y0285*
Y0294*
X01494Y02957*
X0149Y02974*
X01483Y0299*
X01474Y03005*
X01463Y03018*
X0145Y03029*
X01435Y03038*
X01419Y03045*
X01402Y03049*
X01385Y0305*
X01367Y03049*
X0135Y03045*
X01334Y03038*
X0132Y03029*
X01306Y03018*
X01295Y03005*
X01286Y0299*
X01279Y02974*
X01275Y02957*
X01274Y0294*
Y02902*
X01269Y02898*
X01266Y02899*
X0126Y029*
X01065*
X01058Y02899*
X01052Y02897*
X01046Y02893*
X01042Y02887*
X0104Y02881*
X01039Y02875*
X0104Y02868*
X01042Y02862*
X01046Y02856*
X01052Y02852*
X01058Y0285*
X01065Y02849*
X0126*
X01266Y0285*
X01268Y0285*
X01273Y02848*
X01273Y02845*
X01269Y02841*
X01215*
X01201Y02839*
X01187Y02835*
X01175Y02829*
X01164Y0282*
X01155Y02809*
X01149Y02797*
X01145Y02783*
X01143Y0277*
X01145Y02756*
X01149Y02742*
X01155Y0273*
X01164Y02719*
X01169Y02715*
X01169Y0271*
X01158Y02699*
X01153Y02698*
X01147Y02696*
X01147Y02696*
X01145Y02698*
X01076Y02767*
Y02826*
X01012*
X01009Y02829*
X00997Y02835*
X00984Y02839*
X0097Y02841*
X0096*
Y0294*
X00959Y02957*
X00955Y02974*
X00948Y0299*
X00939Y03005*
X00928Y03018*
X00915Y03029*
X009Y03038*
X00884Y03045*
X00867Y03049*
X0085Y0305*
X00832Y03049*
X00815Y03045*
X00799Y03038*
X00785Y03029*
X00771Y03018*
X0076Y03005*
X00751Y0299*
X00744Y02974*
X0074Y02957*
X00739Y0294*
Y02847*
X00732Y02845*
X0072Y02838*
X00709Y0283*
X007Y02819*
X00693Y02807*
X00689Y02793*
X00688Y02779*
X00688Y02775*
X00684Y02773*
X00674Y02783*
X00663Y02792*
X00653Y02798*
X0065Y02803*
X00639Y02816*
X00626Y02828*
X00611Y02837*
X00595Y02843*
X00578Y02847*
X00561Y02849*
X00477*
X00476Y0291*
X00479Y02922*
X0048Y0294*
X00479Y02957*
X00475Y02974*
X00468Y0299*
X00459Y03005*
X00448Y03018*
X00435Y03029*
X0042Y03038*
X00404Y03045*
X00387Y03049*
X0037Y0305*
X00366Y0305*
X00362Y0305*
X00345Y03048*
X00328Y03044*
X00312Y03037*
X00297Y03027*
X00285Y03016*
X00274Y03002*
X00265Y02987*
X00262Y0298*
X00257Y0298*
X00253Y0299*
X00244Y03005*
X00233Y03018*
X0022Y03029*
X00205Y03038*
X00189Y03045*
X00172Y03049*
X00155Y0305*
X00137Y03049*
X0012Y03045*
X00104Y03038*
X0009Y03029*
X00076Y03018*
X00065Y03005*
X00056Y0299*
X00049Y02974*
X00045Y02957*
X00044Y0294*
Y0272*
X00045Y02702*
X00049Y02685*
X00056Y02669*
X00065Y02655*
X00076Y02641*
X0009Y0263*
X00104Y02621*
X0012Y02614*
X00136Y0261*
Y02596*
X00134Y02593*
X00016*
X00011Y02592*
X00007Y0259*
X00007Y02589*
X00002Y02591*
Y03127*
X00007Y03128*
X00014Y03119*
X00025Y0311*
X00037Y03104*
X00051Y031*
X00065Y03098*
X00078Y031*
X00092Y03104*
X00104Y0311*
X00115Y03119*
X00124Y0313*
X0013Y03142*
X00134Y03156*
X00136Y0317*
X00134Y03183*
X0013Y03197*
X00124Y03209*
X00115Y0322*
X00115Y03222*
X00117Y03225*
X02207*
X02209Y03222*
G37*
G36*
X01644Y01429D02*
X01642Y01424D01*
X0152*
X01514Y01423*
X01508Y01419*
X01502Y01413*
X01498Y01407*
X01497Y01401*
Y01391*
X0145Y01344*
X01445*
X01444Y01344*
X01415*
X01402Y01357*
Y01374*
X01416*
Y01441*
X01374*
X0137Y01446*
X0137Y01449*
X01369Y01455*
X01367Y01459*
X01372Y01462*
X01377Y01456*
X01383Y01453*
X0139Y01451*
X01434*
X01436Y01447*
X01436Y01446*
X01435Y0144*
X01436Y01433*
X01438Y01427*
X01442Y01422*
X01447Y01418*
X01453Y01416*
X0146Y01415*
X01466Y01416*
X01472Y01418*
X01477Y01422*
X01481Y01427*
X01483Y01433*
X01484Y0144*
X01483Y01445*
X01487Y01449*
X01491Y01448*
X01491Y01448*
X01493Y01442*
X01497Y01437*
X01502Y01433*
X01508Y01431*
X01515Y0143*
X01521Y01431*
X01527Y01433*
X01532Y01437*
X01536Y01442*
X01538Y01448*
X01539Y01455*
X01538Y01461*
X01537Y01463*
X01541Y01468*
X01606*
X01644Y01429*
G37*
G36*
X01038Y01719D02*
Y01666D01*
Y0165*
X01036Y01649*
X0103Y01645*
X01003Y01619*
X00998Y01618*
X00992Y01616*
X00987Y01612*
X00983Y01607*
X00981Y01601*
X0098Y01595*
X00981Y01588*
X00983Y01582*
X00987Y01577*
X00992Y01573*
X00998Y01571*
X01005Y0157*
X01011Y01571*
X01017Y01573*
X01022Y01577*
X01026Y01582*
X01028Y01588*
X01029Y01593*
X01033Y01598*
X01038Y01599*
X01051*
Y01516*
X01042Y01507*
X01038Y01501*
X01037Y01494*
Y01474*
X01033Y01473*
X01028Y01471*
X01026Y01477*
X01022Y01482*
X01017Y01486*
X01015Y01487*
Y01536*
X00948*
Y01473*
X00962*
Y01454*
X00963Y01447*
X00962Y01442*
X00959Y01441*
X00952Y01442*
X00945Y01441*
X00942Y01439*
X00939Y01441*
X00936Y01442*
X00933Y01447*
X00933Y01448*
X00934Y01455*
X00933Y01461*
X00931Y01467*
X00927Y01472*
X00922Y01476*
X00919Y01477*
X00918Y01483*
X00927Y01492*
X00931Y01498*
X00933Y01505*
X00931Y01511*
X00927Y01517*
X00921Y01521*
X00915Y01523*
X00887*
X00753Y01657*
Y01705*
X00765Y01718*
X00793*
X008Y0172*
X00806Y01723*
X00817Y01735*
X00821Y0174*
X00823Y01747*
Y01855*
X00846Y01878*
X0085Y01884*
X00851Y01891*
X0085Y01898*
X00846Y01903*
X00847Y01907*
X00848Y01908*
X00848Y01908*
X01038Y01719*
G37*
G36*
X00613Y01576D02*
Y01557D01*
X00611Y01553*
X00548*
Y01486*
X00561*
Y01481*
X00542*
X00537*
X0052*
Y01486*
X00531*
Y01553*
X00468*
Y01486*
X00479*
Y01481*
X00467*
Y01398*
X0052*
X00599Y0132*
X00597Y01315*
X00577*
Y01299*
X00566*
Y01315*
X00503*
Y01278*
X00498Y01276*
X00294Y0148*
Y01533*
X00293Y0154*
X00293Y0154*
X00322Y01569*
X00494*
X005Y01568*
X00592*
X00599Y0157*
X00604Y01574*
X00609Y01578*
X00613Y01576*
G37*
G36*
X00788Y01868D02*
X00786Y01863D01*
Y01844*
X00671*
X00666Y01843*
X00662Y01841*
X00659Y01837*
X00658Y01832*
Y0175*
X00659Y01745*
X00662Y01741*
X00666Y01738*
X00671Y01737*
X00727*
X00729Y01733*
X00722Y01726*
X00718Y0172*
X00716Y01713*
Y01667*
X00662*
X00513Y01817*
Y01873*
X00785*
X00788Y01868*
G37*
G36*
X02119Y01705D02*
X02121Y017D01*
X01979Y01558*
X01971Y01567*
X01965Y01571*
X01959Y01572*
X01894*
X01888Y01571*
X01882Y01567*
X01876Y01561*
X01872Y01555*
X01871Y01549*
Y01543*
X01851*
X01809Y01585*
X01807Y01586*
X01809Y01591*
X01834*
Y01605*
X019*
X01907Y01606*
X01912Y0161*
X0192Y01617*
X01924Y01616*
Y01591*
X01979*
Y01605*
X02011*
X02018Y01606*
X02024Y0161*
X02119Y01705*
X02119*
G37*
%LNninja_3_2_pcb-2*%
%LPC*%
G36*
X0094Y01224D02*
X00933Y01223D01*
X00927Y01221*
X00922Y01217*
X00918Y01212*
X00916Y01206*
X00915Y012*
X00916Y01193*
X00918Y01187*
X00922Y01182*
X00927Y01178*
X00933Y01176*
X0094Y01175*
X00946Y01176*
X00952Y01178*
X00957Y01182*
X00961Y01187*
X00963Y01193*
X00964Y012*
X00963Y01206*
X00961Y01212*
X00957Y01217*
X00952Y01221*
X00946Y01223*
X0094Y01224*
G37*
G36*
X01865Y01129D02*
X01858Y01128D01*
X01852Y01126*
X01847Y01122*
X01843Y01117*
X01841Y01111*
X0184Y01105*
X01841Y01098*
X01843Y01092*
X01847Y01087*
X01852Y01083*
X01858Y01081*
X01865Y0108*
X01871Y01081*
X01877Y01083*
X01882Y01087*
X01886Y01092*
X01888Y01098*
X01889Y01105*
X01888Y01111*
X01886Y01117*
X01882Y01122*
X01877Y01126*
X01871Y01128*
X01865Y01129*
G37*
G36*
X00165Y00144D02*
X00158Y00143D01*
X00152Y00141*
X00147Y00137*
X00143Y00132*
X00141Y00126*
X0014Y0012*
X00141Y00113*
X00143Y00107*
X00147Y00102*
X00152Y00098*
X00158Y00096*
X00165Y00095*
X00171Y00096*
X00177Y00098*
X00182Y00102*
X00186Y00107*
X00188Y00113*
X00189Y0012*
X00188Y00126*
X00186Y00132*
X00182Y00137*
X00177Y00141*
X00171Y00143*
X00165Y00144*
G37*
G36*
X0022D02*
X00213Y00143D01*
X00207Y00141*
X00202Y00137*
X00198Y00132*
X00196Y00126*
X00195Y0012*
X00196Y00113*
X00198Y00107*
X00202Y00102*
X00207Y00098*
X00213Y00096*
X0022Y00095*
X00226Y00096*
X00232Y00098*
X00237Y00102*
X00241Y00107*
X00243Y00113*
X00244Y0012*
X00243Y00126*
X00241Y00132*
X00237Y00137*
X00232Y00141*
X00226Y00143*
X0022Y00144*
G37*
G36*
X01488Y00301D02*
X01477Y003D01*
X01467Y00296*
X01459Y00289*
X01452Y0028*
X01448Y0027*
X01447Y0026*
X01448Y00249*
X01452Y00239*
X01459Y0023*
X01467Y00223*
X01477Y00219*
X01488Y00218*
X01499Y00219*
X01509Y00223*
X01518Y0023*
X01524Y00239*
X01529Y00249*
X0153Y0026*
X01529Y0027*
X01524Y0028*
X01518Y00289*
X01509Y00296*
X01499Y003*
X01488Y00301*
G37*
G36*
X01367D02*
X01356Y003D01*
X01346Y00296*
X01338Y00289*
X01331Y0028*
X01327Y0027*
X01325Y0026*
X01327Y00249*
X01331Y00239*
X01338Y0023*
X01346Y00223*
X01356Y00219*
X01367Y00218*
X01378Y00219*
X01388Y00223*
X01396Y0023*
X01403Y00239*
X01407Y00249*
X01409Y0026*
X01407Y0027*
X01403Y0028*
X01396Y00289*
X01388Y00296*
X01378Y003*
X01367Y00301*
G37*
G36*
X01246D02*
X01235Y003D01*
X01225Y00296*
X01216Y00289*
X0121Y0028*
X01205Y0027*
X01204Y0026*
X01205Y00249*
X0121Y00239*
X01216Y0023*
X01225Y00223*
X01235Y00219*
X01246Y00218*
X01257Y00219*
X01267Y00223*
X01275Y0023*
X01282Y00239*
X01286Y00249*
X01287Y0026*
X01286Y0027*
X01282Y0028*
X01275Y00289*
X01267Y00296*
X01257Y003*
X01246Y00301*
G37*
G36*
X00645Y00804D02*
X00638Y00803D01*
X00632Y00801*
X00627Y00797*
X00623Y00792*
X00621Y00786*
X0062Y0078*
X00621Y00773*
X00623Y00767*
X00627Y00762*
X00632Y00758*
X00638Y00756*
X00645Y00755*
X00651Y00756*
X00657Y00758*
X00662Y00762*
X00666Y00767*
X00668Y00773*
X00669Y0078*
X00668Y00786*
X00666Y00792*
X00662Y00797*
X00657Y00801*
X00651Y00803*
X00645Y00804*
G37*
G36*
X00366Y00778D02*
X0036Y00777D01*
X00354Y00774*
X00349Y0077*
X00345Y00765*
X00342Y00759*
X00341Y00753*
X00342Y00747*
X00345Y00741*
X00349Y00736*
X00354Y00732*
X0036Y00729*
X00366Y00729*
X00372Y00729*
X00378Y00732*
X00383Y00736*
X00387Y00741*
X0039Y00747*
X0039Y00753*
X0039Y00759*
X00387Y00765*
X00383Y0077*
X00378Y00774*
X00372Y00777*
X00366Y00778*
G37*
G36*
X00435Y00549D02*
X00428Y00548D01*
X00422Y00546*
X00417Y00542*
X00413Y00537*
X00411Y00531*
X0041Y00525*
X00411Y00518*
X00413Y00512*
X00417Y00507*
X00422Y00503*
X00428Y00501*
X00435Y005*
X00441Y00501*
X00447Y00503*
X00452Y00507*
X00456Y00512*
X00458Y00518*
X00459Y00525*
X00458Y00531*
X00456Y00537*
X00452Y00542*
X00447Y00546*
X00441Y00548*
X00435Y00549*
G37*
G36*
X00385Y00619D02*
X00378Y00618D01*
X00372Y00616*
X00367Y00612*
X00363Y00607*
X00361Y00601*
X0036Y00595*
X00361Y00588*
X00363Y00582*
X00367Y00577*
X00367Y00577*
Y00572*
X00367Y00572*
X00363Y00567*
X00361Y00561*
X0036Y00555*
X00361Y00548*
X00363Y00542*
X00367Y00537*
X00372Y00533*
X00378Y00531*
X00385Y0053*
X00391Y00531*
X00397Y00533*
X00402Y00537*
X00406Y00542*
X00408Y00548*
X00409Y00555*
X00408Y00561*
X00406Y00567*
X00402Y00572*
X00402Y00572*
Y00577*
X00402Y00577*
X00406Y00582*
X00408Y00588*
X00409Y00595*
X00408Y00601*
X00406Y00607*
X00402Y00612*
X00397Y00616*
X00391Y00618*
X00385Y00619*
G37*
G36*
X0064Y00742D02*
X00633Y0074D01*
X00627Y00737*
X00618Y00727*
X00614Y00721*
X00613Y00715*
Y00697*
X00596*
X00592Y007*
X00587Y00704*
X0058Y00705*
X00574Y00704*
X00568Y007*
X00565Y00695*
X00563Y00688*
X00565Y00682*
X00568Y00676*
X00577Y00667*
X00582Y00664*
X00589Y00662*
X0063*
X00636Y00664*
X00642Y00667*
X00645Y00673*
X00647Y0068*
Y00708*
X00652Y00712*
X00655Y00718*
X00657Y00725*
X00655Y00731*
X00652Y00737*
X00646Y0074*
X0064Y00742*
G37*
G36*
X00635Y02389D02*
X00628Y02388D01*
X00622Y02386*
X00617Y02382*
X00613Y02377*
X00611Y02371*
X0061Y02365*
X00611Y02358*
X00613Y02352*
X00614Y02351*
X00617Y02347*
X00614Y02343*
X00613Y02342*
X00611Y02336*
X0061Y0233*
X00611Y02323*
X00613Y02318*
X00612Y02317*
X00608Y02312*
X00606Y02306*
X00606Y02305*
X00605Y02305*
X00598Y02304*
X00592Y02302*
X00587Y02298*
X00583Y02293*
X00581Y02287*
X0058Y02281*
X00581Y02274*
X00583Y02268*
X00587Y02263*
X00592Y02259*
X00598Y02257*
X00605Y02256*
X00611Y02257*
X00617Y02259*
X00622Y02263*
X00626Y02268*
X00628Y02274*
X00628Y02275*
X0063Y02275*
X00636Y02276*
X00642Y02278*
X00647Y02282*
X00651Y02287*
X00653Y02293*
X00654Y023*
X00653Y02306*
X00651Y02311*
X00652Y02312*
X00656Y02317*
X00658Y02323*
X00659Y0233*
X00658Y02336*
X00656Y02342*
X00655Y02343*
X00652Y02347*
X00655Y02351*
X00656Y02352*
X00658Y02358*
X00659Y02365*
X00658Y02371*
X00656Y02377*
X00652Y02382*
X00647Y02386*
X00641Y02388*
X00635Y02389*
G37*
G36*
X0044Y02571D02*
X00349D01*
X00344Y0257*
X0034Y02567*
X00338Y02563*
X00337Y02559*
Y025*
X00338Y02495*
X0034Y02491*
X00344Y02488*
X00349Y02487*
X0044*
X00444Y02488*
X00448Y02491*
X00451Y02495*
X00452Y025*
Y02559*
X00451Y02563*
X00448Y02567*
X00444Y0257*
X0044Y02571*
G37*
G36*
X02289Y01988D02*
X0217D01*
X02166Y01987*
X02162Y01984*
X02159Y0198*
X02158Y01976*
Y01893*
X02159Y01888*
X02162Y01884*
X02166Y01882*
X0217Y01881*
X02289*
X02293Y01882*
X02297Y01884*
X023Y01888*
X02301Y01893*
Y01976*
X023Y0198*
X02297Y01984*
X02293Y01987*
X02289Y01988*
G37*
G36*
X02175Y02204D02*
X02168Y02203D01*
X02162Y02201*
X02157Y02197*
X02153Y02192*
X02151Y02186*
X0215Y0218*
X02151Y02173*
X02153Y02167*
X02157Y02162*
X02162Y02158*
X02168Y02156*
X02175Y02155*
X02181Y02156*
X02187Y02158*
X02192Y02162*
X02196Y02167*
X02198Y02173*
X02199Y0218*
X02198Y02186*
X02196Y02192*
X02192Y02197*
X02187Y02201*
X02181Y02203*
X02175Y02204*
G37*
G36*
X00789Y02192D02*
X00671D01*
X00666Y02191*
X00662Y02189*
X00659Y02185*
X00658Y0218*
Y02098*
X00659Y02093*
X00662Y02089*
X00666Y02086*
X00671Y02085*
X00789*
X00793Y02086*
X00797Y02089*
X008Y02093*
X00801Y02098*
Y0218*
X008Y02185*
X00797Y02189*
X00793Y02191*
X00789Y02192*
G37*
G36*
X0168Y02916D02*
X01671Y02915D01*
X01664Y02912*
X01663Y02911*
X01621*
X0162Y02912*
X01618Y02911*
X0154*
X01531Y0291*
X01524Y02907*
X01517Y02902*
X01512Y02895*
X01509Y02888*
X01508Y0288*
X01509Y02871*
X01512Y02864*
X01517Y02857*
X01524Y02852*
X01531Y02849*
X0154Y02848*
X01675*
X01683Y02849*
X0169Y02852*
X01697Y02857*
X01702Y02862*
X01707Y02869*
X0171Y02876*
X01711Y02885*
X0171Y02893*
X01707Y029*
X01702Y02907*
X01695Y02912*
X01688Y02915*
X0168Y02916*
G37*
G36*
X00555Y03079D02*
X00543Y03078D01*
X00531Y03074*
X0052Y03069*
X00511Y03061*
X00504Y03052*
X00498Y03041*
X00494Y0303*
X00493Y03018*
X00494Y03006*
X00498Y02994*
X00504Y02984*
X00511Y02974*
X0052Y02967*
X00531Y02961*
X00543Y02957*
X00555Y02956*
X00566Y02957*
X00578Y02961*
X00589Y02967*
X00598Y02974*
X00605Y02984*
X00611Y02994*
X00615Y03006*
X00616Y03018*
X00615Y0303*
X00611Y03041*
X00605Y03052*
X00598Y03061*
X00589Y03069*
X00578Y03074*
X00566Y03078*
X00555Y03079*
G37*
%LNninja_3_2_pcb-3*%
%LPD*%
G54D10*
X02105Y01465D03*
Y01531D03*
X01264Y02028D03*
Y02095D03*
X01385Y02028D03*
Y02095D03*
X01082Y02028D03*
Y02095D03*
X01143Y02028D03*
Y02095D03*
X01445Y02028D03*
Y02095D03*
X0163Y0035D03*
Y00416D03*
X01022Y02095D03*
Y02028D03*
X01566Y02095D03*
Y02028D03*
X01687Y02095D03*
Y02028D03*
X01495Y008D03*
Y00866D03*
X0161Y012D03*
Y01133D03*
X018Y008D03*
Y00866D03*
X01675Y012D03*
Y01133D03*
X0038Y02D03*
Y01933D03*
X0025Y0042D03*
Y00486D03*
Y0035D03*
Y00283D03*
X0067Y01505D03*
Y01438D03*
X0074Y01505D03*
Y01438D03*
X0032Y01935D03*
Y02001D03*
X0174Y00866D03*
Y008D03*
X0156Y00866D03*
Y008D03*
X00245Y00625D03*
Y00558D03*
Y00686D03*
Y00753D03*
Y01445D03*
Y01378D03*
Y0185D03*
Y01783D03*
Y01911D03*
Y01978D03*
Y0225D03*
Y02183D03*
Y02315D03*
Y02381D03*
X01055Y00595D03*
Y00661D03*
X00995Y00595D03*
Y00661D03*
X00875Y0066D03*
Y00593D03*
X0107Y017D03*
Y01633D03*
X01605Y01375D03*
Y01308D03*
X01385Y01475D03*
Y01408D03*
X00961Y02026D03*
Y02093D03*
X01203Y02028D03*
Y02095D03*
X01324Y02028D03*
Y02095D03*
X01505D03*
Y02028D03*
X01626Y02095D03*
Y02028D03*
X01747D03*
Y02095D03*
X0045Y02D03*
Y01933D03*
X0162Y008D03*
Y00866D03*
X0168Y008D03*
Y00866D03*
X005Y0152D03*
Y01586D03*
X0058Y0152D03*
Y01586D03*
X01125Y0063D03*
Y00696D03*
X0124Y00615D03*
Y00681D03*
X00935Y0066D03*
Y00593D03*
X01685Y01555D03*
Y01621D03*
X01545Y01308D03*
Y01375D03*
X00535Y01215D03*
Y01281D03*
X00245Y01506D03*
Y01573D03*
X0025Y0131D03*
Y01243D03*
X00815Y0066D03*
Y00593D03*
X00245Y01096D03*
Y01163D03*
X00535Y01148D03*
Y01081D03*
X00245Y0103D03*
Y00963D03*
G54D11*
X01775Y01465D03*
X01841D03*
X0192D03*
X01986D03*
X0206Y01375D03*
X01993D03*
X0205Y01255D03*
X01983D03*
X01511Y02155D03*
X01445D03*
X0045Y0186D03*
X00383D03*
X01795Y00995D03*
X01728D03*
X01795Y01055D03*
X01728D03*
X00915Y01505D03*
X00981D03*
X00665Y0102D03*
X00598D03*
X00755Y00515D03*
X00688D03*
X00885D03*
X00951D03*
X0205Y01315D03*
X01983D03*
X01365Y00605D03*
X01431D03*
X01145Y0187D03*
X01078D03*
X0179Y00935D03*
X01723D03*
X0202Y01185D03*
X01953D03*
X0036Y0084D03*
X00426D03*
X00365Y0093D03*
X00431D03*
X01335Y0071D03*
X01401D03*
X00635Y0061D03*
X00701D03*
X0125Y0183D03*
X01316D03*
G54D12*
X00505Y0144D03*
X00579D03*
X00705Y0068D03*
X0063D03*
X00575Y00835D03*
X005D03*
X00575Y00915D03*
X005D03*
G54D13*
X0064Y01266D03*
Y01096D03*
G54D14*
X01816Y01303D03*
G54D15*
X01895Y01352D03*
Y01333D03*
Y01313D03*
Y01293D03*
Y01274D03*
Y01254D03*
X01737D03*
Y01274D03*
Y01293D03*
Y01313D03*
Y01333D03*
Y01352D03*
G54D16*
X01767Y01382D03*
X01786D03*
X01806D03*
X01826D03*
X01845D03*
X01865D03*
Y01225D03*
X01845D03*
X01826D03*
X01806D03*
X01786D03*
X01767D03*
G54D17*
X0215Y00439D03*
G54D18*
X02241Y00195D03*
X0206D03*
X0215D03*
G54D19*
X00873Y01389D03*
X00893D03*
X00913D03*
X00932D03*
X00952D03*
X00972D03*
X00991D03*
X01011D03*
X01031D03*
X0105D03*
X0107D03*
X0109D03*
X0111D03*
X01129D03*
X01149D03*
X01169D03*
X01188D03*
X01208D03*
X01228D03*
X01247D03*
X01267D03*
X01287D03*
X01306D03*
X01326D03*
X01346D03*
Y0079D03*
X01326D03*
X01306D03*
X01287D03*
X01267D03*
X01247D03*
X01228D03*
X01208D03*
X01188D03*
X01169D03*
X01149D03*
X01129D03*
X0111D03*
X0109D03*
X0107D03*
X0105D03*
X01031D03*
X01011D03*
X00991D03*
X00972D03*
X00952D03*
X00932D03*
X00913D03*
X00893D03*
X00873D03*
G54D20*
X01409Y01326D03*
Y01306D03*
Y01286D03*
Y01267D03*
Y01247D03*
Y01227D03*
Y01208D03*
Y01188D03*
Y01168D03*
Y01149D03*
Y01129D03*
Y01109D03*
Y0109D03*
Y0107D03*
Y0105D03*
Y0103D03*
Y01011D03*
Y00991D03*
Y00971D03*
Y00952D03*
Y00932D03*
Y00912D03*
Y00893D03*
Y00873D03*
Y00853D03*
X0081D03*
Y00873D03*
Y00893D03*
Y00912D03*
Y00932D03*
Y00952D03*
Y00971D03*
Y00991D03*
Y01011D03*
Y0103D03*
Y0105D03*
Y0107D03*
Y0109D03*
Y01109D03*
Y01129D03*
Y01149D03*
Y01168D03*
Y01188D03*
Y01208D03*
Y01227D03*
Y01247D03*
Y01267D03*
Y01286D03*
Y01306D03*
Y01326D03*
G54D21*
X0177Y01525D03*
X01844D03*
X01807Y01623D03*
X01915Y01525D03*
X01989D03*
X01952Y01623D03*
G54D22*
X01907Y0059D03*
Y00767D03*
X0222D03*
Y0059D03*
G54D23*
X00655Y01575D03*
Y01649D03*
X00735Y01575D03*
Y01649D03*
G54D24*
X02241Y0007D03*
X0206D03*
G54D25*
X01749Y01718D03*
Y01878D03*
X01799Y01718D03*
Y01878D03*
X01849Y01718D03*
Y01878D03*
X01899Y01718D03*
Y0188D03*
X01949Y01718D03*
Y01878D03*
G54D26*
X0018Y02438D03*
Y02389D03*
Y0234D03*
Y02033D03*
Y01984D03*
Y01935D03*
Y01628D03*
Y01579D03*
Y0153D03*
Y01218D03*
Y01169D03*
Y0112D03*
Y00808D03*
Y00759D03*
Y0071D03*
Y00398D03*
Y00349D03*
Y003D03*
X02125Y01736D03*
Y01785D03*
Y01835D03*
X00835Y01939D03*
Y0189D03*
Y01988D03*
Y02037D03*
X02145Y0106D03*
Y0111D03*
Y01011D03*
Y00962D03*
X00465Y00199D03*
Y0015D03*
Y00248D03*
Y00297D03*
X01714Y00303D03*
Y00254D03*
Y00156D03*
Y00205D03*
Y00402D03*
Y00352D03*
G54D27*
X01265Y00525D03*
X01315D03*
X01216D03*
X01167D03*
X0081Y00445D03*
X0086D03*
X00761D03*
X00712D03*
G54D28*
X00445Y02155D03*
Y02214D03*
Y02273D03*
Y02332D03*
Y02391D03*
Y0245D03*
G54D29*
X00935Y00176D03*
X00875D03*
X00816D03*
X00757D03*
X00698D03*
X00639D03*
G54D30*
X0105Y0277D03*
X01D03*
X0095D03*
X0085D03*
X008D03*
X0075D03*
X01515D03*
X01465D03*
X01415D03*
X01315D03*
X01265D03*
X01215D03*
X02D03*
X0195D03*
X019D03*
X018D03*
X0175D03*
X017D03*
G54D31*
X009Y02458D03*
X01365D03*
X0185D03*
G54D32*
X0161Y0268D02*
X017Y0277D01*
X0161Y0262D02*
Y0268D01*
X01023Y00878D02*
Y00879D01*
X0101Y00865D02*
X01023Y00878D01*
Y00879D02*
Y00879D01*
X01022Y0088D02*
X01023Y00879D01*
X01012Y0087D02*
X01022Y0088D01*
X01031Y00906D02*
Y0091D01*
X01029Y00905D02*
X01031Y00906D01*
X01029Y00905D02*
D01*
X00865Y0107D02*
X01029Y00905D01*
X0042Y0084D02*
X00436D01*
X0053Y00793D02*
X00537Y008D01*
X00469Y00793D02*
X0053D01*
X00537Y00915D02*
Y00949D01*
X0053Y00956D02*
X00537Y00949D01*
X00469Y00956D02*
X0053D01*
X00564Y0097D02*
X0072D01*
X00564D02*
X00564Y0097D01*
X00562D02*
X00564D01*
X00522Y0101D02*
X00562Y0097D01*
X00569Y00988D02*
X007D01*
X00503Y01054D02*
X00569Y00988D01*
X00555Y0104D02*
X00578D01*
X00265Y0101D02*
X00522D01*
X00462Y00915D02*
Y00949D01*
X00436Y00915D02*
X00462D01*
X005Y00835D02*
Y00915D01*
X00462Y008D02*
Y00835D01*
Y008D02*
X00469Y00793D01*
X005Y00915D02*
X00535Y0088D01*
X0129Y0099D02*
X01292D01*
X01293Y0099*
X01303Y01*
X01022Y02095D02*
Y02172D01*
X01025Y02175*
X01185Y02189D02*
Y022D01*
X01203Y02133D02*
X0121Y0214D01*
X0116Y02165D02*
X01185Y02189D01*
X0116Y02144D02*
Y02165D01*
Y02144D02*
X01168Y02136D01*
Y0212D02*
Y02136D01*
X01143Y02095D02*
X01168Y0212D01*
X01203Y02095D02*
Y02133D01*
X01435Y00734D02*
X01448Y00721D01*
X01435Y00734D02*
D01*
X01406Y00763D02*
X01435Y00734D01*
X01457Y00747D02*
Y00751D01*
X01456Y00751D02*
X01457Y00751D01*
X01406Y00763D02*
Y0085D01*
X01275Y0085D02*
X01275D01*
X01285Y0086*
X0122Y0087D02*
X01228Y00861D01*
X01188Y00883D02*
X0119Y00885D01*
X01195Y0095D02*
X012D01*
X01188Y0079D02*
Y00883D01*
X0115Y0087D02*
X0116D01*
X0111D02*
X01115D01*
X01285Y0086D02*
X01287Y00857D01*
Y0079D02*
Y00857D01*
X00885Y01475D02*
X00915Y01505D01*
X00885Y01444D02*
Y01475D01*
Y01444D02*
X00893Y01437D01*
Y01389D02*
Y01437D01*
X00991Y01486D02*
Y01495D01*
X0098Y01475D02*
X00991Y01486D01*
X0098Y01454D02*
Y01475D01*
Y01454D02*
X00991Y01443D01*
Y01389D02*
Y01443D01*
X01055Y01469D02*
X01089Y01435D01*
X01055Y01469D02*
Y01494D01*
X0107Y01509*
Y01633*
X0109Y01389D02*
Y01435D01*
X01089D02*
X0109D01*
X01499Y01503D02*
X01517Y01486D01*
X01613*
X01372Y01522D02*
X01634D01*
X0136Y0154D02*
X01641D01*
X0121Y01515D02*
X01365D01*
X01169Y01473D02*
X0121Y01515D01*
X01203Y01533D02*
X01353D01*
X01149Y01479D02*
X01203Y01533D01*
X01149Y01389D02*
Y01479D01*
X01169Y01389D02*
Y01473D01*
X0148Y01503D02*
X01499D01*
X01298Y0134D02*
X01301Y01343D01*
X01298Y0133D02*
Y0134D01*
Y0133D02*
X01304Y01325D01*
Y01299D02*
Y01325D01*
X01295Y01265D02*
Y01287D01*
X013Y01295D02*
X01304Y01299D01*
X013Y01292D02*
Y01295D01*
X01295Y01287D02*
X013Y01292D01*
X01324Y01247D02*
X01326Y01249D01*
X01348Y01237D02*
Y01386D01*
X0133Y01218D02*
X01348Y01237D01*
X01446Y01469D02*
X0148Y01503D01*
X0166Y0144D02*
X01671Y01428D01*
X01613Y01486D02*
X0166Y0144D01*
X01629Y01274D02*
X01737D01*
X0161Y01255D02*
X01629Y01274D01*
X01624Y0122D02*
X01635D01*
Y01218D02*
Y0122D01*
X0162Y01203D02*
X01635Y01218D01*
X0161Y01234D02*
Y01255D01*
Y01234D02*
X01624Y0122D01*
X01135Y01014D02*
X012Y0095D01*
X01051Y00959D02*
Y00995D01*
X01069Y01014D02*
X01135D01*
X01051Y00995D02*
X01069Y01014D01*
X00426Y00925D02*
X00436Y00915D01*
X0164Y01344D02*
Y01375D01*
X01682Y01372D02*
Y01375D01*
Y01372D02*
X01689Y01365D01*
X01605Y01375D02*
X0164D01*
X01702Y01333D02*
X01737D01*
X01682Y01312D02*
X01702Y01333D01*
X01647Y01312D02*
X01682D01*
X01628Y01331D02*
X01647Y01312D01*
X01628Y01331D02*
D01*
X01605Y01308D02*
X01628Y01331D01*
X01689Y01344D02*
Y01365D01*
X01675Y0133D02*
X01689Y01344D01*
X01654Y0133D02*
X01675D01*
X0164Y01344D02*
X01654Y0133D01*
X01688Y01381D02*
Y01414D01*
X01682Y01375D02*
X01688Y01381D01*
X01674Y01428D02*
X01688Y01414D01*
X0071Y00756D02*
X00744Y00722D01*
Y00693D02*
Y00722D01*
Y00693D02*
X00746Y00691D01*
Y00645D02*
Y00691D01*
X01799Y01774D02*
X01815Y0179D01*
X01799Y01718D02*
Y01774D01*
X0079Y00585D02*
X00803D01*
X00813Y00595*
X0081Y00952D02*
X00882D01*
X00885Y0095*
Y00935D02*
Y0095D01*
Y00935D02*
X00893Y00926D01*
X0158Y00806D02*
Y0082D01*
X01573Y008D02*
X0158Y00806D01*
X0156Y008D02*
X01573D01*
X01468Y00453D02*
X01592Y00328D01*
Y00301D02*
Y00328D01*
X01605Y0035D02*
X0163D01*
X0154Y00415D02*
X01605Y0035D01*
X01468Y00453D02*
Y00649D01*
X01709Y002D02*
X01714Y00205D01*
X01636Y00218D02*
X01654Y002D01*
X01592Y00218D02*
X01636D01*
X01654Y002D02*
X01709D01*
X01568Y00277D02*
X01592Y00301D01*
X01568Y00242D02*
Y00277D01*
Y00242D02*
X01592Y00218D01*
X00255Y0226D02*
X00285D01*
X00245Y0225D02*
X00255Y0226D01*
X00345Y02266D02*
X0035Y02271D01*
X00345Y02265D02*
Y02266D01*
X00335Y0233D02*
X00337Y02332D01*
X0034Y02325D02*
Y02325D01*
X00335Y0233D02*
X0034Y02325D01*
X00337Y02158D02*
X00361Y02182D01*
X00337Y0204D02*
Y02158D01*
Y0204D02*
X00344Y02033D01*
X0038*
X00695Y0138D02*
Y0139D01*
Y0138D02*
X00741Y01333D01*
X0081Y01149D02*
X00879D01*
X0088Y0115*
Y01201*
X0087Y01211D02*
X0088Y01201D01*
X00715Y0103D02*
X0081D01*
X00715Y0103D02*
X00715Y0103D01*
X00724Y01001D02*
X00734Y01011D01*
X00712Y01001D02*
X00724D01*
X007Y00988D02*
X00712Y01001D01*
X0074Y00991D02*
X0081D01*
X00735Y00986D02*
X0074Y00991D01*
X00735Y00985D02*
Y00986D01*
X0072Y0097D02*
X00735Y00985D01*
X0073Y0105D02*
Y0106D01*
X00719Y01084D02*
X0074D01*
X00703Y01067D02*
X00719Y01084D01*
X00703Y01054D02*
Y01067D01*
X00696Y01047D02*
X00703Y01054D01*
X0065Y01102D02*
X00747D01*
X0074Y01084D02*
X00754Y0107D01*
X00759Y0109D02*
X0081D01*
X00747Y01102D02*
X00759Y0109D01*
X00764Y0111D02*
X0081D01*
X00714Y0116D02*
X00764Y0111D01*
X0064Y01266D02*
X00714Y01191D01*
X00629Y01081D02*
X0065Y01102D01*
X00754Y0107D02*
X00865D01*
X00714Y0116D02*
Y01191D01*
X00283Y00925D02*
X0036D01*
X00269Y00591D02*
X00319Y00641D01*
Y0074*
X00318Y0074D02*
Y00808D01*
Y0074D02*
X00319Y0074D01*
X00251Y00686D02*
X00295Y0073D01*
X00245Y00591D02*
X00269D01*
X00303Y0046D02*
X0033D01*
X00299Y00456D02*
X00303Y0046D01*
X00112Y00446D02*
X00138D01*
X0007Y00359D02*
X0013Y003D01*
X0007Y00405D02*
X00112Y00446D01*
X0007Y00359D02*
Y00405D01*
X0013Y003D02*
X0018D01*
X00335Y00168D02*
X00427Y00259D01*
X00335Y00139D02*
Y00168D01*
X0037Y00126D02*
X00413D01*
X0037Y00125D02*
X0037Y00126D01*
X00349Y00125D02*
X0037D01*
X00335Y00139D02*
X00349Y00125D01*
X00816Y00176D02*
Y00281D01*
X0082Y00285*
X01758Y0081D02*
X01775D01*
X01756Y00811D02*
X01758Y0081D01*
X01895Y00779D02*
Y00815D01*
X01894Y00778D02*
X01895Y00779D01*
X01894Y00778D02*
X01907Y00766D01*
X01895Y01333D02*
X01942D01*
X01983Y01373*
Y01375*
X01497Y01286D02*
X01523D01*
X0149Y01294D02*
X01497Y01286D01*
X01469Y01294D02*
X0149D01*
X01462Y01286D02*
X01469Y01294D01*
X01409Y01286D02*
X01462D01*
X01951Y01378D02*
X01952D01*
X0195Y0138D02*
X01951Y01378D01*
X01922Y01352D02*
X0195Y0138D01*
X02065Y01475D02*
Y01483D01*
X0208Y01498*
X01005Y01595D02*
X01043Y01633D01*
X01353Y01533D02*
X0136Y0154D01*
X01311Y00991D02*
X01409D01*
X01329Y0105D02*
X01409D01*
X01228Y0079D02*
Y00861D01*
X01303Y01D02*
X01311Y00991D01*
X01111Y00873D02*
X01115Y0087D01*
X01111Y00792D02*
Y00873D01*
X0111Y0079D02*
X01111Y00792D01*
X00955Y00865D02*
Y00865D01*
X00952Y00867D02*
X00955Y00865D01*
X01006Y00844D02*
X01011Y00839D01*
X01Y00844D02*
X01006D01*
X0101Y00865D02*
X01031Y00844D01*
X00986Y00858D02*
X01Y00844D01*
X00952Y0079D02*
Y00867D01*
X01305Y0115D02*
X01319D01*
X01326Y01249D02*
Y0127D01*
X01319Y0115D02*
X01354Y01184D01*
X0133Y01195D02*
Y01218D01*
X01346Y01389D02*
X01348Y01386D01*
X01354Y01199D02*
X01363Y01208D01*
X01354Y01184D02*
Y01199D01*
X01145Y0187D02*
X01677D01*
X01728Y01818*
X0139Y01469D02*
X01446D01*
X01907Y00767D02*
X0222D01*
X02105Y01517D02*
Y01531D01*
X02086Y01498D02*
X02105Y01517D01*
X0208Y01498D02*
X02086D01*
X02055Y01785D02*
X02087D01*
X00245Y0103D02*
X00265Y0101D01*
X0045Y01825D02*
Y0186D01*
X0071Y00756D02*
Y0089D01*
X00535Y01148D02*
X00541Y01155D01*
X0069*
X01745Y008D02*
X01756Y00811D01*
X01456Y00751D02*
X01471Y00766D01*
X01455Y00721D02*
X01468Y00708D01*
X01448Y00721D02*
X01455D01*
X0029Y0131D02*
X00295Y01305D01*
X0025Y0131D02*
X0029D01*
X01841Y0187D02*
X01849Y01878D01*
X01728Y01818D02*
X01819D01*
X01385Y01475D02*
X0139Y01469D01*
X01641Y0154D02*
X0166Y01521D01*
X01365Y01515D02*
X01372Y01522D01*
X0114Y00615D02*
X0124D01*
X01125Y0063D02*
X0114Y00615D01*
X01149Y00869D02*
X0115Y0087D01*
X0154Y00415D02*
Y00425D01*
X0116Y02675D02*
X01215Y0273D01*
X01555Y0277D02*
X0156Y02775D01*
X01515Y0277D02*
X01555D01*
X01215Y0273D02*
Y0277D01*
X01051Y02713D02*
X0111Y02655D01*
X0103Y02713D02*
X01051D01*
X01468Y0065D02*
Y00708D01*
X01468Y00649D02*
X01468Y0065D01*
X00269Y0154D02*
X00276Y01533D01*
Y01473D02*
Y01533D01*
Y01473D02*
X00535Y01215D01*
X00813Y00595D02*
X00815Y00593D01*
X00735Y00585D02*
Y00634D01*
X00728Y00578D02*
X00735Y00585D01*
X00701Y00578D02*
X00728D01*
X01765Y0161D02*
X0177D01*
X01749Y01626D02*
X01765Y0161D01*
X01749Y01626D02*
Y01718D01*
X01682Y01375D02*
X01759D01*
X01671Y01428D02*
X01674D01*
X01989Y01525D02*
Y01543D01*
X02162Y01715*
Y01806*
X00735Y01649D02*
X00879Y01505D01*
X00915*
X00758Y01736D02*
X00793D01*
X00735Y01713D02*
X00758Y01736D01*
X00735Y01649D02*
Y01713D01*
X00245Y00963D02*
X00283Y00925D01*
X00318Y00808D02*
X0036Y0085D01*
X00245Y00558D02*
Y00591D01*
X0174Y008D02*
X01745D01*
X01026Y00934D02*
X01051Y00959D01*
X00295Y019D02*
X0032Y01925D01*
Y01935*
X00337Y02332D02*
X00445D01*
X01714Y00156D02*
X01761Y00108D01*
X01882*
X01921Y0007*
X0206*
X00404Y01899D02*
X00412Y01891D01*
X00939Y00593D02*
X00963Y00568D01*
Y00568D02*
Y00568D01*
Y00568D02*
X0097Y00561D01*
X0097*
X00985Y00546*
X0086Y00445D02*
X00898Y00483D01*
X00427Y00259D02*
Y00275D01*
X0018Y003D02*
X00182Y00297D01*
X00225Y00249D02*
X00274D01*
X00322Y00297*
X00465*
X01363Y01208D02*
X01409D01*
X01026Y00915D02*
X01031Y0091D01*
X01026Y00915D02*
Y00934D01*
X00995Y00886D02*
Y00895D01*
X01011Y0079D02*
Y00839D01*
X00986Y00858D02*
Y00877D01*
X00995Y00886*
X01585Y00418D02*
Y00425D01*
X00578Y0104D02*
X00598Y0102D01*
X0053Y0088D02*
X00534D01*
X00535Y0088*
X0206Y00195D02*
Y00483D01*
X00875Y00593D02*
X00935D01*
X00893Y0079D02*
Y00926D01*
X00891Y01387D02*
X00893Y01389D01*
X00925Y00085D02*
X0095Y0006D01*
X01125*
X01706Y00156D02*
X01714D01*
X00155Y02478D02*
Y0272D01*
X00142Y02466D02*
X00155Y02478D01*
X00142Y02368D02*
Y02466D01*
Y02368D02*
X00171Y0234D01*
X0018*
X00142Y0208D02*
X00245Y02183D01*
X00142Y01963D02*
Y0208D01*
X00245Y01783D02*
Y01795D01*
X00404Y01899D02*
X00411Y01906D01*
Y01961*
X0045Y02*
X00474Y01966D02*
X00535Y02027D01*
X0045Y01966D02*
X00474D01*
X0045Y01933D02*
Y01966D01*
X00361Y02182D02*
X00413D01*
X01944Y01293D02*
X01983Y01255D01*
X01895Y01293D02*
X01944D01*
X01981Y01313D02*
X01983Y01315D01*
X01895Y01313D02*
X01981D01*
X01895Y01352D02*
X01922D01*
X01741Y0144D02*
X01748Y01433D01*
X01741Y0144D02*
Y01493D01*
X01724Y0151D02*
X01741Y01493D01*
X01808Y01204D02*
Y01208D01*
X01732Y01133D02*
X01808Y01208D01*
Y01204D02*
X01814Y01198D01*
X01876*
X0192Y01241*
X01921*
X01406Y0085D02*
X01409Y00853D01*
X01675Y01133D02*
X01732D01*
X01409Y01149D02*
X01539D01*
X01682Y012D02*
X01737Y01254D01*
X01675Y012D02*
X01682D01*
X01687Y02095D02*
X01747D01*
X02116Y01835D02*
X02125D01*
X02092Y01811D02*
X02116Y01835D01*
X01897Y01811D02*
X02092D01*
X01897D02*
Y01878D01*
X01849D02*
X01897D01*
X00595Y0057D02*
X00635Y0061D01*
X01907Y00766D02*
Y00767D01*
X01714Y00282D02*
X01751D01*
Y00184D02*
Y00282D01*
X01744Y00177D02*
X01751Y00184D01*
X01714Y00177D02*
X01744D01*
X01714Y00282D02*
Y00303D01*
X01585Y00418D02*
X01586Y00416D01*
X0163*
X01714Y00156D02*
Y00177D01*
X01711Y0035D02*
X01714Y00352D01*
X0163Y0035D02*
X01711D01*
X0018Y00623D02*
X00245Y00558D01*
X0018Y00623D02*
Y0071D01*
X00239Y00759D02*
X00245Y00753D01*
X0018Y00759D02*
X00239D01*
X00245Y00558D02*
X0025Y00553D01*
Y00486D02*
Y00553D01*
X00935Y00095D02*
Y00176D01*
X00925Y00085D02*
X00935Y00095D01*
X0071Y00085D02*
X00925D01*
X00698Y00096D02*
X0071Y00085D01*
X00698Y00096D02*
Y00176D01*
X00755Y00275D02*
X00757Y00272D01*
Y00176D02*
Y00272D01*
X01945Y01722D02*
X01949Y01718D01*
X01899D02*
Y01784D01*
X01523Y01286D02*
X01545Y01308D01*
X01634Y01522D02*
X01653Y01503D01*
X01326Y0127D02*
Y01389D01*
X01301Y01343D02*
X01306Y01338D01*
Y01389*
X01724Y0151D02*
D01*
X01716Y01503D02*
X01724Y0151D01*
X01653Y01503D02*
X01716D01*
X01709Y01521D02*
X01744Y01556D01*
X0179*
X01797Y01509D02*
X01841Y01465D01*
X01797Y01509D02*
Y01549D01*
X0179Y01556D02*
X01797Y01549D01*
X0166Y01521D02*
X01709D01*
X01043Y01633D02*
X0107D01*
X01849Y01718D02*
Y01784D01*
X01685Y01654D02*
X01749Y01718D01*
X01685Y01621D02*
Y01654D01*
X02Y01641D02*
X02087Y01728D01*
X01986Y01641D02*
X02D01*
X01973Y01655D02*
X01986Y01641D01*
X01931Y01655D02*
X01973D01*
X019Y01623D02*
X01931Y01655D01*
X01807Y01623D02*
X019D01*
X02011D02*
X02125Y01736D01*
X01952Y01623D02*
X02011D01*
X01915Y0147D02*
Y01525D01*
Y0147D02*
X0192Y01465D01*
X0177Y01525D02*
X01775Y0152D01*
Y01465D02*
Y0152D01*
X01672Y01777D02*
X01769D01*
X0107Y017D02*
Y01713D01*
X00843Y01939D02*
X0107Y01713D01*
X00835Y01939D02*
X00843D01*
X00981Y01505D02*
X00991Y01495D01*
X00705Y00613D02*
Y0068D01*
X00701Y0061D02*
X00705Y00613D01*
X01921Y01241D02*
Y01265D01*
X01767Y01382D02*
X01786D01*
X01759Y01375D02*
X01767Y01382D01*
X01545Y01375D02*
X01605D01*
X01729Y01254D02*
X01737D01*
X0161Y01133D02*
X01675D01*
X0145Y01168D02*
X01481Y012D01*
X01409Y01168D02*
X0145D01*
X01495Y008D02*
X0156D01*
X0162D02*
X0168D01*
X01031Y0079D02*
Y00844D01*
X01326Y00718D02*
X01335Y0071D01*
X01326Y00718D02*
Y0079D01*
X01149D02*
Y00869D01*
X00245Y00686D02*
X00251D01*
X00245Y00625D02*
Y00686D01*
X00991Y00695D02*
Y0079D01*
Y00695D02*
X01021D01*
X01055Y00661*
X00972Y00684D02*
Y0079D01*
Y00684D02*
X00995Y00661D01*
X00688Y00564D02*
X00701Y00578D01*
X00688Y00515D02*
Y00564D01*
X00713Y00893D02*
X0081D01*
X0071Y0089D02*
X00713Y00893D01*
X00735Y00634D02*
X00746Y00645D01*
X00575Y00835D02*
X0064Y009D01*
X00537Y00835D02*
X00575D01*
X00537Y008D02*
Y00835D01*
X00815Y0066D02*
X00875D01*
X00935*
X00932Y00662D02*
Y0079D01*
Y00662D02*
X00935Y0066D01*
X0036Y0085D02*
Y00925D01*
X00462Y00949D02*
X00469Y00956D01*
X00537Y00915D02*
X00575D01*
X00436Y0084D02*
X00441Y00835D01*
X00462*
X0064Y00912D02*
X0081D01*
X0064Y009D02*
Y00912D01*
X00592Y00932D02*
X0081D01*
X00575Y00915D02*
X00592Y00932D01*
X0018Y0234D02*
X00193Y02326D01*
Y02235D02*
Y02326D01*
Y02235D02*
X00245Y02183D01*
X00175Y0193D02*
X0018Y01935D01*
X00175Y0183D02*
Y0193D01*
Y0183D02*
X00221Y01783D01*
X00245*
X00175Y01525D02*
X0018Y0153D01*
X00206Y01378D02*
X00245D01*
Y0103D02*
Y01096D01*
X00734Y01011D02*
X0081D01*
X00503Y01054D02*
Y01186D01*
X00245Y01445D02*
X00503Y01186D01*
X00687Y01047D02*
X00696D01*
X00665Y01025D02*
X00687Y01047D01*
X0018Y01579D02*
X00185Y01573D01*
X00245*
Y01445D02*
Y01506D01*
X00665Y0102D02*
Y01025D01*
X00703Y01241D02*
X00739Y01205D01*
X00703Y01241D02*
Y01308D01*
X00696Y01315D02*
X00703Y01308D01*
X00629Y01315D02*
X00696D01*
X00505Y0144D02*
X00629Y01315D01*
X0058Y0144D02*
Y0152D01*
X00579Y0144D02*
X0058Y0144D01*
X00741Y01312D02*
X00757Y01296D01*
X00741Y01312D02*
Y01333D01*
X00445Y02005D02*
X0045Y02D01*
X00445Y02005D02*
Y02033D01*
Y02391D02*
X0045Y02386D01*
X00378Y02001D02*
X0038Y02D01*
X0032Y02001D02*
X00378D01*
X00413Y02182D02*
X00445Y02214D01*
X0038Y02D02*
Y02033D01*
X00592Y01586D02*
X00655Y01649D01*
X0058Y01586D02*
X00592D01*
X005D02*
X0058D01*
X00655Y01649D02*
X00735D01*
X0206Y0007D02*
Y00195D01*
X00245Y0225D02*
Y02315D01*
X00187Y02381D02*
X00245D01*
X00535Y01148D02*
Y01215D01*
Y01081D02*
X00629D01*
X00535Y01281D02*
X00624D01*
X0081Y0111D02*
X0081Y01109D01*
X01367Y0006D02*
X01488D01*
X01246D02*
X01367D01*
X01125D02*
X01246D01*
X0102Y02026D02*
X01022Y02028D01*
X00961Y02026D02*
X0102D01*
X00201Y00963D02*
X00245D01*
X00185Y01163D02*
X00245D01*
X0018Y01169D02*
X00185Y01163D01*
X00579Y0139D02*
Y0144D01*
Y0139D02*
X00636Y01333D01*
X00703*
X00723Y01246D02*
X00757Y01212D01*
X00703Y01333D02*
X00723Y01312D01*
Y01246D02*
Y01312D01*
X00495Y01809D02*
X00655Y01649D01*
X00495Y01809D02*
Y01891D01*
X00412D02*
X00495D01*
X00833*
X01714Y00303D02*
X01735Y00325D01*
X0202Y01185D02*
Y01211D01*
X02032Y01223*
Y01237*
X0205Y01255*
X01384Y00692D02*
X01401Y0071D01*
X01384Y00678D02*
Y00692D01*
X01354Y00662D02*
X01368D01*
X01384Y00678*
X01315Y00623D02*
X01354Y00662D01*
X01315Y00605D02*
X01365D01*
X01315Y00615D02*
Y00623D01*
Y00605D02*
Y00615D01*
X0124D02*
X01315D01*
X01055Y00595D02*
X01195D01*
X01125Y0026D02*
X01315Y0045D01*
Y00525*
Y00555*
X01365Y00605*
X01195Y00595D02*
X01228Y00562D01*
X01237*
X01265Y00534*
Y00525D02*
Y00534D01*
X0103Y00561D02*
X01079D01*
X01086Y00568*
Y00575*
X01188*
X0045Y0186D02*
Y0187D01*
Y01933D02*
X00458Y01925D01*
X00463Y0193*
X0052*
X00595Y00448D02*
Y0057D01*
X0055Y00266D02*
X00639Y00176D01*
X0055Y00266D02*
Y00403D01*
X00595Y00448*
X00793Y01736D02*
X00805Y01747D01*
Y01863*
X00833Y01891*
X00413Y00126D02*
X0047Y00069D01*
X01735Y00325D02*
X01765D01*
X01907Y00467*
X00935Y00176D02*
X00948Y0019D01*
X01055*
X01125Y0026*
X0047Y00069D02*
X00611D01*
X00627Y00085*
X0071*
X00445Y02033D02*
X00465Y02053D01*
Y02135*
X00445Y02155D02*
X00465Y02135D01*
X0025Y0042D02*
X00267Y00437D01*
X00281*
X01819Y01818D02*
X01855Y01854D01*
Y0187*
X01841D02*
X01855D01*
X02087Y01728D02*
Y01785D01*
X02106*
X02115Y01776*
Y01775D02*
Y01776D01*
Y01775D02*
X02125Y01785D01*
Y01835D02*
X02133D01*
X02162Y01806*
X00835Y01988D02*
X00844D01*
X01245Y01835D02*
X0125Y0183D01*
X01316D02*
X01619D01*
X01672Y01777*
X0045Y02386D02*
X00518D01*
X00535Y02369*
Y02027D02*
Y02369D01*
X0099Y02753D02*
X0103Y02713D01*
X0099Y02753D02*
Y0276D01*
X01Y0277*
X00142Y01963D02*
X00171Y01935D01*
X0018*
X00427Y00275D02*
X00449Y00297D01*
X00465*
X00196Y00278D02*
X00225Y00249D01*
X01005Y00586D02*
X0103Y00561D01*
X01005Y00586D02*
Y00595D01*
X00995D02*
X01005D01*
X0121Y00531D02*
X01216Y00525D01*
X0121Y00531D02*
Y00553D01*
X01188Y00575D02*
X0121Y00553D01*
X0161Y012D02*
X0162D01*
Y01203*
X01748Y01433D02*
X01946D01*
X01978Y01465*
X01986*
X0179Y01727D02*
X01799Y01718D01*
X0179Y01727D02*
Y01756D01*
X01769Y01777D02*
X0179Y01756D01*
X0163Y00416D02*
X01636Y0041D01*
X01706*
X01714Y00402*
X01945Y01722D02*
Y01785D01*
X01899Y01784D02*
X019Y01785D01*
X01471Y00766D02*
X01907D01*
X02003Y00483D02*
X0206D01*
X01907Y0058D02*
X02003Y00483D01*
X01907Y0058D02*
Y0059D01*
Y00467D02*
Y0058D01*
X0222Y0059D02*
X02264D01*
Y0061*
X02294Y0064*
X02315*
X02319Y00791D02*
X02323Y00788D01*
X02315Y0064D02*
X02323Y00648D01*
Y00788*
X00985Y0049D02*
Y00546D01*
X00898Y00483D02*
X00978D01*
X00985Y0049*
X0018Y0111D02*
Y0112D01*
Y0111D02*
X00189D01*
X00201Y01097*
Y00963D02*
Y01097D01*
Y00963D02*
X00201Y00963D01*
X00175Y0141D02*
Y01525D01*
Y0141D02*
X00206Y01378D01*
X00997Y01835D02*
X01245D01*
X00348Y02273D02*
X00445D01*
X00348D02*
X0035Y02271D01*
X01488Y0006D02*
X0161D01*
X01706Y00156*
X00226Y00283D02*
X0025D01*
X00196Y00278D02*
Y00288D01*
X00187Y00297D02*
X00196Y00288D01*
X00182Y00297D02*
X00187D01*
X00217Y00292D02*
Y0032D01*
Y00292D02*
X00226Y00283D01*
X00194Y00344D02*
X00217Y0032D01*
X00179Y00486D02*
X0025D01*
X00138Y00446D02*
X00179Y00486D01*
X01895Y01274D02*
X01913D01*
X01921Y01265*
X00844Y01988D02*
X00997Y01835D01*
X01471Y0127D02*
X0148D01*
X0147Y01269D02*
X01471Y0127D01*
X01481Y012D02*
X0161D01*
X01409Y01267D02*
X01477D01*
X0148Y0127*
X0073Y0105D02*
X0081D01*
X00753Y01168D02*
X0081D01*
X00757Y01188D02*
Y01212D01*
Y01188D02*
X0081D01*
X00739Y01181D02*
Y01205D01*
Y01181D02*
X0075Y0117D01*
X00752*
X00753Y01168*
X0087Y01211D02*
X00891Y01232D01*
Y01387*
X00757Y01259D02*
Y01296D01*
Y01259D02*
X00769Y01247D01*
X0081*
X0025Y0035D02*
Y0042D01*
G54D33*
X01795Y0094D02*
X01875D01*
X0179Y00935D02*
X01795Y0094D01*
X01046Y00879D02*
X0106Y00893D01*
X01046Y00868D02*
Y00879D01*
X0104Y00861D02*
X01046Y00868D01*
X0104Y0086D02*
Y00861D01*
X0132Y0108D02*
X01325Y01074D01*
X0132Y0108D02*
Y01095D01*
X0105Y0277D02*
X01133Y02686D01*
Y02608D02*
Y02686D01*
X01115Y0259D02*
X01133Y02608D01*
X01046Y02229D02*
X0157D01*
X00997Y02128D02*
Y0218D01*
X01046Y02229*
X01269Y02185D02*
X01324Y02129D01*
X01195Y02165D02*
X01249D01*
X01269Y02185*
X012Y0197D02*
Y02024D01*
Y0197D02*
Y01976D01*
X0114Y01965D02*
Y02014D01*
X0131Y0096D02*
X01319Y0097D01*
X01254Y00874D02*
X01255Y00875D01*
X01247Y00874D02*
X01254D01*
X0131Y00966D02*
X01313D01*
X01315Y00965*
X0131Y0096D02*
Y00966D01*
X01315Y009D02*
X0132D01*
X01306Y0079D02*
Y00891D01*
X01315Y009*
X00855Y01425D02*
Y0143D01*
X01228Y01329D02*
X01246Y01311D01*
X01228Y01329D02*
Y01389D01*
X01253Y01333D02*
X01255D01*
X01247Y01339D02*
X01253Y01333D01*
X01247Y01339D02*
Y01389D01*
X01208Y01306D02*
X0121Y01305D01*
X01246Y0131D02*
Y01311D01*
X0128Y01312D02*
Y01315D01*
X01255Y01333D02*
X01269Y01319D01*
X01061Y00893D02*
X0108Y00912D01*
Y0099*
X01665Y01355D02*
Y01405D01*
X01662Y01407D02*
X01665Y01405D01*
X00763Y00721D02*
Y00727D01*
X00761Y00719D02*
X00763Y00721D01*
X00761Y007D02*
Y00719D01*
Y007D02*
X00763Y00698D01*
Y00638D02*
Y00698D01*
X00785Y00697D02*
Y0071D01*
Y00697D02*
X0079Y00691D01*
X00857Y0097D02*
X00861Y00973D01*
X00901*
X00902Y00972*
X0156Y00866D02*
Y00893D01*
X01409Y00952D02*
X015D01*
X0156Y00893*
X01342Y0107D02*
X01409D01*
X01339Y01074D02*
X01342Y0107D01*
X01325Y01074D02*
X01339D01*
X01665Y00225D02*
Y00244D01*
X0167Y00249*
X0081Y01326D02*
Y01329D01*
X00758Y01319D02*
Y01359D01*
X0067Y01438D02*
X0068D01*
X00758Y01359*
X00726Y01414D02*
X0081Y01329D01*
X00726Y01414D02*
Y01424D01*
X0074Y01438*
X00857Y0113D02*
X00861Y01126D01*
X00901*
X00905Y0113*
X01925Y00819D02*
X01944Y00801D01*
X01964*
X01971Y00808D02*
X02173D01*
X01964Y00801D02*
X01971Y00808D01*
X01925Y00819D02*
X01925D01*
X01911Y00833D02*
X01925Y00819D01*
X01911Y00833D02*
Y00834D01*
X01907Y00838D02*
X01911Y00834D01*
X01885Y00838D02*
X01907D01*
X01625Y00834D02*
X01881D01*
X01885Y00838*
X0141Y01327D02*
X01457D01*
X01409Y01326D02*
X0141Y01327D01*
X01457D02*
X01514Y01384D01*
X01481Y01311D02*
X01545Y01375D01*
X01462Y01311D02*
X01481D01*
X01458Y01306D02*
X01462Y01311D01*
X01409Y01306D02*
X01458D01*
X01989Y01525D02*
X02041Y01473D01*
Y01465D02*
Y01473D01*
Y01465D02*
X0206Y01446D01*
Y01375D02*
Y01446D01*
X01995Y01425D02*
X02005D01*
X01978Y01408D02*
X01995Y01425D01*
X0194Y01408D02*
X01978D01*
X01926Y01388D02*
Y01394D01*
X0194Y01408*
X0192Y01382D02*
X01926Y01388D01*
X02005Y01425D02*
X02025Y01404D01*
X0134Y00865D02*
Y00875D01*
X01247Y0079D02*
Y00874D01*
X0106Y00893D02*
X01061D01*
X00999Y01328D02*
X01011Y0134D01*
X01052Y01322D02*
X01065Y0131D01*
X01052Y01322D02*
Y01387D01*
X0103Y0131D02*
X01031Y01311D01*
X00999Y0131D02*
Y01328D01*
X01208Y01306D02*
Y01389D01*
X01188Y01323D02*
Y01389D01*
X01175Y0131D02*
X01188Y01323D01*
X01269Y01317D02*
X01277Y0131D01*
X0128Y01312*
X01269Y01317D02*
Y01319D01*
X01694Y02168D02*
X01712Y0215D01*
X01675Y02168D02*
X01694D01*
X01673Y02166D02*
X01675Y02168D01*
X01663Y02166D02*
X01673D01*
X01712Y02129D02*
Y0215D01*
X01615Y02185D02*
X01628Y02171D01*
X01609Y0219D02*
X0162D01*
X01615Y02185D02*
X0162Y0219D01*
X0157Y02229D02*
X01609Y0219D01*
X01659Y02162D02*
X01663Y02166D01*
X01629Y02162D02*
X01659D01*
X01377Y02177D02*
X01413Y02213D01*
X01585Y0218D02*
Y02182D01*
X01554Y02213D02*
X01585Y02182D01*
X01413Y02213D02*
X01554D01*
X01135Y02019D02*
X0114Y02014D01*
X01325Y02007D02*
X01333Y01999D01*
Y01981D02*
Y01999D01*
X0136Y02003D02*
X01364Y01999D01*
Y01975D02*
Y01999D01*
X01325Y02007D02*
X0133Y02012D01*
X01626Y01981D02*
Y02028D01*
Y01977D02*
Y01981D01*
X0166Y0193D02*
X01665Y01925D01*
X0133Y02012D02*
X01335Y02017D01*
X01515Y01975D02*
Y02018D01*
X01505Y02028D02*
X01515Y02018D01*
X01509Y01975D02*
X01515D01*
X0166Y0193D02*
Y02D01*
X021Y01115D02*
Y01205D01*
X0205Y01255D02*
X021Y01205D01*
X02152Y0111D02*
X02181Y01081D01*
Y00916D02*
Y01081D01*
X02313Y00912D02*
X02319Y00906D01*
X02182Y00912D02*
X02313D01*
X02319Y00791D02*
Y00906D01*
X02095Y0106D02*
X02145D01*
X02089Y01055D02*
X02095Y0106D01*
X01795Y01055D02*
X02089D01*
X02095Y01011D02*
X02145D01*
X02078Y00995D02*
X02095Y01011D01*
X01795Y00995D02*
X02078D01*
X02173Y00903D02*
X02182Y00912D01*
X02173Y00808D02*
Y00903D01*
X0215Y00195D02*
Y00439D01*
X017Y0198D02*
X01747Y02028D01*
X017Y01935D02*
X01703D01*
X017D02*
Y0198D01*
X0166Y02D02*
X01687Y02028D01*
X01526Y0214D02*
X0156D01*
X01566Y01978D02*
Y01981D01*
Y02028*
X01844Y01526D02*
X01888D01*
X0079Y00691D02*
X0079Y00692D01*
X00784Y00686D02*
X0079Y00691D01*
X00726Y00763D02*
X00763Y00727D01*
X0063Y00715D02*
X0064Y00725D01*
X0063Y0068D02*
Y00715D01*
X00726Y00763D02*
X0073Y00767D01*
X0162Y008D02*
Y00828D01*
X01625Y00834*
X01361Y0074D02*
X01367Y00734D01*
Y00685D02*
Y00734D01*
X01361Y00679D02*
X01367Y00685D01*
X00295Y01305D02*
Y01328D01*
Y01156D02*
Y01305D01*
X00245Y01378D02*
X00295Y01328D01*
X00269Y0113D02*
X00295Y01156D01*
X01385Y0135D02*
X01409Y01326D01*
X01385Y0135D02*
Y01408D01*
X01095Y0071D02*
X01108Y00696D01*
X0107Y00791D02*
Y0087D01*
X01095Y0071D02*
X011D01*
X01108Y00696D02*
X01125D01*
X0124Y00681D02*
X01242Y00679D01*
X01361*
X01346Y0074D02*
X01361D01*
X01346D02*
Y0079D01*
X01545Y00971D02*
X01601Y00916D01*
X01548Y00991D02*
X01607Y00932D01*
X0172*
X01723Y00935*
X01601Y00916D02*
X01627D01*
X01485Y02185D02*
X01538D01*
X01543Y0219D02*
X01545D01*
X01538Y02185D02*
X01543Y0219D01*
X01538Y02185D02*
X01538Y02185D01*
X01345Y02177D02*
X01377D01*
X01345Y02132D02*
X01362D01*
X01385Y0211*
X01332Y02145D02*
X01345Y02132D01*
X01332Y02164D02*
X01345Y02177D01*
X01332Y02145D02*
Y02164D01*
X01324Y02095D02*
Y02129D01*
X00961Y02093D02*
X00997Y02128D01*
X01385Y02095D02*
Y0211D01*
X01511Y02101D02*
Y02155D01*
X0204Y0277D02*
X02045Y02775D01*
X02Y0277D02*
X0204D01*
X0136Y02003D02*
X01385Y02028D01*
X01475Y0198D02*
Y01998D01*
X01445Y02028D02*
X01475Y01998D01*
X01324Y02028D02*
X01335Y02017D01*
X00851Y00481D02*
X00885Y00515D01*
X00839Y00481D02*
X00851D01*
X00833Y00475D02*
X00839Y00481D01*
X00833Y00463D02*
Y00475D01*
X00815Y00445D02*
X00833Y00463D01*
X00755Y00451D02*
Y00515D01*
X00269Y0154D02*
X00315Y01586D01*
X00752Y00578D02*
Y00627D01*
X00735Y00561D02*
X00752Y00578D01*
Y00627D02*
X00763Y00638D01*
X00726Y00561D02*
X00735D01*
X00726Y00545D02*
Y00561D01*
Y00545D02*
X00911D01*
X01972Y01878D02*
X02Y0185D01*
X01949Y01878D02*
X01972D01*
X00315Y01586D02*
X005D01*
X00202Y0154D02*
X00269D01*
X00202Y0113D02*
X00269D01*
X01876Y01198D02*
X0189Y01185D01*
X01953*
X01319Y0097D02*
X01349Y0094D01*
X00873Y01389D02*
Y01406D01*
X02135Y00179D02*
X0215Y00195D01*
X02135Y00045D02*
Y00179D01*
X0167Y00249D02*
X01675Y00254D01*
X01714*
X00589Y0068D02*
X0063D01*
X0089Y00787D02*
X00893Y0079D01*
X0089Y00748D02*
Y00787D01*
X00834Y00692D02*
X0089Y00748D01*
X0079Y00692D02*
X00834D01*
X00784Y00633D02*
Y00686D01*
Y00633D02*
X0079Y00627D01*
X00875*
Y00593D02*
Y00627D01*
X00902Y00972D02*
Y00997D01*
Y00972D02*
X00913Y00961D01*
X00812Y0097D02*
X00857D01*
X0081Y00971D02*
X00812Y0097D01*
X00913Y0079D02*
Y00961D01*
X0152Y01407D02*
X01662D01*
X01514Y01401D02*
X0152Y01407D01*
X01514Y01384D02*
Y01401D01*
X01959Y01555D02*
X01989Y01525D01*
X01894Y01555D02*
X01959D01*
X01888Y01549D02*
X01894Y01555D01*
X01888Y01526D02*
Y01549D01*
X01797Y01573D02*
X01844Y01526D01*
X01737Y01573D02*
X01797D01*
X01719Y01555D02*
X01737Y01573D01*
X01685Y01555D02*
X01719D01*
X021Y01115D02*
X02105Y0111D01*
X02145*
X0205Y01365D02*
X0206Y01375D01*
X0205Y01315D02*
Y01365D01*
Y01255D02*
Y01315D01*
X01865Y01382D02*
X0192D01*
X01789D02*
Y01408D01*
X01817*
X01786Y01382D02*
X01789D01*
X02005Y01115D02*
X021D01*
X0197Y0108D02*
X02005Y01115D01*
X0173Y0119D02*
X01765Y01225D01*
X01767*
X0164Y01165D02*
X01675Y012D01*
X01585Y01165D02*
X0164D01*
X01628Y0216D02*
Y02171D01*
X01712Y02129D02*
X01747Y02095D01*
X01596Y02128D02*
X01628Y0216D01*
X01596Y02095D02*
Y02128D01*
X01566Y02095D02*
X01596D01*
X01545Y00971D02*
X01545D01*
X01575Y00995D02*
X01728D01*
X01558Y01011D02*
X01575Y00995D01*
X0168Y00866D02*
X0174D01*
X01409Y00971D02*
X01545D01*
X0156Y00866D02*
X0162D01*
X0104Y0086D02*
X0105Y00849D01*
Y0079D02*
Y00849D01*
X0081Y00445D02*
X00815D01*
X00755Y00515D02*
X00761Y00508D01*
X00655Y01575D02*
X0067Y0156D01*
Y01505D02*
Y0156D01*
X00735Y01575D02*
X0074Y0157D01*
Y01505D02*
Y0157D01*
X01082Y02095D02*
X01143D01*
X01385Y02089D02*
Y02095D01*
X01357Y02062D02*
X01385Y02089D01*
X013Y02062D02*
X01357D01*
X01293Y02068D02*
X013Y02062D01*
X01293Y02068D02*
Y02095D01*
X01264D02*
X01293D01*
X0105Y01389D02*
X01052Y01387D01*
X01031Y01311D02*
Y01389D01*
X0107Y00791D02*
X0107Y0079D01*
X01445Y02095D02*
Y02155D01*
X01511D02*
X01526Y0214D01*
X01022Y01981D02*
Y02028D01*
Y01973D02*
Y01981D01*
X01511Y02155D02*
X01512D01*
X01409Y00991D02*
X01548D01*
X01409Y01011D02*
X01558D01*
X01409Y0103D02*
X0156D01*
X01585Y01055*
X01728*
X0036Y0015D02*
X00465D01*
X0097Y00627D02*
X01122D01*
X01125Y0063*
X00935Y00593D02*
X00939D01*
X012Y01976D02*
X01201Y01978D01*
X01135Y02019D02*
X01143Y02028D01*
X012Y02024D02*
X01203Y02028D01*
X01264D02*
X01324D01*
X01953Y01185D02*
X01992Y01224D01*
X02009*
X02015Y0123*
Y01247*
X02017Y01249*
Y01342*
X02025Y0135*
Y01404*
X0058Y00688D02*
X00589Y0068D01*
X00281Y00437D02*
X00299Y00456D01*
X01082Y01981D02*
Y02028D01*
Y01973D02*
Y01981D01*
X02145Y0111D02*
X02152D01*
X01445Y02155D02*
X01455D01*
Y02154D02*
Y02155D01*
Y02154D02*
X01485Y02185D01*
X00951Y00504D02*
Y00515D01*
X00911Y00545D02*
X00951Y00504D01*
X00939Y00593D02*
Y00595D01*
X0097Y00627*
X01665Y00866D02*
X0168D01*
X01665D02*
Y00878D01*
X01627Y00916D02*
X01665Y00878D01*
X01539Y01149D02*
X01569D01*
X01585Y01165*
X01628Y0216D02*
X01629Y02162D01*
X00855Y01425D02*
X00873Y01406D01*
X01346Y0079D02*
Y00858D01*
X0134Y00865D02*
X01346Y00858D01*
X01315Y00965D02*
X0132Y0097D01*
X01826Y01382D02*
Y01399D01*
X01817Y01408D02*
X01826Y01399D01*
X0132Y0097D02*
X01357Y00932D01*
X01409*
X0073Y00767D02*
Y00873D01*
X0081*
X00815Y0113D02*
X00857D01*
X00873Y01238D02*
Y01389D01*
X0081Y01227D02*
X00862D01*
X00873Y01238*
X00758Y01319D02*
X00771Y01306D01*
X0081*
X00972Y01312D02*
Y01389D01*
X01011Y0134D02*
Y01389D01*
G54D34*
X00315Y0182D02*
X00317D01*
X00357Y0186*
X00315Y01765D02*
Y0182D01*
Y01765D02*
X00315Y01764D01*
X01431Y00811D02*
Y00825D01*
X01431Y0081D02*
X01431Y00811D01*
X00715Y00385D02*
X0088D01*
X00715D02*
Y00422D01*
X00725Y00432*
X0144Y00655D02*
Y00665D01*
X01431Y00646D02*
X0144Y00655D01*
X00316Y02253D02*
Y02286D01*
Y02253D02*
X00323Y02246D01*
X00316Y02286D02*
X00322Y02292D01*
X00323Y02238D02*
Y02246D01*
X00322Y02292D02*
Y02298D01*
X00307Y02313D02*
X00322Y02298D01*
X00307Y02313D02*
Y02336D01*
X0031Y02224D02*
X00323Y02238D01*
X0031Y02045D02*
Y02224D01*
X01935Y00843D02*
X0194Y00848D01*
X01925Y00863D02*
X0194Y00848D01*
X01885Y0069D02*
Y0072D01*
X0185Y0069D02*
X01885D01*
X01815D02*
X0185D01*
Y0072*
X01815Y0069D02*
Y0072D01*
X01685Y0214D02*
Y02143D01*
X01686Y02141*
X0099Y019D02*
X00995D01*
X0089Y02D02*
X0099Y019D01*
X00995Y01895D02*
Y019D01*
Y01895D02*
X0102Y0187D01*
X01656Y02141D02*
X01686D01*
X01626Y02111D02*
X01656Y02141D01*
X01626Y02095D02*
Y02111D01*
X01815Y0072D02*
X0185D01*
X01885*
X01431Y00605D02*
Y00646D01*
X01466Y00844D02*
Y00846D01*
X01486Y00866*
X01491*
X00712Y00445D02*
X00725Y00432D01*
X0088Y00385D02*
X0091Y00414D01*
X0094*
X01008Y00482*
Y00485*
X01017Y00494*
X01079*
X01115Y0053*
X01162*
X01167Y00525*
X0018Y00808D02*
Y01056D01*
X00138Y01097D02*
X0018Y01056D01*
X00138Y01097D02*
Y01201D01*
X00155Y01218*
X00172*
X0018D02*
X00225D01*
X0025Y01243*
X00149Y01248D02*
X0018Y01218D01*
X00149Y01248D02*
Y01487D01*
X00115Y01522D02*
X00149Y01487D01*
X00115Y01522D02*
Y01625D01*
X00118Y01628*
X00172*
X0018D02*
X00315Y01764D01*
X0018Y02033D02*
Y02039D01*
X00357Y0186D02*
X00383D01*
X0038Y01863D02*
Y01933D01*
Y01863D02*
X00383Y0186D01*
X00307Y02336D02*
X0031Y02339D01*
Y02435*
X0018Y02438D02*
X00306D01*
X02105Y01465D02*
X0217Y014D01*
X0019Y004D02*
X00205D01*
X0018Y02039D02*
X00304D01*
X01431Y0081D02*
X01431Y0081D01*
X0217Y0137D02*
Y014D01*
X00294Y0245D02*
X0031Y02435D01*
X00294Y0245D02*
X00445D01*
X01431Y0081D02*
X01466Y00844D01*
X0102Y0187D02*
X01078D01*
X00835Y02037D02*
X0089D01*
Y02D02*
Y02037D01*
X0012Y0082D02*
X00168D01*
X0018Y00808*
Y00398D02*
X00203D01*
X00205Y004*
X02241Y0007D02*
Y00195D01*
X00875Y00176D02*
Y0038D01*
X0088Y00385*
G54D35*
X0025Y01855D02*
X00275D01*
X00245Y0185D02*
X0025Y01855D01*
X005Y01445D02*
X00505Y0144D01*
X005Y01445D02*
Y0152D01*
X0018Y01984D02*
X00239D01*
X00245Y01978*
Y0185D02*
Y01911D01*
G54D36*
X02234Y00239D02*
X02241D01*
X02212Y00288D02*
X02239Y00314D01*
Y00496*
X02212Y00261D02*
X02234Y00239D01*
X02212Y00261D02*
Y00288D01*
X02241Y00195D02*
Y00239D01*
X02255Y0069D02*
X02285D01*
X02105Y02821D02*
X0214D01*
X0207D02*
X02105D01*
X0123Y02875D02*
X0126D01*
X012D02*
X0123D01*
X0117D02*
X012D01*
X0114D02*
X0117D01*
X01065D02*
X0114D01*
X02315Y00585D02*
Y00615D01*
X02181Y00544D02*
X02191D01*
X02169Y00556D02*
X02181Y00544D01*
X02169Y00556D02*
Y00623D01*
X0221Y00664*
X0223*
X02255Y0069*
X0229Y0051D02*
Y0054D01*
X02315Y00495D02*
Y00525D01*
X0229Y0057D02*
Y006D01*
Y0054D02*
Y0057D01*
X02315Y00525D02*
Y00555D01*
Y00585*
X018Y00866D02*
X01803Y00863D01*
X02145Y0096D02*
Y00962D01*
X01803Y00863D02*
X01925D01*
X02048*
X02085Y009D02*
X02145Y0096D01*
X02048Y00863D02*
X02085Y009D01*
X02191Y00544D02*
X02239Y00496D01*
X02275Y00485D02*
X02285D01*
X023Y0047*
X02305*
X0229Y0051D02*
X02305Y00495D01*
Y0047D02*
Y00495D01*
G54D37*
X01586Y0288D02*
X0165D01*
X01675D02*
X0168Y02885D01*
X0154Y0288D02*
X01586D01*
X0165D02*
X01675D01*
X01125Y0016D02*
X01246D01*
X01367*
X01488*
X0161*
G54D38*
X02255Y0228D02*
X02264D01*
X02023Y02285D02*
X02269D01*
X0185Y02458D02*
X02023Y02285D01*
X0085Y02835D02*
X00857Y02827D01*
X0095Y0277D02*
X0097D01*
X01425Y0278D02*
X01435Y0277D01*
X01315D02*
X01415D01*
X019D02*
X0192D01*
X018D02*
X019D01*
X0175D02*
X018D01*
X017D02*
X0175D01*
X01385Y0282D02*
Y0285D01*
X01265Y0277D02*
X01315D01*
X01215D02*
X01265D01*
X0085D02*
X00915D01*
X008D02*
X0085D01*
X00769D02*
X008D01*
X00759Y02779D02*
X00769Y0277D01*
G54D39*
X009Y02458D02*
X01365D01*
X0185*
X0188Y02825D02*
Y02858D01*
X01915Y02892*
Y0294*
X01385Y0285D02*
Y0294D01*
X0085Y02835D02*
Y0294D01*
X00437Y0272D02*
Y02738D01*
X0037Y0272D02*
X00437D01*
X00365Y0294D02*
X0037Y0272D01*
X00155D02*
Y0294D01*
X00437Y02738D02*
X00561D01*
G54D40*
X0049Y00539D02*
X00504Y00525D01*
Y00276D02*
Y00525D01*
X0053Y00253D02*
Y00525D01*
X00496Y00218D02*
X0053Y00253D01*
X00496Y00268D02*
X00504Y00276D01*
X00472Y00268D02*
X00496D01*
X00472Y00255D02*
Y00268D01*
X00465Y00248D02*
X00472Y00255D01*
Y00218D02*
X00496D01*
X00472Y00206D02*
Y00218D01*
X00465Y00199D02*
X00472Y00206D01*
X0053Y00525D02*
X00545Y00539D01*
G54D41*
X00841Y02458D02*
X009D01*
G54D42*
X00561Y02738D02*
X00581Y02718D01*
X0061*
X00688Y0264*
Y02611D02*
Y0264D01*
Y02611D02*
X00841Y02458D01*
G54D43*
X00075Y0224D03*
Y0254D03*
Y01835D03*
Y02135D03*
Y0143D03*
Y0173D03*
Y0102D03*
Y0132D03*
Y0061D03*
Y0091D03*
Y002D03*
Y005D03*
X02229Y01934D03*
Y01634D03*
X0073Y02139D03*
Y01791D03*
X02249Y0086D03*
Y01208D03*
X0036Y00399D03*
Y00051D03*
X01818Y00054D03*
Y00501D03*
G54D44*
X01065Y0042D03*
X01413D03*
X0061Y0034D03*
X00958D03*
G54D45*
X00394Y02075D03*
Y02529D03*
G54D46*
X01014Y00126D03*
X0056D03*
G54D47*
X00065Y0317D03*
X0226Y-00075D03*
Y0317D03*
X00065Y-00075D03*
G54D48*
X0037Y0272D03*
Y0294D03*
X00155D03*
Y0272D03*
X0085Y0294D03*
X01385D03*
X01915D03*
G54D49*
X02265Y02833D03*
Y024D03*
X00555Y03018D03*
Y02585D03*
G54D50*
X01125Y0006D03*
X01246D03*
X01367D03*
X01488D03*
X0161D03*
G54D51*
X01125Y0016D03*
Y0026D03*
X01246Y0016D03*
Y0026D03*
X01367Y0016D03*
Y0026D03*
X01488Y0016D03*
Y0026D03*
X0161Y0016D03*
Y0026D03*
G54D52*
X00441Y00735D03*
Y00688D03*
Y00641D03*
Y00594D03*
X00488Y00735D03*
Y00688D03*
Y00641D03*
Y00594D03*
X00535Y00735D03*
Y00688D03*
Y00641D03*
Y00594D03*
X00582Y00735D03*
Y00688D03*
Y00641D03*
Y00594D03*
G54D53*
X0161Y0262D03*
X01308Y01486D03*
X01875Y0094D03*
X01023Y00879D03*
X0056Y0078D03*
X00315Y0182D03*
X00275Y01855D03*
X0045Y00887D03*
X00555Y0104D03*
X00366Y00753D03*
X0129Y0099D03*
X0132Y01095D03*
X01115Y0259D03*
X01025Y02175D03*
X0121Y02135D03*
X01185Y022D03*
X01195Y02165D03*
X012Y0197D03*
X0114Y01965D03*
X01196Y01901D03*
X0112Y0217D03*
X01457Y00747D03*
X01431Y00825D03*
X01275Y0085D03*
X01255Y00875D03*
X0131Y00966D03*
X0132Y009D03*
X0122Y00975D03*
Y0087D03*
X0119Y00885D03*
X01195Y0095D03*
X0116Y0087D03*
X0111D03*
X0094Y012D03*
X0146Y0144D03*
X01515Y01455D03*
X0091D03*
X01005Y01465D03*
X0104Y0145D03*
X01346Y01449D03*
X01315Y01455D03*
X01425Y01495D03*
X01489Y01475D03*
X0126Y01479D03*
X01235Y0145D03*
X01204Y0145D03*
X01275Y0145D03*
X0108Y01484D03*
X011Y0146D03*
X00855Y0143D03*
X00785Y01415D03*
X00805Y01465D03*
X0121Y01305D03*
X01246Y0131D03*
X0128Y01315D03*
X01295Y01265D03*
X01324Y01247D03*
X0166Y0144D03*
X01635Y01245D03*
X0108Y0099D03*
X0032Y0089D03*
X0037Y0097D03*
X02245Y00275D03*
X01665Y01355D03*
X00785Y0071D03*
X0078Y0079D03*
X01765Y0111D03*
X01815Y0179D03*
X00715Y00385D03*
X0079Y00585D03*
X00635Y0055D03*
X00885Y0095D03*
X01515Y00905D03*
X01625Y00965D03*
X01735Y00735D03*
X0158Y0082D03*
X0144Y00665D03*
X01665Y00225D03*
X02285Y0069D03*
X00285Y0226D03*
X00345Y02265D03*
X0034Y02325D03*
X0031Y02045D03*
X00695Y0139D03*
X0088Y0115D03*
X00715Y0103D03*
X0073Y0106D03*
X00645Y0078D03*
X0028Y0083D03*
X00295Y0073D03*
X00125Y00735D03*
X00295Y0057D03*
X00385Y00555D03*
Y00595D03*
X0033Y0046D03*
X00095Y00395D03*
X0012Y00345D03*
X0022Y0012D03*
X00165D03*
X0073Y0006D03*
X0082Y00285D03*
X00835Y0005D03*
X01955Y00825D03*
X01935Y009D03*
Y00843D03*
X01775Y0081D03*
X01895Y00815D03*
X0187Y009D03*
X01885Y0069D03*
X0185D03*
X01815D03*
X01952Y01378D03*
X02065Y01475D03*
X02005Y01425D03*
X01005Y01595D03*
X01329Y0105D03*
X0134Y00875D03*
X00955Y00865D03*
X01065Y0131D03*
X0103D03*
X00999D03*
X00965D03*
X0133Y01195D03*
X01265Y0121D03*
X01305Y0115D03*
X01175Y0131D03*
X01685Y0214D03*
X0162Y0219D03*
X0166D03*
X01585Y0218D03*
X00995Y019D03*
X013Y01945D03*
X01333Y01981D03*
X0133Y01905D03*
X01364Y01975D03*
X01294Y01985D03*
X01395Y01985D03*
X0144Y0194D03*
X01536Y01908D03*
X01626Y01981D03*
X01665Y01925D03*
X0143Y019D03*
X01515Y01975D03*
X01625Y0284D03*
X02055Y01785D03*
X022Y0278D03*
X0219Y02815D03*
X0214Y02821D03*
X02175Y0218D03*
X0045Y01825D03*
X01586Y0288D03*
X0154D03*
X0162Y02887D03*
X0165Y0288D03*
X00605Y02281D03*
X00635Y02365D03*
Y0233D03*
X0207Y02821D03*
X02105D03*
X0126Y02875D03*
X0123D03*
X012D03*
X0117D03*
X0114D03*
X017Y01935D03*
X0156Y0214D03*
X01566Y01981D03*
X02315Y00585D03*
Y00615D03*
X0148Y0127D03*
X0064Y00725D03*
X0069Y01155D03*
X01865Y01105D03*
X01805Y0116D03*
X0107Y0087D03*
X011Y0071D03*
X01545Y0219D03*
X02045Y02775D03*
X01475Y0198D03*
X0123Y019D03*
X0116Y02675D03*
X0156Y02775D03*
X0111Y02655D03*
X0177Y0161D03*
X02Y0185D03*
X00295Y019D03*
X00995Y00895D03*
X01585Y00425D03*
X0154D03*
X0053Y0088D03*
X02135Y00045D03*
X00905Y0113D03*
X00902Y00997D03*
X0197Y0108D03*
X0173Y0119D03*
X0063Y023D03*
X01555Y01265D03*
X01065Y02875D03*
X0168Y02885D03*
X00755Y00275D03*
X0169Y0181D03*
X01849Y01784D03*
X0036Y0015D03*
X01022Y01981D03*
X00236Y00796D03*
X01555Y0123D03*
X0012Y0082D03*
X02035Y01145D03*
X0185Y0072D03*
X01115Y0053D03*
X01329Y01615D03*
X01534D03*
X01125Y01666D03*
Y01615D03*
X01176D03*
X01227D03*
X01278D03*
X01381D03*
X01432D03*
X01483D03*
X01585D03*
X01637D03*
X01176Y01666D03*
X01227D03*
X01278D03*
X01329D03*
X01381D03*
X01432D03*
X01483D03*
X01534D03*
X01585D03*
X01637D03*
X01125Y01717D03*
X01176D03*
X01227D03*
X01278D03*
X01329D03*
X01381D03*
X01432D03*
X01483D03*
X01534D03*
X01585D03*
X01637D03*
X01125Y01768D03*
X01176D03*
X01227D03*
X01278D03*
X01329D03*
X01381D03*
X01432D03*
X01483D03*
X01534D03*
X01585D03*
X01637D03*
X0052Y0193D03*
X00435Y00525D03*
X01082Y01981D03*
X01885Y0072D03*
X01815D03*
X01945Y01785D03*
X019D03*
X0169Y0074D03*
X0229Y006D03*
X02315Y00495D03*
X0229Y0054D03*
Y0051D03*
X02315Y00525D03*
X0229Y0057D03*
X02315Y00555D03*
X01005Y00435D03*
X00135Y00395D03*
X00205Y004D03*
X02085Y009D03*
X0217Y0137D03*
X0049Y00539D03*
X00545D03*
X02275Y00485D03*
X02305Y0047D03*
G54D54*
X02255Y0228D03*
M02*