%FSTAX23Y23*%
%MOIN*%
%SFA1B1*%

%IPPOS*%
%ADD10R,0.039370X0.043307*%
%ADD11R,0.043307X0.039370*%
%ADD12R,0.074803X0.106299*%
%ADD14R,0.106299X0.074803*%
%ADD24R,0.059055X0.051181*%
%ADD25R,0.029527X0.089960*%
%ADD26R,0.397440X0.421062*%
%ADD31R,0.137795X0.098425*%
%ADD32R,0.039370X0.078740*%
%ADD33R,0.102362X0.074803*%
%ADD34C,0.118110*%
%ADD35C,0.039370*%
%ADD36C,0.011811*%
%ADD37C,0.009843*%
%ADD38C,0.027559*%
%ADD39C,0.019685*%
%ADD40C,0.196850*%
%ADD41C,0.157480*%
%ADD43C,0.015748*%
%ADD50C,0.196850*%
%ADD51C,0.150000*%
%ADD52C,0.059055*%
%ADD53R,0.059055X0.059055*%
%ADD54C,0.137795*%
%ADD55C,0.025000*%
%ADD56C,0.060000*%
%ADD57C,0.040000*%
%ADD58C,0.027165*%
%ADD59C,0.050000*%
%ADD60C,0.023000*%
%ADD61R,0.177165X0.177165*%
%ADD62O,0.025591X0.009843*%
%ADD63O,0.009843X0.025591*%
%ADD64O,0.098425X0.027559*%
%ADD65R,0.078740X0.078740*%
%ADD66R,0.196850X0.078740*%
%ADD67R,0.344488X0.204724*%
%ADD68R,0.551180X0.200787*%
%ADD69R,0.011811X0.061024*%
%ADD70C,0.024803*%
%ADD71O,0.027559X0.098425*%
%ADD72C,0.009055*%
%ADD73C,0.007874*%
%ADD74R,0.185000X0.180000*%
%ADD75R,0.135000X0.135000*%
%ADD76R,0.130000X0.210000*%
%ADD77R,0.145000X0.055000*%
%ADD78R,0.484999X0.130000*%
%LNninja_ecu_pcb-1*%
%LPD*%
G36*
X01991Y00955D02*
X01992Y00948D01*
X01996Y00942*
X02002Y00937*
X02008Y00933*
X02015Y00931*
X0209*
X02096Y00933*
X02102Y00937*
X02137Y00971*
X02204*
X02206Y00967*
X02172Y00932*
X02168Y00926*
X02166Y0092*
Y00816*
X02162Y00814*
X02157Y00819*
X02151Y00823*
X02144Y00824*
X0202*
X02013Y00823*
X02007Y00819*
X02003Y00813*
X02002Y00806*
Y00805*
X02003Y00798*
X02007Y00792*
X02013Y00788*
X0202Y00786*
X02027Y00788*
X02027Y00788*
X02084*
Y00772*
X02069Y00758*
X01898*
X01893Y00757*
X01888Y0076*
Y00787*
X01892Y0079*
X01895Y0079*
X01904Y00792*
X01912Y00797*
X01918Y00805*
X0192Y00815*
X01919Y00818*
X01923Y00821*
X01925Y0082*
X01931Y00819*
X01932Y00815*
X01937Y00807*
X01945Y00802*
X01955Y008*
X01964Y00802*
X01972Y00807*
X01977Y00815*
X01978Y00818*
X0198Y00821*
X01982Y0083*
Y00865*
X0198Y00873*
X01975Y0088*
X01968Y00885*
X01961Y00886*
X01959Y00889*
X01958Y00892*
X01959Y009*
X01957Y00909*
X01957Y0091*
Y00939*
X01955Y00945*
Y01001*
X01946*
Y01133*
X01991*
Y00955*
G37*
G36*
X01452Y00981D02*
X01398D01*
Y00918*
X01408*
Y0087*
X01403Y00866*
X01399Y00867*
X01367*
X01364Y00871*
X01364Y00875*
X01362Y00884*
X01357Y00892*
X01349Y00897*
X01344Y00898*
X01344Y009*
X01342Y00909*
X01337Y00917*
X01334Y00919*
X01334Y00925*
X01341Y00931*
X01365*
X01371Y00933*
X01377Y00937*
X01381Y00943*
X01383Y0095*
X01381Y00956*
X01377Y00962*
X01371Y00966*
X01365Y00968*
X01348*
X01346Y00972*
X01367Y00992*
X01452*
Y00981*
G37*
G36*
X0179Y00785D02*
Y0074D01*
X01792*
Y00731*
X01792Y0073*
X0179Y0072*
X01792Y00711*
X01792Y00709*
Y007*
X01792Y00699*
X0179Y0069*
X01785Y00687*
X01773*
X01772Y00687*
X01766Y00689*
X0176Y0069*
X01755Y0069*
X01739Y00706*
X01741Y00711*
X01744Y00712*
X01752Y00717*
X01757Y00725*
X01759Y00735*
X01757Y00744*
X01752Y00752*
X01749Y00754*
X0175Y00759*
X01766*
Y00782*
X0177Y00786*
X01775Y00785*
X01784Y00787*
X01785Y00787*
X0179Y00785*
G37*
G36*
X00474Y00651D02*
X00471Y00648D01*
X0047Y00641*
X00471Y00634*
X00475Y00628*
X00481Y00624*
X00488Y00623*
X00491Y0062*
Y00613*
X00453Y00575*
X00438*
X00434Y00574*
X00429Y00578*
Y00656*
X00471*
X00474Y00651*
G37*
G36*
X00431Y00814D02*
X00477Y00767D01*
X00483Y00764*
X0049Y00762*
X00542*
X00542Y00762*
X0055Y00757*
X0056Y00755*
X00569Y00757*
X00572Y00753*
X00509Y00689*
X00507Y00691*
X00503Y00692*
X00503Y00695*
X00499Y00701*
X0042Y00779*
Y00814*
X00423Y00816*
X00429Y00817*
X00431Y00814*
G37*
G36*
X00135Y00953D02*
X00138Y00949D01*
X00138Y00948*
X00136Y00941*
X00138Y00935*
X00142Y00929*
X00158Y00913*
X00156Y00908*
X00123*
Y00892*
X0011*
X00104Y0089*
X00098Y00887*
X00086Y00874*
X00081Y00876*
Y00916*
Y00932*
X00106*
X00112Y00934*
X00118Y00937*
X00134Y00953*
X00135Y00953*
G37*
G36*
X01455Y01299D02*
X01458Y01295D01*
X01461Y01293*
X01462Y01287*
X01462Y01287*
X01457Y01279*
X01455Y0127*
X01457Y0126*
X01462Y01252*
X0147Y01247*
X0148Y01245*
X0148Y01245*
Y01177*
X01458*
Y01122*
X01447Y01111*
X01443Y01106*
X01442Y01099*
Y01035*
X01443Y01032*
X01439Y01027*
X0136*
X01353Y01025*
X01347Y01022*
X01319Y00994*
X01314Y00995*
X01313Y01*
X01308Y01008*
X013Y01013*
X0129Y01015*
X01285Y01014*
X01282Y01017*
Y01201*
X01286Y01205*
X01302*
X01306Y012*
X01305Y01195*
X01307Y01185*
X01312Y01177*
X0132Y01172*
X0133Y0117*
X01339Y01172*
X01347Y01177*
X01352Y01185*
X01354Y01195*
X01352Y01204*
X01348Y01211*
X01361Y01224*
X01361Y01225*
X0138*
X01386Y01226*
X01392Y0123*
X01396Y01236*
X01398Y01243*
X01396Y01249*
X01393Y01255*
X01393Y01257*
X01395Y0126*
X01404*
X0141Y01261*
X01416Y01265*
X0145Y01299*
X01455*
G37*
G36*
X02049Y01358D02*
X02057Y01351D01*
X02055Y01346*
X01998*
Y01279*
X02061*
Y0129*
X02074*
Y01224*
X0214*
X02142Y0122*
X02137Y01215*
X0206*
Y01181*
X02049Y0117*
X02035*
X02033Y01172*
Y01238*
X02031Y01245*
X02027Y01251*
X02011Y01267*
X02005Y01271*
X01998Y01273*
X01979*
X01929Y01322*
Y01352*
X01933Y01353*
X01939Y01357*
X0194Y01359*
X01985*
X01992Y01361*
X01993Y01361*
X0204*
X02046Y01363*
X02046Y01363*
X02049Y01358*
G37*
G36*
X02277Y01037D02*
X02247Y01008D01*
X0213*
X02123Y01006*
X02117Y01002*
X02082Y00968*
X02027*
Y01115*
X02032Y01119*
X02035Y01119*
X0206*
X0206Y01119*
Y01116*
X02189*
Y01194*
X02203Y01207*
X02207Y01213*
X02209Y01219*
X0221Y01224*
X02277*
Y01037*
G37*
G36*
X00641Y01131D02*
X00569Y01059D01*
X00564Y01062*
X00555Y01064*
X00545Y01062*
X00537Y01057*
X00532Y01049*
X0053Y0104*
X00532Y0103*
X00537Y01022*
X00545Y01017*
X00555Y01015*
X00558Y01015*
X00561Y01012*
Y01004*
X00498*
Y01032*
X00602Y01136*
X0064*
X00641Y01131*
G37*
G36*
X01902Y01119D02*
Y01001D01*
X01892*
Y00918*
X01887Y00916*
X01887Y00917*
X01879Y00922*
X01878Y00923*
X01865Y00935*
Y01001*
X01855*
Y01076*
X0186Y01079*
X01865Y01079*
X01871Y0108*
X01877Y01082*
X01883Y01086*
X01887Y01092*
X01889Y01098*
X0189Y01105*
Y01114*
X01897Y01121*
X01902Y01119*
G37*
G36*
X01068Y00244D02*
X01073Y00241D01*
X01074Y00235*
X01069Y0023*
X0096*
X00953Y00229*
X00947Y00225*
X00922Y002*
X00917Y00202*
Y00249*
X00838*
X0083Y00257*
X00831Y00263*
X00837Y00267*
X00842Y00275*
X00844Y00285*
X00842Y00294*
X00837Y00302*
X00829Y00307*
X0082Y00309*
X0081Y00307*
X00802Y00302*
X00798Y00296*
X00792Y00295*
X00776Y00311*
X00771Y00314*
X00764Y00316*
X00752*
X00728Y00339*
X0073Y00344*
X00784*
X00787Y00345*
X00792Y00341*
Y0032*
X00878*
X00928Y0027*
Y00245*
X00991*
Y00312*
X00937*
X00917Y00331*
Y00388*
X00922Y0039*
X01068Y00244*
G37*
G36*
X02076Y006D02*
X02106D01*
Y00562*
X0209*
X02085Y00561*
X02081Y00558*
X02078Y00554*
X02077Y0055*
Y00415*
X02078Y0041*
X02081Y00406*
X02085Y00403*
X0209Y00402*
X02225*
X02229Y00403*
X02233Y00406*
X02233Y00406*
X02258*
Y00396*
Y00391*
Y00359*
X02234Y00335*
X02233Y00336*
X02229Y00338*
X02227Y00343*
X02223Y00349*
X02217Y00353*
X02211Y00355*
X02205Y00356*
X02176*
X02175Y00357*
X02032*
Y0055*
X02031Y00554*
X02028Y00558*
X02024Y00561*
X0202Y00562*
X01977*
Y00641*
X01977Y00642*
X01979Y00648*
X0198Y00655*
X01979Y00661*
X01977Y00667*
X01973Y00673*
X01963Y00683*
X01957Y00687*
X01951Y00689*
X01945Y0069*
X01938Y00689*
X01932Y00687*
X01927Y00683*
X01912*
X01909Y00687*
X01909Y0069*
X01907Y00699*
X01907Y007*
Y00709*
X01907Y00711*
X01908Y00713*
X02076*
Y006*
G37*
G36*
X00336Y00155D02*
X00335Y0015D01*
X00337Y0014*
X00342Y00132*
X0035Y00127*
X00355Y00126*
X00357Y0012*
X00347Y0011*
X00343Y00104*
X00341Y00098*
Y0007*
X00337Y00066*
X00281*
X00281Y00066*
X00277Y00072*
X00272Y00076*
X00272Y00076*
X00273Y00081*
X00296*
Y00122*
X00331Y00157*
X00336Y00155*
G37*
G36*
X02184Y00172D02*
X02189Y00165D01*
X02192Y00161*
Y00095*
X02194Y00086*
X02199Y00079*
X02206Y00074*
X02215Y00072*
X02219Y00073*
X02221Y00069*
X02189Y00036*
X02162*
X02158Y0004*
X02159Y00045*
X02157Y00054*
X02155Y00058*
X02157Y00063*
X02181*
Y00126*
X0217*
Y00162*
X02172Y00163*
X02177Y00171*
X02178Y00176*
X02183*
X02184Y00172*
G37*
G36*
X00485Y00211D02*
X00555D01*
X00562Y00204*
Y00179*
X00564Y00172*
X00567Y00167*
X00613Y00121*
Y00085*
X00676*
Y00122*
X00681Y00124*
X00712Y00092*
Y00077*
X00712Y00077*
X00707Y00069*
X00705Y0006*
X00706Y00055*
X00701Y00052*
X00694Y00053*
X00653*
X00651Y00054*
X00645Y00056*
X00579*
X00559Y00075*
X00553Y00079*
X00546Y00081*
X00378*
Y0009*
X00467Y0018*
X00471Y00186*
X00473Y00193*
X00471Y00199*
X00467Y00205*
X00461Y00209*
X00455Y00211*
X00448Y00209*
X00442Y00205*
X00428Y00192*
X00424Y00195*
Y00226*
X00485*
Y00211*
G37*
G36*
X00376Y00385D02*
Y00323D01*
X00407*
X00409Y00318*
X00387Y00297*
X00385Y00293*
X00252*
X0025Y00298*
X00321Y00368*
X00326Y00366*
Y00355*
X00327Y00348*
X00331Y00342*
X00336Y00339*
X00343Y00337*
X00349Y00339*
X00355Y00342*
X00358Y00348*
X0036Y00355*
Y00377*
X00364Y0038*
X00372Y00387*
X00376Y00385*
G37*
G36*
X00289Y00507D02*
Y00457D01*
X00286Y00453*
X00285*
X00223*
Y00424*
X00219Y00421*
X00218Y00422*
X00215Y00424*
X00217Y0043*
Y00468*
X00216Y0047*
X00218Y00472*
X00222Y00477*
X00223Y00484*
X00222Y0049*
X00221Y00492*
X00232Y00503*
X00236Y00501*
Y00486*
X00238Y0048*
X00242Y00474*
X00248Y0047*
X00255Y00468*
X00261Y0047*
X00267Y00474*
X00271Y0048*
X00273Y00486*
Y00511*
X00285*
X00289Y00507*
G37*
G36*
X01662Y00694D02*
X01669Y00689D01*
X01677Y00688*
X01695*
X0173Y00653*
X0173Y00653*
X01732Y00647*
X01736Y00641*
X01742Y00637*
X01748Y00635*
X01755Y00634*
X01761Y00635*
X01767Y00637*
X01773Y00641*
X01774Y00642*
X01782*
X01784Y00641*
X01793Y00639*
X01826*
X0183Y0064*
X01834*
X01838Y00639*
X01861*
X01865Y0064*
X01869*
X01873Y00639*
X01932*
Y00562*
X0189*
X01885Y00561*
X01881Y00558*
X01878Y00554*
X01874Y00556*
X0187Y00557*
X01727*
Y0056*
X01725Y00568*
X0172Y00575*
X01623Y00673*
Y00706*
X01649*
X01662Y00694*
G37*
G36*
X01182Y00616D02*
X01188Y00612D01*
X01194Y0061*
X01201Y00609*
X01271*
X01278Y0061*
X01282Y00611*
X01287Y00609*
Y00454*
X01115Y00282*
X01093*
X00937Y00438*
X0093Y00442*
X00922Y00444*
X00755*
X00752Y00449*
X00744Y00456*
X00746Y00461*
X00771*
Y00519*
X0091*
X00941Y00489*
Y00448*
X00979*
X00981Y00443*
X0098Y00435*
X00982Y00425*
X00987Y00417*
X00995Y00412*
X01005Y0041*
X01014Y00412*
X01022Y00417*
X01027Y00425*
X01029Y00435*
X01029Y00435*
X01042Y00448*
X01075*
Y00508*
Y00549*
X01143Y00617*
X01181*
X01182Y00616*
G37*
G36*
X01676Y00556D02*
X01676Y00553D01*
X01673Y00549*
X01672Y00545*
Y00402*
X01649*
Y00414*
X01612*
X01608Y00419*
X01609Y00425*
X01607Y00434*
X01602Y00442*
X01594Y00447*
X01585Y00449*
X01575Y00447*
X01567Y00442*
X01565Y00438*
X0156*
X01557Y00442*
X01549Y00447*
X0154Y00449*
X0153Y00447*
X01522Y00442*
X01517Y00434*
X01515Y00425*
X01517Y00415*
X0152Y00411*
Y0034*
X01518Y00337*
X01517Y00329*
Y00191*
X01272*
X01267Y00196*
X01257Y002*
X01246Y00201*
X01235Y002*
X01225Y00196*
X01216Y00189*
X0121Y0018*
X01205Y0017*
X01204Y0016*
X01205Y00149*
X0121Y00139*
X01216Y0013*
X01225Y00123*
X01235Y00119*
X01246Y00118*
X01257Y00119*
X01267Y00123*
X01272Y00128*
X01583*
X01589Y00123*
X01599Y00119*
X0161Y00118*
X0162Y00119*
X0163Y00123*
X01639Y0013*
X01646Y00139*
X0165Y00149*
X01651Y0016*
X0165Y0017*
X01646Y0018*
X01639Y00189*
X0163Y00196*
X0162Y002*
X0161Y00201*
X01599Y002*
X01589Y00196*
X01586Y00193*
X01581Y00196*
Y00224*
X01585Y00226*
X01589Y00223*
X01599Y00219*
X0161Y00218*
X0162Y00219*
X0163Y00223*
X01635Y00227*
X0164Y00225*
X01642Y00215*
X01647Y00207*
X01655Y00202*
X01665Y002*
X01672Y00201*
X01677Y00198*
Y00165*
X01678Y0016*
X01681Y00156*
X01685Y00153*
X0169Y00152*
X01796*
X01872Y00076*
X01878Y00072*
X01884Y0007*
X01891Y00069*
X0194*
X01946Y0007*
X01952Y00072*
X01958Y00076*
X01962Y00082*
X01964Y00088*
X01965Y00095*
X01964Y00101*
X01962Y00107*
X01958Y00113*
X01952Y00117*
X01946Y00119*
X0194Y0012*
X01901*
X01871Y0015*
X01873Y00155*
X01955*
X01961Y00156*
X01967Y00158*
X01973Y00162*
X01976Y00167*
X0198Y00167*
X01982Y00167*
X01984Y00165*
Y00126*
X01973*
Y00063*
X0204*
Y00126*
X02029*
Y00167*
X02034Y00168*
X02037Y00163*
X02045Y00158*
X02055Y00156*
X02064Y00158*
X02072Y00163*
X02077Y0017*
X02079Y00171*
X0208*
X02082Y0017*
X02087Y00163*
X02095Y00158*
X02105Y00156*
X02114Y00158*
X0212Y00162*
X02125Y0016*
Y00126*
X02114*
Y00063*
X02114Y00058*
X02112Y00054*
X0211Y00045*
X02111Y0004*
X02107Y00036*
X01219*
X01193Y00062*
X01187Y00066*
X0118Y00068*
X00851*
X0085Y00068*
X00849Y00073*
X00882Y00106*
X00888Y00107*
X00894Y00111*
X00898Y00117*
X00899Y00124*
Y00126*
X00905Y00132*
X00911*
X00918Y00134*
X00923Y00137*
X0093Y00144*
X00934Y0015*
X00936Y00157*
Y00162*
X00967Y00194*
X01077*
X01084Y00195*
X0109Y00199*
X01129Y00238*
X01133Y00239*
X0114Y00244*
X01325Y00429*
X0142Y00524*
X01585*
X01593Y00525*
X016Y0053*
X01605Y00537*
X01607Y00546*
Y0056*
X01605Y00568*
X016Y00575*
X01593Y0058*
X01585Y00582*
X0157*
X01561Y0059*
X01563Y00595*
X01623*
Y00604*
X01627Y00606*
X01676Y00556*
G37*
G36*
X0069Y00477D02*
Y00469D01*
X00691Y00462*
X00695Y00457*
X00719Y00433*
X00717Y00428*
X00719Y00419*
X00723Y00413*
X00723Y0041*
X00721Y00408*
X00715Y00409*
X00705Y00407*
X00698Y00403*
X00657Y00444*
Y00469*
X00659Y00471*
X00666Y00473*
X00671Y00476*
X00675Y00482*
X00675Y00484*
X00683*
X0069Y00477*
G37*
G36*
X01536Y01265D02*
X01538Y01258D01*
X01542Y01252*
Y0125*
X01537Y01247*
X01532Y01239*
X0153Y0123*
X01532Y0122*
X01537Y01212*
X01545Y01207*
X01555Y01205*
X0156Y01206*
X01565Y01202*
Y01177*
X01514*
Y01247*
X01515Y01248*
X01519Y01253*
X0152Y0126*
Y01301*
X01519Y01308*
X01515Y01313*
X01512Y01316*
X01514Y01321*
X01536*
Y01265*
G37*
G36*
X01893Y016D02*
X01894Y01586D01*
X01898Y01572*
X01905Y0156*
X01914Y01549*
X01925Y0154*
X01937Y01534*
X0195Y0153*
X01964Y01528*
X02264*
X02264Y01523*
X0226Y01522*
X02252Y01517*
X02247Y01509*
X02246Y01508*
X02205Y01467*
X02092*
X02088Y0147*
X02089Y01475*
X02087Y01484*
X02082Y01492*
X02074Y01497*
X02065Y01499*
X02055Y01497*
X02047Y01492*
X02042Y01484*
X0204Y01475*
X02041Y01466*
X02039Y01464*
X02037Y01463*
X02032Y01468*
X02025Y01473*
X02016Y01475*
X01995*
Y01481*
X01928*
Y01418*
X01981*
X01982Y01415*
X01987Y01407*
X01994Y01403*
X01992Y01398*
X01983*
X01976Y01396*
X01975Y01396*
X01934*
X01927Y01394*
X01924Y01393*
X01924*
X01909Y01408*
X01903Y01412*
X01896Y01413*
X01891*
Y01418*
X0189Y01425*
X01889Y01426*
X01895Y01432*
X01901Y01433*
X01907Y01437*
X01911Y01443*
X01913Y0145*
X01911Y01456*
X01907Y01462*
X01901Y01466*
X01895Y01468*
X01888*
X01881Y01466*
X01875Y01462*
X01865Y01452*
X01859Y01457*
X01853Y01461*
X01846Y01463*
X01775*
X01768Y01461*
X01762Y01457*
X01758Y01451*
X01756Y01445*
X01758Y01438*
X01762Y01432*
X01768Y01428*
X01775Y01426*
X01839*
X01845Y01421*
X01843Y01416*
X01741*
X01741Y01421*
Y01476*
X0168*
X01676Y01479*
X01669Y0148*
X01654*
X01642Y01492*
Y01502*
X01662*
Y01516*
X01693*
Y01499*
X01756*
Y01566*
X01693*
Y0155*
X01663*
X01662Y01551*
Y01587*
X01131*
Y01592*
X01637*
X01645Y01594*
X01652Y01599*
X01657Y01606*
X01659Y01615*
X01658Y01617*
X01661Y01621*
X01706*
Y016*
X01708Y01593*
X01712Y01587*
X01718Y01583*
X01725Y01581*
X01731Y01583*
X01737Y01587*
X01741Y01593*
X01742Y01598*
X01747Y01599*
X01752Y01592*
X0176Y01587*
X0177Y01585*
X01779Y01587*
X01787Y01592*
X01792Y016*
X01794Y0161*
X01793Y01616*
X01797Y01621*
X01893*
Y016*
G37*
G36*
X01156Y0179D02*
X01125D01*
X01116Y01788*
X01109Y01784*
X01104Y01776*
X01103Y01768*
X01103Y01767*
X011Y01763*
X00812*
X00798Y01762*
X00784Y01758*
X00772Y01751*
X00761Y01742*
X00752Y01732*
X00746Y01719*
X00742Y01706*
X0074Y01692*
Y01671*
X00413*
X00358Y01725*
X0036Y0173*
X0042*
Y01755*
X00507*
X00516Y01756*
X00523Y01759*
X0053Y01764*
X0053Y01764*
X00599*
Y01782*
X01087*
X01095Y01783*
X01103Y01786*
X01109Y01791*
X01114Y01797*
X01131*
Y0182*
X01133Y01821*
X01134Y01822*
X01156*
Y0179*
G37*
G36*
X00794Y01503D02*
X00796Y01496D01*
X00796Y01495*
X00794Y0149*
X00758*
X00751Y01489*
X00745Y01487*
X00739Y01483*
X00736Y0148*
X00708*
Y01467*
X00626*
Y01475*
X00563*
Y01408*
X00626*
Y01416*
X00681*
X00682Y01411*
X00677Y01407*
X00672Y01399*
X0067Y01391*
X00667Y01392*
X00416*
Y01528*
X00794*
Y01503*
G37*
G36*
X01095Y01545D02*
X01096Y01538D01*
X011Y01532*
X01106Y01528*
X01113Y01526*
X01115Y01525*
Y0152*
X01104*
X01102Y01521*
X01097Y01525*
X0109Y01527*
X01076*
Y01556*
X01013*
Y01493*
X01008Y01489*
X01005Y01489*
X00995Y01487*
X00987Y01482*
X00982Y01475*
X00974Y01477*
X0092*
X00919Y01477*
X0091Y01479*
X009Y01477*
X00892Y01472*
X00887Y01464*
X00886Y01461*
X00881Y0146*
X00876Y01465*
X00871Y01469*
X00869Y01469*
X00829Y0151*
Y01531*
X00839Y01534*
X00851Y0154*
X00862Y01549*
X00871Y0156*
X00877Y01572*
X00881Y01586*
X00883Y016*
Y01621*
X00991*
X00993Y01616*
X00987Y01612*
X00982Y01604*
X0098Y01595*
X00982Y01585*
X00987Y01577*
X00995Y01572*
X01005Y0157*
X01014Y01572*
X01022Y01577*
X01024Y0158*
X0103*
X01032Y01577*
X01038Y01573*
X01045Y01571*
X01051Y01573*
X01057Y01577*
X01061Y01583*
X01063Y0159*
Y01621*
X01095*
Y01545*
G37*
G36*
X01672Y01792D02*
X0168Y01787D01*
X0169Y01785*
X01699Y01787*
X01707Y01792*
X0171Y01796*
X01787*
X0179Y01792*
X0179Y0179*
X01792Y0178*
X01797Y01772*
X01802Y01768*
X01801Y01763*
X01662*
X01658Y01767*
X01659Y01768*
X01657Y01776*
X01652Y01784*
X01645Y01788*
X01637Y0179*
X01192*
Y01797*
X01536*
X01536Y01797*
X01537Y01797*
X01662*
Y01798*
X01663Y01798*
X01667Y01799*
X01672Y01792*
G37*
G36*
X01623Y02303D02*
Y02298D01*
Y02231*
X01642*
Y02198*
X01641Y02198*
X01636Y0219*
X01634Y0218*
X01636Y02171*
X01641Y02163*
X01649Y02157*
X01659Y02155*
X01661Y02156*
X01663Y02152*
X01662Y02149*
X0166Y0214*
X0166Y02137*
X01657Y02133*
X01614*
X0161Y02134*
X01596Y02136*
X01594*
X01587Y02135*
X01584Y02139*
X01584Y0214*
X01582Y02149*
X01577Y02157*
Y02162*
X01582Y0217*
X01584Y0218*
X01582Y02189*
X01577Y02197*
X01569Y02202*
X01565Y02203*
X01564Y02208*
Y02267*
X01611Y02314*
X01623*
Y02303*
G37*
G36*
X02031Y01791D02*
X0203Y01785D01*
X02032Y01775*
X02037Y01767*
X02045Y01762*
X02055Y0176*
X02064Y01762*
X02072Y01767*
X02077Y01775*
X02079Y01785*
X02079Y01787*
X02083Y01792*
X02085Y01792*
X02149Y01729*
X02153Y01726*
Y01693*
X0223*
X02235Y01692*
X02254*
X02255Y01692*
X02265Y0169*
X02272Y01691*
X02277Y01688*
Y01671*
X02035*
Y01692*
X02034Y01706*
X0203Y01719*
X02023Y01732*
X02015Y01742*
X02004Y01751*
X01992Y01758*
X01978Y01762*
X01965Y01763*
X01964Y01764*
X01964Y01765*
X01963Y01768*
X01967Y01775*
X01969Y01785*
X01968Y01791*
X01972Y01796*
X02027*
X02031Y01791*
G37*
G36*
X01544Y02939D02*
X01546Y02938D01*
Y02907*
X01542Y02904*
X0154Y02904*
X0153Y02902*
X01522Y02897*
X01517Y02889*
X01515Y0288*
X01517Y0287*
X01522Y02862*
X0153Y02857*
X0154Y02855*
X01549Y02857*
X01551Y02858*
X01551Y02858*
X01561Y02847*
X01559Y02843*
X01495*
Y0294*
X01494Y02957*
X0149Y02974*
X01483Y0299*
X01478Y02997*
X01482Y03001*
X01544Y02939*
G37*
G36*
X00937Y01352D02*
X00943Y01349D01*
X0095Y01347*
X0105*
X01052Y01348*
X01125Y01275*
X01131Y01271*
X01137Y0127*
X01147*
X01149Y01268*
X0115Y01263*
X01154Y01258*
X01168Y01244*
X01173Y0124*
X0118Y01239*
X01211*
X01247Y01202*
Y01055*
X01243Y01053*
X01169Y01126*
Y01205*
X01168Y01211*
X01164Y01217*
X01158Y01221*
X01151Y01223*
X01145Y01221*
X01139Y01217*
X01135Y01211*
X01133Y01205*
Y01144*
X01129Y01142*
X01102Y01168*
X01104Y01173*
X01118*
Y01236*
X01077*
X01074Y0124*
X01072Y01249*
X01067Y01257*
X01059Y01262*
X0105Y01264*
X0104Y01262*
X01032Y01257*
X01027Y01249*
X01026Y01245*
X01021Y01244*
X00982Y01283*
X00983Y01289*
X00985Y01289*
X00989Y01287*
X00999Y01285*
X01008Y01287*
X01014Y01291*
X0102Y01287*
X0103Y01285*
X01039Y01287*
X01047Y01292*
X01052Y013*
X01054Y0131*
X01052Y01319*
X01047Y01327*
X01039Y01332*
X0103Y01334*
X0102Y01332*
X01014Y01328*
X01008Y01332*
X00999Y01334*
X00989Y01332*
X00982Y01327*
X00974Y01332*
X00965Y01334*
X00955Y01332*
X00947Y01327*
X00946Y01325*
X00941Y01324*
X00863Y01402*
X00865Y01407*
X00872Y01412*
X00872Y01412*
X00877Y01413*
X00937Y01352*
G37*
G36*
X01174Y01437D02*
Y0143D01*
X01175Y01423*
X01179Y01418*
X01189Y01407*
X01189Y01407*
X01185Y01402*
X01184Y01396*
X01083*
Y01372*
X01078Y0137*
X01062Y01387*
X01056Y0139*
X0105Y01392*
X01043Y0139*
X01037Y01387*
X01034Y01382*
X00957*
X00913Y01425*
X00914Y01431*
X00919Y01432*
X0092Y01432*
X00965*
X00992Y01406*
X00999Y01401*
X01008Y01399*
X01051*
X0106Y01401*
X01067Y01406*
X01069Y01408*
X01136*
X01145Y0141*
X01152Y01414*
X01156Y01421*
X01158Y01427*
X01169Y01439*
X01174Y01437*
G37*
G36*
X01643Y01298D02*
X0165Y01296D01*
X01676*
Y01283*
X01708*
Y01223*
X01719*
Y01223*
X01721Y01214*
X01726Y01207*
X01781Y01151*
X01782Y0115*
X01787Y01142*
X01795Y01137*
X01805Y01135*
X01807Y01135*
X01811Y01132*
Y01001*
X01802*
Y00898*
X01817*
Y00869*
X0179*
Y00834*
X01785Y00832*
X01784Y00832*
X01775Y00834*
X0177Y00833*
X01766Y00837*
Y00893*
X01753*
Y01062*
X01753Y01063*
X01761*
X01768Y01064*
X01774Y01068*
X01777Y01072*
X01781Y01078*
X01783Y01085*
Y01093*
X01787Y011*
X01789Y0111*
X01787Y01119*
X01782Y01127*
X01774Y01132*
X01765Y01134*
X01755Y01132*
X01747Y01127*
X01742Y01119*
X0174Y0111*
X01742Y011*
X01738Y01097*
X01735Y01095*
X01706Y01124*
Y01177*
X01653*
X01628Y01202*
Y01224*
X01632Y01227*
X01635Y01226*
X01655*
X01661Y01228*
X01667Y01232*
X01672Y01237*
X01675Y01236*
X01681Y01238*
X01687Y01242*
X01691Y01248*
X01693Y01255*
X01691Y01261*
X01687Y01267*
X01682Y01272*
X01676Y01276*
X0167Y01278*
X01663Y01276*
X01657Y01272*
X01647Y01263*
X01636*
X01634Y01266*
X01633Y01267*
X01634Y01269*
X01636Y01276*
Y01296*
X01641Y01299*
X01643Y01298*
G37*
G36*
X01893Y01372D02*
Y01315D01*
X01895Y01308*
X01899Y01302*
X01941Y01259*
X01939Y01255*
X01855*
Y01258*
X01854Y01266*
X01849Y01273*
X01844Y01278*
X01846Y01283*
X01878*
Y01346*
X0183*
X01829Y01348*
X01832Y01353*
X01873*
Y01377*
X01873Y01377*
X01889*
X01893Y01372*
G37*
G36*
X02955Y03323D02*
X0295Y03319D01*
X02936Y03308*
X02925Y03294*
X02916Y0328*
X02909Y03264*
X02905Y03247*
X02904Y0323*
X02905Y03212*
X02909Y03195*
X02916Y03179*
X02925Y03165*
X02936Y03151*
X0295Y0314*
X02964Y03131*
X0298Y03124*
X02997Y0312*
X03015Y03119*
X03032Y0312*
X03049Y03124*
X03065Y03131*
X03079Y0314*
X03093Y03151*
X03104Y03165*
X03108Y0317*
X03112Y03169*
Y00015*
X03108Y00014*
X03104Y00019*
X03093Y00033*
X03079Y00044*
X03065Y00053*
X03049Y0006*
X03032Y00064*
X03015Y00065*
X02997Y00064*
X0298Y0006*
X02964Y00053*
X0295Y00044*
X02936Y00033*
X02925Y00019*
X02916Y00005*
X02909Y-0001*
X02905Y-00027*
X02904Y-00045*
X02905Y-00062*
X02909Y-00079*
X02916Y-00095*
X02925Y-00109*
X02936Y-00123*
X0295Y-00134*
X02955Y-00138*
X02954Y-00142*
X00155*
X00154Y-00138*
X00159Y-00134*
X00173Y-00123*
X00184Y-00109*
X00193Y-00095*
X002Y-00079*
X00204Y-00062*
X00205Y-00045*
X00204Y-00027*
X002Y-0001*
X00193Y00005*
X00184Y00019*
X00173Y00033*
X00159Y00044*
X00145Y00053*
X00129Y0006*
X00112Y00064*
X00095Y00065*
X00077Y00064*
X0006Y0006*
X00044Y00053*
X0003Y00044*
X00016Y00033*
X00005Y00019*
X00001Y00014*
X-00002Y00015*
Y00586*
X00002Y00588*
X00032Y00557*
X00038Y00554*
X00045Y00552*
X00275*
X00277Y0055*
X00275Y00545*
X0026*
X00255Y00546*
X00249Y00545*
X00233*
X00227Y00544*
X00221Y0054*
X00187Y00507*
X00184Y00501*
X00182Y00495*
Y00484*
X00184Y00477*
X00185Y00476*
X00184Y00475*
X00182Y00468*
Y00439*
X0018Y00437*
X00175Y0044*
Y00503*
X00174Y0051*
X00172Y00516*
X00168Y00522*
X00162Y00526*
X00156Y00528*
X0015Y00529*
X00143Y00528*
X00137Y00526*
X00131Y00522*
X00127Y00516*
X00122*
X00118Y00522*
X00112Y00526*
X00106Y00528*
X001Y00529*
X00093Y00528*
X00087Y00526*
X00081Y00522*
X00077Y00516*
X00072*
X00068Y00522*
X00062Y00526*
X00056Y00528*
X0005Y00529*
X00043Y00528*
X00037Y00526*
X00031Y00522*
X00027Y00516*
X00025Y0051*
X00024Y00503*
Y00433*
X00025Y00426*
X00027Y0042*
X00026Y00415*
X00013*
Y00348*
X00054*
X00064Y00337*
X00066Y00337*
X00064Y00332*
X00045*
X00038Y0033*
X00032Y00327*
X00029Y00321*
X00027Y00315*
X00029Y00308*
X00032Y00302*
X00038Y00299*
X00045Y00297*
X00074*
X00077Y00295*
Y00266*
X00074*
Y00203*
Y00143*
X00141*
X00147*
Y00137*
X00147Y00137*
X00142Y00129*
X0014Y0012*
X00142Y0011*
X00147Y00102*
X00155Y00097*
X00165Y00095*
X00174Y00097*
X0018Y001*
X00182Y00097*
X00232Y00047*
X00238Y00043*
X00245Y00041*
X00248*
X00248Y00041*
X00252Y00035*
X00258Y00031*
X00265Y0003*
X00344*
X00351Y00031*
X00357Y00035*
X00367Y00045*
X00539*
X00559Y00025*
X00565Y00021*
X00571Y0002*
X00638*
X0064Y00018*
X00647Y00017*
X00687*
X00692Y00013*
X00699Y00012*
X00788*
X00795Y00013*
X00801Y00017*
X00815Y00032*
X00817Y00032*
X00825Y00027*
X00835Y00025*
X00844Y00027*
X00851Y00031*
X01172*
X01199Y00005*
X01204Y00001*
X01211Y0*
X02196*
X02203Y00001*
X02209Y00005*
X02261Y00057*
X02265Y00063*
X02266Y0007*
Y00126*
X02265Y00133*
X02261Y00139*
X02254Y00145*
Y00239*
X02334Y00318*
X02338Y00324*
X02339Y00331*
Y00384*
X02338Y00391*
X02334Y00397*
X02321Y0041*
Y00436*
X02329Y00445*
X02335Y00457*
X02339Y00471*
X0234Y00482*
X02342Y00485*
X02344Y00495*
X02342Y00504*
X02341Y00507*
Y00517*
X02342Y0052*
X02344Y0053*
X02342Y00539*
X0234Y00542*
X02339Y00553*
X02339Y00555*
X02342Y0056*
X02344Y0057*
X02342Y00579*
X02337Y00587*
X02329Y00592*
X0232Y00594*
X02318Y00594*
X02314Y00598*
X02314Y006*
X02312Y00609*
X02307Y00617*
X02299Y00622*
X0229Y00624*
X0228Y00622*
X02272Y00617*
X02268Y00611*
X02256Y00609*
X02242Y00605*
X0223Y00599*
X02219Y0059*
X0221Y00579*
X02204Y00567*
X02202Y00562*
X02146*
Y006*
X02175*
Y00717*
X02213*
X02221Y00719*
X02228Y00723*
X02285Y0078*
X02289Y00786*
X02301*
Y00853*
X02238*
Y00795*
X02207Y00764*
X02205Y00765*
X02204Y00765*
X02202Y0077*
X02203Y00775*
Y00912*
X02247Y00956*
X02251Y00954*
Y00886*
X02253Y0088*
X02257Y00874*
X02263Y0087*
X0227Y00868*
X02276Y0087*
X02282Y00874*
X02286Y0088*
X02288Y00886*
Y00975*
X02286Y00981*
X02282Y00987*
X0228Y0099*
X02308Y01017*
X02312Y01023*
X02313Y0103*
Y01528*
X02559*
X02567Y01524*
X02581Y0152*
X02595Y01518*
X02608Y0152*
X02622Y01524*
X02634Y0153*
X02645Y01539*
X02654Y0155*
X0266Y01562*
X02664Y01576*
X02666Y0159*
X02664Y01603*
X0266Y01617*
X02654Y01629*
X02645Y0164*
X02635Y0165*
X02624Y01659*
X02612Y01665*
X02598Y01669*
X02585Y01671*
X02313*
Y01819*
X02312Y01826*
X02308Y01832*
X02287Y01852*
X02281Y01856*
X02275Y01858*
X0219*
X02183Y01856*
X02177Y01852*
X02173Y01846*
X02171Y0184*
X02173Y01833*
X02177Y01827*
X02183Y01823*
X0219Y01821*
X02267*
X02277Y01812*
Y01741*
X02272Y01738*
X02265Y01739*
X0226Y01738*
X02256Y01741*
Y01796*
X02153*
Y01793*
X02149Y01792*
X02107Y01833*
X021Y01838*
X02091Y0184*
X02027*
X02023Y01845*
X02024Y0185*
X02022Y01859*
X02022Y0186*
X02025Y01864*
X0214*
X02146Y01865*
X02152Y01867*
X02158Y01871*
X02258Y01971*
X02339*
Y0207*
X0227*
Y02079*
X02278Y02082*
X02286Y02088*
X02292Y02096*
X02295Y02105*
X02297Y02115*
X02295Y02124*
X02292Y02133*
X02288Y02138*
X02286Y02142*
X02288Y02146*
X02292Y02151*
X02295Y0216*
X02297Y0217*
X02295Y02179*
X02292Y02188*
X02286Y02196*
Y02198*
X02292Y02206*
X02295Y02215*
X02297Y02225*
X02297Y02225*
X02355Y02284*
X02489*
X0249Y02279*
X02487Y02278*
X02475Y02277*
X0246Y02273*
X02446Y02265*
X02433Y02255*
X02423Y02243*
X02416Y02229*
X02411Y02214*
X02409Y02198*
X02411Y02182*
X02416Y02167*
X02423Y02153*
X02433Y0214*
X02446Y0213*
X0246Y02123*
X02475Y02118*
X02491Y02117*
X02506Y02118*
X02522Y02123*
X02536Y0213*
X02548Y0214*
X02558Y02153*
X02565Y02167*
X0257Y02182*
X02572Y02198*
X0257Y02214*
X02565Y02229*
X02558Y02243*
X02548Y02255*
X02536Y02265*
X02522Y02273*
X02506Y02277*
X02494Y02278*
X02492Y02279*
X02492Y02284*
X02774*
Y02247*
X02768Y0224*
X02764Y0223*
X02763Y0222*
X02764Y02209*
X02768Y02199*
X02775Y0219*
X02784Y02183*
X02794Y02179*
X02805Y02178*
X02815Y02179*
X02825Y02183*
X02834Y0219*
X02841Y02199*
X02845Y02209*
X02846Y0222*
X02845Y0223*
X02841Y0224*
X0284Y02242*
X02841Y02247*
X02845Y02248*
X02854Y02255*
X02861Y02264*
X02865Y02274*
X02866Y02285*
X02865Y02295*
X02861Y02305*
X02854Y02314*
X02845Y02321*
X02835Y02325*
X02825Y02326*
X0282Y02326*
X02818Y02328*
X02812Y02332*
X02806Y02334*
X028Y02335*
X02345*
X02338Y02334*
X02332Y02332*
X02326Y02328*
X0226Y02262*
X0226Y02262*
X0225Y0226*
X02241Y02257*
X02233Y02251*
X02227Y02243*
X02224Y02235*
X02222Y02232*
X0222Y02226*
X02219Y0222*
Y0221*
Y0207*
X0221*
Y01996*
X02153Y01939*
X02148Y01941*
Y02139*
X0213*
X02128Y02143*
X02142Y02157*
X02147Y02164*
X02148Y02166*
X02154Y02167*
X02157Y02162*
X02165Y02157*
X02175Y02155*
X02184Y02157*
X02192Y02162*
X02197Y0217*
X02199Y0218*
X02198Y02186*
X02202Y02191*
X02202Y02191*
X02211*
Y02253*
Y02258*
Y02325*
X02151*
Y02328*
X02088*
Y02321*
X02055*
X02055Y02321*
X02051Y02327*
X02045Y02331*
X0204Y02332*
X02032Y02335*
X02024Y02336*
X01715*
X01706Y02335*
X01699Y02332*
X01692Y02327*
X01691Y02326*
X01686Y02327*
Y02365*
Y02369*
Y02436*
Y02441*
Y02503*
X01623*
Y02464*
X01602Y02443*
X01598Y02445*
Y02593*
X01603Y02596*
X0161Y02595*
X01619Y02597*
X01627Y02602*
X01632Y0261*
X01634Y0262*
X01632Y02629*
X01627Y02637*
X01619Y02642*
X0161Y02644*
X01603Y02643*
X01598Y02646*
Y02751*
X01602Y02754*
X01605Y02752*
X01615Y0275*
X01624Y02752*
X01632Y02757*
X01637Y02765*
X01639Y02775*
X01637Y02784*
X01632Y02792*
X01624Y02797*
X01615Y02799*
X01605Y02797*
X01602Y02795*
X01598Y02798*
Y02822*
X01625*
X01631Y02824*
X01637Y02827*
X0164Y02833*
X01642Y0284*
X0164Y02846*
X01637Y02852*
X01631Y02855*
X01625Y02857*
X01605*
X01603Y02862*
X01604Y02862*
X01607Y02866*
X0161Y02864*
X0162Y02862*
X01629Y02864*
X0163Y02865*
X01632Y02862*
X0164Y02857*
X0165Y02855*
X01659Y02857*
X01662Y02858*
X01664Y02857*
X01671Y02854*
X0168Y02853*
X01688Y02854*
X01695Y02857*
X01702Y02862*
X01729Y0289*
X0179*
Y03019*
X01691*
Y02941*
X01657Y02907*
X01654Y02903*
X0165Y02904*
X0164Y02902*
X01639Y02902*
X01637Y02905*
X01629Y0291*
X0162Y02912*
X0161Y0291*
X01602Y02905*
X01599Y029*
X01596Y02902*
X01586Y02904*
X01584Y02904*
X0158Y02907*
Y02946*
X01582Y02955*
X0158Y02963*
X01575Y0297*
X0145Y03095*
X01443Y031*
X01435Y03102*
X0061*
X00601Y031*
X00594Y03095*
X00411Y02912*
X00399Y02919*
X00382Y02924*
X00365Y02925*
X0021*
X00192Y02924*
X00175Y02919*
X00159Y0291*
X00145Y02899*
X00134Y02885*
X00125Y02869*
X0012Y02852*
X0012Y02845*
X00065Y0279*
X00056Y0278*
X00049Y02767*
X00045Y02754*
X00044Y0274*
Y02299*
X00045Y02286*
X00049Y02272*
X00056Y0226*
X00065Y02249*
X00161Y02153*
Y02085*
X00159Y02083*
X00152Y02077*
X00147Y02072*
X00138Y02061*
X00131Y02049*
X00127Y02035*
X00126Y02021*
Y01786*
X00127Y01772*
X00131Y01758*
X00138Y01746*
X00147Y01735*
X00333Y01549*
X00333Y01548*
X00334Y01548*
X00345Y01539*
X00353Y01535*
Y01385*
X00354Y01376*
X00357Y01369*
X00362Y01362*
X00369Y01357*
X00376Y01354*
X00385Y01353*
X00393Y01354*
X004Y01357*
X00401Y01357*
X0066*
X00668Y0135*
X00674Y01346*
X0068Y01345*
X00722*
X00728Y01346*
X00734Y0135*
X00752Y01367*
X00755Y01373*
X00757Y0138*
X00755Y01386*
X00752Y01392*
X00746Y01395*
X0074Y01397*
X00733Y01395*
X00727Y01392*
X00724Y01388*
X00719Y0139*
X00717Y01399*
X00712Y01407*
X00711Y01408*
X00712Y01413*
X0076*
X00762Y01405*
X00767Y01397*
X00775Y01392*
X00785Y0139*
X00794Y01392*
X00798Y01394*
X00799Y01394*
X00803Y01389*
X01036Y01156*
X01041Y01152*
X01047Y0115*
X01048Y01149*
X01104Y01094*
Y01006*
X01099Y01005*
X01097Y01007*
X01089Y01012*
X0108Y01014*
X0107Y01012*
X01062Y01007*
X01057Y00999*
X01055Y0099*
X01057Y0098*
X01062Y00972*
X0107Y00967*
X0108Y00965*
X01089Y00967*
X01097Y00972*
X01099Y00974*
X01104Y00973*
Y00969*
X01105Y00962*
X01107Y00956*
X01111Y00951*
X01114Y00947*
X01112Y00943*
X01105Y00944*
X01095Y00942*
X01087Y00937*
X01082Y00929*
X0108Y0092*
X01082Y0091*
X01087Y00902*
X01095Y00897*
X01104Y00895*
X01105Y00895*
X01106Y0089*
X01102Y00887*
X01097Y0088*
X01095Y0088*
X01094*
X01092Y0088*
X01087Y00887*
X01079Y00892*
X0107Y00894*
X0106Y00892*
X01052Y00887*
X01051Y00885*
X01046Y00886*
X01046Y00888*
X0104Y00896*
X01032Y00902*
X01023Y00904*
X01018Y00903*
X01017Y00904*
X01012Y00912*
X01004Y00917*
X00995Y00919*
X00985Y00917*
X00977Y00912*
X00972Y00904*
X0097Y00895*
X00971Y00889*
X00966Y00886*
X00964Y00887*
X00955Y00889*
X00945Y00887*
X00937Y00882*
X00932Y00874*
X0093Y00865*
X00932Y00855*
X00937Y00847*
X00945Y00842*
X00955Y0084*
X00964Y00842*
X00972Y00847*
X00977Y00855*
X00979Y00865*
X00978Y0087*
X00983Y00873*
X00985Y00872*
X00995Y0087*
X00999Y00871*
X01Y00869*
X01005Y00861*
X01013Y00856*
X01023Y00854*
X01032Y00856*
X0104Y00861*
X01041Y00863*
X01046Y00862*
X01047Y0086*
X01052Y00852*
X0106Y00847*
X0107Y00845*
X01079Y00847*
X01087Y00852*
X01092Y00859*
X01094Y00859*
X01095*
X01097Y00859*
X01102Y00852*
X0111Y00847*
X0112Y00845*
X01129Y00847*
X01137Y00852*
X01142Y0086*
X01144Y0087*
X01142Y00879*
X01137Y00887*
X01129Y00892*
X0112Y00894*
X01119Y00894*
X01118Y00899*
X01122Y00902*
X01127Y0091*
X01129Y0092*
X01128Y00927*
X01132Y00929*
X01163Y00899*
X01168Y00895*
X01167Y00894*
X01165Y00885*
X01167Y00875*
X01172Y00867*
X0118Y00862*
X0119Y0086*
X01199Y00862*
X01207Y00867*
X01212Y00875*
X01214Y00885*
X01214Y00885*
X01219Y00888*
X01233Y00873*
X01239Y00869*
X01245Y00866*
X0125Y00866*
X01253Y00861*
X01252Y0086*
X0125Y0085*
X01252Y00841*
X01257Y00833*
X01265Y00827*
X01275Y00825*
X01284Y00827*
X01292Y00833*
X01293Y00834*
X01298Y00834*
X01309Y00823*
X01311Y00822*
X01309Y00817*
X01251*
X01244Y00815*
X01239Y00812*
X01227Y008*
X01223Y00797*
X01219Y00791*
X01218Y00785*
X01219Y00778*
X01223Y00772*
X01229Y00768*
X01236Y00766*
X01269*
X01269Y00765*
X01267Y0076*
X01201*
X01194Y00759*
X01188Y00757*
X01182Y00753*
X01178Y00747*
X01176Y00741*
X01175Y00735*
X01162Y00723*
X01158Y00717*
X01157Y0071*
Y00674*
X01158Y00667*
X01162Y00661*
X01167Y00656*
X01165Y00652*
X01136*
X0113Y0065*
X01124Y00647*
X01109Y00631*
X01104Y00633*
X01104Y00635*
X01103Y00641*
X01101Y00647*
X01097Y00653*
X01091Y00657*
Y00662*
X01097Y00666*
X01101Y00672*
X01103Y00678*
X01104Y00685*
X01104Y00686*
X01109Y00687*
X01117Y00692*
X01122Y007*
X01124Y0071*
X01122Y00719*
X01117Y00727*
X01109Y00732*
X01104Y00733*
X01104Y00735*
X01103Y00741*
X01101Y00747*
X01097Y00753*
X01091Y00757*
Y00762*
X01097Y00766*
X01101Y00772*
X01103Y00778*
X01104Y00785*
X01103Y00791*
X01101Y00797*
X01097Y00803*
X01091Y00807*
X01085Y00809*
X01078Y0081*
X01039*
X01033Y00812*
X00981*
Y00828*
X00861*
Y0083*
X00798*
Y00812*
X00793Y0081*
X00789Y00812*
X0078Y00814*
X00776Y00814*
X00772Y00817*
Y00928*
X00771Y00934*
X00767Y0094*
X00761Y00946*
X00755Y0095*
X00749Y00951*
X00674*
X00667Y0095*
X00665Y00948*
X00623*
Y00897*
X00611*
Y00953*
X00548*
Y00902*
X00543Y009*
X00539Y00902*
X0053Y00904*
X0052Y00902*
X00516Y009*
X00511Y00902*
Y00958*
X00456*
X00451*
Y00968*
X00456Y0097*
X00457Y00969*
X00463Y00965*
X0047Y00963*
X00476Y00965*
X00482Y00969*
X00482Y00969*
X00485Y00968*
X00572*
X00578Y00965*
X00585Y00963*
X0083*
X00857Y00937*
X00863Y00933*
X0087Y00931*
X00885*
X00891Y00933*
X00897Y00937*
X00901Y00943*
X00903Y0095*
X00901Y00956*
X00897Y00962*
X00891Y00966*
X00885Y00968*
X00877*
X0085Y00994*
X00844Y00998*
X00838Y00999*
X00673*
Y01112*
X00702Y01142*
X00706Y01148*
X00708Y01155*
X00706Y01161*
X00702Y01167*
X00696Y01171*
X0069Y01173*
X00595*
X00588Y01171*
X00582Y01167*
X00467Y01052*
X00463Y01046*
X00462Y0104*
X00459Y01039*
X00456Y01038*
X00451Y01042*
X00444Y01043*
X00386*
X0038Y01042*
X00374Y01038*
X00328Y00992*
X00324Y00986*
X00323Y00979*
Y00967*
X00315Y00959*
X00171*
X0017Y00964*
X00175Y00972*
X00177Y00982*
X00175Y00991*
X0017Y00999*
X00162Y01004*
X00152Y01006*
X00143Y01004*
X00135Y00999*
X00129Y00991*
X00129Y00991*
X00124Y0099*
X00118Y00986*
X00099Y00967*
X00081*
Y00983*
X00018*
Y00921*
Y00916*
Y00853*
X00017Y00852*
X00012Y00844*
X0001Y00835*
X00012Y00825*
X00017Y00817*
X00021Y00814*
X00021Y0081*
X00002Y0079*
X-00002Y00792*
Y03169*
X00001Y0317*
X00005Y03165*
X00016Y03151*
X0003Y0314*
X00044Y03131*
X0006Y03124*
X00077Y0312*
X00095Y03119*
X00112Y0312*
X00129Y03124*
X00145Y03131*
X00159Y0314*
X00173Y03151*
X00184Y03165*
X00193Y03179*
X002Y03195*
X00204Y03212*
X00205Y0323*
X00204Y03247*
X002Y03264*
X00193Y0328*
X00184Y03294*
X00173Y03308*
X00159Y03319*
X00154Y03323*
X00155Y03327*
X02954*
X02955Y03323*
G37*
G36*
X01446Y03037D02*
X01442Y03033D01*
X01435Y03038*
X01419Y03045*
X01402Y03049*
X01385Y0305*
X01367Y03049*
X0135Y03045*
X01334Y03038*
X0132Y03029*
X01306Y03018*
X01295Y03004*
X01286Y0299*
X01279Y02974*
X01275Y02957*
X01274Y0294*
Y02843*
X01176*
Y02698*
X01172Y02695*
X01169Y02697*
X0116Y02699*
X0115Y02697*
X01142Y02692*
X01137Y02684*
X01135Y02675*
X01136Y02668*
X01136Y02667*
X01131Y02665*
X01131Y02666*
X01127Y02672*
X01119Y02677*
X0111Y02679*
X011Y02677*
X01092Y02672*
X01087Y02664*
X01085Y02655*
X01087Y02645*
X01092Y02637*
X011Y02632*
X0111Y0263*
X01119Y02632*
X01127Y02637*
X01132Y02645*
X01134Y02655*
X01133Y02661*
X01133Y02662*
X01138Y02664*
X01138Y02663*
X01142Y02657*
X0115Y02652*
X0116Y0265*
X01169Y02652*
X01172Y02654*
X01176Y02651*
Y02436*
X01173Y02432*
X01169Y02426*
X01168Y0242*
Y02207*
X01169Y022*
X01173Y02195*
X0118Y02188*
X01178Y02183*
X01175Y02182*
X01169Y02178*
X01163Y02182*
X01153Y02184*
X01144Y02182*
X01136Y02177*
X01133Y02173*
X01127Y02174*
X01127Y02174*
X01122Y02182*
X01122Y02182*
Y02227*
X01125Y02231*
X01156*
Y02293*
Y02298*
Y02303*
Y02365*
Y02369*
Y02436*
Y02441*
Y02503*
X01093*
Y02469*
X01075Y0245*
X0107Y02452*
Y02843*
X0096*
Y0293*
X00959Y02947*
X00955Y02964*
X00948Y0298*
X00939Y02994*
X00928Y03008*
X00914Y03019*
X009Y03028*
X00884Y03035*
X00867Y03039*
X0085Y0304*
X00832Y03039*
X00815Y03035*
X00799Y03028*
X00785Y03019*
X00771Y03008*
X0076Y02994*
X00751Y0298*
X00744Y02964*
X0074Y02947*
X00739Y0293*
Y02843*
X00649*
Y02398*
X01056*
Y02392*
X01037Y02373*
X00985*
X00978Y02371*
X00972Y02367*
X00947Y02342*
X00943Y02336*
X00942Y02333*
X00937Y0233*
X00937Y0233*
X00923Y02334*
X0091Y02336*
X0071*
X00696Y02334*
X00682Y0233*
X00671Y02324*
X00666Y02327*
Y02365*
X00665Y02373*
X00662Y0238*
X00657Y02387*
X0065Y02392*
X00643Y02395*
X00635Y02396*
X00626Y02395*
X00619Y02392*
X00612Y02387*
X00607Y0238*
X00604Y02373*
X00603Y02365*
Y02333*
X00599Y0233*
X0047*
Y02231*
X00528*
X00582Y02177*
Y01912*
X00583Y01906*
X00539Y01863*
X0047*
Y01846*
X00465Y01844*
X00459Y01847*
X0045Y01849*
X0044Y01847*
X00432Y01842*
X00427Y01834*
X00425Y01825*
X0042Y01826*
Y01859*
X00321*
Y01847*
X00318Y01844*
X00315Y01844*
X00305Y01842*
X00299Y01838*
X00295Y01842*
X00297Y01845*
X00299Y01855*
X00297Y01864*
X00294Y0187*
X00294Y01871*
X00296Y01875*
X00304Y01877*
X00312Y01882*
X00317Y0189*
X00319Y019*
X00317Y01909*
X00312Y01917*
X00304Y01922*
X00295Y01924*
X00285Y01922*
X00277Y01917*
X00273Y01911*
X00268Y01913*
Y01992*
X00282Y02006*
X00282*
X00291Y02017*
X00294Y02021*
X00298Y02023*
X003Y02022*
X0031Y0202*
X00319Y02022*
X00327Y02027*
X00332Y02035*
X00334Y02045*
X00332Y02054*
X00327Y02062*
X00326Y02062*
X00328Y02067*
X00517*
Y01995*
X00519Y01988*
X00522Y01982*
X00528Y01979*
X00535Y01977*
X00541Y01979*
X00547Y01982*
X0055Y01988*
X00552Y01995*
Y021*
X0055Y02106*
X00547Y02112*
X00541Y02115*
X00535Y02117*
X00528Y02115*
X00522Y02112*
X00512Y02102*
X00303*
Y02183*
Y02183*
X00302Y02197*
X00298Y0221*
X00291Y02222*
X00285Y0223*
X00287Y02235*
X00294Y02237*
X00302Y02242*
X00307Y0225*
X00309Y0226*
X00307Y02269*
X00302Y02277*
X00294Y02282*
X00285Y02284*
X00275Y02282*
X00267Y02277*
X00262Y02269*
X0026Y02262*
X00255Y0226*
X00186Y02329*
Y02711*
X00219Y02744*
X00365*
X00382Y02745*
X00399Y0275*
X00415Y02759*
X00429Y0277*
X0044Y02784*
X00449Y028*
X00454Y02817*
X00455Y02835*
X00454Y02852*
X00449Y02869*
X00442Y02881*
X00619Y03057*
X01425*
X01446Y03037*
G37*
%LNninja_ecu_pcb-2*%
%LPC*%
G36*
X02085Y00924D02*
X02075Y00922D01*
X02067Y00917*
X02062Y00909*
X0206Y009*
X02062Y0089*
X02067Y00882*
X02075Y00877*
X02085Y00875*
X02094Y00877*
X02102Y00882*
X02107Y0089*
X02109Y009*
X02107Y00909*
X02102Y00917*
X02094Y00922*
X02085Y00924*
G37*
G36*
X0132Y01124D02*
X0131Y01122D01*
X01302Y01117*
X01297Y01109*
X01295Y011*
X01297Y0109*
X01302Y01082*
X0131Y01077*
X01314Y01076*
X01315Y0107*
X01311Y01068*
X01306Y0106*
X01304Y0105*
X01306Y01041*
X01311Y01033*
X01319Y01027*
X01329Y01025*
X01338Y01027*
X01346Y01033*
X01352Y01041*
X01354Y0105*
X01352Y0106*
X01346Y01068*
X01338Y01073*
X01334Y01074*
X01333Y01079*
X01337Y01082*
X01342Y0109*
X01344Y011*
X01342Y01109*
X01337Y01117*
X01329Y01122*
X0132Y01124*
G37*
G36*
X01115Y00554D02*
X01105Y00552D01*
X01097Y00547*
X01092Y00539*
X0109Y0053*
X01092Y0052*
X01097Y00512*
X01105Y00507*
X01115Y00505*
X01124Y00507*
X01132Y00512*
X01137Y0052*
X01139Y0053*
X01137Y00539*
X01132Y00547*
X01124Y00552*
X01115Y00554*
G37*
G36*
X01246Y00301D02*
X01235Y003D01*
X01225Y00296*
X01216Y00289*
X0121Y0028*
X01205Y0027*
X01204Y0026*
X01205Y00249*
X0121Y00239*
X01216Y0023*
X01225Y00223*
X01235Y00219*
X01246Y00218*
X01257Y00219*
X01267Y00223*
X01275Y0023*
X01282Y00239*
X01286Y00249*
X01287Y0026*
X01286Y0027*
X01282Y0028*
X01275Y00289*
X01267Y00296*
X01257Y003*
X01246Y00301*
G37*
G36*
X0239Y02911D02*
X02381Y0291D01*
X02374Y02907*
X02367Y02902*
X02362Y02895*
X02359Y02888*
X02358Y0288*
Y02635*
X02359Y02626*
X02362Y02619*
X02367Y02612*
X02437Y02542*
X02444Y02537*
X02451Y02534*
X0246Y02533*
X02586*
X02632Y02487*
X02639Y02482*
X02646Y02479*
X02655Y02478*
X02663Y02479*
X0267Y02482*
X02677Y02487*
X02682Y02494*
X02685Y02501*
X02686Y0251*
X02685Y02518*
X02682Y02525*
X02677Y02532*
X02622Y02587*
X02615Y02592*
X02608Y02595*
X026Y02596*
X02473*
X02421Y02648*
Y02738*
X02426Y02739*
X02433Y02731*
X02446Y02721*
X0246Y02713*
X02475Y02709*
X02491Y02707*
X02506Y02709*
X02522Y02713*
X02536Y02721*
X02548Y02731*
X02558Y02743*
X02565Y02757*
X0257Y02772*
X02572Y02788*
X0257Y02804*
X02565Y02819*
X02558Y02833*
X02548Y02846*
X02536Y02856*
X02522Y02863*
X02506Y02868*
X02491Y02869*
X02475Y02868*
X0246Y02863*
X02446Y02856*
X02433Y02846*
X02426Y02837*
X02421Y02839*
Y0288*
X0242Y02888*
X02417Y02895*
X02412Y02902*
X02405Y02907*
X02398Y0291*
X0239Y02911*
G37*
G36*
X01915Y03035D02*
X01897Y03034D01*
X0188Y0303*
X01864Y03023*
X0185Y03014*
X01836Y03003*
X01825Y02989*
X01816Y02975*
X01809Y02959*
X01805Y02942*
X01804Y02925*
Y02843*
X01704*
Y02398*
X02125*
Y02758*
X0213Y0276*
X02132Y02757*
X0214Y02752*
X0215Y0275*
X02159Y02752*
X02167Y02757*
X02172Y02765*
X02174Y02775*
X02172Y02784*
X02167Y02792*
X02159Y02797*
X0215Y02799*
X0214Y02797*
X02132Y02792*
X0213Y02789*
X02125Y02791*
Y02843*
X02025*
Y02925*
X02024Y02942*
X0202Y02959*
X02013Y02975*
X02004Y02989*
X01993Y03003*
X01979Y03014*
X01965Y03023*
X01949Y0303*
X01932Y03034*
X01915Y03035*
G37*
G36*
X03015Y03022D02*
X02997Y0302D01*
X02981Y03015*
X02966Y03007*
X02953Y02996*
X02942Y02983*
X02934Y02968*
X02932Y02962*
X02927*
X02925Y02968*
X02917Y02983*
X02906Y02996*
X02893Y03007*
X02878Y03015*
X02862Y0302*
X02845Y03022*
X02827Y0302*
X02811Y03015*
X02796Y03007*
X02783Y02996*
X02772Y02983*
X02764Y02968*
X02759Y02952*
X02757Y02935*
X02759Y02917*
X02764Y02901*
X02772Y02886*
X02783Y02873*
X02796Y02862*
X02811Y02854*
X02827Y02849*
X02845Y02847*
X02862Y02849*
X02878Y02854*
X02893Y02862*
X02906Y02873*
X02917Y02886*
X02925Y02901*
X02927Y02907*
X02932*
X02934Y02901*
X02942Y02886*
X02953Y02873*
X02966Y02862*
X02981Y02854*
X02997Y02849*
X03015Y02847*
X03032Y02849*
X03048Y02854*
X03063Y02862*
X03076Y02873*
X03087Y02886*
X03095Y02901*
X031Y02917*
X03102Y02935*
X031Y02952*
X03095Y02968*
X03087Y02983*
X03076Y02996*
X03063Y03007*
X03048Y03015*
X03032Y0302*
X03015Y03022*
G37*
G36*
X0241Y00132D02*
X02399Y0013D01*
X02388Y00126*
X0238Y00119*
X02373Y00111*
X02369Y001*
X02367Y0009*
X02369Y00079*
X02373Y00068*
X0238Y0006*
X02388Y00053*
X02399Y00049*
X0241Y00047*
X0242Y00049*
X02431Y00053*
X02439Y0006*
X02446Y00068*
X0245Y00079*
X02452Y0009*
X0245Y001*
X02446Y00111*
X02439Y00119*
X02431Y00126*
X0242Y0013*
X0241Y00132*
G37*
G36*
X02575D02*
X02564Y0013D01*
X02553Y00126*
X02545Y00119*
X02538Y00111*
X02534Y001*
X02532Y0009*
X02534Y00079*
X02538Y00068*
X02545Y0006*
X02553Y00053*
X02564Y00049*
X02575Y00047*
X02585Y00049*
X02596Y00053*
X02604Y0006*
X02611Y00068*
X02615Y00079*
X02617Y0009*
X02615Y001*
X02611Y00111*
X02604Y00119*
X02596Y00126*
X02585Y0013*
X02575Y00132*
G37*
G36*
X0073Y01084D02*
X0072Y01082D01*
X00712Y01077*
X00707Y01069*
X00705Y0106*
X00706Y01053*
X00705Y01052*
X00697Y01047*
X00692Y01039*
X0069Y0103*
X00692Y0102*
X00697Y01012*
X00705Y01007*
X00715Y01005*
X00724Y01007*
X00732Y01012*
X00737Y0102*
X00739Y0103*
X00738Y01036*
X00739Y01037*
X00747Y01042*
X00752Y0105*
X00754Y0106*
X00752Y01069*
X00747Y01077*
X00739Y01082*
X0073Y01084*
G37*
G36*
X00902Y01022D02*
X00892Y0102D01*
X00884Y01014*
X00879Y01006*
X00877Y00997*
X00879Y00987*
X00884Y00979*
X00892Y00974*
X00902Y00972*
X00911Y00974*
X00919Y00979*
X00925Y00987*
X00927Y00997*
X00925Y01006*
X00919Y01014*
X00911Y0102*
X00902Y01022*
G37*
G36*
X0094Y01224D02*
X0093Y01222D01*
X00922Y01217*
X00918Y01211*
X00915Y01213*
X00905Y01215*
X00896Y01213*
X00888Y01208*
X00882Y012*
X0088Y0119*
X00882Y01181*
X00888Y01173*
X00896Y01167*
X00905Y01165*
X00915Y01167*
X00923Y01173*
X00927Y01179*
X0093Y01177*
X0094Y01175*
X00949Y01177*
X00957Y01182*
X00962Y0119*
X00964Y012*
X00962Y01209*
X00957Y01217*
X00949Y01222*
X0094Y01224*
G37*
G36*
X00905Y01154D02*
X00895Y01152D01*
X00887Y01147*
X00882Y01139*
X0088Y0113*
X00882Y0112*
X00887Y01112*
X00895Y01107*
X00905Y01105*
X00914Y01107*
X00922Y01112*
X00927Y0112*
X00929Y0113*
X00927Y01139*
X00922Y01147*
X00914Y01152*
X00905Y01154*
G37*
G36*
X02285Y00714D02*
X02275Y00712D01*
X02267Y00707*
X02262Y00699*
X0226Y0069*
X02262Y0068*
X02267Y00672*
X02275Y00667*
X02285Y00665*
X02294Y00667*
X02302Y00672*
X02307Y0068*
X02309Y0069*
X02307Y00699*
X02302Y00707*
X02294Y00712*
X02285Y00714*
G37*
G36*
X0112Y02619D02*
X0111Y02617D01*
X01102Y02612*
X01097Y02604*
X01095Y02595*
X01097Y02585*
X01102Y02577*
X0111Y02572*
X0112Y0257*
X01129Y02572*
X01137Y02577*
X01142Y02585*
X01144Y02595*
X01142Y02604*
X01137Y02612*
X01129Y02617*
X0112Y02619*
G37*
G36*
X0034Y02349D02*
X0033Y02347D01*
X00322Y02342*
X00317Y02334*
X00315Y02325*
X00317Y02315*
X00322Y02307*
X0033Y02302*
X0034Y023*
X00349Y02302*
X00357Y02307*
X00362Y02315*
X00364Y02325*
X00362Y02334*
X00357Y02342*
X00349Y02347*
X0034Y02349*
G37*
G36*
X00345Y02289D02*
X00335Y02287D01*
X00327Y02282*
X00322Y02274*
X0032Y02265*
X00322Y02255*
X00327Y02247*
X00335Y02242*
X00345Y0224*
X00354Y02242*
X00362Y02247*
X00367Y02255*
X00369Y02265*
X00367Y02274*
X00362Y02282*
X00354Y02287*
X00345Y02289*
G37*
G36*
X0052Y01954D02*
X0051Y01952D01*
X00502Y01947*
X00497Y01939*
X00495Y0193*
X00497Y0192*
X00502Y01912*
X0051Y01907*
X0052Y01905*
X00529Y01907*
X00537Y01912*
X00542Y0192*
X00544Y0193*
X00542Y01939*
X00537Y01947*
X00529Y01952*
X0052Y01954*
G37*
%LNninja_ecu_pcb-3*%
%LPD*%
G54D10*
X0203Y0138D03*
Y01313D03*
X0138Y0131D03*
Y01243D03*
X0227Y0082D03*
Y00886D03*
X00255Y0042D03*
Y00486D03*
X00595Y01441D03*
Y01375D03*
X0074Y0138D03*
Y01446D03*
X0136Y008D03*
Y00733D03*
X01045Y01523D03*
Y0159D03*
X0096Y00279D03*
Y00212D03*
X00265Y00115D03*
Y00048D03*
X00645Y00118D03*
Y00051D03*
X00725Y00835D03*
Y00901D03*
X0074Y00495D03*
Y00428D03*
X00655Y00915D03*
Y00981D03*
X00045Y00381D03*
Y00315D03*
X00155Y00875D03*
Y00941D03*
X0058Y0092D03*
Y00986D03*
X0229Y00425D03*
Y00358D03*
X01665Y0092D03*
Y00986D03*
X0158Y0092D03*
Y00986D03*
X015Y0092D03*
Y00986D03*
X01495Y0134D03*
Y01406D03*
X01735Y0086D03*
Y00793D03*
X0154Y00855D03*
Y00788D03*
X0147Y00855D03*
Y00788D03*
X01555Y0134D03*
Y01406D03*
X01725Y016D03*
Y01533D03*
X0095Y00795D03*
Y00728D03*
X0089Y00795D03*
Y00728D03*
X00455Y0026D03*
Y00193D03*
X0083Y0073D03*
Y00796D03*
X0048Y00991D03*
Y00925D03*
X0042D03*
Y00991D03*
X01125Y02265D03*
Y02331D03*
Y02403D03*
Y0247D03*
X01655Y02265D03*
Y02331D03*
Y0247D03*
Y02403D03*
X0218Y02225D03*
Y02291D03*
X0212Y02295D03*
Y02228D03*
X0005Y0095D03*
Y00883D03*
G54D11*
X01961Y0145D03*
X01895D03*
X01365Y0095D03*
X01431D03*
X02185Y00775D03*
X02118D03*
X01116Y01365D03*
X0105D03*
X01906Y01385D03*
X0184D03*
X01775Y01445D03*
X01708D03*
X0133Y01375D03*
X01396D03*
X01675Y01255D03*
X01741D03*
X01085Y01205D03*
X01151D03*
X00285Y0089D03*
X00218D03*
X00815Y00124D03*
X00881D03*
X0041Y00355D03*
X00343D03*
X0194Y00095D03*
X02006D03*
X02215D03*
X02148D03*
X0125Y01365D03*
X01183D03*
X01708Y01385D03*
X01775D03*
X01845Y01315D03*
X01911D03*
X0171D03*
X01776D03*
X00975Y0048D03*
X01041D03*
X00975Y0054D03*
X01041D03*
X00108Y00175D03*
X00175D03*
Y00235D03*
X00108D03*
X00178Y00294D03*
X00111D03*
X00161Y0078D03*
X00095D03*
G54D12*
X02126Y00665D03*
X01945D03*
X01573Y0066D03*
X01755D03*
X01839Y00805D03*
X0202D03*
X00371Y01795D03*
X0019D03*
X01741Y02955D03*
X0156D03*
G54D14*
X01585Y00365D03*
Y00546D03*
X00535Y02281D03*
Y021D03*
Y01813D03*
Y01995D03*
X02275Y02021D03*
Y0184D03*
X02125Y01166D03*
Y00985D03*
X0036Y00244D03*
Y00063D03*
X0055Y00261D03*
Y0008D03*
G54D24*
X00255Y00181D03*
Y00256D03*
X00655Y00175D03*
Y00249D03*
X01665Y01065D03*
Y0114D03*
X01582Y01065D03*
Y0114D03*
X015Y01065D03*
Y0114D03*
G54D25*
X0101Y02265D03*
X0096D03*
X0091D03*
X0081D03*
X0076D03*
X0071D03*
X01537D03*
X01487D03*
X01437D03*
X01337D03*
X01287D03*
X01237D03*
X02065D03*
X02015D03*
X01965D03*
X01865D03*
X01815D03*
X01765D03*
G54D26*
X0086Y02621D03*
X01387D03*
X01915D03*
G54D31*
X01924Y01194D03*
G54D32*
X01833Y0095D03*
X01924D03*
X02015D03*
G54D33*
X00855Y002D03*
Y00369D03*
G54D34*
X02585Y016D02*
X02595Y0159D01*
X01964Y016D02*
X02295D01*
X01725Y01692D02*
X01964D01*
X01379D02*
X01725D01*
X01125D02*
X01379D01*
X00812D02*
X0104D01*
X00115Y02299D02*
Y0274D01*
X00197Y01786D02*
Y02021D01*
X00747Y01665D02*
X00812Y016D01*
X00451Y01665D02*
X00747D01*
X00385Y01598D02*
X00451Y01665D01*
X00851Y02065D02*
X0091Y02123D01*
X0116Y02065D02*
X01172Y02052D01*
X01015Y02065D02*
X0116D01*
X0139D02*
Y02216D01*
X0145Y02065D02*
Y02252D01*
X01765Y0211D02*
X01767Y02112D01*
X01765Y02065D02*
Y0211D01*
X01719Y02065D02*
X01765D01*
X01717Y02062D02*
X01719Y02065D01*
X01598Y02062D02*
X01717D01*
X01249Y02065D02*
X01287Y02102D01*
Y02207*
X00115Y0274D02*
X0021Y02835D01*
X01596Y02065D02*
X01598Y02062D01*
X01594Y02065D02*
X01596D01*
X01592Y02062D02*
X01594Y02065D01*
X01452Y02062D02*
X01592D01*
X00232Y02056D02*
Y02183D01*
X00214Y02039D02*
X00232Y02056D01*
X00214Y02039D02*
Y02039D01*
X00197Y02021D02*
X00203Y02027D01*
X01249Y02065D02*
X01262D01*
X01237Y02052D02*
X01249Y02065D01*
X01172Y02052D02*
X01237D01*
X01765Y02265D02*
X01767Y02262D01*
Y02112D02*
Y02262D01*
X0145Y02065D02*
X01452Y02062D01*
X01964Y02025D02*
Y02264D01*
X01287Y02265D02*
X01337D01*
X01339Y02266D02*
X01435D01*
X01337Y02265D02*
X01339Y02266D01*
X01435D02*
X01437Y02265D01*
X00851Y02065D02*
X01015D01*
X01964Y016D02*
Y01692D01*
X00812Y016D02*
Y01692D01*
X01437Y02265D02*
X01457D01*
X01765D02*
X01815D01*
X01865*
X01965*
X01985*
X0104Y01692D02*
X0111D01*
X00197Y01786D02*
X00383Y016D01*
X00115Y02299D02*
X00232Y02183D01*
X02295Y016D02*
X02585D01*
X01257Y02265D02*
X01287D01*
X0071Y02127D02*
X00812Y02025D01*
Y02263*
X0081Y02265D02*
X00812Y02263D01*
Y02025D02*
X00851Y02065D01*
X01262D02*
X0139D01*
X0145*
X01437Y02265D02*
X0145Y02252D01*
X0071Y02265D02*
X0076D01*
X0081*
X0091*
X02205Y00481D02*
X02264D01*
X02269Y00485D02*
Y0054D01*
X0071Y02127D02*
Y02265D01*
X0091Y02123D02*
Y02265D01*
X01257Y02237D02*
Y02265D01*
Y02237D02*
X01287Y02207D01*
X01339Y02266D02*
X0139Y02216D01*
X01865Y02124D02*
Y02265D01*
G54D35*
X026Y02565D02*
X02655Y0251D01*
X00507Y01786D02*
X00516Y01795D01*
X01715Y02173D02*
Y02305D01*
Y02173D02*
X01727Y0216D01*
Y02129D02*
Y0216D01*
X0212Y0218D02*
Y02228D01*
X02015Y02075D02*
X0212Y0218D01*
X01964Y02025D02*
X02015Y02075D01*
Y02265*
X01585Y00365D02*
Y0037D01*
X01549Y0016D02*
X0161D01*
X01549Y00329D02*
X01585Y00365D01*
X00611Y02281D02*
X00625Y02295D01*
X01087Y01825D02*
X01101Y0184D01*
X01087Y01813D02*
Y01825D01*
X00535Y01813D02*
X01087D01*
X00614Y01912D02*
X00615Y01911D01*
Y01893D02*
Y01911D01*
X00535Y01813D02*
X00615Y01893D01*
X02024Y02274D02*
Y02305D01*
X0168Y02885D02*
X01741Y02946D01*
X00635Y02309D02*
Y0233D01*
Y02365*
X00535Y02281D02*
X00605D01*
X00611*
X01246Y0016D02*
X01549D01*
Y00329*
X0246Y02565D02*
X026D01*
X0239Y02635D02*
Y0288D01*
Y02635D02*
X0246Y02565D01*
X01585Y0037D02*
X01694D01*
X00535Y0227D02*
Y02281D01*
Y0227D02*
X00614Y0219D01*
Y01912D02*
Y0219D01*
X00371Y01795D02*
X0038D01*
X00388Y01786*
X00507*
X00385Y01385D02*
Y01598D01*
X01715Y02305D02*
X02024D01*
X00625Y02295D02*
Y023D01*
X00635Y02309*
G54D36*
X01174Y01768D02*
Y01838D01*
X01655Y01245D02*
X0167Y0126D01*
X0202Y00806D02*
X02144D01*
X01113Y01545D02*
Y01689D01*
X0047Y00981D02*
Y01D01*
X0023Y00886D02*
Y0089D01*
X0051Y00665D02*
X00595Y0075D01*
X0058Y00665D02*
X0061Y00695D01*
X00511Y00664D02*
X00578Y00596D01*
X00585Y00555D02*
X00615Y00585D01*
X00578Y00565D02*
Y00596D01*
X00571Y00038D02*
X00645D01*
X0051Y00665D02*
X00511Y00664D01*
X0051Y00663D02*
Y00665D01*
X00468Y00565D02*
X0051Y00606D01*
X00401Y00773D02*
X00486Y00688D01*
X00395Y00674D02*
X005D01*
X00245Y0006D02*
X00265D01*
X01385Y02618D02*
X01387Y02621D01*
X01186Y0242D02*
X01385Y02618D01*
X01186Y02207D02*
Y0242D01*
Y02207D02*
X0121Y02184D01*
Y02135D02*
Y02184D01*
X01022Y02077D02*
Y02155D01*
Y02077D02*
X01025Y02075D01*
X01405Y01942D02*
X01438Y01975D01*
X01405Y01889D02*
Y01942D01*
X01015Y02065D02*
X01025Y02075D01*
X02291Y00415D02*
X02321Y00384D01*
X0229Y00415D02*
Y00425D01*
X02321Y00331D02*
Y00384D01*
X02236Y00246D02*
X02321Y00331D01*
X02236Y00138D02*
Y00246D01*
Y00138D02*
X02248Y00126D01*
Y0007D02*
Y00126D01*
X02196Y00018D02*
X02248Y0007D01*
X01211Y00018D02*
X02196D01*
X0118Y0005D02*
X01211Y00018D01*
X00835Y0005D02*
X0118D01*
X00258Y00858D02*
X00322D01*
X0023Y00886D02*
X00258Y00858D01*
X01121Y01369D02*
X01178D01*
X01183Y01365*
X01116D02*
X01121Y01369D01*
X01319Y00936D02*
X01333Y0095D01*
X013Y00936D02*
X01319D01*
X01266Y0097D02*
X013Y00936D01*
X01335Y00685D02*
X01425D01*
X01454D02*
X0152D01*
X0145Y00689D02*
X01454Y00685D01*
X01429Y00689D02*
X0145D01*
X01425Y00685D02*
X01429Y00689D01*
X01333Y0095D02*
X01365D01*
X01151Y01119D02*
X01265Y01006D01*
X01635Y01245D02*
X01655D01*
X01555Y01265D02*
Y0134D01*
X01618Y01276D02*
Y01446D01*
X0161Y01269D02*
X01618Y01276D01*
X0161Y01194D02*
Y01269D01*
X01353Y01243D02*
X0138D01*
X01348Y01238D02*
X01353Y01243D01*
X01348Y01237D02*
Y01238D01*
X01334Y01223D02*
X01348Y01237D01*
X01314Y01223D02*
X01334D01*
X01313Y01223D02*
X01314Y01223D01*
X01278Y01223D02*
X01313D01*
X01266Y0097D02*
Y00995D01*
X01265Y0121D02*
X01278Y01223D01*
X01735Y0086D02*
Y0107D01*
X01746Y01081*
X00395Y00674D02*
Y00766D01*
X00401Y00773*
X00135Y004D02*
X0014D01*
X0015Y0041*
X0081Y0006D02*
X00874Y00124D01*
X00647Y00035D02*
X00694D01*
X00645Y00038D02*
X00647Y00035D01*
X00694D02*
X00699Y0003D01*
X01175Y00674D02*
X01214Y00635D01*
X01175Y0071D02*
X012Y00735D01*
X01175Y00674D02*
Y0071D01*
X01297Y00685D02*
Y00767D01*
X0128Y00785D02*
X01297Y00767D01*
X01236Y00785D02*
X0128D01*
X01297Y00685D02*
X01335D01*
X02268Y00485D02*
X02269D01*
X011Y0146D02*
X01106Y01466D01*
X00485Y00986D02*
X0058D01*
Y01045D02*
X00655Y0112D01*
X0058Y00986D02*
Y01045D01*
X00444Y01025D02*
X0047Y01D01*
X00386Y01025D02*
X00444D01*
X00351Y00886D02*
Y00898D01*
X00322Y00858D02*
X00351Y00886D01*
X01196Y01899D02*
Y01901D01*
X0109Y01509D02*
X01096Y01502D01*
X0161Y01194D02*
X01665Y0114D01*
X0037Y0097D02*
X00375D01*
X00635Y00804D02*
X00637Y00806D01*
X00634Y00804D02*
X00635D01*
X0062Y0079D02*
X00634Y00804D01*
X0062Y00775D02*
Y0079D01*
X00595Y0075D02*
X0062Y00775D01*
X01765Y01085D02*
Y0111D01*
X01761Y01081D02*
X01765Y01085D01*
X0087Y0095D02*
X00885D01*
X00838Y00981D02*
X0087Y0095D01*
X00341Y00979D02*
X00386Y01025D01*
X00341Y0096D02*
Y00979D01*
X00345Y00393D02*
X00351D01*
X00095Y00395D02*
Y00463D01*
X001Y00468*
X00195Y00137D02*
X00208Y0015D01*
X00195Y00109D02*
Y00137D01*
Y00109D02*
X00245Y0006D01*
X00208Y0015D02*
Y00199D01*
X00699Y0003D02*
X00788D01*
X0081Y00052*
X00874Y00124D02*
X00881D01*
X0081Y00052D02*
Y0006D01*
X01926Y0137D02*
D01*
X01196Y01899D02*
X01211Y01883D01*
X01303Y01883D02*
Y01941D01*
X0133Y0184D02*
Y01904D01*
X0133Y01905D02*
X0133Y01904D01*
X01294Y01985D02*
Y02032D01*
X01211Y0184D02*
Y01883D01*
X01585Y01545D02*
X01586Y01544D01*
X02175Y0218D02*
Y0222D01*
Y0218D02*
X0218Y02185D01*
X02175Y0222D02*
X0218Y02225D01*
X00516Y01795D02*
X00535Y01813D01*
X01397Y00546D02*
X01411D01*
X00635Y0075D02*
X0065D01*
X00595D02*
X00635D01*
Y0073D02*
X0064Y00725D01*
X00635Y0073D02*
Y0075D01*
X01896Y01395D02*
X01906Y01385D01*
X01873Y01395D02*
X01896D01*
X01495Y0134D02*
X01555D01*
X00341Y0096D02*
X00351Y0095D01*
Y00898D02*
Y0095D01*
X00375Y0097D02*
X00396Y00991D01*
X01865Y01426D02*
X01873Y01418D01*
X01846Y01445D02*
X01865Y01426D01*
X01888Y0145*
X01895*
X02255Y0099D02*
X0227Y00975D01*
Y00886D02*
Y00975D01*
X02185Y0092D02*
X02255Y0099D01*
X02185Y00775D02*
Y0092D01*
X0167Y0126D02*
X01675Y01255D01*
X0032Y00393D02*
X00345D01*
X00206Y0089D02*
X00218D01*
X00155Y00941D02*
X00206Y0089D01*
X0058Y00986D02*
X00585Y00981D01*
X00655*
X0048Y00991D02*
X00485Y00986D01*
X02024Y02274D02*
X02038Y02288D01*
X02015Y02265D02*
X02024Y02274D01*
X01077Y00212D02*
X01125Y0026D01*
X0096Y00212D02*
X01077D01*
X01423Y02009D02*
X01438Y01994D01*
Y01975D02*
Y01994D01*
X01423Y02009D02*
Y02038D01*
X01152Y0184D02*
X01172D01*
X01133D02*
X01152D01*
X01262Y02065D02*
X01294Y02032D01*
X00195Y00206D02*
Y00215D01*
Y00206D02*
X00201D01*
X00208Y00199*
X00175Y00235D02*
X00195Y00215D01*
X00213Y00286D02*
X0032Y00393D01*
X00213Y00272D02*
Y00286D01*
X00176Y00235D02*
X00213Y00272D01*
X0047Y00981D02*
X0048Y00991D01*
X0175Y01346D02*
X01803D01*
X0181Y01339*
Y01315D02*
Y01339D01*
X02015Y0095D02*
X0209D01*
X02125Y00985*
X0213Y0099*
X02255*
X01873Y01395D02*
Y01418D01*
X01906Y01385D02*
X01911Y0138D01*
Y01315D02*
Y0138D01*
X01775Y01445D02*
X01846D01*
X00175Y00235D02*
X00176D01*
X0036Y00098D02*
X00455Y00193D01*
X0036Y00063D02*
Y00098D01*
X01911Y01315D02*
X01971Y01255D01*
X00396Y00991D02*
X0042D01*
X02205Y00431D02*
X02211Y00425D01*
X0229*
X01423Y02038D02*
X0145Y02065D01*
X01174Y01768D02*
X01176D01*
X01172Y0184D02*
X01174Y01838D01*
X01133Y0184D02*
X01133Y0184D01*
X02038Y02288D02*
Y02314D01*
X01665Y0114D02*
X01735Y0107D01*
X0171Y01315D02*
X01743D01*
Y01339*
X0175Y01346*
X0181Y01315D02*
X01845D01*
X01636Y01328D02*
Y01329D01*
Y01328D02*
X0165Y01315D01*
X0171*
X00918Y0017D02*
X0096Y00212D01*
X00918Y00157D02*
Y0017D01*
X00911Y0015D02*
X00918Y00157D01*
X00898Y0015D02*
X00911D01*
X00881Y00134D02*
X00898Y0015D01*
X00881Y00124D02*
Y00134D01*
X00855Y00369D02*
X00945Y00279D01*
X0096*
X00815Y0016D02*
X00855Y002D01*
X00815Y00124D02*
Y0016D01*
X00108Y00175D02*
Y00235D01*
X00111Y00238D02*
Y00294D01*
X00108Y00235D02*
X00111Y00238D01*
X00546Y00063D02*
X00571Y00038D01*
X0036Y00063D02*
X00546D01*
X00344Y00048D02*
X0036Y00063D01*
X00265Y00048D02*
X00344D01*
X01725Y016D02*
Y01692D01*
X01045Y0159D02*
Y01687D01*
X0104Y01692D02*
X01045Y01687D01*
X01746Y01081D02*
X01761D01*
X01314Y00629D02*
X01397Y00546D01*
X0202Y00805D02*
Y00806D01*
X02144D02*
X02176Y00775D01*
X02185*
X00155Y00941D02*
X00323D01*
X00341Y0096*
X00578Y00555D02*
X00585D01*
X00615Y00585D02*
Y0069D01*
X0061Y00695D02*
X00615Y0069D01*
X00578Y0052D02*
Y00555D01*
Y00565*
X0061Y00695D02*
X0064Y00725D01*
X00655Y00981D02*
Y0112D01*
X0069Y01155*
X0048Y00991D02*
Y0104D01*
X00595Y01155*
X0069*
X00655Y00981D02*
X00838D01*
X00578Y0052D02*
X00606D01*
X0061Y00516*
X00619*
X00622Y00513*
X00644*
X00512Y00665D02*
X00535Y00688D01*
X0051Y00665D02*
X00512D01*
X0058*
X00488Y00641D02*
X0051Y00663D01*
X00511Y00664*
X00512Y00665*
X0051Y00606D02*
Y00663D01*
X005Y00674D02*
X0051Y00665D01*
X00351Y00898D02*
X00366D01*
X004Y00864*
X00438Y00557D02*
X0046D01*
X00432Y00551D02*
X00438Y00557D01*
X00432Y00551D02*
X00433Y00549D01*
X00415D02*
X00433D01*
X01655Y02461D02*
Y0247D01*
X00218Y0089D02*
X0023D01*
X00265Y00048D02*
Y0006D01*
X02255Y0099D02*
X02295Y0103D01*
X02275Y0184D02*
X02295Y01819D01*
X0015Y0041D02*
Y00468D01*
X01151Y01119D02*
Y01205D01*
X02009Y00955D02*
Y01157D01*
Y00955D02*
X02015Y0095D01*
X02009Y01157D02*
X02015Y01163D01*
X0131Y0184D02*
Y01876D01*
X01303Y01883D02*
X0131Y01876D01*
X01971Y01255D02*
X01998D01*
X02015Y01238*
Y01163D02*
Y01238D01*
X00462Y00559D02*
X00468Y00565D01*
X02264Y00481D02*
X02268Y00485D01*
X01983Y0138D02*
X0203D01*
X0204*
X02295Y0103D02*
Y016D01*
Y01819*
X00351Y00393D02*
X00423Y00464D01*
Y00488*
X00468Y00565D02*
X00578D01*
X0219Y0184D02*
X02275D01*
X013Y01945D02*
X01301Y01946D01*
X0131Y00633D02*
X01314Y00629D01*
X01236Y00685D02*
X01297D01*
X01045Y01523D02*
D01*
X01058Y01509D02*
X0109D01*
X01045Y01523D02*
X01058Y01509D01*
X01136Y0143D02*
Y01431D01*
X01405Y01889D02*
X01408Y01886D01*
Y0184D02*
Y01886D01*
X01487Y02327D02*
X01515Y02355D01*
X01487Y02265D02*
Y02327D01*
X01515Y02355D02*
X01555D01*
X0161Y02409D02*
Y02425D01*
X01655Y0247*
X01555Y02355D02*
X0161Y02409D01*
X0112Y0247D02*
X01125D01*
X01075Y02425D02*
X0112Y0247D01*
X01075Y02385D02*
Y02425D01*
X01045Y02355D02*
X01075Y02385D01*
X00985Y02355D02*
X01045D01*
X0096Y0233D02*
X00985Y02355D01*
X0108Y01484D02*
X01131D01*
X01096Y01502D02*
X01124D01*
X01133Y01511*
Y01545*
X01131Y01484D02*
X01152Y01505D01*
Y01545*
X01136Y01431D02*
X01188Y01483D01*
Y01499*
X01192Y01503*
Y01545*
X01586Y01477D02*
Y01544D01*
Y01477D02*
X01618Y01446D01*
X01931Y01375D02*
X01934Y01378D01*
X01985*
X01983Y0138D02*
X01985Y01378D01*
X0192Y01375D02*
X01931D01*
X0096Y02265D02*
Y0233D01*
X00255Y00486D02*
Y00528D01*
X0229Y00415D02*
X02291D01*
X01301Y01946D02*
X01305Y01942D01*
X01303Y01941D02*
X01305Y01942D01*
G54D37*
X0105Y01375D02*
X01137Y01287D01*
X00659Y00501D02*
X0069D01*
X002Y00484D02*
X00206D01*
X01251Y008D02*
X0136D01*
X01236Y00785D02*
X01251Y008D01*
X00688Y00556D02*
X00766D01*
X00686D02*
X00688D01*
Y00537D02*
X00917D01*
X00686D02*
X00688D01*
Y00576D02*
X0071D01*
X00686D02*
X00688D01*
X01105Y02165D02*
Y02235D01*
X0108Y01905D02*
Y0198D01*
X01659Y0218D02*
Y02249D01*
X01566Y01921D02*
X01626Y01981D01*
X0108Y01905D02*
X01085Y019D01*
X01105Y02235D02*
X01115Y02245D01*
X01659Y02249D02*
X0166Y0225D01*
X0111D02*
X01125Y02265D01*
X01542Y00857D02*
Y01095D01*
X01665Y00986D02*
Y01065D01*
X0005Y0095D02*
X00106D01*
X0013Y00974*
X00145*
X00152Y00982*
X00256Y008D02*
Y00813D01*
X00283Y00786D02*
X00312Y00757D01*
X0027Y00786D02*
X00283D01*
X00256Y008D02*
X0027Y00786D01*
X0028Y0081D02*
Y00815D01*
X00258Y00836D02*
X0028Y00815D01*
Y0081D02*
X00285D01*
X0029Y00815*
X00035Y00835D02*
Y00845D01*
X0007Y00812D02*
X00095D01*
X0005Y00791D02*
X0007Y00812D01*
X0005Y00661D02*
Y00791D01*
X0001Y00774D02*
X0011Y00875D01*
X00035Y00845D02*
X0005Y0086D01*
Y00883*
X00213Y00811D02*
X00222Y0082D01*
X00095Y00811D02*
X00213D01*
X00095Y00812D02*
X00095Y00811D01*
X00249Y0082D02*
X00256Y00813D01*
X00222Y0082D02*
X00249D01*
X0001Y00605D02*
Y00774D01*
X0011Y00875D02*
X00155D01*
X00324Y00834D02*
X00355Y00865D01*
X00304Y00834D02*
X00324D01*
X0023Y0079D02*
Y00795D01*
X00175Y00735D02*
X0023Y0079D01*
X00193Y00836D02*
X00258D01*
X0029Y00815D02*
X00312Y00792D01*
X00333*
X00355Y00865D02*
X0037D01*
X00384Y00851*
Y00841D02*
Y00851D01*
X01625Y0184D02*
Y01881D01*
X01663Y0192*
X01665*
X01674Y01896D02*
X017Y01921D01*
Y01935*
X01662Y01896D02*
X01674D01*
X01645Y01878D02*
X01662Y01896D01*
X0105Y01365D02*
Y01375D01*
X0119Y0128D02*
X01194Y01284D01*
Y01296*
X01208Y01333D02*
X01217Y01342D01*
X01208Y0131D02*
Y01333D01*
X01194Y01296D02*
X01208Y0131D01*
X01183Y01365D02*
X01201D01*
X01211Y01406D02*
Y01409D01*
X01186Y0128D02*
X0119D01*
X01155Y01287D02*
X01166Y01275D01*
Y0127D02*
Y01275D01*
X0118Y01256D02*
X01218D01*
X01265Y0121*
X01166Y0127D02*
X0118Y01256D01*
X01137Y01287D02*
X01155D01*
X01315Y00965D02*
X0136Y0101D01*
X01313Y00966D02*
X01315Y00965D01*
X01567Y0105D02*
X01582Y01065D01*
X01567Y01016D02*
Y0105D01*
Y01016D02*
X0158Y01004D01*
Y00986D02*
Y01004D01*
X0154Y00855D02*
X01542Y00857D01*
X015Y00986D02*
Y01065D01*
X0138Y0131D02*
Y01333D01*
X0139Y01344*
X01423*
X01497Y01142D02*
Y01254D01*
X01555Y0123D02*
X01582D01*
X01497Y01254D02*
X01503Y0126D01*
Y01301*
X0158Y01301D02*
X01601Y01323D01*
X0158Y01301D02*
X01582Y01299D01*
Y0123D02*
Y01299D01*
X01423Y01344D02*
X01429Y0135D01*
X01497Y01307D02*
X01503Y01301D01*
X0147Y01307D02*
X01497D01*
X01464Y01313D02*
X0147Y01307D01*
X01404Y01277D02*
X01445Y01318D01*
X01265Y01006D02*
Y0121D01*
Y00996D02*
Y01006D01*
Y00996D02*
X01266Y00995D01*
X00175Y00605D02*
Y00735D01*
X00165Y00595D02*
X00175Y00605D01*
X00115Y00595D02*
X00165D01*
X001Y0061D02*
X00115Y00595D01*
X001Y0061D02*
Y00661D01*
X00095Y0078D02*
X001Y00775D01*
Y00661D02*
Y00775D01*
X00125Y00743D02*
X00161Y0078D01*
X00125Y00735D02*
Y00743D01*
Y00735D02*
X0015Y0071D01*
Y00661D02*
Y0071D01*
X00233Y00694D02*
X00335D01*
X002Y00661D02*
X00233Y00694D01*
X00155Y00875D02*
X00193Y00836D01*
X00312Y00727D02*
Y00757D01*
Y00727D02*
X00325Y00714D01*
X00335*
X00045Y0057D02*
X00295D01*
X0012Y0035D02*
X00125Y00345D01*
X00045Y00463D02*
X0005Y00468D01*
X00045Y00381D02*
Y00463D01*
Y00381D02*
X00076Y0035D01*
X0012*
X002Y0043D02*
Y00468D01*
X0018Y0041D02*
X002Y0043D01*
X0018Y00365D02*
Y0041D01*
X0014Y00325D02*
X0018Y00365D01*
X00084Y00325D02*
X0014D01*
X00074Y00315D02*
X00084Y00325D01*
X00045Y00315D02*
X00074D01*
X002Y00495D02*
X00233Y00528D01*
X002Y00484D02*
Y00495D01*
X0001Y00605D02*
X00045Y0057D01*
X00645Y00118D02*
Y00125D01*
X0058Y00179D02*
X00634Y00125D01*
X00645Y00105D02*
Y00118D01*
X0055Y00261D02*
Y0038D01*
Y00241D02*
Y00261D01*
Y00241D02*
X00558Y00249D01*
X00335Y00517D02*
X00346D01*
X00333D02*
X00335D01*
X00688D02*
X00717D01*
X00675D02*
X00688D01*
X01214Y00635D02*
X01236D01*
X01136D02*
X01214D01*
X00688Y00792D02*
X00742D01*
X00686D02*
X00688D01*
Y00674D02*
X00718D01*
X0073Y0006D02*
Y001D01*
X0055Y00241D02*
X0058Y00211D01*
Y00179D02*
Y00211D01*
X00385Y00269D02*
X004Y00283D01*
X00361Y00269D02*
X00385D01*
X004Y00285D02*
X00502Y00387D01*
X004Y00283D02*
Y00285D01*
X00292Y00528D02*
X00307Y00513D01*
X00306Y00512D02*
X00307Y00513D01*
X00306Y0045D02*
Y00512D01*
X00443Y00826D02*
Y00841D01*
X00482D02*
Y00922D01*
X0045Y00887D02*
X00462Y00874D01*
X0048Y00925D02*
X00482Y00922D01*
X00403Y00775D02*
Y00841D01*
X01159Y01945D02*
X01239D01*
X0118Y0193D02*
X01233D01*
X01167Y01917D02*
X0118Y0193D01*
X0114Y01965D02*
X01159Y01945D01*
X0114Y01965D02*
Y01965D01*
X01191Y01841D02*
Y01873D01*
X01182Y01881D02*
X01191Y01873D01*
X01073Y01881D02*
X01182D01*
X00878Y01436D02*
X0095Y01365D01*
X00878Y01436D02*
Y01439D01*
X00864Y01453D02*
X00878Y01439D01*
X00861Y01453D02*
X00864D01*
X00812Y01503D02*
X00861Y01453D01*
X01268Y01365D02*
X01355Y01277D01*
X01489Y0151D02*
X0149Y01511D01*
X01601Y01323D02*
Y01439D01*
X01635Y01329D02*
Y01453D01*
X01683Y01445D02*
X01708D01*
X01669Y01463D02*
X01683Y01449D01*
X0165Y01463D02*
X01669D01*
X01649Y01462D02*
X0165Y01463D01*
X01648Y01462D02*
X01649D01*
X01585Y0138D02*
Y01433D01*
X01369Y01545D02*
X0137D01*
X01425Y01495D02*
Y01542D01*
X01428Y01545*
X01476Y01388D02*
X01495Y01406D01*
X00403Y00841D02*
Y00861D01*
X00285Y0089D02*
X0032D01*
X00896Y00654D02*
X00926Y00685D01*
X00889Y0067D02*
X0092Y00701D01*
X0083Y00721D02*
Y0073D01*
X00794Y00686D02*
X0083Y00721D01*
X00793Y0067D02*
X00889D01*
X00799Y00654D02*
X00896D01*
X00761Y00719D02*
X00781Y0074D01*
X00783*
X00761Y00718D02*
Y00719D01*
X00718Y00674D02*
X00761Y00718D01*
X00757Y00612D02*
X00799Y00654D01*
X00734Y00612D02*
X00793Y0067D01*
X00786Y00686D02*
X00794D01*
X00718Y00618D02*
X00786Y00686D01*
X0078Y0079D02*
X00823D01*
X0083Y00796*
X00745Y00299D02*
X00764D01*
X0062Y00424D02*
Y00488D01*
X00784Y00361D02*
X00792Y00369D01*
X00687Y00379D02*
Y0039D01*
X00705Y00361D02*
X00784D01*
X00687Y00379D02*
X00705Y00361D01*
X0062Y00424D02*
X00745Y00299D01*
X00757Y00584D02*
Y00612D01*
Y00584D02*
X00771Y0057D01*
Y00561D02*
Y0057D01*
X00635Y00535D02*
Y0055D01*
X00629Y0053D02*
X00635Y00535D01*
X00645Y0078D02*
X00655D01*
X0065Y0075D02*
X00674Y00773D01*
X00359Y0053D02*
Y00562D01*
X00385Y00588D02*
Y00595D01*
X00359Y00562D02*
X00385Y00588D01*
Y00545D02*
Y00555D01*
X00375Y00535D02*
X00385Y00545D01*
X00306Y0045D02*
X0032Y00436D01*
X00345Y0041D02*
X00403Y00468D01*
X0022Y0012D02*
Y00125D01*
X00234Y00139*
X00165Y0012D02*
Y00165D01*
X00175Y00175*
X00655D02*
X0073Y001D01*
X00855Y002D02*
Y00208D01*
X00764Y00299D02*
X00855Y00208D01*
X01167Y019D02*
Y01917D01*
X01239Y01945D02*
X01269Y01916D01*
X01233Y0193D02*
X01253Y01909D01*
X01085Y019D02*
X01167D01*
X01353Y0189D02*
Y01914D01*
X01285Y0188D02*
Y01922D01*
X01269Y01883D02*
Y01916D01*
X01265Y0188D02*
X01269Y01883D01*
X01253Y0189D02*
Y01909D01*
X01247Y01884D02*
X01253Y0189D01*
X01247Y01875D02*
Y01884D01*
Y01875D02*
X01251Y01872D01*
Y0184D02*
Y01872D01*
X01364Y01975D02*
Y01981D01*
X01445Y0194D02*
X01453Y01931D01*
X0144Y0194D02*
X01445D01*
X01493Y01941D02*
Y01953D01*
X01491Y01876D02*
Y019D01*
X0149Y01875D02*
X01491Y01876D01*
X0149Y01872D02*
Y01875D01*
X01507Y0184D02*
Y01894D01*
X01493Y01953D02*
X01515Y01975D01*
X0143Y01841D02*
Y019D01*
X01349Y0184D02*
Y01886D01*
X01353Y0189*
X01285Y0188D02*
X01286Y01879D01*
X01265Y0188D02*
X01267Y01879D01*
X01265Y0188D02*
D01*
X01428Y0184D02*
X0143Y01841D01*
X0156Y02955D02*
X01563Y02951D01*
X01593Y0284D02*
X01625D01*
X01563Y0287D02*
X01593Y0284D01*
X01563Y0287D02*
Y02951D01*
X01487Y01515D02*
X0149Y01512D01*
Y01511D02*
Y01512D01*
X02176Y02295D02*
X0218Y02291D01*
X0212Y02295D02*
X02176D01*
X0209Y02265D02*
X0212Y02295D01*
X02065Y02265D02*
X0209D01*
X01645Y0184D02*
Y01878D01*
X01335Y00685D02*
Y00694D01*
X01329Y007D02*
X01335Y00694D01*
X01329Y007D02*
Y00759D01*
X01335Y00765*
X0136*
Y008*
X00805Y00762D02*
X00855D01*
X00783Y0074D02*
X00805Y00762D01*
X01469Y01005D02*
Y01025D01*
X01464Y0101D02*
X01469Y01005D01*
X00395Y01375D02*
X00595D01*
X00722Y01362D02*
X0074Y0138D01*
X0068Y01362D02*
X00722D01*
X00667Y01375D02*
X0068Y01362D01*
X00595Y01375D02*
X00667D01*
X00398Y00526D02*
X00412Y0054D01*
X00398Y00526D02*
X00412Y00512D01*
Y0051D02*
Y00512D01*
X00343Y00391D02*
X00345Y00393D01*
X00343Y00355D02*
Y00391D01*
X00455Y0026D02*
Y00315D01*
X0036Y00271D02*
X00361Y00269D01*
X0036Y00244D02*
Y00271D01*
X00698Y00901D02*
X00725D01*
X00661Y00864D02*
X00698Y00901D01*
X00644Y00864D02*
X00661D01*
X0058Y0088D02*
X00655D01*
X0058Y0088D02*
X0058Y0088D01*
X00655D02*
Y00915D01*
X00717Y00517D02*
X0074Y00495D01*
X0053Y0088D02*
X0058D01*
Y0092*
X0147Y0198D02*
X01475D01*
X01467Y01977D02*
X0147Y0198D01*
X0123Y019D02*
X01231Y01898D01*
X0095Y01365D02*
X0105D01*
X00812Y01503D02*
Y016D01*
X00412Y00547D02*
X00415Y00549D01*
X00412Y0054D02*
Y00547D01*
X0049Y00536D02*
Y00539D01*
X00655Y0078D02*
X00662Y00787D01*
X00295Y0057D02*
X00333Y00576D01*
X01041Y00471D02*
Y0048D01*
X00855Y00762D02*
X0089Y00728D01*
X01041Y0054D02*
X01136Y00635D01*
X01041Y0048D02*
Y0054D01*
X00234Y00139D02*
Y00141D01*
X0024Y00147*
X00242*
X00255Y0016*
Y00181*
X00346Y00208D02*
X00359Y00221D01*
X00346Y00196D02*
Y00208D01*
X00265Y00115D02*
X00346Y00196D01*
X00734Y006D02*
Y00612D01*
X0071Y00576D02*
X00734Y006D01*
X00718Y00606D02*
Y00618D01*
X00766Y00556D02*
X00958D01*
X00766D02*
X00771Y00561D01*
X01775Y01385D02*
X0184D01*
X0125Y01365D02*
X01268D01*
X01355Y01277D02*
X01404D01*
X00214Y02039D02*
X0026Y02085D01*
X00203Y02027D02*
X00214Y02039D01*
X01497Y01142D02*
X015Y0114D01*
X01741Y02946D02*
Y02955D01*
X0042Y00925D02*
X0048D01*
X0095Y00795D02*
X01033D01*
X01043Y00785*
X0036Y00221D02*
Y00244D01*
X01231Y0184D02*
Y01898D01*
X01191Y01841D02*
X01192Y0184D01*
X01022Y01932D02*
X01073Y01881D01*
X01022Y01932D02*
Y01981D01*
X0101Y02265D02*
X01076Y02331D01*
X01125*
X01604D02*
X01655D01*
Y02403*
X01125Y02331D02*
Y02403D01*
X01469Y00855D02*
X0147Y00855D01*
X0157Y01127D02*
X01582Y0114D01*
X0157Y01101D02*
Y01127D01*
X01548Y01101D02*
X0157D01*
X01542Y01095D02*
X01548Y01101D01*
X01459Y01099D02*
X015Y0114D01*
X01459Y01035D02*
Y01099D01*
Y01035D02*
X01469Y01025D01*
X01577Y01372D02*
X01585Y0138D01*
X01467Y01544D02*
X01467Y01545D01*
X00255Y00256D02*
X00266Y00244D01*
X0036*
X00558Y00249D02*
X00655D01*
X00293Y0041D02*
X00345D01*
X01043Y00604D02*
Y00635D01*
X01009Y0057D02*
X01043Y00604D01*
X01009Y00514D02*
Y0057D01*
X00975Y0048D02*
X01009Y00514D01*
X00917Y00537D02*
X00975Y0048D01*
X00958Y00556D02*
X00975Y0054D01*
X00926Y00685D02*
X01043D01*
X0092Y00701D02*
Y00728D01*
X0095*
X01036D02*
X01043Y00735D01*
X0095Y00728D02*
X01036D01*
X0089Y00795D02*
X0095D01*
X01708Y01385D02*
X01708Y01385D01*
X01708Y01385D02*
Y01445D01*
X01644Y01545D02*
X01656Y01533D01*
X01725*
X00535Y01995D02*
Y021D01*
X0026Y02085D02*
X0052D01*
X00535Y021*
X01582Y0114D02*
Y0123D01*
X00412Y00547D02*
Y00657D01*
X00655Y00915D02*
X00674Y00934D01*
X00749*
X00755Y00928*
X0075Y00773D02*
X00783Y0074D01*
X00755Y00805D02*
Y00928D01*
X0075Y00773D02*
Y008D01*
X00755Y00805*
X00398Y00524D02*
Y00526D01*
X0074Y00428D02*
Y00437D01*
X00645Y00512D02*
X00646D01*
X00644Y00513D02*
X00645Y00512D01*
X00707Y00469D02*
Y00484D01*
Y00469D02*
X0074Y00437D01*
X00792Y00369D02*
X00855D01*
X00395Y00674D02*
X00412Y00657D01*
X00403Y00468D02*
Y00488D01*
X01005Y00435D02*
X01041Y00471D01*
X0136Y0101D02*
X01464D01*
X01487Y01515D02*
Y01545D01*
X01486Y01841D02*
X01487Y0184D01*
X01486Y01841D02*
Y01868D01*
X0149Y01872*
X01389Y0184D02*
Y0188D01*
X01387Y01881D02*
X01389Y0188D01*
X0129Y0184D02*
Y01872D01*
X0127Y0184D02*
Y01872D01*
X01286Y01876D02*
X0129Y01872D01*
X01286Y01876D02*
Y01879D01*
X01267Y01876D02*
Y01879D01*
Y01876D02*
X0127Y01872D01*
X0058Y00488D02*
Y00518D01*
X00578Y0052D02*
X0058Y00518D01*
X006Y0043D02*
Y00488D01*
X0055Y0038D02*
X006Y0043D01*
X00629Y0053D02*
X00647D01*
X00648Y0053*
X00661*
X00675Y00517*
X00648Y0051D02*
X00659D01*
X00646Y00512D02*
X00648Y0051D01*
X00659Y00501D02*
Y0051D01*
X0069Y00501D02*
X00707Y00484D01*
X00659Y00488D02*
Y00501D01*
X00638Y00438D02*
X00687Y0039D01*
X00638Y00438D02*
X00639Y00439D01*
Y00488*
X00455Y00315D02*
X00561Y00421D01*
Y00488*
X00502Y00387D02*
Y00488D01*
X00462D02*
Y00559D01*
X00443Y00488D02*
Y00516D01*
X00435Y00525D02*
X00443Y00516D01*
Y00388D02*
Y00488D01*
X0041Y00355D02*
X00443Y00388D01*
X00423Y00488D02*
Y00499D01*
X00412Y0051D02*
X00423Y00499D01*
X00346Y00517D02*
X00359Y0053D01*
X00375Y00523D02*
Y00535D01*
X00384Y00488D02*
Y0051D01*
X00391Y00517*
Y00519*
X00398Y00526*
X00384Y00478D02*
Y00488D01*
X00364D02*
Y00512D01*
X00375Y00523*
X00401Y00773D02*
X00403Y00775D01*
X00462Y00841D02*
Y00874D01*
X00541Y00841D02*
Y00868D01*
X0053Y0088D02*
X00541Y00868D01*
X00639Y00841D02*
Y00859D01*
X00644Y00864*
X00639Y00808D02*
Y00841D01*
X00637Y00806D02*
X00639Y00808D01*
X00688Y00812D02*
Y00813D01*
X0071Y00835*
X00725*
X00667Y00812D02*
X00688D01*
X00662Y00807D02*
X00667Y00812D01*
X00662Y00787D02*
Y00807D01*
X00674Y00773D02*
X00688D01*
Y00596D02*
X00707D01*
X00718Y00606*
X01469Y00855D02*
Y01005D01*
X00333Y00674D02*
X00335D01*
X00395*
X01489Y0151D02*
D01*
X00539Y00533D02*
X00545Y00539D01*
X0049Y00536D02*
X00519Y00506D01*
X00443Y00826D02*
X0049Y0078D01*
X0056*
X00342Y00436D02*
X00384Y00478D01*
X0032Y00436D02*
X00342D01*
X0117Y01543D02*
X01172Y01545D01*
X0133Y01375D02*
X01335D01*
X0134Y0138*
X01526Y01515D02*
X01529Y01512D01*
X01526Y01515D02*
Y01545D01*
X01512Y01464D02*
Y01489D01*
Y01464D02*
D01*
Y01457D02*
Y01464D01*
X01459Y01406D02*
X01495D01*
X01464Y01388D02*
X01476D01*
X01317Y01481D02*
X0132Y01478D01*
X01289Y0145D02*
X0129Y0145D01*
X0131Y01488D02*
Y01545D01*
X01289Y01544D02*
X0129Y01545D01*
X0133Y01512D02*
Y01545D01*
X01349Y01517D02*
Y01545D01*
X01313Y01481D02*
X01317D01*
X01289Y01455D02*
Y01544D01*
X01336Y01461D02*
Y01506D01*
X0133Y01512D02*
X01336Y01506D01*
X01349Y01517D02*
X01352Y01515D01*
X01215Y01455D02*
X0122Y0146D01*
X01219Y01449D02*
X0122Y0145D01*
X01217Y01342D02*
Y01389D01*
X01201Y01395D02*
X01211Y01406D01*
X01231Y01497D02*
Y01545D01*
X01221Y01487D02*
X01231Y01497D01*
X01221Y0148D02*
Y01487D01*
X0122Y01479D02*
X01221Y0148D01*
X0122Y0146D02*
Y01479D01*
X01237Y0197D02*
X01285Y01922D01*
X012Y0197D02*
X01237D01*
X01334Y01933D02*
X01353Y01914D01*
X01333Y01981D02*
X01334Y0198D01*
Y01933D02*
Y0198D01*
X01387Y01881D02*
Y01977D01*
X01395Y01985*
X01364Y01975D02*
X01369Y01969D01*
Y0184D02*
Y01969D01*
X01507Y01894D02*
X0151Y01897D01*
X01493Y01941D02*
X01494Y01941D01*
X01491Y019D02*
X01494Y01903D01*
X0151Y01897D02*
Y01925D01*
X01566Y01981*
X01494Y01903D02*
Y01941D01*
X01448Y01885D02*
X01453Y0189D01*
X01448Y0184D02*
Y01885D01*
X01453Y0189D02*
Y01931D01*
X01467Y0184D02*
X01469Y01841D01*
X01467Y01939D02*
X01469Y01938D01*
Y01841D02*
Y01938D01*
X01467Y01939D02*
Y01977D01*
X01566Y0184D02*
Y01921D01*
X01537Y02265D02*
X01604Y02331D01*
X01106Y01466D02*
X01137D01*
X01191Y0143D02*
X01211Y01409D01*
X01191Y0143D02*
Y01458D01*
X01214Y01449D02*
X01219D01*
X01217Y01389D02*
X01255Y01426D01*
Y01441*
X01429Y0135D02*
Y01414D01*
X01507Y01494D02*
X01512Y01489D01*
X01507Y01494D02*
Y01545D01*
X01464Y01313D02*
Y01366D01*
X0147Y01372*
X01577*
X01445Y01318D02*
Y01369D01*
X01464Y01388*
X01566Y01481D02*
X0157Y01477D01*
X01566Y01481D02*
Y01545D01*
X01546Y01478D02*
X01554Y01471D01*
X01546Y01478D02*
Y01545D01*
X01529Y01473D02*
X01538Y01464D01*
X01529Y01473D02*
Y01512D01*
X01436Y0143D02*
X01459Y01406D01*
X01436Y0143D02*
Y01469D01*
X0142Y01423D02*
X01429Y01414D01*
X0134Y0138D02*
X01389Y01429D01*
Y01453*
X0126Y0147D02*
X0127Y0148D01*
Y01545*
X01137Y01466D02*
X0117Y01499D01*
Y01543*
X01191Y01458D02*
X01204Y01472D01*
Y01486*
X01205Y01487*
Y01493*
X01211Y01499*
Y01545*
X01236Y0146D02*
X01255Y01441D01*
X0146Y0144D02*
X01465Y01445D01*
X01625Y01485D02*
Y01545D01*
Y01485D02*
X01648Y01462D01*
X01605Y01483D02*
X01635Y01453D01*
X01605Y01483D02*
Y01545D01*
X0157Y01471D02*
X01601Y01439D01*
X0157Y01471D02*
Y01477D01*
X01554Y01464D02*
X01585Y01433D01*
X01554Y01464D02*
Y01471D01*
X01529Y01431D02*
X01555Y01406D01*
X01529Y01431D02*
Y01436D01*
X01538Y01445*
Y01464*
X01512Y01457D02*
X01515Y01455D01*
X01489Y01475D02*
Y0151D01*
X01465Y01445D02*
Y01484D01*
X01467Y01486*
Y01544*
X01436Y01469D02*
X0145Y01482D01*
Y01491*
X01451Y01492*
Y01502*
X01448Y01505D02*
X01451Y01502D01*
X01448Y01505D02*
Y01545D01*
X01425Y01495D02*
X01425Y01495D01*
X0142Y01423D02*
Y01466D01*
X01401Y01485D02*
X0142Y01466D01*
X01401Y01485D02*
Y01504D01*
X01408Y01511*
Y01545*
X0137Y01472D02*
X01389Y01453D01*
X01352Y01468D02*
X0136Y0146D01*
X01352Y01468D02*
Y01515D01*
X01317Y0145D02*
X01325D01*
X01336Y01461*
X01236Y0146D02*
Y01472D01*
X01237Y01473*
Y0148*
X01251Y01494*
Y01545*
X0126Y0147D02*
Y0147D01*
X01289Y01455D02*
X0129Y01455D01*
Y0145D02*
Y01455D01*
X0136Y0145D02*
Y0146D01*
X01352Y0145D02*
X0136D01*
X0131Y00966D02*
X01313D01*
X00255Y00371D02*
Y0042D01*
X00178Y00294D02*
X00255Y00371D01*
X00233Y00528D02*
X00255D01*
X00292*
X00634Y00125D02*
X00645D01*
X00539Y00488D02*
Y00533D01*
X00255Y00371D02*
X00293Y0041D01*
X00359Y00221D02*
X0036D01*
X00385Y01385D02*
X00395Y01375D01*
X0165Y0226D02*
X0166Y0225D01*
X01201Y01365D02*
Y01395D01*
X01289Y0145D02*
Y01455D01*
X0134Y01375D02*
Y0138D01*
X0137Y01472D02*
Y01545D01*
X0111Y0225D02*
X01115Y02245D01*
X0131Y01488D02*
X01317Y01481D01*
X01683Y01445D02*
Y01449D01*
X01215Y01455D02*
X0122Y0145D01*
G54D38*
X01287Y00883D02*
Y00887D01*
Y00883D02*
X01307Y00863D01*
Y00861D02*
Y00863D01*
Y00861D02*
X01327Y00841D01*
X01399*
X01595Y01904D02*
X01659Y01968D01*
X00821Y01407D02*
X01054Y01175D01*
X01399Y00797D02*
Y00841D01*
Y00797D02*
X01418Y00778D01*
X01283Y00891D02*
X01287Y00887D01*
X01373Y00733D02*
X01418Y00778D01*
X01252Y00891D02*
X01283D01*
X01226Y00917D02*
X01252Y00891D01*
X0113Y00969D02*
X01181Y00917D01*
X0113Y00969D02*
Y01105D01*
X0136Y00733D02*
X01373D01*
X0106Y01175D02*
X0113Y01105D01*
X0142Y00779D02*
X01444D01*
X01418Y00778D02*
X0142Y00779D01*
X00805Y01444D02*
X00821Y01428D01*
Y01407D02*
Y01428D01*
X01054Y01175D02*
X0106D01*
X00805Y01444D02*
Y01465D01*
X00758D02*
X00805D01*
X0169Y0074D02*
X01735Y00785D01*
X01558Y00788D02*
X01569Y00776D01*
X0154Y00788D02*
X01558D01*
X01569Y00776D02*
X01595D01*
X01606Y00788*
X01725*
X01659Y01969D02*
X01659Y0197D01*
X01659Y01968D02*
Y01969D01*
X01659Y0197D02*
X01735D01*
X0177Y0189D02*
X0214D01*
X02245Y01995*
X0175Y0191D02*
X0177Y0189D01*
X0175Y0191D02*
Y01955D01*
X01735Y0197D02*
X0175Y01955D01*
X01755Y0066D02*
X0176Y00665D01*
X01891Y00095D02*
X0194D01*
X01805Y00181D02*
X01891Y00095D01*
X01905Y00181D02*
X01955D01*
X01855D02*
X01905D01*
X02155Y00331D02*
X02205D01*
X02155Y00231D02*
X02205D01*
X01705Y00181D02*
Y00231D01*
X01755Y00181D02*
X01805D01*
X01705D02*
X01755D01*
X02155Y00481D02*
X02205D01*
Y00531*
Y00431D02*
Y00481D01*
X02106Y00431D02*
X02155D01*
Y00531D02*
X02205D01*
X02105D02*
X02155D01*
X02105Y00481D02*
Y00531D01*
Y00431D02*
Y00481D01*
X01855D02*
Y00531D01*
Y00431D02*
Y00481D01*
X01805D02*
X01855D01*
X01755Y00431D02*
X01805D01*
X01755Y00481D02*
X01805D01*
X01755Y00431D02*
Y00481D01*
X01705D02*
Y00531D01*
Y00431D02*
Y00481D01*
Y00381D02*
Y00431D01*
X01805Y00531D02*
X01855D01*
X01755D02*
X01805D01*
X01705D02*
X01755D01*
X01805Y00381D02*
X01854D01*
X01755D02*
X01805D01*
X01705D02*
X01755D01*
X01945Y00665D02*
X01955Y00655D01*
X00595Y01441D02*
X00735D01*
X0074Y01446D02*
X00758Y01465D01*
X0106Y01175D02*
X01085Y012D01*
X02035Y01145D02*
X0206D01*
X02081Y01166*
X02125*
X02185Y01226*
X0147Y00788D02*
X0154D01*
X01461Y00796D02*
D01*
X0147Y00788*
X02185Y01226D02*
Y01275D01*
X01735Y00785D02*
Y00793D01*
X01865Y01105D02*
Y01125D01*
X01924Y01185*
X02345Y0231D02*
X028D01*
X02825Y02285*
X02245Y0221D02*
X0226Y02225D01*
X02345Y0231*
X02245Y0221D02*
Y0222D01*
X028Y02225D02*
X02805Y0222D01*
X01181Y00917D02*
X01226D01*
X01444Y00779D02*
X01461Y00796D01*
X01725Y00788D02*
X01727Y00785D01*
X01536Y0184D02*
Y01908D01*
X01595Y01825D02*
Y01904D01*
X02245Y01995D02*
Y0221D01*
X028Y02225D02*
Y0231D01*
G54D39*
X01329Y01768D02*
X01381D01*
X01329Y01615D02*
X01381D01*
X0156Y0056D02*
X01585D01*
X01899Y00865D02*
X0196D01*
X01431Y00811D02*
Y00949D01*
X02147Y01313D02*
X02171D01*
X02126D02*
X02147D01*
X0203D02*
X02126D01*
X02065Y01374D02*
X02126Y01313D01*
X02065Y01374D02*
Y01408D01*
X02147Y01313D02*
X02185Y01275D01*
X02033Y01436D02*
X02037D01*
X0158Y0092D02*
X01655D01*
X01625Y0095D02*
X01655Y0092D01*
X01625Y0095D02*
Y00965D01*
X015Y0092D02*
X01515Y00905D01*
X02205Y01745D02*
X02235Y01715D01*
X02265*
X0221Y0144D02*
X0227Y015D01*
X02148Y00174D02*
X02155Y00181D01*
X02148Y00095D02*
Y00174D01*
X00974Y01455D02*
X01008Y01421D01*
X0091Y01455D02*
X00974D01*
X01529Y00728D02*
X01659D01*
X0152Y00719D02*
X01529Y00728D01*
X0152Y00685D02*
Y00719D01*
X01741Y01223D02*
X01805Y0116D01*
X01741Y01223D02*
Y01255D01*
X0227Y00796D02*
Y0082D01*
X02213Y00739D02*
X0227Y00796D01*
X02079Y00736D02*
X02118Y00775D01*
X01898Y00736D02*
X02079D01*
X01885Y00722D02*
X01898Y00736D01*
X01705Y00531D02*
Y0056D01*
X01605Y0066D02*
X01705Y0056D01*
X01573Y0066D02*
X01605D01*
X01585Y00546D02*
Y0056D01*
X0152Y006D02*
X0156Y0056D01*
X01008Y01421D02*
X01051D01*
X0106Y0143D02*
X01136D01*
X01051Y01421D02*
X0106Y0143D01*
X02216Y00286D02*
X02287Y00358D01*
X0229*
X02216Y00284D02*
Y00286D01*
X02212Y00281D02*
X02216Y00284D01*
X02091Y01818D02*
X02165Y01745D01*
X0169Y0181D02*
X01698Y01818D01*
X02091*
X01955Y00825D02*
X0196Y0083D01*
X01924Y0095D02*
X01935Y00939D01*
Y009D02*
Y00939D01*
X01839Y0093D02*
X0187Y009D01*
X0179Y00665D02*
X01793Y00661D01*
X01873D02*
X01941D01*
X01793D02*
X01826D01*
X01872Y00662D02*
X01873Y00661D01*
X01862Y00662D02*
X01872D01*
X01861Y00661D02*
X01862Y00662D01*
X01838Y00661D02*
X01861D01*
X01837Y00662D02*
X01838Y00661D01*
X01827Y00662D02*
X01837D01*
X01826Y00661D02*
X01827Y00662D01*
X0176Y00665D02*
X0179D01*
X01941Y00661D02*
X01945Y00665D01*
X01885Y0069D02*
Y0072D01*
X0185Y0069D02*
X01885D01*
X01815D02*
X0185D01*
X01815D02*
Y0072D01*
X02037Y01436D02*
X02065Y01408D01*
X02016Y01453D02*
X02033Y01436D01*
X01965Y01453D02*
X02016D01*
X01961Y0145D02*
X01965Y01453D01*
X01694Y0037D02*
X01705Y00381D01*
X01689Y00365D02*
X01694Y0037D01*
X01411Y00546D02*
X01585D01*
X0152Y006D02*
Y00685D01*
X02205Y00181D02*
Y00231D01*
Y00181D02*
X02215Y00171D01*
Y00095D02*
Y00171D01*
X02205Y00281D02*
X02212D01*
X01585Y00365D02*
X01689D01*
X02005Y00181D02*
X02006Y00179D01*
Y00095D02*
Y00179D01*
X01955Y00531D02*
Y00655D01*
X0131Y00445D02*
Y00625D01*
X01314Y00629*
X01125Y0026D02*
X0131Y00445D01*
X01411Y00546*
X01084Y0026D02*
X01125D01*
X00922Y00422D02*
X01084Y0026D01*
X00745Y00422D02*
X00922D01*
X0074Y00428D02*
X00745Y00422D01*
X02165Y01745D02*
X02205D01*
X02153Y00739D02*
X02213D01*
X02118Y00775D02*
X02153Y00739D01*
X01815Y0072D02*
X0185D01*
X01885*
X01815D02*
Y0076D01*
X0185Y00765D02*
X01885Y0073D01*
X0185Y00765D02*
Y00794D01*
X01839Y00805D02*
X0185Y00794D01*
X01885Y0072D02*
Y00722D01*
Y0073*
X0185Y0072D02*
Y00765D01*
X01839Y00805D02*
X01899Y00865D01*
X0196Y0083D02*
Y00865D01*
X01833Y0095D02*
X01839Y00944D01*
X01833Y00936D02*
Y0095D01*
X01839Y00805D02*
Y0093D01*
Y00944*
X01833Y00936D02*
X01839Y0093D01*
X01833Y0095D02*
Y01258D01*
X01776Y01315D02*
X01833Y01258D01*
X01924Y0095D02*
Y01164D01*
X01655Y0092D02*
X01665D01*
X01431Y00949D02*
X01431Y0095D01*
X01704Y0071D02*
X01755Y0066D01*
X01659Y00728D02*
X01677Y0071D01*
X01704*
X02171Y01313D02*
X02185Y013D01*
X00365Y02835D02*
X0061Y0308D01*
X01435*
X0156Y02955*
X01297Y00685D02*
X0131Y00672D01*
Y00625D02*
Y00633D01*
Y00672*
X01125Y01768D02*
X01174D01*
X01176D02*
X01227D01*
X01278*
X01329*
X01381D02*
X01432D01*
X01483*
X01534*
X01585*
X01637*
X01125Y01615D02*
X01176D01*
X01227*
X01278*
X01329*
X01381D02*
X01432D01*
X01483*
X01534*
X01585*
X01637*
X01536Y0182D02*
Y01863D01*
X02185Y0144D02*
X0221D01*
G54D40*
X01385Y02579D02*
Y02618D01*
X01915Y02621D02*
Y02925D01*
Y02546D02*
Y02621D01*
X01385Y02579D02*
X01387Y02576D01*
X01385Y02618D02*
Y0294D01*
X0085Y02566D02*
Y0293D01*
G54D41*
X0021Y02835D02*
X00365D01*
G54D43*
X02105Y00531D02*
X02126Y00552D01*
Y00665*
G54D50*
X00095Y0323D03*
X03015Y-00045D03*
Y0323D03*
X00095Y-00045D03*
G54D51*
X0085Y0294D03*
X01385D03*
X01915D03*
X02845Y02935D03*
X0021Y02835D03*
X03015Y02935D03*
X00365Y02835D03*
G54D52*
X0161Y0026D03*
Y0016D03*
X01246Y0026D03*
Y0016D03*
X0219Y0184D03*
X02825Y02285D03*
X02805Y0222D03*
G54D53*
X0161Y0006D03*
X01246D03*
G54D54*
X02491Y02788D03*
Y02198D03*
G54D55*
X02165Y01345D03*
X0134Y00875D03*
X01275Y0085D03*
X0156Y0218D03*
X0107Y0217D03*
X01022Y02155D03*
X01153Y0216D03*
X01105Y02165D03*
X0108Y0198D03*
X0161Y0262D03*
X0162Y0219D03*
X01185Y0216D03*
X0121Y02135D03*
X01659Y0218D03*
X01685Y0214D03*
X01626Y01981D03*
X0156Y0214D03*
X0112Y02595D03*
X01615Y02775D03*
X0215D03*
X01625Y00965D03*
X01515Y00905D03*
X02265Y01715D03*
X0227Y015D03*
X00152Y00982D03*
X0028Y0081D03*
X00035Y00835D03*
X0012D03*
X00304Y00834D03*
X0023Y00795D03*
X00285Y0073D03*
X01665Y0192D03*
X01185Y0132D03*
X01221Y0129D03*
X0119Y0128D03*
X0108Y01484D03*
X01005Y01465D03*
X0105Y0124D03*
X0103Y0131D03*
X00999D03*
X01105Y0092D03*
X0112Y0087D03*
X0107D03*
X0148Y00725D03*
X01457Y00747D03*
X01431Y00825D03*
X01265Y00925D03*
X01195Y0095D03*
X0122Y00975D03*
X0119Y00885D03*
X0108Y0099D03*
X01023Y00879D03*
X00995Y00895D03*
X01635Y01245D03*
X01555Y0123D03*
Y01265D03*
X0173Y0119D03*
X0148Y0127D03*
X01265Y0121D03*
X01324Y01247D03*
X0133Y01195D03*
X00135Y004D03*
X0012Y0035D03*
X0031Y02045D03*
X01875Y0094D03*
X0056Y0078D03*
X00315Y0182D03*
X00275Y01855D03*
X0045Y00887D03*
X00555Y0104D03*
X012Y0197D03*
X0114Y01965D03*
X01196Y01901D03*
X0094Y012D03*
X0091Y01455D03*
X0104Y0145D03*
X011Y0146D03*
X00855Y0143D03*
X00785Y01415D03*
X00805Y01465D03*
X01246Y0131D03*
X0128Y01315D03*
X0166Y0144D03*
X0032Y0089D03*
X0037Y0097D03*
X01665Y01355D03*
X00785Y0071D03*
X0078Y0079D03*
X01765Y0111D03*
X01815Y0179D03*
X00715Y00385D03*
X0079Y00585D03*
X00635Y0055D03*
X00885Y0095D03*
X01735Y00735D03*
X0158Y0082D03*
X0144Y00665D03*
X01665Y00225D03*
X02285Y0069D03*
X00285Y0226D03*
X00345Y02265D03*
X0034Y02325D03*
X00695Y0139D03*
X00715Y0103D03*
X0073Y0106D03*
X00645Y0078D03*
X00125Y00735D03*
X00295Y0057D03*
X00385Y00555D03*
Y00595D03*
X0033Y0046D03*
X00095Y00395D03*
X0022Y0012D03*
X00165D03*
X0073Y0006D03*
X0082Y00285D03*
X00835Y0005D03*
X01955Y00825D03*
X01935Y009D03*
Y00843D03*
X01775Y0081D03*
X01895Y00815D03*
X0187Y009D03*
X01885Y0069D03*
X0185D03*
X01815D03*
X02065Y01475D03*
X02005Y01425D03*
X01005Y01595D03*
X00955Y00865D03*
X00995Y019D03*
X013Y01945D03*
X01333Y01981D03*
X0133Y01905D03*
X01364Y01975D03*
X01294Y01985D03*
X01395Y01985D03*
X0144Y0194D03*
X01536Y01908D03*
X0143Y019D03*
X01515Y01975D03*
X01625Y0284D03*
X02055Y01785D03*
X02175Y0218D03*
X0045Y01825D03*
X01586Y0288D03*
X0154D03*
X0162Y02887D03*
X0165Y0288D03*
X00605Y02281D03*
X00635Y02365D03*
Y0233D03*
X017Y01935D03*
X01566Y01981D03*
X0064Y00725D03*
X0069Y01155D03*
X01865Y01105D03*
X01805Y0116D03*
X011Y0071D03*
X01475Y0198D03*
X0123Y019D03*
X0116Y02675D03*
X0111Y02655D03*
X0177Y0161D03*
X02Y0185D03*
X00295Y019D03*
X01585Y00425D03*
X0154D03*
X0053Y0088D03*
X02135Y00045D03*
X00905Y0113D03*
X00902Y00997D03*
X0197Y0108D03*
X0063Y023D03*
X0168Y02885D03*
X00755Y00275D03*
X0169Y0181D03*
X01849Y01784D03*
X0036Y0015D03*
X01022Y01981D03*
X02035Y01145D03*
X0185Y0072D03*
X01115Y0053D03*
X0052Y0193D03*
X00435Y00525D03*
X01885Y0072D03*
X01815D03*
X01945Y01785D03*
X019D03*
X0169Y0074D03*
X0229Y0057D03*
X01005Y00435D03*
X00205Y004D03*
X02085Y009D03*
X0049Y00539D03*
X00545D03*
X0229Y0053D03*
Y00495D03*
Y006D03*
X0232Y00495D03*
Y0053D03*
Y0057D03*
X02605Y01635D03*
Y0161D03*
Y01585D03*
Y0156D03*
X0263Y01625D03*
Y01595D03*
Y0157D03*
Y01545D03*
X01313Y01481D03*
X01214Y01449D03*
X0146Y0144D03*
X01515Y01455D03*
X01489Y01475D03*
X01425Y01495D03*
X01325Y0145D03*
X0126Y0147D03*
X0129Y01455D03*
X0136Y0145D03*
X00965Y0131D03*
X0088Y0115D03*
X00905Y0119D03*
X0129Y0099D03*
X0132Y009D03*
X01623Y01025D03*
X01329Y0105D03*
X0132Y011D03*
X0131Y00966D03*
X01455Y0022D03*
X0138D03*
X0238Y00195D03*
X02605D03*
X02885Y0019D03*
X02585Y0061D03*
X0259Y0089D03*
X0254Y0121D03*
X02545Y0145D03*
X0251Y0172D03*
X00415Y01065D03*
X00365Y0121D03*
X00545Y0257D03*
X0034Y0264D03*
X0061Y02885D03*
X0165Y02985D03*
X00295Y03045D03*
X0006D03*
Y0276D03*
X0007Y02385D03*
X00065Y0198D03*
X0006Y0157D03*
Y0117D03*
X02605Y0153D03*
G54D56*
X02575Y0009D03*
X0241D03*
G54D57*
X0239Y0288D03*
X02655Y0251D03*
X02425Y02955D03*
X0249Y02935D03*
X02435Y02875D03*
X02655Y0246D03*
X02605Y0251D03*
X0266Y02555D03*
X02705Y0251D03*
X02395Y02925D03*
X02475Y02895D03*
G54D58*
X00441Y00735D03*
Y00688D03*
Y00641D03*
Y00594D03*
X00488Y00735D03*
Y00688D03*
Y00641D03*
Y00594D03*
X00535Y00735D03*
Y00688D03*
Y00641D03*
Y00594D03*
X00582Y00735D03*
Y00688D03*
Y00641D03*
Y00594D03*
G54D59*
X0226Y02115D03*
Y0217D03*
Y02225D03*
G54D60*
X01125Y01615D03*
X01176D03*
X01227D03*
X01278D03*
X01329D03*
X01381D03*
X01432D03*
X01483D03*
X01534D03*
X01585D03*
X01637D03*
X01125Y01666D03*
X01176D03*
X01227D03*
X01278D03*
X01329D03*
X01381D03*
X01432D03*
X01483D03*
X01534D03*
X01585D03*
X01637D03*
X01125Y01717D03*
X01176D03*
X01227D03*
X01278D03*
X01329D03*
X01381D03*
X01432D03*
X01483D03*
X01534D03*
X01585D03*
X01637D03*
X01125Y01768D03*
X01176D03*
X01227D03*
X01278D03*
X01329D03*
X01381D03*
X01432D03*
X01483D03*
X01534D03*
X01585D03*
X01637D03*
G54D61*
X00512Y00665D03*
G54D62*
X00688Y00517D03*
Y00537D03*
Y00556D03*
Y00576D03*
Y00596D03*
Y00615D03*
Y00635D03*
Y00655D03*
Y00674D03*
Y00694D03*
Y00714D03*
Y00733D03*
Y00753D03*
Y00773D03*
Y00792D03*
Y00812D03*
X00335D03*
Y00792D03*
Y00773D03*
Y00753D03*
Y00733D03*
Y00714D03*
Y00694D03*
Y00674D03*
Y00655D03*
Y00635D03*
Y00615D03*
Y00596D03*
Y00576D03*
Y00556D03*
Y00537D03*
Y00517D03*
G54D63*
X00659Y00841D03*
X00639D03*
X0062D03*
X006D03*
X0058D03*
X00561D03*
X00541D03*
X00521D03*
X00502D03*
X00482D03*
X00462D03*
X00443D03*
X00423D03*
X00403D03*
X00384D03*
X00364D03*
Y00488D03*
X00384D03*
X00403D03*
X00423D03*
X00443D03*
X00462D03*
X00482D03*
X00502D03*
X00521D03*
X00541D03*
X00561D03*
X0058D03*
X006D03*
X0062D03*
X00639D03*
X00659D03*
G54D64*
X01236Y00785D03*
Y00735D03*
Y00685D03*
Y00635D03*
X01043Y00785D03*
Y00735D03*
Y00685D03*
Y00635D03*
G54D65*
X02205Y0155D03*
Y01745D03*
G54D66*
X02185Y01415D03*
Y01275D03*
G54D67*
X01964Y016D03*
Y02025D03*
X00812Y016D03*
Y02025D03*
G54D68*
X01379Y01692D03*
G54D69*
X01645Y0184D03*
X01625D03*
X01605D03*
X01585D03*
X01566D03*
X01546D03*
X01526D03*
X01507D03*
X01487D03*
X01467D03*
X01448D03*
X01428D03*
X01408D03*
X01389D03*
X01369D03*
X01349D03*
X0133D03*
X0131D03*
X0129D03*
X0127D03*
X01251D03*
X01231D03*
X01211D03*
X01192D03*
X01172D03*
X01152D03*
X01133Y0184D03*
X01113Y0184D03*
Y01545D03*
X01133D03*
X01152D03*
X01172D03*
X01192D03*
X01211D03*
X01231D03*
X01251D03*
X0127D03*
X0129D03*
X0131D03*
X0133D03*
X01349D03*
X01369D03*
X01389D03*
X01408D03*
X01428D03*
X01448D03*
X01467D03*
X01487D03*
X01507D03*
X01526D03*
X01546D03*
X01566D03*
X01585D03*
X01605D03*
X01625D03*
X01644D03*
G54D70*
X01705Y00331D03*
Y00281D03*
Y00231D03*
Y00181D03*
Y00531D03*
X01755D03*
X01805D03*
X01855D03*
X01905D03*
X01955D03*
X02005D03*
X02105D03*
X02155D03*
X02205D03*
Y00481D03*
X02155D03*
X02105D03*
X02005D03*
X01955D03*
X01905D03*
X01855D03*
X01805D03*
X01755D03*
X01705D03*
X02205Y00431D03*
X02155D03*
X02105D03*
X02005D03*
X01955D03*
X01905D03*
X01855D03*
X01805D03*
X01755D03*
X01705D03*
X02005Y00381D03*
X01955D03*
X01905D03*
X01855D03*
X01805D03*
X01755D03*
X01705D03*
X02205Y00331D03*
X02155D03*
X02105D03*
X02055D03*
X02005D03*
X01955D03*
X01905D03*
X01855D03*
X01805D03*
X01755D03*
X02205Y00281D03*
X02155D03*
X02105D03*
X02055D03*
X02005D03*
X01955D03*
X01905D03*
X01855D03*
X01805D03*
X01755D03*
X02205Y00231D03*
X02155D03*
X02105D03*
X02055D03*
X02005D03*
X01955D03*
X01905D03*
X01855D03*
X01805D03*
X01755D03*
X02205Y00181D03*
X02155D03*
X02105D03*
X02055D03*
X02005D03*
X01955D03*
X01905D03*
X01855D03*
X01805D03*
X01755D03*
G54D71*
X002Y00468D03*
X0015D03*
X001D03*
X0005D03*
X002Y00661D03*
X0015D03*
X001D03*
X0005D03*
G54D72*
X01386Y01542D02*
X01389Y01545D01*
X00462Y00488D02*
X0048D01*
X01396Y01375D02*
X01401Y0138D01*
X01405Y01383*
Y01459*
X01386Y01478D02*
X01405Y01459D01*
X01386Y01478D02*
Y01542D01*
X01401Y0138D02*
X01406Y01375D01*
G54D73*
X00519Y00488D02*
Y00506D01*
G54D74*
X01777Y00455D03*
G54D75*
X02157Y00482D03*
G54D76*
X01955Y00445D03*
G54D77*
X01762Y00192D03*
G54D78*
X01932Y0028D03*
M02*