%FSTAX23Y23*%
%MOIN*%
%SFA1B1*%

%IPPOS*%
%ADD10R,0.106300X0.074800*%
%ADD11R,0.074410X0.048820*%
%ADD12R,0.125980X0.037400*%
%ADD13R,0.074800X0.106300*%
%ADD14R,0.031500X0.051180*%
%ADD15R,0.391540X0.354920*%
%ADD16R,0.029530X0.089960*%
%ADD17R,0.039370X0.043310*%
%ADD18R,0.051180X0.031500*%
%ADD19R,0.031500X0.157480*%
%ADD20R,0.157480X0.031500*%
%ADD21R,0.043310X0.039370*%
%ADD22R,0.031500X0.094490*%
%ADD23R,0.051180X0.059050*%
%ADD24R,0.059050X0.051180*%
%ADD25R,0.061020X0.051180*%
%ADD26R,0.031500X0.039370*%
%ADD27O,0.082680X0.011810*%
%ADD28O,0.011810X0.082680*%
%ADD29R,0.039370X0.078740*%
%ADD30R,0.137800X0.098420*%
%ADD31R,0.102360X0.074800*%
%ADD32R,0.048820X0.074410*%
%ADD33C,0.118110*%
%ADD34C,0.039370*%
%ADD35C,0.011810*%
%ADD36C,0.009840*%
%ADD37C,0.019680*%
%ADD38C,0.027560*%
%ADD39C,0.196850*%
%ADD40C,0.015000*%
%ADD41C,0.157480*%
%ADD42C,0.078740*%
%ADD43C,0.177160*%
%ADD44C,0.015750*%
%ADD45R,0.082680X0.118110*%
%ADD46R,0.118110X0.082680*%
%ADD47R,0.059050X0.090550*%
%ADD48R,0.090550X0.059050*%
%ADD49C,0.086610*%
%ADD50C,0.150000*%
%ADD51C,0.059050*%
%ADD52R,0.059050X0.059050*%
%ADD53C,0.118110*%
%ADD54C,0.025000*%
%ADD55C,0.040000*%
%ADD56C,0.050000*%
%ADD57C,0.027160*%
%LNninja_ecu_pcb-1*%
%LPD*%
G36*
X00225Y00996D02*
X00253D01*
X00258Y00993*
X00265Y00991*
X0035*
X00352Y00988*
X00352Y00986*
X00348Y00982*
X00346Y00976*
X00345Y0097*
X00346Y00963*
X00348Y00957*
X00352Y00952*
X00357Y00948*
X00359Y00948*
X00358Y00943*
X0029*
X00257Y00975*
X00251Y00979*
X00245Y00981*
X0022*
Y00993*
X00224Y00996*
X00225Y00996*
G37*
G36*
X02108Y00991D02*
X02108Y00991D01*
X0211Y00987*
X02108Y00983*
X02108Y00982*
X02107Y00978*
Y00958*
X02066Y00918*
X02037Y00889*
X01961*
X01959Y00892*
X01958Y00894*
X01959Y009*
X01958Y00906*
X01956Y00912*
X01952Y00917*
X01947Y00921*
X01941Y00923*
X01935Y00924*
X01928Y00923*
X01922Y00921*
X01917Y00917*
X01913Y00912*
X01911Y00906*
X0191Y009*
X01911Y00894*
X0191Y00892*
X01908Y00889*
X01896*
X01894Y00892*
X01893Y00894*
X01894Y009*
X01893Y00906*
X01891Y00912*
X01887Y00917*
X01883Y0092*
X01883Y00924*
X01884Y00925*
X01887Y00927*
X0189Y00933*
X01892Y0094*
X0189Y00946*
X01887Y00952*
X01881Y00955*
X01875Y00957*
X01795*
X01788Y00955*
X01782Y00952*
X01777Y00947*
X01774Y00941*
X01772Y00935*
X01774Y00928*
X01777Y00922*
X01783Y00919*
X0179Y00917*
X01796Y00919*
X01802Y00922*
X01802*
X01851*
X01853Y00917*
X01852Y00917*
X01848Y00912*
X01846Y00906*
X01845Y009*
X01846Y00894*
X01845Y00892*
X01843Y00889*
X01831*
X0183Y00893*
X01828Y00897*
X01824Y00899*
X01819Y009*
X0178*
X01775Y00899*
X01771Y00897*
X01768*
X01764Y00899*
X01759Y009*
X01753*
X01751Y00905*
X01753Y00906*
X01755Y0091*
X01756Y00915*
Y00954*
X01755Y00959*
X01755Y00959*
X01754Y00964*
X01756Y00965*
X01758Y00966*
X01758Y00967*
X01764*
X01764Y00966*
X01768Y00964*
X01773Y00963*
X01816*
X01821Y00964*
X01825Y00966*
X01827Y0097*
X01828Y00975*
Y00977*
X02078*
X02084Y00979*
X0209Y00982*
X02102Y00994*
X02107*
X02108Y00991*
G37*
G36*
X0027Y00912D02*
X00276Y00908D01*
X00283Y00906*
X00296*
X00298Y00902*
X00298Y00902*
X00296Y00896*
X00295Y0089*
X00296Y00883*
X00298Y00877*
X00302Y00872*
X00307Y00868*
X00313Y00866*
X0032Y00865*
X00326Y00866*
X00332Y00868*
X00336Y00872*
X00338Y00872*
X00341Y0087*
Y00857*
X0033Y00846*
X00325Y00847*
X00322Y00851*
X00317Y00855*
X00311Y00857*
X00304Y00858*
X00298Y00857*
X00292Y00855*
X00287Y00851*
X00283Y00846*
X00281Y0084*
X0028Y00834*
X0028Y00834*
X00273Y00833*
X00267Y00831*
X00262Y00827*
X00258Y00822*
X00256Y00816*
X00255Y0081*
X00251Y00808*
X0025Y00807*
X00247Y00812*
X00242Y00816*
X00236Y00818*
X0023Y00819*
X00223Y00818*
X00222Y00818*
X00217Y00821*
Y00824*
X00216Y00828*
X00214Y00832*
X0021Y00835*
X00205Y00836*
X00202*
Y00945*
X00237*
X0027Y00912*
G37*
G36*
X02305Y00713D02*
X023Y0071D01*
X02297Y00712*
X02291Y00714*
X02285Y00715*
X02205*
X02198Y00714*
X02192Y00712*
X02186Y00708*
X02151Y00672*
X02147Y00667*
X02144Y00661*
X02143Y00654*
Y00535*
X02144Y00528*
X02147Y00522*
X02151Y00517*
X02163Y00504*
X02161Y005*
X02081*
X02077Y00499*
X02073Y00496*
X02072Y00496*
X02066Y005*
X0206Y00501*
X02011*
X01925Y00587*
Y0059*
X01923Y00596*
X01919Y00602*
X01913Y00606*
X01907Y00608*
X019Y00606*
X01894Y00602*
X0189Y00596*
X01888Y0059*
Y00555*
X01883Y00553*
X01882Y00554*
X01878Y00555*
X01759*
X01755Y00554*
X01751Y00551*
X01748Y00547*
X01747Y00543*
Y0046*
X01748Y00455*
X01751Y00451*
X01755Y00449*
X01759Y00448*
X01856*
X01858Y00443*
X01757Y00343*
X01751*
Y00368*
X0175Y00373*
X0175Y00373*
X01748Y00377*
X0175Y00381*
X0175Y00381*
X01751Y00386*
Y00417*
X0175Y00422*
X01748Y00426*
X01744Y00428*
X01739Y00429*
X01688*
X01683Y00428*
X01682Y00428*
X01661*
Y00438*
X0166Y00443*
X01658Y00447*
X01654Y00449*
X01649Y0045*
X0161*
X01605Y00449*
X01601Y00447*
X01601Y00446*
X01597Y00446*
X01591Y00448*
X01585Y00449*
X01578Y00448*
X01572Y00446*
X01567Y00442*
X01565Y00439*
X01565Y00439*
X01559*
X01559Y00439*
X01557Y00442*
X01552Y00446*
X01546Y00448*
X0154Y00449*
X01533Y00448*
X01527Y00446*
X01522Y00442*
X01518Y00437*
X01518Y00436*
X01512Y00434*
X01486Y00461*
Y00647*
X01486Y0065*
Y00701*
X01492Y00703*
X01497Y00707*
X01501Y00712*
X01503Y00718*
X01504Y00725*
X01503Y00731*
X01501Y00737*
X01497Y00742*
X01495Y00743*
X01497Y00748*
X01662*
X01665Y00743*
X01665Y0074*
X01666Y00733*
X01668Y00727*
X01672Y00722*
X01677Y00718*
X01683Y00716*
X0169Y00715*
X01696Y00716*
X01702Y00718*
X01707Y00722*
X01708Y00723*
X01713Y00722*
X01713Y00722*
X01717Y00717*
X01722Y00713*
X01728Y00711*
X01735Y0071*
X01741Y00711*
X01747Y00713*
X01752Y00717*
X01756Y00722*
X01758Y00728*
X01759Y00735*
X01758Y00741*
X01757Y00743*
X01761Y00748*
X01805*
X01806Y00743*
X01802Y00741*
X01797Y00737*
X01793Y00732*
X01791Y00726*
X0179Y0072*
X01791Y00714*
X01793Y00709*
Y007*
X01791Y00696*
X0179Y0069*
X01791Y00683*
X01793Y00677*
X01797Y00672*
X01802Y00668*
X01808Y00666*
X01815Y00665*
X01821Y00666*
X01825Y00668*
X01839*
X01843Y00666*
X0185Y00665*
X01856Y00666*
X0186Y00668*
X01874*
X01878Y00666*
X01885Y00665*
X01891Y00666*
X01897Y00668*
X01902Y00672*
X01906Y00677*
X01908Y00683*
X01909Y0069*
X01908Y00696*
X01906Y007*
Y00709*
X01908Y00714*
X01909Y0072*
X01909Y00724*
X01912Y00729*
X01937*
X01942Y0073*
X01946Y00733*
X01948Y00736*
X01949Y00741*
Y00749*
X02177*
Y00741*
X02178Y00736*
X0218Y00733*
X02184Y0073*
X02189Y00729*
X0225*
X02255Y0073*
X02259Y00733*
X02261Y00736*
X02262Y00741*
Y00792*
X02261Y00797*
X02259Y00801*
X02257Y00802*
X02259Y00807*
X02305*
Y00713*
G37*
G36*
X0128Y00738D02*
X01287Y00737D01*
X01294Y00738*
X01295Y00739*
X013Y00737*
X01302Y00733*
X01301Y00729*
Y00696*
X01271*
Y00703*
X0127Y00708*
X01268Y00712*
X01264Y00714*
X01259Y00715*
X0122*
X01215Y00714*
X01211Y00712*
X01209Y00708*
X01208Y00703*
Y0066*
X01209Y00655*
X01211Y00651*
X01215Y00649*
X0122Y00648*
X01259*
X01264Y00649*
X01268Y00651*
X0127Y00655*
X01271Y0066*
Y00662*
X01322*
X01324Y00657*
X01302Y00635*
X013Y00633*
X01147*
X01137Y00642*
X01131Y00646*
X01125Y00648*
X01118Y00646*
X01115Y00644*
X01086*
Y0068*
X01091Y00683*
X01093Y00682*
Y00675*
X01094Y0067*
X01096Y00666*
X011Y00664*
X01105Y00663*
X01144*
X01149Y00664*
X01153Y00666*
X01155Y0067*
X01156Y00675*
Y00718*
X01155Y00723*
X01153Y00727*
X01149Y00729*
X01144Y0073*
X01113*
X01111Y00732*
X01111Y00733*
X01115Y00738*
X01116Y00738*
X01119Y0074*
X01122Y00738*
X01129Y00737*
X01136Y00738*
X01139Y0074*
X01142Y00738*
X01149Y00737*
X01156Y00738*
X01159Y0074*
X01162Y00738*
X01169Y00737*
X01175Y00738*
X01178Y0074*
X01181Y00738*
X01188Y00737*
X01195Y00738*
X01198Y0074*
X01201Y00738*
X01208Y00737*
X01215Y00738*
X01218Y0074*
X01221Y00738*
X01228Y00737*
X01235Y00738*
X01237Y0074*
X0124Y00738*
X01247Y00737*
X01254Y00738*
X01257Y0074*
X0126Y00738*
X01267Y00737*
X01274Y00738*
X01277Y0074*
X0128Y00738*
G37*
G36*
X00576Y01228D02*
X00577Y01224D01*
X0058Y0122*
X00584Y01217*
X00588Y01216*
X00663*
X00696Y01184*
Y01175*
X00692Y01172*
X0069Y01173*
X00553*
Y01215*
X00551Y01221*
X00547Y01227*
X00531Y01243*
X00533Y01248*
X00554*
X00559Y01249*
X00563Y01251*
X00565Y01255*
X00566Y0126*
Y01263*
X00576*
Y01228*
G37*
G36*
X00194Y01365D02*
X002Y01361D01*
X00206Y0136*
X00238*
X00266Y01332*
X00264Y01328*
X0025*
X00243Y01326*
X00237Y01322*
X00233Y01316*
X00231Y0131*
X00233Y01303*
X00237Y01297*
X00243Y01293*
X0025Y01291*
X00277*
Y01278*
X00272Y01276*
X00269Y01276*
X0023*
X00225Y01275*
X00221Y01273*
X00219Y01269*
X00218Y01264*
Y01245*
X00216Y01244*
X00213Y01243*
X0021Y01245*
X00205Y01246*
X00183*
X00171Y01257*
Y01381*
X00176Y01383*
X00194Y01365*
G37*
G36*
X02082Y01197D02*
Y01132D01*
X02061*
X02058Y01137*
X02058Y01138*
X02059Y01145*
X02058Y01151*
X02056Y01157*
X02052Y01162*
X02047Y01166*
X02041Y01168*
X02036Y01169*
X02034Y01173*
X02034Y01174*
X02036Y01178*
X02038Y01185*
Y01217*
X0205Y0123*
X02082Y01197*
G37*
G36*
X00202Y01523D02*
X00213D01*
Y01484*
X00214Y0148*
X00216Y01476*
Y01475*
X00214Y01471*
X00213Y01466*
Y01423*
X00214Y01418*
X00216Y01414*
X0022Y01412*
X00225Y01411*
X00253*
X00485Y01179*
Y01054*
X00486Y01047*
X0049Y01041*
X00499Y01032*
X00497Y01028*
X00276*
Y01051*
X00275Y01056*
X00273Y0106*
X00273Y0106*
Y01066*
X00273Y01066*
X00275Y0107*
X00276Y01074*
Y01115*
X00281Y01118*
X00307Y01144*
X0031Y01149*
X00312Y01156*
Y01299*
X00313Y01305*
X00312Y0131*
Y01328*
X0031Y01334*
X00307Y0134*
X0026Y01386*
X00257Y0139*
X00251Y01394*
X00245Y01396*
X00214*
X00193Y01417*
Y01517*
X00196Y01523*
X00197Y01524*
X00202Y01523*
G37*
G36*
X0198Y01426D02*
X0198Y01425D01*
X01981Y01418*
X01983Y01412*
X01987Y01407*
X01987Y01407*
Y01337*
X01941Y0129*
X01937Y01284*
X01936Y01278*
Y01216*
X01931*
X01926Y01215*
X01922Y01213*
X0192Y01209*
X01919Y01204*
Y01165*
X0192Y0116*
X01922Y01156*
X01926Y01154*
X01931Y01153*
X01974*
X01979Y01154*
X01983Y01156*
X01985Y0116*
X01986Y01165*
Y01204*
X01985Y01209*
X01983Y01213*
X01979Y01215*
X01974Y01216*
X0197*
Y01271*
X02017Y01318*
X02019Y01321*
X02024Y0132*
Y01263*
X02025Y01256*
X02026Y01256*
X02007Y01237*
X02003Y01231*
X02001Y01225*
Y01185*
X02003Y01178*
X02007Y01172*
X02013Y01168*
X02016Y01167*
X02017Y01162*
X02013Y01157*
X02011Y01151*
X0201Y01145*
X02011Y01138*
X02011Y01137*
X02008Y01132*
X02005*
X01998Y0113*
X01992Y01127*
X01957Y01092*
X01954Y01086*
X01952Y0108*
X01953Y01077*
X01949Y01072*
X01828*
Y01074*
X01827Y01079*
X01825Y01083*
X01821Y01085*
X01816Y01086*
X01782*
X01781Y01091*
X01782Y01092*
X01786Y01097*
X01788Y01103*
X01789Y0111*
X01788Y01116*
X01786Y01122*
X01782Y01127*
X01777Y01131*
X01771Y01133*
X01765Y01134*
X01758Y01133*
X01752Y01131*
X01747Y01127*
X01743Y01122*
X01741Y01116*
X0174Y0111*
X01741Y01103*
X01743Y01097*
X01747Y01092*
X01748Y01091*
X01747Y01086*
X01706*
X01701Y01085*
X01697Y01083*
X01695Y01079*
X01694Y01074*
Y01072*
X01686*
X0168Y0107*
X01674Y01067*
X01648Y01041*
X01642Y01041*
X01641Y01041*
Y01086*
X0164Y01093*
X01636Y01098*
X01628Y01107*
Y01127*
X01717Y01216*
X01756*
X01763Y01218*
X01769Y01222*
X01975Y01428*
X0198Y01426*
G37*
G36*
X00622Y00528D02*
X00628Y00526D01*
X00635Y00525*
X00641Y00526*
X00647Y00528*
X00649Y0053*
X00654Y00527*
Y00495*
X00655Y0049*
X00657Y00486*
X00661Y00484*
X00666Y00483*
X00685*
X00686Y00481*
X00687Y00478*
X00685Y00475*
X00684Y0047*
Y00419*
X00685Y00414*
X00688Y0041*
X00692Y00408*
X00693Y00408*
Y00395*
X00691Y00391*
X0069Y00385*
X00691Y00378*
X00693Y00372*
X00697Y00367*
X00702Y00363*
X00708Y00361*
X00715Y0036*
X00721Y00361*
X00725Y00363*
X00854*
Y00265*
X00851Y00264*
X00849Y0026*
X00848Y00259*
X00843*
X00843Y0026*
X00841Y00264*
X0084Y00264*
X00839Y0027*
X00841Y00272*
X00843Y00278*
X00844Y00285*
X00843Y00291*
X00841Y00297*
X00837Y00302*
X00832Y00306*
X00826Y00308*
X0082Y00309*
X00813Y00308*
X00807Y00306*
X00802Y00302*
X00798Y00297*
X00796Y00291*
X00795Y00285*
X00796Y00278*
X00798Y00272*
X00798Y00272*
Y00267*
X00796Y00266*
X00792Y00264*
X0079Y0026*
X00789Y00259*
X00784*
X00784Y0026*
X00782Y00264*
X00778Y00266*
X00777Y00267*
X00778Y00269*
X00779Y00275*
X00778Y00282*
X00776Y00287*
X00772Y00293*
X00767Y00296*
X00761Y00299*
X00755Y003*
X00748Y00299*
X00742Y00296*
X00737Y00293*
X00733Y00287*
X00731Y00282*
X0073Y00275*
X00731Y00269*
X00733Y00264*
X0073Y0026*
X0073Y00255*
Y00103*
X00717*
X00716Y00103*
Y00176*
X00715Y00183*
X00711Y00189*
X00705Y00193*
X00698Y00195*
X00691Y00193*
X00686Y00189*
X00682Y00183*
X0068Y00176*
Y00103*
X00667*
Y00255*
X00666Y0026*
X00663Y00264*
X0066Y00266*
X00659Y00269*
X00659Y00271*
X0066Y00272*
X00663Y00276*
X00664Y00281*
Y00399*
X00663Y00403*
X0066Y00407*
X00656Y0041*
X00652Y00411*
X0059*
X00588Y00415*
X00607Y00435*
X00611Y00441*
X00613Y00448*
Y0053*
X00616Y00532*
X00618Y00532*
X00622Y00528*
G37*
G36*
X01592Y00337D02*
X01598Y00333D01*
X01598Y00333*
Y00328*
X01599Y00323*
X01601Y00319*
X01605Y00317*
X0161Y00316*
X01649*
X01654Y00317*
X01658Y00319*
X0166Y00323*
X01661Y00328*
Y00331*
X01677*
X01679Y00328*
X01683Y00325*
X01688Y00325*
X01703*
X01705Y0032*
X01701Y00316*
X01697Y0031*
X01695Y00303*
X01697Y00296*
X01701Y00291*
X01702Y00289*
X01704Y00283*
X01703Y00282*
X01688*
X01683Y00281*
X01679Y00278*
X01677Y00274*
X01676Y00271*
X01675*
X01668Y0027*
X01663Y00266*
X01656Y00259*
X01656Y00259*
X01651Y00261*
X0165Y0027*
X01646Y0028*
X01639Y00289*
X0163Y00296*
X0162Y003*
X0161Y00301*
X01599Y003*
X01589Y00296*
X0158Y00289*
X01578Y00286*
X01573Y00287*
Y00349*
X01577Y00351*
X01592Y00337*
G37*
G36*
X0199Y0047D02*
X01996Y00466D01*
X02003Y00465*
X02041*
Y00195*
Y00088*
X01928*
X01879Y00137*
X01873Y00141*
X01866Y00143*
X01752*
X01744Y00151*
X01764Y00171*
X01768Y00177*
X01769Y00184*
Y00303*
X01768Y00307*
X01772Y00308*
X01777Y00312*
X01919Y00454*
X01923Y0046*
X01925Y00467*
Y00529*
X01929Y00531*
X0199Y0047*
G37*
G36*
X02213Y00325D02*
X02194Y00306D01*
X0219Y00301*
X02187Y00295*
X02186Y00288*
Y00261*
X02187Y00254*
X0219Y00248*
X02194Y00243*
X02209Y00228*
Y00155*
X0221Y00151*
X02212Y00147*
X02216Y00144*
X02219Y00144*
Y00135*
X02203*
X02199Y00134*
X02195Y00131*
X02192Y00127*
X02191Y00123*
Y00016*
X02192Y00012*
X02195Y00008*
X02196Y00007*
X02195Y00002*
X0189*
X01888Y00007*
X01889Y00008*
X0189Y00013*
Y00069*
X01894Y00071*
X01908Y00057*
X01914Y00053*
X01921Y00051*
X0206*
X02066Y00053*
X02072Y00057*
X02076Y00063*
X02078Y0007*
Y00195*
Y00374*
X02081Y00377*
X02133*
Y00246*
X0213*
X02126Y00245*
X02122Y00242*
X02119Y00238*
X02118Y00234*
Y00183*
X02117Y00179*
Y00062*
X02117Y00062*
X02113Y00057*
X02111Y00051*
X0211Y00045*
X02111Y00038*
X02113Y00032*
X02117Y00027*
X02122Y00023*
X02128Y00021*
X02135Y0002*
X02141Y00021*
X02147Y00023*
X02152Y00027*
X02156Y00032*
X02158Y00038*
X02159Y00045*
X02158Y00051*
X02156Y00057*
X02152Y00062*
X02152Y00062*
Y00143*
X0217*
X02174Y00144*
X02178Y00147*
X02181Y00151*
X02182Y00155*
Y00234*
X02181Y00238*
X02178Y00242*
X02174Y00245*
X0217Y00246*
X02167*
Y00377*
X02213*
Y00325*
G37*
G36*
X01732Y00112D02*
X01738Y00108D01*
X01745Y00106*
X01746*
X01749Y00101*
X01748Y001*
X01747Y00096*
Y00013*
X01748Y00008*
X01749Y00007*
X01747Y00002*
X00433*
X0043Y00007*
X00431Y0001*
Y00076*
X00435Y00078*
X00458Y00056*
X00463Y00052*
X0047Y00051*
X00611*
X00618Y00052*
X00624Y00056*
X00634Y00066*
X00701*
X00705Y00061*
X00705Y0006*
X00706Y00053*
X00708Y00047*
X00712Y00042*
X00717Y00038*
X00723Y00036*
X0073Y00035*
X00736Y00036*
X00742Y00038*
X00747Y00042*
X00751Y00047*
X00753Y00053*
X00754Y0006*
X00754Y00061*
X00758Y00066*
X00811*
X00813Y00062*
X00813Y00062*
X00811Y00056*
X0081Y0005*
X00811Y00043*
X00813Y00037*
X00817Y00032*
X00822Y00028*
X00828Y00026*
X00835Y00025*
X00841Y00026*
X00847Y00028*
X00852Y00032*
X00856Y00037*
X00858Y00043*
X00859Y0005*
X00858Y00056*
X00856Y00062*
X00856Y00062*
X00858Y00066*
X00917*
X00937Y00047*
X00943Y00043*
X0095Y00041*
X0161*
X01616Y00043*
X01622Y00047*
X0171Y00134*
X01732Y00112*
G37*
G36*
X00527Y00979D02*
X00525Y00974D01*
X00469*
X00462Y00973*
X00456Y00969*
X00449Y00962*
X00449Y00961*
X0041*
X00405Y0096*
X00401Y00958*
X00399Y00954*
X00398Y00949*
Y0091*
X00399Y00905*
X00401Y00901*
X00405Y00899*
X0041Y00898*
X00423*
X00425Y00895*
X00426Y00893*
X00425Y00887*
X00426Y00881*
X00428Y00876*
X00425Y00871*
X00405*
X004Y0087*
X00396Y00868*
X00394Y00864*
X00393Y00859*
Y0082*
X00394Y00815*
X00396Y00811*
X004Y00809*
X00405Y00808*
X00429*
X00456Y0078*
X00462Y00776*
X00469Y00775*
X0053*
X00533Y00775*
X00536Y00773*
X00538Y00767*
X00542Y00762*
X00547Y00758*
X00553Y00756*
X0056Y00755*
X00566Y00756*
X00572Y00758*
X00577Y00762*
X00581Y00767*
X00583Y00773*
X00584Y0078*
X00583Y00786*
X00582Y00788*
X00586Y00793*
X006*
X00605Y00794*
X00609Y00796*
X00611Y008*
X00612Y00805*
Y00847*
X0066Y00894*
X00697*
X00699Y0089*
X00697Y00887*
X00693Y00881*
X00691Y00875*
Y00756*
X00693Y0075*
X00697Y00744*
X00715Y00726*
X00713Y00721*
X00679*
X00674Y0072*
X0067Y00718*
X00668Y00714*
X00667Y00709*
Y0065*
X00668Y00645*
X0067Y00643*
X0067Y00642*
X00669Y00641*
X00665Y00638*
X00661Y0064*
X00656Y00641*
X00613*
X00608Y0064*
X00604Y00638*
X00602Y00634*
X00601Y00629*
Y00601*
X00582Y00582*
X00578Y00576*
X00576Y0057*
Y00455*
X00555Y00433*
X0055Y00435*
Y00515*
X00551Y00515*
X00557Y00517*
X00562Y00521*
X00566Y00526*
X00568Y00532*
X00569Y00539*
X00568Y00545*
X00566Y00551*
X00562Y00556*
X00557Y0056*
X00551Y00562*
X00545Y00563*
X00538Y00562*
X00532Y0056*
X00527Y00556*
X00523Y00551*
X00521Y00545*
X00521Y00544*
X00517Y00542*
X00513Y00544*
X00513Y00545*
X00511Y00551*
X00507Y00556*
X00502Y0056*
X00496Y00562*
X0049Y00563*
X00483Y00562*
X00477Y0056*
X00472Y00556*
X00468Y00551*
X00466Y00545*
X00465Y00539*
X00466Y00532*
X00468Y00526*
X00472Y00521*
X00477Y00517*
X00483Y00515*
X00484Y00515*
Y00309*
X00479Y00307*
X00477Y0031*
X00471Y00314*
X00465Y00315*
X00322*
X00315Y00314*
X00309Y0031*
X00286Y00286*
X00281Y00288*
Y00304*
X0028Y00309*
X00278Y00313*
X00277Y00313*
Y00319*
X00278Y00319*
X0028Y00323*
X00281Y00328*
Y00371*
X0028Y00376*
X00278Y0038*
X00275Y00382*
X00274Y00385*
X00275Y00387*
X00278Y00389*
X0028Y00393*
X00281Y00398*
Y00415*
X00284Y00416*
X00288Y00413*
Y00358*
X00289Y00353*
X00292Y00349*
X00296Y00346*
X00301Y00345*
X00419*
X00423Y00346*
X00427Y00349*
X0043Y00353*
X00431Y00358*
Y0044*
X0043Y00445*
X00427Y00449*
X00423Y00451*
X00419Y00452*
X00358*
X00354Y00457*
X00354Y0046*
X00353Y00466*
X00351Y00472*
X00347Y00477*
X00342Y00481*
X00336Y00483*
X0033Y00484*
X00323Y00483*
X00317Y00481*
X00313Y00478*
X00303*
X00296Y00476*
X0029Y00472*
X00287Y00469*
X00284Y00464*
X00275Y00455*
X00267*
X0026Y00454*
X00259Y00453*
X0023*
X00225Y00452*
X00221Y0045*
X00219Y00446*
X00218Y00441*
Y00426*
X00215Y00424*
X00213Y00423*
X0021Y00425*
X00205Y00426*
X00154*
X00149Y00425*
X00145Y00422*
X00145Y00421*
X00141Y00423*
X0014Y00423*
X0014Y00428*
X00145Y0043*
X00151Y00433*
X00186Y00468*
X0025*
X00256Y0047*
X00262Y00474*
X00266Y0048*
X00268Y00486*
Y00553*
X00267Y00557*
X00268Y00558*
X00273Y00557*
X00273Y00557*
X00277Y00552*
X00282Y00548*
X00288Y00546*
X00295Y00545*
X00301Y00546*
X00307Y00548*
X00312Y00552*
X00316Y00557*
X00318Y00563*
X00319Y0057*
X00318Y00576*
X00316Y00582*
X00312Y00587*
X00307Y00591*
X00303Y00592*
X00302Y00598*
X00332Y00628*
X00336Y00634*
X00337Y00641*
Y0074*
X00336Y00743*
Y00801*
X00372Y00837*
X00376Y00843*
X00378Y0085*
Y00925*
X00376Y00931*
X00372Y00937*
X00368Y0094*
X00369Y00945*
X0037Y00945*
X00376Y00946*
X00382Y00948*
X00387Y00952*
X00391Y00957*
X00393Y00963*
X00394Y0097*
X00393Y00976*
X00391Y00982*
X00387Y00986*
X00387Y00988*
X00389Y00991*
X00515*
X00527Y00979*
G37*
G36*
X01373Y00835D02*
X01388D01*
Y00822*
X01386Y00815*
Y00805*
X01388Y00799*
Y00763*
X01389Y00756*
X01393Y00751*
X01422Y00721*
X01436Y00708*
X01441Y00704*
X01448Y00703*
X0145Y007*
Y00691*
X01447Y00689*
X01445Y00688*
X0144Y00689*
X01433Y00688*
X01427Y00686*
X01422Y00682*
X01418Y00677*
X01416Y00671*
X01415Y00665*
X01415Y00661*
X01413Y00657*
X0141Y00652*
X0141Y00646*
Y00636*
X01405Y00635*
X01401Y00633*
X01399Y00629*
X01398Y00624*
Y00585*
X01399Y0058*
X01401Y00576*
X01405Y00574*
X0141Y00573*
X0145*
Y00491*
X01372*
X01367Y0049*
X01363Y00487*
X01361Y00483*
X0136Y00479*
Y00361*
X01361Y00356*
X01363Y00352*
X01367Y00349*
X01372Y00348*
X01455*
X01459Y00349*
X01463Y00352*
X01466Y00356*
X01467Y00361*
Y00422*
X01471Y00424*
X01536Y00359*
Y00235*
X01538Y00228*
X01542Y00222*
X01558Y00205*
X01564Y00201*
X01571Y002*
X01587*
X01587Y00198*
X01588Y00195*
X01583Y00191*
X01272*
X01267Y00196*
X01257Y002*
X01246Y00201*
X01235Y002*
X01225Y00196*
X01216Y00189*
X0121Y0018*
X01205Y0017*
X01204Y0016*
X01205Y00149*
X0121Y00139*
X01216Y0013*
X01225Y00123*
X01235Y00119*
X01246Y00118*
X01257Y00119*
X01267Y00123*
X01272Y00128*
X01583*
X01589Y00123*
X01599Y00119*
X0161Y00118*
X0162Y00119*
X0163Y00123*
X01639Y0013*
X01646Y00139*
X0165Y00149*
X01651Y0016*
X0165Y0017*
X01646Y00179*
X01649Y00183*
X0165Y00183*
X01654Y00182*
X01678*
X01679Y0018*
X01683Y00178*
X01688Y00177*
X01697*
X01698Y00175*
X01698Y00172*
X01693Y00168*
X01602Y00078*
X01058*
X01056Y00081*
Y00171*
X01056Y00172*
X01061Y00173*
X01067Y00177*
X01327Y00437*
X01331Y00443*
X01333Y0045*
Y00525*
Y00547*
X01377Y00592*
X01381Y00598*
X01383Y00605*
X01381Y00611*
X01377Y00617*
X01371Y00621*
X01365Y00623*
X01347*
X01345Y00627*
X01361Y00644*
X01368*
X01375Y00645*
X0138Y00649*
X01397Y00666*
X01401Y00671*
X01402Y00678*
Y00684*
X01414Y00697*
X01418Y00703*
X01419Y0071*
X01418Y00716*
X01414Y00722*
X01408Y00726*
X01401Y00728*
X01395Y00726*
X01389Y00723*
X01386Y00723*
X01384Y00724*
Y00734*
X01383Y0074*
X01379Y00746*
X01373Y00752*
X01367Y00756*
X01364Y00757*
Y00826*
X01363Y00831*
Y00833*
X01368Y00836*
X01373Y00835*
G37*
G36*
X02285Y00663D02*
X02286Y00659D01*
X02235Y00608*
X0222*
X02213Y00606*
X02207Y00602*
X02203Y00596*
X02201Y0059*
X02203Y00583*
X02207Y00577*
X02213Y00573*
X0222Y00571*
X02243*
X02249Y00573*
X0225Y00572*
X02253Y00569*
X02252Y00567*
X02248Y00553*
X02246Y00539*
X02247Y00531*
X02242Y00528*
X0224Y0053*
X02234Y00533*
X02227Y00533*
X02207*
X02195Y00545*
Y00644*
X02215Y00664*
X02284*
X02285Y00663*
G37*
G36*
X01139Y00499D02*
X0114Y00494D01*
X01143Y0049*
X01147Y00488*
X01151Y00487*
X01183*
X01187Y00488*
X01188Y00488*
X01192Y0049*
X01196Y00488*
X01196Y00488*
X01201Y00487*
X01232*
X01237Y00488*
X01237Y00488*
X01241Y0049*
X01245Y00488*
X01245Y00488*
X0125Y00487*
X01281*
X01286Y00488*
X0129Y0049*
X01291Y00493*
X01296Y00492*
Y00457*
X01047Y00208*
X00948*
X00941Y00206*
X00935Y00202*
X00922Y00189*
X00918Y00183*
X00916Y00176*
Y00103*
X00903*
Y00255*
X00902Y0026*
X009Y00264*
X00897Y00265*
Y0037*
X009Y00372*
X00905Y0037*
Y00281*
X00906Y00276*
X00908Y00272*
X00912Y00269*
X00917Y00268*
X01*
X01004Y00269*
X01008Y00272*
X01011Y00276*
X01012Y00281*
Y00349*
X01012Y0035*
X01017Y00351*
X01019Y00349*
X01024Y00348*
X01107*
X01111Y00349*
X01115Y00352*
X01118Y00356*
X01119Y00361*
Y00479*
X01118Y00483*
X01115Y00487*
X01112Y00489*
X0111Y00495*
X01122Y00506*
X01125Y00508*
X01139*
Y00499*
G37*
G36*
X00955Y0046D02*
X00931Y00436D01*
X0091*
X00905Y00436*
X00902Y00435*
X00899Y00433*
X00895Y0043*
X00871Y00406*
X00837*
X00836Y00408*
X00835Y00411*
X00837Y00414*
X00838Y00419*
Y00434*
X00839Y00435*
X00846Y00433*
X00847Y00432*
X00853Y00428*
X0086Y00426*
X00866Y00428*
X00872Y00432*
X00905Y00465*
X00953*
X00955Y0046*
G37*
G36*
X00788Y01868D02*
X00786Y01863D01*
Y01844*
X00671*
X00666Y01843*
X00662Y01841*
X00659Y01837*
X00658Y01832*
Y0175*
X00659Y01745*
X00662Y01741*
X00666Y01738*
X00671Y01737*
X00727*
X00729Y01733*
X00722Y01726*
X00718Y0172*
X00716Y01713*
Y01667*
X00662*
X00513Y01817*
Y01873*
X00785*
X00788Y01868*
G37*
G36*
X0021Y01956D02*
X00213Y01953D01*
X00214Y01952*
X00216Y01948*
X00217Y01947*
Y01941*
X00216Y01941*
X00214Y01937*
X00213Y01933*
Y01889*
X00214Y01885*
X00216Y01881*
Y0188*
X00214Y01876*
X00213Y01871*
Y01828*
X00214Y01823*
X00214Y01822*
X0021Y01819*
X00193Y01837*
Y01922*
X00196Y01928*
X00198Y01935*
X00196Y01941*
X00192Y01947*
X00191Y01948*
X00189Y01955*
X0019Y01956*
X00205*
X00208Y01956*
X0021Y01956*
G37*
G36*
X00613Y01576D02*
Y01551D01*
X00608Y01549*
X00608Y0155*
X00604Y01552*
X00599Y01553*
X0056*
X00555Y01552*
X00551Y0155*
X00549Y01546*
X00548Y01541*
Y01498*
X00549Y01493*
X00551Y01489*
X00555Y01487*
X00558Y01486*
X00558Y01481*
X00554*
X00549Y0148*
X00545Y01478*
X00545Y01477*
X00539*
X00539Y01478*
X00535Y0148*
X0053Y01481*
X00521*
X00521Y01486*
X00524Y01487*
X00528Y01489*
X0053Y01493*
X00531Y01498*
Y01541*
X0053Y01546*
X00528Y0155*
X00524Y01552*
X00519Y01553*
X0048*
X00475Y01552*
X00471Y0155*
X00469Y01546*
X00468Y01541*
Y01498*
X00469Y01493*
X00471Y01489*
X00475Y01487*
X00479Y01486*
X00479Y01481*
X00474Y0148*
X0047Y01478*
X00468Y01474*
X00467Y01469*
Y0141*
X00468Y01405*
X0047Y01401*
X00474Y01399*
X00479Y01398*
X00521*
X00599Y0132*
X00597Y01315*
X00588*
X00584Y01314*
X0058Y01312*
X00577Y01308*
X00576Y01303*
Y01299*
X00566*
Y01303*
X00565Y01308*
X00563Y01312*
X00559Y01314*
X00554Y01315*
X00515*
X0051Y01314*
X00506Y01312*
X00504Y01308*
X00503Y01303*
Y01278*
X00498Y01276*
X00294Y0148*
Y01533*
X00293Y0154*
X00293Y0154*
X00322Y01569*
X00494*
X005Y01568*
X00592*
X00599Y0157*
X00604Y01574*
X00608Y01578*
X00613Y01576*
G37*
G36*
X02119Y01705D02*
X0212Y01699D01*
X01979Y01558*
X01971Y01567*
X01965Y01571*
X01959Y01572*
X01894*
X01888Y01571*
X01882Y01567*
X01876Y01561*
X01872Y01555*
X01871Y01549*
Y01543*
X01851*
X01809Y01585*
X01807Y01586*
X01809Y01591*
X01823*
X01827Y01592*
X01831Y01595*
X01834Y01599*
X01835Y01603*
Y01605*
X019*
X01907Y01606*
X01912Y0161*
X01919Y01617*
X01924Y01615*
Y01603*
X01925Y01599*
X01928Y01595*
X01932Y01592*
X01936Y01591*
X01968*
X01972Y01592*
X01976Y01595*
X01979Y01599*
X0198Y01603*
Y01605*
X02011*
X02018Y01606*
X02024Y0161*
X02119Y01705*
X02119*
G37*
G36*
X00366Y02186D02*
X00517D01*
Y02034*
X0047Y01988*
X00469Y01988*
X00466Y01992*
X00466Y01993*
X00468Y02*
X00466Y02006*
X00463Y02012*
Y02026*
X00477Y02041*
X00481Y02047*
X00483Y02053*
Y02135*
X00481Y02141*
X00477Y02147*
X00457Y02167*
X00451Y02171*
X00445Y02173*
X00438Y02171*
X00432Y02167*
X00428Y02161*
X00426Y02155*
X00428Y02148*
X00432Y02142*
X00446Y02127*
Y0212*
X00441Y02116*
X0044Y02117*
X00355*
Y02179*
X00362Y02187*
X00366Y02186*
G37*
G36*
X00285Y02235D02*
X00288Y02232D01*
Y02061*
X0018*
X00179Y02061*
X0016*
Y02073*
X00257Y0217*
X00261Y02176*
X00263Y02183*
X00261Y02189*
X00257Y02195*
X00241Y02211*
X00243Y02216*
X00264*
X00269Y02217*
X00273Y02219*
X00275Y02223*
X00276Y02228*
Y02232*
X00281Y02235*
X00285Y02235*
G37*
G36*
X00419Y01831D02*
X00423Y01829D01*
X00425Y01828*
X00425Y01825*
X00426Y01818*
X00428Y01812*
X00432Y01807*
X00437Y01803*
X00443Y01801*
X0045Y018*
X00456Y01801*
X00462Y01803*
X00467Y01807*
X00471Y01812*
X00471Y01814*
X00476Y01813*
Y01809*
X00478Y01802*
X00482Y01797*
X00629Y01649*
X00584Y01604*
X005*
X00494Y01603*
X00315*
X00308Y01602*
X00303Y01598*
X00281Y01577*
X00276Y01578*
Y01594*
X00275Y01599*
X00273Y01603*
X00269Y01606*
X00264Y01607*
X00225*
X00221Y01606*
X0022Y01606*
X00219Y01607*
X00217Y01609*
X00217Y01612*
Y01635*
X00331Y01748*
X00334Y01753*
X00336Y01758*
X00337Y01764*
X00336Y01769*
X00336Y0177*
Y01808*
X00357Y01829*
X00361Y01828*
X00404*
X00409Y01829*
X00413Y01831*
X00413Y01832*
X00419*
X00419Y01831*
G37*
G36*
X0183Y02013D02*
Y0193D01*
X01825Y01929*
X01825Y01929*
X01823Y01933*
X01819Y01936*
X01814Y01937*
X01783*
X01778Y01936*
X01774Y01933*
X01773*
X01769Y01936*
X01764Y01937*
X01733*
X01729Y01936*
X01727Y01936*
X01723Y01939*
X01723Y01941*
X01721Y01947*
X01717Y01952*
X01717Y01952*
Y01973*
X01717Y01974*
X0172Y01974*
X01726Y01978*
X01732Y01984*
X01736Y0199*
X01736Y01993*
X01738Y01994*
X01767*
X01771Y01995*
X01775Y01997*
X01778Y02001*
X01779Y02006*
Y02049*
X01778Y02054*
X01775Y02058*
X01771Y0206*
X01767Y02061*
X01759*
X01757Y02066*
X01759Y02068*
X01763Y02074*
X01763Y02074*
X01768Y02075*
X0183Y02013*
G37*
G36*
X01216Y0181D02*
X01217Y01805D01*
X01219Y01801*
X01223Y01799*
X01228Y01798*
X01271*
X01276Y01799*
X0128Y01801*
X0128Y01802*
X01286*
X01286Y01801*
X0129Y01799*
X01295Y01798*
X01338*
X01343Y01799*
X01347Y01801*
X01349Y01805*
X0135Y0181*
Y01811*
X01611*
X01659Y01764*
X01665Y0176*
X01672Y01759*
X01721*
Y01715*
X01672Y01666*
X01668Y0166*
X01667Y01655*
X01665*
X0166Y01654*
X01656Y01652*
X01654Y01648*
X01653Y01643*
Y016*
X01654Y01595*
X01656Y01591*
X0166Y01589*
X01665Y01588*
X01704*
X01709Y01589*
X01713Y01591*
X01715Y01595*
X01716Y016*
Y01643*
X01715Y01648*
X01713Y01652*
X01712Y01656*
X01719Y01663*
X01724Y01662*
X01724Y01662*
X01728Y01659*
X0173Y01659*
Y01626*
X01732Y01619*
X01736Y01613*
X01746Y01602*
X01748Y01597*
X0175Y01595*
X01748Y0159*
X01737*
X01731Y01589*
X01725Y01585*
X01712Y01572*
X01685*
X01678Y0157*
X01672Y01567*
X01669Y01561*
X01667Y01555*
X01669Y01548*
X01669Y01547*
X01667Y01542*
X01665Y01541*
X01654Y01552*
X01648Y01556*
X01641Y01558*
X0136*
X01353Y01556*
X01347Y01552*
X01346Y01551*
X01203*
X01196Y0155*
X0119Y01546*
X01136Y01492*
X01132Y01486*
X01131Y01479*
Y01444*
X01129Y01442*
X01123Y01441*
X0112Y01444*
X01119Y01445*
X01119Y01445*
X01121Y01447*
X01123Y01453*
X01124Y0146*
X01123Y01466*
X01121Y01472*
X01117Y01477*
X01112Y01481*
X01106Y01483*
X01104Y01483*
X01104Y01484*
X01103Y01491*
X01101Y01497*
X01097Y01502*
X01092Y01506*
X01087Y01507*
X01088Y01509*
Y01599*
X01089*
X01094Y016*
X01098Y01602*
X011Y01606*
X01101Y01611*
Y01654*
X011Y01659*
X01098Y01663*
X01097Y01663*
Y01669*
X01098Y01669*
X011Y01673*
X01101Y01678*
Y01721*
X011Y01726*
X01098Y0173*
X01094Y01732*
X01089Y01733*
X01075*
X00996Y01812*
X00996Y01813*
X00998Y01816*
X01216*
Y0181*
G37*
G36*
X01832Y01514D02*
X01838Y0151D01*
X01844Y01509*
X01887*
Y01505*
X01888Y015*
X01889Y01498*
X01889Y01493*
X01887Y01489*
X01886Y01484*
Y01445*
X01887Y0144*
X01889Y01436*
X01893Y01434*
X01898Y01433*
X01923*
X01925Y01428*
X01749Y01253*
X0171*
X01703Y01251*
X01697Y01247*
X01597Y01147*
X01593Y01141*
X01591Y01135*
Y011*
X01593Y01093*
X01597Y01087*
X01605Y01078*
Y01064*
X01601Y01062*
X01542Y01121*
X01536Y01125*
X0153Y01126*
X01464*
X01462Y01129*
X01461Y01136*
X01459Y01139*
X01461Y01142*
X01462Y01149*
X01461Y01155*
X01459Y01158*
X01461Y01161*
X01462Y01168*
X01461Y01175*
X01459Y01178*
X01461Y01181*
X01462Y01188*
X01461Y01195*
X01459Y01198*
X01461Y01201*
X01462Y01208*
X01461Y01215*
X01459Y01217*
X01461Y0122*
X01462Y01227*
X01461Y01234*
X01459Y01237*
X01461Y0124*
X01462Y01247*
X01463Y01248*
X01467Y01248*
X01467Y01248*
X01473Y01246*
X0148Y01245*
X01486Y01246*
X01492Y01248*
X01497Y01252*
X01501Y01257*
X01503Y01263*
X01504Y01268*
X01523*
X0153Y0127*
X01536Y01274*
X01536Y01274*
X01564*
X01569Y01275*
X01573Y01277*
X01575Y01281*
X01576Y01286*
Y01329*
X01576Y0133*
X01581Y01333*
X01632Y01282*
X01638Y01278*
X01645Y01276*
X0168*
X01686Y01278*
X01692Y01282*
X01722Y01312*
X01726Y01318*
X01728Y01325*
Y0139*
X01726Y01396*
X01722Y01402*
X01672Y01452*
X01666Y01456*
X0166Y01458*
X01653Y01456*
X01647Y01452*
X01643Y01446*
X01641Y0144*
X01643Y01433*
X01647Y01427*
X01691Y01382*
Y01366*
X01686Y01365*
X01686Y01367*
X01682Y01372*
X01677Y01376*
X01671Y01378*
X01665Y01379*
X01658Y01378*
X01657Y01378*
X01607Y01427*
X01601Y01431*
X01595Y01433*
X01534*
X01532Y01436*
X01532Y01438*
X01536Y01442*
X01538Y01448*
X01539Y01455*
X01538Y01461*
X01536Y01467*
X01532Y01472*
X01527Y01476*
X01521Y01478*
X01515Y01479*
X01513Y01479*
X01513Y01481*
X0151Y01487*
X01506Y01492*
X01501Y01496*
X01495Y01498*
X01489Y01499*
X01482Y01498*
X01477Y01496*
X01471Y01492*
X01468Y01487*
X01465Y01481*
X01464Y01475*
X01465Y01468*
X01465Y01468*
X01462Y01464*
X0146Y01464*
X01453Y01463*
X01447Y01461*
X01442Y01457*
X01438Y01452*
X01436Y01446*
X01435Y0144*
X01436Y01433*
X01438Y01427*
X01442Y01422*
X01447Y01418*
X01453Y01416*
X0146Y01415*
X01466Y01416*
X01472Y01418*
X01477Y01422*
X01481Y01427*
X01483Y01433*
X01484Y0144*
X01483Y01445*
X01487Y01449*
X01491Y01448*
X01491Y01448*
X01493Y01442*
X01497Y01437*
X01502Y01433*
X01508Y01431*
X01508*
X0151Y01426*
X01429Y01345*
X0141*
X01405Y01344*
X01373*
X01371Y01343*
X01366Y01347*
Y01386*
X01365Y01393*
X01364Y01395*
Y01424*
X01365Y01426*
X01366Y01426*
X01372Y01428*
X01377Y01432*
X01381Y01437*
X01383Y01443*
X01384Y0145*
X01383Y01456*
X01381Y01462*
X01377Y01467*
X01372Y01471*
X01366Y01473*
X0136Y01474*
X01353Y01473*
X01347Y01471*
X01346Y0147*
X01342Y01467*
X01338Y0147*
X01337Y01471*
X01335Y01471*
X01337Y01474*
X01337Y01481*
X01337Y01487*
X01334Y01493*
X0133Y01498*
X01325Y01502*
X01319Y01504*
X01313Y01505*
X01306Y01504*
X01301Y01502*
X01295Y01498*
X01292Y01493*
X01289Y01487*
X01288Y01481*
X01289Y01479*
X01283Y01478*
X01282Y01482*
X01278Y01487*
X01273Y01491*
X01267Y01493*
X0126Y01494*
X01254Y01493*
X01248Y01491*
X01243Y01487*
X01239Y01482*
X01237Y01476*
X01236Y0147*
X01236Y01468*
X01232Y01466*
X01231Y01466*
X01226Y0147*
X01221Y01472*
X01214Y01473*
X01208Y01472*
X01202Y0147*
X01197Y01466*
X01193Y01461*
X01191Y01455*
X0119Y01449*
X0119Y01447*
X01188Y01442*
X01181Y01441*
X01178Y01439*
X01175Y01441*
X01169Y01442*
X01167Y01444*
Y01471*
X0121Y01515*
X01353*
X0136Y01516*
X01366Y0152*
X01367Y01521*
X01413*
X01414Y01516*
X01412Y01516*
X01407Y01512*
X01403Y01507*
X01401Y01501*
X014Y01495*
X01401Y01488*
X01403Y01482*
X01407Y01477*
X01412Y01473*
X01418Y01471*
X01425Y0147*
X01431Y01471*
X01437Y01473*
X01442Y01477*
X01446Y01482*
X01448Y01488*
X01449Y01495*
X01448Y01501*
X01446Y01507*
X01442Y01512*
X01437Y01516*
X01435Y01516*
X01436Y01521*
X01634*
X01647Y01508*
X01653Y01504*
X0166Y01503*
X01709*
X01716Y01504*
X01722Y01508*
X01737Y01523*
X01742Y01521*
Y01505*
X01743Y015*
X01744Y01498*
X01744Y01493*
X01742Y01489*
X01741Y01484*
Y01445*
X01742Y0144*
X01744Y01436*
X01748Y01434*
X01753Y01433*
X01796*
X01801Y01434*
X01805Y01436*
X01805Y01437*
X01811*
X01811Y01436*
X01815Y01434*
X0182Y01433*
X01863*
X01868Y01434*
X01872Y01436*
X01874Y0144*
X01875Y01445*
Y01484*
X01874Y01489*
X01872Y01493*
X01868Y01495*
X01863Y01496*
X01835*
X01815Y01516*
Y01524*
X0182Y01526*
X01832Y01514*
G37*
G36*
X01828Y03074D02*
X01666Y02911D01*
X01621*
X0162Y02912*
X01618Y02911*
X0154*
X01531Y0291*
X01524Y02907*
X01517Y02902*
X01512Y02895*
X01509Y02888*
X01508Y0288*
X01509Y02871*
X01512Y02864*
X01517Y02857*
X01524Y02852*
X01531Y02849*
X0154Y02848*
X01679*
X01687Y02849*
X01695Y02852*
X01701Y02857*
X018Y02956*
X01805Y02954*
X01804Y0294*
Y02938*
X01802Y02936*
X01791Y02923*
X01782Y02908*
X01775Y02892*
X01771Y02875*
X0177Y02858*
Y02841*
X017*
X01686Y02839*
X01672Y02835*
X0166Y02829*
X01649Y0282*
X0164Y02809*
X01634Y02797*
X0163Y02783*
X01628Y0277*
X0163Y02756*
X01634Y02742*
X01638Y02734*
X01597Y02692*
X01593Y02686*
X01591Y0268*
Y02636*
X01588Y02632*
X01586Y02626*
X01585Y0262*
X01586Y02613*
X01588Y02607*
X01592Y02602*
X01597Y02598*
X01603Y02596*
X0161Y02595*
X01616Y02596*
X01622Y02598*
X01627Y02602*
X01631Y02607*
X01633Y02613*
X01634Y0262*
X01633Y02626*
X01631Y02632*
X01628Y02636*
Y02672*
X01664Y02708*
X01672Y02704*
X01686Y027*
X017Y02698*
X0192*
X01934Y027*
X01947Y02704*
X01959Y0271*
X01962Y02712*
X01964*
X01969Y02713*
X01973Y02716*
X01976*
X0198Y02713*
X01985Y02712*
X02014*
X02019Y02713*
X02023Y02716*
X02025Y0272*
X02026Y02725*
Y02752*
X02034*
X02038Y02751*
X02045Y0275*
X02051Y02751*
X02057Y02753*
X02062Y02757*
X02066Y02762*
X02068Y02768*
X02069Y02775*
X02068Y02781*
X02066Y02787*
X02062Y02792*
X02057Y02796*
X02051Y02798*
X02045Y02799*
X02038Y02798*
X02032Y02796*
X02031Y02795*
X02026Y02797*
Y02814*
X02025Y02819*
X02023Y02823*
X02019Y02826*
X02014Y02827*
X0201*
X02007Y02832*
X02013Y02842*
X0202Y02858*
X02024Y02875*
X02025Y02892*
Y0294*
X02024Y02957*
X0202Y02974*
X02013Y0299*
X02004Y03005*
X01993Y03018*
X01981Y03028*
X01983Y03033*
X02205*
X02207Y03028*
X02206Y03023*
Y02986*
X02207Y02981*
X0221Y02977*
X02214Y02975*
X02218Y02974*
X0225*
Y02723*
X02251Y02714*
X02254Y02707*
X02259Y027*
X02422Y02537*
X02429Y02532*
X02436Y02529*
X02445Y02528*
X02579*
X02587Y02529*
X02595Y02532*
X02601Y02537*
X02835Y0277*
X02863*
X02868Y02771*
X02872Y02774*
X02874Y02778*
X02875Y02782*
Y02857*
X02874Y02861*
X02872Y02865*
X02868Y02868*
X02863Y02869*
X02814*
X0281Y02868*
X02806Y02865*
X02803Y02861*
X02802Y02857*
Y02828*
X02566Y02591*
X02458*
X02313Y02736*
Y02974*
X02344*
X02349Y02975*
X02353Y02977*
X02355Y02981*
X02356Y02986*
Y02996*
X02361Y02998*
X02405Y02954*
X0241Y0295*
X0241Y02945*
X02367Y02902*
X02362Y02895*
X02359Y02888*
X02358Y0288*
X02359Y02871*
X02362Y02864*
X02367Y02857*
X02374Y02852*
X02381Y02849*
X0239Y02848*
X02398Y02849*
X02405Y02852*
X02412Y02857*
X02478Y02923*
X02483Y02929*
X02484Y02933*
X02583*
X02585Y02929*
X0243Y02774*
X02421Y02763*
X02414Y02751*
X02408Y02738*
X02405Y02724*
X02404Y0271*
X02405Y02695*
X02408Y02681*
X02414Y02668*
X02421Y02656*
X0243Y02645*
X02441Y02636*
X02453Y02629*
X02466Y02623*
X0248Y0262*
X02495Y02619*
X02509Y0262*
X02523Y02623*
X02536Y02629*
X02548Y02636*
X02559Y02645*
X02837Y02924*
X02909*
Y0282*
Y027*
X0291Y02689*
X02904Y0268*
X02899Y02667*
X02895Y02653*
X02894Y02639*
Y02579*
X0289Y02577*
X02871Y02596*
Y02655*
X0287Y02665*
X02867Y02674*
X02862Y02683*
X02856Y02691*
X02848Y02697*
X02839Y02702*
X0283Y02705*
X0282Y02706*
X02809Y02705*
X028Y02702*
X02791Y02697*
X02783Y02691*
X02777Y02683*
X02772Y02674*
X02769Y02665*
X02768Y02655*
Y02574*
X02769Y02568*
X02706Y02506*
X02703*
X02677Y02532*
X0267Y02537*
X02663Y0254*
X02655Y02541*
X02646Y0254*
X02639Y02537*
X02632Y02532*
X02627Y02525*
X02624Y02518*
X02623Y0251*
X02624Y02501*
X02627Y02494*
X02632Y02487*
X02667Y02452*
X02674Y02447*
X02681Y02444*
X0269Y02443*
X0272*
X02728Y02444*
X02735Y02447*
X02742Y02452*
X02793Y02503*
X02798Y02501*
Y02451*
X02799Y02442*
X02802Y02435*
X02807Y02428*
X02883Y02352*
Y0219*
X02884Y02181*
X02887Y02174*
X02892Y02167*
X02899Y02162*
X029Y02161*
X02899Y02156*
X02895*
X0289Y02155*
X02887Y02153*
X02855Y02185*
Y02257*
X02861Y02264*
X02865Y02274*
X02866Y02285*
X02865Y02295*
X02861Y02305*
X02854Y02314*
X02845Y02321*
X02835Y02325*
X02825Y02326*
X02814Y02325*
X02804Y02321*
X02795Y02314*
X02788Y02305*
X02784Y02295*
X02783Y02285*
X02784Y02274*
X02788Y02264*
X02789Y02262*
X02788Y02257*
X02784Y02256*
X02775Y02249*
X02768Y0224*
X02764Y0223*
X02763Y0222*
X02764Y02209*
X02768Y02199*
X02775Y0219*
X02784Y02183*
X02794Y02179*
X02804Y02178*
Y02175*
X02805Y02168*
X02807Y02162*
X02811Y02156*
X02863Y02104*
X02869Y021*
X02875Y02098*
X02881Y02097*
X02884*
X02884Y02096*
X02886Y02092*
X0289Y0209*
X02895Y02089*
X02934*
X02939Y0209*
X02943Y02092*
X02944Y02095*
X02944Y02095*
X0295*
X0295Y02095*
X02951Y02092*
X02955Y0209*
X0296Y02089*
X02999*
X03004Y0209*
X03008Y02092*
X03008Y02093*
X03013Y02093*
X03014Y0209*
X03016Y02086*
X0302Y02083*
X03025Y02082*
X03084*
X03089Y02083*
X03093Y02086*
X03095Y0209*
X03096Y02094*
Y02145*
X03095Y0215*
X03093Y02154*
X03092Y02154*
Y0216*
X03093Y0216*
X03095Y02164*
X03096Y02169*
Y0222*
X03095Y02225*
X03093Y02229*
X03089Y02231*
X03084Y02232*
X03025*
X03021Y02231*
X03018Y02233*
X03016Y02234*
Y02283*
X03022*
X03026Y02284*
X0303Y02287*
X03033Y0229*
X03034Y02295*
Y02344*
X03033Y02349*
X0303Y02352*
X03026Y02355*
X03022Y02356*
X02947*
X02946Y02357*
Y02366*
X02945Y02374*
X02942Y02381*
X02937Y02388*
X02861Y02464*
Y02483*
X02869Y02484*
X02879Y02487*
X02888Y02492*
X02891Y02494*
X02896Y02492*
X02899Y02481*
X02904Y02468*
X02912Y02456*
X02921Y02445*
X02932Y02436*
X02944Y02429*
X02957Y02423*
X02971Y0242*
X02985Y02419*
X02999Y0242*
X03013Y02423*
X03026Y02429*
X03039Y02436*
X03049Y02445*
X03059Y02456*
X03066Y02468*
X03072Y02481*
X03075Y02495*
X03076Y0251*
Y02604*
X03082Y02613*
X03087Y02626*
X0309Y0264*
X03091Y02655*
X0309Y02669*
X03088Y02679*
X03089Y02686*
X0309Y027*
Y0282*
Y02952*
X03098Y02961*
X03105Y02973*
X03107Y02978*
X03112Y02977*
Y00127*
X03107Y00126*
X031Y00135*
X03089Y00144*
X03077Y0015*
X03063Y00154*
X0305Y00156*
X03036Y00154*
X03022Y0015*
X0301Y00144*
X02999Y00135*
X0299Y00124*
X02984Y00112*
X0298Y00098*
X02978Y00085*
X0298Y00071*
X02984Y00057*
X0299Y00045*
X02999Y00034*
X0301Y00025*
X03022Y00019*
X03036Y00015*
X0305Y00013*
X03063Y00015*
X03077Y00019*
X03089Y00025*
X031Y00034*
X03107Y00043*
X03112Y00042*
Y00002*
X02286*
X02285Y00007*
X02287Y00008*
X02289Y00012*
X0229Y00016*
Y00123*
X02289Y00127*
X02287Y00131*
X02283Y00134*
X02278Y00135*
X02262*
Y00144*
X02265Y00144*
X02269Y00147*
X02271Y00151*
X02272Y00155*
Y00234*
X02271Y00238*
X02269Y00242*
X02266Y00244*
X02266Y00246*
X02263Y00252*
X02259Y00258*
X02254Y00262*
X02247Y00264*
X02245Y00265*
X02238Y00272*
Y00277*
X02257Y00296*
X02261Y00301*
X02264Y00308*
X02265Y00314*
Y00479*
X0227Y00481*
X02272Y00477*
X02277Y00473*
X02283Y00471*
X0229Y0047*
X02296Y00471*
X023Y00467*
X02301Y00464*
X0231Y0045*
X02321Y00436*
X02441Y00316*
X02455Y00305*
X02469Y00296*
X02485Y00289*
X02502Y00285*
X0252Y00284*
X029*
X02917Y00285*
X02934Y00289*
X0295Y00296*
X02965Y00305*
X02978Y00316*
X03023Y00361*
X03034Y00375*
X03043Y00389*
X0305Y00405*
X03054Y00422*
X03055Y0044*
Y01748*
X03054Y01765*
X0305Y01782*
X03043Y01798*
X03034Y01813*
X03023Y01826*
X02813Y02035*
X028Y02046*
X02785Y02056*
X02782Y02057*
X02594Y02244*
X02593Y02248*
X02584Y02263*
X02573Y02276*
X02312Y02536*
X02299Y02547*
X02285Y02556*
X02268Y02563*
X02252Y02567*
X02234Y02568*
X02057*
Y02635*
X02056Y0264*
X02054Y02644*
X0205Y02646*
X02045Y02647*
X01654*
X01649Y02646*
X01645Y02644*
X01643Y0264*
X01642Y02635*
Y02568*
X01572*
Y02635*
X01571Y0264*
X01569Y02644*
X01565Y02646*
X0156Y02647*
X01171*
X0117Y02652*
X01172Y02653*
X01177Y02657*
X01181Y02662*
X01183Y02668*
X01184Y02673*
X01209Y02699*
X01215Y02698*
X01415*
X01425Y02699*
X01435Y02698*
X01449Y027*
X01462Y02704*
X01474Y0271*
X01477Y02712*
X01479*
X01484Y02713*
X01488Y02716*
X01491*
X01495Y02713*
X015Y02712*
X01529*
X01534Y02713*
X01538Y02716*
X0154Y0272*
X01541Y02725*
Y02751*
X01552*
X01553Y02751*
X0156Y0275*
X01566Y02751*
X01572Y02753*
X01577Y02757*
X01581Y02762*
X01583Y02768*
X01584Y02775*
X01583Y02781*
X01581Y02787*
X01577Y02792*
X01572Y02796*
X01566Y02798*
X0156Y02799*
X01553Y02798*
X01547Y02796*
X01546Y02795*
X01541Y02797*
Y02814*
X0154Y02819*
X01538Y02823*
X01534Y02826*
X01529Y02827*
X015*
X01497Y02826*
X01493Y0283*
X01494Y02832*
X01495Y0285*
Y0294*
X01494Y02957*
X0149Y02974*
X01483Y0299*
X01474Y03005*
X01463Y03018*
X0145Y03029*
X01435Y03038*
X01419Y03045*
X01402Y03049*
X01385Y0305*
X01367Y03049*
X0135Y03045*
X01334Y03038*
X0132Y03029*
X01306Y03018*
X01295Y03005*
X01286Y0299*
X01279Y02974*
X01275Y02957*
X01274Y0294*
Y0285*
X01274Y02844*
X01271Y02841*
X01215*
X01201Y02839*
X01187Y02835*
X01175Y02829*
X01164Y0282*
X01155Y02809*
X01149Y02797*
X01145Y02783*
X01143Y0277*
X01145Y02756*
X01149Y02742*
X01155Y0273*
X01164Y02719*
X01169Y02715*
X01169Y0271*
X01158Y02699*
X01153Y02698*
X01147Y02696*
X01147Y02696*
X01145Y02698*
X01076Y02767*
Y02814*
X01075Y02819*
X01073Y02823*
X01069Y02826*
X01064Y02827*
X01035*
X0103Y02826*
X01026Y02823*
X01023*
X01019Y02826*
X01014Y02827*
X01012*
X01009Y02829*
X00997Y02835*
X00984Y02839*
X0097Y02841*
X0096*
Y0294*
X00959Y02957*
X00955Y02974*
X00948Y0299*
X00939Y03005*
X00928Y03018*
X00915Y03029*
X009Y03038*
X00884Y03045*
X00867Y03049*
X0085Y0305*
X00832Y03049*
X00815Y03045*
X00799Y03038*
X00785Y03029*
X00771Y03018*
X0076Y03005*
X00751Y0299*
X00744Y02974*
X0074Y02957*
X00739Y0294*
Y02847*
X00732Y02845*
X0072Y02838*
X00709Y0283*
X007Y02819*
X00693Y02807*
X00689Y02793*
X00688Y02779*
X00689Y02765*
X00693Y02752*
X007Y0274*
X00709Y02729*
X00719Y02719*
X00729Y0271*
X00742Y02704*
X00755Y027*
X00769Y02698*
X00915*
X00928Y027*
X00932Y02701*
X00936Y027*
X0095Y02698*
X0097*
X00984Y027*
X00997Y02704*
X01008Y02709*
X01017Y027*
X01023Y02696*
X0103Y02695*
X01044*
X01085Y02653*
X01085Y02652*
X01081Y02647*
X00704*
X00699Y02646*
X00695Y02644*
X00693Y0264*
X00692Y02635*
Y0228*
X00693Y02276*
X00695Y02272*
X00699Y02269*
X00704Y02268*
X01095*
X011Y02269*
X01104Y02272*
X01106Y02276*
X01107Y0228*
Y02347*
X01157*
Y0228*
X01158Y02276*
X0116Y02272*
X01164Y02269*
X01169Y02268*
X0156*
X01565Y02269*
X01569Y02272*
X01571Y02276*
X01572Y0228*
Y02347*
X01642*
Y0228*
X01643Y02276*
X01645Y02272*
X01649Y02269*
X01654Y02268*
X02045*
X0205Y02269*
X02054Y02272*
X02056Y02276*
X02057Y0228*
Y02347*
X02189*
X02271Y02265*
X0227Y02262*
X02268Y0226*
X0226Y02262*
X0225Y0226*
X02241Y02257*
X02233Y02251*
X02227Y02243*
X02224Y02234*
X02222Y02225*
X02224Y02215*
X02227Y02206*
X02233Y02198*
Y02196*
X02227Y02188*
X02224Y02179*
X02222Y0217*
X02224Y0216*
X02227Y02151*
X02231Y02146*
X02233Y02142*
X02231Y02138*
X02227Y02133*
X02224Y02124*
X02222Y02115*
X02224Y02105*
X02227Y02096*
X02233Y02088*
X02241Y02082*
X0225Y02079*
X0226Y02077*
X0226Y02077*
X02345Y01992*
X0235Y01988*
X02354Y01987*
Y01982*
X02311Y01939*
X02307Y01934*
X02306Y0193*
X02301Y01931*
Y01976*
X023Y0198*
X02297Y01984*
X02293Y01987*
X02289Y01988*
X0217*
X02166Y01987*
X02162Y01984*
X02159Y0198*
X02158Y01976*
Y01893*
X02159Y01888*
X02162Y01884*
X02166Y01882*
X0217Y01881*
X02289*
X02293Y01882*
X02297Y01884*
X02299Y01887*
X02304Y01885*
Y01726*
X02305Y0172*
X02307Y01713*
X02311Y01708*
X02401Y01619*
Y01585*
X02363*
X02359Y01584*
X02355Y01582*
X02352Y01578*
X02351Y01573*
Y01536*
X02352Y01531*
X02355Y01527*
X02359Y01525*
X02363Y01524*
X02489*
X02494Y01525*
X02498Y01527*
X025Y01531*
X02501Y01536*
Y01573*
X025Y01578*
X02498Y01582*
X02494Y01584*
X02489Y01585*
X02452*
Y0163*
X02451Y01636*
X02449Y01642*
X02445Y01648*
X02355Y01737*
Y0191*
X02407Y01961*
X02473*
X02477Y01962*
X02481Y01965*
X02484Y01969*
X02485Y01973*
Y02035*
X02489Y02037*
X02647Y01879*
X02661Y01868*
X02675Y01858*
X02679Y01857*
X02834Y01702*
Y01091*
X02829Y0109*
X02829Y01091*
X02821Y01103*
X02818Y01106*
Y01537*
X02819Y0154*
X0282Y01555*
X02819Y01569*
X02816Y01583*
X0281Y01596*
X02803Y01608*
X02794Y01619*
X02783Y01628*
X02771Y01635*
X02761Y01639*
Y0169*
X0276Y01698*
X02757Y01705*
X02752Y01712*
X02612Y01852*
X02605Y01857*
X02598Y0186*
X0259Y01861*
X0242*
X02411Y0186*
X02404Y01857*
X02397Y01852*
X02392Y01845*
X02389Y01838*
X02388Y0183*
X02389Y01821*
X02392Y01814*
X02397Y01807*
X02404Y01802*
X02411Y01799*
X0242Y01798*
X02576*
X02698Y01676*
Y01639*
X02688Y01635*
X02676Y01628*
X02673Y01626*
X02659*
X02645Y0164*
X02634Y01649*
X02622Y01655*
X02608Y01659*
X02595Y01661*
X02581Y01659*
X02567Y01655*
X02555Y01649*
X02544Y0164*
X02535Y01629*
X02529Y01617*
X02525Y01603*
X02523Y0159*
X02525Y01576*
X02529Y01562*
X02535Y0155*
X02544Y01539*
X02559Y01524*
X02579Y01504*
X0259Y01495*
X02602Y01489*
X02616Y01485*
X0263Y01483*
X02637*
Y0107*
X02638Y01055*
X02641Y01041*
X02647Y01028*
X02654Y01016*
X02657Y01013*
Y0059*
X02658Y00575*
X02661Y00561*
X02667Y00548*
X02674Y00536*
X02683Y00525*
X02694Y00516*
X02704Y0051*
X02703Y00505*
X02565*
X02515Y00556*
X02516Y00562*
X02516Y00562*
X02519Y00566*
X0252Y00571*
Y00608*
X02519Y00613*
X02516Y00617*
X02516Y00617*
Y0105*
X02514Y01063*
X0251Y01077*
X02504Y01089*
X02495Y011*
X02484Y01109*
X02472Y01115*
X02458Y01119*
X02445Y01121*
X02431Y01119*
X02417Y01115*
X02405Y01109*
X02395Y011*
X02362*
X02357Y01099*
X02353Y01097*
X0235Y01093*
X02349Y01088*
Y01051*
X0235Y01046*
X02353Y01042*
X02357Y0104*
X02362Y01039*
X02373*
Y00661*
X02365*
X02351Y00659*
X02341Y00656*
X02338Y00661*
X02339Y00663*
X02341Y0067*
Y00916*
X02339Y00923*
X02335Y00929*
X0233Y00933*
X02323Y00934*
X02198*
Y01081*
X02197Y01087*
X02193Y01093*
X02164Y01122*
X02159Y01125*
X02152Y01127*
X02117*
Y01205*
X02115Y01211*
X02112Y01217*
X02065Y01263*
X02062Y01267*
X02058Y0127*
Y01446*
X02063Y0145*
X02065Y0145*
X02068Y0145*
X02073Y01447*
Y01443*
X02074Y01438*
X02076Y01434*
X0208Y01432*
X02085Y01431*
X02107*
X02148Y0139*
Y0138*
X02146Y01376*
X02145Y0137*
X02146Y01363*
X02148Y01357*
X02152Y01352*
X02157Y01348*
X02163Y01346*
X0217Y01345*
X02176Y01346*
X02182Y01348*
X02187Y01352*
X02191Y01357*
X02193Y01363*
X02194Y0137*
X02193Y01376*
X02191Y0138*
Y014*
X02191Y01405*
X02188Y0141*
X02185Y01415*
X02136Y01464*
Y01486*
X02135Y01491*
X02133Y01495*
X02132Y01495*
Y01501*
X02133Y01501*
X02135Y01505*
X02136Y0151*
Y01553*
X02135Y01558*
X02133Y01562*
X02129Y01564*
X02124Y01565*
X02085*
X0208Y01564*
X02076Y01562*
X02074Y01558*
X02073Y01553*
Y01516*
X02052Y01495*
X02052Y01495*
X02047Y01492*
X02046Y01492*
X02008Y0153*
Y01535*
X02155Y01683*
X02159Y0168*
X02158Y01676*
Y01593*
X02159Y01588*
X02162Y01584*
X02166Y01582*
X0217Y01581*
X02289*
X02293Y01582*
X02297Y01584*
X023Y01588*
X02301Y01593*
Y01676*
X023Y0168*
X02297Y01684*
X02293Y01687*
X02289Y01688*
X02276*
X02275Y01693*
X02277Y01693*
X02282Y01697*
X02286Y01702*
X02288Y01708*
X02289Y01715*
X02288Y01721*
X02286Y01727*
X02282Y01732*
X02277Y01736*
X02271Y01738*
X02265Y01739*
X02258Y01738*
X02252Y01736*
X02247Y01732*
X02243Y01727*
X02241Y01721*
X0224Y01715*
X02241Y01708*
X02243Y01702*
X02247Y01697*
X02252Y01693*
X02254Y01693*
X02253Y01688*
X0217*
X02166Y01687*
X02163Y01691*
X02175Y01703*
X02179Y01708*
X0218Y01715*
Y01806*
X02179Y01813*
X02176Y01816*
X02179Y01821*
X0219*
X02196Y01823*
X02202Y01827*
X02206Y01833*
X02208Y0184*
X02206Y01846*
X02202Y01852*
X02196Y01856*
X0219Y01858*
X02138*
X02132Y01856*
X02126Y01853*
X02116*
X02109Y01851*
X02103Y01847*
X02085Y01829*
X02021*
X02018Y01834*
X02021Y01837*
X02023Y01843*
X02024Y0185*
X02023Y01856*
X02021Y01862*
X02017Y01867*
X02012Y01871*
X02006Y01873*
X02Y01874*
X01999Y01874*
X01984Y0189*
X01978Y01893*
X01976Y01894*
Y01925*
X01975Y01929*
X01973Y01933*
X01969Y01936*
X01964Y01937*
X01933*
X01928Y01936*
X01924Y01933*
X01922Y01929*
X01921Y01925*
Y0183*
X0192Y01829*
X01915*
Y01878*
X01913Y01884*
X01909Y0189*
X01903Y01894*
X01897Y01896*
X01867*
Y02021*
X01865Y02027*
X01861Y02033*
X01787Y02107*
X01781Y02111*
X01775Y02113*
X01753*
X01729Y02137*
Y0215*
X01728Y02156*
X01724Y02162*
X01711Y02175*
X01705Y02179*
X01699Y0218*
X01687*
X01683Y02185*
X01684Y0219*
X01683Y02196*
X01681Y02202*
X01677Y02207*
X01672Y02211*
X01666Y02213*
X0166Y02214*
X01653Y02213*
X01647Y02211*
X01642Y02207*
X01638Y02202*
X01638Y02201*
X01632Y022*
X01632Y02202*
X01626Y02205*
X0162Y02207*
X01616*
X01582Y02241*
X01576Y02245*
X0157Y02246*
X01046*
X01039Y02245*
X01034Y02241*
X00985Y02192*
X00981Y02186*
X0098Y0218*
Y02135*
X00949Y02105*
X00946Y02099*
X00944Y02093*
X00946Y02086*
X00949Y02081*
X00955Y02077*
X00961Y02076*
X00968Y02077*
X00973Y02081*
X00985Y02093*
X0099Y02091*
Y02073*
X00991Y02068*
X00994Y02064*
X00994Y02064*
Y02058*
X0099Y02056*
X00986Y02058*
X00981Y02059*
X00942*
X00937Y02058*
X00933Y02056*
X00931Y02052*
X0093Y02047*
Y02004*
X00931Y01999*
X00933Y01995*
X00937Y01993*
X00942Y01992*
X00981*
X00986Y01993*
X00989Y01995*
X00994Y01997*
X00998Y01995*
X00999Y01989*
X00998Y01987*
X00997Y01981*
X00998Y01975*
X01001Y01969*
X01005Y01964*
X0101Y0196*
X01014Y01958*
X01015Y01957*
X01022Y01956*
X01028Y01957*
X01029Y01958*
X01034Y0196*
X01039Y01964*
X01043Y01969*
X01046Y01975*
X01046Y01981*
X01046Y01987*
X01045Y01989*
X01046Y01995*
X0105Y01997*
X01054*
X01058Y01995*
X01059Y01989*
X01059Y01987*
X01058Y01981*
X01059Y01975*
X01061Y01969*
X01065Y01964*
X0107Y0196*
X01076Y01957*
X01079Y01957*
X01082Y01956*
X01085Y01957*
X01089Y01957*
X01095Y0196*
X011Y01964*
X01104Y01969*
X01106Y01975*
X01107Y01981*
X01106Y01987*
X01105Y01989*
X01107Y01995*
X0111Y01997*
X01115*
X01118Y01995*
X01122Y01994*
Y01982*
X01122Y01982*
X01118Y01977*
X01116Y01971*
X01115Y01965*
X01116Y01958*
X01118Y01952*
X01122Y01947*
X01127Y01943*
X01133Y01941*
X0114Y0194*
X01146Y01941*
X01152Y01943*
X01157Y01947*
X01161Y01952*
X01163Y01958*
X01164Y01965*
X01163Y01971*
X01161Y01977*
X01157Y01982*
X01157Y01982*
Y01994*
X01162*
X01167Y01995*
X01171Y01997*
X01175*
X01179Y01995*
X01182Y01994*
Y01987*
X01182Y01987*
X01178Y01982*
X01176Y01976*
X01175Y0197*
X01176Y01963*
X01178Y01957*
X01182Y01952*
X01187Y01948*
X01193Y01946*
X012Y01945*
X01206Y01946*
X01212Y01948*
X01217Y01952*
X01221Y01957*
X01223Y01963*
X01224Y0197*
X01223Y01976*
X01221Y01982*
X01217Y01987*
X01217Y01987*
Y01994*
X01223*
X01227Y01995*
X01231Y01997*
X01235*
X01239Y01995*
X01244Y01994*
X01267*
X0127Y01989*
X0127Y01985*
X01271Y01979*
X01273Y01973*
X01277Y01968*
X01279Y01966*
X01282Y01963*
X0128Y01959*
X01278Y01957*
X01276Y01951*
X01275Y01945*
X01276Y01938*
X01278Y01932*
X01282Y01927*
X01287Y01923*
X01293Y01921*
X013Y0192*
X01305Y01921*
X01307Y01919*
X01308Y01916*
X01306Y01911*
X01305Y01905*
X01306Y01898*
X01308Y01892*
X01308Y01892*
X01306Y01888*
X01255*
X01253Y01892*
X01253Y01893*
X01254Y019*
X01253Y01906*
X01251Y01912*
X01247Y01917*
X01242Y01921*
X01236Y01923*
X0123Y01924*
X01223Y01923*
X01217Y01921*
X01214Y01918*
X01213Y01918*
X01208Y01922*
X01202Y01925*
X01196Y01925*
X0119Y01925*
X01184Y01922*
X01179Y01918*
X01175Y01913*
X01172Y01907*
X01171Y01901*
X01172Y01895*
X01173Y01893*
X0117Y01888*
X01145*
X01138Y01886*
X01132Y01882*
X01128Y01876*
X01126Y0187*
X01128Y01863*
X01131Y01858*
X0113Y01854*
X01129Y01853*
X01111*
Y01889*
X0111Y01894*
X01108Y01898*
X01104Y019*
X01099Y01901*
X01056*
X01051Y019*
X01047Y01898*
X01045Y01894*
X01044Y01891*
X01029*
X01019Y01901*
X01018Y01906*
X01016Y01912*
X01012Y01917*
X01007Y01921*
X01001Y01923*
X00996Y01924*
X00911Y02009*
Y0201*
X00911Y02015*
X00908Y0202*
X00905Y02025*
X00878Y02052*
X00873Y02056*
X00871Y02057*
X00871Y02057*
X00869Y02061*
X00865Y02064*
X0086Y02065*
X00809*
X00804Y02064*
X008Y02061*
X00798Y02057*
X00797Y02053*
Y02021*
X00798Y02017*
X00798Y02016*
X008Y02012*
X00798Y02008*
X00798Y02008*
X00797Y02003*
Y01972*
X00798Y01967*
X00798Y01967*
X008Y01963*
X00798Y01959*
X00798Y01959*
X00797Y01954*
Y01923*
X00798Y01918*
X008Y01914*
X00801Y01914*
X00799Y01909*
X00541*
X00538Y01914*
X00541Y01917*
X00543Y01923*
X00544Y0193*
X00543Y01936*
X00541Y01942*
X00537Y01947*
X00532Y01951*
X00526Y01953*
X0052Y01954*
X00513Y01953*
X00507Y01951*
X00503Y01948*
X00488*
X00486Y01953*
X00487Y01953*
X00548Y02014*
X00552Y0202*
X00553Y02027*
Y02369*
X00552Y02376*
X00548Y02382*
X00535Y02394*
Y02406*
X00534Y02411*
X00532Y02415*
X00528Y02418*
X00527Y02418*
Y02423*
X00528Y02423*
X00532Y02426*
X00534Y02429*
X00535Y02434*
Y02466*
X00534Y0247*
X00532Y02474*
X00528Y02477*
X00523Y02478*
X00366*
X00361Y02477*
X00357Y02474*
X00356Y02472*
X00294*
X00289Y02471*
X00283Y02469*
X00279Y02465*
X00275Y02461*
X00275Y0246*
X00215*
X00214Y02462*
X0021Y02465*
X00205Y02466*
X00173*
X00171Y0247*
X00171Y02471*
X00173Y02478*
Y02747*
X00177Y0275*
X00181Y02748*
X00195Y02745*
X0021Y02744*
X00365*
X00379Y02745*
X00393Y02748*
X00406Y02754*
X00418Y02761*
X00429Y0277*
X00438Y02781*
X00445Y02793*
X00451Y02806*
X00454Y0282*
X00454Y02824*
X00709Y03078*
X01826*
X01828Y03074*
G37*
G36*
X01038Y01719D02*
Y01678D01*
X01039Y01673*
X01041Y01669*
X01042Y01669*
Y01663*
X01041Y01663*
X01039Y01659*
X01038Y01654*
Y0165*
X01036Y01649*
X0103Y01645*
X01003Y01619*
X00998Y01618*
X00992Y01616*
X00987Y01612*
X00983Y01607*
X00981Y01601*
X0098Y01595*
X00981Y01588*
X00983Y01582*
X00987Y01577*
X00992Y01573*
X00998Y01571*
X01005Y0157*
X01011Y01571*
X01017Y01573*
X01022Y01577*
X01026Y01582*
X01028Y01588*
X01029Y01593*
X01038Y01603*
X01041Y01602*
X01045Y016*
X0105Y01599*
X01051*
Y01516*
X01042Y01507*
X01038Y01501*
X01037Y01494*
Y01474*
X01033Y01473*
X01028Y01471*
X01026Y01477*
X01022Y01482*
X01017Y01486*
X01015Y01486*
Y01524*
X01014Y01529*
X01012Y01533*
X01008Y01535*
X01003Y01536*
X0096*
X00955Y01535*
X00951Y01533*
X00949Y01529*
X00948Y01524*
Y01485*
X00949Y0148*
X00951Y01476*
X00955Y01474*
X0096Y01473*
X00962*
Y01454*
X00963Y01447*
X00962Y01442*
X00959Y01441*
X00952Y01442*
X00945Y01441*
X00942Y01439*
X00939Y01441*
X00936Y01442*
X00933Y01447*
X00933Y01448*
X00934Y01455*
X00933Y01461*
X00931Y01467*
X00927Y01472*
X00922Y01476*
X00919Y01477*
X00918Y01483*
X00927Y01492*
X00931Y01498*
X00933Y01505*
X00931Y01511*
X00927Y01517*
X00921Y01521*
X00915Y01523*
X00887*
X00753Y01657*
Y01705*
X00765Y01718*
X00793*
X008Y0172*
X00806Y01723*
X00817Y01735*
X00821Y0174*
X00823Y01747*
Y01855*
X00846Y01878*
X0085Y01884*
X00851Y01891*
X0085Y01898*
X00847Y01903*
X00848Y01907*
X00848Y01908*
X00849Y01908*
X01038Y01719*
G37*
G36*
X01083Y01337D02*
X0109Y01335D01*
X01097Y01337*
X011Y01339*
X01103Y01337*
X0111Y01335*
X01116Y01337*
X01119Y01339*
X01122Y01337*
X01129Y01335*
X01136Y01337*
X01139Y01339*
X01142Y01337*
X01149Y01335*
X01156Y01337*
X01156Y01337*
X01161Y01336*
X01163Y01331*
X01161Y01326*
X0116Y0132*
X01161Y01313*
X01163Y01307*
X01167Y01302*
X01169Y01301*
X01172Y01297*
X0117Y01294*
X01168Y01292*
X01166Y01286*
X01165Y0128*
X01166Y01273*
X01168Y01267*
X01172Y01262*
X01177Y01258*
X01183Y01256*
X0119Y01255*
X01196Y01256*
X01202Y01258*
X01207Y01262*
X01211Y01267*
X01211Y01268*
X01215Y01266*
X01221Y01265*
X01228Y01266*
X01233Y01269*
X01239Y01273*
X01242Y01278*
X01245Y01284*
X01245Y01285*
X01246Y01285*
X01252Y01286*
X01258Y01288*
X01263Y01292*
X01265Y01295*
X01267Y01293*
X01273Y01291*
X0128Y0129*
X01286Y01291*
X01292Y01293*
X01297Y01297*
X01301Y01302*
X01303Y01308*
X01308Y01307*
Y01265*
X01306Y01264*
X01303Y01259*
X013Y01253*
X01299Y01247*
X013Y01241*
X01303Y01235*
X01306Y0123*
X01312Y01226*
X01313Y01225*
X01313Y01225*
X01311Y01218*
Y01211*
X01308Y01207*
X01306Y01201*
X01305Y01195*
X01306Y01188*
X01308Y01182*
X01312Y01177*
X01316Y01174*
X01318Y01168*
X01282Y01133*
X01278Y01127*
X01277Y0112*
Y011*
X01272Y01098*
X01053Y01318*
X01051Y01322*
X01047Y01327*
X01042Y0133*
X01042Y01333*
X01042Y01336*
X01043Y01337*
X01044Y01337*
X0105Y01335*
X01057Y01337*
X0106Y01339*
X01063Y01337*
X0107Y01335*
X01077Y01337*
X0108Y01339*
X01083Y01337*
G37*
G36*
X03003Y03223D02*
X02999Y0322D01*
X0299Y03209*
X02984Y03197*
X0298Y03183*
X02978Y0317*
X0298Y03156*
X02984Y03142*
X0299Y0313*
X02999Y03119*
X0301Y0311*
X0301Y0311*
X03008Y03105*
X028*
X02785Y03104*
X02771Y03101*
X02758Y03095*
X02746Y03088*
X02735Y03079*
X0266Y03004*
X02656Y03006*
X02654Y03018*
X0265Y03032*
X02644Y03044*
X02635Y03055*
X02624Y03064*
X02612Y0307*
X02598Y03074*
X02585Y03076*
X02485*
X0236Y032*
X02349Y03209*
X02337Y03215*
X02324Y0322*
X0231Y03221*
X0068*
X00666Y0322*
X00652Y03215*
X0064Y03209*
X00629Y032*
X00355Y02925*
X0021*
X00195Y02924*
X00181Y02921*
X00168Y02915*
X00156Y02908*
X00145Y02899*
X00136Y02888*
X00129Y02876*
X00123Y02863*
X0012Y02849*
X00119Y02835*
X0012Y0282*
X00123Y02806*
X00129Y02793*
X00136Y02781*
X00137Y0278*
X00136Y0278*
Y02596*
X00134Y02593*
X00016*
X00011Y02592*
X00007Y0259*
X00004Y02586*
X00003Y02581*
Y02499*
X00004Y02494*
X00007Y0249*
X00011Y02487*
X00016Y02486*
X0013*
X00132Y02481*
X00129Y02478*
X00125Y02472*
X00124Y02466*
Y02368*
X00125Y02361*
X00129Y02355*
X00158Y02327*
X00164Y02323*
X00171Y02321*
X00172*
X00175Y02319*
Y02235*
X00176Y02228*
X0018Y02222*
X00219Y02183*
X0015Y02114*
X00146Y02116*
Y02176*
X00145Y02181*
X00142Y02185*
Y0219*
X00145Y02194*
X00146Y02199*
Y02281*
X00145Y02286*
X00142Y0229*
X00138Y02292*
X00134Y02293*
X00016*
X00011Y02292*
X00007Y0229*
X00004Y02286*
X00003Y02281*
Y02199*
X00004Y02194*
X00007Y0219*
X00007Y02185*
X00004Y02181*
X00003Y02176*
Y02094*
X00004Y02089*
X00007Y02085*
X00011Y02082*
X00016Y02081*
X00123*
X00124Y0208*
Y01963*
X00125Y01956*
X00129Y0195*
X00156Y01923*
Y0183*
X00158Y01823*
X00162Y01817*
X00209Y0177*
X00215Y01766*
X00221Y01765*
X00245*
X00251Y01766*
X00257Y0177*
X00261Y01776*
X00263Y01783*
Y01795*
X00261Y01801*
X00257Y01807*
X00256Y01808*
X00255Y01815*
X00256Y01816*
X00264*
X00269Y01817*
X00273Y01819*
X00275Y01823*
X00276Y01828*
Y0183*
X00281Y01831*
X00287Y01833*
X0029Y01836*
X00294Y01832*
X00293Y01832*
X00291Y01826*
X0029Y0182*
X00291Y01813*
X00293Y01809*
Y01772*
X00176Y01656*
X00154*
X00149Y01655*
X00145Y01652*
X00144Y0165*
X00118*
X00112Y01649*
X00107Y01647*
X00102Y01643*
X00099Y0164*
X00096Y01635*
X00093Y0163*
X00093Y01625*
Y01522*
X00093Y01516*
X00096Y01511*
X00099Y01507*
X00118Y01488*
X00116Y01483*
X00016*
X00011Y01482*
X00007Y0148*
X00004Y01476*
X00003Y01471*
Y01389*
X00004Y01384*
X00007Y0138*
X00011Y01377*
X00011Y01377*
Y01372*
X00011Y01372*
X00007Y0137*
X00004Y01366*
X00003Y01361*
Y01279*
X00004Y01274*
X00007Y0127*
X00011Y01267*
X00016Y01266*
X00128*
Y01248*
X00128Y01242*
X00131Y01237*
X00134Y01233*
X00136Y0123*
X00123Y01216*
X00119Y01212*
X00117Y01207*
X00116Y01201*
Y01097*
X00117Y01092*
X00119Y01086*
X00123Y01082*
X00127Y01078*
X00125Y01073*
X00016*
X00011Y01072*
X00007Y0107*
X00004Y01066*
X00003Y01061*
Y00979*
X00004Y00974*
X00007Y0097*
X00011Y00967*
X00011Y00967*
Y00962*
X00011Y00962*
X00007Y0096*
X00004Y00956*
X00003Y00951*
Y00869*
X00004Y00864*
X00007Y0086*
X00011Y00857*
X00015Y00857*
X00016Y00855*
X00016Y00854*
X00017Y00851*
X00013Y00847*
X00011Y00841*
X0001Y00835*
X00011Y00828*
X00013Y00822*
X00017Y00817*
X00022Y00813*
X00028Y00811*
X00035Y0081*
X00041Y00811*
X00047Y00813*
X00052Y00817*
X00056Y00822*
X00058Y00828*
X00059Y00835*
X00058Y00841*
X00056Y00847*
X00052Y00851*
X00052Y00853*
X00054Y00856*
X001*
X00102Y00853*
X00102Y00851*
X00098Y00847*
X00096Y00841*
X00095Y00835*
X00096Y00828*
X00098Y00822*
X00102Y00817*
X00107Y00813*
X00113Y00811*
X0012Y0081*
X00126Y00811*
X0013Y00813*
X00142*
Y00792*
X00143Y00788*
X00143Y00787*
X00145Y00783*
X00143Y00779*
X00143Y00779*
X00142Y00774*
Y00758*
X00137Y00756*
X00137Y00756*
X00131Y00758*
X00125Y00759*
X00118Y00758*
X00112Y00756*
X00107Y00752*
X00103Y00747*
X00101Y00741*
X001Y00735*
X00101Y00728*
X00103Y00722*
X00107Y00717*
X00112Y00713*
X00118Y00711*
X00125Y0071*
X00131Y00711*
X00137Y00713*
X00142Y00717*
X00146Y00722*
X00148Y00728*
X00154Y00731*
X00154Y00731*
X00169*
X0017Y0073*
X00168Y00723*
X00167Y00722*
X00163Y00716*
X00161Y0071*
Y00623*
X00163Y00616*
X00167Y0061*
X00218Y00559*
X00218Y00558*
X00219Y00551*
X00223Y00545*
X00229Y00541*
X00231Y0054*
Y00504*
X00179*
X00172Y00503*
X00166Y00499*
X0015Y00484*
X00146Y00486*
Y00541*
X00145Y00546*
X00142Y0055*
X00138Y00552*
X00138Y00552*
Y00557*
X00138Y00557*
X00142Y0056*
X00145Y00564*
X00146Y00569*
Y00651*
X00145Y00656*
X00142Y0066*
X00138Y00662*
X00134Y00663*
X00016*
X00011Y00662*
X00007Y0066*
X00004Y00656*
X00003Y00651*
Y00569*
X00004Y00564*
X00007Y0056*
X00011Y00557*
X00011Y00557*
Y00552*
X00011Y00552*
X00007Y0055*
X00004Y00546*
X00003Y00541*
Y00459*
X00004Y00454*
X00007Y0045*
X00011Y00447*
X00016Y00446*
X0008*
X00082Y00442*
X00057Y00417*
X00053Y00412*
X00052Y00405*
Y00359*
X00053Y00352*
X00057Y00347*
X00117Y00287*
X00123Y00283*
X0013Y00281*
X00173*
X00175Y0028*
X00178Y0028*
Y00278*
X00179Y00271*
X00183Y00265*
X00212Y00236*
X00218Y00232*
X00225Y00231*
X00274*
X00281Y00232*
X00287Y00236*
X0033Y00279*
X00398*
X004Y00274*
X00322Y00196*
X00318Y0019*
X00317Y00183*
Y00139*
X00318Y00132*
X00322Y00127*
X00337Y00112*
X00341Y00109*
X0034Y00104*
X00301*
X00296Y00103*
X00292Y00101*
X00289Y00097*
X00288Y00092*
Y0001*
X00289Y00007*
X00286Y00002*
X-00002*
Y00051*
X00002Y00052*
X00005Y00045*
X00014Y00034*
X00025Y00025*
X00037Y00019*
X00051Y00015*
X00065Y00013*
X00078Y00015*
X00092Y00019*
X00104Y00025*
X00115Y00034*
X00124Y00045*
X0013Y00057*
X00134Y00071*
X00136Y00085*
X00134Y00098*
X0013Y00112*
X00124Y00124*
X00115Y00135*
X00107Y00141*
X00109Y00146*
X00134*
X00138Y00147*
X00142Y0015*
X00145Y00154*
X00146Y00159*
Y00241*
X00145Y00246*
X00142Y0025*
X00138Y00252*
X00134Y00253*
X00016*
X00011Y00252*
X00007Y0025*
X00004Y00246*
X00003Y00241*
Y00159*
X00004Y00154*
X00007Y0015*
X00011Y00147*
X00016Y00146*
X0002*
X00022Y00141*
X00014Y00135*
X00005Y00124*
X00002Y00117*
X-00002Y00118*
Y03136*
X00002Y03137*
X00005Y0313*
X00014Y03119*
X00025Y0311*
X00037Y03104*
X00051Y031*
X00065Y03098*
X00078Y031*
X00092Y03104*
X00104Y0311*
X00115Y03119*
X00124Y0313*
X0013Y03142*
X00134Y03156*
X00136Y0317*
X00134Y03183*
X0013Y03197*
X00124Y03209*
X00115Y0322*
X00111Y03223*
X00113Y03227*
X03001*
X03003Y03223*
G37*
%LNninja_ecu_pcb-2*%
%LPC*%
G36*
X01865Y01129D02*
X01858Y01128D01*
X01852Y01126*
X01847Y01122*
X01843Y01117*
X01841Y01111*
X0184Y01105*
X01841Y01098*
X01843Y01092*
X01847Y01087*
X01852Y01083*
X01858Y01081*
X01865Y0108*
X01871Y01081*
X01877Y01083*
X01882Y01087*
X01886Y01092*
X01888Y01098*
X01889Y01105*
X01888Y01111*
X01886Y01117*
X01882Y01122*
X01877Y01126*
X01871Y01128*
X01865Y01129*
G37*
G36*
X01805Y01184D02*
X01798Y01183D01*
X01792Y01181*
X01787Y01177*
X01783Y01172*
X01781Y01166*
X0178Y0116*
X01781Y01153*
X01783Y01147*
X01787Y01142*
X01792Y01138*
X01798Y01136*
X01805Y01135*
X01811Y01136*
X01817Y01138*
X01822Y01142*
X01826Y01147*
X01828Y01153*
X01829Y0116*
X01828Y01166*
X01826Y01172*
X01822Y01177*
X01817Y01181*
X01811Y01183*
X01805Y01184*
G37*
G36*
X00385Y00619D02*
X00378Y00618D01*
X00372Y00616*
X00367Y00612*
X00363Y00607*
X00361Y00601*
X0036Y00595*
X00361Y00588*
X00363Y00582*
X00367Y00577*
X00367Y00577*
Y00572*
X00367Y00572*
X00363Y00567*
X00361Y00561*
X0036Y00555*
X00361Y00548*
X00363Y00542*
X00367Y00537*
X00372Y00533*
X00378Y00531*
X00385Y0053*
X00391Y00531*
X00397Y00533*
X00402Y00537*
X00406Y00542*
X00408Y00548*
X00409Y00555*
X00408Y00561*
X00406Y00567*
X00402Y00572*
X00402Y00572*
Y00577*
X00402Y00577*
X00406Y00582*
X00408Y00588*
X00409Y00595*
X00408Y00601*
X00406Y00607*
X00402Y00612*
X00397Y00616*
X00391Y00618*
X00385Y00619*
G37*
G36*
X00435Y00549D02*
X00428Y00548D01*
X00422Y00546*
X00417Y00542*
X00413Y00537*
X00411Y00531*
X0041Y00525*
X00411Y00518*
X00413Y00512*
X00417Y00507*
X00422Y00503*
X00428Y00501*
X00435Y005*
X00441Y00501*
X00447Y00503*
X00452Y00507*
X00456Y00512*
X00458Y00518*
X00459Y00525*
X00458Y00531*
X00456Y00537*
X00452Y00542*
X00447Y00546*
X00441Y00548*
X00435Y00549*
G37*
G36*
X0064Y00742D02*
X00633Y0074D01*
X00627Y00737*
X00618Y00727*
X00614Y00721*
X00613Y00715*
Y00697*
X00596*
X00592Y007*
X00587Y00704*
X0058Y00705*
X00574Y00704*
X00568Y007*
X00565Y00695*
X00563Y00688*
X00565Y00682*
X00568Y00676*
X00577Y00667*
X00582Y00664*
X00589Y00662*
X0063*
X00636Y00664*
X00642Y00667*
X00645Y00673*
X00647Y0068*
Y00708*
X00652Y00712*
X00655Y00718*
X00657Y00725*
X00655Y00731*
X00652Y00737*
X00646Y0074*
X0064Y00742*
G37*
G36*
X00645Y00804D02*
X00638Y00803D01*
X00632Y00801*
X00627Y00797*
X00623Y00792*
X00621Y00786*
X0062Y0078*
X00621Y00773*
X00623Y00767*
X00627Y00762*
X00632Y00758*
X00638Y00756*
X00645Y00755*
X00651Y00756*
X00657Y00758*
X00662Y00762*
X00666Y00767*
X00668Y00773*
X00669Y0078*
X00668Y00786*
X00666Y00792*
X00662Y00797*
X00657Y00801*
X00651Y00803*
X00645Y00804*
G37*
G36*
X01246Y00301D02*
X01235Y003D01*
X01225Y00296*
X01216Y00289*
X0121Y0028*
X01205Y0027*
X01204Y0026*
X01205Y00249*
X0121Y00239*
X01216Y0023*
X01225Y00223*
X01235Y00219*
X01246Y00218*
X01257Y00219*
X01267Y00223*
X01275Y0023*
X01282Y00239*
X01286Y00249*
X01287Y0026*
X01286Y0027*
X01282Y0028*
X01275Y00289*
X01267Y00296*
X01257Y003*
X01246Y00301*
G37*
G36*
X01555Y01254D02*
X01548Y01253D01*
X01542Y01251*
X01537Y01247*
X01533Y01242*
X01531Y01236*
X0153Y0123*
X01531Y01223*
X01533Y01217*
X01537Y01212*
X01542Y01208*
X01548Y01206*
X01555Y01205*
X01561Y01206*
X01567Y01208*
X01572Y01212*
X01576Y01217*
X01578Y01223*
X01579Y0123*
X01578Y01236*
X01576Y01242*
X01572Y01247*
X01567Y01251*
X01561Y01253*
X01555Y01254*
G37*
G36*
X00789Y02192D02*
X00671D01*
X00666Y02191*
X00662Y02189*
X00659Y02185*
X00658Y0218*
Y02098*
X00659Y02093*
X00662Y02089*
X00666Y02086*
X00671Y02085*
X00789*
X00793Y02086*
X00797Y02089*
X008Y02093*
X00801Y02098*
Y0218*
X008Y02185*
X00797Y02189*
X00793Y02191*
X00789Y02192*
G37*
G36*
X02175Y02204D02*
X02168Y02203D01*
X02162Y02201*
X02157Y02197*
X02153Y02192*
X02151Y02186*
X0215Y0218*
X02151Y02173*
X02153Y02167*
X02157Y02162*
X02162Y02158*
X02168Y02156*
X02175Y02155*
X02181Y02156*
X02187Y02158*
X02192Y02162*
X02196Y02167*
X02198Y02173*
X02199Y0218*
X02198Y02186*
X02196Y02192*
X02192Y02197*
X02187Y02201*
X02181Y02203*
X02175Y02204*
G37*
G36*
X0044Y02571D02*
X00349D01*
X00344Y0257*
X0034Y02567*
X00338Y02563*
X00337Y02559*
Y025*
X00338Y02495*
X0034Y02491*
X00344Y02488*
X00349Y02487*
X0044*
X00444Y02488*
X00448Y02491*
X00451Y02495*
X00452Y025*
Y02559*
X00451Y02563*
X00448Y02567*
X00444Y0257*
X0044Y02571*
G37*
G36*
X00635Y02389D02*
X00628Y02388D01*
X00622Y02386*
X00617Y02382*
X00613Y02377*
X00611Y02371*
X0061Y02365*
X00611Y02358*
X00613Y02352*
X00614Y02351*
X00617Y02347*
X00614Y02343*
X00613Y02342*
X00611Y02336*
X0061Y0233*
X00611Y02323*
X00613Y02318*
X00612Y02317*
X00608Y02312*
X00606Y02306*
X00606Y02305*
X00605Y02305*
X00598Y02304*
X00592Y02302*
X00587Y02298*
X00583Y02293*
X00581Y02287*
X0058Y02281*
X00581Y02274*
X00583Y02268*
X00587Y02263*
X00592Y02259*
X00598Y02257*
X00605Y02256*
X00611Y02257*
X00617Y02259*
X00622Y02263*
X00626Y02268*
X00628Y02274*
X00628Y02275*
X0063Y02275*
X00636Y02276*
X00642Y02278*
X00647Y02282*
X00651Y02287*
X00653Y02293*
X00654Y023*
X00653Y02306*
X00651Y02311*
X00652Y02312*
X00656Y02317*
X00658Y02323*
X00659Y0233*
X00658Y02336*
X00656Y02342*
X00655Y02343*
X00652Y02347*
X00655Y02351*
X00656Y02352*
X00658Y02358*
X00659Y02365*
X00658Y02371*
X00656Y02377*
X00652Y02382*
X00647Y02386*
X00641Y02388*
X00635Y02389*
G37*
G36*
X0227Y01524D02*
X02263Y01523D01*
X02257Y01521*
X02252Y01517*
X02248Y01512*
X02246Y01506*
X02245Y015*
X02246Y01493*
X02248Y01487*
X02252Y01482*
X02257Y01478*
X02263Y01476*
X0227Y01475*
X02276Y01476*
X02282Y01478*
X02287Y01482*
X02291Y01487*
X02293Y01493*
X02294Y015*
X02293Y01506*
X02291Y01512*
X02287Y01517*
X02282Y01521*
X02276Y01523*
X0227Y01524*
G37*
G36*
X02309Y01262D02*
X0219D01*
X02186Y01261*
X02182Y01258*
X02179Y01254*
X02178Y0125*
Y01167*
X02179Y01162*
X02182Y01158*
X02186Y01156*
X0219Y01155*
X02309*
X02313Y01156*
X02317Y01158*
X0232Y01162*
X02321Y01167*
Y0125*
X0232Y01254*
X02317Y01258*
X02313Y01261*
X02309Y01262*
G37*
G36*
X00165Y00144D02*
X00158Y00143D01*
X00152Y00141*
X00147Y00137*
X00143Y00132*
X00141Y00126*
X0014Y0012*
X00141Y00113*
X00143Y00107*
X00147Y00102*
X00152Y00098*
X00158Y00096*
X00165Y00095*
X00171Y00096*
X00177Y00098*
X00182Y00102*
X00186Y00107*
X00188Y00113*
X00189Y0012*
X00188Y00126*
X00186Y00132*
X00182Y00137*
X00177Y00141*
X00171Y00143*
X00165Y00144*
G37*
G36*
X0022D02*
X00213Y00143D01*
X00207Y00141*
X00202Y00137*
X00198Y00132*
X00196Y00126*
X00195Y0012*
X00196Y00113*
X00198Y00107*
X00202Y00102*
X00207Y00098*
X00213Y00096*
X0022Y00095*
X00226Y00096*
X00232Y00098*
X00237Y00102*
X00241Y00107*
X00243Y00113*
X00244Y0012*
X00243Y00126*
X00241Y00132*
X00237Y00137*
X00232Y00141*
X00226Y00143*
X0022Y00144*
G37*
G36*
X00134Y01888D02*
X00016D01*
X00011Y01887*
X00007Y01885*
X00004Y01881*
X00003Y01876*
Y01794*
X00004Y01789*
X00007Y01785*
X00007Y0178*
X00004Y01776*
X00003Y01771*
Y01689*
X00004Y01684*
X00007Y0168*
X00011Y01677*
X00016Y01676*
X00134*
X00138Y01677*
X00142Y0168*
X00145Y01684*
X00146Y01689*
Y01771*
X00145Y01776*
X00142Y0178*
Y01785*
X00145Y01789*
X00146Y01794*
Y01876*
X00145Y01881*
X00142Y01885*
X00138Y01887*
X00134Y01888*
G37*
%LNninja_ecu_pcb-3*%
%LPD*%
G54D10*
X0242Y0183D03*
Y02011D03*
G54D11*
X02985Y0248D03*
Y0232D03*
G54D12*
X02426Y01555D03*
X0273D03*
X02748Y0059D03*
X02445D03*
X02728Y0107D03*
X02425D03*
X02281Y03005D03*
X02585D03*
G54D13*
X0282Y02655D03*
X03001D03*
X0206Y0007D03*
X02241D03*
G54D14*
X00712Y00445D03*
X00761D03*
X0086D03*
X0081D03*
X01167Y00525D03*
X01216D03*
X01315D03*
X01265D03*
G54D15*
X0185Y02458D03*
X01365D03*
X009D03*
G54D16*
X017Y0277D03*
X0175D03*
X018D03*
X019D03*
X0195D03*
X02D03*
X01215D03*
X01265D03*
X01315D03*
X01415D03*
X01465D03*
X01515D03*
X0075D03*
X008D03*
X0085D03*
X0095D03*
X01D03*
X0105D03*
G54D17*
X00245Y00963D03*
Y0103D03*
X00535Y01081D03*
Y01148D03*
X00245Y01163D03*
Y01096D03*
X00815Y00593D03*
Y0066D03*
X0025Y01243D03*
Y0131D03*
X00245Y01573D03*
Y01506D03*
X00535Y01281D03*
Y01215D03*
X0124Y00681D03*
Y00615D03*
X01125Y00696D03*
Y0063D03*
X0058Y01586D03*
Y0152D03*
X005Y01586D03*
Y0152D03*
X0168Y00866D03*
Y008D03*
X0162Y00866D03*
Y008D03*
X0045Y01933D03*
Y02D03*
X01747Y02095D03*
Y02028D03*
X01626D03*
Y02095D03*
X00961Y02093D03*
Y02026D03*
X0107Y01633D03*
Y017D03*
X00875Y00593D03*
Y0066D03*
X00995Y00661D03*
Y00595D03*
X01055Y00661D03*
Y00595D03*
X00245Y02381D03*
Y02315D03*
Y02183D03*
Y0225D03*
Y01978D03*
Y01911D03*
Y01783D03*
Y0185D03*
Y01378D03*
Y01445D03*
Y00753D03*
Y00686D03*
Y00558D03*
Y00625D03*
X0156Y008D03*
Y00866D03*
X0174Y008D03*
Y00866D03*
X0032Y02001D03*
Y01935D03*
X0074Y01438D03*
Y01505D03*
X0067Y01438D03*
Y01505D03*
X0025Y00283D03*
Y0035D03*
Y00486D03*
Y0042D03*
X0038Y01933D03*
Y02D03*
X018Y00866D03*
Y008D03*
X01495Y00866D03*
Y008D03*
X01566Y02028D03*
Y02095D03*
X01022Y02028D03*
Y02095D03*
X0163Y00416D03*
Y0035D03*
X01445Y02095D03*
Y02028D03*
X01143Y02095D03*
Y02028D03*
X01082Y02095D03*
Y02028D03*
X01385Y02095D03*
Y02028D03*
X01264Y02095D03*
Y02028D03*
X02105Y01531D03*
Y01465D03*
X01545Y01308D03*
Y01375D03*
X01685Y01621D03*
Y01555D03*
X00935Y0066D03*
Y00593D03*
X01505Y02028D03*
Y02095D03*
X01324D03*
Y02028D03*
X01203D03*
Y02095D03*
X0169Y0209D03*
Y02023D03*
X0298Y0219D03*
Y02123D03*
X02915Y0219D03*
Y02123D03*
G54D18*
X01714Y00352D03*
Y00402D03*
Y00205D03*
Y00156D03*
Y00254D03*
Y00303D03*
X00465Y00297D03*
Y00248D03*
Y0015D03*
Y00199D03*
X02145Y00962D03*
Y01011D03*
Y0111D03*
Y0106D03*
X00835Y02037D03*
Y01988D03*
Y0189D03*
Y01939D03*
X02125Y01835D03*
Y01785D03*
Y01736D03*
X0018Y003D03*
Y00349D03*
Y00398D03*
Y0071D03*
Y00759D03*
Y00808D03*
Y0112D03*
Y01169D03*
Y01218D03*
Y0153D03*
Y01579D03*
Y01628D03*
Y01935D03*
Y01984D03*
Y02033D03*
Y0234D03*
Y02389D03*
Y02438D03*
G54D19*
X00639Y00176D03*
X00698D03*
X00757D03*
X00816D03*
X00875D03*
X00935D03*
G54D20*
X00445Y0245D03*
Y02391D03*
Y02332D03*
Y02273D03*
Y02214D03*
Y02155D03*
G54D21*
X01316Y0183D03*
X0125D03*
X00701Y0061D03*
X00635D03*
X00431Y0093D03*
X00365D03*
X00426Y0084D03*
X0036D03*
X01953Y01185D03*
X0202D03*
X01723Y00935D03*
X0179D03*
X01078Y0187D03*
X01145D03*
X01431Y00605D03*
X01365D03*
X00951Y00515D03*
X00885D03*
X00688D03*
X00755D03*
X00598Y0102D03*
X00665D03*
X00981Y01505D03*
X00915D03*
X01728Y01055D03*
X01795D03*
X01728Y00995D03*
X01795D03*
X00383Y0186D03*
X0045D03*
X01445Y02155D03*
X01511D03*
X01986Y01465D03*
X0192D03*
X01841D03*
X01775D03*
X01335Y0071D03*
X01401D03*
X0286Y02535D03*
X02926D03*
G54D22*
X01949Y01878D03*
Y01718D03*
X01899Y0188D03*
Y01718D03*
X01849Y01878D03*
Y01718D03*
X01799Y01878D03*
Y01718D03*
X01749Y01878D03*
Y01718D03*
G54D23*
X005Y00915D03*
X00575D03*
X005Y00835D03*
X00575D03*
X0063Y0068D03*
X00705D03*
X00579Y0144D03*
X00505D03*
G54D24*
X00735Y01649D03*
Y01575D03*
X00655Y01649D03*
Y01575D03*
X03055Y02195D03*
Y0212D03*
G54D25*
X0222Y0059D03*
Y00767D03*
X01907D03*
Y0059D03*
G54D26*
X01952Y01623D03*
X01989Y01525D03*
X01915D03*
X01807Y01623D03*
X01844Y01525D03*
X0177D03*
G54D27*
X0081Y01326D03*
Y01306D03*
Y01286D03*
Y01267D03*
Y01247D03*
Y01227D03*
Y01208D03*
Y01188D03*
Y01168D03*
Y01149D03*
Y01129D03*
Y01109D03*
Y0109D03*
Y0107D03*
Y0105D03*
Y0103D03*
Y01011D03*
Y00991D03*
Y00971D03*
Y00952D03*
Y00932D03*
Y00912D03*
Y00893D03*
Y00873D03*
Y00853D03*
X01409D03*
Y00873D03*
Y00893D03*
Y00912D03*
Y00932D03*
Y00952D03*
Y00971D03*
Y00991D03*
Y01011D03*
Y0103D03*
Y0105D03*
Y0107D03*
Y0109D03*
Y01109D03*
Y01129D03*
Y01149D03*
Y01168D03*
Y01188D03*
Y01208D03*
Y01227D03*
Y01247D03*
Y01267D03*
Y01286D03*
Y01306D03*
Y01326D03*
G54D28*
X00873Y0079D03*
X00893D03*
X00913D03*
X00932D03*
X00952D03*
X00972D03*
X00991D03*
X01011D03*
X01031D03*
X0105D03*
X0107D03*
X0109D03*
X0111D03*
X01129D03*
X01149D03*
X01169D03*
X01188D03*
X01208D03*
X01228D03*
X01247D03*
X01267D03*
X01287D03*
X01306D03*
X01326D03*
X01346D03*
Y01389D03*
X01326D03*
X01306D03*
X01287D03*
X01267D03*
X01247D03*
X01228D03*
X01208D03*
X01188D03*
X01169D03*
X01149D03*
X01129D03*
X0111D03*
X0109D03*
X0107D03*
X0105D03*
X01031D03*
X01011D03*
X00991D03*
X00972D03*
X00952D03*
X00932D03*
X00913D03*
X00893D03*
X00873D03*
G54D29*
X0215Y00195D03*
X0206D03*
X02241D03*
G54D30*
X0215Y00439D03*
G54D31*
X0064Y01096D03*
Y01266D03*
G54D32*
X03Y0282D03*
X02839D03*
G54D33*
X02455Y03005D02*
X02585D01*
X0263Y01555D02*
X0273D01*
X02595Y0159D02*
X0263Y01555D01*
X01425Y0278D02*
X01435Y0277D01*
X02318Y00539D02*
X02335Y00557D01*
X0085Y02835D02*
X00857Y02827D01*
X00759Y02779D02*
X00769Y0277D01*
X0068Y0315D02*
X0231D01*
X00365Y02835D02*
X0068Y0315D01*
X0231D02*
X02455Y03005D01*
X00769Y0277D02*
X008D01*
X0085*
X00915*
X01215D02*
X01265D01*
X01315*
X01385Y0282D02*
Y0285D01*
X017Y0277D02*
X0175D01*
X018*
X019*
X0192*
X01315D02*
X01415D01*
X0095D02*
X0097D01*
X02335Y00569D02*
X02345D01*
X02335Y00557D02*
Y00569D01*
X02445Y0059D02*
Y0105D01*
X02365Y0059D02*
X02445D01*
X02345Y00569D02*
X02365Y0059D01*
G54D34*
X02455Y02945D02*
Y03005D01*
X0239Y0288D02*
X02455Y02945D01*
X0283Y02451D02*
Y02564D01*
X0269Y02475D02*
X0272D01*
X0282Y02574*
X02655Y0251D02*
X0269Y02475D01*
X01679Y0288D02*
X01864Y03065D01*
X01586Y0288D02*
X0165D01*
X02579Y0256D02*
X02839Y0282D01*
X02445Y0256D02*
X02579D01*
X02281Y02723D02*
X02445Y0256D01*
X02281Y02723D02*
Y03005D01*
X0273Y01555D02*
Y0169D01*
X0259Y0183D02*
X0273Y0169D01*
X0242Y0183D02*
X0259D01*
X0305Y0219D02*
X03055Y02195D01*
X0298Y0219D02*
X0305D01*
X0298D02*
X02985Y02195D01*
Y0232*
X0282Y02574D02*
X0283Y02564D01*
Y02451D02*
X02915Y02366D01*
Y0219D02*
Y02366D01*
X02221Y03065D02*
X02281Y03005D01*
X01864Y03065D02*
X02221D01*
X01246Y0016D02*
X0161D01*
X0165Y0288D02*
X01679D01*
X0154D02*
X01586D01*
G54D35*
X01841Y0187D02*
X01855D01*
X00805Y01863D02*
X00833Y01891D01*
X00318Y00808D02*
X0036Y0085D01*
X0018Y0111D02*
X00189D01*
X0024Y00562D02*
X00319Y00641D01*
X00236Y00558D02*
X0024Y00562D01*
X01203Y02133D02*
X0121Y0214D01*
X01168Y0092D02*
X01265D01*
X005Y00915D02*
X00535Y0088D01*
X01012Y0087D02*
X01022Y0088D01*
X00952Y0079D02*
Y00867D01*
X01111Y0087D02*
Y00873D01*
Y00792D02*
Y0087D01*
X0073Y0105D02*
X0081D01*
X01287Y0079D02*
Y00857D01*
X00251Y00686D02*
X0029Y00725D01*
X01089Y01435D02*
X0109D01*
X00337Y02332D02*
X00445D01*
X00803Y00585D02*
X00813Y00595D01*
X00458Y01925D02*
X00463Y0193D01*
X01894Y00778D02*
X01895Y00779D01*
X01471Y00766D02*
X01907D01*
X01894Y00778D02*
X01907Y00766D01*
X00754Y0107D02*
X00865D01*
X01135Y01014D02*
X012Y0095D01*
X01751Y00184D02*
Y00303D01*
X01714D02*
X01751D01*
X01723Y00156D02*
X01751Y00184D01*
X01714Y00156D02*
X01723D01*
X01866Y00125D02*
X01921Y0007D01*
X01745Y00125D02*
X01866D01*
X01714Y00156D02*
X01745Y00125D01*
X0202Y01185D02*
Y01225D01*
X01295Y0108D02*
Y0112D01*
X01355Y0118D02*
Y01219D01*
X01295Y0112D02*
X01355Y0118D01*
X01295Y0108D02*
X01325Y0105D01*
X01143Y02095D02*
X0116Y02112D01*
X00375Y02001D02*
X00378D01*
X0032D02*
X00375D01*
X00377Y02*
X00337Y0204D02*
X00375Y02001D01*
X00377Y02D02*
X0038D01*
X0037Y0222D02*
X00439D01*
X00337Y02187D02*
X0037Y0222D01*
X00337Y0204D02*
Y02187D01*
X00439Y0222D02*
X00445Y02214D01*
X00411Y0189D02*
Y01961D01*
Y0189D02*
X00412Y01891D01*
X01921Y0007D02*
X0206D01*
X00245Y01783D02*
Y01795D01*
X01311Y00991D02*
X01409D01*
X01303Y01D02*
X01311Y00991D01*
X01325Y0105D02*
X01329D01*
X0129Y0099D02*
X01292D01*
X00879Y01149D02*
X0088Y0115D01*
Y01201*
X01149Y01389D02*
Y01479D01*
X00629Y01081D02*
X0065Y01102D01*
X00426Y00925D02*
X00436Y00915D01*
X01437Y01327D02*
X01525Y01415D01*
X02133Y01835D02*
X02138Y0184D01*
X0219*
X01595Y01415D02*
X01655Y01355D01*
X0141Y01327D02*
X01437D01*
X01525Y01415D02*
X01595D01*
X01655Y01355D02*
X01665D01*
X0166Y0144D02*
X0171Y0139D01*
Y01325D02*
Y0139D01*
X0168Y01295D02*
X0171Y01325D01*
X01645Y01295D02*
X0168D01*
X01565Y01375D02*
X01645Y01295D01*
X01545Y01375D02*
X01565D01*
X01747Y02095D02*
X01775D01*
X01849Y02021*
Y01878D02*
Y02021D01*
X02323Y0067D02*
Y00916D01*
X02182Y00912D02*
X02186Y00916D01*
X02323*
X02243Y0059D02*
X02323Y0067D01*
X0222Y0059D02*
X02243D01*
X00171Y01935D02*
X0018D01*
X00175Y0183D02*
Y0193D01*
X00449Y00297D02*
X00465D01*
X00322D02*
X00449D01*
X0025Y0035D02*
Y0042D01*
X00769Y01247D02*
X0081D01*
X00757Y01259D02*
X00769Y01247D01*
X00757Y01259D02*
Y01296D01*
X0087Y01211D02*
X00891Y01232D01*
X00752Y0117D02*
X00753Y01168D01*
X0075Y0117D02*
X00752D01*
X00739Y01181D02*
X0075Y0117D01*
X00739Y01181D02*
Y01205D01*
X00757Y01188D02*
X0081D01*
X00757D02*
Y01212D01*
X00753Y01168D02*
X0081D01*
X01409Y01267D02*
X01477D01*
X0147Y01269D02*
X01471Y0127D01*
X00844Y01988D02*
X00997Y01835D01*
X00138Y00446D02*
X00179Y00486D01*
X0025*
X00194Y00344D02*
X00217Y0032D01*
Y00292D02*
X00226Y00283D01*
X00217Y00292D02*
Y0032D01*
X00182Y00297D02*
X00187D01*
X00196Y00288*
Y00278D02*
Y00288D01*
X00226Y00283D02*
X0025D01*
X0161Y0006D02*
X01706Y00156D01*
X00348Y02273D02*
X0035Y02271D01*
X00348Y02273D02*
X00445D01*
X00997Y01835D02*
X01245D01*
X00175Y0141D02*
X00206Y01378D01*
X00175Y0141D02*
Y01525D01*
X0018Y0111D02*
Y0112D01*
X00978Y00483D02*
X00985Y0049D01*
X00898Y00483D02*
X00978D01*
X00985Y0049D02*
Y00546D01*
X01907Y00467D02*
Y0058D01*
Y0059*
Y0058D02*
X02003Y00483D01*
X0206*
X01899Y01784D02*
X019Y01785D01*
X01945Y01722D02*
Y01785D01*
X01706Y0041D02*
X01714Y00402D01*
X01636Y0041D02*
X01706D01*
X0163Y00416D02*
X01636Y0041D01*
X01769Y01777D02*
X0179Y01756D01*
Y01727D02*
Y01756D01*
Y01727D02*
X01799Y01718D01*
X01188Y00575D02*
X0121Y00553D01*
Y00531D02*
Y00553D01*
Y00531D02*
X01216Y00525D01*
X00995Y00595D02*
X01005D01*
Y00586D02*
Y00595D01*
Y00586D02*
X0103Y00561D01*
X00196Y00278D02*
X00225Y00249D01*
X00335Y00183D02*
X00449Y00297D01*
X00142Y01963D02*
X00171Y01935D01*
X0099Y0276D02*
X01Y0277D01*
X0099Y02753D02*
Y0276D01*
Y02753D02*
X0103Y02713D01*
X00535Y02027D02*
Y02369D01*
X00518Y02386D02*
X00535Y02369D01*
X0045Y02386D02*
X00518D01*
X01619Y0183D02*
X01672Y01777D01*
X01316Y0183D02*
X01619D01*
X01245Y01835D02*
X0125Y0183D01*
X00835Y01988D02*
X00844D01*
X02133Y01835D02*
X02162Y01806D01*
X02125Y01835D02*
X02133D01*
X02115Y01775D02*
X02125Y01785D01*
X02115Y01775D02*
Y01776D01*
X02106Y01785D02*
X02115Y01776D01*
X02087Y01785D02*
X02106D01*
X02087Y01728D02*
Y01785D01*
X01855Y01854D02*
Y0187D01*
X01819Y01818D02*
X01855Y01854D01*
X00267Y00437D02*
X00281D01*
X0025Y0042D02*
X00267Y00437D01*
X00445Y02155D02*
X00465Y02135D01*
Y02053D02*
Y02135D01*
X00445Y02033D02*
X00465Y02053D01*
X00627Y00085D02*
X0071D01*
X00611Y00069D02*
X00627Y00085D01*
X0047Y00069D02*
X00611D01*
X00948Y0019D02*
X01055D01*
X00935Y00176D02*
X00948Y0019D01*
X01765Y00325D02*
X01907Y00467D01*
X01735Y00325D02*
X01765D01*
X00413Y00126D02*
X0047Y00069D01*
X00805Y01747D02*
Y01863D01*
X00793Y01736D02*
X00805Y01747D01*
X0055Y00403D02*
X00595Y00448D01*
X0055Y00266D02*
Y00403D01*
Y00266D02*
X00639Y00176D01*
X00595Y00448D02*
Y0057D01*
X00463Y0193D02*
X0052D01*
X0045Y01933D02*
X00458Y01925D01*
X0045Y0186D02*
Y0187D01*
X01086Y00575D02*
X01188D01*
X01086Y00568D02*
Y00575D01*
X01079Y00561D02*
X01086Y00568D01*
X0103Y00561D02*
X01079D01*
X01265Y00525D02*
Y00534D01*
X01237Y00562D02*
X01265Y00534D01*
X01228Y00562D02*
X01237D01*
X01195Y00595D02*
X01228Y00562D01*
X01315Y00555D02*
X01365Y00605D01*
X01315Y00525D02*
Y00555D01*
Y0045D02*
Y00525D01*
X01055Y0019D02*
X01315Y0045D01*
X01055Y00595D02*
X01195D01*
X0124Y00615D02*
X01315D01*
Y00605D02*
Y00615D01*
Y00623*
Y00605D02*
X01365D01*
X0202Y01225D02*
X0205Y01255D01*
X01714Y00303D02*
X01735Y00325D01*
X00495Y01891D02*
X00833D01*
X00412D02*
X00495D01*
Y01809D02*
Y01891D01*
Y01809D02*
X00655Y01649D01*
X00723Y01246D02*
Y01312D01*
X00703Y01333D02*
X00723Y01312D01*
Y01246D02*
X00757Y01212D01*
X00636Y01333D02*
X00703D01*
X00579Y0139D02*
X00636Y01333D01*
X00579Y0139D02*
Y0144D01*
X0018Y01169D02*
X00185Y01163D01*
X00245*
X00961Y02026D02*
X0102D01*
X01022Y02028*
X0095Y0006D02*
X01246D01*
X0161*
X0081Y0111D02*
X0081Y01109D01*
X00535Y01281D02*
X00624D01*
X00535Y01081D02*
X00629D01*
X00535Y01148D02*
Y01215D01*
X00187Y02381D02*
X00245D01*
Y0225D02*
Y02315D01*
X0206Y0007D02*
Y00195D01*
X00655Y01649D02*
X00735D01*
X005Y01586D02*
X0058D01*
X00592*
X00655Y01649*
X00378Y02001D02*
X0038Y02D01*
X00445Y02391D02*
X0045Y02386D01*
X00445Y02005D02*
Y02033D01*
Y02005D02*
X0045Y02D01*
X00741Y01312D02*
Y01333D01*
Y01312D02*
X00757Y01296D01*
X00579Y0144D02*
X0058Y0144D01*
Y0152*
X00505Y0144D02*
X00629Y01315D01*
X00696*
X00703Y01308*
Y01241D02*
Y01308D01*
Y01241D02*
X00739Y01205D01*
X00665Y0102D02*
Y01025D01*
X00245Y01445D02*
Y01506D01*
X00185Y01573D02*
X00245D01*
X0018Y01579D02*
X00185Y01573D01*
X00665Y01025D02*
X00687Y01047D01*
X00696*
X00245Y01445D02*
X00503Y01186D01*
Y01054D02*
Y01186D01*
X00734Y01011D02*
X0081D01*
X00245Y0103D02*
Y01096D01*
X00206Y01378D02*
X00245D01*
X00175Y01525D02*
X0018Y0153D01*
X00221Y01783D02*
X00245D01*
X00175Y0183D02*
X00221Y01783D01*
X00175Y0193D02*
X0018Y01935D01*
X00193Y02235D02*
X00245Y02183D01*
X00193Y02235D02*
Y02326D01*
X0018Y0234D02*
X00193Y02326D01*
X00575Y00915D02*
X00592Y00932D01*
X0081*
X00537Y00915D02*
X00575D01*
X00462Y00949D02*
X00469Y00956D01*
X0036Y0085D02*
Y00925D01*
X00932Y00662D02*
X00935Y0066D01*
X00875D02*
X00935D01*
X00815D02*
X00875D01*
X00735Y00634D02*
X00746Y00645D01*
X00688Y00515D02*
Y00564D01*
X00701Y00578*
X00972Y00684D02*
X00995Y00661D01*
X01021Y00695D02*
X01055Y00661D01*
X00991Y00695D02*
X01021D01*
X00245Y00625D02*
Y00686D01*
X00251*
X01326Y00718D02*
X01335Y0071D01*
X01031Y0079D02*
Y00844D01*
X0162Y008D02*
X0168D01*
X01495D02*
X0156D01*
X00701Y0061D02*
X00705Y00613D01*
Y0068*
X00981Y01505D02*
X00991Y01495D01*
X00835Y01939D02*
X00843D01*
X0107Y01713*
Y017D02*
Y01713D01*
X01672Y01777D02*
X01769D01*
X01775Y01465D02*
Y0152D01*
X0177Y01525D02*
X01775Y0152D01*
X01915Y0147D02*
X0192Y01465D01*
X01915Y0147D02*
Y01525D01*
X01952Y01623D02*
X02011D01*
X02125Y01736*
X01807Y01623D02*
X019D01*
X01931Y01655*
X01973*
X01986Y01641*
X02*
X02087Y01728*
X01685Y01621D02*
Y01654D01*
X01749Y01718*
X01849D02*
Y01784D01*
X01043Y01633D02*
X0107D01*
X0166Y01521D02*
X01709D01*
X0179Y01556D02*
X01797Y01549D01*
Y01509D02*
Y01549D01*
Y01509D02*
X01841Y01465D01*
X01744Y01556D02*
X0179D01*
X01709Y01521D02*
X01744Y01556D01*
X01899Y01718D02*
Y01784D01*
X01945Y01722D02*
X01949Y01718D01*
X00757Y00176D02*
Y00272D01*
X00755Y00275D02*
X00757Y00272D01*
X00698Y00096D02*
Y00176D01*
Y00096D02*
X0071Y00085D01*
X00925*
X00935Y00095*
Y00176*
X0025Y00486D02*
Y00553D01*
X00245Y00558D02*
X0025Y00553D01*
X0018Y00623D02*
Y0071D01*
X0163Y0035D02*
X01711D01*
X01714Y00352*
X01586Y00416D02*
X0163D01*
X01585Y00418D02*
X01586Y00416D01*
X01907Y00766D02*
Y00767D01*
X00595Y0057D02*
X00635Y0061D01*
X01849Y01878D02*
X01897D01*
Y01811D02*
Y01878D01*
Y01811D02*
X02092D01*
X02116Y01835*
X02125*
X0045Y01933D02*
Y01966D01*
X00474*
X00535Y02027*
X00411Y01961D02*
X0045Y02D01*
X00142Y01963D02*
Y0208D01*
X00245Y02183*
X00171Y0234D02*
X0018D01*
X00142Y02368D02*
X00171Y0234D01*
X00142Y02368D02*
Y02466D01*
X00155Y02478*
X01706Y00156D02*
X01714D01*
X00925Y00085D02*
X0095Y0006D01*
X00891Y01387D02*
X00893Y01389D01*
Y0079D02*
Y00926D01*
X00875Y00593D02*
X00935D01*
X0206Y00195D02*
Y00483D01*
X00534Y0088D02*
X00535Y0088D01*
X0053Y0088D02*
X00534D01*
X00578Y0104D02*
X00598Y0102D01*
X01585Y00418D02*
Y00425D01*
X00986Y00877D02*
X00995Y00886D01*
X00986Y00858D02*
Y00877D01*
X01011Y0079D02*
Y00839D01*
X01026Y00915D02*
Y00934D01*
X00274Y00249D02*
X00322Y00297D01*
X00225Y00249D02*
X00274D01*
X0018Y003D02*
X00182Y00297D01*
X0086Y00445D02*
X00898Y00483D01*
X0097Y00561D02*
X00985Y00546D01*
X0097Y00561D02*
X0097D01*
X00963Y00568D02*
X0097Y00561D01*
X00963Y00568D02*
Y00568D01*
X00939Y00593D02*
X00963Y00568D01*
X0032Y01925D02*
Y01935D01*
X00295Y019D02*
X0032Y01925D01*
X01026Y00934D02*
X01051Y00959D01*
X0174Y008D02*
X01745D01*
X00245Y00963D02*
X00283Y00925D01*
X00735Y01649D02*
Y01713D01*
X00758Y01736*
X00793*
X00879Y01505D02*
X00915D01*
X00735Y01649D02*
X00879Y01505D01*
X02162Y01715D02*
Y01806D01*
X01989Y01543D02*
X02162Y01715D01*
X01989Y01525D02*
Y01543D01*
X01749Y01626D02*
Y01718D01*
Y01626D02*
X01765Y0161D01*
X0177*
X00701Y00578D02*
X00728D01*
X00735Y00585*
Y00634*
X00813Y00595D02*
X00815Y00593D01*
X00276Y01473D02*
X00535Y01215D01*
X00276Y01473D02*
Y01533D01*
X00269Y0154D02*
X00276Y01533D01*
X01468Y00649D02*
X01468Y0065D01*
X0103Y02713D02*
X01051D01*
X0111Y02655*
X01215Y0273D02*
Y0277D01*
X01515D02*
X01555D01*
X0156Y02775*
X0116Y02675D02*
X01215Y0273D01*
X0154Y00415D02*
Y00425D01*
X01125Y0063D02*
X0114Y00615D01*
X0124*
X01641Y0154D02*
X0166Y01521D01*
X01728Y01818D02*
X01819D01*
X01841Y0187D02*
X01849Y01878D01*
X0025Y0131D02*
X0029D01*
X00295Y01305*
X01745Y008D02*
X01756Y00811D01*
X00541Y01155D02*
X0069D01*
X00535Y01148D02*
X00541Y01155D01*
X0045Y01825D02*
Y0186D01*
X00245Y0103D02*
X00265Y0101D01*
X02055Y01785D02*
X02087D01*
X01907Y00767D02*
X0222D01*
X01677Y0187D02*
X01728Y01818D01*
X01145Y0187D02*
X01677D01*
X01346Y01389D02*
X01348Y01386D01*
X01326Y01249D02*
Y0127D01*
X00986Y00858D02*
X01Y00844D01*
X0101Y00865D02*
X01031Y00844D01*
X01Y00844D02*
X01006D01*
X01011Y00839*
X00952Y00867D02*
X00955Y00865D01*
Y00865D02*
Y00865D01*
X0111Y0079D02*
X01111Y00792D01*
X01005Y01595D02*
X01043Y01633D01*
X02065Y01475D02*
Y01483D01*
X01895Y00779D02*
Y00815D01*
X01756Y00811D02*
X01758Y0081D01*
X01775*
X00816Y00281D02*
X0082Y00285D01*
X00816Y00176D02*
Y00281D01*
X00335Y00139D02*
X00349Y00125D01*
X0037*
X0037Y00126*
X00413*
X0013Y003D02*
X0018D01*
X0007Y00359D02*
Y00405D01*
X00112Y00446*
X0007Y00359D02*
X0013Y003D01*
X00112Y00446D02*
X00138D01*
X00299Y00456D02*
X00303Y0046D01*
X0033*
X00318Y0074D02*
X00319Y0074D01*
Y00641D02*
Y0074D01*
X00283Y00925D02*
X0036D01*
X00714Y0116D02*
Y01191D01*
X0064Y01266D02*
X00714Y01191D01*
Y0116D02*
X00764Y0111D01*
X0081*
X00747Y01102D02*
X00759Y0109D01*
X0081*
X0074Y01084D02*
X00754Y0107D01*
X0065Y01102D02*
X00747D01*
X00696Y01047D02*
X00703Y01054D01*
Y01067*
X00719Y01084*
X0074*
X0073Y0105D02*
Y0106D01*
X0072Y0097D02*
X00735Y00985D01*
Y00986*
X0074Y00991*
X0081*
X007Y00988D02*
X00712Y01001D01*
X00724*
X00734Y01011*
X00715Y0103D02*
X00715Y0103D01*
X0081*
X0087Y01211D02*
X0088Y01201D01*
X0081Y01149D02*
X00879D01*
X00695Y0138D02*
X00741Y01333D01*
X00695Y0138D02*
Y0139D01*
X00335Y0233D02*
X0034Y02325D01*
Y02325D02*
Y02325D01*
X00335Y0233D02*
X00337Y02332D01*
X00345Y02265D02*
Y02266D01*
X0035Y02271*
X00245Y0225D02*
X00255Y0226D01*
X00285*
X01654Y002D02*
X01709D01*
X01636Y00218D02*
X01654Y002D01*
X01709D02*
X01714Y00205D01*
X01468Y00453D02*
Y00649D01*
X0154Y00415D02*
X01605Y0035D01*
X0163*
X0156Y008D02*
X01573D01*
X0158Y00806*
Y0082*
X00885Y00935D02*
X00893Y00926D01*
X00885Y00935D02*
Y0095D01*
X00882Y00952D02*
X00885Y0095D01*
X0081Y00952D02*
X00882D01*
X0079Y00585D02*
X00803D01*
X01799Y01718D02*
Y01774D01*
X01815Y0179*
X00746Y00645D02*
Y00691D01*
X00744Y00693D02*
X00746Y00691D01*
X00744Y00693D02*
Y00722D01*
X0071Y00756D02*
X00744Y00722D01*
X0109Y01389D02*
Y01435D01*
X0107Y01509D02*
Y01633D01*
X0098Y01475D02*
X00991Y01486D01*
Y01495*
X00893Y01389D02*
Y01437D01*
X00885Y01444D02*
X00893Y01437D01*
X00885Y01444D02*
Y01475D01*
X00915Y01505*
X01435Y00734D02*
D01*
X01203Y02095D02*
Y02133D01*
X0116Y02112D02*
Y02165D01*
X01185Y02189*
Y022*
X01022Y02172D02*
X01025Y02175D01*
X01022Y02095D02*
Y02172D01*
X01292Y0099D02*
X01293Y0099D01*
X005Y00835D02*
Y00915D01*
X00436D02*
X00462D01*
Y00949*
X00265Y0101D02*
X00522D01*
X00555Y0104D02*
X00578D01*
X00503Y01054D02*
X00569Y00988D01*
X007*
X00522Y0101D02*
X00562Y0097D01*
X00564*
X00564Y0097D02*
X00564Y0097D01*
X00564Y0097D02*
X0072D01*
X00469Y00956D02*
X0053D01*
X00537Y00949*
Y00915D02*
Y00949D01*
X00469Y00793D02*
X0053D01*
X01022Y0088D02*
X01023Y00879D01*
X0101Y00865D02*
X01023Y00878D01*
X0161Y0262D02*
Y0268D01*
X017Y0277*
X02065Y01483D02*
X02105Y01523D01*
Y01531*
X01468Y00453D02*
X01555Y00366D01*
Y00235D02*
Y00366D01*
Y00235D02*
X01571Y00218D01*
X01636*
X00236Y00558D02*
X00245D01*
X0018Y00623D02*
X0024Y00562D01*
X00245Y00558*
X00741Y0089D02*
X00741Y0089D01*
X00766*
X00767Y00891*
X00808*
X0081Y00893*
X0071Y00756D02*
Y00875D01*
X00725Y0089*
X00741*
X0042Y0084D02*
X00426D01*
X00652Y00912D02*
X0081D01*
X00575Y00835D02*
X00652Y00912D01*
X00335Y00139D02*
Y00183D01*
X00318Y0074D02*
Y00808D01*
X0133Y01218D02*
X01348Y01237D01*
X0133Y01195D02*
Y01218D01*
X01348Y01237D02*
Y01386D01*
X01324Y01247D02*
X01326Y01249D01*
X01069Y01014D02*
X01135D01*
X01293Y0099D02*
X01303Y01D01*
X01409Y01286D02*
X01462D01*
X01469Y01294*
X0149*
X01497Y01286*
X01471Y0127D02*
X0148D01*
X01477Y01267D02*
X0148Y0127D01*
X01497Y01286D02*
X01523D01*
X01545Y01308*
X00572Y00835D02*
X00575D01*
X0053Y00793D02*
X00572Y00835D01*
X00426Y00836D02*
X00469Y00793D01*
X00426Y00836D02*
Y0084D01*
X01326Y0127D02*
Y01389D01*
X00991Y00695D02*
Y0079D01*
X00932Y00662D02*
Y0079D01*
X00972Y00684D02*
Y0079D01*
X00891Y01232D02*
Y01387D01*
X01326Y00718D02*
Y0079D01*
X01031Y01389D02*
Y01441D01*
X0104Y0145*
X01353Y01533D02*
X0136Y0154D01*
X01641*
X01203Y01533D02*
X01353D01*
X00995Y00886D02*
Y00895D01*
X01023Y00879D02*
Y00879D01*
Y00878D02*
Y00879D01*
X01111Y00873D02*
X01115Y0087D01*
X01756Y01235D02*
X01986Y01465D01*
X0171Y01235D02*
X01756D01*
X0161Y01135D02*
X0171Y01235D01*
X0161Y011D02*
Y01135D01*
Y011D02*
X01623Y01086D01*
X01315Y00623D02*
X01354Y00662D01*
X01384Y00692D02*
X01401Y0071D01*
X01149Y0079D02*
Y009D01*
X01168Y0092*
X01051Y00995D02*
X01069Y01014D01*
X01051Y00959D02*
Y00995D01*
X01188Y0079D02*
Y00883D01*
X0119Y00885*
X01275Y0085D02*
X01285Y0086D01*
X01287Y00857*
X01195Y0095D02*
X012D01*
X01354Y00662D02*
X01368D01*
X01384Y00678*
Y00692*
X01435Y00734D02*
X01448Y00721D01*
X01455*
X01468Y00708*
Y0065D02*
Y00708D01*
X01456Y00751D02*
X01457Y00751D01*
X01456Y00751D02*
X01471Y00766D01*
X01457Y00747D02*
Y00751D01*
X01275Y0085D02*
X01275D01*
X01468Y00713D02*
X0148Y00725D01*
X01468Y00708D02*
Y00713D01*
X01406Y0085D02*
X01409Y00853D01*
X01406Y00763D02*
X01435Y00734D01*
X01406Y00763D02*
Y00804D01*
X01404Y00805D02*
X01406Y00804D01*
X01404Y00805D02*
Y00815D01*
X01406Y00817*
X00865Y0107D02*
X01029Y00905D01*
X01031Y00906*
Y0091*
X01026Y00915D02*
X01031Y0091D01*
X01111Y0087D02*
X01115D01*
X0112*
X01055Y01494D02*
X0107Y01509D01*
X0098Y01454D02*
Y01475D01*
Y01454D02*
X00991Y01443D01*
Y01389D02*
Y01443D01*
X01055Y01469D02*
X01089Y01435D01*
X01055Y01469D02*
Y01494D01*
X01149Y01479D02*
X01203Y01533D01*
X01406Y00817D02*
Y0085D01*
X00285Y0073D02*
X0029Y00725D01*
X00241Y00756D02*
X00245Y00753D01*
X0018Y00759D02*
X00183Y00755D01*
X0024*
X00241Y00756*
X00202Y00963D02*
X00245D01*
X00202D02*
Y01096D01*
X00189Y0111D02*
X00202Y01096D01*
X01355Y01219D02*
X01364Y01227D01*
X01409*
X01623Y01025D02*
Y01086D01*
X00155Y02478D02*
Y0278D01*
X0021Y02835*
G54D36*
X01844Y01526D02*
X01888D01*
X01615Y02185D02*
X01628Y02171D01*
X0158Y02095D02*
Y02112D01*
X00939Y00593D02*
Y00595D01*
X0058Y00688D02*
X00589Y0068D01*
X01135Y02019D02*
X0114Y02014D01*
X0109Y00895D02*
X0111Y00915D01*
X01325Y02007D02*
X01335Y02017D01*
X01455Y02154D02*
Y02155D01*
X01685Y02075D02*
X0169D01*
X01655Y0192D02*
Y01975D01*
X0131Y0096D02*
X01315Y00965D01*
X01269Y01317D02*
X01277Y0131D01*
X0205Y01255D02*
X021Y01205D01*
X02041Y01263D02*
X0205Y01255D01*
X02005Y0133D02*
Y01425D01*
X01953Y01278D02*
X02005Y0133D01*
X01953Y01185D02*
Y01278D01*
X0103Y0131D02*
X01036D01*
X01364Y01999D02*
X0137Y02005D01*
X01364Y01975D02*
Y01999D01*
X0137Y02005D02*
Y02013D01*
X01385Y02028*
X0131Y0096D02*
Y00966D01*
X01313*
X0132Y0108D02*
Y011D01*
X01339Y01027D02*
X01362Y0105D01*
X01319Y01027D02*
X01339D01*
X01633Y01001D02*
X01686Y01055D01*
X01614Y01001D02*
X01633D01*
X016Y01015D02*
X01614Y01001D01*
X01342Y0107D02*
X01409D01*
X01339Y01074D02*
X01342Y0107D01*
X016Y01015D02*
Y01039D01*
X01036Y0131D02*
X01319Y01027D01*
X01325Y01074D02*
X01339D01*
X01315Y009D02*
X0132D01*
X00905Y0119D02*
Y01198D01*
X00861Y01126D02*
X00901D01*
X00857Y0113D02*
X00861Y01126D01*
X00815Y0113D02*
X00857D01*
X00901Y01126D02*
X00905Y0113D01*
X00905Y01198D02*
X00946Y0124D01*
X00911Y00545D02*
X00951Y00504D01*
X01665Y00866D02*
Y00878D01*
X00972Y01312D02*
Y01389D01*
X00771Y01306D02*
X0081D01*
X00758Y01319D02*
X00771Y01306D01*
X00862Y01227D02*
X00873Y01238D01*
X0081Y01227D02*
X00862D01*
X01357Y00932D02*
X01409D01*
X0132Y0097D02*
X01357Y00932D01*
X00855Y01425D02*
X00873Y01406D01*
X01628Y0216D02*
X01629Y02162D01*
X01665Y00866D02*
X0168D01*
X00939Y00595D02*
X0097Y00627D01*
X00951Y00504D02*
Y00515D01*
X01455Y02154D02*
X01485Y02185D01*
X01445Y02155D02*
X01455D01*
X02145Y0111D02*
X02152D01*
X01082Y01973D02*
Y01981D01*
Y02028*
X00281Y00437D02*
X00299Y00456D01*
X01264Y02028D02*
X01324D01*
X012Y02024D02*
X01203Y02028D01*
X01135Y02019D02*
X01143Y02028D01*
X012Y01976D02*
X01201Y01978D01*
X00935Y00593D02*
X00939D01*
X01122Y00627D02*
X01125Y0063D01*
X0097Y00627D02*
X01122D01*
X0036Y0015D02*
X00465D01*
X01511Y02155D02*
X01512D01*
X01022Y01973D02*
Y01981D01*
Y02028*
X01511Y02155D02*
X01526Y0214D01*
X01445Y02095D02*
Y02155D01*
X01264Y02095D02*
X01293D01*
Y02068D02*
Y02095D01*
Y02068D02*
X013Y02062D01*
X01357*
X01385Y02089*
Y02095*
X01082D02*
X01143D01*
X0074Y01505D02*
Y0157D01*
X00735Y01575D02*
X0074Y0157D01*
X0067Y01505D02*
Y0156D01*
X00655Y01575D02*
X0067Y0156D01*
X00755Y00515D02*
X00761Y00508D01*
X0081Y00445D02*
X00815D01*
X0156Y00866D02*
X0162D01*
X01409Y00971D02*
X01545D01*
X0168Y00866D02*
X0174D01*
X01545Y00971D02*
X01545D01*
X01712Y02129D02*
X01747Y02095D01*
X01628Y0216D02*
Y02171D01*
X0197Y0108D02*
X02005Y01115D01*
X021*
X02105Y0111D02*
X02145D01*
X021Y01115D02*
X02105Y0111D01*
X01685Y01555D02*
X01719D01*
X01737Y01573*
X01797*
X01844Y01526*
X01888D02*
Y01549D01*
X01894Y01555*
X01959*
X01989Y01525*
X00913Y0079D02*
Y00961D01*
X0081Y00971D02*
X00812Y0097D01*
X00857*
X00902Y00972D02*
X00913Y00961D01*
X00902Y00972D02*
Y00997D01*
X00875Y00593D02*
Y00627D01*
X0079D02*
X00875D01*
X00784Y00633D02*
X0079Y00627D01*
X00784Y00633D02*
Y00686D01*
X0079Y00692D02*
X00834D01*
X0089Y00748*
Y00787D02*
X00893Y0079D01*
X00589Y0068D02*
X0063D01*
X01675Y00254D02*
X01714D01*
X01665Y00244D02*
X01675Y00254D01*
X02135Y00045D02*
Y00179D01*
X0215Y00195*
X00202Y0113D02*
X00269D01*
X00202Y0154D02*
X00269D01*
X00315Y01586D02*
X005D01*
X01949Y01878D02*
X01972D01*
X02Y0185*
X00752Y00627D02*
X00763Y00638D01*
X00269Y0154D02*
X00315Y01586D01*
X00755Y00451D02*
Y00515D01*
X00815Y00445D02*
X00833Y00463D01*
Y00475*
X00839Y00481*
X00851*
X00885Y00515*
X01324Y02028D02*
X01335Y02017D01*
X01445Y02028D02*
X01475Y01998D01*
Y0198D02*
Y01998D01*
X02Y0277D02*
X0204D01*
X02045Y02775*
X01511Y02101D02*
Y02155D01*
X01385Y02095D02*
Y0211D01*
X00961Y02093D02*
X00997Y02128D01*
X01324Y02095D02*
Y02129D01*
X01538Y02185D02*
X01538Y02185D01*
X01543Y0219*
X01545*
X01485Y02185D02*
X01538D01*
X01346Y0074D02*
X01361D01*
X0124Y00681D02*
X01242Y00679D01*
X00269Y0113D02*
X00295Y01156D01*
X00245Y01378D02*
X00295Y01328D01*
Y01156D02*
Y01305D01*
Y01328*
X01361Y0074D02*
X01367Y00734D01*
X0162Y00828D02*
X01625Y00834D01*
X0162Y008D02*
Y00828D01*
X0063Y0068D02*
Y00715D01*
X0064Y00725*
X00784Y00686D02*
X0079Y00691D01*
X0079Y00692*
X01566Y01981D02*
Y02028D01*
Y01978D02*
Y01981D01*
X017Y01935D02*
X01703D01*
X0215Y00195D02*
Y00439D01*
X02173Y00808D02*
Y00903D01*
X02182Y00912*
X01795Y00995D02*
X02078D01*
X02095Y01011*
X02145*
X01795Y01055D02*
X02089D01*
X02095Y0106*
X02145*
X02181Y00916D02*
Y01081D01*
X02152Y0111D02*
X02181Y01081D01*
X021Y01115D02*
Y01205D01*
X01509Y01975D02*
X01515D01*
X01505Y02028D02*
X01515Y02018D01*
Y01975D02*
Y02018D01*
X01333Y01981D02*
Y01999D01*
X01325Y02007D02*
X01333Y01999D01*
X01413Y02213D02*
X01554D01*
X01585Y02182*
X01377Y02177D02*
X01413Y02213D01*
X01629Y02162D02*
X01659D01*
X0157Y02229D02*
X01609Y0219D01*
X01615Y02185D02*
X0162Y0219D01*
X01609D02*
X0162D01*
X01712Y02129D02*
Y0215D01*
X01269Y01317D02*
Y01319D01*
X01277Y0131D02*
X0128Y01312D01*
X01188Y01323D02*
Y01389D01*
X01208Y01306D02*
Y01389D01*
X02041Y01263D02*
Y01473D01*
X01989Y01525D02*
X02041Y01473D01*
X01881Y00834D02*
X01885Y00838D01*
X01625Y00834D02*
X01881D01*
X01885Y00838D02*
X01907D01*
X01911Y00834*
Y00833D02*
Y00834D01*
Y00833D02*
X01925Y00819D01*
X01925*
X01964Y00801D02*
X01971Y00808D01*
X02173*
X01944Y00801D02*
X01964D01*
X01925Y00819D02*
X01944Y00801D01*
X00726Y01424D02*
X0074Y01438D01*
X0068D02*
X00758Y01359D01*
X0067Y01438D02*
X0068D01*
X00758Y01319D02*
Y01359D01*
X0081Y01326D02*
Y01329D01*
X01665Y00225D02*
Y00244D01*
X01409Y00952D02*
X015D01*
X0156Y00866D02*
Y00893D01*
X00901Y00973D02*
X00902Y00972D01*
X00861Y00973D02*
X00901D01*
X00857Y0097D02*
X00861Y00973D01*
X00785Y00697D02*
X0079Y00691D01*
X00785Y00697D02*
Y0071D01*
X00763Y00638D02*
Y00698D01*
Y00721D02*
Y00727D01*
X01255Y01333D02*
X01269Y01319D01*
X0128Y01312D02*
Y01315D01*
X01246Y0131D02*
Y01311D01*
X01247Y01339D02*
Y01389D01*
Y01339D02*
X01253Y01333D01*
X01255*
X01228Y01329D02*
Y01389D01*
Y01329D02*
X01246Y01311D01*
X00855Y01425D02*
Y0143D01*
X0114Y01965D02*
Y02014D01*
X012Y0197D02*
Y01976D01*
X00997Y0218D02*
X01046Y02229D01*
X00997Y02128D02*
Y0218D01*
X01046Y02229D02*
X0157D01*
X01115Y0259D02*
X01133Y02608D01*
Y02686*
X0105Y0277D02*
X01133Y02686D01*
X0179Y00935D02*
X01795Y0094D01*
X01875*
X01289Y02165D02*
X01324Y02129D01*
X01195Y02165D02*
X01289D01*
X01377Y02117D02*
X01385Y0211D01*
X01377Y02117D02*
Y02177D01*
X0166Y02163D02*
X01676D01*
X01676Y02163*
X01699*
X01712Y0215*
X01659Y02162D02*
X0166Y02163D01*
X00774Y00545D02*
X00911D01*
X00752Y00567D02*
X00774Y00545D01*
X00752Y00567D02*
Y00627D01*
X00761Y007D02*
X00763Y00698D01*
X00761Y007D02*
Y00719D01*
X00763Y00721*
X0073Y0076D02*
X00763Y00727D01*
X00748Y00873D02*
X0081D01*
X0073Y00855D02*
X00748Y00873D01*
X0073Y0076D02*
Y00855D01*
X012Y01976D02*
Y02024D01*
X01409Y01306D02*
X01458D01*
X01462Y01311*
X01481*
X01545Y01375*
X00735Y01405D02*
X0081Y01329D01*
X00726Y01424D02*
X00735D01*
Y01405D02*
Y01424D01*
X00873Y01238D02*
Y01389D01*
X0089Y00748D02*
Y00787D01*
X0105Y0079D02*
Y00849D01*
X0104Y0086D02*
X0105Y00849D01*
X0104Y0086D02*
Y00861D01*
X01046Y00868*
Y00879*
X01362Y0105D02*
X01409D01*
X00999Y01328D02*
X01011Y0134D01*
Y01389*
X01409Y0109D02*
X0148D01*
X01409Y01109D02*
X0153D01*
X01313Y00966D02*
X01315Y00965D01*
X01315Y00965*
X01319Y0097D02*
X01319Y00969D01*
X01349Y0094*
X01315Y00965D02*
X01319Y0097D01*
X01315Y00965D02*
X01319Y00969D01*
X0132Y0097*
X01585Y00948D02*
Y00954D01*
X01545Y00971D02*
X01569Y00947D01*
Y00942D02*
Y00947D01*
X01688Y00995D02*
X01728D01*
X01686Y01055D02*
X01728D01*
X01713Y00925D02*
X01723Y00935D01*
X01601Y00955D02*
Y00968D01*
X01409Y00991D02*
X01548D01*
X01585Y00954*
X0148Y0109D02*
X01601Y00968D01*
X0153Y01109D02*
X016Y01039D01*
X01306Y00891D02*
X01315Y009D01*
X0132Y0108D02*
X01325Y01074D01*
X01242Y00679D02*
X01361D01*
X01367Y00685*
Y00734*
X01346Y0079D02*
Y00858D01*
X0134Y00865D02*
X01346Y00858D01*
X01306Y0079D02*
Y00891D01*
X0134Y00865D02*
Y00875D01*
X01046Y00879D02*
X0106Y00893D01*
X01061*
X0107Y00791D02*
X0107Y0079D01*
X0107Y00791D02*
Y0087D01*
X0109Y0079D02*
Y00857D01*
X01093Y0086*
Y00879*
X0109Y00882D02*
X01093Y00879D01*
X0109Y00882D02*
Y00895D01*
X01061Y00893D02*
X0108Y00912D01*
Y0099*
X01105Y0092D02*
X0111Y00915D01*
X00999Y0131D02*
Y01328D01*
X00946Y0124D02*
X0105D01*
X01208Y01306D02*
X01221Y01293D01*
Y0129D02*
Y01293D01*
X01185Y0132D02*
X01188Y01323D01*
X01566Y02095D02*
X0158D01*
Y02112D02*
X01628Y0216D01*
X01346Y0074D02*
Y0079D01*
X00873Y01389D02*
Y01406D01*
X0171Y0199D02*
X01714D01*
X0172Y01996*
Y02001*
X01747Y02028*
X017Y01935D02*
Y0198D01*
X0171Y0199*
X01659Y01979D02*
Y02049D01*
X01655Y01975D02*
X01659Y01979D01*
X01655Y0192D02*
X01665D01*
X01585Y0218D02*
Y02182D01*
X01526Y0214D02*
X0156D01*
X01626Y01977D02*
Y01981D01*
Y02028*
X01659Y02049D02*
X01685Y02075D01*
X0169D02*
Y0209D01*
Y02023D02*
Y02027D01*
X01723Y0206*
X01727*
X01747Y0208*
Y02095*
X015Y00952D02*
X0156Y00893D01*
X01601Y00955D02*
X01615Y00941D01*
X01634*
X01688Y00995*
X01569Y00942D02*
X01602Y00909D01*
X01633*
X01665Y00878*
X01585Y00948D02*
X01608Y00925D01*
X01713*
G54D37*
X01685Y02141D02*
X01686D01*
X01685Y02143D02*
X01686Y02141D01*
X01656D02*
X01685D01*
X01925Y00863D02*
X0194Y00848D01*
X0018Y02039D02*
X00304D01*
X01431Y00811D02*
X01452Y00832D01*
X00715Y00385D02*
Y00447D01*
X00712Y00445D02*
X00715Y00447D01*
X0031Y02305D02*
X00313Y02308D01*
Y02248D02*
Y02308D01*
X0031Y02244D02*
X00313Y02248D01*
X0031Y02045D02*
Y02244D01*
X01685Y02141D02*
Y02143D01*
Y0214D02*
Y02141D01*
X00875Y0038D02*
X0088Y00385D01*
X00875Y00176D02*
Y0038D01*
X02241Y0007D02*
Y00195D01*
X00203Y00398D02*
X00205Y004D01*
X0018Y00398D02*
X00203D01*
X0102Y0187D02*
X01078D01*
X00294Y0245D02*
X00445D01*
X0217Y0137D02*
Y014D01*
X0019Y004D02*
X00205D01*
X02105Y01465D02*
X0217Y014D01*
X0018Y02438D02*
X00306D01*
X0031Y02305D02*
Y02435D01*
X0038Y01863D02*
X00383Y0186D01*
X0038Y01863D02*
Y01933D01*
X00357Y0186D02*
X00383D01*
X0018Y02033D02*
Y02039D01*
Y01628D02*
X00315Y01764D01*
X00118Y01628D02*
X00172D01*
X00115Y01625D02*
X00118Y01628D01*
X00115Y01522D02*
Y01625D01*
Y01522D02*
X00149Y01487D01*
Y01248D02*
Y01487D01*
Y01248D02*
X0018Y01218D01*
X00225D02*
X0025Y01243D01*
X0018Y01218D02*
X00225D01*
X00155D02*
X00172D01*
X00138Y01201D02*
X00155Y01218D01*
X00138Y01097D02*
Y01201D01*
X01162Y0053D02*
X01167Y00525D01*
X01115Y0053D02*
X01162D01*
X01079Y00494D02*
X01115Y0053D01*
X01017Y00494D02*
X01079D01*
X01008Y00485D02*
X01017Y00494D01*
X01008Y00482D02*
Y00485D01*
X0094Y00414D02*
X01008Y00482D01*
X0091Y00414D02*
X0094D01*
X0088Y00385D02*
X0091Y00414D01*
X01486Y00866D02*
X01491D01*
X01466Y00846D02*
X01486Y00866D01*
X01431Y00605D02*
Y00646D01*
X0185Y0072D02*
X01885D01*
X01815D02*
X0185D01*
X01626Y02095D02*
Y02111D01*
X01656Y02141*
X00995Y01895D02*
X0102Y0187D01*
X00995Y01895D02*
Y019D01*
X0089Y02D02*
X0099Y019D01*
X00995*
X01815Y0069D02*
Y0072D01*
X0185Y0069D02*
Y0072D01*
X01815Y0069D02*
X0185D01*
X01885*
Y0072*
X01935Y00843D02*
X0194Y00848D01*
X01431Y00646D02*
X0144Y00655D01*
Y00665*
X00715Y00385D02*
X0088D01*
X00315Y01765D02*
X00315Y01764D01*
X00315Y01765D02*
Y0182D01*
X00317D02*
X00357Y0186D01*
X00315Y0182D02*
X00317D01*
X00294Y0245D02*
X00306Y02438D01*
X0031Y02435*
X00835Y02037D02*
X00862D01*
X0089Y0201*
Y02D02*
Y0201D01*
X00153Y00835D02*
X0018Y00808D01*
X01431Y0081D02*
X01431Y00811D01*
X0143Y0081D02*
X01431Y0081D01*
X01452Y00832D02*
X01453D01*
X01466Y00844*
Y00846*
X01431Y00811D02*
Y00811D01*
Y00825*
X0143Y0081D02*
X01431Y00811D01*
X0012Y00835D02*
X00153D01*
X0018Y00808D02*
X0018Y00809D01*
Y01055*
X00138Y01097D02*
X0018Y01055D01*
G54D38*
X01925Y00863D02*
X02048D01*
X02234Y00239D02*
X02241D01*
X0283Y02175D02*
Y0227D01*
X02275Y021D02*
Y02215D01*
X02825Y0228D02*
Y02285D01*
X02426Y01555D02*
Y0163D01*
X0233Y01921D02*
X0242Y02011D01*
X0233Y01726D02*
Y01921D01*
Y01726D02*
X02426Y0163D01*
X02363Y02011D02*
X0242D01*
X02275Y021D02*
X02363Y02011D01*
X0283Y02175D02*
X02881Y02123D01*
X02915*
X0298*
X02982Y0212*
X03055*
X02048Y00863D02*
X02085Y009D01*
X02145Y0096*
X01803Y00863D02*
X01925D01*
X02145Y0096D02*
Y00962D01*
X018Y00866D02*
X01803Y00863D01*
X02241Y00195D02*
Y00239D01*
X02212Y00261D02*
Y00288D01*
Y00261D02*
X02234Y00239D01*
X02212Y00288D02*
X02239Y00314D01*
X02205Y0069D02*
X02285D01*
X02169Y00654D02*
X02205Y0069D01*
X02169Y00535D02*
Y00654D01*
X02227Y00508D02*
X02239Y00496D01*
Y00314D02*
Y00496D01*
X02196Y00508D02*
X02227D01*
X02169Y00535D02*
X02196Y00508D01*
G54D39*
X02495Y02188D02*
Y02198D01*
X02234Y02458D02*
X02495Y02198D01*
X024Y00515D02*
X0252Y00395D01*
X029*
X0188Y02858D02*
X01915Y02892D01*
X0188Y02825D02*
Y02858D01*
X0085Y02835D02*
Y0294D01*
X01385Y0285D02*
Y0294D01*
X01915Y02892D02*
Y0294D01*
X01365Y02458D02*
X0185D01*
X009D02*
X01365D01*
X0185D02*
X02234D01*
X02735Y01957D02*
X02945Y01748D01*
Y0044D02*
Y01748D01*
X029Y00395D02*
X02945Y0044D01*
X02726Y01957D02*
X02735D01*
X02495Y02188D02*
X02726Y01957D01*
G54D40*
X00483Y00255D02*
X00504Y00276D01*
X00472Y00255D02*
X00483D01*
X00483Y00206D02*
X0053Y00253D01*
X00472Y00206D02*
X00483D01*
X00465Y00199D02*
X00472Y00206D01*
X0053Y00525D02*
X00545Y00539D01*
X00465Y00248D02*
X00472Y00255D01*
X0053Y00253D02*
Y00525D01*
X00504Y00276D02*
Y00525D01*
X0049Y00539D02*
X00504Y00525D01*
G54D41*
X02985Y0251D02*
Y02639D01*
X0286Y03015D02*
X03025D01*
X028D02*
X0286D01*
X03Y0282D02*
Y0299D01*
X03025Y03015*
X03Y027D02*
Y0282D01*
X02985Y02639D02*
X03001Y02655D01*
X0021Y02835D02*
X00365D01*
X02495Y0271D02*
X028Y03015D01*
X02748Y0059D02*
Y0105D01*
X02728Y0107D02*
X02748Y0105D01*
X02728Y0107D02*
Y01553D01*
X0273Y01555*
G54D42*
X0283Y02564D02*
X02859Y02535D01*
X0282Y02574D02*
Y02655D01*
G54D43*
X00841Y02458D02*
X009D01*
G54D44*
X00245Y0185D02*
Y01911D01*
X00239Y01984D02*
X00245Y01978D01*
X0018Y01984D02*
X00239D01*
X005Y01445D02*
Y0152D01*
Y01445D02*
X00505Y0144D01*
X00245Y0185D02*
X0025Y01855D01*
X00275*
G54D45*
X00958Y0034D03*
X0061D03*
X01413Y0042D03*
X01065D03*
G54D46*
X01818Y00501D03*
Y00054D03*
X0036Y00051D03*
Y00399D03*
X02249Y01208D03*
Y0086D03*
X0073Y01791D03*
Y02139D03*
X02229Y01634D03*
Y01934D03*
X00075Y005D03*
Y002D03*
Y0091D03*
Y0061D03*
Y0132D03*
Y0102D03*
Y0173D03*
Y0143D03*
Y02135D03*
Y01835D03*
Y0254D03*
Y0224D03*
G54D47*
X0056Y00126D03*
X01014D03*
G54D48*
X00394Y02529D03*
Y02075D03*
G54D49*
X02491Y0271D03*
Y02198D03*
G54D50*
X00365Y02835D03*
X03025Y03015D03*
X0021Y02835D03*
X0286Y03015D03*
X01915Y0294D03*
X01385D03*
X0085D03*
G54D51*
X0161Y0026D03*
Y0016D03*
X01246Y0026D03*
Y0016D03*
X02805Y0222D03*
X02825Y02285D03*
X0219Y0184D03*
G54D52*
X0161Y0006D03*
X01246D03*
G54D53*
X00065Y00085D03*
X0305Y0317D03*
Y00085D03*
X00065Y0317D03*
G54D54*
X0006Y0117D03*
Y0157D03*
X00065Y0198D03*
X0007Y02385D03*
X0006Y0276D03*
Y03045D03*
X00295D03*
X0165Y02985D03*
X0061Y02885D03*
X0034Y0264D03*
X00545Y0257D03*
X00365Y0121D03*
X00415Y01065D03*
X0251Y0172D03*
X02545Y0145D03*
X0254Y0121D03*
X0259Y0089D03*
X02585Y0061D03*
X02885Y0019D03*
X02605Y00195D03*
X0238D03*
X0138Y0022D03*
X01455D03*
X0131Y00966D03*
X0132Y011D03*
X01329Y0105D03*
X01623Y01025D03*
X0132Y009D03*
X0129Y0099D03*
X00905Y0119D03*
X0088Y0115D03*
X00965Y0131D03*
X0136Y0145D03*
X0129Y01455D03*
X0126Y0147D03*
X01325Y0145D03*
X01425Y01495D03*
X01489Y01475D03*
X01515Y01455D03*
X0146Y0144D03*
X01214Y01449D03*
X01313Y01481D03*
X0263Y01545D03*
Y0157D03*
Y01595D03*
Y01625D03*
X02605Y01535D03*
Y0156D03*
Y01585D03*
Y0161D03*
Y01635D03*
X0232Y0057D03*
Y0053D03*
Y00495D03*
X0229Y006D03*
Y00495D03*
Y0053D03*
X00545Y00539D03*
X0049D03*
X0217Y0137D03*
X02085Y009D03*
X00205Y004D03*
X01005Y00435D03*
X0229Y0057D03*
X0169Y0074D03*
X019Y01785D03*
X01945D03*
X01815Y0072D03*
X01885D03*
X01082Y01981D03*
X00435Y00525D03*
X0052Y0193D03*
X01637Y01768D03*
X01585D03*
X01534D03*
X01483D03*
X01432D03*
X01381D03*
X01329D03*
X01278D03*
X01227D03*
X01176D03*
X01125D03*
X01637Y01717D03*
X01585D03*
X01534D03*
X01483D03*
X01432D03*
X01381D03*
X01329D03*
X01278D03*
X01227D03*
X01176D03*
X01125D03*
X01637Y01666D03*
X01585D03*
X01534D03*
X01483D03*
X01432D03*
X01381D03*
X01329D03*
X01278D03*
X01227D03*
X01176D03*
X01637Y01615D03*
X01585D03*
X01483D03*
X01432D03*
X01381D03*
X01278D03*
X01227D03*
X01176D03*
X01125D03*
Y01666D03*
X01534Y01615D03*
X01329D03*
X01115Y0053D03*
X0185Y0072D03*
X02035Y01145D03*
X01022Y01981D03*
X0036Y0015D03*
X01849Y01784D03*
X0169Y0181D03*
X00755Y00275D03*
X0168Y02885D03*
X0063Y023D03*
X0197Y0108D03*
X00902Y00997D03*
X00905Y0113D03*
X02135Y00045D03*
X0053Y0088D03*
X0154Y00425D03*
X01585D03*
X00295Y019D03*
X02Y0185D03*
X0177Y0161D03*
X0111Y02655D03*
X0156Y02775D03*
X0116Y02675D03*
X0123Y019D03*
X01475Y0198D03*
X02045Y02775D03*
X01545Y0219D03*
X011Y0071D03*
X01805Y0116D03*
X01865Y01105D03*
X0069Y01155D03*
X0064Y00725D03*
X01566Y01981D03*
X017Y01935D03*
X00635Y0233D03*
Y02365D03*
X00605Y02281D03*
X0165Y0288D03*
X0162Y02887D03*
X0154Y0288D03*
X01586D03*
X0045Y01825D03*
X02175Y0218D03*
X02055Y01785D03*
X01625Y0284D03*
X01515Y01975D03*
X0143Y019D03*
X01536Y01908D03*
X0144Y0194D03*
X01395Y01985D03*
X01294Y01985D03*
X01364Y01975D03*
X0133Y01905D03*
X01333Y01981D03*
X013Y01945D03*
X00995Y019D03*
X0166Y0219D03*
X0162D03*
X01685Y0214D03*
X00955Y00865D03*
X01005Y01595D03*
X02005Y01425D03*
X02065Y01475D03*
X01815Y0069D03*
X0185D03*
X01885D03*
X0187Y009D03*
X01895Y00815D03*
X01775Y0081D03*
X01935Y00843D03*
Y009D03*
X01955Y00825D03*
X00835Y0005D03*
X0082Y00285D03*
X0073Y0006D03*
X00165Y0012D03*
X0022D03*
X00095Y00395D03*
X0033Y0046D03*
X00385Y00595D03*
Y00555D03*
X00295Y0057D03*
X00125Y00735D03*
X00645Y0078D03*
X0073Y0106D03*
X00715Y0103D03*
X00695Y0139D03*
X0034Y02325D03*
X00345Y02265D03*
X00285Y0226D03*
X02285Y0069D03*
X01665Y00225D03*
X0144Y00665D03*
X0158Y0082D03*
X01735Y00735D03*
X00885Y0095D03*
X00635Y0055D03*
X0079Y00585D03*
X00715Y00385D03*
X01815Y0179D03*
X01765Y0111D03*
X0078Y0079D03*
X00785Y0071D03*
X01665Y01355D03*
X0037Y0097D03*
X0032Y0089D03*
X0166Y0144D03*
X0128Y01315D03*
X01246Y0131D03*
X00805Y01465D03*
X00785Y01415D03*
X00855Y0143D03*
X011Y0146D03*
X0104Y0145D03*
X0091Y01455D03*
X0094Y012D03*
X0112Y0217D03*
X01196Y01901D03*
X0114Y01965D03*
X012Y0197D03*
X01195Y02165D03*
X01185Y022D03*
X0121Y02135D03*
X01025Y02175D03*
X01115Y0259D03*
X00555Y0104D03*
X0045Y00887D03*
X00275Y01855D03*
X00315Y0182D03*
X0056Y0078D03*
X01875Y0094D03*
X0161Y0262D03*
X0031Y02045D03*
X0012Y0035D03*
X00135Y004D03*
X0133Y01195D03*
X01324Y01247D03*
X01265Y0121D03*
X0148Y0127D03*
X0173Y0119D03*
X01555Y01265D03*
Y0123D03*
X01635Y01245D03*
X00995Y00895D03*
X01023Y00879D03*
X0108Y0099D03*
X0119Y00885D03*
X0122Y00975D03*
X01195Y0095D03*
X01265Y00925D03*
X01431Y00825D03*
X01457Y00747D03*
X01275Y0085D03*
X0134Y00875D03*
X0148Y00725D03*
X0107Y0087D03*
X0112D03*
X01105Y0092D03*
X00999Y0131D03*
X0103D03*
X0105Y0124D03*
X01005Y01465D03*
X0108Y01484D03*
X0119Y0128D03*
X01221Y0129D03*
X01185Y0132D03*
X01665Y0192D03*
X01585Y0218D03*
X0156Y0214D03*
X01626Y01981D03*
X00285Y0073D03*
X0023Y00795D03*
X00304Y00834D03*
X0012Y00835D03*
X00035D03*
X0028Y0081D03*
X00152Y00982D03*
X0227Y015D03*
X02265Y01715D03*
X01515Y00905D03*
X01625Y00965D03*
G54D55*
X02475Y02895D03*
X02395Y02925D03*
X02705Y0251D03*
X0266Y02555D03*
X02605Y0251D03*
X02655Y0246D03*
X02435Y02875D03*
X0249Y02935D03*
X02425Y02955D03*
X02655Y0251D03*
X0239Y0288D03*
G54D56*
X0226Y02225D03*
Y0217D03*
Y02115D03*
G54D57*
X00582Y00594D03*
Y00641D03*
Y00688D03*
Y00735D03*
X00535Y00594D03*
Y00641D03*
Y00688D03*
Y00735D03*
X00488Y00594D03*
Y00641D03*
Y00688D03*
Y00735D03*
X00441Y00594D03*
Y00641D03*
Y00688D03*
Y00735D03*
M02*