%FSTAX23Y23*%
%MOMM*%
%SFA1B1*%

%IPPOS*%
%ADD10R,1.899996X2.699995*%
%ADD11R,1.299997X1.499997*%
%ADD12R,2.599995X1.899996*%
%ADD13R,0.999998X1.999996*%
%ADD14R,3.499993X2.499995*%
%ADD15O,2.099996X0.299999*%
%ADD16O,0.299999X2.099996*%
%ADD17R,0.799998X0.999998*%
%ADD18R,1.549997X1.299997*%
%ADD19R,1.499997X1.299997*%
%ADD20R,0.999998X1.099998*%
%ADD21R,1.099998X0.999998*%
%ADD22R,10.094980X10.694979*%
%ADD23R,0.749999X2.284995*%
%ADD24R,1.299997X0.799998*%
%ADD25R,0.799998X3.999992*%
%ADD26R,3.999992X0.799998*%
%ADD27R,0.799998X2.399995*%
%ADD28R,0.799998X1.299997*%
%ADD29R,1.239998X1.889996*%
%ADD30R,1.889996X1.239998*%
%ADD31R,0.949998X3.199994*%
%ADD32R,3.199994X0.949998*%
%ADD33R,2.699995X1.899996*%
%ADD46R,2.999994X2.099996*%
%ADD47R,1.499997X2.299995*%
%ADD48R,2.299995X1.499997*%
%ADD49R,2.099996X2.999994*%
%LNninja_ecu_pcb-1*%
%LPD*%
G54D10*
X71627Y67436D03*
X76227D03*
X52323Y01777D03*
X56923D03*
G54D11*
X14726Y36575D03*
X12826D03*
X16006Y17271D03*
X17906D03*
X12704Y21208D03*
X14604D03*
X12704Y2324D03*
X14604D03*
G54D12*
X16255Y3216D03*
Y2786D03*
G54D13*
X52323Y04952D03*
X54623D03*
X56923D03*
G54D14*
X54623Y11152D03*
G54D15*
X20593Y33685D03*
Y33185D03*
Y32685D03*
Y32185D03*
Y31685D03*
Y31185D03*
Y30685D03*
Y30185D03*
Y29685D03*
Y29185D03*
Y28685D03*
Y28185D03*
Y27685D03*
Y27185D03*
Y26685D03*
Y26185D03*
Y25685D03*
Y25185D03*
Y24685D03*
Y24185D03*
Y23685D03*
Y23185D03*
Y22685D03*
Y22185D03*
Y21685D03*
X35793D03*
Y22185D03*
Y22685D03*
Y23185D03*
Y23685D03*
Y24185D03*
Y24685D03*
Y25185D03*
Y25685D03*
Y26185D03*
Y26685D03*
Y27185D03*
Y27685D03*
Y28185D03*
Y28685D03*
Y29185D03*
Y29685D03*
Y30185D03*
Y30685D03*
Y31185D03*
Y31685D03*
Y32185D03*
Y32685D03*
Y33185D03*
Y33685D03*
G54D16*
X22193Y20085D03*
X22693D03*
X23193D03*
X23693D03*
X24193D03*
X24693D03*
X25193D03*
X25693D03*
X26193D03*
X26693D03*
X27193D03*
X27693D03*
X28193D03*
X28693D03*
X29193D03*
X29693D03*
X30193D03*
X30693D03*
X31193D03*
X31693D03*
X32193D03*
X32693D03*
X33193D03*
X33693D03*
X34193D03*
Y35285D03*
X33693D03*
X33193D03*
X32693D03*
X32193D03*
X31693D03*
X31193D03*
X30693D03*
X30193D03*
X29693D03*
X29193D03*
X28693D03*
X28193D03*
X27693D03*
X27193D03*
X26693D03*
X26193D03*
X25693D03*
X25193D03*
X24693D03*
X24193D03*
X23693D03*
X23193D03*
X22693D03*
X22193D03*
G54D17*
X44957Y38734D03*
X46857D03*
X45907Y41234D03*
X4864Y38734D03*
X5054D03*
X4959Y41234D03*
G54D18*
X56387Y14985D03*
Y19485D03*
X48437D03*
Y14985D03*
G54D19*
X77596Y55752D03*
Y53852D03*
X16636Y41904D03*
Y40004D03*
X18668Y41904D03*
Y40004D03*
G54D20*
X75691Y55625D03*
Y53925D03*
X53466Y3891D03*
Y3721D03*
X32108Y51512D03*
Y53212D03*
X35178D03*
Y51512D03*
X27502D03*
Y53212D03*
X29037D03*
Y51512D03*
X36714Y53212D03*
Y51512D03*
X41401Y10589D03*
Y08889D03*
X25967Y53212D03*
Y51512D03*
X39784Y53212D03*
Y51512D03*
X37972Y22019D03*
Y20319D03*
X45719Y22019D03*
Y20319D03*
X09651Y49099D03*
Y50799D03*
X06349Y12367D03*
Y10667D03*
Y07189D03*
Y08889D03*
X17017Y36526D03*
Y38226D03*
X18795Y36526D03*
Y38226D03*
X08127Y50848D03*
Y49148D03*
X44195Y20319D03*
Y22019D03*
X39623Y20319D03*
Y22019D03*
X06222Y14174D03*
Y15874D03*
Y19133D03*
Y17433D03*
Y24461D03*
Y26161D03*
Y29547D03*
Y27847D03*
Y35002D03*
Y36702D03*
Y39961D03*
Y38261D03*
Y45289D03*
Y46989D03*
Y50248D03*
Y48548D03*
Y55449D03*
Y57149D03*
Y605D03*
Y588D03*
X26796Y16812D03*
Y15112D03*
X25272Y16812D03*
Y15112D03*
X22224Y15063D03*
Y16763D03*
X207Y15063D03*
Y16763D03*
X27177Y41479D03*
Y43179D03*
X7404Y55625D03*
Y53925D03*
X42925Y51385D03*
Y53085D03*
X24432Y51463D03*
Y53163D03*
X30573Y53212D03*
Y51512D03*
X33643D03*
Y53212D03*
X38249D03*
Y51512D03*
X4132Y53212D03*
Y51512D03*
X4439D03*
Y53212D03*
X06349Y31573D03*
Y33273D03*
X11429Y49099D03*
Y50799D03*
X41147Y22019D03*
Y20319D03*
X42671Y22019D03*
Y20319D03*
X12699Y40307D03*
Y38607D03*
X14731Y40307D03*
Y38607D03*
X28574Y17701D03*
Y16001D03*
X31495Y1732D03*
Y1562D03*
X23748Y15063D03*
Y16763D03*
X42798Y39496D03*
Y41196D03*
X13588Y2746D03*
Y2916D03*
X39242Y34924D03*
Y33224D03*
X13588Y3256D03*
Y3086D03*
G54D21*
X38402Y54736D03*
X36702D03*
X17828Y15493D03*
X16128D03*
X09729Y47243D03*
X11429D03*
X46784Y3721D03*
X45084D03*
X43892Y25272D03*
X45592D03*
X50467Y3721D03*
X48767D03*
X43892Y26796D03*
X45592D03*
X2494Y38226D03*
X2324D03*
X1519Y25907D03*
X1689D03*
X17476Y1308D03*
X19176D03*
X24178D03*
X22478D03*
X33449Y46481D03*
X31749D03*
X72643Y64388D03*
X74343D03*
X3637Y15366D03*
X3467D03*
X27382Y47497D03*
X29082D03*
X43765Y23748D03*
X45465D03*
X49607Y30098D03*
X51307D03*
X10843Y21335D03*
X09143D03*
X1097Y23621D03*
X0927D03*
X35608Y18033D03*
X33908D03*
G54D22*
X46989Y61315D03*
X3467D03*
X22859D03*
G54D23*
X43179Y70357D03*
X44449D03*
X45719D03*
X48259D03*
X49529D03*
X50799D03*
X3086D03*
X3213D03*
X334D03*
X3594D03*
X3721D03*
X3848D03*
X19049D03*
X20319D03*
X21589D03*
X24129D03*
X25399D03*
X26669D03*
G54D24*
X43535Y0896D03*
Y1021D03*
Y0521D03*
Y03966D03*
Y06466D03*
Y07716D03*
X1181Y05059D03*
Y03809D03*
Y06304D03*
Y07554D03*
X53974Y46608D03*
Y45358D03*
Y44108D03*
X04571Y07619D03*
Y08869D03*
Y10119D03*
Y18033D03*
Y19283D03*
Y20533D03*
X54482Y26943D03*
Y28193D03*
Y25699D03*
Y24449D03*
X04571Y28447D03*
Y29697D03*
Y30947D03*
Y38861D03*
Y40111D03*
Y41361D03*
Y49148D03*
Y50398D03*
Y51648D03*
Y59435D03*
Y60685D03*
Y61935D03*
X21208Y49255D03*
Y48005D03*
Y505D03*
Y5175D03*
G54D25*
X23748Y04494D03*
X22248D03*
X20748D03*
X19248D03*
X17748D03*
X16248D03*
G54D26*
X11302Y54736D03*
Y56236D03*
Y57736D03*
Y59236D03*
Y60736D03*
Y62236D03*
G54D27*
X49504Y47701D03*
Y43637D03*
X48234Y47751D03*
Y43637D03*
X46964Y47701D03*
Y43637D03*
X45694Y47701D03*
Y43637D03*
X44424Y47701D03*
Y43637D03*
G54D28*
X3215Y13334D03*
X334D03*
X30906D03*
X29656D03*
X20593Y11302D03*
X21843D03*
X19349D03*
X18099D03*
G54D29*
X76469Y70738D03*
X72389D03*
G54D30*
X75818Y63007D03*
Y58927D03*
G54D31*
X57958Y74929D03*
Y82629D03*
G54D32*
X61641Y39496D03*
X69341D03*
X61594Y27177D03*
X69294D03*
X62102Y14985D03*
X69802D03*
G54D33*
X61467Y46481D03*
Y51081D03*
G54D46*
X46201Y12742D03*
Y01388D03*
X09145Y10143D03*
Y01303D03*
X5664Y4152D03*
Y4914D03*
X01906Y12708D03*
Y05088D03*
Y23122D03*
Y15502D03*
X57148Y2186D03*
Y30699D03*
X01906Y33536D03*
Y25916D03*
Y4395D03*
Y3633D03*
Y54237D03*
Y46617D03*
Y64524D03*
Y56904D03*
X18543Y54339D03*
Y45499D03*
G54D47*
X25767Y03217D03*
X14235D03*
G54D48*
X10025Y52718D03*
Y64249D03*
G54D49*
X27067Y10669D03*
X35906D03*
X1551Y08637D03*
X24349D03*
M02*