%FSTAX23Y23*%
%MOIN*%
%SFA1B1*%

%IPPOS*%
%ADD10R,0.106300X0.074800*%
%ADD11R,0.074410X0.048820*%
%ADD12R,0.125980X0.037400*%
%ADD13R,0.074800X0.106300*%
%ADD14R,0.031500X0.051180*%
%ADD15R,0.391540X0.354920*%
%ADD16R,0.029530X0.089960*%
%ADD17R,0.039370X0.043310*%
%ADD18R,0.051180X0.031500*%
%ADD19R,0.031500X0.157480*%
%ADD20R,0.157480X0.031500*%
%ADD21R,0.043310X0.039370*%
%ADD22R,0.031500X0.094490*%
%ADD23R,0.051180X0.059050*%
%ADD24R,0.059050X0.051180*%
%ADD25R,0.061020X0.051180*%
%ADD26R,0.031500X0.039370*%
%ADD27O,0.082680X0.011810*%
%ADD28O,0.011810X0.082680*%
%ADD29R,0.039370X0.078740*%
%ADD30R,0.137800X0.098420*%
%ADD31R,0.102360X0.074800*%
%ADD32R,0.048820X0.074410*%
%ADD45R,0.082680X0.118110*%
%ADD46R,0.118110X0.082680*%
%ADD47R,0.059050X0.090550*%
%ADD48R,0.090550X0.059050*%
%LNninja_ecu_pcb-1*%
%LPD*%
G54D10*
X0242Y0183D03*
Y02011D03*
G54D11*
X02985Y0248D03*
Y0232D03*
G54D12*
X02426Y01555D03*
X0273D03*
X02748Y0059D03*
X02445D03*
X02728Y0107D03*
X02425D03*
X02281Y03005D03*
X02585D03*
G54D13*
X0282Y02655D03*
X03001D03*
X0206Y0007D03*
X02241D03*
G54D14*
X00712Y00445D03*
X00761D03*
X0086D03*
X0081D03*
X01167Y00525D03*
X01216D03*
X01315D03*
X01265D03*
G54D15*
X0185Y02458D03*
X01365D03*
X009D03*
G54D16*
X017Y0277D03*
X0175D03*
X018D03*
X019D03*
X0195D03*
X02D03*
X01215D03*
X01265D03*
X01315D03*
X01415D03*
X01465D03*
X01515D03*
X0075D03*
X008D03*
X0085D03*
X0095D03*
X01D03*
X0105D03*
G54D17*
X00245Y00963D03*
Y0103D03*
X00535Y01081D03*
Y01148D03*
X00245Y01163D03*
Y01096D03*
X00815Y00593D03*
Y0066D03*
X0025Y01243D03*
Y0131D03*
X00245Y01573D03*
Y01506D03*
X00535Y01281D03*
Y01215D03*
X0124Y00681D03*
Y00615D03*
X01125Y00696D03*
Y0063D03*
X0058Y01586D03*
Y0152D03*
X005Y01586D03*
Y0152D03*
X0168Y00866D03*
Y008D03*
X0162Y00866D03*
Y008D03*
X0045Y01933D03*
Y02D03*
X01747Y02095D03*
Y02028D03*
X01626D03*
Y02095D03*
X00961Y02093D03*
Y02026D03*
X0107Y01633D03*
Y017D03*
X00875Y00593D03*
Y0066D03*
X00995Y00661D03*
Y00595D03*
X01055Y00661D03*
Y00595D03*
X00245Y02381D03*
Y02315D03*
Y02183D03*
Y0225D03*
Y01978D03*
Y01911D03*
Y01783D03*
Y0185D03*
Y01378D03*
Y01445D03*
Y00753D03*
Y00686D03*
Y00558D03*
Y00625D03*
X0156Y008D03*
Y00866D03*
X0174Y008D03*
Y00866D03*
X0032Y02001D03*
Y01935D03*
X0074Y01438D03*
Y01505D03*
X0067Y01438D03*
Y01505D03*
X0025Y00283D03*
Y0035D03*
Y00486D03*
Y0042D03*
X0038Y01933D03*
Y02D03*
X018Y00866D03*
Y008D03*
X01495Y00866D03*
Y008D03*
X01566Y02028D03*
Y02095D03*
X01022Y02028D03*
Y02095D03*
X0163Y00416D03*
Y0035D03*
X01445Y02095D03*
Y02028D03*
X01143Y02095D03*
Y02028D03*
X01082Y02095D03*
Y02028D03*
X01385Y02095D03*
Y02028D03*
X01264Y02095D03*
Y02028D03*
X02105Y01531D03*
Y01465D03*
X01545Y01308D03*
Y01375D03*
X01685Y01621D03*
Y01555D03*
X00935Y0066D03*
Y00593D03*
X01505Y02028D03*
Y02095D03*
X01324D03*
Y02028D03*
X01203D03*
Y02095D03*
X0169Y0209D03*
Y02023D03*
X0298Y0219D03*
Y02123D03*
X02915Y0219D03*
Y02123D03*
G54D18*
X01714Y00352D03*
Y00402D03*
Y00205D03*
Y00156D03*
Y00254D03*
Y00303D03*
X00465Y00297D03*
Y00248D03*
Y0015D03*
Y00199D03*
X02145Y00962D03*
Y01011D03*
Y0111D03*
Y0106D03*
X00835Y02037D03*
Y01988D03*
Y0189D03*
Y01939D03*
X02125Y01835D03*
Y01785D03*
Y01736D03*
X0018Y003D03*
Y00349D03*
Y00398D03*
Y0071D03*
Y00759D03*
Y00808D03*
Y0112D03*
Y01169D03*
Y01218D03*
Y0153D03*
Y01579D03*
Y01628D03*
Y01935D03*
Y01984D03*
Y02033D03*
Y0234D03*
Y02389D03*
Y02438D03*
G54D19*
X00639Y00176D03*
X00698D03*
X00757D03*
X00816D03*
X00875D03*
X00935D03*
G54D20*
X00445Y0245D03*
Y02391D03*
Y02332D03*
Y02273D03*
Y02214D03*
Y02155D03*
G54D21*
X01316Y0183D03*
X0125D03*
X00701Y0061D03*
X00635D03*
X00431Y0093D03*
X00365D03*
X00426Y0084D03*
X0036D03*
X01953Y01185D03*
X0202D03*
X01723Y00935D03*
X0179D03*
X01078Y0187D03*
X01145D03*
X01431Y00605D03*
X01365D03*
X00951Y00515D03*
X00885D03*
X00688D03*
X00755D03*
X00598Y0102D03*
X00665D03*
X00981Y01505D03*
X00915D03*
X01728Y01055D03*
X01795D03*
X01728Y00995D03*
X01795D03*
X00383Y0186D03*
X0045D03*
X01445Y02155D03*
X01511D03*
X01986Y01465D03*
X0192D03*
X01841D03*
X01775D03*
X01335Y0071D03*
X01401D03*
X0286Y02535D03*
X02926D03*
G54D22*
X01949Y01878D03*
Y01718D03*
X01899Y0188D03*
Y01718D03*
X01849Y01878D03*
Y01718D03*
X01799Y01878D03*
Y01718D03*
X01749Y01878D03*
Y01718D03*
G54D23*
X005Y00915D03*
X00575D03*
X005Y00835D03*
X00575D03*
X0063Y0068D03*
X00705D03*
X00579Y0144D03*
X00505D03*
G54D24*
X00735Y01649D03*
Y01575D03*
X00655Y01649D03*
Y01575D03*
X03055Y02195D03*
Y0212D03*
G54D25*
X0222Y0059D03*
Y00767D03*
X01907D03*
Y0059D03*
G54D26*
X01952Y01623D03*
X01989Y01525D03*
X01915D03*
X01807Y01623D03*
X01844Y01525D03*
X0177D03*
G54D27*
X0081Y01326D03*
Y01306D03*
Y01286D03*
Y01267D03*
Y01247D03*
Y01227D03*
Y01208D03*
Y01188D03*
Y01168D03*
Y01149D03*
Y01129D03*
Y01109D03*
Y0109D03*
Y0107D03*
Y0105D03*
Y0103D03*
Y01011D03*
Y00991D03*
Y00971D03*
Y00952D03*
Y00932D03*
Y00912D03*
Y00893D03*
Y00873D03*
Y00853D03*
X01409D03*
Y00873D03*
Y00893D03*
Y00912D03*
Y00932D03*
Y00952D03*
Y00971D03*
Y00991D03*
Y01011D03*
Y0103D03*
Y0105D03*
Y0107D03*
Y0109D03*
Y01109D03*
Y01129D03*
Y01149D03*
Y01168D03*
Y01188D03*
Y01208D03*
Y01227D03*
Y01247D03*
Y01267D03*
Y01286D03*
Y01306D03*
Y01326D03*
G54D28*
X00873Y0079D03*
X00893D03*
X00913D03*
X00932D03*
X00952D03*
X00972D03*
X00991D03*
X01011D03*
X01031D03*
X0105D03*
X0107D03*
X0109D03*
X0111D03*
X01129D03*
X01149D03*
X01169D03*
X01188D03*
X01208D03*
X01228D03*
X01247D03*
X01267D03*
X01287D03*
X01306D03*
X01326D03*
X01346D03*
Y01389D03*
X01326D03*
X01306D03*
X01287D03*
X01267D03*
X01247D03*
X01228D03*
X01208D03*
X01188D03*
X01169D03*
X01149D03*
X01129D03*
X0111D03*
X0109D03*
X0107D03*
X0105D03*
X01031D03*
X01011D03*
X00991D03*
X00972D03*
X00952D03*
X00932D03*
X00913D03*
X00893D03*
X00873D03*
G54D29*
X0215Y00195D03*
X0206D03*
X02241D03*
G54D30*
X0215Y00439D03*
G54D31*
X0064Y01096D03*
Y01266D03*
G54D32*
X03Y0282D03*
X02839D03*
G54D45*
X00958Y0034D03*
X0061D03*
X01413Y0042D03*
X01065D03*
G54D46*
X01818Y00501D03*
Y00054D03*
X0036Y00051D03*
Y00399D03*
X02249Y01208D03*
Y0086D03*
X0073Y01791D03*
Y02139D03*
X02229Y01634D03*
Y01934D03*
X00075Y005D03*
Y002D03*
Y0091D03*
Y0061D03*
Y0132D03*
Y0102D03*
Y0173D03*
Y0143D03*
Y02135D03*
Y01835D03*
Y0254D03*
Y0224D03*
G54D47*
X0056Y00126D03*
X01014D03*
G54D48*
X00394Y02529D03*
Y02075D03*
M02*