%FSTAX23Y23*%
%MOIN*%
%SFA1B1*%

%IPPOS*%
%ADD36C,0.011811*%
%ADD37C,0.009843*%
%ADD39C,0.019685*%
%ADD73C,0.007874*%
%ADD79C,0.010000*%
%ADD80C,0.023622*%
%ADD81C,0.001181*%
%ADD82C,0.005905*%
%ADD83C,0.003937*%
%ADD84C,0.005000*%
%LNninja_ecu_pcb-1*%
%LPD*%
G54D36*
X02284Y00255D02*
Y00367D01*
X02028D02*
X02284D01*
X02028Y00255D02*
Y00367D01*
Y00255D02*
X02284D01*
G54D37*
X00815Y01353D02*
D01*
X00815Y01354*
X00815Y01354*
X00815Y01354*
X00815Y01355*
X00815Y01355*
X00815Y01355*
X00815Y01356*
X00814Y01356*
X00814Y01356*
X00814Y01356*
X00814Y01357*
X00814Y01357*
X00813Y01357*
X00813Y01357*
X00813Y01358*
X00812Y01358*
X00812Y01358*
X00812Y01358*
X00811Y01358*
X00811Y01358*
X00811Y01358*
X0081Y01358*
X0081*
X0081Y01358*
X00809Y01358*
X00809Y01358*
X00809Y01358*
X00808Y01358*
X00808Y01358*
X00808Y01358*
X00808Y01357*
X00807Y01357*
X00807Y01357*
X00807Y01357*
X00807Y01356*
X00806Y01356*
X00806Y01356*
X00806Y01356*
X00806Y01355*
X00806Y01355*
X00806Y01355*
X00805Y01354*
X00805Y01354*
X00805Y01354*
X00805Y01353*
X00805Y01353*
X00805Y01353*
X00805Y01352*
X00806Y01352*
X00806Y01352*
X00806Y01351*
X00806Y01351*
X00806Y01351*
X00806Y0135*
X00807Y0135*
X00807Y0135*
X00807Y0135*
X00807Y01349*
X00808Y01349*
X00808Y01349*
X00808Y01349*
X00808Y01349*
X00809Y01349*
X00809Y01349*
X00809Y01348*
X0081Y01348*
X0081Y01348*
X0081*
X00811Y01348*
X00811Y01348*
X00811Y01349*
X00812Y01349*
X00812Y01349*
X00812Y01349*
X00813Y01349*
X00813Y01349*
X00813Y01349*
X00814Y0135*
X00814Y0135*
X00814Y0135*
X00814Y0135*
X00814Y01351*
X00815Y01351*
X00815Y01351*
X00815Y01352*
X00815Y01352*
X00815Y01352*
X00815Y01353*
X00815Y01353*
X00815Y01353*
G54D39*
X02333Y02198D02*
Y02788D01*
X02648Y02198D02*
Y02788D01*
G54D73*
X02111Y00018D02*
X02189D01*
X02111Y00121D02*
X02189D01*
X02471Y01881D02*
Y01959D01*
X02368Y01881D02*
Y01959D01*
X0156Y0001D02*
X0166D01*
X0156D02*
Y0031D01*
X0166*
Y0001D02*
Y0031D01*
X01196Y0001D02*
X01296D01*
X01196D02*
Y0031D01*
X01296*
Y0001D02*
Y0031D01*
X01891Y01565D02*
Y01585D01*
X02009Y01565D02*
Y01585D01*
X01891Y01565D02*
X02009D01*
X01891Y01585D02*
X02009D01*
X01746Y01565D02*
Y01585D01*
X01864Y01565D02*
Y01585D01*
X01746Y01565D02*
X01864D01*
X01746Y01585D02*
X01864D01*
X00867Y00847D02*
X01352D01*
X00867Y01332D02*
X01352D01*
Y00847D02*
Y01332D01*
X00867Y00847D02*
Y01332D01*
X02871Y02603D02*
X02949D01*
X02871Y02706D02*
X02949D01*
G54D79*
X02021Y01939D02*
D01*
X02021Y01939*
X02021Y0194*
X02021Y0194*
X0202Y01941*
X0202Y01941*
X0202Y01942*
X0202Y01942*
X02019Y01943*
X02019Y01943*
X02019Y01944*
X02018Y01944*
X02018Y01945*
X02018Y01945*
X02017Y01945*
X02017Y01946*
X02016Y01946*
X02016Y01946*
X02015Y01946*
X02014Y01947*
X02014Y01947*
X02013Y01947*
X02013Y01947*
X02012*
X02012Y01947*
X02011Y01947*
X02011Y01947*
X0201Y01946*
X02009Y01946*
X02009Y01946*
X02008Y01946*
X02008Y01945*
X02007Y01945*
X02007Y01945*
X02007Y01944*
X02006Y01944*
X02006Y01943*
X02006Y01943*
X02005Y01942*
X02005Y01942*
X02005Y01941*
X02005Y01941*
X02004Y0194*
X02004Y0194*
X02004Y01939*
X02004Y01939*
X02004Y01938*
X02004Y01937*
X02004Y01937*
X02005Y01936*
X02005Y01936*
X02005Y01935*
X02005Y01935*
X02006Y01934*
X02006Y01934*
X02006Y01933*
X02007Y01933*
X02007Y01932*
X02007Y01932*
X02008Y01932*
X02008Y01931*
X02009Y01931*
X02009Y01931*
X0201Y01931*
X02011Y0193*
X02011Y0193*
X02012Y0193*
X02012Y0193*
X02013*
X02013Y0193*
X02014Y0193*
X02014Y0193*
X02015Y01931*
X02016Y01931*
X02016Y01931*
X02017Y01931*
X02017Y01932*
X02018Y01932*
X02018Y01932*
X02018Y01933*
X02019Y01933*
X02019Y01934*
X02019Y01934*
X0202Y01935*
X0202Y01935*
X0202Y01936*
X0202Y01936*
X02021Y01937*
X02021Y01937*
X02021Y01938*
X02021Y01939*
X0238Y00668D02*
Y00792D01*
X0238Y00794D02*
X02809D01*
X02381Y00387D02*
Y00511D01*
X02382Y00387D02*
X02811D01*
Y00668D02*
Y00792D01*
Y00387D02*
Y00511D01*
X0236Y01148D02*
Y01272D01*
X0236Y01274D02*
X02789D01*
X02361Y00867D02*
Y00991D01*
X02362Y00867D02*
X02791D01*
Y01148D02*
Y01272D01*
Y00867D02*
Y00991D01*
X02361Y01633D02*
Y01757D01*
X02361Y01759D02*
X0279D01*
X02362Y01352D02*
Y01476D01*
X02363Y01352D02*
X02792D01*
Y01633D02*
Y01757D01*
Y01352D02*
Y01476D01*
X02079Y02885D02*
X02203D01*
X02077Y02885D02*
Y03314D01*
X0236Y02886D02*
X02484D01*
Y02887D02*
Y03316D01*
X02079D02*
X02203D01*
X0236D02*
X02484D01*
X0084Y02079D02*
Y02164D01*
X00815D02*
X0084D01*
Y01765D02*
Y0185D01*
X00815Y01765D02*
X0084D01*
X00675Y0186D02*
Y02078D01*
X00586Y0045D02*
X00671D01*
X00586Y00425D02*
Y0045D01*
X009D02*
X00985D01*
Y00425D02*
Y0045D01*
X00672Y00285D02*
X0089D01*
X01041Y0053D02*
X01126D01*
X01041Y00505D02*
Y0053D01*
X01355D02*
X0144D01*
Y00505D02*
Y0053D01*
X01127Y00365D02*
X01345D01*
X01663Y01695D02*
X01713D01*
X01663D02*
Y01759D01*
Y01905D02*
X01713D01*
X01663Y01841D02*
Y01905D01*
X01989Y01695D02*
X02039D01*
Y01759*
Y01839D02*
Y01903D01*
X01989D02*
X02039D01*
X00185Y0248D02*
Y02565D01*
X0016D02*
X00185D01*
X0002Y0231D02*
Y0247D01*
X0016Y02215D02*
X00185D01*
Y023*
Y02075D02*
Y0216D01*
X0016D02*
X00185D01*
X0002Y01905D02*
Y02065D01*
X0016Y0181D02*
X00185D01*
Y01895*
Y0167D02*
Y01755D01*
X0016D02*
X00185D01*
X0002Y015D02*
Y0166D01*
X0016Y01405D02*
X00185D01*
Y0149*
Y0126D02*
Y01345D01*
X0016D02*
X00185D01*
X0002Y0109D02*
Y0125D01*
X0016Y00995D02*
X00185D01*
Y0108*
X0214Y00836D02*
Y00921D01*
Y00836D02*
X02165D01*
X0214Y0115D02*
Y01235D01*
X02165*
X02305Y00922D02*
Y0114D01*
X00185Y0085D02*
Y00935D01*
X0016D02*
X00185D01*
X0002Y0068D02*
Y0084D01*
X0016Y00585D02*
X00185D01*
Y0067*
Y0044D02*
Y00525D01*
X0016D02*
X00185D01*
X0002Y0027D02*
Y0043D01*
X0016Y00175D02*
X00185D01*
Y0026*
X0212Y0161D02*
Y01695D01*
Y0161D02*
X02145D01*
X02285Y01705D02*
Y01865D01*
X0212Y0196D02*
X02145D01*
X0212Y01875D02*
Y0196D01*
X00285Y02065D02*
Y0254D01*
Y02065D02*
X0033D01*
X00455D02*
X0049D01*
X00455Y0254D02*
X0049D01*
X00285D02*
X0033D01*
X0049Y02065D02*
Y02115D01*
Y0249D02*
Y02538D01*
X0047Y00339D02*
Y00424D01*
X00445D02*
X0047D01*
Y00025D02*
Y0011D01*
X00445Y00025D02*
X0047D01*
X00305Y0012D02*
Y00338D01*
X0055Y00016D02*
X01025D01*
Y00061*
Y00186D02*
Y00221D01*
X0055Y00186D02*
Y00221D01*
Y00016D02*
Y00061D01*
X00975Y00221D02*
X01025D01*
X00551D02*
X006D01*
X01709Y0003D02*
Y00115D01*
Y0003D02*
X01734D01*
X01709Y00442D02*
Y00527D01*
X01734*
X01874Y00128D02*
Y00432D01*
X0197Y00791D02*
X02157D01*
X02249Y0064D02*
Y00716D01*
X0197Y00565D02*
X02157D01*
X01911Y0064D02*
Y00715D01*
X0025Y03255D02*
Y03314D01*
X00289Y03255*
Y03314*
X00309Y03255D02*
X00329D01*
X00319*
Y03294*
X00309*
X00359Y03255D02*
Y03294D01*
X00389*
X00399Y03284*
Y03255*
X00419Y03235D02*
X00429D01*
X00439Y03245*
Y03294*
X00489D02*
X00509D01*
X00519Y03284*
Y03255*
X00489*
X00479Y03264*
X00489Y03274*
X00519*
X00639Y03304D02*
X00629Y03314D01*
X00609*
X00599Y03304*
Y03264*
X00609Y03255*
X00629*
X00639Y03264*
X00669Y03294D02*
X00689D01*
X00699Y03284*
Y03255*
X00669*
X00659Y03264*
X00669Y03274*
X00699*
X00719Y03294D02*
Y03255D01*
Y03274*
X00729Y03284*
X00739Y03294*
X00749*
X00839Y03314D02*
Y03274D01*
X00859Y03255*
X00879Y03274*
Y03314*
X00929Y03255D02*
X00909D01*
X00899Y03264*
Y03284*
X00909Y03294*
X00929*
X00939Y03284*
Y03274*
X00899*
X00959Y03294D02*
Y03255D01*
Y03274*
X00969Y03284*
X00979Y03294*
X00989*
X01019Y03255D02*
X01049D01*
X01059Y03264*
X01049Y03274*
X01029*
X01019Y03284*
X01029Y03294*
X01059*
X01079Y03255D02*
X01099D01*
X01089*
Y03294*
X01079*
X01139Y03255D02*
X01159D01*
X01169Y03264*
Y03284*
X01159Y03294*
X01139*
X01129Y03284*
Y03264*
X01139Y03255*
X01189D02*
Y03294D01*
X01219*
X01229Y03284*
Y03255*
X01309Y03304D02*
X01319Y03314D01*
X01339*
X01349Y03304*
Y03294*
X01339Y03284*
X01329*
X01339*
X01349Y03274*
Y03264*
X01339Y03255*
X01319*
X01309Y03264*
X01369Y03255D02*
Y03264D01*
X01379*
Y03255*
X01369*
X01449D02*
Y03314D01*
X01419Y03284*
X01459*
G54D80*
X00919Y01292D02*
D01*
X00919Y01293*
X00918Y01294*
X00918Y01295*
X00918Y01296*
X00918Y01296*
X00918Y01297*
X00917Y01298*
X00917Y01299*
X00916Y01299*
X00916Y013*
X00915Y013*
X00915Y01301*
X00914Y01302*
X00913Y01302*
X00913Y01302*
X00912Y01303*
X00911Y01303*
X0091Y01303*
X0091Y01304*
X00909Y01304*
X00908Y01304*
X00907Y01304*
X00906*
X00906Y01304*
X00905Y01304*
X00904Y01304*
X00903Y01303*
X00902Y01303*
X00902Y01303*
X00901Y01302*
X009Y01302*
X00899Y01302*
X00899Y01301*
X00898Y013*
X00898Y013*
X00897Y01299*
X00897Y01299*
X00896Y01298*
X00896Y01297*
X00896Y01296*
X00895Y01296*
X00895Y01295*
X00895Y01294*
X00895Y01293*
X00895Y01292*
X00895Y01291*
X00895Y01291*
X00895Y0129*
X00895Y01289*
X00896Y01288*
X00896Y01287*
X00896Y01287*
X00897Y01286*
X00897Y01285*
X00898Y01285*
X00898Y01284*
X00899Y01283*
X00899Y01283*
X009Y01282*
X00901Y01282*
X00902Y01282*
X00902Y01281*
X00903Y01281*
X00904Y01281*
X00905Y01281*
X00906Y01281*
X00906Y0128*
X00907*
X00908Y01281*
X00909Y01281*
X0091Y01281*
X0091Y01281*
X00911Y01281*
X00912Y01282*
X00913Y01282*
X00913Y01282*
X00914Y01283*
X00915Y01283*
X00915Y01284*
X00916Y01285*
X00916Y01285*
X00917Y01286*
X00917Y01287*
X00918Y01287*
X00918Y01288*
X00918Y01289*
X00918Y0129*
X00918Y01291*
X00919Y01291*
X00919Y01292*
G54D81*
X01563Y01273D02*
Y01279D01*
X0156Y01276D02*
X01566D01*
X01299Y00692D02*
X01305D01*
X01302Y00689D02*
Y00695D01*
X01667Y01651D02*
Y01657D01*
X01664Y01654D02*
X0167D01*
X00917Y00689D02*
Y00695D01*
X00914Y00692D02*
X0092D01*
X01523Y01993D02*
Y01999D01*
X0152Y01996D02*
X01526D01*
X01306Y02124D02*
Y0213D01*
X01303Y02127D02*
X01309D01*
X01221Y01993D02*
Y01999D01*
X01218Y01996D02*
X01224D01*
G54D82*
X02288Y00114D02*
X02304D01*
X02296Y00106D02*
Y00122D01*
X02387Y00358D02*
X02413D01*
X024Y00345D02*
Y00371D01*
X02367Y00838D02*
X02393D01*
X0238Y00825D02*
Y00851D01*
X02376Y02058D02*
Y02074D01*
X02368Y02066D02*
X02384D01*
X02369Y01323D02*
X02395D01*
X02382Y0131D02*
Y01336D01*
X02513Y02892D02*
Y02918D01*
X025Y02905D02*
X02526D01*
X03048Y02699D02*
X03064D01*
X03056Y02691D02*
Y02707D01*
G54D83*
X03029Y02319D02*
X03036D01*
X02934Y0248D02*
X02941D01*
X02934Y02315D02*
Y0248D01*
Y02315D02*
X02941D01*
X03029Y0248D02*
X03036D01*
Y02319D02*
Y0248D01*
X02849Y02734D02*
Y02741D01*
X0301Y02829D02*
Y02836D01*
X02845D02*
X0301D01*
X02845Y02829D02*
Y02836D01*
X0301Y02734D02*
Y02741D01*
X02849Y02734D02*
X0301D01*
X00711Y01061D02*
Y01298D01*
X00573Y01062D02*
Y01298D01*
X01683Y02156D02*
X01679Y02159D01*
X01673*
X0167Y02156*
Y02143*
X01673Y0214*
X01679*
X01683Y02143*
X01689Y02159D02*
X01702D01*
Y02156*
X01689Y02143*
Y0214*
X01722D02*
X01709D01*
X01722Y02153*
Y02156*
X01719Y02159*
X01712*
X01709Y02156*
X0208Y01565D02*
Y01584D01*
X02089*
X02093Y01581*
Y01574*
X02089Y01571*
X0208*
X02086D02*
X02093Y01565D01*
X02099Y01581D02*
X02102Y01584D01*
X02109*
X02112Y01581*
Y01578*
X02109Y01574*
X02112Y01571*
Y01568*
X02109Y01565*
X02102*
X02099Y01568*
Y01571*
X02102Y01574*
X02099Y01578*
Y01581*
X02102Y01574D02*
X02109D01*
X02119Y01584D02*
X02132D01*
Y01581*
X02119Y01568*
Y01565*
X0166Y0146D02*
Y01479D01*
X01669*
X01673Y01476*
Y01469*
X01669Y01466*
X0166*
X01666D02*
X01673Y0146D01*
X01692D02*
X01679D01*
X01692Y01473*
Y01476*
X01689Y01479*
X01682*
X01679Y01476*
X01712Y0146D02*
X01699D01*
X01712Y01473*
Y01476*
X01709Y01479*
X01702*
X01699Y01476*
X0203Y0152D02*
X02049D01*
Y0151*
X02046Y01506*
X02039*
X02036Y0151*
Y0152*
Y01513D02*
X0203Y01506D01*
Y01487D02*
Y015D01*
X02043Y01487*
X02046*
X02049Y0149*
Y01497*
X02046Y015*
Y0148D02*
X02049Y01477D01*
Y0147*
X02046Y01467*
X02033*
X0203Y0147*
Y01477*
X02033Y0148*
X02046*
X005Y01399D02*
X00513Y0138D01*
Y01399D02*
X005Y0138D01*
X00532D02*
X00519D01*
X00532Y01393*
Y01396*
X00529Y01399*
X00522*
X00519Y01396*
X0057Y01329D02*
X00583Y0131D01*
Y01329D02*
X0057Y0131D01*
X00589D02*
X00596D01*
X00592*
Y01329*
X00589Y01326*
X02Y00409D02*
Y00393D01*
X02003Y0039*
X02009*
X02013Y00393*
Y00409*
X02019Y00406D02*
X02022Y00409D01*
X02029*
X02032Y00406*
Y00403*
X02029Y00399*
X02026*
X02029*
X02032Y00396*
Y00393*
X02029Y0039*
X02022*
X02019Y00393*
X00815Y01399D02*
Y01383D01*
X00818Y0138*
X00824*
X00828Y01383*
Y01399*
X00834Y0138D02*
X00841D01*
X00837*
Y01399*
X00834Y01396*
X01845Y01629D02*
X01858D01*
X01851*
Y0161*
X01877D02*
X01864D01*
X01877Y01623*
Y01626*
X01874Y01629*
X01867*
X01864Y01626*
X0199Y01629D02*
X02003D01*
X01996*
Y0161*
X02009D02*
X02016D01*
X02012*
Y01629*
X02009Y01626*
X01868Y00651D02*
X01864Y00654D01*
X01858*
X01855Y00651*
Y00648*
X01858Y00644*
X01864*
X01868Y00641*
Y00638*
X01864Y00635*
X01858*
X01855Y00638*
X01874Y00635D02*
X01881D01*
X01877*
Y00654*
X01874Y00651*
X0127Y0197D02*
Y0195D01*
X0126*
X01256Y01953*
Y0196*
X0126Y01963*
X0127*
X01263D02*
X01256Y0197D01*
X0125Y01953D02*
X01247Y0195D01*
X0124*
X01237Y01953*
Y01956*
X0124Y0196*
X01237Y01963*
Y01966*
X0124Y0197*
X01247*
X0125Y01966*
Y01963*
X01247Y0196*
X0125Y01956*
Y01953*
X01247Y0196D02*
X0124D01*
X0123Y01953D02*
X01227Y0195D01*
X0122*
X01217Y01953*
Y01956*
X0122Y0196*
X01224*
X0122*
X01217Y01963*
Y01966*
X0122Y0197*
X01227*
X0123Y01966*
X0141Y0195D02*
Y0193D01*
X014*
X01396Y01933*
Y0194*
X014Y01943*
X0141*
X01403D02*
X01396Y0195D01*
X0139Y01933D02*
X01387Y0193D01*
X0138*
X01377Y01933*
Y01936*
X0138Y0194*
X01377Y01943*
Y01946*
X0138Y0195*
X01387*
X0139Y01946*
Y01943*
X01387Y0194*
X0139Y01936*
Y01933*
X01387Y0194D02*
X0138D01*
X0137Y0195D02*
X01364D01*
X01367*
Y0193*
X0137Y01933*
X0111Y0196D02*
Y0194D01*
X011*
X01096Y01943*
Y0195*
X011Y01953*
X0111*
X01103D02*
X01096Y0196D01*
X0109Y0194D02*
X01077D01*
Y01943*
X0109Y01956*
Y0196*
X0107Y01943D02*
X01067Y0194D01*
X0106*
X01057Y01943*
Y01946*
X0106Y0195*
X01057Y01953*
Y01956*
X0106Y0196*
X01067*
X0107Y01956*
Y01953*
X01067Y0195*
X0107Y01946*
Y01943*
X01067Y0195D02*
X0106D01*
X01115Y02125D02*
Y02144D01*
X01124*
X01128Y02141*
Y02134*
X01124Y02131*
X01115*
X01121D02*
X01128Y02125D01*
X01134Y02144D02*
X01147D01*
Y02141*
X01134Y02128*
Y02125*
X01154Y02144D02*
X01167D01*
Y02141*
X01154Y02128*
Y02125*
X0141D02*
X0139D01*
Y02134*
X01393Y02138*
X014*
X01403Y02134*
Y02125*
Y02131D02*
X0141Y02138D01*
X0139Y02144D02*
Y02157D01*
X01393*
X01406Y02144*
X0141*
Y02174D02*
X0139D01*
X014Y02164*
Y02177*
X01455Y01975D02*
Y01955D01*
X01445*
X01441Y01958*
Y01965*
X01445Y01968*
X01455*
X01448D02*
X01441Y01975D01*
X01435Y01955D02*
X01422D01*
Y01958*
X01435Y01971*
Y01975*
X01402D02*
X01415D01*
X01402Y01961*
Y01958*
X01405Y01955*
X01412*
X01415Y01958*
X0159Y00445D02*
Y00464D01*
X01599*
X01603Y00461*
Y00454*
X01599Y00451*
X0159*
X01596D02*
X01603Y00445D01*
X01609Y00464D02*
X01622D01*
Y00461*
X01609Y00448*
Y00445*
X01629Y00461D02*
X01632Y00464D01*
X01639*
X01642Y00461*
Y00448*
X01639Y00445*
X01632*
X01629Y00448*
Y00461*
X00735Y00634D02*
X00755D01*
Y00625*
X00751Y00621*
X00745*
X00742Y00625*
Y00634*
Y00628D02*
X00735Y00621D01*
X00755Y00602D02*
X00751Y00608D01*
X00745Y00615*
X00738*
X00735Y00611*
Y00605*
X00738Y00602*
X00742*
X00745Y00605*
Y00615*
X00738Y00595D02*
X00735Y00592D01*
Y00585*
X00738Y00582*
X00751*
X00755Y00585*
Y00592*
X00751Y00595*
X00748*
X00745Y00592*
Y00582*
X00985Y02125D02*
Y02144D01*
X00994*
X00998Y02141*
Y02134*
X00994Y02131*
X00985*
X00991D02*
X00998Y02125D01*
X01017Y02144D02*
X01004D01*
Y02134*
X01011Y02138*
X01014*
X01017Y02134*
Y02128*
X01014Y02125*
X01007*
X01004Y02128*
X01037Y02144D02*
X0103Y02141D01*
X01024Y02134*
Y02128*
X01027Y02125*
X01034*
X01037Y02128*
Y02131*
X01034Y02134*
X01024*
X01585Y02145D02*
Y02156D01*
X0159*
X01592Y02154*
Y0215*
X0159Y02148*
X01585*
X01588D02*
X01592Y02145D01*
X01604Y02156D02*
X01596D01*
Y0215*
X016Y02152*
X01602*
X01604Y0215*
Y02146*
X01602Y02145*
X01598*
X01596Y02146*
X01616Y02156D02*
X01608D01*
Y0215*
X01612Y02152*
X01614*
X01616Y0215*
Y02146*
X01614Y02145*
X0161*
X01608Y02146*
X0036Y01805D02*
Y01824D01*
X00369*
X00373Y01821*
Y01814*
X00369Y01811*
X0036*
X00366D02*
X00373Y01805D01*
X00379Y01821D02*
X00382Y01824D01*
X00389*
X00392Y01821*
Y01818*
X00389Y01814*
X00386*
X00389*
X00392Y01811*
Y01808*
X00389Y01805*
X00382*
X00379Y01808*
X00399Y01824D02*
X00412D01*
Y01821*
X00399Y01808*
Y01805*
X01465Y009D02*
Y00919D01*
X01474*
X01478Y00916*
Y00909*
X01474Y00906*
X01465*
X01471D02*
X01478Y009D01*
X01484Y00916D02*
X01487Y00919D01*
X01494*
X01497Y00916*
Y00913*
X01494Y00909*
X01491*
X01494*
X01497Y00906*
Y00903*
X01494Y009*
X01487*
X01484Y00903*
X01517Y00919D02*
X0151Y00916D01*
X01504Y00909*
Y00903*
X01507Y009*
X01514*
X01517Y00903*
Y00906*
X01514Y00909*
X01504*
X01835Y00875D02*
X01854D01*
Y00865*
X01851Y00861*
X01844*
X01841Y00865*
Y00875*
Y00868D02*
X01835Y00861D01*
X01851Y00855D02*
X01854Y00852D01*
Y00845*
X01851Y00842*
X01848*
X01844Y00845*
Y00848*
Y00845*
X01841Y00842*
X01838*
X01835Y00845*
Y00852*
X01838Y00855*
X01835Y00825D02*
X01854D01*
X01844Y00835*
Y00822*
X00295Y01865D02*
Y01884D01*
X00304*
X00308Y01881*
Y01874*
X00304Y01871*
X00295*
X00301D02*
X00308Y01865D01*
X00314Y01881D02*
X00317Y01884D01*
X00324*
X00327Y01881*
Y01878*
X00324Y01874*
X00321*
X00324*
X00327Y01871*
Y01868*
X00324Y01865*
X00317*
X00314Y01868*
X00347Y01865D02*
X00334D01*
X00347Y01878*
Y01881*
X00344Y01884*
X00337*
X00334Y01881*
X00315Y00485D02*
Y00504D01*
X00324*
X00328Y00501*
Y00494*
X00324Y00491*
X00315*
X00321D02*
X00328Y00485D01*
X00334Y00501D02*
X00337Y00504D01*
X00344*
X00347Y00501*
Y00498*
X00344Y00494*
X00341*
X00344*
X00347Y00491*
Y00488*
X00344Y00485*
X00337*
X00334Y00488*
X00354Y00485D02*
X0036D01*
X00357*
Y00504*
X00354Y00501*
X00205Y00205D02*
Y00224D01*
X00214*
X00218Y00221*
Y00214*
X00214Y00211*
X00205*
X00211D02*
X00218Y00205D01*
X00224Y00221D02*
X00227Y00224D01*
X00234*
X00237Y00221*
Y00218*
X00234Y00214*
X00231*
X00234*
X00237Y00211*
Y00208*
X00234Y00205*
X00227*
X00224Y00208*
X00244Y00221D02*
X00247Y00224D01*
X00254*
X00257Y00221*
Y00208*
X00254Y00205*
X00247*
X00244Y00208*
Y00221*
X00675Y01405D02*
Y01385D01*
X00665*
X00661Y01388*
Y01395*
X00665Y01398*
X00675*
X00668D02*
X00661Y01405D01*
X00642D02*
X00655D01*
X00642Y01391*
Y01388*
X00645Y01385*
X00652*
X00655Y01388*
X00635Y01401D02*
X00632Y01405D01*
X00625*
X00622Y01401*
Y01388*
X00625Y01385*
X00632*
X00635Y01388*
Y01391*
X00632Y01395*
X00622*
X00775Y0151D02*
X00794D01*
Y015*
X00791Y01496*
X00784*
X00781Y015*
Y0151*
Y01503D02*
X00775Y01496D01*
Y01477D02*
Y0149D01*
X00788Y01477*
X00791*
X00794Y0148*
Y01487*
X00791Y0149*
Y0147D02*
X00794Y01467D01*
Y0146*
X00791Y01457*
X00788*
X00784Y0146*
X00781Y01457*
X00778*
X00775Y0146*
Y01467*
X00778Y0147*
X00781*
X00784Y01467*
X00788Y0147*
X00791*
X00784Y01467D02*
Y0146D01*
X00235Y02035D02*
Y02054D01*
X00244*
X00248Y02051*
Y02044*
X00244Y02041*
X00235*
X00241D02*
X00248Y02035D01*
X00267D02*
X00254D01*
X00267Y02048*
Y02051*
X00264Y02054*
X00257*
X00254Y02051*
X00274Y02054D02*
X00287D01*
Y02051*
X00274Y02038*
Y02035*
X01725Y00895D02*
Y00906D01*
X0173*
X01732Y00904*
Y009*
X0173Y00898*
X01725*
X01728D02*
X01732Y00895D01*
X01744D02*
X01736D01*
X01744Y00902*
Y00904*
X01742Y00906*
X01738*
X01736Y00904*
X01756Y00906D02*
X01752Y00904D01*
X01748Y009*
Y00896*
X0175Y00895*
X01754*
X01756Y00896*
Y00898*
X01754Y009*
X01748*
X0153Y009D02*
Y00919D01*
X01539*
X01543Y00916*
Y00909*
X01539Y00906*
X0153*
X01536D02*
X01543Y009D01*
X01562D02*
X01549D01*
X01562Y00913*
Y00916*
X01559Y00919*
X01552*
X01549Y00916*
X01582Y00919D02*
X01569D01*
Y00909*
X01575Y00913*
X01579*
X01582Y00909*
Y00903*
X01579Y009*
X01572*
X01569Y00903*
X00275Y00605D02*
Y00624D01*
X00284*
X00288Y00621*
Y00614*
X00284Y00611*
X00275*
X00281D02*
X00288Y00605D01*
X00307D02*
X00294D01*
X00307Y00618*
Y00621*
X00304Y00624*
X00297*
X00294Y00621*
X00324Y00605D02*
Y00624D01*
X00314Y00614*
X00327*
X0028Y0075D02*
Y00769D01*
X00289*
X00293Y00766*
Y00759*
X00289Y00756*
X0028*
X00286D02*
X00293Y0075D01*
X00312D02*
X00299D01*
X00312Y00763*
Y00766*
X00309Y00769*
X00302*
X00299Y00766*
X00319D02*
X00322Y00769D01*
X00329*
X00332Y00766*
Y00763*
X00329Y00759*
X00325*
X00329*
X00332Y00756*
Y00753*
X00329Y0075*
X00322*
X00319Y00753*
X0169Y0097D02*
X0167D01*
Y00979*
X01673Y00983*
X0168*
X01683Y00979*
Y0097*
Y00976D02*
X0169Y00983D01*
Y01002D02*
Y00989D01*
X01676Y01002*
X01673*
X0167Y00999*
Y00992*
X01673Y00989*
X0169Y01009D02*
Y01015D01*
Y01012*
X0167*
X01673Y01009*
X0028Y0103D02*
X00299D01*
Y0102*
X00296Y01016*
X00289*
X00286Y0102*
Y0103*
Y01023D02*
X0028Y01016D01*
Y0101D02*
Y01003D01*
Y01007*
X00299*
X00296Y0101*
X00283Y00993D02*
X0028Y0099D01*
Y00984*
X00283Y0098*
X00296*
X00299Y00984*
Y0099*
X00296Y00993*
X00293*
X00289Y0099*
Y0098*
X00295Y0117D02*
X00314D01*
Y0116*
X00311Y01156*
X00304*
X00301Y0116*
Y0117*
Y01163D02*
X00295Y01156D01*
Y0115D02*
Y01143D01*
Y01147*
X00314*
X00311Y0115*
Y01133D02*
X00314Y0113D01*
Y01124*
X00311Y0112*
X00308*
X00304Y01124*
X00301Y0112*
X00298*
X00295Y01124*
Y0113*
X00298Y01133*
X00301*
X00304Y0113*
X00308Y01133*
X00311*
X00304Y0113D02*
Y01124D01*
X01835Y01085D02*
X01854D01*
Y01075*
X01851Y01071*
X01844*
X01841Y01075*
Y01085*
Y01078D02*
X01835Y01071D01*
Y01065D02*
Y01058D01*
Y01062*
X01854*
X01851Y01065*
X01854Y01048D02*
Y01035D01*
X01851*
X01838Y01048*
X01835*
X0029Y014D02*
Y01419D01*
X00299*
X00303Y01416*
Y01409*
X00299Y01406*
X0029*
X00296D02*
X00303Y014D01*
X00309D02*
X00316D01*
X00312*
Y01419*
X00309Y01416*
X00339Y01419D02*
X00332Y01416D01*
X00326Y01409*
Y01403*
X00329Y014*
X00335*
X00339Y01403*
Y01406*
X00335Y01409*
X00326*
X00225Y01615D02*
Y01634D01*
X00234*
X00238Y01631*
Y01624*
X00234Y01621*
X00225*
X00231D02*
X00238Y01615D01*
X00244D02*
X00251D01*
X00247*
Y01634*
X00244Y01631*
X00274Y01634D02*
X00261D01*
Y01624*
X00267Y01628*
X0027*
X00274Y01624*
Y01618*
X0027Y01615*
X00264*
X00261Y01618*
X0029Y0175D02*
Y0173D01*
X0028*
X00276Y01733*
Y0174*
X0028Y01743*
X0029*
X00283D02*
X00276Y0175D01*
X0027D02*
X00263D01*
X00267*
Y0173*
X0027Y01733*
X00244Y0175D02*
Y0173D01*
X00253Y0174*
X0024*
X00215Y0201D02*
Y02029D01*
X00224*
X00228Y02026*
Y02019*
X00224Y02016*
X00215*
X00221D02*
X00228Y0201D01*
X00234D02*
X00241D01*
X00237*
Y02029*
X00234Y02026*
X00251D02*
X00254Y02029D01*
X0026*
X00264Y02026*
Y02023*
X0026Y02019*
X00257*
X0026*
X00264Y02016*
Y02013*
X0026Y0201*
X00254*
X00251Y02013*
X0027Y0215D02*
Y0213D01*
X0026*
X00256Y02133*
Y0214*
X0026Y02143*
X0027*
X00263D02*
X00256Y0215D01*
X0025D02*
X00243D01*
X00247*
Y0213*
X0025Y02133*
X0022Y0215D02*
X00233D01*
X0022Y02136*
Y02133*
X00224Y0213*
X0023*
X00233Y02133*
X00225Y02415D02*
Y02435D01*
X00234*
X00238Y02432*
Y02425*
X00234Y02422*
X00225*
X00231D02*
X00238Y02415D01*
X00244D02*
X00251D01*
X00247*
Y02435*
X00244Y02432*
X00261Y02415D02*
X00267D01*
X00264*
Y02435*
X00261Y02432*
X01035Y0071D02*
Y00729D01*
X01044*
X01048Y00726*
Y00719*
X01044Y00716*
X01035*
X01041D02*
X01048Y0071D01*
X01054D02*
X01061D01*
X01057*
Y00729*
X01054Y00726*
X01071D02*
X01074Y00729D01*
X0108*
X01084Y00726*
Y00713*
X0108Y0071*
X01074*
X01071Y00713*
Y00726*
X00975Y00712D02*
Y00731D01*
X00984*
X00988Y00728*
Y00721*
X00984Y00718*
X00975*
X00981D02*
X00988Y00712D01*
X00994Y00715D02*
X00997Y00712D01*
X01004*
X01007Y00715*
Y00728*
X01004Y00731*
X00997*
X00994Y00728*
Y00725*
X00997Y00721*
X01007*
X00855Y0071D02*
Y00729D01*
X00864*
X00868Y00726*
Y00719*
X00864Y00716*
X00855*
X00861D02*
X00868Y0071D01*
X00874Y00726D02*
X00877Y00729D01*
X00884*
X00887Y00726*
Y00723*
X00884Y00719*
X00887Y00716*
Y00713*
X00884Y0071*
X00877*
X00874Y00713*
Y00716*
X00877Y00719*
X00874Y00723*
Y00726*
X00877Y00719D02*
X00884D01*
X00784Y00655D02*
X00764D01*
Y00664*
X00767Y00668*
X00774*
X00777Y00664*
Y00655*
Y00661D02*
X00784Y00668D01*
X00764Y00674D02*
Y00687D01*
X00767*
X00781Y00674*
X00784*
X00925Y01545D02*
Y01564D01*
X00934*
X00938Y01561*
Y01554*
X00934Y01551*
X00925*
X00931D02*
X00938Y01545D01*
X00957Y01564D02*
X00951Y01561D01*
X00944Y01554*
Y01548*
X00947Y01545*
X00954*
X00957Y01548*
Y01551*
X00954Y01554*
X00944*
X00635Y0096D02*
Y00979D01*
X00644*
X00648Y00976*
Y00969*
X00644Y00966*
X00635*
X00641D02*
X00648Y0096D01*
X00667Y00979D02*
X00654D01*
Y00969*
X00661Y00973*
X00664*
X00667Y00969*
Y00963*
X00664Y0096*
X00657*
X00654Y00963*
X0067Y00545D02*
Y00564D01*
X00679*
X00683Y00561*
Y00554*
X00679Y00551*
X0067*
X00676D02*
X00683Y00545D01*
X00699D02*
Y00564D01*
X00689Y00554*
X00702*
X009Y00545D02*
Y00565D01*
X00909*
X00913Y00562*
Y00555*
X00909Y00552*
X009*
X00906D02*
X00913Y00545D01*
X00919Y00562D02*
X00922Y00565D01*
X00929*
X00932Y00562*
Y00558*
X00929Y00555*
X00926*
X00929*
X00932Y00552*
Y00548*
X00929Y00545*
X00922*
X00919Y00548*
X0099Y0169D02*
Y01709D01*
X00999*
X01003Y01706*
Y01699*
X00999Y01696*
X0099*
X00996D02*
X01003Y0169D01*
X01022D02*
X01009D01*
X01022Y01703*
Y01706*
X01019Y01709*
X01012*
X01009Y01706*
X01175Y0182D02*
Y01839D01*
X01184*
X01188Y01836*
Y01829*
X01184Y01826*
X01175*
X01181D02*
X01188Y0182D01*
X01194D02*
X01201D01*
X01197*
Y01839*
X01194Y01836*
X01738Y02863D02*
Y02876D01*
X01734Y02879*
X01728*
X01725Y02876*
Y02863*
X01728Y0286*
X01734*
X01731Y02866D02*
X01738Y0286D01*
X01734D02*
X01738Y02863D01*
X01757Y02879D02*
X01744D01*
Y02869*
X01751Y02873*
X01754*
X01757Y02869*
Y02863*
X01754Y0286*
X01747*
X01744Y02863*
X01198Y02833D02*
Y02846D01*
X01194Y02849*
X01188*
X01185Y02846*
Y02833*
X01188Y0283*
X01194*
X01191Y02836D02*
X01198Y0283D01*
X01194D02*
X01198Y02833D01*
X01204Y02846D02*
X01207Y02849D01*
X01214*
X01217Y02846*
Y02843*
X01214Y02839*
X01211*
X01214*
X01217Y02836*
Y02833*
X01214Y0283*
X01207*
X01204Y02833*
X00691Y02872D02*
Y02885D01*
X00687Y02888*
X00681*
X00678Y02885*
Y02872*
X00681Y02869*
X00687*
X00684Y02875D02*
X00691Y02869D01*
X00687D02*
X00691Y02872D01*
X00697Y02869D02*
X00704D01*
X007*
Y02888*
X00697Y02885*
X00605Y00756D02*
Y00737D01*
X00618*
X00637Y00756D02*
X00624D01*
Y00737*
X00637*
X00624Y00746D02*
X00631D01*
X00644Y00756D02*
Y00737D01*
X00654*
X00657Y0074*
Y00753*
X00654Y00756*
X00644*
X00677D02*
X0067Y00753D01*
X00664Y00746*
Y0074*
X00667Y00737*
X00673*
X00677Y0074*
Y00743*
X00673Y00746*
X00664*
X0058Y01709D02*
Y0169D01*
X00593*
X00612Y01709D02*
X00599D01*
Y0169*
X00612*
X00599Y01699D02*
X00606D01*
X00619Y01709D02*
Y0169D01*
X00629*
X00632Y01693*
Y01706*
X00629Y01709*
X00619*
X00652Y0169D02*
X00639D01*
X00652Y01703*
Y01706*
X00648Y01709*
X00642*
X00639Y01706*
X00809Y0168D02*
X0079D01*
Y01666*
X00809Y01647D02*
Y0166D01*
X0079*
Y01647*
X00799Y0166D02*
Y01653D01*
X00809Y0164D02*
X0079D01*
Y0163*
X00793Y01627*
X00806*
X00809Y0163*
Y0164*
X0079Y0162D02*
Y01614D01*
Y01617*
X00809*
X00806Y0162*
X00625Y00849D02*
Y0083D01*
X00638*
X00657D02*
X00644D01*
X00657Y00843*
Y00846*
X00654Y00849*
X00647*
X00644Y00846*
X00475Y00991D02*
Y00972D01*
X00488*
X00494D02*
X00501D01*
X00497*
Y00991*
X00494Y00988*
X01705Y00579D02*
X01711D01*
X01708*
Y0056*
X01705*
X01711*
X01721D02*
Y00579D01*
X01727Y00573*
X01734Y00579*
Y0056*
X01741Y00579D02*
Y00563D01*
X01744Y0056*
X0175*
X01754Y00563*
Y00579*
X0176Y00556D02*
X01773D01*
X01793Y00576D02*
X0179Y00579D01*
X01783*
X0178Y00576*
Y00563*
X01783Y0056*
X0179*
X01793Y00563*
X01803Y0056D02*
X01809D01*
X01813Y00563*
Y00569*
X01809Y00573*
X01803*
X018Y00569*
Y00563*
X01803Y0056*
X01819D02*
Y00573D01*
X01829*
X01832Y00569*
Y0056*
X00503Y00043D02*
X005Y00039D01*
Y00033*
X00503Y0003*
X00516*
X0052Y00033*
Y00039*
X00516Y00043*
X0051*
Y00036*
X0052Y00049D02*
X005D01*
Y00059*
X00503Y00062*
X0051*
X00513Y00059*
Y00049*
X00503Y00082D02*
X005Y00079D01*
Y00072*
X00503Y00069*
X00506*
X0051Y00072*
Y00079*
X00513Y00082*
X00516*
X0052Y00079*
Y00072*
X00516Y00069*
X00523Y00089D02*
Y00102D01*
X00503Y00121D02*
X005Y00118D01*
Y00111*
X00503Y00108*
X00516*
X0052Y00111*
Y00118*
X00516Y00121*
X0052Y00131D02*
Y00138D01*
X00516Y00141*
X0051*
X00506Y00138*
Y00131*
X0051Y00128*
X00516*
X0052Y00131*
Y00148D02*
X00506D01*
Y00157*
X0051Y00161*
X0052*
X0026Y0005D02*
X00276D01*
X0028Y00053*
Y00059*
X00276Y00063*
X0026*
X00263Y00082D02*
X0026Y00079D01*
Y00072*
X00263Y00069*
X00266*
X0027Y00072*
Y00079*
X00273Y00082*
X00276*
X0028Y00079*
Y00072*
X00276Y00069*
X0026Y00089D02*
X0028D01*
Y00099*
X00276Y00102*
X00273*
X0027Y00099*
Y00089*
Y00099*
X00266Y00102*
X00263*
X0026Y00099*
Y00089*
X0028Y00109D02*
Y00115D01*
Y00112*
X0026*
X00263Y00109*
X0026Y02594D02*
Y02575D01*
Y02584*
X00273*
Y02594*
Y02575*
X00282Y02588D02*
X00289D01*
X00292Y02584*
Y02575*
X00282*
X00279Y02578*
X00282Y02581*
X00292*
X00299Y02575D02*
X00305D01*
X00302*
Y02594*
X00299*
X00315Y02575D02*
X00322D01*
X00319*
Y02594*
X00315*
X00364Y02591D02*
X00361Y02594D01*
X00355*
X00351Y02591*
Y02588*
X00355Y02584*
X00361*
X00364Y02581*
Y02578*
X00361Y02575*
X00355*
X00351Y02578*
X00381Y02575D02*
X00374D01*
X00371Y02578*
Y02584*
X00374Y02588*
X00381*
X00384Y02584*
Y02581*
X00371*
X00391Y02575D02*
Y02588D01*
X00401*
X00404Y02584*
Y02575*
X0041D02*
X0042D01*
X00423Y02578*
X0042Y02581*
X00414*
X0041Y02584*
X00414Y02588*
X00423*
X0043Y02575D02*
X00437D01*
X00433*
Y02594*
X0043Y02591*
X02129Y01999D02*
X02123D01*
X0212Y01996*
Y01983*
X02123Y0198*
X02129*
X02133Y01983*
Y01996*
X02129Y01999*
X02152Y01993D02*
X02142D01*
X02139Y01989*
Y01983*
X02142Y0198*
X02152*
X02159D02*
X02165D01*
X02162*
Y01999*
X02159Y01996*
X00145Y00145D02*
Y00164D01*
X00154*
X00158Y00161*
Y00154*
X00154Y00151*
X00145*
X00167Y00145D02*
X00174D01*
X00177Y00148*
Y00154*
X00174Y00158*
X00167*
X00164Y00154*
Y00148*
X00167Y00145*
X00187Y00161D02*
Y00158D01*
X00184*
X0019*
X00187*
Y00148*
X0019Y00145*
X00213Y00164D02*
X00207Y00161D01*
X002Y00154*
Y00148*
X00204Y00145*
X0021*
X00213Y00148*
Y00151*
X0021Y00154*
X002*
X01213Y00341D02*
X01209Y00344D01*
X01203*
X012Y00341*
Y00338*
X01203Y00334*
X01209*
X01213Y00331*
Y00328*
X01209Y00325*
X01203*
X012Y00328*
X01229Y00325D02*
X01222D01*
X01219Y00328*
Y00334*
X01222Y00338*
X01229*
X01232Y00334*
Y00331*
X01219*
X01239Y00338D02*
Y00325D01*
Y00331*
X01242Y00334*
X01245Y00338*
X01249*
X01259D02*
X01265Y00325D01*
X01272Y00338*
X01291Y00325D02*
X01278D01*
X01291Y00338*
Y00341*
X01288Y00344*
X01281*
X01278Y00341*
X00145Y0055D02*
Y00569D01*
X00154*
X00158Y00566*
Y00559*
X00154Y00556*
X00145*
X00167Y0055D02*
X00174D01*
X00177Y00553*
Y00559*
X00174Y00563*
X00167*
X00164Y00559*
Y00553*
X00167Y0055*
X00187Y00566D02*
Y00563D01*
X00184*
X0019*
X00187*
Y00553*
X0019Y0055*
X00213Y00569D02*
X002D01*
Y00559*
X00207Y00563*
X0021*
X00213Y00559*
Y00553*
X0021Y0055*
X00204*
X002Y00553*
X021Y00863D02*
Y0085D01*
X0212*
Y00863*
X0211Y0085D02*
Y00856D01*
X0212Y00869D02*
X02106D01*
Y00879*
X0211Y00882*
X0212*
X02106Y00902D02*
Y00892D01*
X0211Y00889*
X02116*
X0212Y00892*
Y00902*
Y00918D02*
X021D01*
X0211Y00909*
Y00922*
X00138Y00956D02*
Y00975D01*
X00148*
X00151Y00972*
Y00966*
X00148Y00962*
X00138*
X00161Y00956D02*
X00168D01*
X00171Y00959*
Y00966*
X00168Y00969*
X00161*
X00158Y00966*
Y00959*
X00161Y00956*
X00181Y00972D02*
Y00969D01*
X00178*
X00184*
X00181*
Y00959*
X00184Y00956*
X00204D02*
Y00975D01*
X00194Y00966*
X00207*
X00145Y01375D02*
Y01394D01*
X00154*
X00158Y01391*
Y01384*
X00154Y01381*
X00145*
X00167Y01375D02*
X00174D01*
X00177Y01378*
Y01384*
X00174Y01388*
X00167*
X00164Y01384*
Y01378*
X00167Y01375*
X00187Y01391D02*
Y01388D01*
X00184*
X0019*
X00187*
Y01378*
X0019Y01375*
X002Y01391D02*
X00204Y01394D01*
X0021*
X00213Y01391*
Y01388*
X0021Y01384*
X00207*
X0021*
X00213Y01381*
Y01378*
X0021Y01375*
X00204*
X002Y01378*
X00145Y0178D02*
Y01799D01*
X00154*
X00158Y01796*
Y01789*
X00154Y01786*
X00145*
X00167Y0178D02*
X00174D01*
X00177Y01783*
Y01789*
X00174Y01793*
X00167*
X00164Y01789*
Y01783*
X00167Y0178*
X00187Y01796D02*
Y01793D01*
X00184*
X0019*
X00187*
Y01783*
X0019Y0178*
X00213D02*
X002D01*
X00213Y01793*
Y01796*
X0021Y01799*
X00204*
X002Y01796*
X0015Y02185D02*
Y02204D01*
X00159*
X00163Y02201*
Y02194*
X00159Y02191*
X0015*
X00172Y02185D02*
X00179D01*
X00182Y02188*
Y02194*
X00179Y02198*
X00172*
X00169Y02194*
Y02188*
X00172Y02185*
X00192Y02201D02*
Y02198D01*
X00189*
X00195*
X00192*
Y02188*
X00195Y02185*
X00205D02*
X00212D01*
X00209*
Y02204*
X00205Y02201*
X01691Y00081D02*
X01694Y00085D01*
Y00091*
X01691Y00095*
X01688*
X01684Y00091*
Y00085*
X01681Y00081*
X01678*
X01675Y00085*
Y00091*
X01678Y00095*
X01675Y00065D02*
Y00072D01*
X01678Y00075*
X01684*
X01688Y00072*
Y00065*
X01684Y00062*
X01681*
Y00075*
X01688Y00055D02*
X01675D01*
X01681*
X01684Y00052*
X01688Y00049*
Y00045*
Y00035D02*
X01675Y00029D01*
X01688Y00022*
X01675Y00016D02*
Y00009D01*
Y00013*
X01694*
X01691Y00016*
X01853Y01954D02*
X01846D01*
X01849*
Y01938*
X01846Y01935*
X01843*
X0184Y01938*
X01859Y01954D02*
X01872D01*
X01866*
Y01935*
X01879D02*
Y01948D01*
X01885Y01954*
X01892Y01948*
Y01935*
Y01944*
X01879*
X01912Y01951D02*
X01908Y01954D01*
X01902*
X01899Y01951*
Y01938*
X01902Y01935*
X01908*
X01912Y01938*
Y01944*
X01905*
X01063Y00564D02*
X0105D01*
Y00545*
X01063*
X0105Y00554D02*
X01056D01*
X01069Y00545D02*
Y00558D01*
X01079*
X01082Y00554*
Y00545*
X01102Y00558D02*
X01092D01*
X01089Y00554*
Y00548*
X01092Y00545*
X01102*
X01109D02*
X01115D01*
X01112*
Y00564*
X01109Y00561*
X00645Y01998D02*
Y01985D01*
X00665*
Y01998*
X00655Y01985D02*
Y01991D01*
X00665Y02004D02*
X00651D01*
Y02014*
X00655Y02017*
X00665*
X00651Y02037D02*
Y02027D01*
X00655Y02024*
X00661*
X00665Y02027*
Y02037*
X00648Y02044D02*
X00645Y02047D01*
Y02053*
X00648Y02057*
X00651*
X00655Y02053*
Y0205*
Y02053*
X00658Y02057*
X00661*
X00665Y02053*
Y02047*
X00661Y02044*
X0293Y02285D02*
Y02305D01*
X0292*
X02916Y02301*
Y02288*
X0292Y02285*
X0293*
X0291Y02305D02*
X02903D01*
X02907*
Y02285*
X0291Y02288*
X00908Y02058D02*
X00905Y02054D01*
Y02048*
X00908Y02045*
X00921*
X00925Y02048*
Y02054*
X00921Y02058*
X00905Y02077D02*
Y02064D01*
X00915*
X00911Y02071*
Y02074*
X00915Y02077*
X00921*
X00925Y02074*
Y02067*
X00921Y02064*
X00905Y02097D02*
X00908Y0209D01*
X00915Y02084*
X00921*
X00925Y02087*
Y02094*
X00921Y02097*
X00918*
X00915Y02094*
Y02084*
X01184Y01951D02*
X01187Y01948D01*
X01194*
X01197Y01951*
Y01964*
X01194Y01968*
X01187*
X01184Y01964*
X01164Y01948D02*
X01177D01*
Y01958*
X01171Y01954*
X01167*
X01164Y01958*
Y01964*
X01167Y01968*
X01174*
X01177Y01964*
X01157Y01951D02*
X01154Y01948D01*
X01148*
X01144Y01951*
Y01954*
X01148Y01958*
X01151*
X01148*
X01144Y01961*
Y01964*
X01148Y01968*
X01154*
X01157Y01964*
X0134Y01976D02*
X01344Y01973D01*
X0135*
X01354Y01976*
Y01989*
X0135Y01993*
X01344*
X0134Y01989*
X01321Y01973D02*
X01334D01*
Y01983*
X01327Y01979*
X01324*
X01321Y01983*
Y01989*
X01324Y01993*
X01331*
X01334Y01989*
X01301Y01993D02*
X01314D01*
X01301Y01979*
Y01976*
X01304Y01973*
X01311*
X01314Y01976*
X01488Y01946D02*
X01484Y01949D01*
X01478*
X01475Y01946*
Y01933*
X01478Y0193*
X01484*
X01488Y01933*
X01507Y01949D02*
X01494D01*
Y01939*
X01501Y01943*
X01504*
X01507Y01939*
Y01933*
X01504Y0193*
X01497*
X01494Y01933*
X01514Y0193D02*
X0152D01*
X01517*
Y01949*
X01514Y01946*
X01636Y01943D02*
X0164Y0194D01*
X01646*
X0165Y01943*
Y01956*
X01646Y0196*
X0164*
X01636Y01956*
X0162Y0196D02*
Y0194D01*
X0163Y0195*
X01617*
X016Y0196D02*
Y0194D01*
X0161Y0195*
X01597*
X01791Y02086D02*
X01794Y0209D01*
Y02096*
X01791Y021*
X01778*
X01775Y02096*
Y0209*
X01778Y02086*
X01775Y0207D02*
X01794D01*
X01784Y0208*
Y02067*
X01791Y0206D02*
X01794Y02057D01*
Y0205*
X01791Y02047*
X01788*
X01784Y0205*
Y02054*
Y0205*
X01781Y02047*
X01778*
X01775Y0205*
Y02057*
X01778Y0206*
X02338Y01893D02*
X02335Y01889D01*
Y01883*
X02338Y0188*
X02351*
X02355Y01883*
Y01889*
X02351Y01893*
X02355Y01909D02*
X02335D01*
X02345Y01899*
Y01912*
X02338Y01919D02*
X02335Y01922D01*
Y01929*
X02338Y01932*
X02351*
X02355Y01929*
Y01922*
X02351Y01919*
X02338*
X02595Y00833D02*
X02598Y0083D01*
X02604*
X02608Y00833*
Y00846*
X02604Y0085*
X02598*
X02595Y00846*
X02588Y00833D02*
X02585Y0083D01*
X02578*
X02575Y00833*
Y00836*
X02578Y0084*
X02581*
X02578*
X02575Y00843*
Y00846*
X02578Y0085*
X02585*
X02588Y00846*
X02568Y0085D02*
X02562D01*
X02565*
Y0083*
X02568Y00833*
X0252Y00358D02*
X02523Y00355D01*
X02529*
X02533Y00358*
Y00371*
X02529Y00375*
X02523*
X0252Y00371*
X025Y00375D02*
X02513D01*
X025Y00361*
Y00358*
X02503Y00355*
X0251*
X02513Y00358*
X02493D02*
X0249Y00355D01*
X02483*
X0248Y00358*
Y00361*
X02483Y00365*
X0248Y00368*
Y00371*
X02483Y00375*
X0249*
X02493Y00371*
Y00368*
X0249Y00365*
X02493Y00361*
Y00358*
X0249Y00365D02*
X02483D01*
X01353Y00646D02*
X01349Y00649D01*
X01343*
X0134Y00646*
Y00633*
X01343Y0063*
X01349*
X01353Y00633*
X01372Y0063D02*
X01359D01*
X01372Y00643*
Y00646*
X01369Y00649*
X01362*
X01359Y00646*
X01392Y0063D02*
X01379D01*
X01392Y00643*
Y00646*
X01389Y00649*
X01382*
X01379Y00646*
X01063Y01921D02*
X01059Y01924D01*
X01053*
X0105Y01921*
Y01908*
X01053Y01905*
X01059*
X01063Y01908*
X01082Y01905D02*
X01069D01*
X01082Y01918*
Y01921*
X01079Y01924*
X01072*
X01069Y01921*
X01089Y01905D02*
X01095D01*
X01092*
Y01924*
X01089Y01921*
X00308Y01321D02*
X00304Y01324D01*
X00298*
X00295Y01321*
Y01308*
X00298Y01305*
X00304*
X00308Y01308*
X00327Y01305D02*
X00314D01*
X00327Y01318*
Y01321*
X00324Y01324*
X00317*
X00314Y01321*
X00334D02*
X00337Y01324D01*
X00344*
X00347Y01321*
Y01308*
X00344Y01305*
X00337*
X00334Y01308*
Y01321*
X01998Y00103D02*
X01995Y00099D01*
Y00093*
X01998Y0009*
X02011*
X02015Y00093*
Y00099*
X02011Y00103*
X02015Y00109D02*
Y00116D01*
Y00112*
X01995*
X01998Y00109*
X02011Y00126D02*
X02015Y00129D01*
Y00135*
X02011Y00139*
X01998*
X01995Y00135*
Y00129*
X01998Y00126*
X02001*
X02005Y00129*
Y00139*
X00501Y01976D02*
X00504Y0198D01*
Y01986*
X00501Y0199*
X00488*
X00485Y01986*
Y0198*
X00488Y01976*
X00485Y0197D02*
Y01963D01*
Y01967*
X00504*
X00501Y0197*
X00504Y01953D02*
Y0194D01*
X00501*
X00488Y01953*
X00485*
X01603Y00916D02*
X01599Y00919D01*
X01593*
X0159Y00916*
Y00903*
X01593Y009*
X01599*
X01603Y00903*
X01609Y009D02*
X01616D01*
X01612*
Y00919*
X01609Y00916*
X01639Y00919D02*
X01632Y00916D01*
X01626Y00909*
Y00903*
X01629Y009*
X01635*
X01639Y00903*
Y00906*
X01635Y00909*
X01626*
X01658Y00916D02*
X01654Y00919D01*
X01648*
X01645Y00916*
Y00903*
X01648Y009*
X01654*
X01658Y00903*
X01664Y009D02*
X01671D01*
X01667*
Y00919*
X01664Y00916*
X01694Y00919D02*
X01681D01*
Y00909*
X01687Y00913*
X0169*
X01694Y00909*
Y00903*
X0169Y009*
X01684*
X01681Y00903*
X01846Y00961D02*
X01849Y00965D01*
Y00971*
X01846Y00975*
X01833*
X0183Y00971*
Y00965*
X01833Y00961*
X0183Y00955D02*
Y00948D01*
Y00952*
X01849*
X01846Y00955*
X0183Y00929D02*
X01849D01*
X01839Y00938*
Y00925*
X00448Y01548D02*
X00445Y01544D01*
Y01538*
X00448Y01535*
X00461*
X00465Y01538*
Y01544*
X00461Y01548*
X00465Y01554D02*
Y01561D01*
Y01557*
X00445*
X00448Y01554*
Y01571D02*
X00445Y01574D01*
Y0158*
X00448Y01584*
X00451*
X00455Y0158*
Y01577*
Y0158*
X00458Y01584*
X00461*
X00465Y0158*
Y01574*
X00461Y01571*
X00563Y01636D02*
X00559Y01639D01*
X00553*
X0055Y01636*
Y01623*
X00553Y0162*
X00559*
X00563Y01623*
X00569Y0162D02*
X00576D01*
X00572*
Y01639*
X00569Y01636*
X00599Y0162D02*
X00586D01*
X00599Y01633*
Y01636*
X00595Y01639*
X00589*
X00586Y01636*
X01176Y00686D02*
X01179Y0069D01*
Y00696*
X01176Y007*
X01163*
X0116Y00696*
Y0069*
X01163Y00686*
X0116Y0068D02*
Y00673D01*
Y00677*
X01179*
X01176Y0068*
X0116Y00663D02*
Y00657D01*
Y0066*
X01179*
X01176Y00663*
X01223Y00731D02*
X01219Y00734D01*
X01213*
X0121Y00731*
Y00718*
X01213Y00715*
X01219*
X01223Y00718*
X01229Y00715D02*
X01236D01*
X01232*
Y00734*
X01229Y00731*
X01246D02*
X01249Y00734D01*
X01255*
X01259Y00731*
Y00718*
X01255Y00715*
X01249*
X01246Y00718*
Y00731*
X01948Y01226D02*
X01944Y01229D01*
X01938*
X01935Y01226*
Y01213*
X01938Y0121*
X01944*
X01948Y01213*
X01954D02*
X01957Y0121D01*
X01964*
X01967Y01213*
Y01226*
X01964Y01229*
X01957*
X01954Y01226*
Y01223*
X01957Y01219*
X01967*
X00373Y00801D02*
X00369Y00804D01*
X00363*
X0036Y00801*
Y00788*
X00363Y00785*
X00369*
X00373Y00788*
X00379Y00801D02*
X00382Y00804D01*
X00389*
X00392Y00801*
Y00798*
X00389Y00794*
X00392Y00791*
Y00788*
X00389Y00785*
X00382*
X00379Y00788*
Y00791*
X00382Y00794*
X00379Y00798*
Y00801*
X00382Y00794D02*
X00389D01*
X00928Y00736D02*
X00924Y00739D01*
X00918*
X00915Y00736*
Y00723*
X00918Y0072*
X00924*
X00928Y00723*
X00934Y00739D02*
X00947D01*
Y00736*
X00934Y00723*
Y0072*
X01623Y01576D02*
X01619Y01579D01*
X01613*
X0161Y01576*
Y01563*
X01613Y0156*
X01619*
X01623Y01563*
X01642Y01579D02*
X01636Y01576D01*
X01629Y01569*
Y01563*
X01632Y0156*
X01639*
X01642Y01563*
Y01566*
X01639Y01569*
X01629*
X00413Y00971D02*
X00409Y00974D01*
X00403*
X004Y00971*
Y00958*
X00403Y00955*
X00409*
X00413Y00958*
X00432Y00974D02*
X00419D01*
Y00964*
X00426Y00968*
X00429*
X00432Y00964*
Y00958*
X00429Y00955*
X00422*
X00419Y00958*
X01338Y00658D02*
X01342Y00655D01*
X01348*
X01351Y00658*
Y00671*
X01348Y00675*
X01342*
X01338Y00671*
X01322Y00675D02*
Y00655D01*
X01332Y00665*
X01319*
X00474Y01133D02*
X00471Y0113D01*
Y01123*
X00474Y0112*
X00487*
X00491Y01123*
Y0113*
X00487Y01133*
X00474Y0114D02*
X00471Y01143D01*
Y01149*
X00474Y01153*
X00478*
X00481Y01149*
Y01146*
Y01149*
X00484Y01153*
X00487*
X00491Y01149*
Y01143*
X00487Y0114*
X01591Y01251D02*
X01595Y01248D01*
X01601*
X01605Y01251*
Y01264*
X01601Y01268*
X01595*
X01591Y01264*
X01572Y01268D02*
X01585D01*
X01572Y01254*
Y01251*
X01575Y01248*
X01582*
X01585Y01251*
X00473Y01261D02*
X00469Y01264D01*
X00463*
X0046Y01261*
Y01248*
X00463Y01245*
X00469*
X00473Y01248*
X00479Y01245D02*
X00486D01*
X00482*
Y01264*
X00479Y01261*
X00583Y00479D02*
X0057D01*
Y0046*
X00583*
X0057Y00469D02*
X00576D01*
X00589Y0046D02*
Y00473D01*
X00599*
X00602Y00469*
Y0046*
X00622Y00473D02*
X00612D01*
X00609Y00469*
Y00463*
X00612Y0046*
X00622*
X00642D02*
X00629D01*
X00642Y00473*
Y00476*
X00638Y00479*
X00632*
X00629Y00476*
X02978Y02541D02*
X02974Y02544D01*
X02968*
X02965Y02541*
Y02528*
X02968Y02525*
X02974*
X02978Y02528*
X02984Y02544D02*
X02997D01*
Y02541*
X02984Y02528*
Y02525*
X03004Y02541D02*
X03007Y02544D01*
X03014*
X03017Y02541*
Y02538*
X03014Y02534*
X0301*
X03014*
X03017Y02531*
Y02528*
X03014Y02525*
X03007*
X03004Y02528*
X02713Y02666D02*
X02709Y02669D01*
X02703*
X027Y02666*
Y02653*
X02703Y0265*
X02709*
X02713Y02653*
X02719Y02669D02*
X02732D01*
Y02666*
X02719Y02653*
Y0265*
X02749D02*
Y02669D01*
X02739Y02659*
X02752*
X02851Y02131D02*
X02854Y02135D01*
Y02141*
X02851Y02145*
X02838*
X02835Y02141*
Y02135*
X02838Y02131*
X02854Y02125D02*
Y02112D01*
X02851*
X02838Y02125*
X02835*
X02854Y02092D02*
Y02105D01*
X02844*
X02848Y02099*
Y02095*
X02844Y02092*
X02838*
X02835Y02095*
Y02102*
X02838Y02105*
X02743Y01786D02*
X02739Y01789D01*
X02733*
X0273Y01786*
Y01773*
X02733Y0177*
X02739*
X02743Y01773*
X02749Y01789D02*
X02762D01*
Y01786*
X02749Y01773*
Y0177*
X02782Y01789D02*
X02775Y01786D01*
X02769Y01779*
Y01773*
X02772Y0177*
X02779*
X02782Y01773*
Y01776*
X02779Y01779*
X02769*
X02518Y0327D02*
X02521Y03273D01*
Y03279*
X02518Y03283*
X02505*
X02501Y03279*
Y03273*
X02505Y0327*
X02521Y03263D02*
Y0325D01*
X02518*
X02505Y03263*
X02501*
X02521Y03243D02*
Y0323D01*
X02518*
X02505Y03243*
X02501*
X03065Y02819D02*
Y028D01*
X03074*
X03078Y02803*
Y02816*
X03074Y02819*
X03065*
X03094Y028D02*
Y02819D01*
X03084Y02809*
X03097*
X0297Y02088D02*
X02989D01*
Y02078*
X02986Y02074*
X02979*
X02976Y02078*
Y02088*
Y02081D02*
X0297Y02074D01*
X02986Y02068D02*
X02989Y02065D01*
Y02058*
X02986Y02055*
X02983*
X02979Y02058*
X02976Y02055*
X02973*
X0297Y02058*
Y02065*
X02973Y02068*
X02976*
X02979Y02065*
X02983Y02068*
X02986*
X02979Y02065D02*
Y02058D01*
X02973Y02048D02*
X0297Y02045D01*
Y02038*
X02973Y02035*
X02986*
X02989Y02038*
Y02045*
X02986Y02048*
X02983*
X02979Y02045*
Y02035*
X0306Y02075D02*
X03079D01*
Y02065*
X03076Y02061*
X03069*
X03066Y02065*
Y02075*
Y02068D02*
X0306Y02061D01*
X03063Y02055D02*
X0306Y02052D01*
Y02045*
X03063Y02042*
X03076*
X03079Y02045*
Y02052*
X03076Y02055*
X03073*
X03069Y02052*
Y02042*
X03076Y02035D02*
X03079Y02032D01*
Y02025*
X03076Y02022*
X03063*
X0306Y02025*
Y02032*
X03063Y02035*
X03076*
X02704Y02415D02*
X02685D01*
Y02401*
X02701Y02395D02*
X02704Y02392D01*
Y02385*
X02701Y02382*
X02698*
X02694Y02385*
Y02388*
Y02385*
X02691Y02382*
X02688*
X02685Y02385*
Y02392*
X02688Y02395*
G54D84*
X00245Y03234D02*
X00264D01*
Y03229*
X00245Y0321*
Y03205*
X00264*
X00279Y03224D02*
X00289D01*
X00294Y03219*
Y03205*
X00279*
X00274Y0321*
X00279Y03214*
X00294*
X00324Y03224D02*
X00309D01*
X00304Y03219*
Y0321*
X00309Y03205*
X00324*
X00334Y03234D02*
Y03205D01*
Y03219*
X00339Y03224*
X00349*
X00354Y03219*
Y03205*
X00369Y03224D02*
X00379D01*
X00384Y03219*
Y03205*
X00369*
X00364Y0321*
X00369Y03214*
X00384*
X00394Y03224D02*
Y03205D01*
Y03214*
X00399Y03219*
X00404Y03224*
X00409*
X00424D02*
Y0321D01*
X00429Y03205*
X00444*
Y032*
X00439Y03195*
X00434*
X00444Y03205D02*
Y03224D01*
X00484Y03205D02*
Y03224D01*
X00494Y03234*
X00504Y03224*
Y03205*
Y03219*
X00484*
X00514Y03205D02*
X00529D01*
X00534Y0321*
X00529Y03214*
X00519*
X00514Y03219*
X00519Y03224*
X00534*
X00544Y03205D02*
Y03224D01*
X00549*
X00554Y03219*
Y03205*
Y03219*
X00559Y03224*
X00564Y03219*
Y03205*
X00574Y03224D02*
Y0321D01*
X00579Y03205*
X00594*
Y03224*
X00604Y03205D02*
X00619D01*
X00624Y0321*
X00619Y03214*
X00609*
X00604Y03219*
X00609Y03224*
X00624*
X00634Y03205D02*
X00649D01*
X00654Y0321*
X00649Y03214*
X00639*
X00634Y03219*
X00639Y03224*
X00654*
X00679Y03205D02*
X00669D01*
X00664Y0321*
Y03219*
X00669Y03224*
X00679*
X00684Y03219*
Y03214*
X00664*
X00694Y03205D02*
Y03224D01*
X00709*
X00714Y03219*
Y03205*
M02*