%FSTAX23Y23*%
%MOIN*%
%SFA1B1*%

%IPPOS*%
%ADD34C,0.039370*%
%ADD35C,0.011810*%
%ADD36C,0.009840*%
%ADD37C,0.019680*%
%ADD38C,0.027560*%
%ADD44C,0.015750*%
%ADD50C,0.150000*%
%ADD51C,0.059050*%
%ADD52R,0.059050X0.059050*%
%ADD54C,0.025000*%
%ADD55C,0.040000*%
%ADD57C,0.027160*%
%LNninja_ecu_pcb-1*%
%LPD*%
G36*
X03003Y03223D02*
X02999Y0322D01*
X0299Y03209*
X02984Y03197*
X0298Y03183*
X02978Y0317*
X0298Y03156*
X02984Y03142*
X0299Y0313*
X02999Y03119*
X0301Y0311*
X03018Y03106*
X03017Y03101*
X03007Y031*
X02991Y03095*
X02976Y03087*
X02963Y03076*
X02952Y03063*
X02945Y03049*
X02944Y03049*
X0294*
X02939Y03049*
X02932Y03063*
X02921Y03076*
X02908Y03087*
X02893Y03095*
X02877Y031*
X0286Y03102*
X02842Y031*
X02826Y03095*
X02811Y03087*
X02798Y03076*
X02787Y03063*
X02779Y03048*
X02774Y03032*
X02772Y03015*
X02774Y02997*
X02779Y02981*
X02787Y02966*
X02798Y02953*
X02811Y02942*
X02826Y02934*
X02842Y02929*
X0286Y02927*
X02877Y02929*
X02893Y02934*
X02908Y02942*
X02921Y02953*
X02932Y02966*
X02939Y0298*
X0294Y0298*
X02944*
X02945Y0298*
X02952Y02966*
X02963Y02953*
X02976Y02942*
X02991Y02934*
X03007Y02929*
X03025Y02927*
X03042Y02929*
X03058Y02934*
X03073Y02942*
X03086Y02953*
X03097Y02966*
X03105Y02981*
X03107Y02989*
X03112Y02988*
Y00127*
X03107Y00126*
X031Y00135*
X03089Y00144*
X03077Y0015*
X03063Y00154*
X0305Y00156*
X03036Y00154*
X03022Y0015*
X0301Y00144*
X02999Y00135*
X0299Y00124*
X02984Y00112*
X0298Y00098*
X02978Y00085*
X0298Y00071*
X02984Y00057*
X0299Y00045*
X02999Y00034*
X0301Y00025*
X03022Y00019*
X03036Y00015*
X0305Y00013*
X03063Y00015*
X03077Y00019*
X03089Y00025*
X031Y00034*
X03107Y00043*
X03112Y00042*
Y00002*
X-00002*
Y00051*
X00002Y00052*
X00005Y00045*
X00014Y00034*
X00025Y00025*
X00037Y00019*
X00051Y00015*
X00065Y00013*
X00078Y00015*
X00092Y00019*
X00104Y00025*
X00115Y00034*
X00124Y00045*
X0013Y00057*
X00134Y00071*
X00136Y00085*
X00134Y00098*
X0013Y00112*
X00124Y00124*
X00115Y00135*
X00104Y00144*
X00092Y0015*
X00078Y00154*
X00065Y00156*
X00051Y00154*
X00037Y0015*
X00025Y00144*
X00014Y00135*
X00005Y00124*
X00002Y00117*
X-00002Y00118*
Y03136*
X00002Y03137*
X00005Y0313*
X00014Y03119*
X00025Y0311*
X00037Y03104*
X00051Y031*
X00065Y03098*
X00078Y031*
X00092Y03104*
X00104Y0311*
X00115Y03119*
X00124Y0313*
X0013Y03142*
X00134Y03156*
X00136Y0317*
X00134Y03183*
X0013Y03197*
X00124Y03209*
X00115Y0322*
X00111Y03223*
X00113Y03227*
X03001*
X03003Y03223*
G37*
%LNninja_ecu_pcb-2*%
%LPC*%
G36*
X01765Y01134D02*
X01755Y01132D01*
X01747Y01127*
X01742Y01119*
X0174Y0111*
X01742Y011*
X01747Y01092*
X01755Y01087*
X01765Y01085*
X01774Y01087*
X01782Y01092*
X01787Y011*
X01789Y0111*
X01787Y01119*
X01782Y01127*
X01774Y01132*
X01765Y01134*
G37*
G36*
X01805Y01184D02*
X01795Y01182D01*
X01787Y01177*
X01782Y01169*
X0178Y0116*
X01782Y0115*
X01787Y01142*
X01795Y01137*
X01805Y01135*
X01814Y01137*
X01822Y01142*
X01827Y0115*
X01829Y0116*
X01827Y01169*
X01822Y01177*
X01814Y01182*
X01805Y01184*
G37*
G36*
X01865Y01129D02*
X01855Y01127D01*
X01847Y01122*
X01842Y01114*
X0184Y01105*
X01842Y01095*
X01847Y01087*
X01855Y01082*
X01865Y0108*
X01874Y01082*
X01882Y01087*
X01887Y01095*
X01889Y01105*
X01887Y01114*
X01882Y01122*
X01874Y01127*
X01865Y01129*
G37*
G36*
X0032Y00914D02*
X0031Y00912D01*
X00302Y00907*
X00297Y00899*
X00295Y0089*
X00297Y0088*
X00302Y00872*
X0031Y00867*
X0032Y00865*
X00329Y00867*
X00337Y00872*
X00342Y0088*
X00344Y0089*
X00342Y00899*
X00337Y00907*
X00329Y00912*
X0032Y00914*
G37*
G36*
X01935Y00924D02*
X01925Y00922D01*
X01917Y00917*
X01912Y00909*
X0191Y009*
X01912Y0089*
X01917Y00882*
X01925Y00877*
X01935Y00875*
X01944Y00877*
X01952Y00882*
X01957Y0089*
X01959Y009*
X01957Y00909*
X01952Y00917*
X01944Y00922*
X01935Y00924*
G37*
G36*
X02265Y01739D02*
X02255Y01737D01*
X02247Y01732*
X02242Y01724*
X0224Y01715*
X02242Y01705*
X02247Y01697*
X02255Y01692*
X02265Y0169*
X02274Y01692*
X02282Y01697*
X02287Y01705*
X02289Y01715*
X02287Y01724*
X02282Y01732*
X02274Y01737*
X02265Y01739*
G37*
G36*
X01536Y01933D02*
X01527Y01931D01*
X01519Y01925*
X01513Y01917*
X01511Y01908*
X01513Y01898*
X01519Y0189*
X01527Y01885*
X01528Y01885*
X01615Y01798*
X01622Y01793*
X0163Y01791*
X01673*
X0168Y01787*
X0169Y01785*
X01699Y01787*
X01707Y01792*
X01712Y018*
X01714Y0181*
X01712Y01819*
X01707Y01827*
X01699Y01832*
X01695Y01833*
X01694Y01834*
X01685Y01836*
X0164*
X01559Y01916*
X01559Y01917*
X01554Y01925*
X01546Y01931*
X01536Y01933*
G37*
G36*
X02055Y01809D02*
X02045Y01807D01*
X02037Y01802*
X02032Y01794*
X0203Y01785*
X02032Y01775*
X02037Y01767*
X02045Y01762*
X02054Y0176*
X02131Y01682*
Y01512*
X02112Y01493*
X02081*
X02074Y01497*
X02065Y01499*
X02055Y01497*
X02047Y01492*
X02042Y01484*
X0204Y01475*
X02042Y01465*
X02047Y01457*
X02055Y01452*
X02065Y0145*
X02074Y01452*
X02081Y01456*
X0212*
X02126Y01458*
X02132Y01462*
X02162Y01492*
X02166Y01498*
X02168Y01505*
Y0169*
X02166Y01696*
X02162Y01702*
X02079Y01785*
X02077Y01794*
X02072Y01802*
X02064Y01807*
X02055Y01809*
G37*
G36*
X01555Y01254D02*
X01545Y01252D01*
X01537Y01247*
X01532Y01239*
X0153Y0123*
X01532Y0122*
X01537Y01212*
X01545Y01207*
X01555Y01205*
X01564Y01207*
X01572Y01212*
X01577Y0122*
X01579Y0123*
X01577Y01239*
X01572Y01247*
X01564Y01252*
X01555Y01254*
G37*
G36*
X0227Y01524D02*
X0226Y01522D01*
X02252Y01517*
X02247Y01509*
X02245Y015*
X02247Y0149*
X02252Y01482*
X0226Y01477*
X0227Y01475*
X02279Y01477*
X02287Y01482*
X02292Y0149*
X02294Y015*
X02292Y01509*
X02287Y01517*
X02279Y01522*
X0227Y01524*
G37*
G36*
X0161Y00201D02*
X01599Y002D01*
X01589Y00196*
X0158Y00189*
X01573Y0018*
X01569Y0017*
X01568Y0016*
X01569Y00149*
X01573Y00139*
X0158Y0013*
X01589Y00123*
X01599Y00119*
X0161Y00118*
X0162Y00119*
X0163Y00123*
X01639Y0013*
X01646Y00139*
X0165Y00149*
X01651Y0016*
X0165Y0017*
X01646Y0018*
X01639Y00189*
X0163Y00196*
X0162Y002*
X0161Y00201*
G37*
G36*
X0036Y00174D02*
X0035Y00172D01*
X00346Y0017*
X00215*
X00208Y00169*
X00203Y00165*
X00178Y0014*
X00174Y00142*
X00165Y00144*
X00155Y00142*
X00147Y00137*
X00142Y00129*
X0014Y0012*
X00142Y0011*
X00147Y00102*
X00155Y00097*
X00165Y00095*
X00174Y00097*
X00182Y00102*
X00182Y00103*
X00188Y00104*
X00193Y00107*
X00194Y00107*
X00199Y00106*
X00202Y00102*
X0021Y00097*
X0022Y00095*
X00229Y00097*
X00237Y00102*
X00242Y0011*
X00244Y0012*
X00242Y00129*
X00241Y00131*
X00243Y00136*
X00339*
X00342Y00132*
X0035Y00127*
X0036Y00125*
X00369Y00127*
X00377Y00132*
X00382Y0014*
X00384Y0015*
X00382Y00159*
X00377Y00167*
X00369Y00172*
X0036Y00174*
G37*
G36*
X01246Y00201D02*
X01235Y002D01*
X01225Y00196*
X01216Y00189*
X0121Y0018*
X01205Y0017*
X01204Y0016*
X01205Y00149*
X0121Y00139*
X01216Y0013*
X01225Y00123*
X01235Y00119*
X01246Y00118*
X01257Y00119*
X01267Y00123*
X01275Y0013*
X01282Y00139*
X01286Y00149*
X01287Y0016*
X01286Y0017*
X01282Y0018*
X01275Y00189*
X01267Y00196*
X01257Y002*
X01246Y00201*
G37*
G36*
X00835Y00074D02*
X00825Y00072D01*
X00817Y00067*
X00812Y00059*
X0081Y0005*
X00812Y0004*
X00817Y00032*
X00825Y00027*
X00835Y00025*
X00844Y00027*
X00852Y00032*
X00857Y0004*
X00859Y0005*
X00857Y00059*
X00852Y00067*
X00844Y00072*
X00835Y00074*
G37*
G36*
X0073Y00084D02*
X0072Y00082D01*
X00712Y00077*
X00707Y00069*
X00705Y0006*
X00707Y0005*
X00712Y00042*
X0072Y00037*
X0073Y00035*
X00739Y00037*
X00747Y00042*
X00752Y0005*
X00754Y0006*
X00752Y00069*
X00747Y00077*
X00739Y00082*
X0073Y00084*
G37*
G36*
X00035Y00859D02*
X00025Y00857D01*
X00017Y00852*
X00012Y00844*
X0001Y00835*
X00012Y00825*
X00017Y00817*
X00025Y00812*
X00035Y0081*
X00035Y0081*
X00101Y00743*
X001Y00735*
X00102Y00725*
X00107Y00717*
X00115Y00712*
X00125Y0071*
X00134Y00712*
X00142Y00717*
X00147Y00725*
X00149Y00735*
X00147Y00744*
X00142Y00752*
X00138Y00755*
X00137Y00757*
X00059Y00834*
X00059Y00835*
X00057Y00844*
X00052Y00852*
X00044Y00857*
X00035Y00859*
G37*
G36*
X0012D02*
X0011Y00857D01*
X00102Y00852*
X00097Y00844*
X00095Y00835*
X00097Y00825*
X00102Y00817*
X0011Y00812*
X0012Y0081*
X00129Y00812*
X00137Y00817*
X00142Y00825*
X00144Y00835*
X00142Y00844*
X00137Y00852*
X00129Y00857*
X0012Y00859*
G37*
G36*
X0217Y01395D02*
X02163Y01394D01*
X02157Y01392*
X02151Y01388*
X02147Y01382*
X02145Y01376*
X02144Y0137*
Y00995*
X02066Y00918*
X02062Y00912*
X0206Y00906*
X02059Y009*
X0206Y00893*
X02062Y00887*
X02066Y00881*
X02259Y00689*
X0226Y00683*
X02262Y00677*
X02266Y00671*
X02272Y00667*
X02278Y00665*
X02285Y00664*
X02291Y00665*
X02297Y00667*
X02303Y00671*
X02307Y00677*
X02309Y00683*
X0231Y0069*
Y007*
X02309Y00706*
X02307Y00712*
X02303Y00718*
X02121Y009*
X02188Y00966*
X02192Y00972*
X02194Y00978*
X02195Y00985*
Y0137*
X02194Y01376*
X02192Y01382*
X02188Y01388*
X02182Y01392*
X02176Y01394*
X0217Y01395*
G37*
G36*
X01005Y00459D02*
X00995Y00457D01*
X00987Y00452*
X00982Y00444*
X0098Y00435*
X00982Y00425*
X00987Y00417*
X00995Y00412*
X01005Y0041*
X01014Y00412*
X01022Y00417*
X01027Y00425*
X01029Y00435*
X01027Y00444*
X01022Y00452*
X01014Y00457*
X01005Y00459*
G37*
G36*
X0229Y00624D02*
X0228Y00622D01*
X02272Y00617*
X02267Y00609*
X02265Y006*
X02267Y0059*
X0227Y00585*
X02267Y00579*
X02265Y0057*
X02267Y0056*
X02272Y00552*
Y00547*
X02267Y00539*
X02265Y0053*
X02267Y0052*
X02272Y00512*
X02267Y00504*
X02265Y00495*
X02267Y00485*
X02272Y00477*
X0228Y00472*
X0229Y0047*
X02299Y00472*
X02305Y00475*
X0231Y00472*
X0232Y0047*
X02329Y00472*
X02337Y00477*
X02342Y00485*
X02344Y00495*
X02342Y00504*
X02337Y00512*
X02342Y0052*
X02344Y0053*
X02342Y00539*
X02337Y00547*
Y00552*
X02342Y0056*
X02344Y0057*
X02342Y00579*
X02337Y00587*
X02329Y00592*
X0232Y00594*
X02317Y00594*
X02314Y00597*
X02314Y006*
X02312Y00609*
X02307Y00617*
X02299Y00622*
X0229Y00624*
G37*
G36*
X0161Y02644D02*
X016Y02642D01*
X01592Y02637*
X01587Y02629*
X01585Y0262*
X01587Y0261*
X01592Y02602*
X016Y02597*
X0161Y02595*
X01619Y02597*
X01627Y02602*
X01632Y0261*
X01634Y0262*
X01632Y02629*
X01627Y02637*
X01619Y02642*
X0161Y02644*
G37*
G36*
X02045Y02799D02*
X02035Y02797D01*
X02027Y02792*
X02022Y02784*
X0202Y02775*
X02022Y02765*
X02027Y02757*
X02027Y02757*
Y02752*
X01573Y02297*
X01569Y02292*
X01568Y02285*
Y02207*
X01563Y02205*
X01562Y02207*
X01554Y02212*
X01545Y02214*
X01535Y02212*
X01527Y02207*
X01522Y02199*
X0152Y0219*
X01522Y0218*
X01527Y02172*
X01535Y02167*
X01543Y02165*
X01545Y02163*
X01544Y02158*
X01543Y02158*
X01411*
X01377Y02191*
X01371Y02195*
X01364Y02196*
X01257*
X01243Y02211*
Y02216*
X01241Y02223*
X01238Y02229*
X01214Y02253*
X01208Y02256*
X01201Y02258*
X01196*
X01164Y02289*
Y02565*
X01166Y02567*
X0117Y02573*
X01171Y0258*
Y02611*
X0117Y02618*
X01166Y02624*
X01134Y02655*
X01133Y02661*
X01133Y02662*
X01138Y02664*
X01138Y02663*
X01142Y02657*
X0115Y02652*
X0116Y0265*
X01169Y02652*
X01177Y02657*
X01182Y02665*
X01184Y02675*
X01182Y02684*
X01177Y02692*
X01169Y02697*
X0116Y02699*
X0115Y02697*
X01142Y02692*
X01137Y02684*
X01135Y02675*
X01136Y02668*
X01136Y02667*
X01131Y02665*
X01131Y02666*
X01127Y02672*
X01119Y02677*
X0111Y02679*
X011Y02677*
X01092Y02672*
X01087Y02664*
X01085Y02655*
X01087Y02645*
X01092Y02637*
X011Y02632*
X01109Y0263*
X0112Y02618*
X01118Y02614*
X01115Y02614*
X01105Y02612*
X01097Y02607*
X01092Y02599*
X0109Y0259*
X01092Y0258*
X01097Y02572*
X01097Y02572*
Y0229*
X01099Y02283*
X01102Y02277*
X01165Y02215*
X01162Y02209*
X0116Y022*
X01162Y0219*
X01167Y02182*
X01174Y02177*
X01172Y02174*
X0117Y02165*
X01172Y02155*
X01177Y02147*
X01185Y02142*
X01186Y02141*
X01185Y02135*
X01187Y02125*
X01192Y02117*
X012Y02112*
X0121Y0211*
X01219Y02112*
X01227Y02117*
X01232Y02125*
X01234Y02135*
X01233Y02141*
X01237Y02144*
X01238Y02144*
X01245Y02142*
X01342*
X01342*
X01348Y02139*
X01355Y02137*
X01357*
X01391Y02104*
X01396Y021*
X01403Y02099*
X01521*
X01523Y02094*
X01422Y01993*
X01417Y01995*
X01412Y02002*
X01404Y02007*
X01395Y02009*
X01385Y02007*
X01377Y02002*
X01374Y01997*
X01373Y01997*
X01364Y01999*
X01354Y01997*
X01352Y01996*
X0135Y01999*
X01342Y02004*
X01333Y02006*
X01323Y02004*
X01319Y02001*
X01312Y02002*
X01304Y02008*
X01294Y0201*
X01285Y02008*
X01277Y02002*
X01272Y01994*
X0127Y01985*
X01272Y01975*
X01277Y01967*
X01282Y01964*
Y01962*
X01277Y01954*
X01275Y01945*
X01277Y01935*
X01282Y01927*
X01285Y01925*
X01286Y01919*
X01283Y01917*
X01247*
X01247Y01917*
X01239Y01922*
X0123Y01924*
X0122Y01922*
X01214Y01918*
X01213Y01918*
X01205Y01924*
X01196Y01926*
X01186Y01924*
X01178Y01918*
X01177Y01916*
X01172Y01916*
X01151Y01937*
X01152Y01943*
X01157Y01947*
X01162Y01955*
X01164Y01965*
X01162Y01974*
X01157Y01982*
X01149Y01987*
X0114Y01989*
X01135Y01988*
X01132Y01992*
Y02148*
X01137Y02152*
X01142Y0216*
X01144Y0217*
X01142Y02179*
X01137Y02187*
X01129Y02192*
X0112Y02194*
X0111Y02192*
X01102Y02187*
X01097Y02179*
X01095Y0217*
X01097Y0216*
X01097Y02159*
Y02006*
X01093Y02003*
X01092Y02004*
X01082Y02006*
X01073Y02004*
X01065Y01999*
X01059Y01991*
X01057Y01981*
X01059Y01972*
X01065Y01964*
X01073Y01958*
X01082Y01956*
X01092Y01958*
X01093Y01959*
X01097Y01957*
Y01949*
X01099Y01943*
X01102Y01937*
X01176Y01864*
X01181Y0186*
X01188Y01859*
X01339*
X01346Y0186*
X01351Y01864*
X0137Y01882*
X01412*
X01412Y01882*
X0142Y01877*
X0143Y01875*
X01439Y01877*
X01447Y01882*
X01452Y0189*
X01454Y019*
X01452Y01909*
X0145Y01912*
X01452Y01918*
X01457Y01922*
X01462Y0193*
X01464Y0194*
X01462Y01949*
X01458Y01955*
X01462Y01959*
X01465Y01957*
X01475Y01955*
X01484Y01957*
X01492Y01962*
X01494*
X01497Y01957*
X01505Y01952*
X01515Y0195*
X01524Y01952*
X01532Y01957*
X01537Y01965*
X01538Y0197*
X01539Y0197*
X01544Y01971*
X01548Y01964*
X01556Y01958*
X01566Y01956*
X01575Y01958*
X01583Y01964*
X01589Y01972*
X01591Y01981*
X01589Y01991*
X01583Y01999*
X01575Y02004*
X01566Y02006*
X01556Y02004*
X01548Y01999*
X01543Y01991*
X01542Y01986*
X01541Y01985*
X01537Y01985*
X01532Y01992*
X01524Y01997*
X01515Y01999*
X01505Y01997*
X015Y01994*
X01493Y01995*
X01492Y01997*
X01485Y02001*
X01484Y02007*
X0156Y02083*
X01576*
X01582Y02084*
X01588Y02088*
X01611Y02111*
X01615Y02117*
X01616Y02123*
Y02139*
X01617Y0214*
X01629*
X01635Y02141*
X0164Y02144*
X01641Y02144*
X01647Y02145*
X01653Y02149*
X01661Y02156*
X01664Y02153*
X01662Y02149*
X0166Y0214*
X01662Y0213*
X01667Y02122*
X01675Y02117*
X01685Y02115*
X01694Y02117*
X01702Y02122*
X01707Y0213*
X01709Y0214*
X01707Y02149*
X01702Y02157*
X01694Y02162*
X01685Y02164*
X01675Y02162*
X01671Y0216*
X01668Y02163*
X01672Y02167*
X01673Y02169*
X01677Y02172*
X01682Y0218*
X01684Y0219*
X01682Y02199*
X01677Y02207*
X01669Y02212*
X0166Y02214*
X0165Y02212*
X01642Y02207*
X01637Y02199*
X01635Y0219*
X01636Y02184*
X01636Y02183*
X01632Y02179*
X01628Y02178*
X01622Y02174*
X01622Y02174*
X01614*
X0161Y02179*
X0161Y0218*
X01608Y0219*
X01603Y02198*
X01602Y02198*
Y02278*
X02057Y02732*
X0206Y02738*
X02062Y02745*
Y02757*
X02062Y02757*
X02067Y02765*
X02069Y02775*
X02067Y02784*
X02062Y02792*
X02054Y02797*
X02045Y02799*
G37*
G36*
X00635Y02389D02*
X00625Y02387D01*
X00617Y02382*
X00612Y02374*
X0061Y02365*
X00612Y02355*
X00617Y02347*
X00612Y02339*
X0061Y0233*
X00612Y0232*
X00613Y02318*
X00612Y02317*
X00607Y02309*
X00606Y02305*
X00605Y02305*
X00595Y02304*
X00587Y02298*
X00582Y0229*
X0058Y02281*
X00582Y02271*
X00587Y02263*
X00595Y02258*
X00605Y02256*
X00614Y02258*
X00622Y02263*
X00627Y02271*
X00628Y02275*
X0063Y02275*
X00639Y02277*
X00647Y02282*
X00652Y0229*
X00654Y023*
X00652Y02309*
X00651Y02311*
X00652Y02312*
X00657Y0232*
X00659Y0233*
X00657Y02339*
X00652Y02347*
X00657Y02355*
X00659Y02365*
X00657Y02374*
X00652Y02382*
X00644Y02387*
X00635Y02389*
G37*
G36*
X02175Y02204D02*
X02165Y02202D01*
X02157Y02197*
X02152Y02189*
X0215Y0218*
X02152Y0217*
X02157Y02162*
X02165Y02157*
X02175Y02155*
X02184Y02157*
X02192Y02162*
X02197Y0217*
X02199Y0218*
X02197Y02189*
X02192Y02197*
X02184Y02202*
X02175Y02204*
G37*
G36*
X02825Y02326D02*
X02814Y02325D01*
X02804Y02321*
X02795Y02314*
X02788Y02305*
X02784Y02295*
X02783Y02285*
X02784Y02274*
X02788Y02264*
X02789Y02262*
X02788Y02257*
X02784Y02256*
X02775Y02249*
X02768Y0224*
X02764Y0223*
X02763Y0222*
X02764Y02209*
X02768Y02199*
X02775Y0219*
X02784Y02183*
X02794Y02179*
X02805Y02178*
X02815Y02179*
X02825Y02183*
X02834Y0219*
X02841Y02199*
X02845Y02209*
X02846Y0222*
X02845Y0223*
X02841Y0224*
X0284Y02242*
X02841Y02247*
X02845Y02248*
X02854Y02255*
X02861Y02264*
X02865Y02274*
X02866Y02285*
X02865Y02295*
X02861Y02305*
X02854Y02314*
X02845Y02321*
X02835Y02325*
X02825Y02326*
G37*
G36*
X02491Y02765D02*
X02476Y02763D01*
X02463Y02758*
X02451Y02749*
X02442Y02737*
X02437Y02724*
X02435Y0271*
X02437Y02695*
X02442Y02682*
X02451Y0267*
X02463Y02661*
X02476Y02656*
X02491Y02654*
X02505Y02656*
X02518Y02661*
X0253Y0267*
X02539Y02682*
X02544Y02695*
X02546Y0271*
X02544Y02724*
X02539Y02737*
X0253Y02749*
X02518Y02758*
X02505Y02763*
X02491Y02765*
G37*
G36*
X01915Y03027D02*
X01897Y03025D01*
X01881Y0302*
X01866Y03012*
X01853Y03001*
X01842Y02988*
X01834Y02973*
X01829Y02957*
X01827Y0294*
X01829Y02922*
X01834Y02906*
X01842Y02891*
X01853Y02878*
X01866Y02867*
X01881Y02859*
X01897Y02854*
X01915Y02852*
X01932Y02854*
X01948Y02859*
X01963Y02867*
X01976Y02878*
X01987Y02891*
X01995Y02906*
X02Y02922*
X02002Y0294*
X02Y02957*
X01995Y02973*
X01987Y02988*
X01976Y03001*
X01963Y03012*
X01948Y0302*
X01932Y03025*
X01915Y03027*
G37*
G36*
X0168Y02916D02*
X01671Y02915D01*
X01664Y02912*
X01663Y02911*
X01622*
X0162Y02912*
X01617Y02911*
X0154*
X01531Y0291*
X01524Y02907*
X01517Y02902*
X01512Y02895*
X01509Y02888*
X01508Y0288*
X01509Y02871*
X01512Y02864*
X01517Y02857*
X01524Y02852*
X01531Y02849*
X0154Y02848*
X01675*
X01683Y02849*
X0169Y02852*
X01697Y02857*
X01702Y02862*
X01707Y02869*
X0171Y02876*
X01711Y02885*
X0171Y02893*
X01707Y029*
X01702Y02907*
X01695Y02912*
X01688Y02915*
X0168Y02916*
G37*
G36*
X01385Y03027D02*
X01367Y03025D01*
X01351Y0302*
X01336Y03012*
X01323Y03001*
X01312Y02988*
X01304Y02973*
X01299Y02957*
X01297Y0294*
X01299Y02922*
X01304Y02906*
X01312Y02891*
X01323Y02878*
X01336Y02867*
X01351Y02859*
X01367Y02854*
X01385Y02852*
X01402Y02854*
X01418Y02859*
X01433Y02867*
X01446Y02878*
X01457Y02891*
X01465Y02906*
X0147Y02922*
X01472Y0294*
X0147Y02957*
X01465Y02973*
X01457Y02988*
X01446Y03001*
X01433Y03012*
X01418Y0302*
X01402Y03025*
X01385Y03027*
G37*
G36*
X0156Y02799D02*
X0155Y02797D01*
X01542Y02792*
X01537Y02784*
X01535Y02775*
X01537Y02765*
X01542Y02757*
X0155Y02752*
X0156Y0275*
X01569Y02752*
X01577Y02757*
X01582Y02765*
X01584Y02775*
X01582Y02784*
X01577Y02792*
X01569Y02797*
X0156Y02799*
G37*
G36*
X0085Y03027D02*
X00832Y03025D01*
X00816Y0302*
X00801Y03012*
X00788Y03001*
X00777Y02988*
X00769Y02973*
X00764Y02957*
X00762Y0294*
X00764Y02922*
X00769Y02906*
X00777Y02891*
X00788Y02878*
X00801Y02867*
X00816Y02859*
X00832Y02854*
X0085Y02852*
X00867Y02854*
X00883Y02859*
X00898Y02867*
X00911Y02878*
X00922Y02891*
X0093Y02906*
X00935Y02922*
X00937Y0294*
X00935Y02957*
X0093Y02973*
X00922Y02988*
X00911Y03001*
X00898Y03012*
X00883Y0302*
X00867Y03025*
X0085Y03027*
G37*
G36*
X012Y01994D02*
X0119Y01992D01*
X01182Y01987*
X01177Y01979*
X01175Y0197*
X01177Y0196*
X01182Y01952*
X0119Y01947*
X012Y01945*
X01209Y01947*
X01217Y01952*
X01222Y0196*
X01224Y0197*
X01222Y01979*
X01217Y01987*
X01209Y01992*
X012Y01994*
G37*
G36*
X01022Y02006D02*
X01012Y02004D01*
X01004Y01999*
X00999Y01991*
X00997Y01981*
X00999Y01972*
X01004Y01964*
X01012Y01958*
X01022Y01956*
X01031Y01958*
X01039Y01964*
X01045Y01972*
X01047Y01981*
X01045Y01991*
X01039Y01999*
X01031Y02004*
X01022Y02006*
G37*
G36*
X017Y01959D02*
X0169Y01957D01*
X01682Y01952*
X01677Y01944*
X01671Y01943*
X01665Y01944*
X01655Y01942*
X01647Y01937*
X01642Y01929*
X0164Y0192*
X01642Y0191*
X01647Y01902*
X01655Y01897*
X01665Y01895*
X01674Y01897*
X01682Y01902*
X01687Y0191*
X01693Y01911*
X017Y0191*
X01709Y01912*
X01717Y01917*
X01722Y01925*
X01724Y01935*
X01722Y01944*
X01717Y01952*
X01709Y01957*
X017Y01959*
G37*
G36*
X00995Y01924D02*
X00985Y01922D01*
X00977Y01917*
X00972Y01909*
X0097Y019*
X00972Y0189*
X00977Y01882*
X00985Y01877*
X00995Y01875*
X01004Y01877*
X01012Y01882*
X01017Y0189*
X01019Y019*
X01017Y01909*
X01012Y01917*
X01004Y01922*
X00995Y01924*
G37*
G36*
X0034Y02349D02*
X0033Y02347D01*
X00322Y02342*
X00317Y02334*
X00315Y02325*
X00317Y02315*
X00322Y02307*
X0033Y02302*
X00338Y023*
X00344Y02294*
X00342Y02289*
X00335Y02287*
X00327Y02282*
X00322Y02274*
X0032Y02265*
X00322Y02255*
X00327Y02247*
X00335Y02242*
X00345Y0224*
X00348Y0224*
X00926Y01662*
Y01478*
X00922Y01475*
X00919Y01477*
X0091Y01479*
X009Y01477*
X00892Y01472*
X00887Y01464*
X00886Y01464*
X00882Y01462*
X00877Y01467*
X00872Y01471*
X00865Y01472*
X0084*
X00833Y01471*
X00832Y0147*
X00828Y01472*
X00827Y01474*
X00822Y01482*
X00814Y01487*
X00805Y01489*
X00795Y01487*
X00787Y01482*
X00782Y01474*
X0078Y01465*
X00782Y01455*
X00787Y01447*
X00794Y01443*
X00792Y01438*
X00785Y01439*
X00775Y01437*
X00767Y01432*
X00762Y01424*
X0076Y01415*
X00762Y01405*
X00767Y01397*
X00775Y01392*
X00785Y0139*
X00794Y01392*
X00801Y01397*
X00808Y01398*
X00814Y01402*
X00829Y01417*
X00834Y01416*
X00837Y01412*
X00837Y01412*
Y01208*
X00839Y01201*
X00842Y01196*
X00886Y01152*
X00887Y01147*
X00882Y01139*
X0088Y0113*
X00882Y0112*
X00887Y01112*
X00887Y01112*
Y01016*
X00884Y01014*
X00879Y01006*
X00877Y00997*
X00879Y00987*
X00884Y0098*
Y00967*
X00885Y0096*
X00889Y00954*
X00891Y00952*
Y00947*
X00887Y00943*
X00868*
X00797Y01014*
X00792Y01017*
X00785Y01019*
X00742*
X00738Y01024*
X00739Y0103*
X00738Y01036*
X00739Y01037*
X00747Y01042*
X00752Y0105*
X00754Y0106*
X00752Y01069*
X00747Y01077*
X00739Y01082*
X0073Y01084*
X0072Y01082*
X00713Y01078*
X00683*
Y01363*
X00688Y01366*
X00695Y01365*
X00704Y01367*
X00712Y01372*
X00717Y0138*
X00719Y0139*
X00717Y01399*
X00713Y01406*
Y0158*
X00711Y01586*
X00707Y01592*
X00474Y01825*
X00472Y01834*
X00468Y01841*
Y01862*
X00512Y01906*
X0052Y01905*
X00529Y01907*
X00537Y01912*
X00542Y0192*
X00544Y0193*
X00542Y01939*
X00537Y01947*
X00529Y01952*
X0052Y01954*
X0051Y01952*
X00502Y01947*
X005Y01945*
X00497Y01942*
X00437Y01882*
X00433Y01876*
X00431Y0187*
Y01841*
X0043Y0184*
X00425Y01839*
X00304Y01961*
Y01979*
X00347Y02022*
X00351Y02027*
X00352Y02034*
Y02055*
X00351Y02062*
X00347Y02067*
X00303Y02112*
Y02243*
X00307Y0225*
X00309Y0226*
X00307Y02269*
X00302Y02277*
X00294Y02282*
X00285Y02284*
X00275Y02282*
X00267Y02277*
X00262Y02269*
X0026Y0226*
X00262Y0225*
X00266Y02243*
Y02104*
X00268Y02097*
X00272Y02091*
X00295Y02068*
X00294Y02063*
X00292Y02062*
X00287Y02054*
X00285Y02045*
X00287Y02035*
X00292Y02027*
X00294Y02026*
X00295Y02021*
X00273Y01999*
X00269Y01993*
X00268Y01986*
Y01953*
X00269Y01946*
X00273Y0194*
X00286Y01927*
X00286Y01926*
X00284Y01922*
X00277Y01917*
X00272Y01909*
X0027Y019*
X00272Y0189*
X00275Y01884*
X00275Y01883*
X00273Y01879*
X00265Y01877*
X00257Y01872*
X00252Y01864*
X0025Y01855*
X00252Y01845*
X00257Y01837*
X00265Y01832*
X00275Y0183*
X00276Y0183*
X0028Y01829*
X00287Y01831*
X00287Y01831*
X00288Y01831*
X00291Y01828*
X0029Y0182*
X00292Y0181*
X00297Y01802*
X00305Y01797*
X00315Y01795*
X00324Y01797*
X00332Y01802*
X00337Y0181*
X00339Y0182*
X00337Y01829*
X00332Y01837*
X00328Y01839*
X0033Y01844*
X00338*
X00625Y01558*
Y01058*
X00624Y01058*
X00571*
X00564Y01062*
X00555Y01064*
X00545Y01062*
X00537Y01057*
X00532Y01049*
X0053Y0104*
X00522Y01032*
X00518Y01026*
X00516Y0102*
Y009*
X00512Y00897*
X00507Y00889*
X00505Y0088*
X00507Y0087*
X00512Y00862*
X0052Y00857*
X0053Y00855*
X00539Y00857*
X00541Y00858*
X00541Y00858*
X00547Y00862*
X00551Y00868*
X00551Y00868*
X00552Y0087*
X00554Y0088*
X00553Y00888*
Y01012*
X00555Y01015*
X00564Y01017*
X00571Y01021*
X00616*
X0065Y00988*
X00655Y00984*
X00662Y00983*
X00777*
X00848Y00912*
X00853Y00908*
X0086Y00907*
X00895*
X00902Y00908*
X00907Y00912*
X00922Y00927*
X00926Y00932*
X00927Y00939*
Y0096*
X00926Y00967*
X00922Y00972*
X0092Y00974*
X00921Y00979*
X00936*
X00991Y00924*
X0099Y00918*
X00985Y00917*
X00977Y00912*
X00972Y00904*
X0097Y00895*
X00971Y00889*
X00966Y00886*
X00964Y00887*
X00955Y00889*
X00945Y00887*
X00937Y00882*
X00932Y00874*
X0093Y00865*
X00932Y00855*
X00937Y00847*
X00943Y00843*
X00941Y00838*
X00669*
X00669Y00838*
X00662Y0084*
X00417*
X0041Y00838*
X00404Y00834*
X00317Y00747*
X0031*
X00308Y00752*
X00359Y00803*
X00363Y00809*
X00364Y00814*
X00417Y00866*
X00437*
X0044Y00864*
X0045Y00862*
X00459Y00864*
X00467Y00869*
X00472Y00878*
X00474Y00887*
X00472Y00896*
X00467Y00905*
X00459Y0091*
X0045Y00912*
X0044Y0091*
X00432Y00905*
X00431Y00903*
X0041*
X00403Y00901*
X004Y00899*
X00395Y00902*
Y00967*
X00394Y00974*
X00393Y00974*
X00392Y00979*
X00387Y00987*
X00379Y00992*
X0037Y00994*
X0036Y00992*
X00352Y00987*
X00347Y00979*
X00345Y0097*
X00347Y0096*
X00352Y00952*
X00359Y00947*
Y00885*
X00325Y00851*
X00322Y00851*
X00314Y00856*
X00304Y00858*
X00295Y00856*
X00287Y00851*
X00287Y00851*
X00248*
X00145Y00953*
X00147Y00958*
X00152Y00957*
X00162Y00959*
X0017Y00964*
X00175Y00972*
X00177Y00982*
X00175Y00991*
X0017Y00999*
X00162Y01004*
X00152Y01006*
X00143Y01004*
X00135Y00999*
X00134Y00999*
X00127*
X0012Y00997*
X00115Y00994*
X00097Y00977*
X00094Y00971*
X00092Y00965*
X00094Y00958*
X00097Y00952*
X00226Y00824*
X00225Y00818*
X0022Y00817*
X00212Y00812*
X00207Y00804*
X00205Y00795*
X00207Y00785*
X00212Y00777*
X0022Y00772*
X0023Y0077*
X00233Y0077*
X00236Y00766*
X0023Y0076*
X00226Y00754*
X00224Y00747*
Y00438*
X00226Y00431*
X0023Y00425*
X00237Y00418*
X00235Y00413*
X00234*
X00227Y00412*
X00225Y00412*
X00222Y00417*
X00214Y00422*
X00205Y00424*
X00195Y00422*
X00187Y00417*
X00184Y00412*
X00182Y00412*
X00175Y00413*
X00155*
X00152Y00417*
X00144Y00422*
X00135Y00424*
X00125Y00422*
X00117Y00417*
X00116Y00415*
X00109Y00414*
X00104Y00417*
X00095Y00419*
X00085Y00417*
X00077Y00412*
X00072Y00404*
X0007Y00395*
X00072Y00385*
X00077Y00377*
X00084Y00372*
X00095Y00361*
X00097Y0036*
X00097Y00359*
X00095Y0035*
X00097Y0034*
X00102Y00332*
X0011Y00327*
X0012Y00325*
X00129Y00327*
X00137Y00332*
X00142Y0034*
X00144Y0035*
X00144Y00352*
X00147Y00356*
X00163*
X00174Y00345*
X0018Y00341*
X00187Y00339*
X00222*
X00229Y00341*
X00235Y00345*
X0025Y00359*
X00586*
X00698Y00248*
X007Y00245*
X00724Y0022*
X0073Y00216*
X00737Y00215*
X01062*
X01068Y00216*
X01074Y0022*
X01137Y00283*
X01206*
X01209Y00278*
X01205Y0027*
X01204Y0026*
X01205Y00249*
X0121Y00239*
X01216Y0023*
X01225Y00223*
X01235Y00219*
X01246Y00218*
X01257Y00219*
X01267Y00223*
X01275Y0023*
X01282Y00239*
X01286Y00249*
X01287Y0026*
X01286Y0027*
X01283Y00278*
X01286Y00283*
X01461*
X01468Y00284*
X01474Y00288*
X01585Y004*
X01594Y00402*
X01602Y00407*
X01607Y00415*
X01609Y00425*
X01607Y00434*
X01602Y00442*
X01594Y00447*
X01585Y00449*
X01575Y00447*
X01567Y00442*
X01565Y00438*
X0156*
X01557Y00442*
X01549Y00447*
X0154Y00449*
X0153Y00447*
X01522Y00442*
X01517Y00434*
X01515Y00425*
X01426Y00337*
X01122*
X01115Y00335*
X01109Y00332*
X01047Y00269*
X00844*
X00841Y00273*
X00842Y00275*
X00844Y00285*
X00842Y00294*
X00837Y00302*
X00829Y00307*
X0082Y00309*
X00817Y00312*
X00811Y00316*
X00805Y00318*
X00773*
X0073Y00361*
X00731Y00366*
X00732Y00367*
X00737Y00375*
X00739Y00385*
X00737Y00394*
X00732Y00402*
X00724Y00407*
X00715Y00409*
X00705Y00407*
X00697Y00402*
X00696Y004*
X00691Y00399*
X00646Y00444*
X00641Y00447*
X00634Y00449*
X00357*
X00353Y00454*
X00354Y0046*
X00353Y00467*
X00367Y00481*
X00371Y00487*
X00373Y00494*
Y00528*
X00378Y00531*
X00385Y0053*
X00391Y00531*
X00391Y00531*
X00407*
X0041Y00527*
X0041Y00525*
X00412Y00515*
X00417Y00507*
X00425Y00502*
X00435Y005*
X00444Y00502*
X00452Y00507*
X00453Y00507*
X00457Y00503*
X00462Y00499*
X00469Y00498*
X00499*
X00503Y00499*
X00531*
X00535Y00498*
X00668*
X00675Y00499*
X0068Y00503*
X0076Y00583*
X00765Y00581*
X00767Y00575*
X00772Y00567*
X0078Y00562*
X0079Y0056*
X00799Y00562*
X00807Y00567*
X00812Y00575*
X00814Y00585*
X00812Y00594*
X00807Y00602*
X00799Y00607*
X00793Y00609*
X00791Y00614*
X00894Y00717*
X01072*
X01076Y00714*
X01075Y0071*
X01077Y007*
X01082Y00692*
X0109Y00687*
X011Y00685*
X01109Y00687*
X01117Y00692*
X01122Y007*
X01124Y0071*
X01123Y00714*
X01127Y00717*
X0127*
X01276Y00719*
X01282Y00722*
X01324Y00765*
X01328Y0077*
X01328Y00774*
X01334Y00776*
X01422Y00688*
X01422Y00683*
X01421Y00683*
X01417Y00677*
X01415Y00671*
X01414Y00665*
X01304Y00555*
X01115*
X01108Y00554*
X01102Y00552*
X01096Y00548*
X01092Y00542*
X0109Y00536*
X01089Y0053*
X0109Y00523*
X01092Y00517*
X01096Y00511*
X01102Y00507*
X01108Y00505*
X01115Y00504*
X01315*
X01321Y00505*
X01327Y00507*
X01333Y00511*
X01458Y00636*
X01462Y00641*
X01462Y00642*
X01468Y00642*
X01621Y00489*
X01626Y00485*
X01633Y00484*
X01647*
Y00286*
X01642Y00284*
X01639Y00289*
X0163Y00296*
X0162Y003*
X0161Y00301*
X01599Y003*
X01589Y00296*
X0158Y00289*
X01573Y0028*
X01569Y0027*
X01568Y0026*
X01569Y00249*
X01573Y00239*
X0158Y0023*
X01589Y00223*
X01599Y00219*
X0161Y00218*
X0162Y00219*
X0163Y00223*
X01635Y00227*
X0164Y00225*
X01642Y00215*
X01647Y00207*
X01655Y00202*
X01665Y002*
X01674Y00202*
X01682Y00207*
X01682Y00207*
X01947*
X0211Y00045*
X0211Y00045*
X02112Y00035*
X02117Y00027*
X02125Y00022*
X02135Y0002*
X02144Y00022*
X02152Y00027*
X02157Y00035*
X02159Y00045*
X02157Y00054*
X02152Y00062*
X02144Y00067*
X02135Y00069*
X02134Y00069*
X01967Y00237*
X01961Y0024*
X01955Y00242*
X01682*
X01682Y00242*
X01682Y00242*
Y00484*
X01729*
X01736Y00485*
X01741Y00489*
X02017Y00764*
X0202Y0077*
X02022Y00776*
Y01118*
X02027Y01121*
X02035Y0112*
X02044Y01122*
X02052Y01127*
X02057Y01135*
X02059Y01145*
X02057Y01154*
X02052Y01162*
X02044Y01167*
X02035Y01169*
X02027Y01168*
X02022Y01171*
Y01407*
X02022Y01407*
X02027Y01415*
X02029Y01425*
X02027Y01434*
X02022Y01442*
X02022Y01442*
Y01835*
X02021Y01838*
X02022Y0184*
X02024Y0185*
X02022Y01859*
X02017Y01867*
X02009Y01872*
X02Y01874*
X0199Y01872*
X01982Y01867*
X01977Y01859*
X01975Y0185*
X01977Y0184*
X01982Y01832*
X01986Y01829*
X01987Y01827*
Y01827*
Y01442*
X01987Y01442*
X01982Y01434*
X0198Y01425*
X0194*
X01933Y01424*
X01928Y0142*
X01879Y01372*
X01682*
X01682Y01372*
X01674Y01377*
X01665Y01379*
X01655Y01377*
X01647Y01372*
X01642Y01364*
X0164Y01355*
X01642Y01345*
X01647Y01337*
X01655Y01332*
X01665Y0133*
X01674Y01332*
X01682Y01337*
X01682Y01337*
X01886*
X01893Y01339*
X01898Y01342*
X01947Y01391*
X01987*
Y00783*
X01911Y00707*
X01911Y00707*
X01907Y0071*
X01907Y00711*
X01909Y0072*
X01908Y00724*
X01939Y00755*
X01944Y00762*
X01945Y0077*
Y00798*
X01949Y00801*
X01955Y008*
X01964Y00802*
X01972Y00807*
X01977Y00815*
X01979Y00825*
X01977Y00834*
X01972Y00842*
X01964Y00847*
X01958Y00849*
X01957Y00852*
X01952Y0086*
X01944Y00866*
X01935Y00868*
X01925Y00866*
X01917Y0086*
X01912Y00852*
X0191Y00847*
X01908Y00844*
X01906Y00844*
X01878Y00872*
X01878Y00873*
X0188Y00877*
X01887Y00882*
X01892Y0089*
X01894Y009*
X01892Y00909*
X01887Y00917*
X01879Y00922*
X0187Y00924*
X0186Y00922*
X01852Y00917*
X01847Y0091*
X01843Y00908*
X01842Y00908*
X01837Y00912*
X01831Y00916*
X01825Y00918*
X01822*
X01494Y01246*
X01495Y01251*
X01497Y01252*
X01502Y0126*
X01504Y0127*
X01502Y01279*
X01498Y01286*
Y01287*
X01657Y01446*
X01667*
X0167Y01445*
X01673*
X0168Y01447*
X01686Y0145*
X01957Y01722*
X01961Y01728*
X01963Y01735*
Y01768*
X01967Y01775*
X01969Y01785*
X01967Y01794*
X01962Y01802*
X01954Y01807*
X01945Y01809*
X01935Y01807*
X01927Y01802*
X01925Y01798*
X0192*
X01917Y01802*
X01909Y01807*
X019Y01809*
X0189Y01807*
X01882Y01802*
X01877Y01794*
X01876Y01793*
X01872Y01793*
X01871Y01793*
X01866Y01801*
X01858Y01806*
X01849Y01808*
X01839Y01806*
X01834Y01803*
X01832Y01807*
X01824Y01812*
X01815Y01814*
X01805Y01812*
X01797Y01807*
X01792Y01799*
X0179Y0179*
X01791Y01785*
X01787Y0178*
X01704*
X01697Y01778*
X01691Y01775*
X01687Y01769*
X01686Y01762*
Y01666*
X01662Y01642*
X01658Y01636*
X01656Y0163*
Y01603*
X01028*
X01027Y01604*
X01022Y01612*
X01014Y01617*
X01005Y01619*
X00995Y01617*
X00987Y01612*
X00985Y0161*
X0098Y01611*
Y01701*
X00979Y01708*
X00975Y01714*
X00364Y02325*
X00362Y02334*
X00357Y02342*
X00349Y02347*
X0034Y02349*
G37*
G36*
X0226Y02262D02*
X0225Y0226D01*
X02241Y02257*
X02233Y02251*
X02227Y02243*
X02224Y02234*
X02222Y02225*
X02224Y02215*
X02227Y02206*
X02231Y02201*
X02233Y02197*
X02231Y02193*
X02227Y02188*
X02224Y02179*
X02222Y0217*
X02224Y0216*
X02227Y02151*
X02231Y02146*
X02233Y02142*
X02231Y02138*
X02227Y02133*
X02224Y02124*
X02222Y02115*
X02224Y02105*
X02227Y02096*
X02233Y02088*
X02241Y02082*
X0225Y02079*
X0226Y02077*
X02269Y02079*
X02278Y02082*
X02286Y02088*
X02292Y02096*
X02295Y02105*
X02297Y02115*
X02295Y02124*
X02292Y02133*
X02288Y02138*
X02286Y02142*
X02288Y02146*
X02292Y02151*
X02295Y0216*
X02297Y0217*
X02295Y02179*
X02292Y02188*
X02288Y02193*
X02286Y02197*
X02288Y02201*
X02292Y02206*
X02295Y02215*
X02297Y02225*
X02295Y02234*
X02292Y02243*
X02286Y02251*
X02278Y02257*
X02269Y0226*
X0226Y02262*
G37*
G36*
X02491Y02253D02*
X02476Y02251D01*
X02463Y02246*
X02451Y02237*
X02442Y02225*
X02437Y02212*
X02435Y02198*
X02437Y02183*
X02442Y0217*
X02451Y02158*
X02463Y0215*
X02476Y02144*
X02491Y02142*
X02505Y02144*
X02518Y0215*
X0253Y02158*
X02539Y0217*
X02544Y02183*
X02546Y02198*
X02544Y02212*
X02539Y02225*
X0253Y02237*
X02518Y02246*
X02505Y02251*
X02491Y02253*
G37*
G36*
X01025Y02199D02*
X01015Y02197D01*
X01007Y02192*
X01002Y02184*
X01Y02175*
X01002Y02165*
X01007Y02157*
X01015Y02152*
X01025Y0215*
X01034Y02152*
X01042Y02157*
X01047Y02165*
X01049Y02175*
X01047Y02184*
X01042Y02192*
X01034Y02197*
X01025Y02199*
G37*
G36*
X01626Y02006D02*
X01617Y02004D01*
X01609Y01999*
X01603Y01991*
X01601Y01981*
X01603Y01972*
X01609Y01964*
X01617Y01958*
X01626Y01956*
X01636Y01958*
X01644Y01964*
X01649Y01972*
X01651Y01981*
X01649Y01991*
X01644Y01999*
X01636Y02004*
X01626Y02006*
G37*
%LNninja_ecu_pcb-3*%
%LPD*%
G36*
X00987Y01577D02*
X00995Y01572D01*
X01005Y0157*
X01005Y0157*
X01008Y01568*
X01015Y01566*
X01649*
X01651Y01562*
X01544Y01455*
X01539Y01457*
X01537Y01464*
X01532Y01472*
X01524Y01477*
X01515Y01479*
X01513Y01479*
X01512Y01484*
X01506Y01492*
X01498Y01498*
X01489Y01499*
X01479Y01498*
X01471Y01492*
X01466Y01484*
X01464Y01475*
X01465Y01468*
X01461Y01464*
X0146Y01464*
X0145Y01462*
X01442Y01457*
X01437Y01449*
X01435Y0144*
X01437Y0143*
X01442Y01422*
X0145Y01417*
X0146Y01415*
X01469Y01417*
X01477Y01422*
X01482Y0143*
X01484Y0144*
X01483Y01445*
X01487Y01449*
X01491Y01448*
X01492Y01445*
X01497Y01437*
X01505Y01432*
X01513Y0143*
X01514Y01425*
X01349Y0126*
X01344Y0126*
X01341Y01264*
X01333Y0127*
X01327Y01271*
X01326Y01276*
X01337Y01287*
X0134Y01293*
X01342Y013*
Y01426*
X01347Y01429*
X0135Y01427*
X0136Y01425*
X01369Y01427*
X01377Y01432*
X01382Y0144*
X01384Y0145*
X01382Y01459*
X01377Y01467*
X01369Y01472*
X0136Y01474*
X0135Y01472*
X01342Y01467*
X01336Y01471*
X01338Y01481*
X01336Y0149*
X0133Y01498*
X01322Y01503*
X01313Y01505*
X01303Y01503*
X01295Y01498*
X0129Y0149*
X01288Y01481*
X01288Y0148*
X01283Y01479*
X01278Y01487*
X0127Y01492*
X0126Y01494*
X01251Y01492*
X01243Y01487*
X01238Y01479*
X01236Y0147*
X01236Y01469*
X01233Y01467*
X01231Y01466*
X01224Y01471*
X01214Y01473*
X01205Y01471*
X01197Y01466*
X01191Y01458*
X01189Y01449*
X01191Y01439*
X01197Y01431*
X01205Y01426*
X01214Y01424*
X01224Y01426*
X01232Y01431*
X01237Y01439*
X01239Y01449*
X01239Y01449*
X01242Y01451*
X01243Y01452*
X01251Y01447*
X0126Y01445*
X01266Y01446*
X01267Y01445*
X01272Y01437*
X0128Y01432*
X0129Y0143*
X01299Y01432*
X01304Y01435*
X01307Y01431*
Y01324*
X01302Y01324*
X01302Y01324*
X01297Y01332*
X01289Y01337*
X0128Y01339*
X0127Y01337*
X01262Y01332*
X0126Y01329*
X01255Y01332*
X01246Y01334*
X01236Y01332*
X01228Y01327*
X01223Y01319*
X01222Y01315*
X01221Y01315*
X01213Y01313*
X0121Y01316*
X01209Y01317*
X01209Y0132*
X01207Y01329*
X01202Y01337*
X01194Y01342*
X01185Y01344*
X01175Y01342*
X01167Y01337*
X01162Y01329*
X0116Y0132*
X01162Y0131*
X01167Y01302*
X01169Y01301*
X0117Y01294*
X01167Y01289*
X01165Y0128*
X01165Y01279*
X01142Y01257*
X01067*
X01067Y01257*
X01059Y01262*
X0105Y01264*
X0104Y01262*
X01032Y01257*
X01027Y01249*
X01025Y0124*
X01027Y0123*
X01032Y01222*
X0104Y01217*
X0105Y01215*
X01059Y01217*
X01067Y01222*
X01067Y01222*
X0115*
X01156Y01224*
X01162Y01227*
X01189Y01255*
X0119Y01255*
X01199Y01257*
X01207Y01262*
X01211Y01268*
X01212Y01267*
X01221Y01265*
X01231Y01267*
X01239Y01272*
X01244Y0128*
X01245Y01285*
X01246Y01285*
X01255Y01287*
X01263Y01292*
X01265Y01295*
X0127Y01292*
X0128Y0129*
X01285Y01291*
X01287Y01286*
X01282Y01282*
X01279Y01276*
X01277Y0127*
Y01213*
X01266Y01202*
X01262Y01196*
X01261Y01189*
Y01127*
X01141Y01007*
X01097*
X01097Y01007*
X01089Y01012*
X0108Y01014*
X0107Y01012*
X01062Y01007*
X01057Y00999*
X01055Y00993*
X0105Y00991*
X01003Y01038*
Y01255*
X01001Y01262*
X00997Y01268*
X00982Y01283*
X00983Y01289*
X00985Y01289*
X00989Y01287*
X00999Y01285*
X01008Y01287*
X01014Y01291*
X0102Y01287*
X0103Y01285*
X01039Y01287*
X01047Y01292*
X01052Y013*
X01054Y0131*
X01052Y01319*
X01047Y01327*
X01039Y01332*
X0103Y01334*
X0102Y01332*
X01014Y01328*
X01008Y01332*
X00999Y01334*
X00989Y01332*
X00986Y0133*
X00982Y01333*
Y01402*
X01014Y01435*
X0102Y01434*
X01022Y01432*
X0103Y01427*
X0104Y01425*
X01049Y01427*
X01057Y01432*
X01062Y0144*
X01064Y0145*
X01062Y01459*
X01061Y01462*
X01064Y01465*
X0107Y01461*
X01075Y0146*
X01075Y0146*
X01077Y0145*
X01082Y01442*
X0109Y01437*
X011Y01435*
X01109Y01437*
X01117Y01442*
X01122Y0145*
X01124Y0146*
X01122Y01469*
X01117Y01477*
X01109Y01482*
X01104Y01483*
X01104Y01484*
X01102Y01494*
X01097Y01502*
X01089Y01507*
X0108Y01509*
X0107Y01507*
X01062Y01502*
X01057Y01494*
X01055Y01484*
X01057Y01475*
X01058Y01472*
X01055Y01469*
X01049Y01472*
X0104Y01474*
X0103Y01472*
X01026Y01476*
X01022Y01482*
X01014Y01487*
X01005Y01489*
X00995Y01487*
X00987Y01482*
X00985Y0148*
X0098Y01481*
Y01578*
X00985Y01579*
X00987Y01577*
G37*
G36*
X0062Y00782D02*
X0062Y0078D01*
X00622Y0077*
X00627Y00762*
X00635Y00757*
X00645Y00755*
X00654Y00757*
X00662Y00762*
X00663Y00764*
X00668Y00765*
X00681Y00752*
X00687Y00748*
X00693Y00747*
X0079*
X00797Y00748*
X00802Y00752*
X00817Y00767*
X00819Y0077*
X00822Y00772*
X00833Y00784*
X00862*
X00864Y0078*
X00676Y00592*
X00624*
X00617Y00591*
X00612Y00587*
X00606Y00581*
X00458*
X00458Y00581*
X00451Y00583*
X00441*
X00419Y00605*
X00417Y00607*
X00411Y00611*
X00405Y00613*
X00401*
X00394Y00617*
X00385Y00619*
X00378Y00618*
X00373Y00621*
Y00722*
X00436Y00786*
X00532*
X00535Y00782*
X00535Y0078*
X00537Y0077*
X00542Y00762*
X0055Y00757*
X0056Y00755*
X00569Y00757*
X00577Y00762*
X00582Y0077*
X00584Y0078*
X00584Y00782*
X00587Y00786*
X00617*
X0062Y00782*
G37*
%LNninja_ecu_pcb-4*%
%LPC*%
G36*
X01425Y01519D02*
X01415Y01517D01*
X01407Y01512*
X01402Y01504*
X014Y01495*
X01402Y01485*
X01407Y01477*
X01415Y01472*
X01425Y0147*
X01434Y01472*
X01442Y01477*
X01447Y01485*
X01449Y01495*
X01447Y01504*
X01442Y01512*
X01434Y01517*
X01425Y01519*
G37*
%LNninja_ecu_pcb-5*%
%LPD*%
G54D34*
X0239Y0288D02*
X02465Y02955D01*
X01586Y0288D02*
X0165D01*
X01675*
X0154D02*
X01586D01*
X01675D02*
X0168Y02885D01*
G54D35*
X00535Y00875D02*
Y0102D01*
X0041Y00885D02*
X0045D01*
X01266Y0097D02*
X0129Y00993D01*
X00135Y00395D02*
X00175D01*
X00429Y00804D02*
X00655D01*
X00355Y00494D02*
Y0073D01*
X00429Y00804*
X00324Y00729D02*
X00417Y00822D01*
X00285Y00729D02*
X00324D01*
X00417Y00822D02*
X00662D01*
X00705Y0036D02*
X00766Y003D01*
X00805D02*
X0082Y00285D01*
X00766Y003D02*
X00805D01*
X00634Y00431D02*
X00704Y0036D01*
X00705*
X00275Y00431D02*
X00634D01*
X01122Y00319D02*
X01434D01*
X00744Y00251D02*
X01054D01*
X01122Y00319*
X0113Y00301D02*
X01461D01*
X00737Y00233D02*
X01062D01*
X0113Y00301*
X00683Y00574D02*
X00889Y0078D01*
X0123*
X00664Y0082D02*
X00955D01*
X00995Y0086*
Y00895*
X00826Y00802D02*
X00998D01*
X01023Y00827D02*
Y00879D01*
X00998Y00802D02*
X01023Y00827D01*
X01275Y00825D02*
Y0085D01*
X0123Y0078D02*
X01275Y00825D01*
X01275Y009D02*
X01299Y00924D01*
X0133*
X01195Y0095D02*
X01265D01*
X01282Y00942D02*
X01337D01*
X01265Y0095D02*
X01265Y00949D01*
X01275*
X01282Y00942*
X01333Y01023D02*
X01572Y00784D01*
X0123Y01023D02*
X01333D01*
X01151Y00944D02*
X0123Y01023D01*
X01379Y01075D02*
X0158Y00874D01*
X01144Y00962D02*
X01256Y01075D01*
X01379*
X01623Y01025D02*
D01*
X01208Y009D02*
X01275D01*
X00967Y01024D02*
X01046Y00944D01*
X01151*
X01054Y00962D02*
X01144D01*
X00985Y01031D02*
X01054Y00962D01*
X00985Y01031D02*
Y01255D01*
X0094Y01299D02*
X00985Y01255D01*
X0094Y01409D02*
X00962Y01431D01*
X0094Y01299D02*
Y01409D01*
X00922Y01292D02*
Y01416D01*
X00945Y01438*
Y0167*
X00962Y01431D02*
Y01701D01*
X0034Y02324D02*
X00962Y01701D01*
X0035Y02265D02*
X00945Y0167D01*
X00922Y01292D02*
X00967Y01248D01*
Y01024D02*
Y01248D01*
X00877Y01147D02*
X0088Y0115D01*
X00695D02*
X0088D01*
X0069Y01155D02*
X00695Y0115D01*
X00865Y01454D02*
X00885Y01434D01*
Y01255D02*
Y01434D01*
Y01255D02*
X0094Y012D01*
X01326Y01211D02*
X01682Y01567D01*
X01455Y01295D02*
X0177Y0161D01*
X0148Y01294D02*
X01649Y01464D01*
X00453Y00563D02*
X00614D01*
X01675Y0163D02*
X01704Y01659D01*
Y01762*
X01945Y01735D02*
Y01785D01*
X01704Y01762D02*
X01827D01*
X0051Y0193D02*
X0052D01*
X0045Y0187D02*
X0051Y0193D01*
X00809Y00785D02*
X00826Y00802D01*
X00809Y00785D02*
D01*
X01827Y01762D02*
X01849Y01784D01*
X00617Y00413D02*
X00755Y00275D01*
X01323Y01245D02*
X01324Y01246D01*
X0053Y0088D02*
X00535Y00875D01*
X01434Y00319D02*
X0154Y00425D01*
X01461Y00301D02*
X01585Y00425D01*
X00902Y00997D02*
X00944D01*
X01326Y01196D02*
Y01211D01*
X0111Y02655D02*
X01153Y02611D01*
X01146Y02573D02*
X01153Y0258D01*
Y02611*
X01146Y02281D02*
Y02573D01*
X01323Y01245D02*
X01326Y01241D01*
X01623Y00835D02*
X017D01*
X01606Y00817D02*
X01623Y00835D01*
X0045Y01825D02*
Y0187D01*
X02055Y01785D02*
X0215Y0169D01*
Y01505D02*
Y0169D01*
X01326Y01196D02*
X01328Y01195D01*
X0212Y01475D02*
X0215Y01505D01*
X01649Y01464D02*
X0167D01*
X02065Y01475D02*
X0212D01*
X01895Y00815D02*
Y00829D01*
X01725Y0081D02*
X01775D01*
X01825Y009D02*
X01895Y00829D01*
X017Y00835D02*
X01725Y0081D01*
X00601Y00395D02*
X0073Y00266D01*
Y00265D02*
Y00266D01*
Y00265D02*
X00744Y00251D01*
X00594Y00377D02*
X00712Y00259D01*
Y00258D02*
Y00259D01*
Y00258D02*
X00737Y00233D01*
X00175Y00395D02*
X0018Y0039D01*
Y00389D02*
Y0039D01*
Y00389D02*
X00194Y00375D01*
X00215*
X00229Y00389*
Y0039*
X00234Y00395*
X00187Y00357D02*
X00222D01*
X00242Y00377*
X00095Y00387D02*
Y00395D01*
X00242Y00377D02*
X00594D01*
X00234Y00395D02*
X00601D01*
X00267Y00413D02*
X00617D01*
X00328Y00467D02*
X0033Y00466D01*
Y0046D02*
Y00466D01*
X00375Y0097D02*
X00377Y00967D01*
X0067Y0106D02*
X0073D01*
X00624Y0104D02*
X00662Y01001D01*
X00785*
X00877Y00957D02*
Y01147D01*
X00695Y0139D02*
Y0158D01*
X0045Y01825D02*
X00695Y0158D01*
X00286Y01953D02*
X00665Y01575D01*
X00334Y02034D02*
Y02055D01*
X00286Y01953D02*
Y01986D01*
X00334Y02034*
X00345Y02265D02*
X0035D01*
X00285Y02104D02*
Y0226D01*
X01606Y00798D02*
Y00817D01*
X01592Y00784D02*
X01606Y00798D01*
X01572Y00784D02*
X01592D01*
X0158Y0082D02*
Y00874D01*
X00877Y00957D02*
X00885Y0095D01*
Y0095D02*
Y0095D01*
X00895Y00925D02*
X00909Y00939D01*
Y0096*
X00902Y00967D02*
X00909Y0096D01*
X00902Y00967D02*
Y00997D01*
X0086Y00925D02*
X00895D01*
X00785Y01001D02*
X0086Y00925D01*
X00614Y00563D02*
X00624Y00574D01*
X00683*
X01005Y01595D02*
X01015Y01585D01*
X01675*
Y0163*
X01682Y01567D02*
X01682D01*
X019Y01784D02*
Y01785D01*
X01682Y01567D02*
X019Y01784D01*
X0079Y00765D02*
X00804Y00779D01*
Y0078*
X00809Y00785*
X00662Y00822D02*
X00664Y0082D01*
X00655Y00804D02*
X00693Y00765D01*
X0079*
X0037Y0097D02*
X00375D01*
X0167Y01464D02*
X0167Y01463D01*
X01673*
X01945Y01735*
X0166Y01433D02*
Y0144D01*
X00785Y01415D02*
X00801D01*
X0084Y01454D02*
X00865D01*
X00801Y01415D02*
X0084Y01454D01*
X01344Y00879D02*
Y0091D01*
X01364Y02178D02*
X01403Y0214D01*
X01225Y02203D02*
X0125Y02178D01*
X01364*
X01146Y02281D02*
X01188Y0224D01*
X01201*
X01225Y02216*
Y02203D02*
Y02216D01*
X00555Y0104D02*
X00624D01*
X00535Y0102D02*
X00555Y0104D01*
X00377Y00877D02*
Y00967D01*
X0045Y00885D02*
Y00887D01*
X00328Y00467D02*
X00355Y00494D01*
X00405Y00594D02*
Y00595D01*
X00385D02*
X00405D01*
Y00594D02*
X00433Y00565D01*
X00451*
X00453Y00563*
X00665Y01065D02*
Y01575D01*
Y01065D02*
X0067Y0106D01*
X00285Y02104D02*
X00334Y02055D01*
X00135Y00395D02*
Y004D01*
X00108Y00374D02*
X0017D01*
X00095Y00387D02*
X00108Y00374D01*
X0017D02*
X00187Y00357D01*
X0026Y00445D02*
Y0074D01*
Y00445D02*
X00275Y00431D01*
X00242Y00438D02*
X00267Y00413D01*
X00242Y00438D02*
Y00747D01*
X01328Y01195D02*
X0133D01*
X01455Y01295D02*
X01456Y01293D01*
Y0128D02*
Y01293D01*
X01455Y0128D02*
X01456Y0128D01*
X01324Y01246D02*
Y01247D01*
X0148Y0127D02*
Y01294D01*
X01815Y009D02*
X01825D01*
X01455Y01259D02*
Y0128D01*
Y01259D02*
X01815Y009D01*
X01623Y01025D02*
D01*
X01169Y00909D02*
X012D01*
X0122Y00975D02*
X01261D01*
X01266Y0097*
X012Y00909D02*
X01208Y009D01*
X0133Y00924D02*
X01344Y0091D01*
X01411Y00747D02*
X01457D01*
X01353Y00805D02*
X01411Y00747D01*
X01337Y00942D02*
X01364Y00915D01*
X0134Y00875D02*
X01344Y00879D01*
X01353Y00805D02*
Y0085D01*
X01364Y0086*
Y00915*
X01045Y00895D02*
X01156D01*
X00944Y00997D02*
X01045Y00895D01*
X01156D02*
X01169Y00909D01*
X0034Y02324D02*
Y02325D01*
Y02325*
X01403Y0214D02*
X0156D01*
X00285Y0073D02*
X00285Y00729D01*
X0026Y0074D02*
X00274Y00754D01*
X00242Y00747D02*
X00267Y00772D01*
X00329Y00823D02*
Y00829D01*
X00377Y00877*
X00347Y00816D02*
Y00822D01*
X0041Y00885*
X00284Y00754D02*
X00347Y00816D01*
X00277Y00772D02*
X00329Y00823D01*
X00267Y00772D02*
X00277D01*
X00274Y00754D02*
X00284D01*
G54D36*
X01615Y0219D02*
X01619Y02186D01*
X01875Y00935D02*
X0197Y0103D01*
X0078Y00725D02*
X0079Y00714D01*
X02Y0184D02*
X02005Y01845D01*
X01312Y00897D02*
X01314Y00894D01*
X01295Y01206D02*
Y0127D01*
X01325Y013D02*
Y0145D01*
X01295Y0127D02*
X01325Y013D01*
X01278Y01189D02*
X01295Y01206D01*
X00668Y00515D02*
X00887Y00735D01*
X00535Y00515D02*
X00668D01*
X01633Y00501D02*
X01729D01*
X01464Y0067D02*
X01633Y00501D01*
X00887Y00735D02*
X0127D01*
X01312Y00777D02*
Y00897D01*
X0127Y00735D02*
X01312Y00777D01*
X0132Y00899D02*
Y009D01*
X01148Y0099D02*
X01278Y0112D01*
X0108Y0099D02*
X01148D01*
X00855Y01208D02*
Y0143D01*
Y01208D02*
X00905Y01158D01*
Y0113D02*
Y01158D01*
X00965Y0131D02*
Y0141D01*
X01397Y01945D02*
X01553Y021D01*
X01292Y019D02*
X01336Y01945D01*
X01397*
X01292Y019D02*
Y019D01*
X01115Y01949D02*
X01188Y01876D01*
X01115Y01949D02*
Y02165D01*
X0112Y0217*
X01585Y02285D02*
X02045Y02745D01*
X01585Y0218D02*
Y02285D01*
X01336Y00868D02*
X0134Y00871D01*
X01314Y00894D02*
X0132Y00899D01*
X01639Y02162D02*
X01641Y02161D01*
X0197Y0103D02*
Y0108D01*
X0184D02*
X0197D01*
X00902Y00997D02*
X00905Y01D01*
Y0113*
X01955Y00225D02*
X02135Y00045D01*
X02Y0185D02*
X02005Y01845D01*
X0123Y019D02*
X01292D01*
X02045Y02745D02*
Y02775D01*
X01355Y02155D02*
X01364D01*
X0064Y00725D02*
X0078D01*
X01339Y01876D02*
X01363Y019D01*
X0143*
X01583Y0213D02*
Y02149D01*
X01569Y02116D02*
X01583Y0213D01*
X01553Y021D02*
X01576D01*
X01599Y02123*
Y02146*
X01545Y02188D02*
Y0219D01*
X01403Y02116D02*
X01569D01*
X01364Y02155D02*
X01403Y02116D01*
X0166Y0218D02*
Y0219D01*
X01641Y02161D02*
X0166Y0218D01*
X01599Y02146D02*
X0161Y02157D01*
X01629*
X01634Y02162*
X01639*
X01619Y02186D02*
X0162Y02187D01*
X01615Y0219D02*
X0162D01*
X02Y0184D02*
X02005Y01835D01*
Y01425D02*
Y01835D01*
X01641Y01374D02*
X01642Y01375D01*
X01988Y01408D02*
X02005Y01425D01*
X0194Y01408D02*
X01988D01*
X01642Y01375D02*
Y01422D01*
X01729Y00501D02*
X02005Y00776D01*
Y01425*
X00165Y0012D02*
X00181D01*
X00215Y00153D02*
X00356D01*
X0036Y0015*
X00181Y0012D02*
X00215Y00153D01*
X00458Y00526D02*
Y00534D01*
X00499Y00515D02*
X005Y00516D01*
X00534*
X00535Y00515*
X00458Y00526D02*
X00469Y00515D01*
X00499*
X01665Y00225D02*
Y00496D01*
Y00225D02*
X01955D01*
X00785Y0071D02*
X0079Y00714D01*
X00785Y0071D02*
X00785D01*
X01665Y01355D02*
X01886D01*
X0194Y01408*
X01642Y01422D02*
X0166Y0144D01*
X0135Y0216D02*
X01355Y02155D01*
X01245Y0216D02*
X0135D01*
X01208Y02196D02*
X01245Y0216D01*
X01188Y01876D02*
X01339D01*
X01181Y02223D02*
X01194D01*
X01208Y02209*
Y02196D02*
Y02209D01*
X01115Y0229D02*
Y0259D01*
Y0229D02*
X01181Y02223D01*
X01875Y00935D02*
Y0094D01*
X00444Y00548D02*
X00458Y00534D01*
X00385Y00555D02*
X00391Y00548D01*
X00444*
X01641Y01278D02*
Y01374D01*
X01278Y0112D02*
Y01189D01*
X01641Y01278D02*
X0173Y0119D01*
X0184Y0108*
X0145Y00689D02*
X01464Y00675D01*
Y0067D02*
Y00675D01*
X01445Y00689D02*
X0145D01*
X01336Y00798D02*
X01445Y00689D01*
X01336Y00798D02*
Y00868D01*
X0134Y00871D02*
Y00875D01*
X00965Y0141D02*
X01005Y0145D01*
Y01465*
X0105Y0124D02*
X0115D01*
X0119Y0128*
X01545Y02188D02*
X01569Y02163D01*
X01583Y02149*
X00035Y00835D02*
X00125Y00745D01*
Y00735D02*
Y00745D01*
X00241Y00834D02*
X00304D01*
X0011Y00965D02*
X00241Y00834D01*
X0011Y00965D02*
X00127Y00982D01*
X00152*
G54D37*
X01885Y0072D02*
Y00732D01*
X01795Y0074D02*
X01815Y0072D01*
X0185D02*
X01885D01*
X01815D02*
X0185D01*
X01685Y01814D02*
X0169Y0181D01*
X0163Y01814D02*
X01685D01*
X01536Y01908D02*
X0163Y01814D01*
X01815Y0069D02*
Y0072D01*
X0185Y0069D02*
Y0072D01*
X01815Y0069D02*
X0185D01*
X01885*
Y0072*
X01923Y0077D02*
Y00828D01*
X01885Y00732D02*
X01923Y0077D01*
Y00828D02*
X01935Y0084D01*
Y00843*
X01601Y00763D02*
X01618Y0078D01*
X0174*
X01563Y00763D02*
X01601D01*
X01546Y0078D02*
X01563Y00763D01*
X0179Y00735D02*
X01795Y0074D01*
X01735Y00735D02*
X0179D01*
X01735D02*
X0174Y0074D01*
Y0078*
X0146D02*
X01546D01*
X01431Y00808D02*
X0146Y0078D01*
X01431Y00808D02*
X01431Y00809D01*
Y00825*
G54D38*
X0217Y00985D02*
Y0137D01*
X02085Y009D02*
X0217Y00985D01*
X02285Y0069D02*
Y007D01*
X02085Y009D02*
X02285Y007D01*
X0144Y00655D02*
Y00665D01*
X01115Y0053D02*
X01315D01*
X0144Y00655*
G54D44*
X0028Y0185D02*
X00295Y01865D01*
X00347D02*
X00645Y01566D01*
Y01046D02*
Y01566D01*
X00295Y01865D02*
X00347D01*
X00645Y01046D02*
X00656Y01035D01*
X00713*
X00715Y01033*
Y0103D02*
Y01033D01*
X00275Y01855D02*
X0028Y0185D01*
G54D50*
X00365Y02835D03*
X0021D03*
G54D51*
X0219Y0184D03*
G54D52*
X0161Y0006D03*
X01246D03*
G54D54*
X0006Y0117D03*
Y0157D03*
X00065Y0198D03*
X0007Y02385D03*
X0006Y0276D03*
Y03045D03*
X00295D03*
X0165Y02985D03*
X0061Y02885D03*
X0034Y0264D03*
X00545Y0257D03*
X00365Y0121D03*
X00415Y01065D03*
X0251Y0172D03*
X02545Y0145D03*
X0254Y0121D03*
X0259Y0089D03*
X02585Y0061D03*
X02885Y0019D03*
X02605Y00195D03*
X0238D03*
X0138Y0022D03*
X01455D03*
X01623Y01025D03*
X0132Y009D03*
X0129Y0099D03*
X0088Y0115D03*
X00965Y0131D03*
X01325Y0145D03*
X0263Y01545D03*
Y0157D03*
Y01595D03*
Y01625D03*
X02605Y01535D03*
Y0156D03*
Y01585D03*
Y0161D03*
Y01635D03*
X0217Y0137D03*
X02085Y009D03*
X019Y01785D03*
X01945D03*
X01815Y0072D03*
X01885D03*
X0052Y0193D03*
X01637Y01768D03*
X01585D03*
X01534D03*
X01483D03*
X01432D03*
X01381D03*
X01329D03*
X01278D03*
X01227D03*
X01176D03*
X01125D03*
X01637Y01717D03*
X01585D03*
X01534D03*
X01483D03*
X01432D03*
X01381D03*
X01329D03*
X01278D03*
X01227D03*
X01176D03*
X01125D03*
X01637Y01666D03*
X01585D03*
X01534D03*
X01483D03*
X01432D03*
X01381D03*
X01329D03*
X01278D03*
X01227D03*
X01176D03*
X01637Y01615D03*
X01585D03*
X01483D03*
X01432D03*
X01381D03*
X01278D03*
X01227D03*
X01176D03*
X01125D03*
Y01666D03*
X01534Y01615D03*
X01329D03*
X01115Y0053D03*
X0185Y0072D03*
X0036Y0015D03*
X01849Y01784D03*
X0169Y0181D03*
X00755Y00275D03*
X0168Y02885D03*
X0197Y0108D03*
X00902Y00997D03*
X00905Y0113D03*
X02135Y00045D03*
X0053Y0088D03*
X0154Y00425D03*
X01585D03*
X02Y0185D03*
X0177Y0161D03*
X0111Y02655D03*
X0123Y019D03*
X02045Y02775D03*
X01545Y0219D03*
X0069Y01155D03*
X0064Y00725D03*
X0165Y0288D03*
X0162Y02887D03*
X0154Y0288D03*
X01586D03*
X0045Y01825D03*
X02055Y01785D03*
X01625Y0284D03*
X0143Y019D03*
X01536Y01908D03*
X0166Y0219D03*
X0162D03*
X01005Y01595D03*
X02005Y01425D03*
X02065Y01475D03*
X01815Y0069D03*
X0185D03*
X01885D03*
X01895Y00815D03*
X01775Y0081D03*
X01935Y00843D03*
X0082Y00285D03*
X00165Y0012D03*
X00095Y00395D03*
X0033Y0046D03*
X00385Y00595D03*
Y00555D03*
X00125Y00735D03*
X0073Y0106D03*
X00715Y0103D03*
X00695Y0139D03*
X0034Y02325D03*
X00345Y02265D03*
X00285Y0226D03*
X02285Y0069D03*
X01665Y00225D03*
X0144Y00665D03*
X0158Y0082D03*
X01735Y00735D03*
X00885Y0095D03*
X00785Y0071D03*
X01665Y01355D03*
X0037Y0097D03*
X0166Y0144D03*
X00785Y01415D03*
X00855Y0143D03*
X0094Y012D03*
X0112Y0217D03*
X01115Y0259D03*
X00555Y0104D03*
X0045Y00887D03*
X00275Y01855D03*
X01875Y0094D03*
X00135Y004D03*
X0133Y01195D03*
X01324Y01247D03*
X01265Y0121D03*
X0148Y0127D03*
X0173Y0119D03*
X01555Y01265D03*
X01635Y01245D03*
X00995Y00895D03*
X01023Y00879D03*
X0108Y0099D03*
X0122Y00975D03*
X01195Y0095D03*
X01431Y00825D03*
X01457Y00747D03*
X01275Y0085D03*
X0134Y00875D03*
X0105Y0124D03*
X01005Y01465D03*
X0119Y0128D03*
X01585Y0218D03*
X0156Y0214D03*
X00285Y0073D03*
X00304Y00834D03*
X00035Y00835D03*
X00152Y00982D03*
G54D55*
X02475Y02895D03*
X02395Y02925D03*
X02705Y0251D03*
X0266Y02555D03*
X02605Y0251D03*
X02655Y0246D03*
X02435Y02875D03*
X0249Y02935D03*
X02425Y02955D03*
X02655Y0251D03*
X0239Y0288D03*
G54D57*
X00582Y00594D03*
Y00641D03*
Y00688D03*
Y00735D03*
X00535Y00594D03*
Y00641D03*
Y00688D03*
Y00735D03*
X00488Y00594D03*
Y00641D03*
Y00688D03*
Y00735D03*
X00441Y00594D03*
Y00641D03*
Y00688D03*
Y00735D03*
M02*