%FSTAX23Y23*%
%MOIN*%
%SFA1B1*%

%IPPOS*%
%ADD45C,0.009840*%
%ADD47C,0.011810*%
%ADD95C,0.023620*%
%ADD96C,0.010000*%
%ADD97C,0.005910*%
%ADD98C,0.001180*%
%ADD99C,0.007870*%
%ADD100C,0.003940*%
%ADD101C,0.002000*%
%LNninja_ecu_pcb-1*%
%LPD*%
G54D45*
X0285Y02318D02*
D01*
X0285Y02319*
X0285Y02319*
X0285Y02319*
X0285Y0232*
X0285Y0232*
X0285Y0232*
X0285Y02321*
X02849Y02321*
X02849Y02321*
X02849Y02321*
X02849Y02322*
X02849Y02322*
X02848Y02322*
X02848Y02322*
X02848Y02323*
X02847Y02323*
X02847Y02323*
X02847Y02323*
X02846Y02323*
X02846Y02323*
X02846Y02323*
X02845Y02323*
X02845*
X02845Y02323*
X02844Y02323*
X02844Y02323*
X02844Y02323*
X02843Y02323*
X02843Y02323*
X02843Y02323*
X02843Y02322*
X02842Y02322*
X02842Y02322*
X02842Y02322*
X02842Y02321*
X02841Y02321*
X02841Y02321*
X02841Y02321*
X02841Y0232*
X02841Y0232*
X02841Y0232*
X0284Y02319*
X0284Y02319*
X0284Y02319*
X0284Y02318*
X0284Y02318*
X0284Y02318*
X0284Y02317*
X02841Y02317*
X02841Y02317*
X02841Y02316*
X02841Y02316*
X02841Y02316*
X02841Y02315*
X02842Y02315*
X02842Y02315*
X02842Y02315*
X02842Y02314*
X02843Y02314*
X02843Y02314*
X02843Y02314*
X02843Y02314*
X02844Y02314*
X02844Y02314*
X02844Y02313*
X02845Y02313*
X02845Y02313*
X02845*
X02846Y02313*
X02846Y02313*
X02846Y02314*
X02847Y02314*
X02847Y02314*
X02847Y02314*
X02848Y02314*
X02848Y02314*
X02848Y02314*
X02849Y02315*
X02849Y02315*
X02849Y02315*
X02849Y02315*
X02849Y02316*
X0285Y02316*
X0285Y02316*
X0285Y02317*
X0285Y02317*
X0285Y02317*
X0285Y02318*
X0285Y02318*
X0285Y02318*
X01729Y02076D02*
D01*
X01729Y02077*
X01729Y02077*
X01728Y02077*
X01728Y02078*
X01728Y02078*
X01728Y02078*
X01728Y02078*
X01728Y02079*
X01728Y02079*
X01727Y02079*
X01727Y0208*
X01727Y0208*
X01727Y0208*
X01726Y0208*
X01726Y0208*
X01726Y02081*
X01725Y02081*
X01725Y02081*
X01725Y02081*
X01724Y02081*
X01724Y02081*
X01724Y02081*
X01723*
X01723Y02081*
X01723Y02081*
X01722Y02081*
X01722Y02081*
X01722Y02081*
X01721Y02081*
X01721Y0208*
X01721Y0208*
X01721Y0208*
X0172Y0208*
X0172Y0208*
X0172Y02079*
X0172Y02079*
X01719Y02079*
X01719Y02078*
X01719Y02078*
X01719Y02078*
X01719Y02078*
X01719Y02077*
X01719Y02077*
X01719Y02077*
X01719Y02076*
X01719Y02076*
X01719Y02076*
X01719Y02075*
X01719Y02075*
X01719Y02075*
X01719Y02074*
X01719Y02074*
X01719Y02074*
X0172Y02073*
X0172Y02073*
X0172Y02073*
X0172Y02073*
X01721Y02072*
X01721Y02072*
X01721Y02072*
X01721Y02072*
X01722Y02072*
X01722Y02072*
X01722Y02071*
X01723Y02071*
X01723Y02071*
X01723Y02071*
X01724*
X01724Y02071*
X01724Y02071*
X01725Y02071*
X01725Y02072*
X01725Y02072*
X01726Y02072*
X01726Y02072*
X01726Y02072*
X01727Y02072*
X01727Y02073*
X01727Y02073*
X01727Y02073*
X01728Y02073*
X01728Y02074*
X01728Y02074*
X01728Y02074*
X01728Y02075*
X01728Y02075*
X01728Y02075*
X01729Y02076*
X01729Y02076*
X01729Y02076*
X00689Y01723D02*
D01*
X00689Y01723*
X00689Y01724*
X00689Y01724*
X00689Y01724*
X00689Y01725*
X00689Y01725*
X00688Y01725*
X00688Y01726*
X00688Y01726*
X00688Y01726*
X00688Y01726*
X00687Y01727*
X00687Y01727*
X00687Y01727*
X00687Y01727*
X00686Y01727*
X00686Y01728*
X00686Y01728*
X00685Y01728*
X00685Y01728*
X00685Y01728*
X00684Y01728*
X00684*
X00684Y01728*
X00683Y01728*
X00683Y01728*
X00683Y01728*
X00682Y01728*
X00682Y01727*
X00682Y01727*
X00681Y01727*
X00681Y01727*
X00681Y01727*
X00681Y01726*
X0068Y01726*
X0068Y01726*
X0068Y01726*
X0068Y01725*
X0068Y01725*
X00679Y01725*
X00679Y01724*
X00679Y01724*
X00679Y01724*
X00679Y01723*
X00679Y01723*
X00679Y01723*
X00679Y01722*
X00679Y01722*
X00679Y01722*
X00679Y01721*
X0068Y01721*
X0068Y01721*
X0068Y0172*
X0068Y0172*
X0068Y0172*
X00681Y0172*
X00681Y01719*
X00681Y01719*
X00681Y01719*
X00682Y01719*
X00682Y01719*
X00682Y01718*
X00683Y01718*
X00683Y01718*
X00683Y01718*
X00684Y01718*
X00684Y01718*
X00684*
X00685Y01718*
X00685Y01718*
X00685Y01718*
X00686Y01718*
X00686Y01718*
X00686Y01719*
X00687Y01719*
X00687Y01719*
X00687Y01719*
X00687Y01719*
X00688Y0172*
X00688Y0172*
X00688Y0172*
X00688Y0172*
X00688Y01721*
X00689Y01721*
X00689Y01721*
X00689Y01722*
X00689Y01722*
X00689Y01722*
X00689Y01723*
X00689Y01723*
X01963Y02105D02*
D01*
X01963Y02105*
X01963Y02106*
X01963Y02106*
X01963Y02106*
X01963Y02107*
X01963Y02107*
X01962Y02107*
X01962Y02108*
X01962Y02108*
X01962Y02108*
X01962Y02108*
X01961Y02109*
X01961Y02109*
X01961Y02109*
X01961Y02109*
X0196Y02109*
X0196Y02109*
X0196Y0211*
X01959Y0211*
X01959Y0211*
X01959Y0211*
X01958Y0211*
X01958*
X01958Y0211*
X01957Y0211*
X01957Y0211*
X01957Y0211*
X01956Y02109*
X01956Y02109*
X01956Y02109*
X01955Y02109*
X01955Y02109*
X01955Y02109*
X01955Y02108*
X01954Y02108*
X01954Y02108*
X01954Y02108*
X01954Y02107*
X01954Y02107*
X01953Y02107*
X01953Y02106*
X01953Y02106*
X01953Y02106*
X01953Y02105*
X01953Y02105*
X01953Y02105*
X01953Y02104*
X01953Y02104*
X01953Y02104*
X01953Y02103*
X01954Y02103*
X01954Y02103*
X01954Y02102*
X01954Y02102*
X01954Y02102*
X01955Y02102*
X01955Y02101*
X01955Y02101*
X01955Y02101*
X01956Y02101*
X01956Y02101*
X01956Y021*
X01957Y021*
X01957Y021*
X01957Y021*
X01958Y021*
X01958Y021*
X01958*
X01959Y021*
X01959Y021*
X01959Y021*
X0196Y021*
X0196Y021*
X0196Y02101*
X01961Y02101*
X01961Y02101*
X01961Y02101*
X01961Y02101*
X01962Y02102*
X01962Y02102*
X01962Y02102*
X01962Y02102*
X01962Y02103*
X01963Y02103*
X01963Y02103*
X01963Y02104*
X01963Y02104*
X01963Y02104*
X01963Y02105*
X01963Y02105*
G54D47*
X04213Y02015D02*
X04469D01*
Y01903D02*
Y02015D01*
X04213Y01903D02*
X04469D01*
X04213D02*
Y02015D01*
G54D95*
X02954Y02257D02*
D01*
X02954Y02258*
X02953Y02259*
X02953Y0226*
X02953Y02261*
X02953Y02261*
X02953Y02262*
X02952Y02263*
X02952Y02264*
X02951Y02264*
X02951Y02265*
X0295Y02265*
X0295Y02266*
X02949Y02267*
X02948Y02267*
X02948Y02267*
X02947Y02268*
X02946Y02268*
X02945Y02268*
X02945Y02269*
X02944Y02269*
X02943Y02269*
X02942Y02269*
X02941*
X02941Y02269*
X0294Y02269*
X02939Y02269*
X02938Y02268*
X02937Y02268*
X02937Y02268*
X02936Y02267*
X02935Y02267*
X02934Y02267*
X02934Y02266*
X02933Y02265*
X02933Y02265*
X02932Y02264*
X02932Y02264*
X02931Y02263*
X02931Y02262*
X02931Y02261*
X0293Y02261*
X0293Y0226*
X0293Y02259*
X0293Y02258*
X0293Y02257*
X0293Y02256*
X0293Y02256*
X0293Y02255*
X0293Y02254*
X02931Y02253*
X02931Y02252*
X02931Y02252*
X02932Y02251*
X02932Y0225*
X02933Y0225*
X02933Y02249*
X02934Y02248*
X02934Y02248*
X02935Y02247*
X02936Y02247*
X02937Y02247*
X02937Y02246*
X02938Y02246*
X02939Y02246*
X0294Y02246*
X02941Y02246*
X02941Y02245*
X02942*
X02943Y02246*
X02944Y02246*
X02945Y02246*
X02945Y02246*
X02946Y02246*
X02947Y02247*
X02948Y02247*
X02948Y02247*
X02949Y02248*
X0295Y02248*
X0295Y02249*
X02951Y0225*
X02951Y0225*
X02952Y02251*
X02952Y02252*
X02953Y02252*
X02953Y02253*
X02953Y02254*
X02953Y02255*
X02953Y02256*
X02954Y02256*
X02954Y02257*
G54D96*
X02796Y02804D02*
D01*
X02796Y02804*
X02796Y02805*
X02796Y02805*
X02795Y02806*
X02795Y02806*
X02795Y02807*
X02795Y02807*
X02794Y02808*
X02794Y02808*
X02794Y02809*
X02793Y02809*
X02793Y0281*
X02793Y0281*
X02792Y0281*
X02792Y02811*
X02791Y02811*
X02791Y02811*
X0279Y02811*
X02789Y02812*
X02789Y02812*
X02788Y02812*
X02788Y02812*
X02787*
X02787Y02812*
X02786Y02812*
X02786Y02812*
X02785Y02811*
X02784Y02811*
X02784Y02811*
X02783Y02811*
X02783Y0281*
X02782Y0281*
X02782Y0281*
X02782Y02809*
X02781Y02809*
X02781Y02808*
X02781Y02808*
X0278Y02807*
X0278Y02807*
X0278Y02806*
X0278Y02806*
X02779Y02805*
X02779Y02805*
X02779Y02804*
X02779Y02804*
X02779Y02803*
X02779Y02802*
X02779Y02802*
X0278Y02801*
X0278Y02801*
X0278Y028*
X0278Y028*
X02781Y02799*
X02781Y02799*
X02781Y02798*
X02782Y02798*
X02782Y02797*
X02782Y02797*
X02783Y02797*
X02783Y02796*
X02784Y02796*
X02784Y02796*
X02785Y02796*
X02786Y02795*
X02786Y02795*
X02787Y02795*
X02787Y02795*
X02788*
X02788Y02795*
X02789Y02795*
X02789Y02795*
X0279Y02796*
X02791Y02796*
X02791Y02796*
X02792Y02796*
X02792Y02797*
X02793Y02797*
X02793Y02797*
X02793Y02798*
X02794Y02798*
X02794Y02799*
X02794Y02799*
X02795Y028*
X02795Y028*
X02795Y02801*
X02795Y02801*
X02796Y02802*
X02796Y02802*
X02796Y02803*
X02796Y02804*
X02265Y02934D02*
X0234D01*
X0219Y02687D02*
Y02875D01*
X02265Y02596D02*
X02341D01*
X02416Y02688D02*
Y02875D01*
X01608Y02988D02*
X01866D01*
X02023D02*
X02282D01*
X01608D02*
Y03661D01*
X01866*
X02282Y02988D02*
Y03661D01*
X02023D02*
X02282D01*
X00863Y02988D02*
X01121D01*
X01278D02*
X01537D01*
X00863D02*
Y03661D01*
X01121*
X01537Y02988D02*
Y03661D01*
X01278D02*
X01537D01*
X0174Y0277D02*
X01958D01*
X01645Y02605D02*
Y0263D01*
Y02605D02*
X0173D01*
X02044D02*
Y0263D01*
X01959Y02605D02*
X02044D01*
X02987Y03056D02*
Y03498D01*
X02403D02*
X02987D01*
X02403Y03056D02*
X02987D01*
X02403D02*
Y03498D01*
X03479Y03475D02*
Y035D01*
X03394Y03475D02*
X03479D01*
X03175Y0364D02*
X03393D01*
X0308Y03475D02*
X03165D01*
X0308D02*
Y035D01*
X03885Y03475D02*
Y035D01*
X038Y03475D02*
X03885D01*
X0363Y0364D02*
X0379D01*
X03535Y03475D02*
X0362D01*
X03535D02*
Y035D01*
X04425Y02308D02*
Y02357D01*
Y02732D02*
Y02782D01*
X04585Y02307D02*
X0463D01*
X04425D02*
X0446D01*
X04425Y02782D02*
X0446D01*
X04585D02*
X0463D01*
Y02307D02*
Y02782D01*
X02335Y02194D02*
Y02412D01*
X0217Y02507D02*
X02195D01*
X0217Y02422D02*
Y02507D01*
Y02108D02*
X02195D01*
X0217D02*
Y02193D01*
X02764Y02768D02*
X02814D01*
Y02704D02*
Y02768D01*
Y0256D02*
Y02624D01*
X02764Y0256D02*
X02814D01*
X02438Y02706D02*
Y0277D01*
X02488*
X02438Y0256D02*
Y02624D01*
Y0256D02*
X02488D01*
X0455Y03125D02*
X04598D01*
X04125D02*
X04175D01*
X046Y03285D02*
Y0333D01*
Y03125D02*
Y0316D01*
X04125Y03125D02*
Y0316D01*
Y03285D02*
Y0333D01*
X046*
X04455Y03635D02*
X04673D01*
X0436Y0347D02*
Y03495D01*
Y0347D02*
X04445D01*
X04759D02*
Y03495D01*
X04674Y0347D02*
X04759D01*
X04982Y03197D02*
Y03415D01*
X04817Y0351D02*
X04842D01*
X04817Y03425D02*
Y0351D01*
Y03111D02*
X04842D01*
X04817D02*
Y03196D01*
X04815Y0297D02*
Y03055D01*
X0484*
X0498Y028D02*
Y0296D01*
X04815Y02705D02*
X0484D01*
X04815D02*
Y0279D01*
Y02565D02*
Y0265D01*
X0484*
X0498Y02395D02*
Y02555D01*
X04815Y023D02*
X0484D01*
X04815D02*
Y02385D01*
Y0216D02*
Y02245D01*
X0484*
X0498Y0199D02*
Y0215D01*
X04815Y01895D02*
X0484D01*
X04815D02*
Y0198D01*
Y01755D02*
Y0184D01*
X0484*
X0498Y01585D02*
Y01745D01*
X04815Y0149D02*
X0484D01*
X04815D02*
Y01575D01*
X0339Y01455D02*
X03475D01*
Y0143D02*
Y01455D01*
X0322Y0129D02*
X0338D01*
X03125Y0143D02*
Y01455D01*
X0321*
X02985D02*
X0307D01*
Y0143D02*
Y01455D01*
X02815Y0129D02*
X02975D01*
X0272Y0143D02*
Y01455D01*
X02805*
X00705Y02522D02*
Y02826D01*
X00845Y02427D02*
X0087D01*
Y02512*
X00845Y02924D02*
X0087D01*
Y02839D02*
Y02924D01*
X0124Y02212D02*
Y0243D01*
X01075Y02525D02*
X011D01*
X01075Y0244D02*
Y02525D01*
Y02126D02*
X011D01*
X01075D02*
Y02211D01*
X03508Y02605D02*
Y02606D01*
X0135Y01265D02*
Y0131D01*
Y01265D02*
X01825D01*
X0135Y01435D02*
Y0147D01*
X01351D02*
X014D01*
X01825Y01265D02*
Y0131D01*
X01775Y0147D02*
X01825D01*
Y01435D02*
Y0147D01*
G54D97*
X01557Y03646D02*
X01583D01*
X0157Y03633D02*
Y03659D01*
X00812Y03646D02*
X00838D01*
X00825Y03633D02*
Y03659D01*
X02943Y03619D02*
X02959D01*
X02951Y03611D02*
Y03627D01*
X04224Y02153D02*
Y02169D01*
X04216Y02161D02*
X04232D01*
X03919Y02273D02*
Y02289D01*
X03911Y02281D02*
X03927D01*
X03919Y02146D02*
Y02162D01*
X03911Y02154D02*
X03927D01*
X03919Y02019D02*
Y02035D01*
X03911Y02027D02*
X03927D01*
X03919Y01893D02*
Y01909D01*
X03911Y01901D02*
X03927D01*
X03018Y03396D02*
X03034D01*
X03026Y03388D02*
Y03404D01*
X02378Y01911D02*
X02394D01*
X02386Y01903D02*
Y01919D01*
X02336Y01799D02*
X02352D01*
X02344Y01791D02*
Y01807D01*
X01796Y02526D02*
Y02542D01*
X01788Y02534D02*
X01804D01*
X01451Y02249D02*
X01467D01*
X01459Y02241D02*
Y02257D01*
X02384Y03523D02*
Y03539D01*
X02376Y03531D02*
X02392D01*
G54D98*
X02156Y01384D02*
Y0139D01*
X02153Y01387D02*
X02159D01*
X03634Y0134D02*
Y01346D01*
X03631Y01343D02*
X03637D01*
X02774Y02005D02*
Y02011D01*
X02771Y02008D02*
X02777D01*
X02127Y02555D02*
Y02561D01*
X02124Y02558D02*
X0213D01*
X03541Y01726D02*
Y01732D01*
X03538Y01729D02*
X03544D01*
X0351Y02431D02*
X03516D01*
X03513Y02428D02*
Y02434D01*
G54D99*
X02766Y03523D02*
X02844D01*
X02766Y03626D02*
X02844D01*
X0433Y02153D02*
X04408D01*
X0433Y02256D02*
X04408D01*
X04025Y02273D02*
X04103D01*
X04025Y02376D02*
X04103D01*
X04025Y02147D02*
X04103D01*
X04025Y02249D02*
X04103D01*
X04025Y0202D02*
X04103D01*
X04025Y02122D02*
X04103D01*
X04025Y01893D02*
X04103D01*
X04025Y01996D02*
X04103D01*
X02902Y01812D02*
Y02297D01*
X03387Y01812D02*
Y02297D01*
X02902D02*
X03387D01*
X02902Y01812D02*
X03387D01*
X03017Y0271D02*
Y0301D01*
Y0271D02*
X03117D01*
Y0301*
X03017D02*
X03117D01*
X03018Y03211D02*
Y03289D01*
X03121Y03211D02*
Y03289D01*
X03766Y03352D02*
X03884D01*
X03766Y03332D02*
X03884D01*
Y03352*
X03766Y03332D02*
Y03352D01*
X03626D02*
X03744D01*
X03626Y03332D02*
X03744D01*
Y03352*
X03626Y03332D02*
Y03352D01*
X0173Y01684D02*
Y01701D01*
X01713Y01684D02*
X0173D01*
X01359D02*
X01376D01*
X01359D02*
Y01701D01*
Y02038D02*
Y02055D01*
X01376*
X0173Y02038D02*
Y02055D01*
X01713D02*
X0173D01*
X02378Y01726D02*
Y01804D01*
X02481Y01726D02*
Y01804D01*
X00696Y01788D02*
X00893D01*
X00696Y01851D02*
X00893D01*
X00696Y01788D02*
Y01851D01*
X00893Y01788D02*
Y01851D01*
X02351Y01905D02*
Y01983D01*
X02248Y01905D02*
Y01983D01*
X02023Y01896D02*
X02086D01*
X02023Y02093D02*
X02086D01*
Y01896D02*
Y02093D01*
X02023Y01896D02*
Y02093D01*
X01611Y02541D02*
X01689D01*
X01611Y02438D02*
X01689D01*
X01466Y02355D02*
Y02433D01*
X01363Y02355D02*
Y02433D01*
X0249Y03523D02*
X02568D01*
X0249Y03626D02*
X02568D01*
G54D100*
X02498Y02068D02*
Y02304D01*
X02636Y02068D02*
Y02304D01*
X02485Y02335D02*
Y02345D01*
X0248Y0234D02*
X0249D01*
X0253Y02435D02*
Y02445D01*
X02525Y0244D02*
X02535D01*
X03923Y03572D02*
X04318D01*
X03923Y03372D02*
Y03572D01*
Y03372D02*
X04318D01*
Y03572*
Y03572D02*
Y03644D01*
X03923D02*
X04318D01*
X03923Y03572D02*
Y03644D01*
X03729Y01539D02*
Y01549D01*
X03724Y01544D02*
X03734D01*
X03729Y01339D02*
Y01349D01*
X03724Y01344D02*
X03734D01*
X03729Y01439D02*
Y01449D01*
X03724Y01444D02*
X03734D01*
X02499Y01473D02*
Y01483D01*
X02494Y01478D02*
X02504D01*
X02499Y01373D02*
Y01383D01*
X02494Y01378D02*
X02504D01*
X02499Y01273D02*
Y01283D01*
X02494Y01278D02*
X02504D01*
X013Y01325D02*
Y01335D01*
X01295Y0133D02*
X01305D01*
X01848Y02424D02*
X02084D01*
X01848Y02286D02*
X02084D01*
X035Y02615D02*
Y02629D01*
X03484Y02614D02*
X035D01*
Y02756D02*
Y02772D01*
X03484D02*
X035D01*
X03342D02*
X03358D01*
X03342Y02756D02*
Y02772D01*
Y02614D02*
Y0263D01*
Y02614D02*
X03357D01*
G54D101*
X01855Y02915D02*
X01869D01*
Y02907*
X01867Y02905*
X01862*
X0186Y02907*
Y02915*
Y0291D02*
X01855Y02905D01*
X01857Y029D02*
X01855Y02897D01*
Y02892*
X01857Y0289*
X01867*
X01869Y02892*
Y02897*
X01867Y029*
X01865*
X01862Y02897*
Y0289*
X01869Y02875D02*
X01867Y0288D01*
X01862Y02885*
X01857*
X01855Y02882*
Y02877*
X01857Y02875*
X0186*
X01862Y02877*
Y02885*
X0165Y02809D02*
Y028D01*
X01655Y02795*
X0166Y028*
Y02809*
X01667Y02805D02*
X01672D01*
X01674Y02802*
Y02795*
X01667*
X01664Y02797*
X01667Y028*
X01674*
X01679Y02795D02*
X01684D01*
X01682*
Y02809*
X01679*
X01692Y02805D02*
X01697Y02795D01*
X01702Y02805*
X01714Y02795D02*
X01709D01*
X01707Y02797*
Y02802*
X01709Y02805*
X01714*
X01717Y02802*
Y028*
X01707*
X01722Y02795D02*
X01727D01*
X01724*
Y02809*
X01722Y02807*
X0213Y0239D02*
X02115Y0238D01*
X0213D02*
X02115Y0239D01*
X02127Y02375D02*
X0213Y02372D01*
Y02367*
X02127Y02365*
X02125*
X02122Y02367*
Y0237*
Y02367*
X0212Y02365*
X02117*
X02115Y02367*
Y02372*
X02117Y02375*
X0274Y02339D02*
X0275Y02325D01*
Y02339D02*
X0274Y02325D01*
X02764D02*
X02755D01*
X02764Y02335*
Y02337*
X02762Y02339*
X02757*
X02755Y02337*
X0251Y02335D02*
X0252Y0232D01*
Y02335D02*
X0251Y0232D01*
X02525D02*
X02529D01*
X02527*
Y02335*
X02525Y02332*
X0117Y02575D02*
Y02562D01*
X01172Y0256*
X01177*
X0118Y02562*
Y02575*
X01194Y02572D02*
X01192Y02575D01*
X01187*
X01185Y02572*
Y0257*
X01187Y02567*
X01192*
X01194Y02565*
Y02562*
X01192Y0256*
X01187*
X01185Y02562*
X01199Y02575D02*
Y0256D01*
X01207*
X01209Y02562*
Y02565*
X01207Y02567*
X01199*
X01207*
X01209Y0257*
Y02572*
X01207Y02575*
X01199*
X01224Y0256D02*
X01214D01*
X01224Y0257*
Y02572*
X01222Y02575*
X01217*
X01214Y02572*
X0403Y03349D02*
Y03337D01*
X04032Y03335*
X04037*
X0404Y03337*
Y03349*
X04054Y03347D02*
X04052Y03349D01*
X04047*
X04044Y03347*
Y03345*
X04047Y03342*
X04052*
X04054Y0334*
Y03337*
X04052Y03335*
X04047*
X04044Y03337*
X04059Y03349D02*
Y03335D01*
X04067*
X04069Y03337*
Y0334*
X04067Y03342*
X04059*
X04067*
X04069Y03345*
Y03347*
X04067Y03349*
X04059*
X04074Y03335D02*
X04079D01*
X04077*
Y03349*
X04074Y03347*
X03325Y02828D02*
Y02816D01*
X03327Y02814*
X03332*
X03335Y02816*
Y02828*
X03339Y02816D02*
X03342Y02814D01*
X03347*
X03349Y02816*
Y02826*
X03347Y02828*
X03342*
X03339Y02826*
Y02824*
X03342Y02821*
X03349*
X00675Y01994D02*
Y01982D01*
X00677Y0198*
X00682*
X00685Y01982*
Y01994*
X00689Y01992D02*
X00692Y01994D01*
X00697*
X00699Y01992*
Y0199*
X00697Y01987*
X00699Y01985*
Y01982*
X00697Y0198*
X00692*
X00689Y01982*
Y01985*
X00692Y01987*
X00689Y0199*
Y01992*
X00692Y01987D02*
X00697D01*
X01715Y02115D02*
Y02102D01*
X01717Y021*
X01722*
X01725Y02102*
Y02115*
X0173D02*
X01739D01*
Y02112*
X0173Y02102*
Y021*
X0205Y0213D02*
Y02117D01*
X02052Y02115*
X02057*
X0206Y02117*
Y0213*
X02074D02*
X02069Y02127D01*
X02065Y02122*
Y02117*
X02067Y02115*
X02072*
X02074Y02117*
Y0212*
X02072Y02122*
X02065*
X02335Y03474D02*
Y03462D01*
X02337Y0346*
X02342*
X02345Y03462*
Y03474*
X02357Y0346D02*
Y03474D01*
X02349Y03467*
X02359*
X0423Y01804D02*
Y01792D01*
X04232Y0179*
X04237*
X0424Y01792*
Y01804*
X04245Y01802D02*
X04247Y01804D01*
X04252*
X04254Y01802*
Y018*
X04252Y01797*
X04249*
X04252*
X04254Y01795*
Y01792*
X04252Y0179*
X04247*
X04245Y01792*
X0283Y02374D02*
Y02362D01*
X02832Y0236*
X02837*
X0284Y02362*
Y02374*
X02845Y0236D02*
X02849D01*
X02847*
Y02374*
X02845Y02372*
X0363Y03394D02*
X0364D01*
X03635*
Y0338*
X03654D02*
X03644D01*
X03654Y0339*
Y03392*
X03652Y03394*
X03647*
X03644Y03392*
X0377Y03394D02*
X0378D01*
X03775*
Y0338*
X03785D02*
X03789D01*
X03787*
Y03394*
X03785Y03392*
X03085Y02687D02*
X03082Y0269D01*
X03077*
X03075Y02687*
Y02685*
X03077Y02682*
X03082*
X03085Y0268*
Y02677*
X03082Y02675*
X03077*
X03075Y02677*
X03097Y02675D02*
X03092D01*
X03089Y02677*
Y02682*
X03092Y02685*
X03097*
X03099Y02682*
Y0268*
X03089*
X03104Y02685D02*
Y02675D01*
Y0268*
X03107Y02682*
X03109Y02685*
X03112*
X03119D02*
X03124Y02675D01*
X03129Y02685*
X03134Y02675D02*
X03139D01*
X03137*
Y0269*
X03134Y02687*
X0229Y02967D02*
X02287Y0297D01*
X02282*
X0228Y02967*
Y02965*
X02282Y02962*
X02287*
X0229Y0296*
Y02957*
X02287Y02955*
X02282*
X0228Y02957*
X02295Y02955D02*
X02299D01*
X02297*
Y0297*
X02295Y02967*
X04675Y0155D02*
Y01565D01*
X04682*
X04685Y01562*
Y01557*
X04682Y01555*
X04675*
X0468D02*
X04685Y0155D01*
X04689D02*
X04694D01*
X04692*
Y01565*
X04689Y01562*
X04702D02*
X04704Y01565D01*
X04709*
X04712Y01562*
Y01552*
X04709Y0155*
X04704*
X04702Y01552*
Y01562*
X04727Y0155D02*
X04717D01*
X04727Y0156*
Y01562*
X04724Y01565*
X04719*
X04717Y01562*
X0127Y01625D02*
Y0161D01*
X01262*
X0126Y01612*
Y01617*
X01262Y0162*
X0127*
X01265D02*
X0126Y01625D01*
X01255D02*
X0125D01*
X01252*
Y0161*
X01255Y01612*
X01242D02*
X0124Y0161D01*
X01235*
X01232Y01612*
Y01622*
X01235Y01625*
X0124*
X01242Y01622*
Y01612*
X01227Y01625D02*
X01222D01*
X01225*
Y0161*
X01227Y01612*
X0393Y03285D02*
Y03299D01*
X03937*
X0394Y03297*
Y03292*
X03937Y0329*
X0393*
X03935D02*
X0394Y03285D01*
X03944D02*
X03949D01*
X03947*
Y03299*
X03944Y03297*
X03957D02*
X03959Y03299D01*
X03964*
X03967Y03297*
Y03287*
X03964Y03285*
X03959*
X03957Y03287*
Y03297*
X03972D02*
X03974Y03299D01*
X03979*
X03982Y03297*
Y03287*
X03979Y03285*
X03974*
X03972Y03287*
Y03297*
X0134Y0285D02*
X01355D01*
Y02842*
X01352Y0284*
X01347*
X01345Y02842*
Y0285*
Y02845D02*
X0134Y0284D01*
X01342Y02835D02*
X0134Y02832D01*
Y02827*
X01342Y02825*
X01352*
X01355Y02827*
Y02832*
X01352Y02835*
X0135*
X01347Y02832*
Y02825*
X01342Y0282D02*
X0134Y02817D01*
Y02812*
X01342Y0281*
X01352*
X01355Y02812*
Y02817*
X01352Y0282*
X0135*
X01347Y02817*
Y0281*
X04595Y01515D02*
Y01529D01*
X04602*
X04605Y01527*
Y01522*
X04602Y0152*
X04595*
X046D02*
X04605Y01515D01*
X04609Y01517D02*
X04612Y01515D01*
X04617*
X04619Y01517*
Y01527*
X04617Y01529*
X04612*
X04609Y01527*
Y01525*
X04612Y01522*
X04619*
X04624Y01527D02*
X04627Y01529D01*
X04632*
X04634Y01527*
Y01525*
X04632Y01522*
X04634Y0152*
Y01517*
X04632Y01515*
X04627*
X04624Y01517*
Y0152*
X04627Y01522*
X04624Y01525*
Y01527*
X04627Y01522D02*
X04632D01*
X01898Y01436D02*
Y0145D01*
X01905*
X01908Y01448*
Y01443*
X01905Y01441*
X01898*
X01903D02*
X01908Y01436D01*
X01912Y01438D02*
X01915Y01436D01*
X0192*
X01922Y01438*
Y01448*
X0192Y0145*
X01915*
X01912Y01448*
Y01446*
X01915Y01443*
X01922*
X01927Y0145D02*
X01937D01*
Y01448*
X01927Y01438*
Y01436*
X04347Y02911D02*
Y02926D01*
X04354*
X04357Y02923*
Y02918*
X04354Y02916*
X04347*
X04352D02*
X04357Y02911D01*
X04362Y02913D02*
X04364Y02911D01*
X04369*
X04371Y02913*
Y02923*
X04369Y02926*
X04364*
X04362Y02923*
Y02921*
X04364Y02918*
X04371*
X04386Y02926D02*
X04376D01*
Y02918*
X04381Y02921*
X04384*
X04386Y02918*
Y02913*
X04384Y02911*
X04379*
X04376Y02913*
X0371Y01695D02*
Y0171D01*
X03717*
X0372Y01707*
Y01702*
X03717Y017*
X0371*
X03715D02*
X0372Y01695D01*
X03724Y01697D02*
X03727Y01695D01*
X03732*
X03734Y01697*
Y01707*
X03732Y0171*
X03727*
X03724Y01707*
Y01705*
X03727Y01702*
X03734*
X03747Y01695D02*
Y0171D01*
X03739Y01702*
X03749*
X03715Y01855D02*
Y01869D01*
X03722*
X03725Y01867*
Y01862*
X03722Y0186*
X03715*
X0372D02*
X03725Y01855D01*
X0373Y01857D02*
X03732Y01855D01*
X03737*
X03739Y01857*
Y01867*
X03737Y01869*
X03732*
X0373Y01867*
Y01865*
X03732Y01862*
X03739*
X03744Y01867D02*
X03747Y01869D01*
X03752*
X03754Y01867*
Y01865*
X03752Y01862*
X03749*
X03752*
X03754Y0186*
Y01857*
X03752Y01855*
X03747*
X03744Y01857*
X03715Y019D02*
Y01914D01*
X03722*
X03725Y01912*
Y01907*
X03722Y01905*
X03715*
X0372D02*
X03725Y019D01*
X0373Y01902D02*
X03732Y019D01*
X03737*
X03739Y01902*
Y01912*
X03737Y01914*
X03732*
X0373Y01912*
Y0191*
X03732Y01907*
X03739*
X03754Y019D02*
X03744D01*
X03754Y0191*
Y01912*
X03752Y01914*
X03747*
X03744Y01912*
X0454Y03055D02*
Y03069D01*
X04547*
X0455Y03067*
Y03062*
X04547Y0306*
X0454*
X04545D02*
X0455Y03055D01*
X04555Y03057D02*
X04557Y03055D01*
X04562*
X04564Y03057*
Y03067*
X04562Y03069*
X04557*
X04555Y03067*
Y03065*
X04557Y03062*
X04564*
X04569Y03055D02*
X04574D01*
X04572*
Y03069*
X04569Y03067*
X037Y01755D02*
Y01769D01*
X03707*
X0371Y01767*
Y01762*
X03707Y0176*
X037*
X03705D02*
X0371Y01755D01*
X03714Y01757D02*
X03717Y01755D01*
X03722*
X03724Y01757*
Y01767*
X03722Y01769*
X03717*
X03714Y01767*
Y01765*
X03717Y01762*
X03724*
X03729Y01767D02*
X03732Y01769D01*
X03737*
X03739Y01767*
Y01757*
X03737Y01755*
X03732*
X03729Y01757*
Y01767*
X0371Y01805D02*
Y0182D01*
X03717*
X0372Y01817*
Y01812*
X03717Y0181*
X0371*
X03715D02*
X0372Y01805D01*
X03724Y01817D02*
X03727Y0182D01*
X03732*
X03734Y01817*
Y01815*
X03732Y01812*
X03734Y0181*
Y01807*
X03732Y01805*
X03727*
X03724Y01807*
Y0181*
X03727Y01812*
X03724Y01815*
Y01817*
X03727Y01812D02*
X03732D01*
X03739Y01807D02*
X03742Y01805D01*
X03747*
X03749Y01807*
Y01817*
X03747Y0182*
X03742*
X03739Y01817*
Y01815*
X03742Y01812*
X03749*
X042Y0305D02*
Y03065D01*
X04207*
X0421Y03062*
Y03057*
X04207Y03055*
X042*
X04205D02*
X0421Y0305D01*
X04214Y03062D02*
X04217Y03065D01*
X04222*
X04224Y03062*
Y0306*
X04222Y03057*
X04224Y03055*
Y03052*
X04222Y0305*
X04217*
X04214Y03052*
Y03055*
X04217Y03057*
X04214Y0306*
Y03062*
X04217Y03057D02*
X04222D01*
X04229Y03062D02*
X04232Y03065D01*
X04237*
X04239Y03062*
Y0306*
X04237Y03057*
X04239Y03055*
Y03052*
X04237Y0305*
X04232*
X04229Y03052*
Y03055*
X04232Y03057*
X04229Y0306*
Y03062*
X04232Y03057D02*
X04237D01*
X0355Y0342D02*
Y03434D01*
X03557*
X0356Y03432*
Y03427*
X03557Y03425*
X0355*
X03555D02*
X0356Y0342D01*
X03565Y03432D02*
X03567Y03434D01*
X03572*
X03574Y03432*
Y0343*
X03572Y03427*
X03574Y03425*
Y03422*
X03572Y0342*
X03567*
X03565Y03422*
Y03425*
X03567Y03427*
X03565Y0343*
Y03432*
X03567Y03427D02*
X03572D01*
X03579Y03434D02*
X03589D01*
Y03432*
X03579Y03422*
Y0342*
X0337Y02915D02*
Y0293D01*
X03377*
X0338Y02927*
Y02922*
X03377Y0292*
X0337*
X03375D02*
X0338Y02915D01*
X03384Y02927D02*
X03387Y0293D01*
X03392*
X03394Y02927*
Y02925*
X03392Y02922*
X03394Y0292*
Y02917*
X03392Y02915*
X03387*
X03384Y02917*
Y0292*
X03387Y02922*
X03384Y02925*
Y02927*
X03387Y02922D02*
X03392D01*
X03409Y0293D02*
X03399D01*
Y02922*
X03404Y02925*
X03407*
X03409Y02922*
Y02917*
X03407Y02915*
X03402*
X03399Y02917*
X03485Y0291D02*
Y02924D01*
X03492*
X03495Y02922*
Y02917*
X03492Y02915*
X03485*
X0349D02*
X03495Y0291D01*
X03499Y02922D02*
X03502Y02924D01*
X03507*
X03509Y02922*
Y0292*
X03507Y02917*
X03509Y02915*
Y02912*
X03507Y0291*
X03502*
X03499Y02912*
Y02915*
X03502Y02917*
X03499Y0292*
Y02922*
X03502Y02917D02*
X03507D01*
X03522Y0291D02*
Y02924D01*
X03514Y02917*
X03524*
X0094Y0263D02*
Y02644D01*
X00947*
X0095Y02642*
Y02637*
X00947Y02635*
X0094*
X00945D02*
X0095Y0263D01*
X00954Y02644D02*
X00964D01*
Y02642*
X00954Y02632*
Y0263*
X00969Y02642D02*
X00972Y02644D01*
X00977*
X00979Y02642*
Y02632*
X00977Y0263*
X00972*
X00969Y02632*
Y02642*
X0122Y0132D02*
Y01335D01*
X01227*
X0123Y01332*
Y01327*
X01227Y01325*
X0122*
X01225D02*
X0123Y0132D01*
X01244Y01335D02*
X01239Y01332D01*
X01235Y01327*
Y01322*
X01237Y0132*
X01242*
X01244Y01322*
Y01325*
X01242Y01327*
X01235*
X01249Y01322D02*
X01252Y0132D01*
X01257*
X01259Y01322*
Y01332*
X01257Y01335*
X01252*
X01249Y01332*
Y0133*
X01252Y01327*
X01259*
X01385Y01625D02*
Y01639D01*
X01392*
X01395Y01637*
Y01632*
X01392Y0163*
X01385*
X0139D02*
X01395Y01625D01*
X01409Y01639D02*
X01404Y01637D01*
X01399Y01632*
Y01627*
X01402Y01625*
X01407*
X01409Y01627*
Y0163*
X01407Y01632*
X01399*
X01414Y01637D02*
X01417Y01639D01*
X01422*
X01424Y01637*
Y01635*
X01422Y01632*
X01424Y0163*
Y01627*
X01422Y01625*
X01417*
X01414Y01627*
Y0163*
X01417Y01632*
X01414Y01635*
Y01637*
X01417Y01632D02*
X01422D01*
X0148Y01625D02*
Y01639D01*
X01487*
X0149Y01637*
Y01632*
X01487Y0163*
X0148*
X01485D02*
X0149Y01625D01*
X01504Y01639D02*
X01499Y01637D01*
X01494Y01632*
Y01627*
X01497Y01625*
X01502*
X01504Y01627*
Y0163*
X01502Y01632*
X01494*
X01509Y01639D02*
X01519D01*
Y01637*
X01509Y01627*
Y01625*
X0159Y022D02*
Y02214D01*
X01597*
X016Y02212*
Y02207*
X01597Y02205*
X0159*
X01595D02*
X016Y022D01*
X01614Y02214D02*
X01609Y02212D01*
X01605Y02207*
Y02202*
X01607Y022*
X01612*
X01614Y02202*
Y02205*
X01612Y02207*
X01605*
X01627Y022D02*
Y02214D01*
X01619Y02207*
X01629*
X014Y02205D02*
Y0222D01*
X01407*
X0141Y02217*
Y02212*
X01407Y0221*
X014*
X01405D02*
X0141Y02205D01*
X01424Y0222D02*
X01419Y02217D01*
X01414Y02212*
Y02207*
X01417Y02205*
X01422*
X01424Y02207*
Y0221*
X01422Y02212*
X01414*
X01429Y02217D02*
X01432Y0222D01*
X01437*
X01439Y02217*
Y02215*
X01437Y02212*
X01434*
X01437*
X01439Y0221*
Y02207*
X01437Y02205*
X01432*
X01429Y02207*
X01346Y02206D02*
Y0222D01*
X01353*
X01356Y02218*
Y02213*
X01353Y02211*
X01346*
X01351D02*
X01356Y02206D01*
X0137Y0222D02*
X01365Y02218D01*
X01361Y02213*
Y02208*
X01363Y02206*
X01368*
X0137Y02208*
Y02211*
X01368Y02213*
X01361*
X01385Y02206D02*
X01375D01*
X01385Y02216*
Y02218*
X01383Y0222*
X01378*
X01375Y02218*
X01293Y02206D02*
Y0222D01*
X013*
X01303Y02218*
Y02213*
X013Y02211*
X01293*
X01298D02*
X01303Y02206D01*
X01317Y0222D02*
X01312Y02218D01*
X01307Y02213*
Y02208*
X0131Y02206*
X01315*
X01317Y02208*
Y02211*
X01315Y02213*
X01307*
X01322Y02206D02*
X01327D01*
X01325*
Y0222*
X01322Y02218*
X01745Y0198D02*
Y01994D01*
X01752*
X01755Y01992*
Y01987*
X01752Y01985*
X01745*
X0175D02*
X01755Y0198D01*
X01769Y01994D02*
X01764Y01992D01*
X01759Y01987*
Y01982*
X01762Y0198*
X01767*
X01769Y01982*
Y01985*
X01767Y01987*
X01759*
X01774Y01992D02*
X01777Y01994D01*
X01782*
X01784Y01992*
Y01982*
X01782Y0198*
X01777*
X01774Y01982*
Y01992*
X0183Y0205D02*
Y02065D01*
X01837*
X0184Y02062*
Y02057*
X01837Y02055*
X0183*
X01835D02*
X0184Y0205D01*
X01854Y02065D02*
X01845D01*
Y02057*
X01849Y0206*
X01852*
X01854Y02057*
Y02052*
X01852Y0205*
X01847*
X01845Y02052*
X01859D02*
X01862Y0205D01*
X01867*
X01869Y02052*
Y02062*
X01867Y02065*
X01862*
X01859Y02062*
Y0206*
X01862Y02057*
X01869*
X0188Y01855D02*
Y01869D01*
X01887*
X0189Y01867*
Y01862*
X01887Y0186*
X0188*
X01885D02*
X0189Y01855D01*
X01904Y01869D02*
X01894D01*
Y01862*
X01899Y01865*
X01902*
X01904Y01862*
Y01857*
X01902Y01855*
X01897*
X01894Y01857*
X01909Y01867D02*
X01912Y01869D01*
X01917*
X01919Y01867*
Y01865*
X01917Y01862*
X01919Y0186*
Y01857*
X01917Y01855*
X01912*
X01909Y01857*
Y0186*
X01912Y01862*
X01909Y01865*
Y01867*
X01912Y01862D02*
X01917D01*
X01775Y01895D02*
Y01909D01*
X01782*
X01785Y01907*
Y01902*
X01782Y019*
X01775*
X0178D02*
X01785Y01895D01*
X01799Y01909D02*
X01789D01*
Y01902*
X01794Y01905*
X01797*
X01799Y01902*
Y01897*
X01797Y01895*
X01792*
X01789Y01897*
X01804Y01909D02*
X01814D01*
Y01907*
X01804Y01897*
Y01895*
X0425Y01355D02*
X04235D01*
Y01362*
X04237Y01365*
X04242*
X04245Y01362*
Y01355*
Y0136D02*
X0425Y01365D01*
Y01377D02*
X04235D01*
X04242Y01369*
Y01379*
X04237Y01384D02*
X04235Y01387D01*
Y01392*
X04237Y01394*
X0424*
X04242Y01392*
X04245Y01394*
X04247*
X0425Y01392*
Y01387*
X04247Y01384*
X04245*
X04242Y01387*
X0424Y01384*
X04237*
X04242Y01387D02*
Y01392D01*
X04252Y01399D02*
Y01409D01*
X04235Y01414D02*
X0425D01*
Y01422*
X04247Y01424*
X04237*
X04235Y01422*
Y01414*
X0425Y01429D02*
X04235D01*
Y01437*
X04237Y01439*
X04242*
X04245Y01437*
Y01429*
Y01434D02*
X0425Y01439D01*
Y01444D02*
Y01449D01*
Y01447*
X04235*
X04237Y01444*
X04305Y0144D02*
Y01455D01*
X04312*
X04315Y01452*
Y01447*
X04312Y01445*
X04305*
X0431D02*
X04315Y0144D01*
X04327D02*
Y01455D01*
X04319Y01447*
X04329*
X04344Y01455D02*
X04339Y01452D01*
X04334Y01447*
Y01442*
X04337Y0144*
X04342*
X04344Y01442*
Y01445*
X04342Y01447*
X04334*
X04349Y01437D02*
X04359D01*
X04364Y01455D02*
Y0144D01*
X04372*
X04374Y01442*
Y01452*
X04372Y01455*
X04364*
X04379Y0144D02*
Y01455D01*
X04387*
X04389Y01452*
Y01447*
X04387Y01445*
X04379*
X04384D02*
X04389Y0144D01*
X04394D02*
X04399D01*
X04397*
Y01455*
X04394Y01452*
X04405Y01425D02*
X04419D01*
Y01417*
X04417Y01415*
X04412*
X0441Y01417*
Y01425*
Y0142D02*
X04405Y01415D01*
Y01402D02*
X04419D01*
X04412Y0141*
Y014*
X04419Y01385D02*
Y01395D01*
X04412*
X04415Y0139*
Y01387*
X04412Y01385*
X04407*
X04405Y01387*
Y01392*
X04407Y01395*
X04402Y0138D02*
Y0137D01*
X04419Y01365D02*
X04405D01*
Y01357*
X04407Y01355*
X04417*
X04419Y01357*
Y01365*
X04405Y0135D02*
X04419D01*
Y01342*
X04417Y0134*
X04412*
X0441Y01342*
Y0135*
Y01345D02*
X04405Y0134D01*
Y01335D02*
Y0133D01*
Y01332*
X04419*
X04417Y01335*
X02525Y01365D02*
Y01379D01*
X02532*
X02535Y01377*
Y01372*
X02532Y0137*
X02525*
X0253D02*
X02535Y01365D01*
X02547D02*
Y01379D01*
X02539Y01372*
X02549*
X02554Y01377D02*
X02557Y01379D01*
X02562*
X02564Y01377*
Y01375*
X02562Y01372*
X02559*
X02562*
X02564Y0137*
Y01367*
X02562Y01365*
X02557*
X02554Y01367*
X02569Y01362D02*
X02579D01*
X02584Y01379D02*
Y01365D01*
X02592*
X02594Y01367*
Y01377*
X02592Y01379*
X02584*
X02599Y01365D02*
Y01379D01*
X02607*
X02609Y01377*
Y01372*
X02607Y0137*
X02599*
X02604D02*
X02609Y01365D01*
X02624D02*
X02614D01*
X02624Y01375*
Y01377*
X02622Y01379*
X02617*
X02614Y01377*
X03605Y01525D02*
Y01539D01*
X03612*
X03615Y01537*
Y01532*
X03612Y0153*
X03605*
X0361D02*
X03615Y01525D01*
X03627D02*
Y01539D01*
X0362Y01532*
X03629*
X03634Y01537D02*
X03637Y01539D01*
X03642*
X03644Y01537*
Y01535*
X03642Y01532*
X03639*
X03642*
X03644Y0153*
Y01527*
X03642Y01525*
X03637*
X03634Y01527*
X03649Y01522D02*
X03659D01*
X03664Y01539D02*
Y01525D01*
X03672*
X03674Y01527*
Y01537*
X03672Y01539*
X03664*
X03679Y01525D02*
Y01539D01*
X03687*
X03689Y01537*
Y01532*
X03687Y0153*
X03679*
X03684D02*
X03689Y01525D01*
X03694D02*
X03699D01*
X03697*
Y01539*
X03694Y01537*
X02525Y0146D02*
Y01475D01*
X02532*
X02535Y01472*
Y01467*
X02532Y01465*
X02525*
X0253D02*
X02535Y0146D01*
X02547D02*
Y01475D01*
X02539Y01467*
X02549*
X02564Y0146D02*
X02554D01*
X02564Y0147*
Y01472*
X02562Y01475*
X02557*
X02554Y01472*
X02569Y01457D02*
X02579D01*
X02584Y01475D02*
Y0146D01*
X02592*
X02594Y01462*
Y01472*
X02592Y01475*
X02584*
X02599Y0146D02*
Y01475D01*
X02607*
X02609Y01472*
Y01467*
X02607Y01465*
X02599*
X02604D02*
X02609Y0146D01*
X02624D02*
X02614D01*
X02624Y0147*
Y01472*
X02622Y01475*
X02617*
X02614Y01472*
X0361Y01425D02*
Y0144D01*
X03617*
X0362Y01437*
Y01432*
X03617Y0143*
X0361*
X03615D02*
X0362Y01425D01*
X03632D02*
Y0144D01*
X03624Y01432*
X03634*
X03649Y01425D02*
X03639D01*
X03649Y01435*
Y01437*
X03647Y0144*
X03642*
X03639Y01437*
X03654Y01422D02*
X03664D01*
X03669Y0144D02*
Y01425D01*
X03677*
X03679Y01427*
Y01437*
X03677Y0144*
X03669*
X03684Y01425D02*
Y0144D01*
X03692*
X03694Y01437*
Y01432*
X03692Y0143*
X03684*
X03689D02*
X03694Y01425D01*
X03699D02*
X03704D01*
X03702*
Y0144*
X03699Y01437*
X02525Y01565D02*
Y0158D01*
X02532*
X02535Y01577*
Y01572*
X02532Y0157*
X02525*
X0253D02*
X02535Y01565D01*
X02547D02*
Y0158D01*
X02539Y01572*
X02549*
X02554Y01565D02*
X02559D01*
X02557*
Y0158*
X02554Y01577*
X02567Y01562D02*
X02577D01*
X02582Y0158D02*
Y01565D01*
X02589*
X02592Y01567*
Y01577*
X02589Y0158*
X02582*
X02597Y01565D02*
Y0158D01*
X02604*
X02607Y01577*
Y01572*
X02604Y0157*
X02597*
X02602D02*
X02607Y01565D01*
X02622D02*
X02612D01*
X02622Y01575*
Y01577*
X02619Y0158*
X02614*
X02612Y01577*
X036Y0136D02*
Y01374D01*
X03607*
X0361Y01372*
Y01367*
X03607Y01365*
X036*
X03605D02*
X0361Y0136D01*
X03622D02*
Y01374D01*
X03615Y01367*
X03624*
X03629Y0136D02*
X03634D01*
X03632*
Y01374*
X03629Y01372*
X03642Y01357D02*
X03652D01*
X03657Y01374D02*
Y0136D01*
X03664*
X03667Y01362*
Y01372*
X03664Y01374*
X03657*
X03672Y0136D02*
Y01374D01*
X03679*
X03682Y01372*
Y01367*
X03679Y01365*
X03672*
X03677D02*
X03682Y0136D01*
X03687D02*
X03692D01*
X03689*
Y01374*
X03687Y01372*
X02455Y0298D02*
Y02995D01*
X02462*
X02465Y02992*
Y02987*
X02462Y02985*
X02455*
X0246D02*
X02465Y0298D01*
X02477D02*
Y02995D01*
X0247Y02987*
X02479*
X02484Y02992D02*
X02487Y02995D01*
X02492*
X02494Y02992*
Y02982*
X02492Y0298*
X02487*
X02484Y02982*
Y02992*
X02565Y03015D02*
Y03029D01*
X02572*
X02575Y03027*
Y03022*
X02572Y0302*
X02565*
X0257D02*
X02575Y03015D01*
X02579Y03027D02*
X02582Y03029D01*
X02587*
X02589Y03027*
Y03025*
X02587Y03022*
X02584*
X02587*
X02589Y0302*
Y03017*
X02587Y03015*
X02582*
X02579Y03017*
X02594D02*
X02597Y03015D01*
X02602*
X02604Y03017*
Y03027*
X02602Y03029*
X02597*
X02594Y03027*
Y03025*
X02597Y03022*
X02604*
X02343Y03311D02*
Y03325D01*
X0235*
X02353Y03323*
Y03318*
X0235Y03316*
X02343*
X02348D02*
X02353Y03311D01*
X02358Y03323D02*
X0236Y03325D01*
X02365*
X02367Y03323*
Y03321*
X02365Y03318*
X02362*
X02365*
X02367Y03316*
Y03313*
X02365Y03311*
X0236*
X02358Y03313*
X02372Y03323D02*
X02375Y03325D01*
X0238*
X02382Y03323*
Y03321*
X0238Y03318*
X02382Y03316*
Y03313*
X0238Y03311*
X02375*
X02372Y03313*
Y03316*
X02375Y03318*
X02372Y03321*
Y03323*
X02375Y03318D02*
X0238D01*
X04323Y02504D02*
Y02519D01*
X0433*
X04333Y02516*
Y02511*
X0433Y02509*
X04323*
X04328D02*
X04333Y02504D01*
X04338Y02516D02*
X0434Y02519D01*
X04345*
X04347Y02516*
Y02514*
X04345Y02511*
X04342*
X04345*
X04347Y02509*
Y02506*
X04345Y02504*
X0434*
X04338Y02506*
X04352Y02519D02*
X04362D01*
Y02516*
X04352Y02506*
Y02504*
X0372Y02005D02*
Y02019D01*
X03727*
X0373Y02017*
Y02012*
X03727Y0201*
X0372*
X03725D02*
X0373Y02005D01*
X03734Y02017D02*
X03737Y02019D01*
X03742*
X03744Y02017*
Y02015*
X03742Y02012*
X03739*
X03742*
X03744Y0201*
Y02007*
X03742Y02005*
X03737*
X03734Y02007*
X03759Y02019D02*
X03754Y02017D01*
X03749Y02012*
Y02007*
X03752Y02005*
X03757*
X03759Y02007*
Y0201*
X03757Y02012*
X03749*
X03583Y02298D02*
Y02312D01*
X0359*
X03593Y0231*
Y02305*
X0359Y02303*
X03583*
X03588D02*
X03593Y02298D01*
X03598Y0231D02*
X036Y02312D01*
X03605*
X03607Y0231*
Y02308*
X03605Y02305*
X03602*
X03605*
X03607Y02303*
Y023*
X03605Y02298*
X036*
X03598Y023*
X03622Y02312D02*
X03612D01*
Y02305*
X03617Y02308*
X0362*
X03622Y02305*
Y023*
X0362Y02298*
X03615*
X03612Y023*
X0371Y0206D02*
Y02075D01*
X03717*
X0372Y02072*
Y02067*
X03717Y02065*
X0371*
X03715D02*
X0372Y0206D01*
X03724Y02072D02*
X03727Y02075D01*
X03732*
X03734Y02072*
Y0207*
X03732Y02067*
X03729*
X03732*
X03734Y02065*
Y02062*
X03732Y0206*
X03727*
X03724Y02062*
X03747Y0206D02*
Y02075D01*
X03739Y02067*
X03749*
X03535Y02185D02*
Y022D01*
X03542*
X03545Y02197*
Y02192*
X03542Y0219*
X03535*
X0354D02*
X03545Y02185D01*
X03549Y02197D02*
X03552Y022D01*
X03557*
X03559Y02197*
Y02195*
X03557Y02192*
X03554*
X03557*
X03559Y0219*
Y02187*
X03557Y02185*
X03552*
X03549Y02187*
X03564Y02197D02*
X03567Y022D01*
X03572*
X03574Y02197*
Y02195*
X03572Y02192*
X03569*
X03572*
X03574Y0219*
Y02187*
X03572Y02185*
X03567*
X03564Y02187*
X04278Y02683D02*
Y02697D01*
X04285*
X04288Y02695*
Y0269*
X04285Y02688*
X04278*
X04283D02*
X04288Y02683D01*
X04292Y02695D02*
X04295Y02697D01*
X043*
X04302Y02695*
Y02693*
X043Y0269*
X04297*
X043*
X04302Y02688*
Y02685*
X043Y02683*
X04295*
X04292Y02685*
X04317Y02683D02*
X04307D01*
X04317Y02693*
Y02695*
X04315Y02697*
X0431*
X04307Y02695*
X04705Y0286D02*
Y02874D01*
X04712*
X04715Y02872*
Y02867*
X04712Y02865*
X04705*
X0471D02*
X04715Y0286D01*
X0472Y02872D02*
X04722Y02874D01*
X04727*
X04729Y02872*
Y0287*
X04727Y02867*
X04724*
X04727*
X04729Y02865*
Y02862*
X04727Y0286*
X04722*
X0472Y02862*
X04734Y0286D02*
X04739D01*
X04737*
Y02874*
X04734Y02872*
X0471Y0274D02*
Y02755D01*
X04717*
X0472Y02752*
Y02747*
X04717Y02745*
X0471*
X04715D02*
X0472Y0274D01*
X04725Y02752D02*
X04727Y02755D01*
X04732*
X04734Y02752*
Y0275*
X04732Y02747*
X04729*
X04732*
X04734Y02745*
Y02742*
X04732Y0274*
X04727*
X04725Y02742*
X04739Y02752D02*
X04742Y02755D01*
X04747*
X04749Y02752*
Y02742*
X04747Y0274*
X04742*
X04739Y02742*
Y02752*
X02635Y02422D02*
X0265D01*
Y02415*
X02647Y02412*
X02642*
X0264Y02415*
Y02422*
Y02417D02*
X02635Y02412D01*
Y02397D02*
Y02407D01*
X02645Y02397*
X02647*
X0265Y024*
Y02405*
X02647Y02407*
X02637Y02392D02*
X02635Y0239D01*
Y02385*
X02637Y02382*
X02647*
X0265Y02385*
Y0239*
X02647Y02392*
X02645*
X02642Y0239*
Y02382*
X02575Y025D02*
Y02515D01*
X02582*
X02585Y02512*
Y02507*
X02582Y02505*
X02575*
X0258D02*
X02585Y025D01*
X02599D02*
X02589D01*
X02599Y0251*
Y02512*
X02597Y02515*
X02592*
X02589Y02512*
X02604D02*
X02607Y02515D01*
X02612*
X02614Y02512*
Y0251*
X02612Y02507*
X02614Y02505*
Y02502*
X02612Y025*
X02607*
X02604Y02502*
Y02505*
X02607Y02507*
X02604Y0251*
Y02512*
X02607Y02507D02*
X02612D01*
X03715Y02155D02*
Y0217D01*
X03722*
X03725Y02167*
Y02162*
X03722Y0216*
X03715*
X0372D02*
X03725Y02155D01*
X03739D02*
X0373D01*
X03739Y02165*
Y02167*
X03737Y0217*
X03732*
X0373Y02167*
X03744Y0217D02*
X03754D01*
Y02167*
X03744Y02157*
Y02155*
X0371Y0211D02*
Y02124D01*
X03717*
X0372Y02122*
Y02117*
X03717Y02115*
X0371*
X03715D02*
X0372Y0211D01*
X03734D02*
X03724D01*
X03734Y0212*
Y02122*
X03732Y02124*
X03727*
X03724Y02122*
X03749Y02124D02*
X03744Y02122D01*
X03739Y02117*
Y02112*
X03742Y0211*
X03747*
X03749Y02112*
Y02115*
X03747Y02117*
X03739*
X03715Y01955D02*
Y0197D01*
X03722*
X03725Y01967*
Y01962*
X03722Y0196*
X03715*
X0372D02*
X03725Y01955D01*
X03739D02*
X0373D01*
X03739Y01965*
Y01967*
X03737Y0197*
X03732*
X0373Y01967*
X03754Y0197D02*
X03744D01*
Y01962*
X03749Y01965*
X03752*
X03754Y01962*
Y01957*
X03752Y01955*
X03747*
X03744Y01957*
X04715Y0255D02*
Y02565D01*
X04722*
X04725Y02562*
Y02557*
X04722Y02555*
X04715*
X0472D02*
X04725Y0255D01*
X04739D02*
X04729D01*
X04739Y0256*
Y02562*
X04737Y02565*
X04732*
X04729Y02562*
X04752Y0255D02*
Y02565D01*
X04744Y02557*
X04754*
X0471Y0243D02*
Y02444D01*
X04717*
X0472Y02442*
Y02437*
X04717Y02435*
X0471*
X04715D02*
X0472Y0243D01*
X04734D02*
X04725D01*
X04734Y0244*
Y02442*
X04732Y02444*
X04727*
X04725Y02442*
X04739D02*
X04742Y02444D01*
X04747*
X04749Y02442*
Y0244*
X04747Y02437*
X04744*
X04747*
X04749Y02435*
Y02432*
X04747Y0243*
X04742*
X04739Y02432*
X0368Y0319D02*
Y03204D01*
X03687*
X0369Y03202*
Y03197*
X03687Y03195*
X0368*
X03685D02*
X0369Y0319D01*
X03704D02*
X03694D01*
X03704Y032*
Y03202*
X03702Y03204*
X03697*
X03694Y03202*
X03719Y0319D02*
X03709D01*
X03719Y032*
Y03202*
X03717Y03204*
X03712*
X03709Y03202*
X0472Y03245D02*
Y03259D01*
X04727*
X0473Y03257*
Y03252*
X04727Y0325*
X0472*
X04725D02*
X0473Y03245D01*
X04744D02*
X04734D01*
X04744Y03255*
Y03257*
X04742Y03259*
X04737*
X04734Y03257*
X04749Y03245D02*
X04754D01*
X04752*
Y03259*
X04749Y03257*
X0379Y03195D02*
Y0321D01*
X03797*
X038Y03207*
Y03202*
X03797Y032*
X0379*
X03795D02*
X038Y03195D01*
X03814D02*
X03805D01*
X03814Y03205*
Y03207*
X03812Y0321*
X03807*
X03805Y03207*
X03819D02*
X03822Y0321D01*
X03827*
X03829Y03207*
Y03197*
X03827Y03195*
X03822*
X03819Y03197*
Y03207*
X04705Y0215D02*
Y02164D01*
X04712*
X04715Y02162*
Y02157*
X04712Y02155*
X04705*
X0471D02*
X04715Y0215D01*
X0472D02*
X04724D01*
X04722*
Y02164*
X0472Y02162*
X04732Y02152D02*
X04734Y0215D01*
X04739*
X04742Y02152*
Y02162*
X04739Y02164*
X04734*
X04732Y02162*
Y0216*
X04734Y02157*
X04742*
X0471Y02025D02*
Y02039D01*
X04717*
X0472Y02037*
Y02032*
X04717Y0203*
X0471*
X04715D02*
X0472Y02025D01*
X04725D02*
X04729D01*
X04727*
Y02039*
X04725Y02037*
X04737D02*
X04739Y02039D01*
X04744*
X04747Y02037*
Y02035*
X04744Y02032*
X04747Y0203*
Y02027*
X04744Y02025*
X04739*
X04737Y02027*
Y0203*
X04739Y02032*
X04737Y02035*
Y02037*
X04739Y02032D02*
X04744D01*
X04725Y0336D02*
Y03374D01*
X04732*
X04735Y03372*
Y03367*
X04732Y03365*
X04725*
X0473D02*
X04735Y0336D01*
X0474D02*
X04744D01*
X04742*
Y03374*
X0474Y03372*
X04752Y03374D02*
X04762D01*
Y03372*
X04752Y03362*
Y0336*
X0464Y01695D02*
Y0171D01*
X04647*
X0465Y01707*
Y01702*
X04647Y017*
X0464*
X04645D02*
X0465Y01695D01*
X04654D02*
X04659D01*
X04657*
Y0171*
X04654Y01707*
X04677Y0171D02*
X04672Y01707D01*
X04667Y01702*
Y01697*
X04669Y01695*
X04674*
X04677Y01697*
Y017*
X04674Y01702*
X04667*
X0466Y0158D02*
Y01595D01*
X04667*
X0467Y01592*
Y01587*
X04667Y01585*
X0466*
X04665D02*
X0467Y0158D01*
X04674D02*
X04679D01*
X04677*
Y01595*
X04674Y01592*
X04697Y01595D02*
X04687D01*
Y01587*
X04692Y0159*
X04694*
X04697Y01587*
Y01582*
X04694Y0158*
X04689*
X04687Y01582*
X0335Y0158D02*
Y01595D01*
X03357*
X0336Y01592*
Y01587*
X03357Y01585*
X0335*
X03355D02*
X0336Y0158D01*
X03365D02*
X03369D01*
X03367*
Y01595*
X03365Y01592*
X03384Y0158D02*
Y01595D01*
X03377Y01587*
X03387*
X0327Y0158D02*
Y01595D01*
X03277*
X0328Y01592*
Y01587*
X03277Y01585*
X0327*
X03275D02*
X0328Y0158D01*
X03285D02*
X03289D01*
X03287*
Y01595*
X03285Y01592*
X03297D02*
X03299Y01595D01*
X03304*
X03307Y01592*
Y0159*
X03304Y01587*
X03302*
X03304*
X03307Y01585*
Y01582*
X03304Y0158*
X03299*
X03297Y01582*
X02975Y0153D02*
Y01544D01*
X02982*
X02985Y01542*
Y01537*
X02982Y01535*
X02975*
X0298D02*
X02985Y0153D01*
X0299D02*
X02994D01*
X02992*
Y01544*
X0299Y01542*
X03012Y0153D02*
X03002D01*
X03012Y0154*
Y01542*
X03009Y01544*
X03004*
X03002Y01542*
X0285Y01585D02*
Y016D01*
X02857*
X0286Y01597*
Y01592*
X02857Y0159*
X0285*
X02855D02*
X0286Y01585D01*
X02865D02*
X02869D01*
X02867*
Y016*
X02865Y01597*
X02877Y01585D02*
X02882D01*
X02879*
Y016*
X02877Y01597*
X03185Y0341D02*
Y03424D01*
X03192*
X03195Y03422*
Y03417*
X03192Y03415*
X03185*
X0319D02*
X03195Y0341D01*
X032D02*
X03204D01*
X03202*
Y03424*
X032Y03422*
X03212D02*
X03214Y03424D01*
X03219*
X03222Y03422*
Y03412*
X03219Y0341*
X03214*
X03212Y03412*
Y03422*
X0333Y03395D02*
Y0341D01*
X03337*
X0334Y03407*
Y03402*
X03337Y034*
X0333*
X03335D02*
X0334Y03395D01*
X03345Y03397D02*
X03347Y03395D01*
X03352*
X03354Y03397*
Y03407*
X03352Y0341*
X03347*
X03345Y03407*
Y03405*
X03347Y03402*
X03354*
X02625Y0193D02*
Y01945D01*
X02632*
X02635Y01942*
Y01937*
X02632Y01935*
X02625*
X0263D02*
X02635Y0193D01*
X0264Y01942D02*
X02642Y01945D01*
X02647*
X02649Y01942*
Y0194*
X02647Y01937*
X02649Y01935*
Y01932*
X02647Y0193*
X02642*
X0264Y01932*
Y01935*
X02642Y01937*
X0264Y0194*
Y01942*
X02642Y01937D02*
X02647D01*
X0235Y0337D02*
Y03384D01*
X02357*
X0236Y03382*
Y03377*
X02357Y03375*
X0235*
X02355D02*
X0236Y0337D01*
X02365Y03384D02*
X02374D01*
Y03382*
X02365Y03372*
Y0337*
X03005Y025D02*
Y02515D01*
X03012*
X03015Y02512*
Y02507*
X03012Y02505*
X03005*
X0301D02*
X03015Y025D01*
X03029Y02515D02*
X03024Y02512D01*
X03019Y02507*
Y02502*
X03022Y025*
X03027*
X03029Y02502*
Y02505*
X03027Y02507*
X03019*
X02625Y0203D02*
Y02045D01*
X02632*
X02635Y02042*
Y02037*
X02632Y02035*
X02625*
X0263D02*
X02635Y0203D01*
X02649Y02045D02*
X0264D01*
Y02037*
X02644Y0204*
X02647*
X02649Y02037*
Y02032*
X02647Y0203*
X02642*
X0264Y02032*
X02115Y0228D02*
Y02295D01*
X02122*
X02125Y02292*
Y02287*
X02122Y02285*
X02115*
X0212D02*
X02125Y0228D01*
X02137D02*
Y02295D01*
X0213Y02287*
X02139*
X0198Y02225D02*
Y0224D01*
X01987*
X0199Y02237*
Y02232*
X01987Y0223*
X0198*
X01985D02*
X0199Y02225D01*
X01994Y02237D02*
X01997Y0224D01*
X02002*
X02004Y02237*
Y02235*
X02002Y02232*
X01999*
X02002*
X02004Y0223*
Y02227*
X02002Y02225*
X01997*
X01994Y02227*
X0446Y03395D02*
Y0341D01*
X04467*
X0447Y03407*
Y03402*
X04467Y034*
X0446*
X04465D02*
X0447Y03395D01*
X04484D02*
X04475D01*
X04484Y03405*
Y03407*
X04482Y0341*
X04477*
X04475Y03407*
X0462Y034D02*
Y03414D01*
X04627*
X0463Y03412*
Y03407*
X04627Y03405*
X0462*
X04625D02*
X0463Y034D01*
X04634D02*
X04639D01*
X04637*
Y03414*
X04634Y03412*
X04745Y0303D02*
Y03045D01*
X04752*
X04755Y03042*
Y03037*
X04752Y03035*
X04745*
X04762Y0303D02*
X04767D01*
X04769Y03032*
Y03037*
X04767Y0304*
X04762*
X04759Y03037*
Y03032*
X04762Y0303*
X04777Y03042D02*
Y0304D01*
X04774*
X04779*
X04777*
Y03032*
X04779Y0303*
X04797Y03045D02*
X04792Y03042D01*
X04787Y03037*
Y03032*
X04789Y0303*
X04794*
X04797Y03032*
Y03035*
X04794Y03037*
X04787*
X04735Y02625D02*
Y0264D01*
X04742*
X04745Y02637*
Y02632*
X04742Y0263*
X04735*
X04752Y02625D02*
X04757D01*
X04759Y02627*
Y02632*
X04757Y02635*
X04752*
X0475Y02632*
Y02627*
X04752Y02625*
X04767Y02637D02*
Y02635D01*
X04764*
X04769*
X04767*
Y02627*
X04769Y02625*
X04787Y0264D02*
X04777D01*
Y02632*
X04782Y02635*
X04784*
X04787Y02632*
Y02627*
X04784Y02625*
X04779*
X04777Y02627*
X0474Y0222D02*
Y02234D01*
X04747*
X0475Y02232*
Y02227*
X04747Y02225*
X0474*
X04757Y0222D02*
X04762D01*
X04764Y02222*
Y02227*
X04762Y0223*
X04757*
X04754Y02227*
Y02222*
X04757Y0222*
X04772Y02232D02*
Y0223D01*
X04769*
X04774*
X04772*
Y02222*
X04774Y0222*
X04789D02*
Y02234D01*
X04782Y02227*
X04792*
X0474Y01785D02*
Y01799D01*
X04747*
X0475Y01797*
Y01792*
X04747Y0179*
X0474*
X04757Y01785D02*
X04762D01*
X04764Y01787*
Y01792*
X04762Y01795*
X04757*
X04754Y01792*
Y01787*
X04757Y01785*
X04772Y01797D02*
Y01795D01*
X04769*
X04774*
X04772*
Y01787*
X04774Y01785*
X04782Y01797D02*
X04784Y01799D01*
X04789*
X04792Y01797*
Y01795*
X04789Y01792*
X04787*
X04789*
X04792Y0179*
Y01787*
X04789Y01785*
X04784*
X04782Y01787*
X0342Y0148D02*
Y01494D01*
X03427*
X0343Y01492*
Y01487*
X03427Y01485*
X0342*
X03437Y0148D02*
X03442D01*
X03444Y01482*
Y01487*
X03442Y0149*
X03437*
X03434Y01487*
Y01482*
X03437Y0148*
X03452Y01492D02*
Y0149D01*
X03449*
X03454*
X03452*
Y01482*
X03454Y0148*
X03472D02*
X03462D01*
X03472Y0149*
Y01492*
X03469Y01494*
X03464*
X03462Y01492*
X03005Y0149D02*
Y01504D01*
X03012*
X03015Y01502*
Y01497*
X03012Y01495*
X03005*
X03022Y0149D02*
X03027D01*
X03029Y01492*
Y01497*
X03027Y015*
X03022*
X03019Y01497*
Y01492*
X03022Y0149*
X03037Y01502D02*
Y015D01*
X03034*
X03039*
X03037*
Y01492*
X03039Y0149*
X03047D02*
X03052D01*
X03049*
Y01504*
X03047Y01502*
X03532Y0367D02*
X03527D01*
X03525Y03667*
Y03657*
X03527Y03655*
X03532*
X03535Y03657*
Y03667*
X03532Y0367*
X03549Y03665D02*
X03542D01*
X03539Y03662*
Y03657*
X03542Y03655*
X03549*
X03554D02*
X03559D01*
X03557*
Y0367*
X03554Y03667*
X0111Y01394D02*
Y0138D01*
X0112*
X01134Y01394D02*
X01124D01*
Y0138*
X01134*
X01124Y01387D02*
X01129D01*
X01139Y01394D02*
Y0138D01*
X01147*
X01149Y01382*
Y01392*
X01147Y01394*
X01139*
X01164D02*
X01159Y01392D01*
X01154Y01387*
Y01382*
X01157Y0138*
X01162*
X01164Y01382*
Y01385*
X01162Y01387*
X01154*
X02365Y01379D02*
Y01365D01*
X02375*
X02389Y01379D02*
X0238D01*
Y01365*
X02389*
X0238Y01372D02*
X02384D01*
X02394Y01379D02*
Y01365D01*
X02402*
X02404Y01367*
Y01377*
X02402Y01379*
X02394*
X02419D02*
X02409D01*
Y01372*
X02414Y01375*
X02417*
X02419Y01372*
Y01367*
X02417Y01365*
X02412*
X02409Y01367*
X02424Y01362D02*
X02434D01*
X02439Y01379D02*
Y01365D01*
X02447*
X02449Y01367*
Y01377*
X02447Y01379*
X02439*
X02454Y01365D02*
Y01379D01*
X02462*
X02464Y01377*
Y01372*
X02462Y0137*
X02454*
X02459D02*
X02464Y01365D01*
X02479D02*
X02469D01*
X02479Y01375*
Y01377*
X02477Y01379*
X02472*
X02469Y01377*
X0386Y01529D02*
Y01515D01*
X0387*
X03884Y01529D02*
X03874D01*
Y01515*
X03884*
X03874Y01522D02*
X03879D01*
X03889Y01529D02*
Y01515D01*
X03897*
X03899Y01517*
Y01527*
X03897Y01529*
X03889*
X03914D02*
X03904D01*
Y01522*
X03909Y01525*
X03912*
X03914Y01522*
Y01517*
X03912Y01515*
X03907*
X03904Y01517*
X03919Y01512D02*
X03929D01*
X03934Y01529D02*
Y01515D01*
X03942*
X03944Y01517*
Y01527*
X03942Y01529*
X03934*
X03949Y01515D02*
Y01529D01*
X03957*
X03959Y01527*
Y01522*
X03957Y0152*
X03949*
X03954D02*
X03959Y01515D01*
X03964D02*
X03969D01*
X03967*
Y01529*
X03964Y01527*
X0236Y0148D02*
Y01465D01*
X0237*
X02384Y0148D02*
X02374D01*
Y01465*
X02384*
X02374Y01472D02*
X02379D01*
X02389Y0148D02*
Y01465D01*
X02397*
X02399Y01467*
Y01477*
X02397Y0148*
X02389*
X02412Y01465D02*
Y0148D01*
X02404Y01472*
X02414*
X02419Y01462D02*
X02429D01*
X02434Y0148D02*
Y01465D01*
X02442*
X02444Y01467*
Y01477*
X02442Y0148*
X02434*
X02449Y01465D02*
Y0148D01*
X02457*
X02459Y01477*
Y01472*
X02457Y0147*
X02449*
X02454D02*
X02459Y01465D01*
X02474D02*
X02464D01*
X02474Y01475*
Y01477*
X02472Y0148*
X02467*
X02464Y01477*
X03755Y01455D02*
Y0144D01*
X03765*
X03779Y01455D02*
X03769D01*
Y0144*
X03779*
X03769Y01447D02*
X03774D01*
X03784Y01455D02*
Y0144D01*
X03792*
X03794Y01442*
Y01452*
X03792Y01455*
X03784*
X03807Y0144D02*
Y01455D01*
X03799Y01447*
X03809*
X03814Y01437D02*
X03824D01*
X03829Y01455D02*
Y0144D01*
X03837*
X03839Y01442*
Y01452*
X03837Y01455*
X03829*
X03844Y0144D02*
Y01455D01*
X03852*
X03854Y01452*
Y01447*
X03852Y01445*
X03844*
X03849D02*
X03854Y0144D01*
X03859D02*
X03864D01*
X03862*
Y01455*
X03859Y01452*
X0238Y0158D02*
Y01565D01*
X0239*
X02404Y0158D02*
X02394D01*
Y01565*
X02404*
X02394Y01572D02*
X02399D01*
X02409Y0158D02*
Y01565D01*
X02417*
X02419Y01567*
Y01577*
X02417Y0158*
X02409*
X02424Y01577D02*
X02427Y0158D01*
X02432*
X02434Y01577*
Y01575*
X02432Y01572*
X02429*
X02432*
X02434Y0157*
Y01567*
X02432Y01565*
X02427*
X02424Y01567*
X02439Y01562D02*
X02449D01*
X02454Y0158D02*
Y01565D01*
X02462*
X02464Y01567*
Y01577*
X02462Y0158*
X02454*
X02469Y01565D02*
Y0158D01*
X02477*
X02479Y01577*
Y01572*
X02477Y0157*
X02469*
X02474D02*
X02479Y01565D01*
X02494D02*
X02484D01*
X02494Y01575*
Y01577*
X02492Y0158*
X02487*
X02484Y01577*
X0379Y01355D02*
Y0134D01*
X038*
X03814Y01355D02*
X03805D01*
Y0134*
X03814*
X03805Y01347D02*
X03809D01*
X03819Y01355D02*
Y0134D01*
X03827*
X03829Y01342*
Y01352*
X03827Y01355*
X03819*
X03834Y01352D02*
X03837Y01355D01*
X03842*
X03844Y01352*
Y0135*
X03842Y01347*
X03839*
X03842*
X03844Y01345*
Y01342*
X03842Y0134*
X03837*
X03834Y01342*
X03849Y01337D02*
X03859D01*
X03864Y01355D02*
Y0134D01*
X03872*
X03874Y01342*
Y01352*
X03872Y01355*
X03864*
X03879Y0134D02*
Y01355D01*
X03887*
X03889Y01352*
Y01347*
X03887Y01345*
X03879*
X03884D02*
X03889Y0134D01*
X03894D02*
X03899D01*
X03897*
Y01355*
X03894Y01352*
X0237Y0244D02*
Y02425D01*
X0238*
X02394Y0244D02*
X02384D01*
Y02425*
X02394*
X02384Y02432D02*
X02389D01*
X02399Y0244D02*
Y02425D01*
X02407*
X02409Y02427*
Y02437*
X02407Y0244*
X02399*
X02424Y02425D02*
X02414D01*
X02424Y02435*
Y02437*
X02422Y0244*
X02417*
X02414Y02437*
X0235Y0247D02*
Y02455D01*
X0236*
X02374Y0247D02*
X02365D01*
Y02455*
X02374*
X02365Y02462D02*
X02369D01*
X02379Y0247D02*
Y02455D01*
X02387*
X02389Y02457*
Y02467*
X02387Y0247*
X02379*
X02394Y02455D02*
X02399D01*
X02397*
Y0247*
X02394Y02467*
X01735Y02339D02*
Y02325D01*
X01745*
X01759Y02339D02*
X01754Y02337D01*
X01749Y02332*
Y02327*
X01752Y02325*
X01757*
X01759Y02327*
Y0233*
X01757Y02332*
X01749*
X01485Y02359D02*
Y02345D01*
X01495*
X01509Y02359D02*
X01499D01*
Y02352*
X01504Y02355*
X01507*
X01509Y02352*
Y02347*
X01507Y02345*
X01502*
X01499Y02347*
X02715Y01725D02*
Y0171D01*
X02725*
X02739D02*
X0273D01*
X02739Y0172*
Y01722*
X02737Y01725*
X02732*
X0273Y01722*
X0253Y01879D02*
Y01865D01*
X0254*
X02545D02*
X02549D01*
X02547*
Y01879*
X02545Y01877*
X00764Y02969D02*
X00769D01*
X00766*
Y02954*
X00764*
X00769*
X00776D02*
Y02969D01*
X00781Y02964*
X00786Y02969*
Y02954*
X00791Y02969D02*
Y02957D01*
X00793Y02954*
X00798*
X00801Y02957*
Y02969*
X00806Y02954D02*
X00811D01*
X00808*
Y02969*
X00806Y02967*
X045Y02829D02*
Y02815D01*
Y02822*
X0451*
Y02829*
Y02815*
X04517Y02825D02*
X04522D01*
X04524Y02822*
Y02815*
X04517*
X04515Y02817*
X04517Y0282*
X04524*
X04529Y02815D02*
X04534D01*
X04532*
Y02829*
X04529*
X04542Y02815D02*
X04547D01*
X04544*
Y02829*
X04542*
X04554Y02812D02*
X04564D01*
X04579Y02827D02*
X04577Y02829D01*
X04572*
X04569Y02827*
Y02825*
X04572Y02822*
X04577*
X04579Y0282*
Y02817*
X04577Y02815*
X04572*
X04569Y02817*
X04592Y02815D02*
X04587D01*
X04584Y02817*
Y02822*
X04587Y02825*
X04592*
X04594Y02822*
Y0282*
X04584*
X04599Y02815D02*
Y02825D01*
X04607*
X04609Y02822*
Y02815*
X04614D02*
X04622D01*
X04624Y02817*
X04622Y0282*
X04617*
X04614Y02822*
X04617Y02825*
X04624*
X04639Y02815D02*
X04629D01*
X04639Y02825*
Y02827*
X04637Y02829*
X04632*
X04629Y02827*
X04075Y03145D02*
X0409D01*
X04082*
Y03155*
X04075*
X0409*
X0408Y03162D02*
Y03167D01*
X04082Y03169*
X0409*
Y03162*
X04087Y0316*
X04085Y03162*
Y03169*
X0409Y03174D02*
Y03179D01*
Y03177*
X04075*
Y03174*
X0409Y03187D02*
Y03192D01*
Y03189*
X04075*
Y03187*
X04092Y03199D02*
Y03209D01*
X04077Y03224D02*
X04075Y03222D01*
Y03217*
X04077Y03214*
X0408*
X04082Y03217*
Y03222*
X04085Y03224*
X04087*
X0409Y03222*
Y03217*
X04087Y03214*
X0409Y03237D02*
Y03232D01*
X04087Y03229*
X04082*
X0408Y03232*
Y03237*
X04082Y03239*
X04085*
Y03229*
X0409Y03244D02*
X0408D01*
Y03252*
X04082Y03254*
X0409*
Y03259D02*
Y03267D01*
X04087Y03269*
X04085Y03267*
Y03262*
X04082Y03259*
X0408Y03262*
Y03269*
X0409Y03274D02*
Y03279D01*
Y03277*
X04075*
X04077Y03274*
X02435Y02805D02*
Y0279D01*
Y02797*
X02445*
Y02805*
Y0279*
X02457D02*
Y02805D01*
X0245Y02797*
X02459*
X01345Y01502D02*
X01342Y01504D01*
X01337*
X01335Y01502*
Y01492*
X01337Y0149*
X01342*
X01345Y01492*
Y01497*
X0134*
X0135Y0149D02*
Y01504D01*
X01357*
X01359Y01502*
Y01497*
X01357Y01495*
X0135*
X01374Y01502D02*
X01372Y01504D01*
X01367*
X01364Y01502*
Y015*
X01367Y01497*
X01372*
X01374Y01495*
Y01492*
X01372Y0149*
X01367*
X01364Y01492*
X01379Y0149D02*
X01384D01*
X01382*
Y01504*
X01379Y01502*
X04355Y0367D02*
X04345D01*
Y03655*
X04355*
X04345Y03662D02*
X0435D01*
X04359Y03655D02*
Y03665D01*
X04367*
X04369Y03662*
Y03655*
X04384Y03665D02*
X04377D01*
X04374Y03662*
Y03657*
X04377Y03655*
X04384*
X04397D02*
Y0367D01*
X04389Y03662*
X04399*
X04805Y03545D02*
X04795D01*
Y0353*
X04805*
X04795Y03537D02*
X048D01*
X0481Y0353D02*
Y0354D01*
X04817*
X04819Y03537*
Y0353*
X04834Y0354D02*
X04827D01*
X04824Y03537*
Y03532*
X04827Y0353*
X04834*
X04839Y03542D02*
X04842Y03545D01*
X04847*
X04849Y03542*
Y0354*
X04847Y03537*
X04844*
X04847*
X04849Y03535*
Y03532*
X04847Y0353*
X04842*
X04839Y03532*
X0299Y0362D02*
X0298D01*
Y03605*
X0299*
X0298Y03612D02*
X02985D01*
X02995Y03605D02*
Y03615D01*
X03002*
X03004Y03612*
Y03605*
X03019Y03615D02*
X03012D01*
X03009Y03612*
Y03607*
X03012Y03605*
X03019*
X03034D02*
X03024D01*
X03034Y03615*
Y03617*
X03032Y0362*
X03027*
X03024Y03617*
X02365Y02525D02*
Y02535D01*
X0235*
Y02525*
X02357Y02535D02*
Y0253D01*
X0235Y0252D02*
X0236D01*
Y02512*
X02357Y0251*
X0235*
X0236Y02495D02*
Y02502D01*
X02357Y02505*
X02352*
X0235Y02502*
Y02495*
Y0249D02*
Y02485D01*
Y02487*
X02365*
X02362Y0249*
X03507Y01905D02*
X03505Y01902D01*
Y01897*
X03507Y01895*
X03517*
X0352Y01897*
Y01902*
X03517Y01905*
X03505Y01909D02*
Y01919D01*
X03507*
X03517Y01909*
X0352*
X03507Y01924D02*
X03505Y01927D01*
Y01932*
X03507Y01934*
X0351*
X03512Y01932*
X03515Y01934*
X03517*
X0352Y01932*
Y01927*
X03517Y01924*
X03515*
X03512Y01927*
X0351Y01924*
X03507*
X03512Y01927D02*
Y01932D01*
X04385Y02997D02*
X04382Y02999D01*
X04377*
X04375Y02997*
Y02987*
X04377Y02985*
X04382*
X04385Y02987*
X0439Y02999D02*
X04399D01*
Y02997*
X0439Y02987*
Y02985*
X04404Y02999D02*
X04414D01*
Y02997*
X04404Y02987*
Y02985*
X03537Y01795D02*
X03535Y01792D01*
Y01787*
X03537Y01785*
X03547*
X0355Y01787*
Y01792*
X03547Y01795*
X03535Y01799D02*
Y01809D01*
X03537*
X03547Y01799*
X0355*
X03535Y01824D02*
X03537Y01819D01*
X03542Y01814*
X03547*
X0355Y01817*
Y01822*
X03547Y01824*
X03545*
X03542Y01822*
Y01814*
X03537Y0185D02*
X03535Y01847D01*
Y01842*
X03537Y0184*
X03547*
X0355Y01842*
Y01847*
X03547Y0185*
X03535Y01855D02*
Y01864D01*
X03537*
X03547Y01855*
X0355*
X03535Y01879D02*
Y01869D01*
X03542*
X0354Y01874*
Y01877*
X03542Y01879*
X03547*
X0355Y01877*
Y01872*
X03547Y01869*
X033Y02597D02*
X03297Y02599D01*
X03292*
X0329Y02597*
Y02587*
X03292Y02585*
X03297*
X033Y02587*
X03305Y02599D02*
X03314D01*
Y02597*
X03305Y02587*
Y02585*
X03327D02*
Y02599D01*
X03319Y02592*
X03329*
X0344Y02927D02*
X03437Y0293D01*
X03432*
X0343Y02927*
Y02917*
X03432Y02915*
X03437*
X0344Y02917*
X03444Y0293D02*
X03454D01*
Y02927*
X03444Y02917*
Y02915*
X03459Y02927D02*
X03462Y0293D01*
X03467*
X03469Y02927*
Y02925*
X03467Y02922*
X03464*
X03467*
X03469Y0292*
Y02917*
X03467Y02915*
X03462*
X03459Y02917*
X0355Y02867D02*
X03547Y0287D01*
X03542*
X0354Y02867*
Y02857*
X03542Y02855*
X03547*
X0355Y02857*
X03555Y0287D02*
X03564D01*
Y02867*
X03555Y02857*
Y02855*
X03579D02*
X03569D01*
X03579Y02865*
Y02867*
X03577Y0287*
X03572*
X03569Y02867*
X02875Y01672D02*
X02872Y01674D01*
X02867*
X02865Y01672*
Y01662*
X02867Y0166*
X02872*
X02875Y01662*
X0288Y01674D02*
X02889D01*
Y01672*
X0288Y01662*
Y0166*
X02894D02*
X02899D01*
X02897*
Y01674*
X02894Y01672*
X03412Y0239D02*
X0341Y02387D01*
Y02382*
X03412Y0238*
X03422*
X03425Y02382*
Y02387*
X03422Y0239*
X0341Y02394D02*
Y02404D01*
X03412*
X03422Y02394*
X03425*
X03412Y02409D02*
X0341Y02412D01*
Y02417*
X03412Y02419*
X03422*
X03425Y02417*
Y02412*
X03422Y02409*
X03412*
X03445Y01697D02*
X03442Y017D01*
X03437*
X03435Y01697*
Y01687*
X03437Y01685*
X03442*
X03445Y01687*
X03459Y017D02*
X03454Y01697D01*
X0345Y01692*
Y01687*
X03452Y01685*
X03457*
X03459Y01687*
Y0169*
X03457Y01692*
X0345*
X03464Y01687D02*
X03467Y01685D01*
X03472*
X03474Y01687*
Y01697*
X03472Y017*
X03467*
X03464Y01697*
Y01695*
X03467Y01692*
X03474*
X04565Y01962D02*
X04562Y01965D01*
X04557*
X04555Y01962*
Y01952*
X04557Y0195*
X04562*
X04565Y01952*
X04579Y01965D02*
X04574Y01962D01*
X04569Y01957*
Y01952*
X04572Y0195*
X04577*
X04579Y01952*
Y01955*
X04577Y01957*
X04569*
X04584Y01962D02*
X04587Y01965D01*
X04592*
X04594Y01962*
Y0196*
X04592Y01957*
X04594Y01955*
Y01952*
X04592Y0195*
X04587*
X04584Y01952*
Y01955*
X04587Y01957*
X04584Y0196*
Y01962*
X04587Y01957D02*
X04592D01*
X01635Y01637D02*
X01632Y01639D01*
X01627*
X01625Y01637*
Y01627*
X01627Y01625*
X01632*
X01635Y01627*
X01649Y01639D02*
X01644Y01637D01*
X01639Y01632*
Y01627*
X01642Y01625*
X01647*
X01649Y01627*
Y0163*
X01647Y01632*
X01639*
X01654Y01639D02*
X01664D01*
Y01637*
X01654Y01627*
Y01625*
X0147Y02217D02*
X01467Y0222D01*
X01462*
X0146Y02217*
Y02207*
X01462Y02205*
X01467*
X0147Y02207*
X01484Y0222D02*
X01479Y02217D01*
X01475Y02212*
Y02207*
X01477Y02205*
X01482*
X01484Y02207*
Y0221*
X01482Y02212*
X01475*
X01499Y0222D02*
X01494Y02217D01*
X01489Y02212*
Y02207*
X01492Y02205*
X01497*
X01499Y02207*
Y0221*
X01497Y02212*
X01489*
X01697Y0164D02*
X01695Y01637D01*
Y01632*
X01697Y0163*
X01707*
X0171Y01632*
Y01637*
X01707Y0164*
X01695Y01654D02*
X01697Y01649D01*
X01702Y01644*
X01707*
X0171Y01647*
Y01652*
X01707Y01654*
X01705*
X01702Y01652*
Y01644*
X01695Y01669D02*
Y01659D01*
X01702*
X017Y01664*
Y01667*
X01702Y01669*
X01707*
X0171Y01667*
Y01662*
X01707Y01659*
X0173Y02237D02*
X01727Y0224D01*
X01722*
X0172Y02237*
Y02227*
X01722Y02225*
X01727*
X0173Y02227*
X01744Y0224D02*
X01739Y02237D01*
X01735Y02232*
Y02227*
X01737Y02225*
X01742*
X01744Y02227*
Y0223*
X01742Y02232*
X01735*
X01757Y02225D02*
Y0224D01*
X01749Y02232*
X01759*
X0155Y02412D02*
X01547Y02414D01*
X01542*
X0154Y02412*
Y02402*
X01542Y024*
X01547*
X0155Y02402*
X01564Y02414D02*
X01559Y02412D01*
X01554Y02407*
Y02402*
X01557Y024*
X01562*
X01564Y02402*
Y02405*
X01562Y02407*
X01554*
X01569Y02412D02*
X01572Y02414D01*
X01577*
X01579Y02412*
Y0241*
X01577Y02407*
X01574*
X01577*
X01579Y02405*
Y02402*
X01577Y024*
X01572*
X01569Y02402*
X0186Y02552D02*
X01857Y02555D01*
X01852*
X0185Y02552*
Y02542*
X01852Y0254*
X01857*
X0186Y02542*
X01874Y02555D02*
X01869Y02552D01*
X01865Y02547*
Y02542*
X01867Y0254*
X01872*
X01874Y02542*
Y02545*
X01872Y02547*
X01865*
X01889Y0254D02*
X01879D01*
X01889Y0255*
Y02552*
X01887Y02555*
X01882*
X01879Y02552*
X018Y02167D02*
X01797Y0217D01*
X01792*
X0179Y02167*
Y02157*
X01792Y02155*
X01797*
X018Y02157*
X01814Y0217D02*
X01809Y02167D01*
X01804Y02162*
Y02157*
X01807Y02155*
X01812*
X01814Y02157*
Y0216*
X01812Y02162*
X01804*
X01819Y02155D02*
X01824D01*
X01822*
Y0217*
X01819Y02167*
X01555Y02577D02*
X01552Y02579D01*
X01547*
X01545Y02577*
Y02567*
X01547Y02565*
X01552*
X01555Y02567*
X01569Y02579D02*
X01564Y02577D01*
X0156Y02572*
Y02567*
X01562Y02565*
X01567*
X01569Y02567*
Y0257*
X01567Y02572*
X0156*
X01574Y02577D02*
X01577Y02579D01*
X01582*
X01584Y02577*
Y02567*
X01582Y02565*
X01577*
X01574Y02567*
Y02577*
X01965Y02502D02*
X01962Y02505D01*
X01957*
X01955Y02502*
Y02492*
X01957Y0249*
X01962*
X01965Y02492*
X01979Y02505D02*
X0197D01*
Y02497*
X01974Y025*
X01977*
X01979Y02497*
Y02492*
X01977Y0249*
X01972*
X0197Y02492*
X01984D02*
X01987Y0249D01*
X01992*
X01994Y02492*
Y02502*
X01992Y02505*
X01987*
X01984Y02502*
Y025*
X01987Y02497*
X01994*
X01385Y02542D02*
X01382Y02545D01*
X01377*
X01375Y02542*
Y02532*
X01377Y0253*
X01382*
X01385Y02532*
X01399Y02545D02*
X01389D01*
Y02537*
X01394Y0254*
X01397*
X01399Y02537*
Y02532*
X01397Y0253*
X01392*
X01389Y02532*
X01404Y02542D02*
X01407Y02545D01*
X01412*
X01414Y02542*
Y0254*
X01412Y02537*
X01414Y02535*
Y02532*
X01412Y0253*
X01407*
X01404Y02532*
Y02535*
X01407Y02537*
X01404Y0254*
Y02542*
X01407Y02537D02*
X01412D01*
X02255Y02097D02*
X02252Y02099D01*
X02247*
X02245Y02097*
Y02087*
X02247Y02085*
X02252*
X02255Y02087*
X02269Y02099D02*
X02259D01*
Y02092*
X02264Y02095*
X02267*
X02269Y02092*
Y02087*
X02267Y02085*
X02262*
X02259Y02087*
X02284Y02099D02*
X02274D01*
Y02092*
X02279Y02095*
X02282*
X02284Y02092*
Y02087*
X02282Y02085*
X02277*
X02274Y02087*
X02289Y02082D02*
X02299D01*
X02304Y02099D02*
Y02085D01*
X02312*
X02314Y02087*
Y02097*
X02312Y02099*
X02304*
X02319Y02085D02*
Y02099D01*
X02327*
X02329Y02097*
Y02092*
X02327Y0209*
X02319*
X02324D02*
X02329Y02085D01*
X02344D02*
X02334D01*
X02344Y02095*
Y02097*
X02342Y02099*
X02337*
X02334Y02097*
X03877Y0229D02*
X03875Y02287D01*
Y02282*
X03877Y0228*
X03887*
X0389Y02282*
Y02287*
X03887Y0229*
X03875Y02304D02*
Y02295D01*
X03882*
X0388Y02299*
Y02302*
X03882Y02304*
X03887*
X0389Y02302*
Y02297*
X03887Y02295*
X03875Y02319D02*
Y02309D01*
X03882*
X0388Y02314*
Y02317*
X03882Y02319*
X03887*
X0389Y02317*
Y02312*
X03887Y02309*
X03892Y02324D02*
Y02334D01*
X03875Y02339D02*
X0389D01*
Y02347*
X03887Y02349*
X03877*
X03875Y02347*
Y02339*
X0389Y02354D02*
X03875D01*
Y02362*
X03877Y02364*
X03882*
X03885Y02362*
Y02354*
Y02359D02*
X0389Y02364D01*
Y02369D02*
Y02374D01*
Y02372*
X03875*
X03877Y02369*
X02435Y01912D02*
X02432Y01914D01*
X02427*
X02425Y01912*
Y01902*
X02427Y019*
X02432*
X02435Y01902*
X02449Y01914D02*
X0244D01*
Y01907*
X02444Y0191*
X02447*
X02449Y01907*
Y01902*
X02447Y019*
X02442*
X0244Y01902*
X02454Y01912D02*
X02457Y01914D01*
X02462*
X02464Y01912*
Y01902*
X02462Y019*
X02457*
X02454Y01902*
Y01912*
X02469Y01897D02*
X02479D01*
X02484Y01914D02*
Y019D01*
X02492*
X02494Y01902*
Y01912*
X02492Y01914*
X02484*
X02499Y019D02*
Y01914D01*
X02507*
X02509Y01912*
Y01907*
X02507Y01905*
X02499*
X02504D02*
X02509Y019D01*
X02524D02*
X02514D01*
X02524Y0191*
Y01912*
X02522Y01914*
X02517*
X02514Y01912*
X03877Y0216D02*
X03875Y02157D01*
Y02152*
X03877Y0215*
X03887*
X0389Y02152*
Y02157*
X03887Y0216*
X03875Y02174D02*
Y02164D01*
X03882*
X0388Y02169*
Y02172*
X03882Y02174*
X03887*
X0389Y02172*
Y02167*
X03887Y02164*
X03877Y02179D02*
X03875Y02182D01*
Y02187*
X03877Y02189*
X03887*
X0389Y02187*
Y02182*
X03887Y02179*
X03877*
X03892Y02194D02*
Y02204D01*
X03875Y02209D02*
X0389D01*
Y02217*
X03887Y02219*
X03877*
X03875Y02217*
Y02209*
X0389Y02224D02*
X03875D01*
Y02232*
X03877Y02234*
X03882*
X03885Y02232*
Y02224*
Y02229D02*
X0389Y02234D01*
Y02239D02*
Y02244D01*
Y02242*
X03875*
X03877Y02239*
Y02045D02*
X03875Y02042D01*
Y02037*
X03877Y02035*
X03887*
X0389Y02037*
Y02042*
X03887Y02045*
X0389Y02057D02*
X03875D01*
X03882Y02049*
Y02059*
X03887Y02064D02*
X0389Y02067D01*
Y02072*
X03887Y02074*
X03877*
X03875Y02072*
Y02067*
X03877Y02064*
X0388*
X03882Y02067*
Y02074*
X03892Y02079D02*
Y02089D01*
X03875Y02094D02*
X0389D01*
Y02102*
X03887Y02104*
X03877*
X03875Y02102*
Y02094*
X0389Y02109D02*
X03875D01*
Y02117*
X03877Y02119*
X03882*
X03885Y02117*
Y02109*
Y02114D02*
X0389Y02119D01*
Y02124D02*
Y02129D01*
Y02127*
X03875*
X03877Y02124*
X03882Y01905D02*
X0388Y01902D01*
Y01897*
X03882Y01895*
X03892*
X03895Y01897*
Y01902*
X03892Y01905*
X03895Y01917D02*
X0388D01*
X03887Y01909*
Y01919*
X0388Y01924D02*
Y01934D01*
X03882*
X03892Y01924*
X03895*
X03897Y01939D02*
Y01949D01*
X0388Y01954D02*
X03895D01*
Y01962*
X03892Y01964*
X03882*
X0388Y01962*
Y01954*
X03895Y01969D02*
X0388D01*
Y01977*
X03882Y01979*
X03887*
X0389Y01977*
Y01969*
Y01974D02*
X03895Y01979D01*
Y01984D02*
Y01989D01*
Y01987*
X0388*
X03882Y01984*
X02302Y01375D02*
X02305Y01377D01*
Y01382*
X02302Y01385*
X02292*
X0229Y01382*
Y01377*
X02292Y01375*
X02302Y0137D02*
X02305Y01367D01*
Y01362*
X02302Y0136*
X023*
X02297Y01362*
Y01365*
Y01362*
X02295Y0136*
X02292*
X0229Y01362*
Y01367*
X02292Y0137*
X02305Y01345D02*
Y01355D01*
X02297*
X023Y0135*
Y01347*
X02297Y01345*
X02292*
X0229Y01347*
Y01352*
X02292Y01355*
X02287Y0134D02*
Y0133D01*
X02305Y01325D02*
X0229D01*
Y01317*
X02292Y01315*
X02302*
X02305Y01317*
Y01325*
X0229Y0131D02*
X02305D01*
Y01302*
X02302Y013*
X02297*
X02295Y01302*
Y0131*
Y01305D02*
X0229Y013D01*
Y01285D02*
Y01295D01*
X023Y01285*
X02302*
X02305Y01287*
Y01292*
X02302Y01295*
X0351Y01427D02*
X03507Y01429D01*
X03502*
X035Y01427*
Y01417*
X03502Y01415*
X03507*
X0351Y01417*
X03515Y01427D02*
X03517Y01429D01*
X03522*
X03524Y01427*
Y01425*
X03522Y01422*
X03519*
X03522*
X03524Y0142*
Y01417*
X03522Y01415*
X03517*
X03515Y01417*
X03539Y01429D02*
X03529D01*
Y01422*
X03534Y01425*
X03537*
X03539Y01422*
Y01417*
X03537Y01415*
X03532*
X03529Y01417*
X03544Y01412D02*
X03554D01*
X03559Y01429D02*
Y01415D01*
X03567*
X03569Y01417*
Y01427*
X03567Y01429*
X03559*
X03574Y01415D02*
Y01429D01*
X03582*
X03584Y01427*
Y01422*
X03582Y0142*
X03574*
X03579D02*
X03584Y01415D01*
X03589D02*
X03594D01*
X03592*
Y01429*
X03589Y01427*
X02692Y01345D02*
X02694Y01347D01*
Y01352*
X02692Y01355*
X02682*
X0268Y01352*
Y01347*
X02682Y01345*
X02692Y0134D02*
X02694Y01337D01*
Y01332*
X02692Y0133*
X0269*
X02687Y01332*
Y01335*
Y01332*
X02685Y0133*
X02682*
X0268Y01332*
Y01337*
X02682Y0134*
X02692Y01325D02*
X02694Y01322D01*
Y01317*
X02692Y01315*
X0269*
X02687Y01317*
Y0132*
Y01317*
X02685Y01315*
X02682*
X0268Y01317*
Y01322*
X02682Y01325*
X02677Y0131D02*
Y013D01*
X02694Y01295D02*
X0268D01*
Y01287*
X02682Y01285*
X02692*
X02694Y01287*
Y01295*
X0268Y0128D02*
X02694D01*
Y01272*
X02692Y0127*
X02687*
X02685Y01272*
Y0128*
Y01275D02*
X0268Y0127D01*
Y01255D02*
Y01265D01*
X0269Y01255*
X02692*
X02694Y01257*
Y01262*
X02692Y01265*
X04152Y013D02*
X0415Y01297D01*
Y01292*
X04152Y0129*
X04162*
X04165Y01292*
Y01297*
X04162Y013*
X04152Y01304D02*
X0415Y01307D01*
Y01312*
X04152Y01314*
X04155*
X04157Y01312*
Y01309*
Y01312*
X0416Y01314*
X04162*
X04165Y01312*
Y01307*
X04162Y01304*
X04152Y01319D02*
X0415Y01322D01*
Y01327*
X04152Y01329*
X04155*
X04157Y01327*
Y01324*
Y01327*
X0416Y01329*
X04162*
X04165Y01327*
Y01322*
X04162Y01319*
X04167Y01334D02*
Y01344D01*
X0415Y01349D02*
X04165D01*
Y01357*
X04162Y01359*
X04152*
X0415Y01357*
Y01349*
X04165Y01364D02*
X0415D01*
Y01372*
X04152Y01374*
X04157*
X0416Y01372*
Y01364*
Y01369D02*
X04165Y01374D01*
Y01379D02*
Y01384D01*
Y01382*
X0415*
X04152Y01379*
X02122Y01295D02*
X0212Y01292D01*
Y01287*
X02122Y01285*
X02132*
X02135Y01287*
Y01292*
X02132Y01295*
X02122Y01299D02*
X0212Y01302D01*
Y01307*
X02122Y01309*
X02125*
X02127Y01307*
Y01304*
Y01307*
X0213Y01309*
X02132*
X02135Y01307*
Y01302*
X02132Y01299*
X02135Y01324D02*
Y01314D01*
X02125Y01324*
X02122*
X0212Y01322*
Y01317*
X02122Y01314*
X02137Y01329D02*
Y01339D01*
X0212Y01344D02*
X02135D01*
Y01352*
X02132Y01354*
X02122*
X0212Y01352*
Y01344*
X02135Y01359D02*
X0212D01*
Y01367*
X02122Y01369*
X02127*
X0213Y01367*
Y01359*
Y01364D02*
X02135Y01369D01*
Y01384D02*
Y01374D01*
X02125Y01384*
X02122*
X0212Y01382*
Y01377*
X02122Y01374*
X03515Y01497D02*
X03512Y01499D01*
X03507*
X03505Y01497*
Y01487*
X03507Y01485*
X03512*
X03515Y01487*
X03519Y01497D02*
X03522Y01499D01*
X03527*
X03529Y01497*
Y01495*
X03527Y01492*
X03524*
X03527*
X03529Y0149*
Y01487*
X03527Y01485*
X03522*
X03519Y01487*
X03544Y01485D02*
X03534D01*
X03544Y01495*
Y01497*
X03542Y01499*
X03537*
X03534Y01497*
X03549Y01482D02*
X03559D01*
X03564Y01499D02*
Y01485D01*
X03572*
X03574Y01487*
Y01497*
X03572Y01499*
X03564*
X03579Y01485D02*
Y01499D01*
X03587*
X03589Y01497*
Y01492*
X03587Y0149*
X03579*
X03584D02*
X03589Y01485D01*
X03594D02*
X03599D01*
X03597*
Y01499*
X03594Y01497*
X021Y01452D02*
X02097Y01455D01*
X02092*
X0209Y01452*
Y01442*
X02092Y0144*
X02097*
X021Y01442*
X02114Y0144D02*
X02105D01*
X02114Y0145*
Y01452*
X02112Y01455*
X02107*
X02105Y01452*
X02129Y01455D02*
X02119D01*
Y01447*
X02124Y0145*
X02127*
X02129Y01447*
Y01442*
X02127Y0144*
X02122*
X02119Y01442*
X02134Y01437D02*
X02144D01*
X02149Y01455D02*
Y0144D01*
X02157*
X02159Y01442*
Y01452*
X02157Y01455*
X02149*
X02164Y0144D02*
Y01455D01*
X02172*
X02174Y01452*
Y01447*
X02172Y01445*
X02164*
X02169D02*
X02174Y0144D01*
X02189D02*
X02179D01*
X02189Y0145*
Y01452*
X02187Y01455*
X02182*
X02179Y01452*
X035Y01292D02*
X03497Y01294D01*
X03492*
X0349Y01292*
Y01282*
X03492Y0128*
X03497*
X035Y01282*
X03514Y0128D02*
X03505D01*
X03514Y0129*
Y01292*
X03512Y01294*
X03507*
X03505Y01292*
X03529Y01294D02*
X03519D01*
Y01287*
X03524Y0129*
X03527*
X03529Y01287*
Y01282*
X03527Y0128*
X03522*
X03519Y01282*
X03534Y01277D02*
X03544D01*
X03549Y01294D02*
Y0128D01*
X03557*
X03559Y01282*
Y01292*
X03557Y01294*
X03549*
X03564Y0128D02*
Y01294D01*
X03572*
X03574Y01292*
Y01287*
X03572Y01285*
X03564*
X03569D02*
X03574Y0128D01*
X03579D02*
X03584D01*
X03582*
Y01294*
X03579Y01292*
X03085Y03407D02*
X03082Y0341D01*
X03077*
X03075Y03407*
Y03397*
X03077Y03395*
X03082*
X03085Y03397*
X03099Y03395D02*
X03089D01*
X03099Y03405*
Y03407*
X03097Y0341*
X03092*
X03089Y03407*
X03112Y03395D02*
Y0341D01*
X03104Y03402*
X03114*
X027Y03657D02*
X02697Y0366D01*
X02692*
X0269Y03657*
Y03647*
X02692Y03645*
X02697*
X027Y03647*
X02714Y03645D02*
X02704D01*
X02714Y03655*
Y03657*
X02712Y0366*
X02707*
X02704Y03657*
X02719D02*
X02722Y0366D01*
X02727*
X02729Y03657*
Y03655*
X02727Y03652*
X02724*
X02727*
X02729Y0365*
Y03647*
X02727Y03645*
X02722*
X02719Y03647*
X0455Y02137D02*
X04547Y0214D01*
X04542*
X0454Y02137*
Y02127*
X04542Y02125*
X04547*
X0455Y02127*
X04564Y02125D02*
X04555D01*
X04564Y02135*
Y02137*
X04562Y0214*
X04557*
X04555Y02137*
X04579Y02125D02*
X04569D01*
X04579Y02135*
Y02137*
X04577Y0214*
X04572*
X04569Y02137*
X02715Y01562D02*
X02712Y01565D01*
X02707*
X02705Y01562*
Y01552*
X02707Y0155*
X02712*
X02715Y01552*
X02729Y0155D02*
X0272D01*
X02729Y0156*
Y01562*
X02727Y01565*
X02722*
X0272Y01562*
X02734Y0155D02*
X02739D01*
X02737*
Y01565*
X02734Y01562*
X01975Y02912D02*
X01972Y02914D01*
X01967*
X01965Y02912*
Y02902*
X01967Y029*
X01972*
X01975Y02902*
X01989Y029D02*
X0198D01*
X01989Y0291*
Y02912*
X01987Y02914*
X01982*
X0198Y02912*
X01994D02*
X01997Y02914D01*
X02002*
X02004Y02912*
Y02902*
X02002Y029*
X01997*
X01994Y02902*
Y02912*
X04225Y02292D02*
X04222Y02295D01*
X04217*
X04215Y02292*
Y02282*
X04217Y0228*
X04222*
X04225Y02282*
X04229Y0228D02*
X04234D01*
X04232*
Y02295*
X04229Y02292*
X04242Y02282D02*
X04244Y0228D01*
X04249*
X04252Y02282*
Y02292*
X04249Y02295*
X04244*
X04242Y02292*
Y0229*
X04244Y02287*
X04252*
X02385Y03666D02*
X02382Y03668D01*
X02377*
X02375Y03666*
Y03656*
X02377Y03654*
X02382*
X02385Y03656*
X0239Y03654D02*
X02394D01*
X02392*
Y03668*
X0239Y03666*
X02402D02*
X02404Y03668D01*
X02409*
X02412Y03666*
Y03664*
X02409Y03661*
X02412Y03659*
Y03656*
X02409Y03654*
X02404*
X02402Y03656*
Y03659*
X02404Y03661*
X02402Y03664*
Y03666*
X02404Y03661D02*
X02409D01*
X04278Y02516D02*
X04275Y02519D01*
X0427*
X04268Y02516*
Y02506*
X0427Y02504*
X04275*
X04278Y02506*
X04283Y02504D02*
X04287D01*
X04285*
Y02519*
X04283Y02516*
X04295Y02519D02*
X04305D01*
Y02516*
X04295Y02506*
Y02504*
X03682Y01945D02*
X0368Y01942D01*
Y01937*
X03682Y01935*
X03692*
X03695Y01937*
Y01942*
X03692Y01945*
X03695Y0195D02*
Y01954D01*
Y01952*
X0368*
X03682Y0195*
X0368Y01972D02*
X03682Y01967D01*
X03687Y01962*
X03692*
X03695Y01964*
Y01969*
X03692Y01972*
X0369*
X03687Y01969*
Y01962*
X03537Y0201D02*
X03535Y02007D01*
Y02002*
X03537Y02*
X03547*
X0355Y02002*
Y02007*
X03547Y0201*
X0355Y02015D02*
Y02019D01*
Y02017*
X03535*
X03537Y02015*
X03535Y02037D02*
Y02027D01*
X03542*
X0354Y02032*
Y02034*
X03542Y02037*
X03547*
X0355Y02034*
Y02029*
X03547Y02027*
X03537Y02065D02*
X03535Y02062D01*
Y02057*
X03537Y02055*
X03547*
X0355Y02057*
Y02062*
X03547Y02065*
X0355Y02069D02*
Y02074D01*
Y02072*
X03535*
X03537Y02069*
X0355Y02089D02*
X03535D01*
X03542Y02082*
Y02092*
X02647Y02357D02*
X0265Y0236D01*
Y02365*
X02647Y02367*
X02637*
X02635Y02365*
Y0236*
X02637Y02357*
X02635Y02352D02*
Y02347D01*
Y0235*
X0265*
X02647Y02352*
Y0234D02*
X0265Y02337D01*
Y02332*
X02647Y0233*
X02645*
X02642Y02332*
Y02335*
Y02332*
X0264Y0233*
X02637*
X02635Y02332*
Y02337*
X02637Y0234*
X02705Y02482D02*
X02702Y02484D01*
X02697*
X02695Y02482*
Y02472*
X02697Y0247*
X02702*
X02705Y02472*
X0271Y0247D02*
X02714D01*
X02712*
Y02484*
X0271Y02482*
X02732Y0247D02*
X02722D01*
X02732Y0248*
Y02482*
X02729Y02484*
X02724*
X02722Y02482*
X0287Y02467D02*
X02867Y0247D01*
X02862*
X0286Y02467*
Y02457*
X02862Y02455*
X02867*
X0287Y02457*
X02874Y02455D02*
X02879D01*
X02877*
Y0247*
X02874Y02467*
X02887Y02455D02*
X02892D01*
X02889*
Y0247*
X02887Y02467*
X01232Y02097D02*
X01229Y02099D01*
X01224*
X01222Y02097*
Y02087*
X01224Y02085*
X01229*
X01232Y02087*
X01237Y02085D02*
X01242D01*
X01239*
Y02099*
X01237Y02097*
X01249D02*
X01252Y02099D01*
X01257*
X01259Y02097*
Y02087*
X01257Y02085*
X01252*
X01249Y02087*
Y02097*
X01795Y01752D02*
X01792Y01754D01*
X01787*
X01785Y01752*
Y01742*
X01787Y0174*
X01792*
X01795Y01742*
X01799D02*
X01802Y0174D01*
X01807*
X01809Y01742*
Y01752*
X01807Y01754*
X01802*
X01799Y01752*
Y0175*
X01802Y01747*
X01809*
X02655Y01887D02*
X02652Y01889D01*
X02647*
X02645Y01887*
Y01877*
X02647Y01875*
X02652*
X02655Y01877*
X0266Y01887D02*
X02662Y01889D01*
X02667*
X02669Y01887*
Y01885*
X02667Y01882*
X02669Y0188*
Y01877*
X02667Y01875*
X02662*
X0266Y01877*
Y0188*
X02662Y01882*
X0266Y01885*
Y01887*
X02662Y01882D02*
X02667D01*
X02785Y01957D02*
X02787Y01955D01*
X02792*
X02795Y01957*
Y01967*
X02792Y0197*
X02787*
X02785Y01967*
X0278Y01955D02*
X0277D01*
Y01957*
X0278Y01967*
Y0197*
X01953Y02555D02*
X0195Y02557D01*
X01945*
X01943Y02555*
Y02545*
X01945Y02542*
X0195*
X01953Y02545*
X01968Y02557D02*
X01963Y02555D01*
X01958Y0255*
Y02545*
X0196Y02542*
X01965*
X01968Y02545*
Y02547*
X01965Y0255*
X01958*
X0261Y01872D02*
X02607Y01874D01*
X02602*
X026Y01872*
Y01862*
X02602Y0186*
X02607*
X0261Y01862*
X02624Y01874D02*
X02615D01*
Y01867*
X02619Y0187*
X02622*
X02624Y01867*
Y01862*
X02622Y0186*
X02617*
X02615Y01862*
X03682Y0175D02*
X03684Y01752D01*
Y01757*
X03682Y0176*
X03672*
X0367Y01757*
Y01752*
X03672Y0175*
X0367Y01737D02*
X03684D01*
X03677Y01745*
Y01735*
X02425Y02132D02*
X02422Y02134D01*
X02417*
X02415Y02132*
Y02122*
X02417Y0212*
X02422*
X02425Y02122*
X0243Y02132D02*
X02432Y02134D01*
X02437*
X02439Y02132*
Y0213*
X02437Y02127*
X02434*
X02437*
X02439Y02125*
Y02122*
X02437Y0212*
X02432*
X0243Y02122*
X0345Y02487D02*
X03452Y02485D01*
X03457*
X0346Y02487*
Y02497*
X03457Y025*
X03452*
X0345Y02497*
X03435Y025D02*
X03445D01*
X03435Y0249*
Y02487*
X03437Y02485*
X03442*
X03445Y02487*
X02415Y02277D02*
X02412Y02279D01*
X02407*
X02405Y02277*
Y02267*
X02407Y02265*
X02412*
X02415Y02267*
X0242Y02265D02*
X02424D01*
X02422*
Y02279*
X0242Y02277*
X00875Y03691D02*
X00872Y03694D01*
X00867*
X00865Y03691*
Y03681*
X00867Y03679*
X00872*
X00875Y03681*
X00889Y03679D02*
X00879D01*
X00889Y03689*
Y03691*
X00887Y03694*
X00882*
X00879Y03691*
X00894D02*
X00897Y03694D01*
X00902*
X00904Y03691*
Y03689*
X00902Y03686*
X00904Y03684*
Y03681*
X00902Y03679*
X00897*
X00894Y03681*
Y03684*
X00897Y03686*
X00894Y03689*
Y03691*
X00897Y03686D02*
X00902D01*
X01625Y03697D02*
X01622Y037D01*
X01617*
X01615Y03697*
Y03687*
X01617Y03685*
X01622*
X01625Y03687*
X01629Y03697D02*
X01632Y037D01*
X01637*
X01639Y03697*
Y03695*
X01637Y03692*
X01634*
X01637*
X01639Y0369*
Y03687*
X01637Y03685*
X01632*
X01629Y03687*
X01644Y03685D02*
X01649D01*
X01647*
Y037*
X01644Y03697*
M02*